<svg width="48" height="48" viewBox="0 0 48 48" fill="none" xmlns="http://www.w3.org/2000/svg">
<g clip-path="url(#clip0_69_2406)">
<path d="M24 39.5156C23.3485 39.5156 22.6961 39.3616 22.1134 39.0702L6.41428 31.2206L0.777375 34.0391C0.300938 34.2772 0 34.7642 0 35.2969C0 35.8296 0.300938 36.3165 0.777375 36.5546L23.3711 47.8515C23.569 47.9505 23.7846 48 24 48C24.2154 48 24.431 47.9505 24.6289 47.8515L47.2226 36.5546C47.6991 36.3165 48 35.8296 48 35.2969C48 34.7642 47.6991 34.2772 47.2226 34.0391L41.5857 31.2207L25.8866 39.0702C25.3039 39.3616 24.6515 39.5156 24 39.5156Z" fill="#E33925"/>
<path d="M47.2226 22.7422L41.5857 19.9238L25.8866 27.7733C25.3039 28.0647 24.6515 28.2187 24 28.2187C23.3485 28.2187 22.6961 28.0647 22.1134 27.7733L6.41428 19.9237L0.777375 22.7422C0.300938 22.9804 0 23.4673 0 24C0 24.5327 0.300938 25.0196 0.777375 25.2577L23.3711 36.5546C23.569 36.6536 23.7846 36.7031 24 36.7031C24.2154 36.7031 24.431 36.6536 24.6289 36.5546L47.2226 25.2577C47.6991 25.0196 48 24.5326 48 24C48 23.4674 47.6991 22.9804 47.2226 22.7422Z" fill="#E33925"/>
<path d="M23.3711 25.2577C23.569 25.3567 23.7846 25.4062 24 25.4062C24.2154 25.4062 24.431 25.3567 24.6289 25.2577L47.2226 13.9609C47.6991 13.7227 48 13.2358 48 12.7031C48 12.1704 47.6991 11.6835 47.2226 11.4454L24.6289 0.148491C24.233 -0.0494155 23.767 -0.0494155 23.3711 0.148491L0.777375 11.4454C0.300938 11.6835 0 12.1704 0 12.7031C0 13.2358 0.300938 13.7227 0.777375 13.9609L23.3711 25.2577Z" fill="#E33925"/>
<circle cx="12.655" cy="34.655" r="12.655" fill="#FFDFDB"/>
<path d="M10.3253 30.2727V39H8.74432V31.8111H8.69318L6.65199 33.1151V31.6662L8.82102 30.2727H10.3253ZM12.5412 39V37.858L15.571 34.8878C15.8608 34.5952 16.1023 34.3352 16.2955 34.108C16.4886 33.8807 16.6335 33.6605 16.7301 33.4474C16.8267 33.2344 16.875 33.0071 16.875 32.7656C16.875 32.4901 16.8125 32.2543 16.6875 32.0582C16.5625 31.8594 16.3906 31.706 16.1719 31.598C15.9531 31.4901 15.7045 31.4361 15.4261 31.4361C15.1392 31.4361 14.8878 31.4957 14.6719 31.6151C14.456 31.7315 14.2884 31.8977 14.169 32.1136C14.0526 32.3295 13.9943 32.5866 13.9943 32.8849H12.4901C12.4901 32.331 12.6165 31.8494 12.8693 31.4403C13.1222 31.0312 13.4702 30.7145 13.9134 30.4901C14.3594 30.2656 14.8707 30.1534 15.4474 30.1534C16.0327 30.1534 16.5469 30.2628 16.9901 30.4815C17.4332 30.7003 17.777 31 18.0213 31.3807C18.2685 31.7614 18.392 32.196 18.392 32.6847C18.392 33.0114 18.3295 33.3324 18.2045 33.6477C18.0795 33.9631 17.8594 34.3125 17.544 34.696C17.2315 35.0795 16.7926 35.544 16.2273 36.0895L14.723 37.6193V37.679H18.5241V39H12.5412Z" fill="#E33925"/>
</g>
<defs>
<clipPath id="clip0_69_2406">
<rect width="48" height="48" fill="white"/>
</clipPath>
</defs>
</svg>
