<svg width="48" height="48" viewBox="0 0 48 48" fill="none" xmlns="http://www.w3.org/2000/svg">
<g clip-path="url(#clip0_69_2382)">
<path d="M24 39.5156C23.3485 39.5156 22.6961 39.3616 22.1134 39.0702L6.41428 31.2206L0.777375 34.0391C0.300938 34.2772 0 34.7642 0 35.2969C0 35.8296 0.300938 36.3165 0.777375 36.5546L23.3711 47.8515C23.569 47.9505 23.7846 48 24 48C24.2154 48 24.431 47.9505 24.6289 47.8515L47.2226 36.5546C47.6991 36.3165 48 35.8296 48 35.2969C48 34.7642 47.6991 34.2772 47.2226 34.0391L41.5857 31.2207L25.8866 39.0702C25.3039 39.3616 24.6515 39.5156 24 39.5156Z" fill="#E33925"/>
<path d="M47.2226 22.7422L41.5857 19.9238L25.8866 27.7733C25.3039 28.0647 24.6515 28.2187 24 28.2187C23.3485 28.2187 22.6961 28.0647 22.1134 27.7733L6.41428 19.9237L0.777375 22.7422C0.300938 22.9804 0 23.4673 0 24C0 24.5327 0.300938 25.0196 0.777375 25.2577L23.3711 36.5546C23.569 36.6536 23.7846 36.7031 24 36.7031C24.2154 36.7031 24.431 36.6536 24.6289 36.5546L47.2226 25.2577C47.6991 25.0196 48 24.5326 48 24C48 23.4674 47.6991 22.9804 47.2226 22.7422Z" fill="#E33925"/>
<path d="M23.3711 25.2577C23.569 25.3567 23.7846 25.4062 24 25.4062C24.2154 25.4062 24.431 25.3567 24.6289 25.2577L47.2226 13.9609C47.6991 13.7227 48 13.2358 48 12.7031C48 12.1704 47.6991 11.6835 47.2226 11.4454L24.6289 0.148491C24.233 -0.0494155 23.767 -0.0494155 23.3711 0.148491L0.777375 11.4454C0.300938 11.6835 0 12.1704 0 12.7031C0 13.2358 0.300938 13.7227 0.777375 13.9609L23.3711 25.2577Z" fill="#E33925"/>
<circle cx="12.655" cy="34.655" r="12.655" fill="#FFDFDB"/>
<path d="M13.7107 30.4647C14.1283 30.4675 14.5345 30.5414 14.9294 30.6862C15.3271 30.8283 15.6851 31.0612 16.0033 31.3851C16.3215 31.7061 16.5743 32.1365 16.7618 32.6763C16.9493 33.2161 17.0431 33.8837 17.0431 34.6791C17.0459 35.4291 16.9664 36.0996 16.8044 36.6905C16.6453 37.2786 16.4166 37.7757 16.1183 38.182C15.82 38.5882 15.4607 38.8979 15.0402 39.111C14.6198 39.324 14.1468 39.4306 13.6212 39.4306C13.07 39.4306 12.5814 39.3226 12.1553 39.1067C11.732 38.8908 11.3896 38.5953 11.1283 38.2203C10.8669 37.8453 10.7064 37.4164 10.6468 36.9334H12.2021C12.2817 37.28 12.4436 37.5556 12.6879 37.7601C12.9351 37.9618 13.2462 38.0627 13.6212 38.0627C14.2263 38.0627 14.6922 37.7999 15.0189 37.2743C15.3456 36.7487 15.509 36.0186 15.509 35.084H15.4493C15.3101 35.334 15.1297 35.5499 14.9081 35.7317C14.6865 35.9107 14.4351 36.0485 14.1539 36.1451C13.8754 36.2416 13.58 36.2899 13.2675 36.2899C12.7561 36.2899 12.2959 36.1678 11.8868 35.9235C11.4806 35.6791 11.1581 35.3439 10.9195 34.9178C10.6837 34.4916 10.5644 34.0044 10.5615 33.4561C10.5615 32.888 10.6922 32.378 10.9536 31.9263C11.2178 31.4718 11.5857 31.1138 12.0573 30.8524C12.5289 30.5882 13.08 30.459 13.7107 30.4647ZM13.7149 31.7431C13.4081 31.7431 13.1311 31.8184 12.884 31.9689C12.6396 32.1166 12.4465 32.3184 12.3044 32.574C12.1652 32.8269 12.0956 33.1095 12.0956 33.422C12.0985 33.7317 12.1681 34.013 12.3044 34.2658C12.4436 34.5186 12.6325 34.7189 12.8712 34.8666C13.1127 35.0144 13.3882 35.0882 13.6979 35.0882C13.928 35.0882 14.1425 35.0442 14.3414 34.9561C14.5402 34.8681 14.7135 34.7459 14.8612 34.5897C15.0118 34.4306 15.1283 34.2502 15.2107 34.0485C15.2959 33.8468 15.3371 33.6337 15.3343 33.4093C15.3343 33.111 15.2632 32.8354 15.1212 32.5826C14.982 32.3297 14.7902 32.1266 14.5459 31.9732C14.3044 31.8198 14.0274 31.7431 13.7149 31.7431Z" fill="#E33925"/>
</g>
<defs>
<clipPath id="clip0_69_2382">
<rect width="48" height="48" fill="white"/>
</clipPath>
</defs>
</svg>
