<svg width="48" height="48" viewBox="0 0 48 48" fill="none" xmlns="http://www.w3.org/2000/svg">
<g clip-path="url(#clip0_69_2374)">
<path d="M24 39.5156C23.3485 39.5156 22.6961 39.3616 22.1134 39.0702L6.41428 31.2206L0.777375 34.0391C0.300938 34.2772 0 34.7642 0 35.2969C0 35.8296 0.300938 36.3165 0.777375 36.5546L23.3711 47.8515C23.569 47.9505 23.7846 48 24 48C24.2154 48 24.431 47.9505 24.6289 47.8515L47.2226 36.5546C47.6991 36.3165 48 35.8296 48 35.2969C48 34.7642 47.6991 34.2772 47.2226 34.0391L41.5857 31.2207L25.8866 39.0702C25.3039 39.3616 24.6515 39.5156 24 39.5156Z" fill="#E33925"/>
<path d="M47.2226 22.7422L41.5857 19.9238L25.8866 27.7733C25.3039 28.0647 24.6515 28.2187 24 28.2187C23.3485 28.2187 22.6961 28.0647 22.1134 27.7733L6.41428 19.9237L0.777375 22.7422C0.300938 22.9804 0 23.4673 0 24C0 24.5327 0.300938 25.0196 0.777375 25.2577L23.3711 36.5546C23.569 36.6536 23.7846 36.7031 24 36.7031C24.2154 36.7031 24.431 36.6536 24.6289 36.5546L47.2226 25.2577C47.6991 25.0196 48 24.5326 48 24C48 23.4674 47.6991 22.9804 47.2226 22.7422Z" fill="#E33925"/>
<path d="M23.3711 25.2577C23.569 25.3567 23.7846 25.4062 24 25.4062C24.2154 25.4062 24.431 25.3567 24.6289 25.2577L47.2226 13.9609C47.6991 13.7227 48 13.2358 48 12.7031C48 12.1704 47.6991 11.6835 47.2226 11.4454L24.6289 0.148491C24.233 -0.0494155 23.767 -0.0494155 23.3711 0.148491L0.777375 11.4454C0.300938 11.6835 0 12.1704 0 12.7031C0 13.2358 0.300938 13.7227 0.777375 13.9609L23.3711 25.2577Z" fill="#E33925"/>
<circle cx="12.655" cy="34.655" r="12.655" fill="#FFDFDB"/>
<path d="M13.7831 39.4306C13.1496 39.4306 12.5871 39.324 12.0956 39.111C11.607 38.8979 11.2235 38.6067 10.945 38.2374C10.6695 37.8652 10.5331 37.4434 10.536 36.9718C10.5331 36.6053 10.6127 36.2686 10.7746 35.9618C10.9365 35.655 11.1553 35.3993 11.4308 35.1948C11.7093 34.9874 12.0189 34.8553 12.3598 34.7985V34.7388C11.911 34.6394 11.5473 34.4107 11.2689 34.0527C10.9933 33.6919 10.857 33.2757 10.8598 32.8041C10.857 32.3553 10.982 31.9547 11.2348 31.6024C11.4877 31.2502 11.8343 30.9732 12.2746 30.7715C12.7149 30.5669 13.2178 30.4647 13.7831 30.4647C14.3428 30.4647 14.8414 30.5669 15.2789 30.7715C15.7192 30.9732 16.0658 31.2502 16.3186 31.6024C16.5743 31.9547 16.7021 32.3553 16.7021 32.8041C16.7021 33.2757 16.5615 33.6919 16.2803 34.0527C16.0019 34.4107 15.6425 34.6394 15.2021 34.7388V34.7985C15.5431 34.8553 15.8499 34.9874 16.1226 35.1948C16.3982 35.3993 16.6169 35.655 16.7789 35.9618C16.9436 36.2686 17.026 36.6053 17.026 36.9718C17.026 37.4434 16.8868 37.8652 16.6084 38.2374C16.33 38.6067 15.9465 38.8979 15.4578 39.111C14.972 39.324 14.4138 39.4306 13.7831 39.4306ZM13.7831 38.2118C14.1098 38.2118 14.3939 38.1564 14.6354 38.0456C14.8769 37.932 15.0644 37.7729 15.1979 37.5684C15.3314 37.3638 15.3996 37.128 15.4024 36.861C15.3996 36.5826 15.3271 36.3368 15.1851 36.1237C15.0459 35.9078 14.8541 35.7388 14.6098 35.6166C14.3683 35.4945 14.0928 35.4334 13.7831 35.4334C13.4706 35.4334 13.1922 35.4945 12.9479 35.6166C12.7036 35.7388 12.5104 35.9078 12.3683 36.1237C12.2291 36.3368 12.161 36.5826 12.1638 36.861C12.161 37.128 12.2263 37.3638 12.3598 37.5684C12.4933 37.7701 12.6808 37.9277 12.9223 38.0414C13.1666 38.155 13.4536 38.2118 13.7831 38.2118ZM13.7831 34.236C14.0502 34.236 14.286 34.182 14.4905 34.074C14.6979 33.9661 14.8612 33.8155 14.9806 33.6223C15.0999 33.4291 15.161 33.2061 15.1638 32.9533C15.161 32.7033 15.1013 32.4845 14.9848 32.297C14.8683 32.1067 14.7064 31.9604 14.499 31.8581C14.2916 31.753 14.053 31.7005 13.7831 31.7005C13.5075 31.7005 13.2646 31.753 13.0544 31.8581C12.847 31.9604 12.6851 32.1067 12.5686 32.297C12.455 32.4845 12.3996 32.7033 12.4024 32.9533C12.3996 33.2061 12.4564 33.4291 12.5729 33.6223C12.6922 33.8127 12.8556 33.9632 13.0629 34.074C13.2732 34.182 13.5132 34.236 13.7831 34.236Z" fill="#E33925"/>
</g>
<defs>
<clipPath id="clip0_69_2374">
<rect width="48" height="48" fill="white"/>
</clipPath>
</defs>
</svg>
