<svg width="48" height="48" viewBox="0 0 48 48" fill="none" xmlns="http://www.w3.org/2000/svg">
<g clip-path="url(#clip0_69_2390)">
<path d="M24 39.5156C23.3485 39.5156 22.6961 39.3616 22.1134 39.0702L6.41428 31.2206L0.777375 34.0391C0.300938 34.2772 0 34.7642 0 35.2969C0 35.8296 0.300938 36.3165 0.777375 36.5546L23.3711 47.8515C23.569 47.9505 23.7846 48 24 48C24.2154 48 24.431 47.9505 24.6289 47.8515L47.2226 36.5546C47.6991 36.3165 48 35.8296 48 35.2969C48 34.7642 47.6991 34.2772 47.2226 34.0391L41.5857 31.2207L25.8866 39.0702C25.3039 39.3616 24.6515 39.5156 24 39.5156Z" fill="#E33925"/>
<path d="M47.2226 22.7422L41.5857 19.9238L25.8866 27.7733C25.3039 28.0647 24.6515 28.2187 24 28.2187C23.3485 28.2187 22.6961 28.0647 22.1134 27.7733L6.41428 19.9237L0.777375 22.7422C0.300938 22.9804 0 23.4673 0 24C0 24.5327 0.300938 25.0196 0.777375 25.2577L23.3711 36.5546C23.569 36.6536 23.7846 36.7031 24 36.7031C24.2154 36.7031 24.431 36.6536 24.6289 36.5546L47.2226 25.2577C47.6991 25.0196 48 24.5326 48 24C48 23.4674 47.6991 22.9804 47.2226 22.7422Z" fill="#E33925"/>
<path d="M23.3711 25.2577C23.569 25.3567 23.7846 25.4062 24 25.4062C24.2154 25.4062 24.431 25.3567 24.6289 25.2577L47.2226 13.9609C47.6991 13.7227 48 13.2358 48 12.7031C48 12.1704 47.6991 11.6835 47.2226 11.4454L24.6289 0.148491C24.233 -0.0494155 23.767 -0.0494155 23.3711 0.148491L0.777375 11.4454C0.300938 11.6835 0 12.1704 0 12.7031C0 13.2358 0.300938 13.7227 0.777375 13.9609L23.3711 25.2577Z" fill="#E33925"/>
<circle cx="12.655" cy="34.655" r="12.655" fill="#FFDFDB"/>
<path d="M10.3253 30.2727V39H8.74432V31.8111H8.69318L6.65199 33.1151V31.6662L8.82102 30.2727H10.3253ZM15.767 39.1662C15.0653 39.1662 14.4631 38.9886 13.9602 38.6335C13.4602 38.2756 13.0753 37.7599 12.8054 37.0866C12.5384 36.4105 12.4048 35.5966 12.4048 34.6449C12.4077 33.6932 12.5426 32.8835 12.8097 32.2159C13.0795 31.5455 13.4645 31.0341 13.9645 30.6818C14.4673 30.3295 15.0682 30.1534 15.767 30.1534C16.4659 30.1534 17.0668 30.3295 17.5696 30.6818C18.0724 31.0341 18.4574 31.5455 18.7244 32.2159C18.9943 32.8864 19.1293 33.696 19.1293 34.6449C19.1293 35.5994 18.9943 36.4148 18.7244 37.0909C18.4574 37.7642 18.0724 38.2784 17.5696 38.6335C17.0696 38.9886 16.4688 39.1662 15.767 39.1662ZM15.767 37.8324C16.3125 37.8324 16.7429 37.5639 17.0582 37.027C17.3764 36.4872 17.5355 35.6932 17.5355 34.6449C17.5355 33.9517 17.4631 33.3693 17.3182 32.8977C17.1733 32.4261 16.9688 32.071 16.7045 31.8324C16.4403 31.5909 16.1278 31.4702 15.767 31.4702C15.2244 31.4702 14.7955 31.7401 14.4801 32.2798C14.1648 32.8168 14.0057 33.6051 14.0028 34.6449C14 35.3409 14.0696 35.9261 14.2116 36.4006C14.3565 36.875 14.5611 37.233 14.8253 37.4744C15.0895 37.7131 15.4034 37.8324 15.767 37.8324Z" fill="#E33925"/>
</g>
<defs>
<clipPath id="clip0_69_2390">
<rect width="48" height="48" fill="white"/>
</clipPath>
</defs>
</svg>
