<svg width="48" height="48" viewBox="0 0 48 48" fill="none" xmlns="http://www.w3.org/2000/svg">
<g clip-path="url(#clip0_69_2350)">
<path d="M24 39.5156C23.3485 39.5156 22.6961 39.3616 22.1134 39.0702L6.41428 31.2206L0.777375 34.0391C0.300938 34.2772 0 34.7642 0 35.2969C0 35.8296 0.300938 36.3165 0.777375 36.5546L23.3711 47.8515C23.569 47.9505 23.7846 48 24 48C24.2154 48 24.431 47.9505 24.6289 47.8515L47.2226 36.5546C47.6991 36.3165 48 35.8296 48 35.2969C48 34.7642 47.6991 34.2772 47.2226 34.0391L41.5857 31.2207L25.8866 39.0702C25.3039 39.3616 24.6515 39.5156 24 39.5156Z" fill="#E33925"/>
<path d="M47.2226 22.7422L41.5857 19.9238L25.8866 27.7733C25.3039 28.0647 24.6515 28.2187 24 28.2187C23.3485 28.2187 22.6961 28.0647 22.1134 27.7733L6.41428 19.9237L0.777375 22.7422C0.300938 22.9804 0 23.4673 0 24C0 24.5327 0.300938 25.0196 0.777375 25.2577L23.3711 36.5546C23.569 36.6536 23.7846 36.7031 24 36.7031C24.2154 36.7031 24.431 36.6536 24.6289 36.5546L47.2226 25.2577C47.6991 25.0196 48 24.5326 48 24C48 23.4674 47.6991 22.9804 47.2226 22.7422Z" fill="#E33925"/>
<path d="M23.3711 25.2577C23.569 25.3567 23.7846 25.4062 24 25.4062C24.2154 25.4062 24.431 25.3567 24.6289 25.2577L47.2226 13.9609C47.6991 13.7227 48 13.2358 48 12.7031C48 12.1704 47.6991 11.6835 47.2226 11.4454L24.6289 0.148491C24.233 -0.0494155 23.767 -0.0494155 23.3711 0.148491L0.777375 11.4454C0.300938 11.6835 0 12.1704 0 12.7031C0 13.2358 0.300938 13.7227 0.777375 13.9609L23.3711 25.2577Z" fill="#E33925"/>
<circle cx="12.655" cy="34.655" r="12.655" fill="#FFDFDB"/>
<path d="M13.7149 39.4306C13.1468 39.4306 12.6382 39.324 12.1894 39.111C11.7405 38.8951 11.384 38.5996 11.1198 38.2246C10.8584 37.8496 10.7192 37.4206 10.7021 36.9377H12.2362C12.2646 37.2956 12.4195 37.5882 12.7007 37.8155C12.982 38.0399 13.32 38.1522 13.7149 38.1522C14.0246 38.1522 14.3002 38.0811 14.5416 37.9391C14.7831 37.797 14.9735 37.5996 15.1127 37.3468C15.2519 37.0939 15.32 36.8056 15.3172 36.4817C15.32 36.1522 15.2504 35.8595 15.1084 35.6039C14.9664 35.3482 14.7718 35.1479 14.5246 35.003C14.2774 34.8553 13.9933 34.7814 13.6723 34.7814C13.411 34.7786 13.1539 34.8269 12.901 34.9263C12.6482 35.0257 12.4479 35.1564 12.3002 35.3184L10.8726 35.084L11.3286 30.584H16.3911V31.905H12.6368L12.3854 34.2189H12.4365C12.5985 34.0286 12.8271 33.8709 13.1226 33.7459C13.4181 33.6181 13.7419 33.5541 14.0942 33.5541C14.6226 33.5541 15.0942 33.6791 15.509 33.9291C15.9237 34.1763 16.2504 34.5172 16.4891 34.9519C16.7277 35.3865 16.847 35.8837 16.847 36.4434C16.847 37.0201 16.7135 37.5343 16.4465 37.986C16.1823 38.4348 15.8144 38.7885 15.3428 39.047C14.874 39.3027 14.3314 39.4306 13.7149 39.4306Z" fill="#E33925"/>
</g>
<defs>
<clipPath id="clip0_69_2350">
<rect width="48" height="48" fill="white"/>
</clipPath>
</defs>
</svg>
