<svg width="48" height="48" viewBox="0 0 48 48" fill="none" xmlns="http://www.w3.org/2000/svg">
<g clip-path="url(#clip0_69_2326)">
<path d="M24 39.5156C23.3485 39.5156 22.6961 39.3616 22.1134 39.0702L6.41428 31.2206L0.777375 34.0391C0.300938 34.2772 0 34.7642 0 35.2969C0 35.8296 0.300938 36.3165 0.777375 36.5546L23.3711 47.8515C23.569 47.9505 23.7846 48 24 48C24.2154 48 24.431 47.9505 24.6289 47.8515L47.2226 36.5546C47.6991 36.3165 48 35.8296 48 35.2969C48 34.7642 47.6991 34.2772 47.2226 34.0391L41.5857 31.2207L25.8866 39.0702C25.3039 39.3616 24.6515 39.5156 24 39.5156Z" fill="#E33925"/>
<path d="M47.2226 22.7422L41.5857 19.9238L25.8866 27.7733C25.3039 28.0647 24.6515 28.2187 24 28.2187C23.3485 28.2187 22.6961 28.0647 22.1134 27.7733L6.41428 19.9237L0.777375 22.7422C0.300938 22.9804 0 23.4673 0 24C0 24.5327 0.300938 25.0196 0.777375 25.2577L23.3711 36.5546C23.569 36.6536 23.7846 36.7031 24 36.7031C24.2154 36.7031 24.431 36.6536 24.6289 36.5546L47.2226 25.2577C47.6991 25.0196 48 24.5326 48 24C48 23.4674 47.6991 22.9804 47.2226 22.7422Z" fill="#E33925"/>
<path d="M23.3711 25.2577C23.569 25.3567 23.7846 25.4062 24 25.4062C24.2154 25.4062 24.431 25.3567 24.6289 25.2577L47.2226 13.9609C47.6991 13.7227 48 13.2358 48 12.7031C48 12.1704 47.6991 11.6835 47.2226 11.4454L24.6289 0.148491C24.233 -0.0494155 23.767 -0.0494155 23.3711 0.148491L0.777375 11.4454C0.300938 11.6835 0 12.1704 0 12.7031C0 13.2358 0.300938 13.7227 0.777375 13.9609L23.3711 25.2577Z" fill="#E33925"/>
<circle cx="12.655" cy="34.655" r="12.655" fill="#FFDFDB"/>
<path d="M9.77557 39V37.858L12.8054 34.8878C13.0952 34.5952 13.3366 34.3352 13.5298 34.108C13.723 33.8807 13.8679 33.6605 13.9645 33.4474C14.0611 33.2344 14.1094 33.0071 14.1094 32.7656C14.1094 32.4901 14.0469 32.2543 13.9219 32.0582C13.7969 31.8594 13.625 31.706 13.4062 31.598C13.1875 31.4901 12.9389 31.4361 12.6605 31.4361C12.3736 31.4361 12.1222 31.4957 11.9062 31.6151C11.6903 31.7315 11.5227 31.8977 11.4034 32.1136C11.2869 32.3295 11.2287 32.5866 11.2287 32.8849H9.72443C9.72443 32.331 9.85085 31.8494 10.1037 31.4403C10.3565 31.0312 10.7045 30.7145 11.1477 30.4901C11.5938 30.2656 12.1051 30.1534 12.6818 30.1534C13.267 30.1534 13.7813 30.2628 14.2244 30.4815C14.6676 30.7003 15.0114 31 15.2557 31.3807C15.5028 31.7614 15.6264 32.196 15.6264 32.6847C15.6264 33.0114 15.5639 33.3324 15.4389 33.6477C15.3139 33.9631 15.0938 34.3125 14.7784 34.696C14.4659 35.0795 14.027 35.544 13.4616 36.0895L11.9574 37.6193V37.679H15.7585V39H9.77557Z" fill="#E33925"/>
</g>
<defs>
<clipPath id="clip0_69_2326">
<rect width="48" height="48" fill="white"/>
</clipPath>
</defs>
</svg>
