<svg width="48" height="48" viewBox="0 0 48 48" fill="none" xmlns="http://www.w3.org/2000/svg">
<g clip-path="url(#clip0_69_2334)">
<path d="M24 39.5156C23.3485 39.5156 22.6961 39.3616 22.1134 39.0702L6.41428 31.2206L0.777375 34.0391C0.300938 34.2772 0 34.7642 0 35.2969C0 35.8296 0.300938 36.3165 0.777375 36.5546L23.3711 47.8515C23.569 47.9505 23.7846 48 24 48C24.2154 48 24.431 47.9505 24.6289 47.8515L47.2226 36.5546C47.6991 36.3165 48 35.8296 48 35.2969C48 34.7642 47.6991 34.2772 47.2226 34.0391L41.5857 31.2207L25.8866 39.0702C25.3039 39.3616 24.6515 39.5156 24 39.5156Z" fill="#E33925"/>
<path d="M47.2226 22.7422L41.5857 19.9238L25.8866 27.7733C25.3039 28.0647 24.6515 28.2187 24 28.2187C23.3485 28.2187 22.6961 28.0647 22.1134 27.7733L6.41428 19.9237L0.777375 22.7422C0.300938 22.9804 0 23.4673 0 24C0 24.5327 0.300938 25.0196 0.777375 25.2577L23.3711 36.5546C23.569 36.6536 23.7846 36.7031 24 36.7031C24.2154 36.7031 24.431 36.6536 24.6289 36.5546L47.2226 25.2577C47.6991 25.0196 48 24.5326 48 24C48 23.4674 47.6991 22.9804 47.2226 22.7422Z" fill="#E33925"/>
<path d="M23.3711 25.2577C23.569 25.3567 23.7846 25.4062 24 25.4062C24.2154 25.4062 24.431 25.3567 24.6289 25.2577L47.2226 13.9609C47.6991 13.7227 48 13.2358 48 12.7031C48 12.1704 47.6991 11.6835 47.2226 11.4454L24.6289 0.148491C24.233 -0.0494155 23.767 -0.0494155 23.3711 0.148491L0.777375 11.4454C0.300938 11.6835 0 12.1704 0 12.7031C0 13.2358 0.300938 13.7227 0.777375 13.9609L23.3711 25.2577Z" fill="#E33925"/>
<circle cx="12.655" cy="34.655" r="12.655" fill="#FFDFDB"/>
<path d="M13.8129 39.4306C13.1993 39.4306 12.6539 39.3255 12.1766 39.1152C11.7021 38.905 11.3271 38.6124 11.0516 38.2374C10.776 37.8624 10.6297 37.4291 10.6127 36.9377H12.2149C12.2291 37.1735 12.3073 37.3794 12.4493 37.5556C12.5914 37.7289 12.7803 37.8638 13.0161 37.9604C13.2519 38.057 13.5161 38.1053 13.8087 38.1053C14.1212 38.1053 14.3982 38.0513 14.6396 37.9434C14.8811 37.8326 15.07 37.6791 15.2064 37.4831C15.3428 37.2871 15.4095 37.0612 15.4067 36.8056C15.4095 36.5414 15.3414 36.3084 15.2021 36.1067C15.0629 35.905 14.8612 35.7473 14.597 35.6337C14.3357 35.5201 14.0203 35.4632 13.651 35.4632H12.8797V34.2445H13.651C13.955 34.2445 14.2206 34.1919 14.4479 34.0868C14.678 33.9817 14.8584 33.834 14.9891 33.6436C15.1198 33.4505 15.1837 33.2274 15.1808 32.9746C15.1837 32.7274 15.1283 32.513 15.0146 32.3311C14.9039 32.1465 14.7462 32.003 14.5416 31.9007C14.3399 31.7985 14.1027 31.7473 13.83 31.7473C13.5629 31.7473 13.3158 31.7956 13.0885 31.8922C12.8612 31.9888 12.678 32.1266 12.5388 32.3056C12.3996 32.4817 12.3257 32.6919 12.3172 32.9362H10.7959C10.8073 32.4476 10.9479 32.0186 11.2178 31.6493C11.4905 31.2772 11.8541 30.9874 12.3087 30.78C12.7632 30.5698 13.2732 30.4647 13.8385 30.4647C14.4209 30.4647 14.9266 30.574 15.3556 30.7928C15.7874 31.0087 16.1212 31.2999 16.357 31.6664C16.5928 32.0328 16.7107 32.4377 16.7107 32.8809C16.7135 33.3723 16.5686 33.7843 16.276 34.1166C15.9862 34.449 15.6056 34.6664 15.134 34.7686V34.8368C15.7476 34.922 16.2178 35.1493 16.5445 35.5186C16.874 35.8851 17.0374 36.3411 17.0345 36.8865C17.0345 37.3752 16.8953 37.8127 16.6169 38.199C16.3414 38.5826 15.9607 38.8837 15.4749 39.1024C14.9919 39.3212 14.4379 39.4306 13.8129 39.4306Z" fill="#E33925"/>
</g>
<defs>
<clipPath id="clip0_69_2334">
<rect width="48" height="48" fill="white"/>
</clipPath>
</defs>
</svg>
