<svg width="48" height="48" viewBox="0 0 48 48" fill="none" xmlns="http://www.w3.org/2000/svg">
<g clip-path="url(#clip0_69_2358)">
<path d="M24 39.5156C23.3485 39.5156 22.6961 39.3616 22.1134 39.0702L6.41428 31.2206L0.777375 34.0391C0.300938 34.2772 0 34.7642 0 35.2969C0 35.8296 0.300938 36.3165 0.777375 36.5546L23.3711 47.8515C23.569 47.9505 23.7846 48 24 48C24.2154 48 24.431 47.9505 24.6289 47.8515L47.2226 36.5546C47.6991 36.3165 48 35.8296 48 35.2969C48 34.7642 47.6991 34.2772 47.2226 34.0391L41.5857 31.2207L25.8866 39.0702C25.3039 39.3616 24.6515 39.5156 24 39.5156Z" fill="#E33925"/>
<path d="M47.2226 22.7422L41.5857 19.9238L25.8866 27.7733C25.3039 28.0647 24.6515 28.2187 24 28.2187C23.3485 28.2187 22.6961 28.0647 22.1134 27.7733L6.41428 19.9237L0.777375 22.7422C0.300938 22.9804 0 23.4673 0 24C0 24.5327 0.300938 25.0196 0.777375 25.2577L23.3711 36.5546C23.569 36.6536 23.7846 36.7031 24 36.7031C24.2154 36.7031 24.431 36.6536 24.6289 36.5546L47.2226 25.2577C47.6991 25.0196 48 24.5326 48 24C48 23.4674 47.6991 22.9804 47.2226 22.7422Z" fill="#E33925"/>
<path d="M23.3711 25.2577C23.569 25.3567 23.7846 25.4062 24 25.4062C24.2154 25.4062 24.431 25.3567 24.6289 25.2577L47.2226 13.9609C47.6991 13.7227 48 13.2358 48 12.7031C48 12.1704 47.6991 11.6835 47.2226 11.4454L24.6289 0.148491C24.233 -0.0494155 23.767 -0.0494155 23.3711 0.148491L0.777375 11.4454C0.300938 11.6835 0 12.1704 0 12.7031C0 13.2358 0.300938 13.7227 0.777375 13.9609L23.3711 25.2577Z" fill="#E33925"/>
<circle cx="12.655" cy="34.655" r="12.655" fill="#FFDFDB"/>
<path d="M13.8769 39.4306C13.4593 39.4277 13.0516 39.3553 12.6539 39.2132C12.2561 39.0684 11.8982 38.834 11.58 38.5101C11.2618 38.1834 11.009 37.7502 10.8215 37.2104C10.634 36.6678 10.5416 35.9959 10.5445 35.1948C10.5445 34.4476 10.624 33.7814 10.7831 33.1962C10.9422 32.611 11.1709 32.1166 11.4692 31.7132C11.7675 31.307 12.1269 30.9973 12.5473 30.7843C12.9706 30.5712 13.4436 30.4647 13.9664 30.4647C14.5146 30.4647 15.0004 30.5726 15.4237 30.7885C15.8499 31.0044 16.1936 31.2999 16.455 31.6749C16.7164 32.047 16.8783 32.4675 16.9408 32.9362H15.3854C15.3058 32.601 15.1425 32.334 14.8953 32.1351C14.651 31.9334 14.3414 31.8326 13.9664 31.8326C13.3612 31.8326 12.8953 32.0953 12.5686 32.6209C12.2448 33.1465 12.0814 33.8681 12.0786 34.7857H12.1382C12.2774 34.5357 12.4578 34.3212 12.6794 34.1422C12.901 33.9632 13.151 33.8255 13.4294 33.7289C13.7107 33.6294 14.0075 33.5797 14.32 33.5797C14.8314 33.5797 15.2902 33.7019 15.6965 33.9462C16.1056 34.1905 16.4294 34.5272 16.6681 34.9561C16.9067 35.3823 17.0246 35.8709 17.0218 36.422C17.0246 36.9959 16.8939 37.5115 16.6297 37.9689C16.3655 38.4235 15.9976 38.7814 15.526 39.0428C15.0544 39.3041 14.5047 39.4334 13.8769 39.4306ZM13.8683 38.1522C14.178 38.1522 14.455 38.0769 14.6993 37.9263C14.9436 37.7757 15.1368 37.5726 15.2789 37.3169C15.4209 37.0612 15.4905 36.7743 15.4877 36.4561C15.4905 36.1436 15.4223 35.861 15.2831 35.6081C15.1468 35.3553 14.9578 35.155 14.7164 35.0073C14.4749 34.8595 14.1993 34.7857 13.8896 34.7857C13.6595 34.7857 13.445 34.8297 13.2462 34.9178C13.0473 35.0059 12.874 35.128 12.7263 35.2843C12.5786 35.4377 12.4621 35.6166 12.3769 35.8212C12.2945 36.0229 12.2519 36.2388 12.249 36.4689C12.2519 36.7729 12.3229 37.0527 12.4621 37.3084C12.6013 37.5641 12.7931 37.7686 13.0374 37.922C13.2817 38.0755 13.5587 38.1522 13.8683 38.1522Z" fill="#E33925"/>
</g>
<defs>
<clipPath id="clip0_69_2358">
<rect width="48" height="48" fill="white"/>
</clipPath>
</defs>
</svg>
