<svg width="23" height="22" viewBox="0 0 23 22" fill="none" xmlns="http://www.w3.org/2000/svg">
<path fill-rule="evenodd" clip-rule="evenodd" d="M0 11C0 8.08262 1.18297 5.28473 3.28867 3.22183C5.39437 1.15893 8.25031 0 11.2282 0C14.2061 0 17.0621 1.15893 19.1678 3.22183C21.2735 5.28473 22.4564 8.08262 22.4564 11C22.4564 13.9174 21.2735 16.7153 19.1678 18.7782C17.0621 20.8411 14.2061 22 11.2282 22C8.25031 22 5.39437 20.8411 3.28867 18.7782C1.18297 16.7153 0 13.9174 0 11ZM11.2282 1.57783C8.67746 1.57783 6.23117 2.57052 4.42751 4.33752C2.62385 6.10452 1.61057 8.50109 1.61057 11C1.61057 13.4989 2.62385 15.8955 4.42751 17.6625C6.23117 19.4295 8.67746 20.4222 11.2282 20.4222C13.779 20.4222 16.2253 19.4295 18.0289 17.6625C19.8326 15.8955 20.8459 13.4989 20.8459 11C20.8459 8.50109 19.8326 6.10452 18.0289 4.33752C16.2253 2.57052 13.779 1.57783 11.2282 1.57783ZM15.219 7.09195C15.378 7.24768 15.4672 7.45887 15.4672 7.67907C15.4672 7.89928 15.378 8.11046 15.219 8.26619L12.4268 11L15.219 13.7338C15.3782 13.8897 15.4676 14.1012 15.4676 14.3218C15.4676 14.5423 15.3782 14.7538 15.219 14.9097C15.0599 15.0656 14.844 15.1532 14.6189 15.1532C14.3938 15.1532 14.1779 15.0656 14.0187 14.9097L11.2282 12.1742L8.43769 14.9097C8.35888 14.9869 8.26532 15.0482 8.16234 15.09C8.05937 15.1317 7.949 15.1532 7.83754 15.1532C7.72608 15.1532 7.61572 15.1317 7.51274 15.09C7.40977 15.0482 7.31621 14.9869 7.23739 14.9097C7.15858 14.8325 7.09606 14.7408 7.05341 14.64C7.01076 14.5391 6.9888 14.431 6.9888 14.3218C6.9888 14.2126 7.01076 14.1044 7.05341 14.0036C7.09606 13.9027 7.15858 13.811 7.23739 13.7338L10.0296 11L7.23739 8.26619C7.07822 8.11026 6.9888 7.89877 6.9888 7.67824C6.9888 7.45772 7.07822 7.24623 7.23739 7.09029C7.39656 6.93436 7.61244 6.84675 7.83754 6.84675C8.06264 6.84675 8.27852 6.93436 8.43769 7.09029L11.2282 9.82576L14.0187 7.09029C14.0975 7.01296 14.191 6.9516 14.294 6.90973C14.397 6.86787 14.5074 6.84632 14.6189 6.84632C14.7304 6.84632 14.8408 6.86787 14.9438 6.90973C15.0468 6.9516 15.1403 7.01462 15.219 7.09195Z" fill="#DD360C"/>
</svg>
