<svg width="26" height="27" viewBox="0 0 26 27" fill="none" xmlns="http://www.w3.org/2000/svg">
<path d="M5.41677 7.89327C5.41677 7.26117 5.66787 6.65496 6.11483 6.208C6.56179 5.76104 7.168 5.50994 7.8001 5.50994H8.88344C9.51274 5.50958 10.1164 5.26034 10.5626 4.81661L11.3209 4.05827C11.5424 3.83554 11.8057 3.65879 12.0958 3.53817C12.3858 3.41756 12.6968 3.35547 13.0109 3.35547C13.325 3.35547 13.6361 3.41756 13.9261 3.53817C14.2161 3.65879 14.4795 3.83554 14.7009 4.05827L15.4593 4.81661C15.9056 5.26077 16.5101 5.50994 17.1384 5.50994H18.2218C18.8539 5.50994 19.4601 5.76104 19.907 6.208C20.354 6.65496 20.6051 7.26117 20.6051 7.89327V8.97661C20.6051 9.60494 20.8543 10.2094 21.2984 10.6558L22.0568 11.4141C22.2795 11.6356 22.4563 11.8989 22.5769 12.189C22.6975 12.479 22.7596 12.79 22.7596 13.1041C22.7596 13.4182 22.6975 13.7292 22.5769 14.0193C22.4563 14.3093 22.2795 14.5726 22.0568 14.7941L21.2984 15.5524C20.8547 15.9987 20.6055 16.6023 20.6051 17.2316V18.3149C20.6051 18.947 20.354 19.5532 19.907 20.0002C19.4601 20.4472 18.8539 20.6983 18.2218 20.6983H17.1384C16.5091 20.6986 15.9055 20.9479 15.4593 21.3916L14.7009 22.1499C14.4795 22.3727 14.2161 22.5494 13.9261 22.67C13.6361 22.7907 13.325 22.8527 13.0109 22.8527C12.6968 22.8527 12.3858 22.7907 12.0958 22.67C11.8057 22.5494 11.5424 22.3727 11.3209 22.1499L10.5626 21.3916C10.1164 20.9479 9.51274 20.6986 8.88344 20.6983H7.8001C7.168 20.6983 6.56179 20.4472 6.11483 20.0002C5.66787 19.5532 5.41677 18.947 5.41677 18.3149V17.2316C5.41641 16.6023 5.16717 15.9987 4.72344 15.5524L3.9651 14.7941C3.74237 14.5726 3.56561 14.3093 3.445 14.0193C3.32439 13.7292 3.2623 13.4182 3.2623 13.1041C3.2623 12.79 3.32439 12.479 3.445 12.189C3.56561 11.8989 3.74237 11.6356 3.9651 11.4141L4.72344 10.6558C5.16717 10.2095 5.41641 9.60591 5.41677 8.97661V7.89327Z" fill="url(#paint0_linear_674_1326)"/>
<path d="M9.75 13.0934L11.9167 15.2601L16.25 10.9268" stroke="white" stroke-width="2" stroke-linecap="round" stroke-linejoin="round"/>
<defs>
<linearGradient id="paint0_linear_674_1326" x1="13.0109" y1="3.35547" x2="20.0296" y2="25.5682" gradientUnits="userSpaceOnUse">
<stop stop-color="#38D897"/>
<stop offset="1" stop-color="#0A8E57"/>
</linearGradient>
</defs>
</svg>
