<svg width="24" height="24" viewBox="0 0 24 24" fill="none" xmlns="http://www.w3.org/2000/svg">
<g clip-path="url(#clip0_298_61)">
<path d="M12.1471 16.5394L9.63184 14.3641V11.1777H14.6668V14.3641L12.1471 16.5394Z" fill="#EAC3A9"/>
<path d="M9.63184 12.4483C10.2237 13.1255 11.0576 14.067 12.1471 14.0253C13.241 14.067 14.0705 13.1255 14.6623 12.4483V11.1821H9.63184V12.4483Z" fill="#DDB097"/>
<path d="M7.47567 7.06382C7.44877 6.32637 8.00024 6.84119 8.00024 6.84119C8.00024 6.84119 6.87937 0.180908 12.1475 0.180908C17.4155 0.180908 16.2947 6.84119 16.2947 6.84119C16.2947 6.84119 16.8461 6.32637 16.8192 7.06382C16.7968 7.80591 16.6309 8.32074 16.6309 8.32074C16.6309 8.32074 16.5592 9.18342 15.797 9.57766C15.797 9.57766 15.6535 11.0572 15.0572 11.6741C14.4609 12.2909 13.506 13.6963 12.1475 13.6453C10.789 13.6963 9.83398 12.2909 9.23768 11.6741C8.64138 11.0572 8.49791 9.57766 8.49791 9.57766C7.73572 9.18342 7.66398 8.32074 7.66398 8.32074C7.66398 8.32074 7.49361 7.80128 7.47119 7.06382H7.47567Z" fill="#F9CEB2"/>
<path d="M16.2993 25.1475H8.32764V15.8203L12.17 16.08L16.2679 15.8203L16.2993 25.1475Z" fill="white"/>
<path d="M11.6723 16.4047L9.94169 18.6449L8.32764 15.5235L9.51128 14.0718L11.6723 16.4047ZM12.6228 16.4047L14.3534 18.6449L15.9675 15.5235L14.7704 14.0718L12.6273 16.4047H12.6228Z" fill="#D3CDCD"/>
<path d="M13.1518 20.6488C12.941 19.4661 12.7976 18.1628 12.7976 18.1628C12.8738 17.815 13.1697 17.4393 13.2997 17.0218C13.3311 16.9198 13.3535 16.8363 13.2235 16.6925L12.7931 16.0525C12.7572 16.0154 12.6855 15.9829 12.6317 15.9829H11.6767C11.6229 15.9829 11.5512 16.0154 11.5108 16.0525L11.0804 16.6925C10.9459 16.8317 10.9728 16.9152 11.0042 17.0218C11.1342 17.4393 11.4301 17.815 11.5063 18.1628C11.5063 18.1628 11.3629 19.4615 11.1476 20.6488C11.0311 21.3074 10.7307 23.2322 10.5065 25.2034C10.5065 25.2034 8.99558 28.1069 10.9235 28.9278C11.3404 28.9603 11.7574 28.9742 12.1833 28.9742C12.6093 28.9742 12.9948 28.9603 13.3984 28.9278C15.2904 28.1115 13.7929 25.2034 13.7929 25.2034C13.5687 23.2369 13.2683 21.3121 13.1518 20.6488Z" fill="#37474F"/>
<path d="M22.7597 18.4778C22.6879 18.2552 22.4727 17.6894 22.141 17.5873C21.8092 17.4899 16.3483 15.4909 15.6085 15.1709L12.0001 24.0228L8.69501 15.1709C7.95524 15.4909 2.49436 17.4899 2.16258 17.5873C1.82632 17.6894 1.6156 18.2552 1.54386 18.4778C1.49006 18.6402 0.709938 21.4648 0.14502 23.8256C0.149503 23.8348 0.15847 23.8395 0.162954 23.8441C0.24814 23.9276 0.328842 24.0157 0.414028 24.0992C0.499214 24.1827 24.0001 24.0228 24.0001 24.0228C23.4307 21.6527 22.809 18.6402 22.7597 18.4732V18.4778Z" fill="#FFD746"/>
<path d="M11.6721 15.9872L9.94149 18.2274L8.78027 14.9715L9.51108 13.6543L11.6721 15.9872ZM12.6226 15.9872L14.3532 18.2274L15.5189 14.9715L14.7657 13.6543L12.6226 15.9872Z" fill="white"/>
<path d="M12.0047 24.0046L9.83834 17.9074V17.8935L9.82041 17.8239L9.80696 17.81L8.83405 14.9854C8.83405 14.9854 8.77576 14.8277 8.97303 14.6097C9.04925 14.5216 7.94184 15.3008 7.94184 15.3008L7.4352 16.5531L8.32293 17.3555L7.15723 18.6402L11.6047 24H12.0002L12.0047 24.0046Z" fill="#E88611"/>
<path d="M15.9671 17.3602L16.8548 16.5578L16.3482 15.3055C16.3482 15.3055 15.2363 14.531 15.317 14.6144C15.5143 14.8371 15.4605 14.9901 15.4605 14.9901L14.4876 17.8147L14.4741 17.8286L12 24.0001H12.4C12.6062 23.5456 17.1283 18.6449 17.1283 18.6449L15.9626 17.3602H15.9671Z" fill="#E88611"/>
<path d="M12.1473 0C7.8835 0 7.51585 4.29022 7.61897 5.55642C7.65036 5.96457 7.65036 6.31243 7.8297 6.77623C8.00903 7.24004 7.91936 7.74559 8.23769 7.73632C8.23769 7.73632 8.23769 6.9664 8.23321 6.7716C8.20182 5.55642 8.43945 4.51749 8.92815 3.99802C9.55583 3.33478 10.596 4.09079 11.9993 4.09079C13.4968 4.09079 14.6535 3.191 15.3306 3.99339C15.7834 4.5314 15.9493 5.28741 15.9986 6.65101C16.0076 6.85044 16.0076 7.74559 16.0076 7.74559C16.2855 7.64819 16.1824 7.38846 16.3573 6.92465C16.5366 6.46084 16.5187 6.02487 16.5411 5.68165C16.6397 4.41545 16.3124 0.00463819 12.1428 0.00463819L12.1473 0Z" fill="#37474F"/>
</g>
<defs>
<clipPath id="clip0_298_61">
<rect width="24" height="24" fill="white"/>
</clipPath>
</defs>
</svg>
