<svg width="48" height="48" viewBox="0 0 48 48" fill="none" xmlns="http://www.w3.org/2000/svg">
<circle cx="24" cy="24" r="24" fill="#E33925"/>
<path d="M24.267 34.2784C23.2926 34.2718 22.3414 34.1027 21.4134 33.7713C20.4853 33.4332 19.6501 32.8864 18.9077 32.1307C18.1652 31.3684 17.5753 30.3575 17.1378 29.098C16.7003 27.8319 16.4848 26.2642 16.4915 24.3949C16.4915 22.6515 16.6771 21.0971 17.0483 19.7315C17.4195 18.366 17.9531 17.2126 18.6491 16.2713C19.3452 15.3234 20.1837 14.6009 21.1648 14.1037C22.1525 13.6065 23.2562 13.358 24.4759 13.358C25.7552 13.358 26.8887 13.6098 27.8764 14.1136C28.8707 14.6174 29.6728 15.3068 30.2827 16.1818C30.8925 17.0502 31.2704 18.0312 31.4162 19.125H27.7869C27.6013 18.3428 27.2202 17.7197 26.6435 17.2557C26.0734 16.785 25.3509 16.5497 24.4759 16.5497C23.0639 16.5497 21.9768 17.1629 21.2145 18.3892C20.4588 19.6155 20.0777 21.2992 20.071 23.4403H20.2102C20.535 22.857 20.956 22.3565 21.473 21.9389C21.9901 21.5213 22.5734 21.1998 23.223 20.9744C23.8793 20.7424 24.572 20.6264 25.3011 20.6264C26.4943 20.6264 27.5649 20.9115 28.5128 21.4815C29.4673 22.0516 30.223 22.8371 30.7798 23.8381C31.3366 24.8324 31.6117 25.9725 31.6051 27.2585C31.6117 28.5975 31.3068 29.8007 30.6903 30.8679C30.0739 31.9285 29.2154 32.7637 28.1151 33.3736C27.0147 33.9834 25.732 34.285 24.267 34.2784ZM24.2472 31.2955C24.9697 31.2955 25.616 31.1198 26.1861 30.7685C26.7562 30.4171 27.2069 29.9432 27.5384 29.3466C27.8698 28.75 28.0322 28.0805 28.0256 27.3381C28.0322 26.6089 27.8731 25.9493 27.5483 25.3594C27.2301 24.7694 26.7893 24.3021 26.2259 23.9574C25.6624 23.6127 25.0194 23.4403 24.2969 23.4403C23.7599 23.4403 23.2595 23.5431 22.7955 23.7486C22.3314 23.9541 21.9271 24.2391 21.5824 24.6037C21.2377 24.9616 20.9659 25.3793 20.767 25.8565C20.5748 26.3272 20.4754 26.831 20.4688 27.3679C20.4754 28.0772 20.6411 28.7301 20.9659 29.3267C21.2907 29.9233 21.7382 30.4006 22.3082 30.7585C22.8783 31.1165 23.5246 31.2955 24.2472 31.2955Z" fill="white"/>
</svg>
