<svg width="36" height="36" viewBox="0 0 36 36" fill="none" xmlns="http://www.w3.org/2000/svg">
<path d="M32.8497 9.99006L34.0647 8.77506C34.3061 8.57442 34.5029 8.32548 34.6423 8.04425C34.7818 7.76302 34.8609 7.45572 34.8745 7.14211C34.8881 6.82849 34.8359 6.51549 34.7213 6.22325C34.6067 5.931 34.4322 5.66596 34.2091 5.44518C33.9859 5.2244 33.719 5.05275 33.4256 4.94127C33.1321 4.8298 32.8186 4.78096 32.5052 4.7979C32.1917 4.81485 31.8853 4.89719 31.6055 5.03964C31.3258 5.1821 31.079 5.38151 30.8809 5.62506L17.9997 18.4726L12.8359 13.3088C12.4137 12.8866 11.8411 12.6494 11.2441 12.6494C10.647 12.6494 10.0744 12.8866 9.65217 13.3088C9.22998 13.731 8.9928 14.3036 8.9928 14.9007C8.9928 15.4978 9.22998 16.0704 9.65217 16.4926L16.4022 23.2426C16.8237 23.6616 17.394 23.8968 17.9884 23.8968C18.5828 23.8968 19.1531 23.6616 19.5747 23.2426L29.4634 13.3651C30.5446 16.0671 30.6388 19.0637 29.7297 21.8283C28.8205 24.5929 26.966 26.9486 24.4922 28.4815C22.0183 30.0144 19.0834 30.6264 16.203 30.2099C13.3227 29.7934 10.6813 28.3751 8.74305 26.2042C6.80476 24.0333 5.69359 21.2488 5.60479 18.3399C5.516 15.4309 6.45526 12.5838 8.25753 10.2987C10.0598 8.01365 12.6098 6.43688 15.4593 5.84549C18.3089 5.25409 21.2757 5.68591 23.8384 7.06506C24.3529 7.25009 24.9172 7.24144 25.4258 7.04073C25.9344 6.84001 26.3525 6.46095 26.602 5.97441C26.8515 5.48787 26.9152 4.92713 26.7814 4.39699C26.6475 3.86686 26.3252 3.4036 25.8747 3.09381C22.295 1.20811 18.157 0.67132 14.2147 1.58125C10.2723 2.49118 6.78815 4.78725 4.39704 8.05106C2.00592 11.3149 0.86705 15.3292 1.18795 19.3624C1.50885 23.3956 3.26817 27.1793 6.1453 30.0239C9.02243 32.8686 12.8258 34.5848 16.8625 34.8599C20.8991 35.135 24.9001 33.9506 28.1366 31.5226C31.3731 29.0946 33.6294 25.5846 34.4945 21.6322C35.3596 17.6798 34.7759 13.5481 32.8497 9.99006Z" fill="#E33925"/>
</svg>
