<svg width="48" height="48" viewBox="0 0 48 48" fill="none" xmlns="http://www.w3.org/2000/svg">
<g clip-path="url(#clip0_66_2305)">
<path d="M47.4223 13.747L34.0381 0.362799C33.5549 -0.120852 32.7704 -0.120852 32.2872 0.362799L32.2305 0.419509C31.4098 1.23996 30.9576 2.33133 30.9576 3.49179C30.9576 4.23943 31.1476 4.95686 31.5005 5.59306L17.4961 17.612C16.4243 16.6541 15.0564 16.1298 13.6074 16.1298C12.046 16.1298 10.5782 16.7378 9.47444 17.8418L9.39049 17.9258C8.90684 18.4092 8.90684 19.1932 9.39049 19.6766L17.4087 27.6949L9.5995 35.5038C9.44323 35.6646 5.74689 39.4736 3.31675 42.5048C1.00251 45.3906 0.544862 45.9193 0.521089 45.9465C0.0914248 46.4359 0.115199 47.1739 0.575075 47.636C0.816033 47.8779 1.13376 48.0002 1.45248 48.0002C1.74297 48.0002 2.0342 47.8987 2.26847 47.6939C2.28902 47.6761 2.80561 47.2271 5.71024 44.8982C8.74091 42.4681 12.5499 38.7715 12.723 38.6029L20.5196 30.8063L28.1085 38.3951C28.3502 38.637 28.6672 38.7579 28.9839 38.7579C29.3006 38.7579 29.6179 38.637 29.8593 38.3951L29.9433 38.3111C31.0473 37.2074 31.6552 35.7394 31.6552 34.1782C31.6552 32.7292 31.1307 31.3612 30.1731 30.2894L42.192 16.2851C42.8282 16.638 43.5457 16.828 44.2933 16.828C45.454 16.828 46.5451 16.376 47.3656 15.5551L47.4223 15.4984C47.9059 15.0145 47.9059 14.2304 47.4223 13.747Z" fill="#E33925"/>
</g>
<defs>
<clipPath id="clip0_66_2305">
<rect width="48" height="48" fill="white"/>
</clipPath>
</defs>
</svg>
