<svg width="23" height="22" viewBox="0 0 23 22" fill="none" xmlns="http://www.w3.org/2000/svg">
<path fill-rule="evenodd" clip-rule="evenodd" d="M11.1602 22C4.99642 22 0 17.0753 0 11C0 4.9247 4.99642 0 11.1602 0C17.324 0 22.3204 4.9247 22.3204 11C22.3204 17.0753 17.324 22 11.1602 22ZM11.1602 20.68C13.7649 20.68 16.2629 19.6601 18.1047 17.8448C19.9465 16.0294 20.9812 13.5673 20.9812 11C20.9812 8.4327 19.9465 5.97056 18.1047 4.15521C16.2629 2.33985 13.7649 1.32 11.1602 1.32C8.55551 1.32 6.05751 2.33985 4.21572 4.15521C2.37393 5.97056 1.33922 8.4327 1.33922 11C1.33922 13.5673 2.37393 16.0294 4.21572 17.8448C6.05751 19.6601 8.55551 20.68 11.1602 20.68ZM9.85222 13.8138L16.3352 7.425L17.2816 8.3589L10.6412 14.9039C10.432 15.1101 10.1481 15.226 9.85222 15.226C9.55629 15.226 9.27248 15.1101 9.06319 14.9039L5.5801 11.4686L6.5276 10.5347L9.85334 13.8127L9.85222 13.8138Z" fill="#07BC7D"/>
</svg>
