<svg width="40" height="40" viewBox="0 0 40 40" fill="none" xmlns="http://www.w3.org/2000/svg">
<rect width="40" height="40" rx="2" fill="#FFDFDB"/>
<path d="M19.8203 29.2187C18.8411 29.2187 17.9609 29.0312 17.1797 28.6562C16.4036 28.276 15.7839 27.7552 15.3203 27.0938C14.8568 26.4323 14.6094 25.6771 14.5781 24.8281H16.9219C16.9792 25.5156 17.2839 26.0807 17.8359 26.5234C18.388 26.9661 19.0495 27.1875 19.8203 27.1875C20.4349 27.1875 20.9792 27.0469 21.4531 26.7656C21.9323 26.4792 22.3073 26.0859 22.5781 25.5859C22.8542 25.0859 22.9922 24.5156 22.9922 23.875C22.9922 23.224 22.8516 22.6432 22.5703 22.1328C22.2891 21.6224 21.901 21.2214 21.4063 20.9297C20.9167 20.638 20.3542 20.4896 19.7188 20.4844C19.2344 20.4844 18.7474 20.5677 18.2578 20.7344C17.7682 20.901 17.3724 21.1198 17.0703 21.3906L14.8594 21.0625L15.7578 13H24.5547V15.0703H17.7656L17.2578 19.5469H17.3516C17.6641 19.2448 18.0781 18.9922 18.5938 18.7891C19.1146 18.5859 19.6719 18.4844 20.2656 18.4844C21.2396 18.4844 22.1068 18.7161 22.8672 19.1797C23.6328 19.6432 24.2344 20.276 24.6719 21.0781C25.1146 21.875 25.3333 22.7917 25.3281 23.8281C25.3333 24.8646 25.099 25.7891 24.625 26.6016C24.1563 27.4141 23.5052 28.0547 22.6719 28.5234C21.8438 28.987 20.8932 29.2187 19.8203 29.2187Z" fill="#E33925"/>
</svg>
