<svg width="40" height="40" viewBox="0 0 40 40" fill="none" xmlns="http://www.w3.org/2000/svg">
<rect width="40" height="40" rx="2" fill="#FFDFDB"/>
<path d="M19.1094 29.2187C18.0365 29.2187 17.0781 29.0339 16.2344 28.6641C15.3958 28.2943 14.7318 27.7812 14.2422 27.125C13.7578 26.4635 13.4974 25.6979 13.4609 24.8281H15.9141C15.9453 25.3021 16.1042 25.7135 16.3906 26.0625C16.6823 26.4062 17.0625 26.6719 17.5313 26.8594C18 27.0469 18.5208 27.1406 19.0938 27.1406C19.724 27.1406 20.2813 27.0312 20.7656 26.8125C21.2552 26.5937 21.638 26.2891 21.9141 25.8984C22.1901 25.5026 22.3281 25.0469 22.3281 24.5312C22.3281 23.9948 22.1901 23.5234 21.9141 23.1172C21.6432 22.7057 21.2448 22.3828 20.7188 22.1484C20.1979 21.9141 19.5677 21.7969 18.8281 21.7969H17.4766V19.8281H18.8281C19.4219 19.8281 19.9427 19.7214 20.3906 19.5078C20.8438 19.2943 21.1979 18.9974 21.4531 18.6172C21.7083 18.2318 21.8359 17.7812 21.8359 17.2656C21.8359 16.7708 21.724 16.3411 21.5 15.9766C21.2813 15.6068 20.9688 15.3177 20.5625 15.1094C20.1615 14.901 19.6875 14.7969 19.1406 14.7969C18.6198 14.7969 18.1328 14.8932 17.6797 15.0859C17.2318 15.2734 16.8672 15.5443 16.5859 15.8984C16.3047 16.2474 16.1536 16.6667 16.1328 17.1562H13.7969C13.8229 16.2917 14.0781 15.5312 14.5625 14.875C15.0521 14.2187 15.6979 13.7057 16.5 13.3359C17.3021 12.9661 18.1927 12.7812 19.1719 12.7812C20.1979 12.7812 21.0833 12.9818 21.8281 13.3828C22.5781 13.7786 23.1563 14.3073 23.5625 14.9687C23.974 15.6302 24.1771 16.3542 24.1719 17.1406C24.1771 18.0365 23.9271 18.7969 23.4219 19.4219C22.9219 20.0469 22.2552 20.4661 21.4219 20.6797V20.8047C22.4844 20.9661 23.3073 21.388 23.8906 22.0703C24.4792 22.7526 24.7708 23.599 24.7656 24.6094C24.7708 25.4896 24.526 26.2786 24.0312 26.9766C23.5417 27.6745 22.8724 28.224 22.0234 28.625C21.1745 29.0208 20.2031 29.2187 19.1094 29.2187Z" fill="#E33925"/>
</svg>
