<svg width="292" height="50" viewBox="0 0 292 50" fill="none" xmlns="http://www.w3.org/2000/svg">
<path fill-rule="evenodd" clip-rule="evenodd" d="M50.0505 24.1808V23.6779L45.7918 20.0114H45.2955C44.1244 21.3057 42.3161 22.2755 40.2932 22.2755C37.1352 22.2755 34.6504 19.8673 34.6504 16.5613C34.6504 13.2552 37.1352 10.847 40.2932 10.847C42.3161 10.847 44.1244 11.8168 45.2955 13.1111H45.7918L50.0505 9.44461V8.94166C47.8147 6.21066 44.3029 4.44952 40.3276 4.44952C33.019 4.44952 27.4844 9.62482 27.4844 16.5613C27.4844 16.8299 27.545 17.0773 27.563 17.3411C30.5539 19.3758 33.1943 21.0042 35.4678 22.4951C38.7453 24.5691 41.3906 26.4777 43.5691 28.2519C46.1094 27.6235 48.3812 26.1965 50.0505 24.1808ZM30.1493 24.0514C31.8561 26.1484 34.2655 27.6523 37.1074 28.2945C35.1877 27.2149 33.3286 26.155 31.5973 24.982C31.0895 24.6674 30.6374 24.3627 30.1493 24.0514ZM74.7017 27.1297L73.637 22.5295L73.2472 22.2772C73.0343 22.3853 72.8574 22.5295 72.325 22.5295C71.5077 22.5295 71.0114 21.6661 70.5855 20.9846C69.8763 19.905 69.3079 19.3299 68.8116 19.0793C71.4012 17.9292 73.1407 15.7732 73.1407 12.6818C73.1407 7.90136 69.8763 4.88203 63.8093 4.88203H53.2347V28.2438H60.2599V20.0491H60.8987C62.4596 20.0491 64.4481 23.4272 65.3703 24.9377C67.2867 27.9931 68.8116 28.6746 71.5437 28.6746C72.8213 28.6746 73.886 28.2077 74.5248 27.6327L74.7017 27.1297ZM65.9731 13.0767C65.9731 14.6232 64.8379 15.3768 63.5243 15.3768H60.2599V10.6324H63.5243C64.8379 10.6324 65.9731 11.4957 65.9731 13.0767ZM101.843 16.5694C101.843 9.63301 96.308 4.45772 88.9634 4.45772C81.6172 4.45772 76.0825 9.63301 76.0825 16.5694C76.0825 23.5059 81.6172 28.6812 88.9634 28.6812C96.308 28.6812 101.843 23.4698 101.843 16.5694ZM94.6749 16.5694C94.6749 19.9115 92.1197 22.2837 88.9634 22.2837C85.8054 22.2837 83.2502 19.9115 83.2502 16.5694C83.2502 13.2274 85.8054 10.8552 88.9634 10.8552C92.1197 10.8552 94.6749 13.2274 94.6749 16.5694ZM117.501 4.88858L113.128 17.7474L108.984 4.88858H102.269L101.957 5.42757L110.54 28.2487H114.799L119.631 15.5193L124.479 28.2487H128.738L137.337 5.42757L137.01 4.88858H130.31L126.15 17.8293L121.76 4.88858H117.501ZM163.053 16.535C163.053 9.56256 158.405 4.89022 150.847 4.89022H140.095V28.2519H150.847C158.405 28.2519 163.053 23.5796 163.053 16.535ZM155.885 16.5711C155.885 20.3801 153.65 22.5016 150.564 22.5016H147.121V10.6405H150.564C153.65 10.6405 155.885 12.7621 155.885 16.5711ZM186.296 10.6389H193.175V28.2487H200.218V10.6389H207.261V4.88858H186.296V10.6389ZM229.701 12.6867C229.701 7.90627 226.437 4.88694 220.37 4.88694H209.795V28.2487H216.822V20.054H218.49L222.853 28.2487H229.844L230.163 27.7097L225.479 19.0481C227.998 17.862 229.701 15.7421 229.701 12.6867ZM222.534 13.0816C222.534 14.6281 221.399 15.3817 220.085 15.3817H216.822V10.6373H220.085C221.399 10.6373 222.534 11.5006 222.534 13.0816ZM233.96 28.2487H241.003V4.88858H233.96V28.2487ZM252.469 13.1913V4.88858H245.426V28.2487H252.469V21.0567L253.779 19.5495L259.676 28.2487H267.047L267.374 27.708L258.857 15.3391L266.719 5.42757L266.555 4.88858H259.021L252.469 13.1913ZM276.383 22.4983V19.271H284.409V13.8729H276.383V10.6389H286.866V4.88694H269.34V28.2487H287.03V22.4983H276.383Z" fill="white"/>
<path fill-rule="evenodd" clip-rule="evenodd" d="M174.992 28.5223C180.139 28.5223 184.606 26.0075 184.606 21.1583C184.606 15.8732 180.103 14.5069 176.129 13.3568C174.567 12.8899 172.968 12.3493 172.968 11.1992C172.968 10.3719 173.856 9.86894 175.205 9.86894C177.513 9.86894 179.464 11.3073 180.457 12.2428H180.953L184.252 8.28965V7.7867C182.514 5.81094 178.968 4.3021 175.063 4.3021C169.599 4.3021 165.805 7.24771 165.805 11.5236C165.805 16.1255 169.988 18.1389 173.536 19.1448C175.844 19.7919 177.408 19.8984 177.408 21.1583C177.408 22.0577 176.306 22.5967 174.601 22.5967C172.436 22.5967 169.812 21.1943 168.536 19.9361H168.039L164.777 24.0318V24.5364C166.868 26.8709 170.627 28.5223 174.992 28.5223ZM53.8165 50C52.1147 46.1042 48.6962 41.1042 35.3076 33.9679C29.1325 30.5341 18.5841 25.2474 9.1003 15.1933C9.96023 18.8204 14.3663 26.7906 33.3093 36.7366C38.5573 39.6085 47.4317 42.3018 53.8165 49.9869M52.9647 43.3322C51.3497 38.7287 48.4342 32.8342 34.6033 24.0826C27.8696 19.6691 17.978 14.1268 4.97266 0C5.90301 3.80898 10.0143 13.7123 30.7377 26.5727C37.545 31.1861 46.331 34.0318 52.9647 43.3322Z" fill="white"/>
</svg>
