<svg width="190" height="50" viewBox="0 0 190 50" fill="none" xmlns="http://www.w3.org/2000/svg">
<g clip-path="url(#clip0_667_14348)">
<path d="M189.962 8.66474C189.94 8.59406 189.919 8.52338 189.891 8.4527C173.116 8.45977 156.349 8.4527 139.581 8.45977C139.539 8.50924 139.51 8.55872 139.503 8.62233C139.503 21.6065 139.503 34.5836 139.496 47.5679C139.602 48.2605 139.985 48.8896 140.495 49.3632C140.516 49.3703 140.565 49.3771 140.587 49.3843C140.849 49.6598 141.224 49.7943 141.578 49.9215C141.84 49.9074 142.095 50.0205 142.357 49.9922H163.175C163.373 49.9851 163.578 50.0205 163.769 49.9428C163.777 49.9146 163.783 49.865 163.791 49.8368C163.798 49.8014 163.805 49.7237 163.812 49.6813C164.258 47.1934 164.69 44.6983 165.164 42.2104L165.207 41.8923C163.281 41.8851 161.348 41.8923 159.422 41.8851C158.954 41.871 158.473 41.8851 158.006 41.8285C157.206 41.7931 156.398 41.8214 155.598 41.7437C154.607 41.7437 153.623 41.6518 152.631 41.6518C151.852 41.574 151.067 41.6024 150.281 41.567C149.771 41.5035 149.247 41.5317 148.73 41.5104C147.887 41.4186 147.031 41.4823 146.188 41.3903C145.296 41.3975 144.404 41.3196 143.511 41.2984C143.518 41.2913 143.526 41.263 143.526 41.2559C143.823 41.263 144.113 41.2419 144.411 41.2348C145.069 41.1499 145.735 41.2065 146.393 41.1146C147.08 41.1146 147.76 41.0228 148.447 41.0228C149.056 40.9379 149.672 40.9874 150.281 40.9025C150.996 40.9025 151.697 40.8107 152.412 40.8036C153 40.7258 153.595 40.7682 154.182 40.6905C154.869 40.6976 155.549 40.5915 156.236 40.5987C156.908 40.5208 157.595 40.5419 158.268 40.4712C158.204 40.2099 158.154 39.9483 158.098 39.6867C158.048 39.5242 157.85 39.5595 157.723 39.5382C156.186 39.319 154.657 39.1001 153.127 38.888C153.226 38.8102 153.361 38.8455 153.474 38.8314C154.664 38.7395 155.846 38.6334 157.036 38.5487C157.305 38.5346 157.567 38.4851 157.836 38.478C157.716 38.1105 157.645 37.7076 157.482 37.3684C154.94 36.9796 152.398 36.6333 149.863 36.2162C150.521 36.1102 151.187 36.0608 151.846 35.9901L151.902 35.9688C154.005 35.7496 156.115 35.5022 158.218 35.2973C160.888 35.2833 163.55 35.2901 166.22 35.2973C166.305 35.2833 166.453 35.3255 166.468 35.2054C166.687 34.0604 166.899 32.9154 167.119 31.7703C167.423 30.1801 167.905 28.6109 168.648 27.1619C169.817 24.8294 171.665 22.8503 173.916 21.5357C176.019 20.3059 178.455 19.7121 180.877 19.599C181.663 19.5284 182.456 19.5496 183.235 19.6485C183.745 19.7687 184.269 19.91 184.672 20.2564C185.005 20.525 185.203 20.9208 185.352 21.3166C185.678 22.2567 185.862 23.2321 186.018 24.2145C186.025 24.6104 186.096 25.0557 185.883 25.4161C185.685 25.7695 185.289 25.9392 184.913 26.0452C183.546 26.3986 182.116 26.0663 180.75 26.3986C179.624 26.6389 178.576 27.2609 177.861 28.1586C177.018 29.2046 176.572 30.505 176.324 31.8057C176.133 32.9649 175.892 34.124 175.701 35.2903C177.046 35.2975 178.399 35.2832 179.751 35.2975C180.289 35.2975 180.842 35.5943 181.061 36.1031C181.344 36.7535 181.281 37.4886 181.189 38.1742C181.075 38.9446 180.891 39.7079 180.544 40.4147C180.254 41.0155 179.772 41.5669 179.114 41.7789C178.774 41.9132 178.406 41.8849 178.045 41.8849C176.855 41.8849 175.665 41.899 174.476 41.8849C174.285 42.7544 174.157 43.6449 173.987 44.5284C173.676 46.2459 173.371 47.9706 173.06 49.6953C173.053 49.7519 173.046 49.872 173.046 49.9356C173.605 49.9638 174.164 49.9356 174.724 49.9496C178.873 49.9496 183.03 49.9424 187.186 49.9496C187.632 49.9638 188.085 49.8578 188.475 49.6386C188.708 49.5539 188.85 49.3488 189.055 49.2358C189.254 49.1227 189.31 48.8896 189.48 48.7411C189.664 48.4159 189.856 48.0768 189.87 47.6949C189.891 47.6949 189.948 47.6878 189.976 47.6808C189.954 34.6756 189.976 21.6702 189.962 8.66474Z" fill="#D9D9D9" stroke="white" stroke-width="0.094"/>
<path d="M146.103 0.112234C146.705 -0.0786065 147.336 0.0486204 147.952 0.00621142C159.515 0.0132796 171.078 0.00621142 182.641 0.00621142C183.328 -0.0220612 183.929 0.366688 184.567 0.564596C185.077 0.769572 185.608 0.93214 186.117 1.15125C186.224 1.19366 186.302 1.28555 186.379 1.3633C186.372 2.29629 186.379 3.23636 186.379 4.17642C186.387 4.42381 186.344 4.67826 186.429 4.91858C186.578 4.93979 186.655 5.05288 186.755 5.14476C187.222 5.35681 187.618 5.70315 188.043 5.98587C188.681 6.43823 189.361 6.83405 189.983 7.30055C190.012 7.48432 189.991 7.67516 189.934 7.8448C189.87 8.04271 189.913 8.25475 189.891 8.45266C173.117 8.45973 156.349 8.45266 139.582 8.45973C139.546 8.22648 139.61 7.99323 139.511 7.77412C139.497 7.59034 139.433 7.35003 139.61 7.2228C140.318 6.72803 141.069 6.28274 141.763 5.75969C142.195 5.48403 142.612 5.20131 143.03 4.91858C143.115 4.77722 143.087 4.60051 143.087 4.44501C143.087 3.42013 143.087 2.39525 143.094 1.37037C143.335 1.05937 143.752 1.02403 144.085 0.868527C144.758 0.614073 145.438 0.366687 146.103 0.112234ZM146.146 0.232392C145.24 0.578732 144.326 0.910936 143.42 1.25728C143.299 1.27848 143.236 1.3845 143.172 1.47639C143.179 1.53293 143.186 1.63189 143.186 1.68843C143.179 2.53661 143.186 3.38479 143.179 4.23297C143.186 4.44501 143.158 4.65706 143.236 4.8479C143.144 4.93979 143.045 5.03167 142.931 5.10235C141.904 5.76676 140.913 6.48771 139.886 7.14505C139.709 7.25107 139.511 7.39244 139.568 7.62568C139.532 7.75291 139.596 7.85893 139.731 7.82359C141.954 7.80946 144.17 7.83773 146.394 7.80239C149.701 7.80239 153 7.80946 156.307 7.80239L156.357 7.78119C156.505 7.81653 156.654 7.80239 156.81 7.80239C162.8 7.80239 168.79 7.80946 174.788 7.80239C176.671 7.80946 178.562 7.80239 180.453 7.80239C183.568 7.80239 186.691 7.83066 189.806 7.81653C189.899 7.79532 189.927 7.73171 189.891 7.61862C189.884 7.50553 189.927 7.35003 189.806 7.27935C189.311 7.0461 188.886 6.68562 188.412 6.40289C188.242 6.26153 188.022 6.18378 187.895 5.99294C187.406 5.71728 186.953 5.37801 186.471 5.07408C186.379 5.01754 186.308 4.92565 186.231 4.8479C186.273 4.69947 186.287 4.5369 186.287 4.3814C186.28 3.48374 186.287 2.58609 186.28 1.68843C186.301 1.54707 186.294 1.3845 186.167 1.29262C185.317 0.988686 184.475 0.66355 183.632 0.352551C183.37 0.225324 183.08 0.154643 182.796 0.112234H146.606C146.45 0.119302 146.302 0.197052 146.146 0.232392Z" fill="white" stroke="white" stroke-width="0.094"/>
<path d="M143.187 1.68842C143.81 1.94994 144.475 2.09837 145.106 2.35282C145.446 2.48712 145.552 2.85466 145.701 3.15152C145.552 3.29996 145.375 3.42011 145.198 3.5332C144.546 3.97143 143.881 4.39552 143.236 4.84788C143.158 4.65704 143.187 4.445 143.18 4.23295C143.187 3.38477 143.18 2.53659 143.187 1.68842ZM184.362 2.35282C184.992 2.10544 185.651 1.9358 186.281 1.68842C186.288 2.58607 186.281 3.48373 186.288 4.38138C186.288 4.53688 186.274 4.69945 186.232 4.84788C185.679 4.4662 185.12 4.10573 184.568 3.73111C184.298 3.5332 184.001 3.38477 183.76 3.14446C183.909 2.84759 184.022 2.48712 184.362 2.35282Z" fill="white" stroke="white" stroke-width="0.094"/>
<path d="M153.993 2.64264C154.772 2.45887 155.643 3.15155 155.579 3.96438C155.586 4.76309 154.743 5.41336 153.971 5.22958C153.66 5.12356 153.362 4.96099 153.171 4.68534C152.923 4.31072 152.867 3.80888 153.065 3.39893C153.207 3.00311 153.589 2.73452 153.993 2.64264ZM174.194 3.08793C174.52 2.72746 175.037 2.52248 175.519 2.64971C175.88 2.75573 176.234 2.98898 176.389 3.34239C176.701 3.95025 176.46 4.77015 175.851 5.08822C175.313 5.38508 174.633 5.24372 174.223 4.81256C173.805 4.339 173.776 3.5615 174.194 3.08793Z" fill="white" stroke="white" stroke-width="0.094"/>
<path d="M145.198 3.53322C145.375 3.42013 145.552 3.29997 145.701 3.15154L145.75 3.20102C145.8 3.56856 145.764 3.94317 145.778 4.31072C145.757 5.41335 145.8 6.52305 145.75 7.62568C143.69 7.62568 141.629 7.61155 139.568 7.62568C139.512 7.39243 139.71 7.25107 139.887 7.14505C140.914 6.48771 141.905 5.76676 142.932 5.10235C143.045 5.03167 143.144 4.93978 143.236 4.8479C143.881 4.39553 144.546 3.97144 145.198 3.53322ZM183.689 3.39186C183.689 3.29997 183.711 3.22222 183.76 3.14447C184.001 3.38479 184.298 3.53322 184.567 3.73113C185.12 4.10574 185.679 4.46622 186.231 4.8479C186.309 4.92565 186.38 5.01753 186.472 5.07408C186.953 5.37801 187.407 5.71728 187.895 5.99294C188.023 6.18378 188.242 6.26153 188.412 6.40289C188.887 6.68562 189.311 7.04609 189.807 7.27934C189.927 7.35002 189.885 7.50552 189.892 7.61861C187.831 7.62568 185.778 7.61155 183.718 7.62568C183.682 7.34296 183.703 7.06023 183.696 6.78457C183.696 5.65367 183.682 4.52276 183.689 3.39186Z" fill="white" stroke="white" stroke-width="0.094"/>
<path d="M189.892 7.61863C187.832 7.6257 185.778 7.61156 183.718 7.62569C183.682 7.34297 183.704 7.06024 183.697 6.78458C183.697 5.65368 183.682 4.52277 183.689 3.39187C183.689 3.29998 183.711 3.22223 183.76 3.14448C183.909 2.84762 184.022 2.48714 184.362 2.35285C184.992 2.10546 185.651 1.93583 186.281 1.68844C186.302 1.54708 186.295 1.38451 186.168 1.29263C185.318 0.988695 184.475 0.66356 183.633 0.352561C183.371 0.225334 183.08 0.154653 182.797 0.112244H146.607C146.451 0.119312 146.302 0.197062 146.147 0.232402C145.24 0.578742 144.327 0.910946 143.42 1.25729C143.3 1.27849 143.236 1.38451 143.173 1.4764C143.18 1.53294 143.187 1.6319 143.187 1.68844C143.81 1.94996 144.475 2.0984 145.106 2.35285C145.446 2.48714 145.552 2.85469 145.7 3.15155L145.75 3.20103C145.799 3.56857 145.764 3.94319 145.778 4.31073C145.757 5.41336 145.799 6.52306 145.75 7.62569C143.689 7.62569 141.629 7.61156 139.568 7.62569C139.533 7.75292 139.597 7.85894 139.731 7.8236C141.954 7.80947 144.171 7.83774 146.394 7.8024C149.701 7.8024 153.001 7.80947 156.308 7.8024L156.357 7.78119C156.506 7.81654 156.654 7.8024 156.81 7.8024C162.801 7.8024 168.791 7.80947 174.788 7.8024C176.672 7.80947 178.563 7.8024 180.453 7.8024C183.569 7.8024 186.691 7.83067 189.807 7.81654C189.899 7.79533 189.928 7.73172 189.892 7.61863ZM153.065 3.39894C153.206 3.00312 153.589 2.73453 153.992 2.64264C154.771 2.45887 155.642 3.15155 155.578 3.96439C155.585 4.76309 154.743 5.41336 153.971 5.22959C153.659 5.12357 153.362 4.961 153.171 4.68534C152.923 4.31073 152.866 3.80889 153.065 3.39894ZM174.194 3.08794C174.52 2.72746 175.037 2.52249 175.518 2.64971C175.879 2.75573 176.233 2.98898 176.389 3.34239C176.701 3.95025 176.46 4.77016 175.851 5.08823C175.313 5.38509 174.633 5.24373 174.222 4.81257C173.805 4.339 173.776 3.5615 174.194 3.08794Z" fill="#D9D9D9" stroke="white" stroke-width="0.094"/>
<path d="M175.997 10.7248C176.096 10.746 175.481 10.1349 175.602 10.1066C175.715 10.1208 176.144 9.78793 176.664 10.0595C177.183 10.331 177.054 10.9665 176.995 11.2022C176.925 11.4827 176.746 11.6616 176.605 11.803C176.527 11.8666 176.352 11.9656 176.246 11.9585C176.31 11.6121 176.104 11.5556 176.09 11.2022L175.997 10.7248Z" fill="white" stroke="white" stroke-width="0.094"/>
<path d="M153.362 11.1079C153.348 11.4613 153.142 11.5179 153.206 11.8642C153.1 11.8713 152.925 11.7723 152.847 11.7087C152.706 11.5674 152.527 11.3884 152.457 11.1079C152.398 10.8724 152.269 10.2369 152.788 9.96523C153.307 9.6936 153.737 10.0264 153.85 10.0124C153.971 10.0406 153.356 10.6518 153.455 10.6306L153.362 11.1079Z" fill="white" stroke="white" stroke-width="0.094"/>
<path d="M175.07 15.2526C175.177 15.1603 175.247 15.1603 175.389 15.1603C174.539 16.9981 173.548 18.8358 172.058 20.2666C171.898 20.4086 171.73 20.5403 171.553 20.6609C171.383 20.7855 171.216 20.9024 171.049 21.0215C170.886 21.1343 170.724 21.2479 170.567 21.3663C170.163 21.5854 169.809 21.8894 169.363 22.0236C168.549 22.4123 167.671 22.6739 166.786 22.8576C166.439 22.9142 166.085 22.999 165.731 23.0061C165.292 23.1334 164.824 23.0414 164.378 23.0697C164.13 23.1121 163.911 22.9707 163.67 22.999C163.461 22.9695 163.253 22.9342 163.046 22.8929C162.836 22.85 162.627 22.8006 162.42 22.7445C159.174 21.7337 155.987 19.2599 155.059 15.9142C155.017 15.6888 154.996 15.4602 154.996 15.231C155.095 15.4289 155.198 15.6254 155.304 15.8201C156.625 18.6944 159.245 20.9562 162.34 21.6382C162.591 21.7526 162.863 21.7125 163.104 21.8115C163.323 21.8115 163.536 21.8044 163.748 21.8751C164.477 21.8892 165.207 21.8822 165.936 21.8822C166.035 21.8892 166.127 21.8397 166.226 21.8185C167.442 21.7774 168.633 21.4465 169.742 20.9446C169.964 20.8443 170.182 20.737 170.397 20.624C170.585 20.5252 170.769 20.4182 170.947 20.3032C171.122 20.1904 171.293 20.0702 171.458 19.943C172.769 18.9065 173.902 17.5635 174.671 16.0192C174.818 15.7413 174.952 15.4839 175.07 15.2526Z" fill="white" stroke="white" stroke-width="0.094"/>
<path d="M173.919 21.5359C176.022 20.306 178.458 19.7123 180.879 19.5992C181.665 19.5285 182.458 19.5497 183.237 19.6487C183.747 19.7688 184.271 19.9102 184.675 20.2565C184.469 20.2707 184.271 20.1788 184.066 20.1505C183.485 20.0374 182.883 20.0798 182.295 20.0657C180.589 20.0657 178.868 20.2 177.218 20.6665C176.355 20.928 175.491 21.2319 174.705 21.6843C173.345 22.4335 172.12 23.4231 171.129 24.6105C169.359 26.6391 168.318 29.2119 167.815 31.8342C167.574 33.2406 167.298 34.6401 167.079 36.0537C166.725 36.089 166.363 36.0679 166.009 36.0679C164.452 36.0608 162.894 36.0537 161.336 36.0398C161.003 36.0537 160.677 35.9762 160.345 35.9972C157.512 36.0113 154.68 35.9902 151.848 35.9902L151.904 35.9689C154.007 35.7496 156.117 35.5022 158.22 35.2974C160.89 35.2833 163.552 35.2902 166.222 35.2974C166.307 35.2833 166.455 35.3255 166.47 35.2055C166.689 34.0605 166.902 32.9155 167.121 31.7703C167.426 30.1802 167.907 28.611 168.651 27.162C169.819 24.8295 171.667 22.8505 173.919 21.5359Z" fill="white" stroke="white" stroke-width="0.094"/>
<path d="M177.216 20.6665C178.866 20.2 180.587 20.0657 182.293 20.0657C182.881 20.0798 183.483 20.0374 184.063 20.1505C184.269 20.1788 184.467 20.2707 184.672 20.2565C185.005 20.5251 185.203 20.9209 185.352 21.3167C185.678 22.2568 185.862 23.2322 186.018 24.2147C186.025 24.6105 186.096 25.0558 185.883 25.4163C185.685 25.7697 185.289 25.9393 184.913 26.0453C183.547 26.3987 182.116 26.0665 180.75 26.3987C179.624 26.6391 178.576 27.261 177.861 28.1587C177.018 29.2047 176.572 30.5051 176.324 31.8059C176.133 32.9651 175.892 34.1242 175.701 35.2904C175.616 35.552 175.566 35.8347 175.517 36.1105C176.855 36.1317 178.193 36.1105 179.532 36.1245C180.041 36.1105 180.551 36.1386 181.061 36.1033C181.344 36.7536 181.281 37.4887 181.189 38.1743C181.075 38.9447 180.891 39.708 180.544 40.4148C180.254 41.0156 179.772 41.567 179.114 41.779C178.774 41.9133 178.406 41.8851 178.045 41.8851C176.855 41.8851 175.665 41.8991 174.476 41.8851C174.285 42.7545 174.157 43.645 173.987 44.5286C173.676 46.2461 173.371 47.9707 173.06 49.6954C173.053 49.752 173.046 49.8721 173.046 49.9357V49.9428C169.951 49.9428 166.864 49.95 163.77 49.9428C163.777 49.9146 163.784 49.865 163.791 49.8367C163.798 49.8014 163.805 49.7237 163.812 49.6813C163.819 49.7379 163.826 49.844 163.834 49.8934C164.025 49.9146 164.372 50.0135 164.421 49.7379C164.903 47.1368 165.349 44.5216 165.845 41.9204C165.653 41.878 165.455 41.878 165.257 41.9133C165.229 42.0123 165.2 42.1112 165.165 42.2101L165.207 41.8921C163.281 41.8849 161.348 41.8921 159.422 41.8849C158.955 41.8709 158.473 41.8849 158.006 41.8284C157.206 41.793 156.399 41.8213 155.599 41.7435C154.607 41.7435 153.623 41.6517 152.632 41.6517C151.853 41.5739 151.067 41.6021 150.281 41.5668C149.771 41.5033 149.247 41.5315 148.73 41.5103C147.888 41.4184 147.031 41.4822 146.188 41.3901C145.296 41.3973 144.404 41.3194 143.512 41.2983C143.519 41.2912 143.526 41.2629 143.526 41.2559C143.823 41.2629 144.114 41.2417 144.411 41.2346C145.07 41.1498 145.735 41.2063 146.394 41.1145C147.08 41.1145 147.76 41.0225 148.447 41.0225C149.056 40.9378 149.672 40.9872 150.281 40.9025C150.996 40.9025 151.697 40.8105 152.412 40.8035C153 40.7258 153.595 40.7682 154.183 40.6904C154.869 40.6975 155.549 40.5915 156.236 40.5985C156.909 40.5206 157.595 40.5418 158.268 40.4712C158.205 40.2097 158.155 39.9483 158.098 39.6866C158.049 39.524 157.85 39.5593 157.723 39.5382C156.186 39.3189 154.657 39.0999 153.128 38.8878C153.227 38.8099 153.361 38.8453 153.475 38.8313C154.664 38.7392 155.847 38.6332 157.036 38.5486C157.305 38.5344 157.567 38.485 157.836 38.4779C157.716 38.1103 157.645 37.7075 157.482 37.3682C154.94 36.9794 152.398 36.6331 149.863 36.2161C150.522 36.1101 151.187 36.0606 151.846 35.9899C154.678 35.9899 157.511 36.0112 160.343 35.9969C160.676 35.9758 161.001 36.0536 161.334 36.0395C162.892 36.0536 164.45 36.0608 166.008 36.0676C166.362 36.0676 166.723 36.0889 167.077 36.0536C167.296 34.6399 167.573 33.2404 167.813 31.8339C168.316 29.2115 169.357 26.6388 171.127 24.6104C172.118 23.4228 173.343 22.4333 174.703 21.6841C175.489 21.2319 176.352 20.928 177.216 20.6665Z" fill="white" stroke="white" stroke-width="0.094"/>
<path d="M175.701 35.2904C177.047 35.2976 178.399 35.2833 179.752 35.2976C180.29 35.2976 180.842 35.5944 181.061 36.1032C180.552 36.1386 180.042 36.1105 179.532 36.1245C178.194 36.1105 176.855 36.1317 175.517 36.1105C175.567 35.8347 175.616 35.552 175.701 35.2904ZM165.257 41.9133C165.455 41.878 165.654 41.878 165.845 41.9204C165.349 44.5216 164.903 47.1368 164.421 49.7379C164.372 50.0134 164.025 49.9146 163.834 49.8934C163.827 49.844 163.82 49.7379 163.812 49.6813C164.259 47.1934 164.69 44.6983 165.165 42.2103C165.2 42.1112 165.229 42.0124 165.257 41.9133Z" fill="white" stroke="white" stroke-width="0.094"/>
<path d="M176.322 10.9227C176.266 10.8167 176.259 10.6895 176.259 10.5693L176.202 10.5764C176.117 10.2654 175.855 9.96851 175.515 9.95438C175.26 9.93317 174.942 9.94024 174.793 10.1806C174.51 10.5622 174.644 11.0499 174.63 11.4811C174.63 11.5094 174.637 11.5588 174.637 11.5871C174.637 11.8769 174.602 12.1596 174.552 12.4424C174.51 12.5272 174.489 12.6191 174.489 12.718C174.368 13.3824 174.128 14.0398 173.802 14.6406C173.738 14.7254 173.689 14.8173 173.667 14.9162C173.455 15.2838 173.2 15.623 172.938 15.9623C172.896 15.9977 172.86 16.0401 172.825 16.0825C172.641 16.3086 172.442 16.4995 172.237 16.6974C172.187 16.7257 172.152 16.761 172.11 16.7893C171.869 17.0225 171.6 17.2416 171.309 17.4184C171.274 17.4396 171.239 17.4678 171.196 17.4961C169.383 18.6906 167.181 19.1854 165.036 19.2066C163.216 19.2631 161.382 18.8744 159.739 18.0898C159.711 18.0757 159.64 18.0474 159.612 18.0333C159.336 17.8848 159.052 17.7576 158.797 17.5739C158.741 17.5456 158.684 17.5102 158.62 17.482C158.358 17.3265 158.11 17.1568 157.877 16.9589C157.799 16.8882 157.714 16.8317 157.629 16.7681C157.374 16.5631 157.112 16.344 156.893 16.0966C156.836 16.033 156.779 15.9764 156.723 15.9199C155.951 15.1212 155.349 14.1458 155.031 13.0856C154.726 12.2445 154.769 11.3256 154.733 10.4421C154.478 10.0533 153.94 9.83422 153.515 10.0745C153.338 10.2018 153.317 10.435 153.182 10.5976C152.963 12.9301 153.961 15.2555 155.555 16.9377C155.555 16.9943 155.583 17.0296 155.633 17.0508C155.916 17.3123 156.192 17.5809 156.475 17.8354C156.525 17.8849 156.581 17.9343 156.645 17.9767C156.928 18.21 157.233 18.422 157.53 18.6411C157.587 18.6836 157.643 18.7189 157.707 18.7542C158.097 18.9804 158.465 19.249 158.883 19.4045C158.911 19.4257 158.96 19.461 158.989 19.4752C160.334 20.1184 161.786 20.5566 163.273 20.698C163.436 20.698 163.598 20.7121 163.761 20.7475C164.469 20.7899 165.177 20.7687 165.886 20.7545C168.073 20.5637 170.332 20.0336 172.159 18.7472L172.18 18.7754C172.237 18.726 172.287 18.6836 172.343 18.6411C172.634 18.4291 172.917 18.2029 173.2 17.9697C173.264 17.9202 173.335 17.8636 173.399 17.8C173.71 17.4608 174.071 17.1498 174.333 16.761L174.376 16.7822C174.397 16.7469 174.432 16.6762 174.454 16.6409C174.694 16.3157 174.914 15.9764 175.126 15.6372C175.14 15.616 175.176 15.5806 175.19 15.5594L175.162 15.5312C175.183 15.5029 175.233 15.4463 175.254 15.4181C175.643 14.6264 175.99 13.7995 176.111 12.923C176.16 12.9018 176.189 12.8594 176.189 12.8099C176.196 12.5272 176.295 12.2586 176.267 11.9759C176.33 11.6295 176.337 11.2761 176.322 10.9227Z" fill="white" stroke="white" stroke-width="0.094"/>
<mask id="mask0_667_14348" style="mask-type:luminance" maskUnits="userSpaceOnUse" x="153" y="9" width="24" height="12">
<path d="M176.322 10.9227C176.266 10.8167 176.259 10.6895 176.259 10.5693L176.202 10.5764C176.117 10.2654 175.855 9.96851 175.515 9.95438C175.26 9.93317 174.942 9.94024 174.793 10.1806C174.51 10.5622 174.644 11.0499 174.63 11.4811C174.63 11.5094 174.637 11.5588 174.637 11.5871C174.637 11.8769 174.602 12.1596 174.552 12.4424C174.51 12.5272 174.489 12.6191 174.489 12.718C174.368 13.3824 174.128 14.0398 173.802 14.6406C173.738 14.7254 173.689 14.8173 173.667 14.9162C173.455 15.2838 173.2 15.623 172.938 15.9623C172.896 15.9977 172.86 16.0401 172.825 16.0825C172.641 16.3086 172.442 16.4995 172.237 16.6974C172.187 16.7257 172.152 16.761 172.11 16.7893C171.869 17.0225 171.6 17.2416 171.309 17.4184C171.274 17.4396 171.239 17.4678 171.196 17.4961C169.383 18.6906 167.181 19.1854 165.036 19.2066C163.216 19.2631 161.382 18.8744 159.739 18.0898C159.711 18.0757 159.64 18.0474 159.612 18.0333C159.336 17.8848 159.052 17.7576 158.797 17.5739C158.741 17.5456 158.684 17.5102 158.62 17.482C158.358 17.3265 158.11 17.1568 157.877 16.9589C157.799 16.8882 157.714 16.8317 157.629 16.7681C157.374 16.5631 157.112 16.344 156.893 16.0966C156.836 16.033 156.779 15.9764 156.723 15.9199C155.951 15.1212 155.349 14.1458 155.031 13.0856C154.726 12.2445 154.769 11.3256 154.733 10.4421C154.478 10.0533 153.94 9.83422 153.515 10.0745C153.338 10.2018 153.317 10.435 153.182 10.5976C152.963 12.9301 153.961 15.2555 155.555 16.9377C155.555 16.9943 155.583 17.0296 155.633 17.0508C155.916 17.3123 156.192 17.5809 156.475 17.8354C156.525 17.8849 156.581 17.9343 156.645 17.9767C156.928 18.21 157.233 18.422 157.53 18.6411C157.587 18.6836 157.643 18.7189 157.707 18.7542C158.097 18.9804 158.465 19.249 158.883 19.4045C158.911 19.4257 158.96 19.461 158.989 19.4752C160.334 20.1184 161.786 20.5566 163.273 20.698C163.436 20.698 163.598 20.7121 163.761 20.7475C164.469 20.7899 165.177 20.7687 165.886 20.7545C168.073 20.5637 170.332 20.0336 172.159 18.7472L172.18 18.7754C172.237 18.726 172.287 18.6836 172.343 18.6411C172.634 18.4291 172.917 18.2029 173.2 17.9697C173.264 17.9202 173.335 17.8636 173.399 17.8C173.71 17.4608 174.071 17.1498 174.333 16.761L174.376 16.7822C174.397 16.7469 174.432 16.6762 174.454 16.6409C174.694 16.3157 174.914 15.9764 175.126 15.6372C175.14 15.616 175.176 15.5806 175.19 15.5594L175.162 15.5312C175.183 15.5029 175.233 15.4463 175.254 15.4181C175.643 14.6264 175.99 13.7995 176.111 12.923C176.16 12.9018 176.189 12.8594 176.189 12.8099C176.196 12.5272 176.295 12.2586 176.267 11.9759C176.33 11.6295 176.337 11.2761 176.322 10.9227Z" fill="white"/>
</mask>
<g mask="url(#mask0_667_14348)">
<path d="M152.637 10.684C153.211 10.8637 154.529 10.4115 154.903 10.8253M152.967 12.4274C153.517 12.2363 154.697 11.784 155.186 12.0505M153.534 14.1709C153.8 14.2569 154.324 13.7906 154.584 13.6539C154.971 13.4506 155.369 13.2947 155.8 13.2285M154.383 16.0086C154.658 15.6196 154.986 15.2965 155.382 15.0201C155.775 14.7463 156.849 14.0147 157.31 14.2651M155.186 17.328C155.497 17.081 155.624 16.644 155.951 16.3845C156.346 16.0705 156.952 16.0142 157.357 15.8201M156.519 18.3057C156.612 17.6224 157.308 16.7977 157.971 16.8567M157.546 19.26C157.897 19.2249 158.193 18.4418 158.43 18.1764C158.785 17.7788 159.153 17.6565 159.623 17.5165M159.576 20.1082C159.553 19.6137 160.065 18.1959 160.662 18.2704M161.087 20.5794C161.062 19.995 161.364 18.2372 162.078 18.1762M162.644 21.5218C162.509 20.7046 162.518 19.5223 163.163 18.9301M164.58 21.7103C164.508 21.0291 163.83 19.652 164.58 19.1186M166.657 21.2391C166.333 20.8644 166.145 19.3864 166.279 18.9772M168.639 20.9092C168.39 20.4566 168.08 20.0316 167.986 19.5062C167.929 19.1923 168.028 18.745 167.978 18.506M170.292 20.2024C169.75 19.8488 169.6 18.5491 169.772 17.9877M171.897 19.4956C171.511 18.6706 171.101 18.031 171.094 17.0924M173.454 17.9877C172.856 17.5857 172.092 16.855 172.18 16.0558M175.107 16.7154C174.197 16.5143 173.106 15.7019 172.558 14.9719M175.862 15.1604C175.206 15.02 173.038 14.1757 173.171 13.3227M176.57 13.5112C175.656 13.1767 174.326 12.8759 173.596 12.239M177.042 12.0033C176.466 12.0525 175.641 11.7742 175.056 11.6734C174.406 11.5616 173.804 11.3429 173.171 11.2022M176.476 10.5426C175.365 10.609 174.323 10.2296 173.313 9.88293" stroke="#D1D1D1" stroke-width="2"/>
</g>
<path d="M34.3668 13.9411C35.393 13.7865 36.5739 13.6899 37.445 14.3276C37.9871 14.7333 38.1807 15.4676 38.1419 16.1248C38.1807 17.207 37.6774 18.3665 36.7095 18.927C35.8576 19.3908 34.8316 19.4293 33.8829 19.3327C33.244 19.2555 32.6052 18.9078 32.2761 18.328C31.5402 16.6467 32.4502 14.2696 34.3668 13.9411ZM3.66205 15.1586C3.72004 14.5788 4.24282 14.057 4.84293 14.0765C9.31521 14.0765 13.7679 14.0957 18.2208 14.0765C18.7047 14.0378 19.2275 14.2503 19.4597 14.6754C19.7887 15.2552 19.4984 15.8929 19.4597 16.4921C19.3243 17.3036 19.3629 18.3859 18.4144 18.695C15.1619 18.7916 11.9094 18.695 8.65683 18.7337C8.34711 20.782 8.05673 22.8112 7.74687 24.8403C7.74687 24.9176 7.76634 25.0917 7.76634 25.1687C10.1476 25.1495 12.5288 25.1687 14.91 25.1495C15.5683 25.1108 16.2652 25.6715 16.2071 26.367C16.1491 27.0821 15.9942 27.7777 15.8974 28.4928C15.8198 28.9759 15.4327 29.4204 14.9293 29.517C12.277 29.575 9.58591 29.459 6.93384 29.575C6.50779 32.493 6.0044 35.411 5.55909 38.3292C5.50117 38.909 5.03638 39.4114 4.45561 39.4306C3.35221 39.45 2.24856 39.45 1.14516 39.4306C0.42886 39.45 -0.151988 38.6575 0.041532 37.9812C1.22283 30.3674 2.44244 22.7728 3.66205 15.1586ZM23.3316 14.1149C24.3384 14.0377 25.3644 14.0957 26.3712 14.0765C26.9908 14.0378 27.6103 14.5208 27.6682 15.1586C27.6682 15.6609 27.5327 16.1635 27.4747 16.6659C26.6615 21.8451 25.8291 27.0243 25.0158 32.2034C24.8997 33.0343 24.6868 33.9232 24.9385 34.7736C25.2289 35.6238 26.5258 35.2566 26.8357 36.1455C27.0293 36.8606 26.8162 37.6142 26.7582 38.3487C26.7002 39.3149 25.5966 39.5273 24.8417 39.7402C23.1962 40.0493 21.2019 39.8174 20.021 38.4645C19.1692 37.4791 19.111 36.0876 19.2854 34.8509C20.3115 28.2804 21.3375 21.7099 22.383 15.1199C22.4412 14.6368 22.8283 14.1923 23.3316 14.1149ZM61.761 15.1586C61.8189 14.5788 62.3417 14.0765 62.9225 14.0765H65.8652C66.6009 14.057 67.2012 14.8494 67.0269 15.545C66.3493 19.8352 65.6524 24.1255 64.9748 28.4154C66.0008 28.2609 67.1625 28.0677 67.8788 27.2367C69.079 25.8838 70.0665 24.3188 70.8021 22.6762C71.0537 22.0383 71.1893 21.1108 72.0218 20.9948C73.1253 20.9561 74.2481 20.9754 75.3516 20.9948C76.1067 20.9754 76.6681 21.8257 76.4164 22.5214C76.1261 23.5458 75.6421 24.4926 75.1388 25.4009C74.0158 27.2175 72.7769 29.0147 71.1505 30.4447C71.8668 32.5897 72.7769 34.6769 73.5706 36.7834C73.8028 37.4791 74.3645 38.2906 73.8416 38.9672C73.2413 39.7788 72.1185 39.3728 71.2861 39.4694C70.4148 39.3728 69.1565 39.8173 68.6724 38.8318C67.7625 36.7252 67.0076 34.561 66.0782 32.4545C65.5361 32.4737 64.9747 32.4932 64.4326 32.4352C64.394 32.5125 64.3165 32.667 64.2777 32.7445C63.9872 34.6769 63.6776 36.6095 63.3677 38.5418C63.2515 39.0056 62.8837 39.4116 62.3805 39.4502C61.3544 39.4889 60.309 39.4694 59.2635 39.4694C58.8181 39.4694 58.4117 39.1796 58.218 38.7931C58.0245 38.4064 58.1405 37.9622 58.1989 37.537C59.399 30.0775 60.5799 22.618 61.761 15.1586ZM115.562 17.2651C115.698 16.7238 116.22 16.3567 116.762 16.3759C117.537 16.3954 118.331 16.3567 119.124 16.3954C119.763 16.4146 120.266 17.0524 120.189 17.6708C120.073 18.7723 119.802 19.8739 119.724 20.9753C120.479 20.9753 121.254 20.956 122.009 20.9753C122.686 20.9753 123.248 21.6711 123.132 22.328C123.035 22.9273 122.899 23.5071 122.802 24.1059C122.706 24.6085 122.28 25.0143 121.796 25.0916C120.867 25.1495 119.957 25.0529 119.047 25.1495C118.66 27.7389 118.234 30.3284 117.827 32.9183C117.769 33.5173 117.73 34.1936 118.079 34.7154C118.602 35.3532 119.511 35.1211 120.247 35.1986C120.828 35.3724 121.196 36.0103 121.099 36.5902C121.002 37.247 120.983 37.9041 120.828 38.5418C120.596 39.2567 119.763 39.3921 119.124 39.5659C117.362 40.0299 115.33 40.0299 113.762 39.0056C112.31 38.0199 112.077 36.1068 112.232 34.4834C112.638 31.3527 113.278 28.2415 113.626 25.0915C113.084 25.1107 112.426 25.1881 112.019 24.7049C111.555 24.2219 111.787 23.5068 111.864 22.9076C111.981 22.2699 111.961 21.4389 112.658 21.091C113.219 20.8784 113.858 21.0332 114.459 20.9558C114.826 19.7192 115.175 18.4825 115.562 17.2651ZM104.624 23.5262C105.843 22.3087 107.315 21.3039 108.999 20.8015C109.735 20.4729 110.683 21.0914 110.664 21.903C110.528 22.9659 110.277 24.0093 110.102 25.0529C110.025 25.5747 109.58 26.0192 109.057 26.0772C107.16 26.4056 105.514 27.5456 104.198 28.8985C103.869 29.3045 103.385 29.6909 103.327 30.2513C102.92 32.9568 102.494 35.6623 102.068 38.3678C102.01 38.9475 101.507 39.5081 100.907 39.4695H97.9637C97.2862 39.5081 96.6861 38.8318 96.7635 38.1553C97.6154 32.8022 98.4673 27.4686 99.2997 22.1154C99.3384 21.5744 99.7257 21.0527 100.287 20.9946C101.003 20.956 101.72 20.9753 102.455 20.9753C103.036 20.9753 103.578 21.497 103.578 22.0962C103.578 22.9271 103.501 23.7774 103.481 24.6277C103.946 24.338 104.236 23.8741 104.624 23.5262ZM32.2565 21.072C33.3019 20.8595 34.3861 21.0334 35.4315 20.9753C36.0318 20.8982 36.6706 21.2846 36.7673 21.8837C36.8449 22.4247 36.6898 22.9466 36.6317 23.4684C35.8381 28.4351 35.0442 33.4015 34.2698 38.368C34.2118 38.9287 33.7473 39.489 33.147 39.4695C32.1017 39.4695 31.0562 39.489 29.9915 39.4504C29.3332 39.3729 28.8491 38.6194 29.0235 37.9815C29.856 32.8219 30.6498 27.6813 31.4822 22.5214C31.521 21.961 31.6758 21.3039 32.2565 21.072ZM94.905 21.3234C92.0203 20.7821 89.0777 20.3956 86.1543 20.6855C83.5407 21.0141 80.9078 22.193 79.301 24.338C77.0746 27.1594 76.3195 30.9472 76.8227 34.4645C77.0939 36.1457 77.8295 37.8463 79.2042 38.8898C80.4819 39.8754 82.2049 40.0106 83.7538 39.7594C85.9219 39.3342 87.7611 37.9431 89.2713 36.3969C89.3486 37.0539 89.1937 37.711 89.2325 38.3488C89.2713 38.9477 89.8133 39.5081 90.4134 39.4695H92.3883C92.969 39.4695 93.4531 38.9286 93.4918 38.368C94.3242 33.1309 95.1567 27.913 95.9698 22.6954C96.0858 22.0382 95.5633 21.4006 94.905 21.3234ZM89.465 30.4254C88.6905 31.8748 87.6063 33.1889 86.3866 34.3096C85.6898 34.8894 84.7991 35.4885 83.8506 35.2954C82.9213 35.1021 82.476 34.1359 82.2631 33.3048C81.7791 31.1405 82.2244 28.7827 83.4439 26.9083C83.986 26.0385 84.8572 25.3816 85.864 25.1109C87.2772 24.763 88.768 24.937 90.1426 25.3235L90.22 25.4009C90.0458 27.0821 89.7166 28.7441 89.465 30.4254ZM56.9017 27.5267C56.8822 25.5941 56.3596 23.565 55.0045 22.1156C54.0752 21.0914 52.6812 20.5696 51.3261 20.5888C49.0802 20.5117 46.9701 21.6132 45.3246 23.0818C44.9566 23.3718 44.705 23.7969 44.2985 24.0288C44.2985 23.3909 44.3565 22.7533 44.3371 22.0963C44.3565 21.497 43.795 20.9753 43.2142 20.9753H41.2395C40.6201 20.9753 40.1166 21.5165 40.0779 22.1155C38.8582 29.8456 37.6194 37.5756 36.3996 45.3057C36.2255 46.0206 36.8451 46.7551 37.5807 46.7357C38.6648 46.7164 39.7683 46.8131 40.8331 46.6583C41.685 46.4264 41.6655 45.4408 41.8011 44.7258C42.1108 43.0252 42.3239 41.3246 42.5174 39.6046C46.3313 40.3389 50.7647 39.8366 53.6106 36.9571C55.9337 34.4257 57.0178 30.9278 56.9017 27.5267ZM51.4809 29.4784C51.3649 31.2563 50.7259 33.0536 49.487 34.3482C47.8802 35.8751 45.4406 35.6623 43.466 35.1408C43.4274 35.0827 43.3692 34.9667 43.3498 34.9089C43.6596 33.2276 43.8145 31.5269 44.2017 29.865C45.2859 28.0872 46.6022 26.2897 48.4801 25.3043C49.1771 24.9758 50.1257 25.0531 50.6291 25.6909C51.4809 26.7537 51.5584 28.1837 51.4809 29.4784Z" fill="white" stroke="white" stroke-width="0.101"/>
</g>
<defs>
<clipPath id="clip0_667_14348">
<rect width="190" height="50" fill="white"/>
</clipPath>
</defs>
</svg>
