<svg width="143" height="50" viewBox="0 0 143 50" fill="none" xmlns="http://www.w3.org/2000/svg">
<path fill-rule="evenodd" clip-rule="evenodd" d="M35.3844 0H0V11.5384H11.8276V25.8658H23.3652V11.5384H35.3844V0ZM71.3453 25.7704L60.1918 0H46.1539L34.9996 25.7704H46.5387L53.1724 10.4398L59.807 25.7704H71.3453ZM105.287 0H69.9031V11.5384H81.7299V25.8658H93.2682V11.5384H105.287V0ZM141.248 25.7704L130.095 0H116.056L104.902 25.7704H116.441L123.075 10.4398L129.71 25.7704H141.248Z" fill="white"/>
<path d="M0 29.2297H141.536V31.5392H0V29.2297ZM0 47.692H141.536V50H0V47.692Z" fill="white"/>
<path fill-rule="evenodd" clip-rule="evenodd" d="M1.973 36.1321C1.11028 37.1728 0.679688 38.5058 0.679688 40.1343C0.679688 42.2789 1.25381 43.8623 2.40054 44.89C3.2709 45.6657 4.34815 46.0558 5.63154 46.0558C7.11724 46.0558 8.29909 45.5817 9.17708 44.635C9.90772 43.8494 10.3383 42.8752 10.4673 41.7139H9.01141C8.85948 42.44 8.63349 43.0248 8.32581 43.4722C7.75169 44.3174 6.91263 44.7411 5.81171 44.7411C4.6146 44.7411 3.71294 44.3403 3.1098 43.5333C2.5059 42.7309 2.2051 41.6826 2.2051 40.3916C2.2051 38.8127 2.53949 37.6415 3.20829 36.8796C3.87632 36.1161 4.75355 35.7328 5.83996 35.7328C6.73169 35.7328 7.42416 35.9413 7.91659 36.3558C8.40979 36.7719 8.73885 37.3354 8.90452 38.0485H10.362C10.278 37.1102 9.84969 36.2741 9.07783 35.5389C8.30673 34.8022 7.2226 34.4326 5.82546 34.4326C4.18935 34.4319 2.90367 35.0007 1.973 36.1321ZM14.1869 43.4966C13.5685 42.6583 13.2593 41.6269 13.2593 40.4053C13.2593 38.8768 13.6197 37.7225 14.3412 36.9399C15.0619 36.1558 15.9948 35.7634 17.1362 35.7634C18.3127 35.7634 19.2396 36.1589 19.9175 36.9491C20.5978 37.7393 20.9368 38.786 20.9368 40.0824C20.9368 41.3093 20.6405 42.3934 20.0542 43.3394C19.4656 44.2845 18.5105 44.7548 17.1965 44.7548C15.8078 44.7541 14.8054 44.3365 14.1869 43.4966ZM12.8242 36.4749C12.0813 37.5385 11.711 38.8142 11.711 40.3076C11.711 41.9613 12.1431 43.3271 13.012 44.4082C13.9831 45.5313 15.3176 46.0902 17.0164 46.0902C18.8342 46.0902 20.2328 45.4519 21.2139 44.1677C22.0499 43.076 22.4683 41.7055 22.4683 40.0595C22.4683 38.5371 22.1026 37.2873 21.3719 36.3123C20.4352 35.0595 18.9922 34.4319 17.0454 34.4319C15.1817 34.4319 13.7762 35.1152 12.8242 36.4749ZM24.2113 45.7695V34.7335H26.3536L29.5235 44.0654L32.6705 34.7335H34.7883V45.7695H33.3706V39.2578C33.3706 39.0311 33.3752 38.6585 33.3851 38.1363C33.3943 37.6156 33.3996 37.0582 33.3996 36.462L30.2526 45.7695H28.7722L25.6023 36.462V36.8002C25.6023 37.0705 25.6092 37.4835 25.6214 38.0363C25.6336 38.5882 25.6405 38.9952 25.6405 39.2578V45.7695H24.2113ZM37.0238 45.7695V34.7335H39.1653L42.3337 44.0654L45.4822 34.7335H47.6001V45.7695H46.1793V39.2578C46.1793 39.0311 46.1839 38.6585 46.1961 38.1363C46.206 37.6156 46.2106 37.0582 46.2106 36.462L43.062 45.7695H41.5832L38.4125 36.462V36.8002C38.4125 37.0705 38.4194 37.4835 38.4316 38.0363C38.4438 38.5882 38.4499 38.9952 38.4499 39.2578V45.7695H37.0238ZM49.9775 40.9321C49.9775 42.2888 50.16 43.334 50.5257 44.0654C51.1922 45.3969 52.4557 46.0619 54.3194 46.0619C56.1822 46.0619 57.4488 45.3969 58.1222 44.0654C58.4871 43.3348 58.6696 42.2896 58.6696 40.9321V34.7335H57.1511V41.5559C57.1511 42.3507 57.0282 42.9859 56.7831 43.4569C56.3288 44.3219 55.4661 44.7541 54.1995 44.7541C53.1436 44.7541 52.3916 44.3563 51.9465 43.5524C51.6457 43.0217 51.4945 42.3552 51.4945 41.5559V34.7335H49.9775V40.9321ZM62.4053 45.7695V36.8361L68.061 45.7695H69.7361V34.7335H68.3183V43.673L62.7442 34.7335H60.9799V45.7695H62.4053ZM72.4242 45.7695H73.9336V34.7335H72.4242V45.7695ZM77.1547 36.1321C76.2943 37.1728 75.8652 38.5058 75.8652 40.1343C75.8652 42.2789 76.4362 43.8623 77.583 44.89C78.4571 45.6657 79.5321 46.0558 80.814 46.0558C82.302 46.0558 83.4846 45.5817 84.3603 44.635C85.0909 43.8494 85.5207 42.8752 85.6528 41.7139H84.1931C84.0457 42.44 83.8159 43.0248 83.5098 43.4722C82.9341 44.3174 82.0974 44.7411 80.9941 44.7411C79.797 44.7411 78.8977 44.3403 78.2938 43.5333C77.6914 42.7309 77.3868 41.6826 77.3868 40.3916C77.3868 38.8127 77.7219 37.6415 78.39 36.8796C79.058 36.1161 79.9375 35.7328 81.0247 35.7328C81.9134 35.7328 82.6051 35.9413 83.1021 36.3558C83.5945 36.7719 83.9236 37.3354 84.0892 38.0485H85.5459C85.4597 37.1102 85.0314 36.2741 84.2618 35.5389C83.4907 34.8022 82.405 34.4326 81.0064 34.4326C79.3718 34.4319 78.0876 35.0007 77.1547 36.1321ZM91.4544 36.3719L93.1302 41.2467H89.674L91.4544 36.3719ZM88.0516 45.7695L89.2457 42.4636H93.6105L94.7289 45.7695H96.3666L92.3645 34.7335H90.6734L86.5209 45.7695H88.0516ZM96.8033 34.7335H105.758V36.0474H102.038V45.7695H100.522V36.0474H96.8033V34.7335ZM107.462 45.7695H108.971V34.7335H107.462V45.7695ZM113.303 43.4966C112.683 42.6583 112.375 41.6269 112.375 40.4053C112.375 38.8768 112.736 37.7225 113.458 36.9399C114.177 36.1558 115.108 35.7634 116.25 35.7634C117.427 35.7634 118.356 36.1589 119.033 36.9491C119.712 37.7393 120.053 38.786 120.053 40.0824C120.053 41.3093 119.758 42.3934 119.169 43.3394C118.581 44.2845 117.627 44.7548 116.311 44.7548C114.923 44.7541 113.92 44.3365 113.303 43.4966ZM111.94 36.4749C111.197 37.5385 110.827 38.8142 110.827 40.3076C110.827 41.9613 111.26 43.3271 112.128 44.4082C113.098 45.5313 114.433 46.0902 116.13 46.0902C117.949 46.0902 119.348 45.4519 120.329 44.1677C121.166 43.076 121.585 41.7055 121.585 40.0595C121.585 38.5371 121.219 37.2873 120.488 36.3123C119.55 35.0595 118.109 34.4319 116.161 34.4319C114.297 34.4319 112.89 35.1152 111.94 36.4749ZM124.79 45.7695V36.8361L130.449 45.7695H132.123V34.7335H130.704V43.673L125.129 34.7335H123.365V45.7695H124.79ZM135.185 45.0404C135.962 45.7428 137.036 46.0902 138.409 46.0902C139.584 46.0902 140.618 45.829 141.507 45.303C142.394 44.7777 142.84 43.9043 142.84 42.6828C142.84 41.6986 142.489 40.9512 141.788 40.4359C141.383 40.1389 140.806 39.9083 140.06 39.738L138.512 39.3846C137.472 39.1448 136.804 38.9417 136.507 38.7837C136.055 38.5333 135.831 38.1363 135.831 37.5965C135.831 37.1056 136.023 36.675 136.408 36.3054C136.796 35.9329 137.428 35.7481 138.309 35.7481C139.401 35.7481 140.174 36.0375 140.632 36.6131C140.877 36.9292 141.036 37.3812 141.113 37.9714H142.517C142.517 36.746 142.114 35.8542 141.302 35.2931C140.495 34.7357 139.511 34.4563 138.356 34.4563C137.099 34.4563 136.128 34.7739 135.441 35.4122C134.755 36.0459 134.412 36.8613 134.412 37.85C134.412 38.7684 134.762 39.4571 135.464 39.9182C135.868 40.1824 136.561 40.4252 137.536 40.6458L139.031 40.9825C139.841 41.1703 140.438 41.3864 140.819 41.6353C141.195 41.8933 141.383 42.3209 141.383 42.9225C141.383 43.7234 140.937 44.2777 140.045 44.5884C139.584 44.7495 139.075 44.8281 138.512 44.8281C137.259 44.8281 136.388 44.4624 135.892 43.7318C135.629 43.3424 135.484 42.8324 135.448 42.2079H134.043C134.028 43.4012 134.409 44.3441 135.185 45.0404Z" fill="white"/>
</svg>
