<svg width="108" height="70" viewBox="0 0 108 70" fill="none" xmlns="http://www.w3.org/2000/svg">
<path d="M44.2495 53.7724C43.3258 51.3511 39.7428 48.5099 39.7428 48.5099C36.9856 46.0886 35.1522 42.7436 34.7323 41.1621L33.6406 40.8262V59.1889H35.3061V46.7465C36.1459 49.1678 40.2327 52.3448 40.2327 52.3448C40.2327 52.3448 43.4098 55.0181 44.9073 58.685L45.915 59.1889V41.0781H44.2495V53.7724Z" fill="white"/>
<path d="M27.4713 41.33C24.6302 45.8367 22.4608 47.0124 19.2837 50.1755C16.6105 52.8487 14.6091 55.8578 15.6028 59.1889H18.6959C18.0241 57.5233 18.5279 55.6759 18.9478 55.0181H26.5476V59.1889H28.4651V40.7422C28.479 40.7422 27.8912 40.6582 27.4713 41.33ZM26.5616 53.7724H19.5497C20.6413 50.8473 24.8121 49.0978 26.5616 45.8367V53.7724Z" fill="white"/>
<path d="M11.1948 56.7815L12.7763 43.8352C13.1962 42.0857 13.4482 41.162 15.7015 39.3285C14.12 39.1606 13.3642 40.0843 12.1185 40.0003H2.26541C0.263995 39.8324 -0.239858 41.5819 0.0960444 42.2537C0.347971 41.6658 0.683873 41.6658 1.2717 41.5818H10.621C10.621 41.5818 9.44532 42.9115 9.20739 44.7589C9.20739 44.7589 8.19968 55.9417 8.36763 59.4547C8.53558 66.4666 13.7981 70.3155 16.2193 69.9796C12.2865 66.3827 10.7749 62.0299 11.1948 56.7815Z" fill="white"/>
<path d="M64.2183 31.3089C64.8061 31.5609 65.226 31.3929 64.4702 30.8051C60.0475 27.9639 57.4583 21.2039 57.2064 15.4375V3.91887C58.1301 4.5067 59.8796 4.59067 59.8796 4.59067H66.5556C68.3051 4.59067 69.2289 5.1785 69.9007 6.76004C70.4885 4.00284 68.725 1.49757 65.9818 1.49757H58.452C56.5346 1.58154 53.9453 0 53.9453 0V12.6104C53.9453 25.3887 60.9573 30.8191 64.2183 31.3089Z" fill="white"/>
<path d="M52.1881 0C52.1881 0 49.6828 1.58154 47.6814 1.49757H40.1656C37.4924 1.49757 35.6589 4.00284 36.2468 6.76004C37.0025 5.1785 37.9123 4.59067 39.6618 4.59067H46.2538C46.2538 4.59067 48.0033 4.5067 48.9271 3.91887V15.4375C48.6751 21.1899 46.0859 27.9639 41.6632 30.7911C40.9074 31.3789 41.3273 31.5469 41.9151 31.2949C45.1762 30.7911 52.1881 25.3747 52.1881 12.5964V0Z" fill="white"/>
<path d="M54.1889 41.078H51.8516V59.1888H54.1889V41.078Z" fill="white"/>
<path d="M106.116 55.1021C107.614 53.0167 108.538 49.5037 106.62 46.0887C104.871 42.8276 99.9443 39.8325 99.8603 38.8248C97.439 40.7422 95.4376 42.4077 94.3459 44.913C93.1703 47.4183 92.8483 51.0012 94.3459 54.0944C96.0114 57.5234 97.9429 59.3568 100.196 61.6102C101.778 63.3597 104.787 66.8726 103.793 69.9658C104.549 69.9658 105.543 68.1323 105.711 67.4605C106.13 65.2911 105.879 64.1994 104.955 62.6179C104.367 61.5402 103.121 60.4485 102.198 59.3708C103.527 58.2791 104.955 56.6976 106.116 55.1021ZM100.854 58.1112C98.9366 56.5296 97.7609 55.186 96.5992 52.5968C95.4236 50.2595 95.3536 47.5023 95.8435 45.5848C96.4313 43.4994 97.8449 42.0018 99.1885 40.9102C100.686 42.0018 102.282 43.3315 103.443 45.2489C105.361 48.51 105.361 50.8473 104.115 54.0104C103.359 55.8578 102.534 56.9355 100.854 58.1112Z" fill="white"/>
<path d="M86.5078 52.3447H79.9018V41.078H77.4805V58.6989H79.9018V53.7723H86.5078V58.9508H89.0131V41.078H86.5078V52.3447Z" fill="white"/>
<path d="M69.3924 49.1817C66.9711 47.9361 64.8857 47.0963 62.9683 45.5988C61.9606 44.759 61.9606 43.2614 62.8843 42.5896C63.892 41.8338 65.5575 41.9178 66.7192 42.5057C67.8109 43.1775 68.1328 43.9192 68.9725 44.675C69.5604 45.1789 70.1482 45.4308 70.722 45.2629C70.4701 44.0872 69.7143 43.0095 68.7206 42.0858C66.3833 40.0844 62.3804 40.5882 60.8689 42.1698C59.1194 44.0872 59.6932 45.9207 61.3727 47.6002C63.2902 49.5176 66.7192 50.2734 69.4624 52.8627C70.792 54.1083 71.0439 56.0397 69.2105 57.2014C67.9648 57.9572 65.7954 58.2091 63.864 57.4533C62.5344 56.8655 61.9466 56.3756 61.0228 55.116C60.435 54.2063 59.9452 53.5345 58.4336 53.5345C58.6855 55.7878 60.435 57.6213 62.6884 58.545C65.6135 59.6367 68.8745 59.4687 71.4498 57.7053C74.5709 55.6059 73.8151 51.519 69.3924 49.1817Z" fill="white"/>
<path d="M53.0951 33.3943C51.7655 33.3943 50.7578 34.4021 50.7578 35.7317C50.7578 36.9773 51.7655 38.069 53.0951 38.069C54.2708 38.069 55.3485 36.9773 55.3485 35.7317C55.3625 34.4021 54.2708 33.3943 53.0951 33.3943Z" fill="white"/>
</svg>
