<svg width="124" height="80" viewBox="0 0 124 80" fill="none" xmlns="http://www.w3.org/2000/svg">
<g clip-path="url(#clip0_793_12856)">
<path d="M103.341 31.3911C103.928 33.5484 106.132 34.8185 108.297 34.254C110.461 33.6693 111.735 31.4718 111.168 29.3145C110.582 27.1572 108.377 25.8871 106.213 26.4516C104.049 27.0363 102.775 29.254 103.341 31.3911ZM97.8402 35.7258C99.3166 35.3226 100.186 33.8306 99.802 32.3589C99.3975 30.8871 97.9009 30.0202 96.4245 30.4032C94.948 30.8064 94.0784 32.2984 94.4626 33.7702C94.8469 35.2419 96.3638 36.1089 97.8402 35.7258ZM89.73 37.1371C90.8019 36.8548 91.4491 35.746 91.166 34.6573C90.8828 33.5887 89.7704 32.9435 88.6783 33.2258C87.6064 33.5081 86.9592 34.6169 87.2423 35.7056C87.5255 36.7742 88.6378 37.4193 89.73 37.1371Z" fill="white"/>
<path d="M83.3985 38.0645C84.0861 37.8831 84.4906 37.1774 84.3086 36.492C84.1266 35.8065 83.4187 35.4032 82.731 35.5847C82.0434 35.7661 81.6389 36.4718 81.8209 37.1573C82.0029 37.8428 82.7108 38.246 83.3985 38.0645Z" fill="white"/>
<path d="M100.325 23.2056C101.337 24.9597 103.602 25.5645 105.361 24.5564C107.121 23.5484 107.728 21.2903 106.716 19.5363C105.705 17.7823 103.44 17.1774 101.68 18.1855C99.9006 19.2137 99.314 21.4516 100.325 23.2056ZM92.1948 27.8831C92.9027 29.1129 94.4803 29.5363 95.714 28.8306C96.9477 28.125 97.3724 26.5524 96.6646 25.3226C95.9567 24.0927 94.3791 23.6694 93.1454 24.375C91.8915 25.0806 91.4667 26.6532 92.1948 27.8831ZM86.3903 29.0927C85.5004 29.5968 85.2172 30.7258 85.7228 31.5927C86.2285 32.4798 87.3611 32.7621 88.2307 32.2581C89.1206 31.754 89.4038 30.625 88.8982 29.7581C88.4128 28.8911 87.2802 28.5887 86.3903 29.0927ZM81.2127 32.8226C80.6464 33.1452 80.4441 33.871 80.7677 34.4556C81.0913 35.0202 81.8396 35.2218 82.4059 34.8992C82.9722 34.5766 83.1745 33.8306 82.8509 33.2661C82.5273 32.6814 81.7992 32.5 81.2127 32.8226Z" fill="white"/>
<path d="M99.8998 15.9879C101.194 14.6976 101.194 12.6008 99.8998 11.3105C98.6054 10.0202 96.502 10.0202 95.2076 11.3105C93.9132 12.6008 93.9132 14.6976 95.2076 15.9879C96.502 17.2782 98.6054 17.2782 99.8998 15.9879ZM91.8301 19.375C90.8997 18.4476 89.3828 18.4476 88.4525 19.375C87.5221 20.3024 87.5221 21.8145 88.4525 22.7419C89.3828 23.6694 90.8997 23.6694 91.8301 22.7419C92.7604 21.8145 92.7604 20.3024 91.8301 19.375ZM83.1738 25.6653C82.5266 26.3105 82.5266 27.3589 83.1738 28.004C83.821 28.6492 84.8727 28.6492 85.5199 28.004C86.1671 27.3589 86.1671 26.3105 85.5199 25.6653C84.8727 25.0202 83.821 25.0202 83.1738 25.6653ZM79.0681 32.0968C79.4928 32.5202 80.2007 32.5202 80.6254 32.0968C81.0501 31.6734 81.0501 30.9677 80.6254 30.5444C80.2007 30.121 79.4928 30.121 79.0681 30.5444C78.6231 30.9677 78.6231 31.6532 79.0681 32.0968Z" fill="white"/>
<path d="M88.2522 10.4435C89.7488 11.3105 91.6702 10.7863 92.5197 9.29435C93.3894 7.80242 92.8635 5.8871 91.3669 5.04032C89.8702 4.17339 87.9488 4.69758 87.0994 6.18952C86.2297 7.68145 86.7556 9.57661 88.2522 10.4435ZM82.6499 15.7056C82.0431 16.754 82.4072 18.1048 83.4589 18.7097C84.5106 19.3145 85.8657 18.9516 86.4724 17.9032C87.0792 16.8548 86.7151 15.504 85.6634 14.8992C84.6117 14.2944 83.2566 14.6573 82.6499 15.7056ZM81.1937 22.6008C80.4858 22.1976 79.5959 22.4395 79.1712 23.1452C78.7667 23.8508 79.0094 24.7379 79.7173 25.1613C80.4251 25.5645 81.315 25.3226 81.7195 24.6169C82.1443 23.9113 81.9016 23.0242 81.1937 22.6008ZM77.7959 28.4879C77.3105 28.2056 76.6835 28.3669 76.4206 28.8508C76.1374 29.3347 76.2992 29.9597 76.7846 30.2218C77.27 30.504 77.897 30.3427 78.1599 29.8589C78.4431 29.3952 78.2813 28.7702 77.7959 28.4879Z" fill="white"/>
<path d="M80.0205 6.85485C81.5981 7.27824 83.2161 6.35082 83.6206 4.77823C84.0453 3.20565 83.1149 1.59275 81.5374 1.18952C79.9598 0.766135 78.3418 1.69356 77.9373 3.26614C77.5126 4.83872 78.4632 6.45162 80.0205 6.85485ZM77.5531 16.0887C78.625 16.371 79.7374 15.746 80.0407 14.6573C80.3239 13.5887 79.6969 12.4798 78.6048 12.1774C77.5328 11.8952 76.4205 12.5202 76.1171 13.6089C75.8339 14.6976 76.4609 15.8065 77.5531 16.0887ZM75.5912 23.3669C76.3193 23.5686 77.0879 23.125 77.2901 22.3992C77.4924 21.6734 77.0474 20.9073 76.3193 20.7057C75.5912 20.504 74.8227 20.9476 74.6204 21.6734C74.4182 22.3992 74.8631 23.1653 75.5912 23.3669ZM73.4069 27.9032C73.2856 28.3871 73.5687 28.8911 74.0541 29.0323C74.5395 29.1734 75.0452 28.871 75.1867 28.3871C75.3081 27.9032 75.0249 27.3992 74.5395 27.2581C74.0541 27.1371 73.5485 27.4194 73.4069 27.9032Z" fill="white"/>
<path d="M71.1029 5.52419C72.6197 5.52419 73.8737 4.29436 73.8737 2.7621C73.8737 1.25 72.64 0 71.1029 0C69.586 0 68.332 1.22984 68.332 2.7621C68.3523 4.29436 69.586 5.52419 71.1029 5.52419ZM71.1029 11.3911C70.0916 11.3911 69.2624 12.2177 69.2624 13.2258C69.2624 14.2339 70.0916 15.0605 71.1029 15.0605C72.1141 15.0605 72.9433 14.2339 72.9433 13.2258C72.9433 12.2177 72.1343 11.3911 71.1029 11.3911ZM72.3973 21.4113C72.3973 20.7056 71.8107 20.121 71.1029 20.121C70.395 20.121 69.8085 20.7056 69.8085 21.4113C69.8085 22.1169 70.395 22.7016 71.1029 22.7016C71.831 22.6815 72.3973 22.1169 72.3973 21.4113ZM71.1029 26.9153C70.6377 26.9153 70.2736 27.2782 70.2736 27.7419C70.2736 28.2057 70.6377 28.5686 71.1029 28.5686C71.568 28.5686 71.9321 28.2057 71.9321 27.7419C71.9321 27.2782 71.568 26.9153 71.1029 26.9153Z" fill="white"/>
<path d="M62.1016 6.53227C63.4769 6.16937 64.2859 4.75808 63.9219 3.38711C63.5578 2.01614 62.1421 1.20969 60.7668 1.57259C59.3915 1.9355 58.5825 3.34679 58.9465 4.71775C59.3106 6.08872 60.7263 6.89517 62.1016 6.53227ZM62.5466 14.5766C62.7893 15.4637 63.6994 15.9879 64.5691 15.746C65.459 15.504 65.9848 14.5968 65.7421 13.7298C65.4994 12.8428 64.5893 12.3186 63.7196 12.5605C62.8297 12.8024 62.3039 13.7097 62.5466 14.5766ZM65.1152 22.3589C65.277 23.004 65.9444 23.3669 66.5714 23.2057C67.2186 23.0444 67.5826 22.379 67.4208 21.7339C67.259 21.0887 66.5916 20.7258 65.9646 20.8871C65.3174 21.0686 64.9534 21.7137 65.1152 22.3589ZM67.1983 28.3669C67.2995 28.75 67.704 28.9919 68.1085 28.8911C68.4927 28.7903 68.7354 28.3871 68.6343 27.9839C68.5332 27.6008 68.1287 27.3589 67.7242 27.4597C67.3399 27.5605 67.0972 27.9637 67.1983 28.3669Z" fill="white"/>
<path d="M53.6077 9.85886C54.7605 9.19354 55.1448 7.74192 54.4774 6.59273C53.81 5.44354 52.3538 5.06047 51.2009 5.72579C50.0481 6.39112 49.6638 7.84273 50.3313 8.99192C50.9987 10.121 52.4751 10.504 53.6077 9.85886ZM58.401 18.125C59.1089 17.7218 59.3516 16.8145 58.9471 16.129C58.5426 15.4234 57.6325 15.1814 56.9246 15.5847C56.2167 15.9879 55.974 16.8951 56.3785 17.6008C56.8033 18.2863 57.6932 18.5282 58.401 18.125ZM62.3247 24.879C62.8505 24.5766 63.0326 23.8911 62.7292 23.3669C62.4258 22.8427 61.7382 22.6613 61.2123 22.9637C60.6865 23.2661 60.5044 23.9314 60.8078 24.4758C61.1112 25 61.7988 25.1814 62.3247 24.879ZM65.5 29.0927C65.318 28.7903 64.9337 28.6895 64.6101 28.8508C64.3067 29.0322 64.2056 29.4153 64.3674 29.7379C64.5494 30.0403 64.9337 30.1411 65.2573 29.9798C65.5809 29.7782 65.682 29.3952 65.5 29.0927Z" fill="white"/>
<path d="M46.2442 15.2823C47.1138 14.4153 47.1138 13.0242 46.2442 12.1573C45.3745 11.2903 43.979 11.2903 43.1093 12.1573C42.2396 13.0242 42.2396 14.4153 43.1093 15.2823C43.979 16.129 45.3745 16.129 46.2442 15.2823ZM53.0195 20.2016C52.5139 19.6976 51.7049 19.6976 51.1993 20.2016C50.6937 20.7056 50.6937 21.5121 51.1993 22.0161C51.7049 22.5202 52.5139 22.5202 53.0195 22.0161C53.5252 21.5323 53.5252 20.7056 53.0195 20.2016ZM58.6219 26.1693C58.2174 25.7661 57.5904 25.7661 57.1859 26.1693C56.7814 26.5726 56.7814 27.1976 57.1859 27.6008C57.5904 28.004 58.2174 28.004 58.6219 27.6008C59.0061 27.2177 59.0061 26.5726 58.6219 26.1693ZM62.7882 30.9879C62.5657 30.7661 62.2219 30.7661 61.9994 30.9879C61.777 31.2097 61.777 31.5524 61.9994 31.7742C62.2219 31.996 62.5657 31.996 62.7882 31.7742C63.0107 31.5524 63.0107 31.1895 62.7882 30.9879Z" fill="white"/>
<path d="M37.6702 23.125C38.641 23.6895 39.8748 23.3468 40.4411 22.379C41.0074 21.4113 40.6635 20.1814 39.6927 19.6169C38.7219 19.0524 37.4882 19.3952 36.9219 20.3629C36.3556 21.3306 36.6994 22.5605 37.6702 23.125ZM48.3895 25.7258C47.8636 25.4234 47.176 25.6048 46.8726 26.129C46.5692 26.6532 46.7513 27.3387 47.2771 27.6411C47.803 27.9435 48.4906 27.7621 48.794 27.2379C49.0974 26.6935 48.9153 26.0282 48.3895 25.7258ZM55.4076 29.9597C54.9626 29.6976 54.3963 29.8589 54.1536 30.3024C53.8907 30.746 54.0525 31.3105 54.4974 31.5524C54.9424 31.8145 55.5087 31.6532 55.7514 31.2097C55.9941 30.7863 55.8323 30.2218 55.4076 29.9597Z" fill="white"/>
<path d="M108.539 35.5847C106.092 35.5847 104.11 37.5605 104.11 40C104.11 42.4395 106.092 44.4153 108.539 44.4153C110.987 44.4153 112.969 42.4395 112.969 40C112.969 37.5605 110.987 35.5847 108.539 35.5847ZM101.218 40C101.218 38.2661 99.8023 36.8347 98.0427 36.8347C96.2831 36.8347 94.8674 38.246 94.8674 40C94.8674 41.7339 96.2831 43.1653 98.0427 43.1653C99.8023 43.1653 101.218 41.754 101.218 40ZM89.8516 37.8427C88.6583 37.8427 87.6875 38.8105 87.6875 40C87.6875 41.1895 88.6583 42.1573 89.8516 42.1573C91.0449 42.1573 92.0156 41.1895 92.0156 40C92.0156 38.8105 91.0449 37.8427 89.8516 37.8427Z" fill="white"/>
<path d="M84.894 40C84.894 39.2338 84.267 38.5887 83.4783 38.5887C82.7097 38.5887 82.0625 39.2137 82.0625 40C82.0625 40.7661 82.6895 41.4113 83.4783 41.4113C84.267 41.4113 84.894 40.7661 84.894 40Z" fill="white"/>
<path d="M108.316 45.746C106.152 45.1613 103.927 46.4516 103.361 48.6089C102.774 50.7661 104.068 52.9839 106.232 53.5484C108.397 54.1331 110.621 52.8428 111.188 50.6855C111.754 48.5282 110.46 46.3307 108.316 45.746ZM96.4031 49.5968C97.8796 50 99.3964 49.1129 99.7807 47.6411C100.185 46.1694 99.2953 44.6573 97.8189 44.2742C96.3425 43.871 94.8256 44.7581 94.4413 46.2299C94.057 47.7016 94.9267 49.1936 96.4031 49.5968ZM88.6772 46.7742C89.7491 47.0565 90.8615 46.4315 91.1649 45.3428C91.448 44.2742 90.821 43.1653 89.7289 42.8629C88.657 42.5807 87.5446 43.2057 87.2412 44.2944C86.9581 45.3831 87.585 46.492 88.6772 46.7742ZM82.731 44.4153C83.4187 44.5968 84.1266 44.1936 84.3086 43.5081C84.4906 42.8226 84.0861 42.1169 83.3985 41.9355C82.7108 41.754 82.0029 42.1573 81.8209 42.8428C81.6389 43.5282 82.0434 44.2339 82.731 44.4153Z" fill="white"/>
<path d="M105.362 55.4436C103.602 54.4355 101.357 55.0403 100.326 56.7944C99.3145 58.5484 99.9213 60.7863 101.681 61.8145C103.44 62.8226 105.706 62.2178 106.717 60.4637C107.728 58.7097 107.121 56.4718 105.362 55.4436ZM96.6448 54.6774C97.3527 53.4476 96.928 51.875 95.6942 51.1694C94.4605 50.4637 92.883 50.8871 92.1751 52.1169C91.4672 53.3468 91.8919 54.9194 93.1257 55.625C94.3594 56.3307 95.9369 55.9073 96.6448 54.6774ZM88.9189 50.2218C89.4245 49.3347 89.1211 48.2258 88.2514 47.7218C87.3615 47.2178 86.2492 47.5202 85.7435 48.3871C85.2379 49.2742 85.5413 50.3831 86.411 50.8871C87.2806 51.4113 88.4132 51.1089 88.9189 50.2218ZM82.8514 46.7339C83.175 46.1694 82.9929 45.4234 82.4064 45.1008C81.8401 44.7782 81.0918 44.9597 80.7682 45.5444C80.4446 46.1089 80.6266 46.8347 81.2131 47.1774C81.7997 47.5 82.5278 47.3186 82.8514 46.7339Z" fill="white"/>
<path d="M95.2076 64.0121C93.9132 65.3024 93.9132 67.3992 95.2076 68.6895C96.502 69.9798 98.6054 69.9798 99.8998 68.6895C101.194 67.3992 101.194 65.3024 99.8998 64.0121C98.6054 62.7218 96.502 62.7218 95.2076 64.0121ZM91.8301 60.625C92.7604 59.6976 92.7604 58.1855 91.8301 57.2581C90.8997 56.3306 89.3828 56.3306 88.4525 57.2581C87.5221 58.1855 87.5221 59.6976 88.4525 60.625C89.3828 61.5726 90.8997 61.5726 91.8301 60.625ZM85.5199 54.3347C86.1671 53.6895 86.1671 52.6411 85.5199 51.996C84.8727 51.3508 83.821 51.3508 83.1738 51.996C82.5266 52.6411 82.5266 53.6895 83.1738 54.3347C83.821 54.9798 84.8727 54.9798 85.5199 54.3347ZM79.0681 49.4758C79.4928 49.8992 80.2007 49.8992 80.6254 49.4758C81.0501 49.0524 81.0501 48.3468 80.6254 47.9234C80.2007 47.5 79.4928 47.5 79.0681 47.9234C78.6231 48.3468 78.6231 49.0322 79.0681 49.4758Z" fill="white"/>
<path d="M88.2522 69.5565C86.7555 70.4234 86.2499 72.3186 87.0994 73.8105C87.9691 75.3024 89.8702 75.8065 91.3669 74.9597C92.8635 74.0928 93.3691 72.1976 92.5197 70.7057C91.65 69.2137 89.7488 68.6895 88.2522 69.5565ZM86.4724 62.0968C85.8657 61.0484 84.5106 60.6855 83.4589 61.2903C82.4072 61.8952 82.0431 63.246 82.6499 64.2944C83.2566 65.3428 84.6117 65.7057 85.6634 65.1008C86.7151 64.496 87.0792 63.1452 86.4724 62.0968ZM81.1937 57.3992C81.9016 56.996 82.1443 56.0887 81.7398 55.3831C81.3353 54.6774 80.4251 54.4355 79.7375 54.8387C79.0296 55.242 78.7869 56.1492 79.1914 56.8347C79.5959 57.5605 80.4858 57.8024 81.1937 57.3992ZM76.7846 49.7581C76.2992 50.0403 76.1374 50.6452 76.4206 51.1291C76.7037 51.6129 77.3105 51.7742 77.7959 51.492C78.2813 51.2097 78.4431 50.6049 78.1599 50.121C77.8768 49.6573 77.27 49.4758 76.7846 49.7581Z" fill="white"/>
<path d="M80.0196 73.1452C78.442 73.5686 77.5117 75.1815 77.9364 76.7339C78.3611 78.3065 79.9791 79.2339 81.5365 78.8105C83.114 78.3871 84.0444 76.7742 83.6196 75.2218C83.2151 73.6492 81.5971 72.7218 80.0196 73.1452ZM78.6038 67.8226C79.6758 67.5403 80.323 66.4315 80.0398 65.3427C79.7567 64.2742 78.6443 63.629 77.5521 63.9113C76.4802 64.1936 75.833 65.3024 76.1162 66.3911C76.3993 67.4597 77.5117 68.1048 78.6038 67.8226ZM77.2892 57.621C77.087 56.8952 76.3386 56.4516 75.5903 56.6532C74.8622 56.8548 74.4173 57.6008 74.6195 58.3468C74.8218 59.0726 75.5701 59.5161 76.3184 59.3145C77.0465 59.1129 77.4712 58.3468 77.2892 57.621ZM75.1858 51.6129C75.0442 51.129 74.5588 50.8266 74.0532 50.9677C73.5678 51.0887 73.2644 51.6129 73.406 52.0968C73.5476 52.5806 74.033 52.8831 74.5386 52.7419C75.024 52.6008 75.3274 52.0968 75.1858 51.6129Z" fill="white"/>
<path d="M71.1029 74.4758C69.586 74.4758 68.332 75.7057 68.332 77.2379C68.332 78.75 69.5658 80 71.1029 80C72.6197 80 73.8737 78.7702 73.8737 77.2379C73.8737 75.7057 72.64 74.4758 71.1029 74.4758ZM69.2624 66.7742C69.2624 67.7823 70.0916 68.6089 71.1029 68.6089C72.1141 68.6089 72.9433 67.7823 72.9433 66.7742C72.9433 65.7661 72.1141 64.9395 71.1029 64.9395C70.0916 64.9395 69.2624 65.746 69.2624 66.7742ZM71.1029 59.879C71.8107 59.879 72.3973 59.2944 72.3973 58.5887C72.3973 57.8831 71.8107 57.2984 71.1029 57.2984C70.395 57.2984 69.8085 57.8831 69.8085 58.5887C69.8287 59.3145 70.395 59.879 71.1029 59.879ZM71.1029 51.4315C70.6377 51.4315 70.2736 51.7944 70.2736 52.2581C70.2736 52.7218 70.6377 53.0847 71.1029 53.0847C71.568 53.0847 71.9321 52.7218 71.9321 52.2581C71.9321 51.8145 71.568 51.4315 71.1029 51.4315Z" fill="white"/>
<path d="M62.1016 73.4677C60.7263 73.1048 59.3106 73.9113 58.9465 75.2822C58.5825 76.6532 59.3915 78.0645 60.7668 78.4274C62.1421 78.7903 63.5578 77.9839 63.9219 76.6129C64.2859 75.2419 63.4769 73.8306 62.1016 73.4677ZM64.5893 64.254C63.6994 64.0121 62.7893 64.5363 62.5668 65.4234C62.3241 66.3105 62.85 67.2177 63.7399 67.4395C64.6298 67.6814 65.5399 67.1572 65.7624 66.2701C65.9848 65.383 65.459 64.4758 64.5893 64.254ZM66.5916 56.7943C65.9444 56.633 65.2972 56.9959 65.1354 57.6411C64.9736 58.2863 65.3376 58.9314 65.9848 59.1129C66.632 59.2742 67.2792 58.9113 67.441 58.2661C67.6028 57.6209 67.2186 56.9758 66.5916 56.7943ZM68.6343 52.0161C68.7354 51.633 68.513 51.2298 68.1085 51.1089C67.7242 51.008 67.3197 51.2298 67.1983 51.633C67.0972 52.0161 67.3197 52.4193 67.7242 52.5403C68.1287 52.6411 68.5332 52.4193 68.6343 52.0161Z" fill="white"/>
<path d="M53.6072 70.1613C52.4544 69.496 50.9982 69.8992 50.3307 71.0283C49.6633 72.1775 50.0678 73.6291 51.2004 74.2944C52.3532 74.9597 53.8094 74.5565 54.4768 73.4274C55.1443 72.2783 54.76 70.8065 53.6072 70.1613ZM58.4005 61.875C57.6926 61.4718 56.8027 61.7137 56.378 62.4194C55.9735 63.125 56.2162 64.0121 56.9241 64.4154C57.632 64.8186 58.5219 64.5766 58.9466 63.871C59.3511 63.1855 59.1084 62.2783 58.4005 61.875ZM61.2118 57.0363C61.7376 57.3387 62.4253 57.1573 62.7287 56.6331C63.032 56.1089 62.85 55.4234 62.3242 55.121C61.7983 54.8186 61.1107 55 60.8073 55.5242C60.5039 56.0484 60.6859 56.7339 61.2118 57.0363ZM65.277 50.0403C64.9736 49.8589 64.5691 49.9597 64.3871 50.2823C64.2051 50.5847 64.3062 50.9879 64.6298 51.1694C64.9332 51.3508 65.3377 51.25 65.5197 50.9275C65.6815 50.6049 65.5804 50.2218 65.277 50.0403Z" fill="white"/>
<path d="M43.1093 64.7379C42.2396 65.6048 42.2396 66.996 43.1093 67.8629C43.979 68.7298 45.3745 68.7298 46.2442 67.8629C47.1138 66.996 47.1138 65.6048 46.2442 64.7379C45.3745 63.871 43.979 63.871 43.1093 64.7379ZM51.1993 57.9839C50.6937 58.4879 50.6937 59.2943 51.1993 59.7984C51.7049 60.3024 52.5139 60.3024 53.0195 59.7984C53.5252 59.2943 53.5252 58.4879 53.0195 57.9839C52.5139 57.4798 51.7049 57.4798 51.1993 57.9839ZM57.1859 52.3992C56.7814 52.8024 56.7814 53.4274 57.1859 53.8306C57.5904 54.2339 58.2174 54.2339 58.6219 53.8306C59.0264 53.4274 59.0264 52.8024 58.6219 52.3992C58.2174 51.996 57.5904 51.996 57.1859 52.3992ZM62.7882 48.246C62.5657 48.0242 62.2219 48.0242 61.9994 48.246C61.777 48.4677 61.777 48.8105 61.9994 49.0322C62.2219 49.254 62.5657 49.254 62.7882 49.0322C63.0107 48.8105 63.0107 48.4476 62.7882 48.246Z" fill="white"/>
<path d="M37.7316 56.8145C36.7608 57.379 36.4372 58.6088 36.9832 59.5766C37.5495 60.5443 38.7833 60.8669 39.7541 60.3225C40.7249 59.758 41.0485 58.5282 40.5024 57.5605C39.9361 56.5927 38.7024 56.25 37.7316 56.8145ZM47.298 52.379C46.7721 52.6814 46.5901 53.3669 46.8935 53.8911C47.1969 54.4153 47.8845 54.5967 48.4104 54.2943C48.9362 53.9919 49.1182 53.3064 48.8149 52.7822C48.4913 52.258 47.8238 52.0766 47.298 52.379ZM54.4779 48.4476C54.0329 48.7097 53.8913 49.254 54.134 49.6976C54.397 50.1411 54.943 50.2822 55.388 50.0403C55.8329 49.7782 55.9745 49.2338 55.7318 48.7903C55.4891 48.3467 54.9228 48.1855 54.4779 48.4476Z" fill="white"/>
<path d="M33.6024 33.5887H36.8586V46.0484H33.6024V33.5887ZM35.6046 28.0242C34.5934 27.7621 33.5619 28.3468 33.299 29.3549C33.0361 30.3629 33.6226 31.3911 34.6338 31.6532C35.6451 31.9153 36.6766 31.3307 36.9395 30.3226C37.2024 29.3145 36.5957 28.2863 35.6046 28.0242ZM46.9104 46.3105C46.061 46.3105 45.2924 46.1694 44.625 45.867C43.9373 45.5645 43.3913 45.121 42.9868 44.5363V52.2782H39.8114V33.5887H42.9665V35.3226C43.3913 34.6976 43.9373 34.2137 44.6048 33.871C45.2924 33.5081 46.0407 33.3468 46.8902 33.3468C47.679 33.3468 48.4273 33.4879 49.1554 33.7903C49.8835 34.0928 50.5307 34.5162 51.0768 35.1008C51.6228 35.6653 52.0678 36.3508 52.4116 37.1573C52.7352 37.9637 52.9172 38.8508 52.9172 39.8387C52.9172 40.8468 52.7554 41.7339 52.4116 42.5202C52.0678 43.3065 51.6228 43.992 51.0768 44.5565C50.5307 45.121 49.8835 45.5645 49.1756 45.867C48.4273 46.1694 47.679 46.3105 46.9104 46.3105ZM46.2632 43.3065C46.7486 43.3065 47.1936 43.2057 47.5981 43.0242C48.0228 42.8428 48.3868 42.5807 48.6902 42.2782C49.0138 41.9557 49.2565 41.5928 49.4385 41.1694C49.6206 40.746 49.7015 40.2823 49.7015 39.7984C49.7015 39.3145 49.6206 38.8508 49.4385 38.4274C49.2565 38.0041 49.0138 37.6412 48.6902 37.3186C48.3666 36.996 48.0026 36.7541 47.5981 36.5726C47.1733 36.3911 46.7284 36.2903 46.2632 36.2903C45.7778 36.2903 45.3126 36.3911 44.8879 36.5726C44.4632 36.7541 44.0991 37.0162 43.7958 37.3186C43.4924 37.6412 43.2497 38.004 43.0677 38.4476C42.8856 38.871 42.8047 39.3347 42.8047 39.8186C42.8047 40.3024 42.8856 40.7661 43.0677 41.1895C43.2497 41.6129 43.4924 41.9758 43.7958 42.2984C44.0991 42.621 44.4632 42.8629 44.8879 43.0444C45.2924 43.2258 45.7576 43.3065 46.2632 43.3065ZM55.2027 33.5887H58.3578V35.5041C58.6611 34.7581 59.1263 34.2137 59.7128 33.871C60.2994 33.5282 61.0072 33.3468 61.8162 33.3468C62.241 33.3468 62.6252 33.3871 62.9893 33.4879C63.3533 33.5887 63.6567 33.6895 63.9196 33.8307L62.7668 36.9758C62.605 36.8549 62.3623 36.7541 62.0792 36.6734C61.7758 36.5928 61.4522 36.5524 61.1084 36.5524C60.2994 36.5524 59.6319 36.7742 59.1465 37.2379C58.6611 37.7016 58.3982 38.4476 58.3982 39.496V46.0686H55.2229L55.2027 33.5887ZM70.9782 46.3105C70.0276 46.3105 69.1579 46.1492 68.3691 45.8065C67.5601 45.4637 66.8725 45 66.2657 44.4153C65.6792 43.8307 65.214 43.125 64.8702 42.3589C64.5466 41.5726 64.3646 40.7258 64.3646 39.8387C64.3646 38.9516 64.5264 38.1049 64.8702 37.3186C65.1938 36.5323 65.659 35.8468 66.2657 35.2621C66.8523 34.6774 67.5601 34.2137 68.3691 33.871C69.1781 33.5282 70.0478 33.367 70.9782 33.367C71.9085 33.367 72.7782 33.5282 73.5872 33.871C74.3962 34.2137 75.1041 34.6774 75.6906 35.2621C76.2771 35.8468 76.7423 36.5323 77.0861 37.3186C77.4299 38.1049 77.5917 38.9516 77.5917 39.8387C77.5917 40.7258 77.4299 41.5726 77.0861 42.3589C76.7423 43.1452 76.2771 43.8307 75.6906 44.4153C75.1041 45 74.3962 45.4637 73.5872 45.8065C72.7984 46.1492 71.9287 46.3105 70.9782 46.3105ZM71.0186 43.2863C71.504 43.2863 71.949 43.1855 72.3535 43.0041C72.7782 42.8226 73.1422 42.5807 73.4456 42.2581C73.749 41.9557 73.9917 41.5928 74.1737 41.1694C74.3557 40.746 74.4366 40.2823 74.4366 39.7984C74.4366 39.3145 74.3557 38.871 74.1737 38.4274C73.9917 38.0041 73.749 37.621 73.4456 37.3186C73.1422 37.0162 72.7782 36.7742 72.3535 36.5726C71.9287 36.3911 71.4838 36.2903 71.0186 36.2903C70.5332 36.2903 70.0883 36.3911 69.6838 36.5726C69.259 36.7541 68.895 36.996 68.5916 37.3186C68.2882 37.621 68.0455 38.0041 67.8635 38.4274C67.6815 38.8508 67.6006 39.3145 67.6006 39.7984C67.6006 40.2823 67.6815 40.746 67.8635 41.1694C68.0455 41.5928 68.2882 41.9557 68.5916 42.2581C68.895 42.5605 69.259 42.8024 69.6838 43.0041C70.0883 43.2057 70.5332 43.2863 71.0186 43.2863ZM11.0312 33.5887H14.2673L16.7954 41.5524L19.7482 33.5887H22.6L25.5124 41.5524L28.1214 33.5887H31.3574L27.1304 46.0484H24.1168L21.1438 37.9234L18.1302 46.0484H15.0763L11.0312 33.5887Z" fill="white"/>
</g>
<defs>
<clipPath id="clip0_793_12856">
<rect width="124" height="80" fill="white"/>
</clipPath>
</defs>
</svg>
