<svg width="257" height="50" viewBox="0 0 257 50" fill="none" xmlns="http://www.w3.org/2000/svg">
<path d="M83.7006 5.6172C80.996 4.50763 78.1527 3.7448 75.5868 3.7448C71.842 3.7448 69.9689 4.57698 69.9689 5.96394C69.9689 10.1248 86.6825 6.79612 86.6825 15.6033C86.6825 19.2788 83.2845 22.0527 76.3497 22.0527C72.2588 22.0527 69.0681 21.2205 65.3927 19.2094L66.9183 15.9501C70.1083 17.7531 73.0896 18.5159 76.3497 18.5159C80.4412 18.5159 82.591 17.337 82.591 15.6033C82.591 11.0957 65.8781 14.4244 65.8781 6.17198C65.8781 2.63523 69.2755 0.138697 75.4481 0.138697C79.1236 0.138697 82.2443 0.970874 85.1569 2.42718L83.7006 5.6172ZM102.286 22.1914C95.6277 22.1914 90.0799 17.7531 90.0799 11.0957C90.0799 4.50763 95.6277 0 102.286 0C109.013 0 114.422 4.50763 114.422 11.0957C114.491 17.7531 109.013 22.1914 102.286 22.1914ZM102.286 3.6061C97.4315 3.6061 94.1028 6.86546 94.1028 11.0957C94.1028 15.3953 97.2928 18.6546 102.286 18.6546C107.279 18.6546 110.4 15.3953 110.4 11.0957C110.469 6.86546 107.279 3.6061 102.286 3.6061ZM130.372 22.1914C123.367 22.1914 118.097 17.7531 118.097 11.0957C118.097 4.57698 123.437 0 130.372 0C134.533 0 137.445 1.17892 140.15 3.12067L138.07 6.17198C136.128 4.71567 133.701 3.6061 130.511 3.6061C125.379 3.6061 122.189 6.86546 122.189 11.0264C122.189 15.3259 125.379 18.5159 130.511 18.5159C133.701 18.5159 136.267 17.4757 138.209 16.0194L140.289 19.0707C137.653 21.0818 134.533 22.1914 130.372 22.1914ZM144.241 0.76283H148.402V21.5673H144.241V0.76283ZM153.95 21.5673V0.76283H173.368V4.23024H158.111V9.08461H169.9V12.552H158.111V18.0999H174.061V21.5673H153.95ZM188.624 4.23024V21.5673H184.463V4.23024H176.142V0.76283H196.946V4.23024H188.624ZM200.413 21.5673V0.76283H219.137V4.23024H203.881V9.08461H215.67V12.552H203.881V18.0999H219.831V21.5673H200.413ZM77.3205 46.3939C79.4703 46.3939 81.8282 45.9085 83.2151 45.1456V38.9043H87.376V47.1567C84.6021 48.9598 80.9266 50 77.3205 50C70.3157 50 64.9766 45.5617 64.9766 38.9043C64.9766 32.3856 70.3157 27.8779 77.2505 27.8779C81.2734 27.8779 84.324 28.9882 86.9592 30.9986L84.8788 34.0499C82.937 32.5936 80.5099 31.5534 77.3205 31.5534C72.1888 31.4147 68.9988 34.7434 68.9988 38.9043C68.9988 43.3426 72.1888 46.3939 77.3205 46.3939ZM92.2304 49.3065V28.5021H111.648V31.9695H96.3913V36.8239H108.18V40.2913H96.3913V45.8391H112.341V49.3065H92.2304ZM119.276 49.3065H115.809V28.5021H119.762L133.423 44.3135C133.215 40.3606 133.076 37.1706 133.076 34.0499V28.5021H137.237V49.3065H133.076L119.484 33.6338L119.276 33.7032C119.415 36.8239 119.276 42.3024 119.276 44.0361V49.3065ZM142.855 49.3065V28.5021H161.579V31.9695H146.322V36.8239H158.111V40.2913H146.322V45.8391H162.272V49.3065H142.855ZM176.558 41.6782H170.594V49.3065H166.433V28.5021H179.886C184.325 28.5021 187.099 31.276 187.099 35.2288C187.099 38.9729 184.394 41.1234 181.065 41.6089L187.307 49.3752H182.452L176.558 41.6782ZM179.47 38.2108C181.898 38.2108 183.284 36.9626 183.284 35.1595C183.284 33.1491 182.106 31.9695 179.886 31.9695H170.594V38.2108H179.47ZM195.282 44.4521L192.855 49.3065H188.624L198.818 28.5021H202.909L213.103 49.3065H208.943L206.515 44.4521H195.282ZM196.877 40.9847H204.921L200.899 32.5243L196.877 40.9847ZM216.364 49.3065V28.5021H219.831V45.8391H233.701V49.3065H216.364ZM236.475 49.3065V28.5021H255.892V31.9695H240.635V36.8239H252.425V40.2913H240.635V45.8391H256.585V49.3065H236.475Z" fill="white"/>
<path d="M0 0.0693359H50.6241V25.7281H0V0.0693359Z" fill="white"/>
<path d="M0 25.0347H50.6241V50H0V25.0347Z" fill="white"/>
<path d="M9.01562 23.6477H41.6092V26.4216H9.01562V23.6477Z" fill="#D9D9D9"/>
</svg>
