<svg width="274" height="50" viewBox="0 0 274 50" fill="none" xmlns="http://www.w3.org/2000/svg">
<mask id="mask0_667_15084" style="mask-type:luminance" maskUnits="userSpaceOnUse" x="3" y="10" width="64" height="25">
<path d="M3.14062 14.4181C3.14062 14.4181 8.28981 13.0055 10.6138 13.0055C16.5832 13.0055 27.2005 21.6634 33.899 25.9468C43.9696 32.4175 47.4327 34.7415 54.1312 34.7415C63.2904 34.7415 66.2067 29.5011 66.2067 29.5011C66.2067 29.5011 64.6574 31.3694 59.4627 31.3694C52.3085 31.3694 46.9315 26.9949 39.1394 21.39C31.3928 15.8307 22.3703 10.1803 15.0794 10.1803C6.33039 10.1803 3.14062 14.4181 3.14062 14.4181Z" fill="white"/>
</mask>
<g mask="url(#mask0_667_15084)">
<path d="M66.2067 10.1804H3.14062V34.696H66.2067V10.1804Z" fill="white"/>
</g>
<g opacity="0.36">
<mask id="mask1_667_15084" style="mask-type:luminance" maskUnits="userSpaceOnUse" x="32" y="17" width="12" height="15">
<path d="M43.5639 17.0615H32.7188V31.9166H43.5639V17.0615Z" fill="white"/>
</mask>
<g mask="url(#mask1_667_15084)">
<mask id="mask2_667_15084" style="mask-type:luminance" maskUnits="userSpaceOnUse" x="32" y="17" width="12" height="15">
<path d="M32.7188 25.1726C33.1289 25.446 33.539 25.7194 33.9035 25.9473C38.0046 28.5902 41.0121 30.5041 43.5639 31.9167V24.6258C42.1513 23.6233 40.6932 22.5753 39.1438 21.4361C37.0933 19.9323 34.906 18.4741 32.7188 17.0615V25.1726Z" fill="white"/>
</mask>
<g mask="url(#mask2_667_15084)">
<path d="M43.5639 17.0615H32.7188V31.9167H43.5639V17.0615Z" fill="white"/>
</g>
</g>
</g>
<mask id="mask3_667_15084" style="mask-type:luminance" maskUnits="userSpaceOnUse" x="35" y="7" width="31" height="43">
<path d="M35.0391 25.4912V44.3563C35.0391 50.827 41.5097 49.9612 41.5097 49.9612C41.5097 49.9612 41.5553 38.2047 41.5553 31.2328C41.5553 24.2609 41.8743 16.97 52.9473 11.9575C53.9498 11.5018 54.8612 11.5474 55.8181 11.593C56.1826 11.593 56.5472 11.6385 56.9117 11.6385C61.3774 11.5018 65.1595 13.3245 65.1595 13.3245C65.1595 13.3245 60.466 7.94751 52.0359 7.94751C43.6059 7.94751 35.0391 14.9194 35.0391 25.4912Z" fill="white"/>
</mask>
<g mask="url(#mask3_667_15084)">
<path d="M65.1595 7.94757H35.0391V50.7815H65.1595V7.94757Z" fill="white"/>
</g>
<mask id="mask4_667_15084" style="mask-type:luminance" maskUnits="userSpaceOnUse" x="2" y="0" width="32" height="35">
<path d="M13.5743 0.292336C13.5743 0.292336 25.2397 7.08197 26.1511 9.13253C26.6979 10.3173 27.1536 11.9122 27.1536 14.464C27.1536 26.2205 16.5818 31.7343 10.4301 31.7343C5.37209 31.7343 2.54688 28.5901 2.54688 28.5901C2.54688 28.5901 8.01504 34.6962 16.5363 34.6962C27.2903 34.6962 33.761 25.3547 33.761 18.5195C33.761 13.0969 31.1636 9.3148 28.9763 6.62629C24.2372 0.793581 17.0375 0.246765 14.4857 0.246765C13.9389 0.246765 13.5743 0.292336 13.5743 0.292336Z" fill="white"/>
</mask>
<g mask="url(#mask4_667_15084)">
<path d="M33.761 0.246765H2.54688V34.6962H33.761V0.246765Z" fill="white"/>
</g>
<mask id="mask5_667_15084" style="mask-type:luminance" maskUnits="userSpaceOnUse" x="2" y="0" width="25" height="10">
<path d="M2.59375 3.1176C2.59375 3.1176 2.63932 4.02896 3.32284 6.03395C4.05193 8.08451 4.73545 8.58576 5.23669 8.58576C5.73794 8.58576 8.42646 6.12509 14.3503 6.12509C20.2286 6.12509 26.1068 9.17815 26.1524 9.17815C26.1524 9.13258 24.7854 5.80611 21.5956 3.29987C19.2261 1.43158 15.5806 0.337948 13.5301 0.337948C7.60623 0.29238 2.59375 3.1176 2.59375 3.1176Z" fill="white"/>
</mask>
<g mask="url(#mask5_667_15084)">
<path d="M0.0859375 1.067L24.0547 -6.45172L28.7026 8.35788L4.68831 15.8766L0.0859375 1.067Z" fill="white"/>
</g>
<mask id="mask6_667_15084" style="mask-type:luminance" maskUnits="userSpaceOnUse" x="0" y="12" width="15" height="20">
<path d="M3.18976 14.3728C1.95942 15.0563 0 18.7473 0 21.7548C0 24.261 1.23034 29.7748 7.10861 31.2785C11.9844 32.5544 14.8552 30.9595 14.8552 30.9595C14.8552 30.9595 8.01997 29.9115 8.01997 21.7548C8.01997 16.5145 12.6679 13.2792 12.6679 13.2792C12.6679 13.2792 11.8477 12.9602 9.02247 12.9602C7.29088 12.9602 5.10362 13.2792 3.18976 14.3728Z" fill="white"/>
</mask>
<g mask="url(#mask6_667_15084)">
<path d="M14.8552 12.9602H0V32.6H14.8552V12.9602Z" fill="white"/>
</g>
<path d="M0 21.7548C0 18.7473 1.95942 15.0563 3.18976 14.3728C5.10362 13.3247 7.24531 12.9602 9.02247 12.9602C11.8477 12.9602 12.6223 13.3247 12.6223 13.3247C12.6223 13.3247 7.9744 16.56 7.9744 21.8003C7.9744 29.957 14.8096 31.0051 14.8096 31.0051C14.8096 31.0051 13.3514 31.8253 10.7541 31.8253C9.70599 31.8253 8.47565 31.6886 7.06304 31.3241C1.23034 29.7747 0 24.261 0 21.7548C0 24.261 1.23034 29.7748 7.10861 31.2785C8.52122 31.643 9.75155 31.7797 10.7996 31.7797C13.397 31.7797 14.8552 30.9595 14.8552 30.9595C14.8552 30.9595 8.01997 29.9114 8.01997 21.7548C8.01997 16.5145 12.6679 13.2791 12.6679 13.2791C12.6679 13.2791 11.8477 12.9146 9.06803 12.9146C7.29088 12.9146 5.14919 13.2791 3.23533 14.3272C1.95942 15.0563 0 18.7473 0 21.7548Z" fill="white"/>
<mask id="mask7_667_15084" style="mask-type:luminance" maskUnits="userSpaceOnUse" x="52" y="11" width="17" height="21">
<path d="M52.7656 12.0488C52.8112 12.0488 60.9679 13.2791 60.9679 21.2991C60.9679 28.6811 55.2719 30.8683 55.2719 30.8683C55.2719 30.8683 59.7375 32.1898 64.431 30.6861C66.8917 29.9114 68.76 26.1293 68.76 21.8459C68.76 19.4763 67.5297 15.3297 65.2968 13.4614C63.4741 11.9576 60.8767 11.2285 58.6439 11.2285C54.1782 11.183 52.7656 12.0488 52.7656 12.0488Z" fill="white"/>
</mask>
<g mask="url(#mask7_667_15084)">
<path d="M68.76 11.183H52.7656V32.1899H68.76V11.183Z" fill="white"/>
</g>
<path fill-rule="evenodd" clip-rule="evenodd" d="M98.6526 30.3216C96.9666 30.3216 95.3261 30.3216 93.6401 30.3216C92.4098 30.0482 91.7718 29.0913 91.6351 27.5875C91.0427 28.4533 90.3592 29.1368 89.539 29.5925C87.215 30.9596 83.2962 31.0963 80.8811 29.9115C78.2837 28.6356 76.7344 25.7648 77.6457 22.9396C78.5115 20.1599 81.1089 18.884 83.7974 18.4284C85.9391 18.0638 88.4909 18.0638 91.4984 18.1094C91.544 16.6968 91.1794 15.6943 90.5415 15.0563C89.0833 13.4159 86.0303 13.5981 84.0708 14.0538C82.5215 14.4184 81.0633 15.1019 80.152 15.8765L79.9241 11.3653C82.0658 10.5907 84.4354 9.99827 86.896 9.99827C89.6757 9.95271 93.23 10.5451 95.0072 12.8691C95.9185 13.9171 96.1919 15.3753 96.3286 16.879C96.4653 18.9296 96.4198 21.208 96.4198 23.3041C96.4198 24.6712 96.4198 26.0382 96.4198 27.4053C96.4198 27.542 96.4653 27.6331 96.4653 27.7698C96.6932 29.3647 97.4223 30.1849 98.6526 30.3216ZM91.4984 21.3447C91.4984 23.532 90.7693 25.3547 89.22 26.3572C87.3062 27.6331 83.524 27.6787 83.0228 24.9446C82.8861 24.1244 83.1595 23.1674 84.0253 22.4839C85.8024 21.1169 89.4023 21.2536 91.4984 21.3447Z" fill="white"/>
<path fill-rule="evenodd" clip-rule="evenodd" d="M145.542 30.3216C143.856 30.3216 142.215 30.3216 140.529 30.3216C139.299 30.0482 138.661 29.0913 138.524 27.5875C137.932 28.4533 137.249 29.1368 136.428 29.5925C134.104 30.9596 130.185 31.0963 127.725 29.9115C125.127 28.6356 123.578 25.7648 124.489 22.9396C125.355 20.1599 127.953 18.884 130.641 18.4284C132.783 18.0638 135.335 18.0638 138.342 18.1094C138.388 16.6968 138.023 15.6943 137.385 15.0563C135.927 13.4159 132.874 13.5981 130.915 14.0538C129.365 14.4184 127.907 15.1019 126.996 15.8765L126.859 11.3653C129.001 10.5907 131.37 9.99827 133.831 9.99827C136.611 9.95271 140.165 10.5451 141.942 12.8691C142.853 13.9171 143.127 15.3753 143.264 16.879C143.4 18.9296 143.355 21.208 143.355 23.3041C143.355 24.6712 143.355 26.0382 143.355 27.4053C143.355 27.542 143.4 27.6331 143.4 27.7698C143.628 29.3647 144.357 30.1849 145.542 30.3216ZM138.433 21.3447C138.433 23.532 137.704 25.3547 136.155 26.3572C134.241 27.6331 130.459 27.6787 129.958 24.9446C129.821 24.1244 130.094 23.1674 130.96 22.4839C132.692 21.1169 136.337 21.2536 138.433 21.3447Z" fill="white"/>
<path fill-rule="evenodd" clip-rule="evenodd" d="M116.655 10.2261H122.169V30.276C118.797 30.4583 116.564 28.8179 116.655 26.1749V10.2261Z" fill="white"/>
<path fill-rule="evenodd" clip-rule="evenodd" d="M116.928 1.75045C116.7 1.65932 116.473 1.56818 116.381 1.70488C116.29 1.88715 116.199 1.93273 116.062 2.06943C115.926 2.115 116.199 3.02637 116.108 3.48205C116.108 3.66432 116.245 3.61875 116.29 3.66431C116.381 3.75545 116.381 3.89215 116.336 3.98328C116.473 4.07442 116.518 4.11999 116.381 4.21112C116.29 4.34783 116.336 4.43897 116.381 4.57568C116.427 4.80352 116.564 4.94022 116.7 5.03136C117.019 5.21363 117.156 5.12249 117.521 5.39589C117.657 5.5326 117.749 5.71488 117.84 5.98829C117.749 6.76294 118.614 6.71737 119.024 6.58067C119.161 6.5351 118.933 6.39839 119.024 6.30725C119.07 6.26169 119.207 6.26169 119.343 6.21613C119.753 6.03385 119.753 6.07942 119.753 5.76045C119.753 5.57817 119.753 5.6693 119.981 5.62373C120.118 5.62373 119.981 5.44147 120.255 5.48704C120.483 5.57817 120.483 5.5326 120.483 5.35032C120.483 5.12248 120.71 5.12249 120.938 5.16805C121.485 5.30476 121.075 4.98578 121.303 4.98578C121.713 4.98578 121.804 4.94022 122.169 4.34784C122.26 4.21113 122.26 4.02886 122.26 3.89216C122.305 3.61875 122.396 3.70989 122.396 3.48205C122.442 3.29977 122.351 3.07193 122.214 2.88965C122.032 2.61625 122.032 2.66182 121.895 2.34285C121.804 2.02387 121.758 1.88716 121.485 1.56818C121.257 1.24921 120.893 0.975803 120.619 0.702394C120.346 0.474554 120.391 0.474554 120.209 0.246714C120.164 0.201146 120.118 0.155573 120.072 0.155573C119.845 0.0644368 119.571 0.0644423 119.389 0.0188743C119.298 -0.0266937 119.207 0.0188771 119.116 0.0644451C118.933 0.201149 119.07 0.155576 118.842 0.201144C118.751 0.201144 118.614 0.337848 118.523 0.428984C118.478 0.474552 118.432 0.474557 118.341 0.520125C118.159 0.702397 118.25 0.793522 118.022 0.793522C117.84 0.793522 117.84 0.793522 117.749 1.02136C117.703 1.15807 117.657 1.29477 117.475 1.29477C117.202 1.29477 117.384 1.34035 117.247 1.43149C117.202 1.47705 117.111 1.43147 117.065 1.47704C117.065 1.61375 117.065 1.75045 116.928 1.75045Z" fill="white"/>
<path fill-rule="evenodd" clip-rule="evenodd" d="M99.3821 29.8659C99.4277 28.3166 100.202 27.0407 101.478 26.6306C102.344 26.4028 102.936 26.6306 103.757 26.7217C105.215 26.904 106.673 26.7673 107.63 26.3116C109.179 25.5825 109.134 23.9876 107.721 23.1218C106.081 22.1649 102.845 21.8915 100.84 20.1144C99.61 19.0207 99.0631 17.517 99.1543 16.0132C99.291 13.4614 101.023 11.7298 103.301 10.8641C105.898 9.86156 109.453 9.86156 113.371 10.8641L113.053 14.7373C110.227 13.7348 106.719 13.5526 105.306 14.8285C104.395 15.6487 104.44 16.6968 105.534 17.3347C107.903 18.6106 110.865 18.3828 113.007 20.6612C115.012 22.8029 114.739 26.4483 112.734 28.4533C111.367 29.8659 109.27 30.5039 107.083 30.6861C104.85 30.8684 102.207 30.595 99.3821 29.8659Z" fill="white"/>
<path fill-rule="evenodd" clip-rule="evenodd" d="M165.136 11.502C167.187 13.0057 167.506 15.0107 167.506 17.4258C167.551 21.8004 167.551 26.1293 167.551 30.5039C163.496 30.7773 162.357 29.1368 162.22 27.6786L162.174 20.6156C162.174 19.203 162.22 17.4714 161.582 16.1499C160.853 14.7373 159.44 14.1905 157.982 14.2817C155.658 14.4184 154.2 15.9677 153.653 18.1094C153.425 19.1119 153.38 19.8865 153.38 20.9346L153.288 30.276H147.82V10.3628H152.969V13.4614C153.926 12.0488 155.43 11.0463 157.162 10.4995C159.759 9.72486 162.949 9.86155 165.136 11.502Z" fill="white"/>
<path fill-rule="evenodd" clip-rule="evenodd" d="M214.124 30.3216C212.438 30.3216 210.797 30.3216 209.111 30.3216C207.881 30.0482 207.243 29.0913 207.106 27.5875C206.514 28.4533 205.831 29.1368 205.01 29.5925C202.686 30.9596 198.768 31.0963 196.307 29.9115C193.709 28.6356 192.16 25.7648 193.072 22.9396C193.937 20.1599 196.535 18.884 199.223 18.4284C201.365 18.0638 203.917 18.0638 206.924 18.1094C206.97 16.6968 206.605 15.6943 205.967 15.0563C204.509 13.4159 201.456 13.5981 199.497 14.0538C197.947 14.4184 196.489 15.1019 195.578 15.8765L195.441 11.3653C197.583 10.5907 199.952 9.99827 202.413 9.99827C205.193 9.95271 208.747 10.5451 210.524 12.8691C211.435 13.9171 211.709 15.3753 211.846 16.879C211.982 18.9296 211.937 21.208 211.937 23.3041C211.937 24.6712 211.937 26.0382 211.937 27.4053C211.937 27.542 211.982 27.6331 211.982 27.7698C212.165 29.3647 212.939 30.1849 214.124 30.3216ZM207.015 21.3447C207.015 23.532 206.286 25.3547 204.737 26.3572C202.823 27.6331 199.041 27.6787 198.54 24.9446C198.403 24.1244 198.676 23.1674 199.542 22.4839C201.274 21.1169 204.919 21.2536 207.015 21.3447Z" fill="white"/>
<path fill-rule="evenodd" clip-rule="evenodd" d="M214.671 10.2261H220.184V30.276C216.812 30.4583 214.58 28.8179 214.671 26.1749V10.2261Z" fill="white"/>
<path fill-rule="evenodd" clip-rule="evenodd" d="M214.944 1.75045C214.716 1.65932 214.488 1.56818 214.397 1.70488C214.306 1.88715 214.215 1.93273 214.078 2.06943C213.941 2.115 214.215 3.02637 214.124 3.48205C214.124 3.66432 214.26 3.61875 214.306 3.66431C214.397 3.75545 214.397 3.89215 214.352 3.98328C214.443 4.07442 214.534 4.11999 214.397 4.21112C214.306 4.34783 214.352 4.43897 214.397 4.57568C214.443 4.80352 214.579 4.94022 214.716 5.03136C215.035 5.21363 215.172 5.12249 215.536 5.39589C215.673 5.5326 215.764 5.71488 215.855 5.98829C215.764 6.76294 216.63 6.71737 217.04 6.58067C217.177 6.5351 216.949 6.39839 217.04 6.30725C217.086 6.26169 217.222 6.26169 217.359 6.21613C217.769 6.03385 217.769 6.07942 217.769 5.76045C217.769 5.57817 217.769 5.6693 217.997 5.62373C218.134 5.62373 217.997 5.44147 218.27 5.48704C218.498 5.57817 218.498 5.57816 218.498 5.35032C218.498 5.12248 218.726 5.12249 218.954 5.16805C219.501 5.30476 219.091 4.98578 219.318 4.98578C219.729 4.98578 219.82 4.94022 220.184 4.34784C220.275 4.21113 220.275 4.02886 220.275 3.89216C220.321 3.61875 220.412 3.70989 220.412 3.48205C220.458 3.29977 220.366 3.07193 220.23 2.88965C220.048 2.61625 220.048 2.66182 219.911 2.34285C219.82 2.02387 219.774 1.88716 219.501 1.56818C219.273 1.24921 218.908 0.975803 218.635 0.702394C218.362 0.474554 218.407 0.474554 218.225 0.246714C218.179 0.201146 218.134 0.155573 218.088 0.155573C217.86 0.0644368 217.587 0.0644423 217.405 0.0188743C217.313 -0.0266937 217.222 0.0188771 217.131 0.0644451C216.949 0.201149 217.086 0.155576 216.858 0.201144C216.767 0.201144 216.63 0.337848 216.539 0.428984C216.493 0.474552 216.448 0.474557 216.357 0.520125C216.174 0.702397 216.265 0.793522 216.038 0.793522C215.855 0.793522 215.855 0.793522 215.764 1.02136C215.719 1.15807 215.673 1.29477 215.491 1.29477C215.217 1.29477 215.4 1.34035 215.263 1.43149C215.172 1.47705 215.126 1.43147 215.081 1.47704C215.081 1.61375 215.081 1.75045 214.944 1.75045Z" fill="white"/>
<path fill-rule="evenodd" clip-rule="evenodd" d="M258.413 29.8659C258.459 28.3166 259.234 27.0407 260.509 26.6306C261.375 26.4028 261.968 26.6306 262.788 26.7217C264.246 26.904 265.704 26.7673 266.661 26.3116C268.21 25.5825 268.165 23.9876 266.752 23.1218C265.112 22.1649 261.877 21.8915 259.872 20.1144C258.641 19.0207 258.094 17.517 258.186 16.0132C258.322 13.4614 260.054 11.7298 262.332 10.8641C264.93 9.86156 268.484 9.86156 272.403 10.8641L272.084 14.7373C269.259 13.7348 265.75 13.5526 264.337 14.8285C263.426 15.6487 263.471 16.6968 264.565 17.3347C266.935 18.6106 269.896 18.3828 272.038 20.6612C274.043 22.8029 273.77 26.4483 271.765 28.4533C270.398 29.8659 268.302 30.5039 266.114 30.6861C263.882 30.8684 261.284 30.595 258.413 29.8659Z" fill="white"/>
<path fill-rule="evenodd" clip-rule="evenodd" d="M240.96 11.2742C243.011 12.7779 243.33 14.7829 243.33 17.198L243.421 26.6762C243.421 27.8609 243.831 29.5014 246.474 30.2304H241.052C238.819 29.8659 238.135 28.6356 238.044 27.4964L237.998 20.4333C237.998 19.0207 238.044 17.2891 237.406 15.9677C236.677 14.5551 235.264 14.0082 233.806 14.0994C231.482 14.2361 230.024 15.7854 229.477 17.9271C229.249 18.9296 229.204 19.7042 229.204 20.7523L229.113 30.0938H223.645V10.1805H228.794V13.2792C229.751 11.8666 231.254 10.8641 232.986 10.3172C235.538 9.49701 238.773 9.63371 240.96 11.2742Z" fill="white"/>
<path fill-rule="evenodd" clip-rule="evenodd" d="M251.079 4.43897C248.025 4.2567 245.702 5.98828 245.702 8.40339L245.61 22.9852C245.565 27.2685 247.069 29.4102 249.757 30.1849C251.489 30.6861 253.721 30.7317 256.41 30.0938L256.273 25.9926C253.129 26.7673 251.124 25.9926 251.124 22.9852V14.1905H256.045V10.2717H251.124V4.43897H251.079Z" fill="white"/>
<path fill-rule="evenodd" clip-rule="evenodd" d="M184.64 16.3322C185.87 18.5651 185.779 22.4839 184.321 24.58C182.726 26.904 179.308 27.223 177.349 25.1724C175.389 23.1674 175.344 19.0663 176.665 16.6968C178.306 13.6893 182.862 13.188 184.64 16.3322ZM176.073 27.9976C176.027 30.914 175.845 34.1493 175.891 37.2024C175.891 37.3847 175.891 37.5214 175.891 37.6125C175.799 38.0226 175.663 37.8859 175.435 38.1137C175.253 38.296 175.161 38.615 175.161 38.7973C175.298 40.8934 174.934 42.1237 174.979 44.1743C174.979 44.9945 174.432 44.9034 174.387 45.3591C174.387 45.7236 174.296 45.997 174.159 46.0882C174.159 45.4046 174.159 44.7211 174.159 44.0376C174.022 43.992 174.068 44.4933 173.977 44.9034C173.931 45.1312 174.022 45.4502 173.931 45.678C173.84 45.997 173.84 46.4527 173.794 46.7717C173.749 46.9539 173.567 46.9995 173.521 46.7717C173.521 46.5438 173.521 46.2704 173.521 45.997C173.384 45.9059 173.293 45.678 173.248 45.2679C173.248 44.5844 173.248 43.8553 173.248 43.1718C172.929 42.9439 172.929 42.6705 173.02 41.5313C173.156 40.2099 173.156 38.7973 173.202 37.4302C173.156 37.2024 173.065 37.1112 172.974 37.0657C172.883 38.2049 172.564 39.0251 172.564 40.3466C172.701 40.5288 172.792 40.7111 172.746 40.939C172.701 41.1668 172.564 41.3035 172.61 41.668C172.61 41.9415 172.473 42.1237 172.291 42.2149C172.2 41.7136 172.336 40.0276 172.382 39.3441C172.382 38.0226 172.382 36.6556 172.382 35.3341C172.108 35.243 172.245 35.8353 172.108 36.1543C172.108 36.6556 172.154 36.8378 171.881 36.9745C171.653 34.8784 171.972 33.5114 171.835 29.9571C171.835 29.8659 171.789 29.5925 171.562 29.5925C171.47 32.4633 171.698 35.1974 171.334 37.8403C171.334 38.2505 171.379 38.7061 171.288 39.1618C171.243 39.3441 171.425 39.8909 171.106 39.7542C170.969 39.663 170.878 39.5264 170.969 39.3896C171.06 39.2074 171.151 39.3896 171.106 38.8884C171.106 38.5694 171.197 38.3871 171.015 38.1593C170.878 37.977 170.924 37.7492 171.06 37.4302C171.151 37.1568 171.151 36.7923 171.015 36.5644C170.924 36.4277 171.106 36.4277 171.106 36.1087C171.288 34.4683 170.696 35.3797 170.833 33.7392C170.878 33.3747 170.878 33.0557 170.878 32.6456C170.924 30.7317 170.878 28.6356 170.924 26.6762C170.924 26.4483 170.787 26.3572 170.696 26.5395C170.24 27.223 170.377 25.4914 170.377 25.3091C170.377 22.2561 170.331 19.0207 170.605 18.5651C170.605 16.9702 170.559 15.3297 170.559 13.7349C170.331 13.5526 170.286 14.0994 170.286 14.2361C170.286 14.3272 170.286 14.3728 170.286 14.4184C170.286 14.6007 170.012 14.6462 170.012 14.4639C170.012 14.3728 169.967 14.3272 169.967 14.2361C169.921 13.4159 169.921 12.1855 170.103 12.2311C170.149 10.8641 170.195 9.90714 170.559 9.6793C170.787 9.54259 171.197 9.54261 171.288 9.86158C171.379 10.0439 171.243 10.135 171.516 10.135C171.653 10.135 171.789 10.135 171.881 10.0894C172.017 10.0439 171.972 9.90714 172.2 9.95271C172.564 9.95271 172.154 10.6362 172.838 10.6362C173.475 10.6362 173.384 10.2261 173.43 9.90714C173.475 9.72487 173.886 9.72488 173.977 9.81601C174.205 10.0894 173.886 10.0894 174.432 10.0894C175.708 10.135 175.936 10.8185 175.891 11.4109V13.0969C179.171 8.95021 186.417 8.76794 189.607 13.6437C192.022 17.2892 191.794 23.9421 189.196 27.4508C186.326 31.2785 179.263 32.0988 176.073 27.9976Z" fill="white"/>
</svg>
