<svg width="276" height="45" viewBox="0 0 276 45" fill="none" xmlns="http://www.w3.org/2000/svg">
<path d="M54.1555 41.791C54.6896 42.0661 55.7747 42.3923 57.1339 42.43C59.4766 42.4795 60.7504 41.5823 61.6962 39.4814L74.2486 11.4445C73.7313 11.1683 72.5777 10.8584 71.6482 10.8404C70.03 10.8061 67.8604 11.134 66.4843 14.4454L62.4286 24.0472L54.4554 11.0474C53.9387 10.8921 52.6823 10.6677 51.7685 10.6677C48.9462 10.6677 47.3791 11.7016 45.743 13.4785L37.9962 21.9626L44.2283 31.7888C45.3819 33.582 46.8978 34.496 49.3595 34.496C50.9782 34.496 52.3206 34.1186 52.9401 33.825L45.4336 22.4964L50.7536 16.8405L59.4828 30.5648L54.1645 41.791H54.1555ZM37.6889 31.1852C37.6889 33.2541 36.8796 34.446 32.8509 34.446C32.3173 34.446 31.8534 34.4094 31.4052 34.3402V6.92657C31.4052 4.84028 32.1106 2.66681 36.1736 2.66681C36.6909 2.66681 37.2065 2.71968 37.6889 2.82206V31.1852ZM29.3793 27.0481C29.3793 30.9096 26.8653 33.7198 21.7515 34.2727C18.0502 34.6704 12.696 34.2035 10.1483 33.9105C10.0618 33.4959 9.99328 32.9801 9.99328 32.565C9.99328 29.2019 11.8007 28.4279 13.5047 28.4279C15.2784 28.4279 18.0682 28.7372 20.1345 28.7372C22.4232 28.7372 23.1118 27.9604 23.1118 27.2208C23.1118 26.2538 22.2002 25.8595 20.4265 25.5136L15.5711 24.5827C11.5423 23.8053 9.39062 21.0131 9.39062 18.0471C9.39062 14.4448 11.9383 11.4265 16.9488 10.8753C20.7366 10.4607 25.35 10.9259 27.8819 11.2364C27.9673 11.6678 28.019 12.0807 28.019 12.5296C28.019 15.8921 26.2458 16.6161 24.5412 16.6161C23.2326 16.6161 21.2027 16.3748 18.8769 16.3748C16.5174 16.3748 15.5374 17.0306 15.5374 17.8226C15.5374 18.6675 16.4658 19.0117 17.948 19.2705L22.5788 20.1333C27.3304 21.012 29.3793 23.7192 29.3793 27.0481ZM117.577 28.9144C117.577 24.0882 114.439 21.7409 109.443 20.6345L100.69 18.6439C99.0984 18.2895 97.7718 17.8012 97.7718 16.2083C97.7718 14.4814 99.1428 13.8177 102.811 13.8177C107.145 13.8177 108.161 14.0387 112.096 14.0387C113.909 14.0387 115.764 13.1967 115.764 9.61135C115.764 9.16754 115.722 8.68042 115.633 8.23774C112.98 8.01724 108.25 7.75118 102.416 7.75118C93.6178 7.75118 90.2574 11.5593 90.2574 16.4288C90.2574 20.9889 93.132 23.515 98.2155 24.7092L106.968 26.7449C109.002 27.2298 110.108 28.1168 110.108 29.4015C110.108 31.1284 108.561 31.7933 104.892 31.7933C100.56 31.7933 98.5704 31.4844 94.6349 31.4844C92.8219 31.4844 90.9662 32.3231 90.9662 35.9101C90.9662 36.3528 91.0106 36.8388 91.0982 37.2826C93.7526 37.5464 99.4539 37.8581 105.288 37.8581C114.089 37.8569 117.583 34.0944 117.583 28.9144H117.577ZM189.812 21.1222V13.7294H196.751C199.715 13.7294 202.057 14.1704 202.057 17.2697C202.057 19.8802 200.289 21.1222 196.751 21.1222H189.807H189.812ZM189.766 26.9654H193.434L200.517 35.4213C201.839 37.0593 203.124 37.9014 206.13 37.9014C208.164 37.9014 209.534 37.6364 210.636 37.1032L201.435 26.4355C206.609 25.3291 209.216 21.962 209.216 17.0042C209.216 10.8944 205.501 7.88393 197.988 7.88393L187.246 7.84062C183.755 7.97281 182.603 9.16754 182.603 12.3557V37.4154C183.132 37.5031 183.755 37.5453 184.372 37.5453C188.792 37.5453 189.808 36.264 189.808 33.9611L189.774 26.9648L189.766 26.9654ZM127.962 21.9193V13.7727H135.167C138.75 13.7727 140.519 15.1007 140.519 17.7141C140.519 20.504 138.75 21.9198 135.167 21.9198L127.962 21.9193ZM120.756 37.4159C121.287 37.5042 121.907 37.5464 122.523 37.5464C126.946 37.5464 127.962 36.2656 127.962 33.9622V27.8963H135.477C143.655 27.8963 147.722 24.3554 147.722 17.7141C147.722 11.2938 143.655 7.88449 135.964 7.88449H125.397C121.861 7.88449 120.756 9.25698 120.756 12.4002V37.4159ZM171.641 22.2736C171.641 25.6846 171.067 28.0718 169.918 29.4904C168.813 30.9506 166.999 31.6155 164.524 31.6155C162.004 31.5699 160.194 30.8629 159.042 29.4904C157.895 28.1185 157.319 25.7279 157.319 22.2736C157.319 18.8649 157.938 16.4743 159.086 15.1013C160.236 13.6844 162.048 13.0206 164.523 13.0206C166.998 13.0206 168.768 13.6844 169.917 15.1013C171.063 16.4743 171.641 18.8649 171.641 22.2736ZM164.52 37.5042C169.161 37.5042 172.743 36.3978 175.264 34.14C177.781 31.9249 179.067 27.9402 179.067 22.2742C179.019 16.6971 177.739 12.7996 175.131 10.4967C172.521 8.2383 168.987 7.08857 164.519 7.08857C160.055 7.08857 156.517 8.2383 153.909 10.4967C151.301 12.7996 150.018 16.6965 149.973 22.2742C149.973 27.9402 151.256 31.9254 153.776 34.14C156.298 36.3984 159.882 37.5042 164.521 37.5042H164.52ZM228.228 13.951H234.02C235.922 13.951 237.864 13.0651 237.864 9.29973C237.864 8.85873 237.821 8.32661 237.732 7.88449H215.232C213.331 7.88449 211.384 8.77042 211.384 12.5324C211.384 12.9767 211.429 13.506 211.52 13.951H221.023V37.4154C221.554 37.5031 222.172 37.5453 222.792 37.5453C227.209 37.5453 228.228 36.264 228.228 33.9611V13.951ZM266.112 28.9144C266.112 24.0882 262.969 21.7409 257.977 20.6345L249.223 18.6439C247.631 18.2895 246.305 17.8012 246.305 16.2083C246.305 14.4814 247.675 13.8177 251.344 13.8177C255.678 13.8177 256.695 14.0387 260.628 14.0387C262.442 14.0387 264.298 13.1967 264.298 9.61135C264.298 9.16754 264.258 8.68042 264.168 8.23774C261.514 8.01724 256.784 7.75118 250.947 7.75118C242.152 7.75118 238.79 11.5593 238.79 16.4288C238.79 20.9889 241.664 23.515 246.749 24.7092L255.501 26.7449C257.536 27.2298 258.641 28.1168 258.641 29.4015C258.641 31.1284 257.092 31.7933 253.425 31.7933C249.093 31.7933 247.105 31.4844 243.166 31.4844C241.353 31.4844 239.498 32.3231 239.498 35.9101C239.498 36.3528 239.542 36.8388 239.631 37.2826C242.282 37.5464 247.986 37.8581 253.822 37.8581C262.623 37.8569 266.117 34.0944 266.117 28.9144H266.112Z" fill="white"/>
</svg>
