<svg width="321" height="50" viewBox="0 0 321 50" fill="none" xmlns="http://www.w3.org/2000/svg">
<path fill-rule="evenodd" clip-rule="evenodd" d="M255.801 49.7958V36.6768H256.803L259.011 36.2342L260.576 35.6714L262.06 34.8307L263.383 33.8681L264.586 32.6653L265.628 31.2978L266.633 29.4139L267.153 27.8491L267.515 26.2036L267.554 24.8001L267.474 23.1547L267.112 21.5092L266.511 19.9839L265.706 18.4997L264.704 17.1768L262.898 15.5314L261.494 14.6478L259.969 13.9254L258.363 13.4844L256.678 13.2425H255.796V0.00171485L257.321 0.0411827L259.849 0.322576L262.295 0.844179L264.665 1.60771L266.911 2.57026L269.08 3.73358L271.207 5.21774L273.292 7.02276L275.099 8.9496L276.583 10.9159L277.866 13.0023L278.872 15.1282L279.551 17.1339L279.752 18.0159V0.923101H291.829L307.879 24.6388L307.839 0.802996L321.003 0.923101V49.233H309.123L292.792 25.6409V49.233H279.752V32.1025L279.429 33.0239L278.589 35.112L277.463 37.2774L276.14 39.3243L274.615 41.2512L272.93 43.0167L271.046 44.6227L269.038 46.0262L266.911 47.229L264.625 48.231L262.059 49.0357L259.528 49.5556L257.122 49.7975L255.801 49.7958ZM255.801 0.00171485V13.2425H254.996L253.311 13.4844L251.709 13.9649L250.18 14.6872L248.777 15.5709L247.493 16.6947L246.371 17.9386L245.45 19.3834L244.767 20.8675L244.285 22.4735L244.003 24.1584V25.8039L244.245 27.4888L244.688 29.0947L245.371 30.6596L245.69 31.2601L245.932 31.5826L246.414 32.2655L247.577 33.5095L248.861 34.551L250.305 35.4363L251.87 36.0763L253.476 36.519L255.161 36.7197L255.805 36.6803V49.7993H254.682L252.273 49.5985L249.868 49.1593L247.459 48.3957L245.173 47.4332L243.005 46.311L240.997 44.9436L239.194 43.4182L238.43 42.7782L237.79 42.1348V49.2365H210.144V0.923101H223.103V37.2757H234.22L233.738 36.2736L233.218 35.2322L232.332 33.0239L231.653 30.7385L231.171 28.3295L230.929 25.924V23.5562L231.21 21.0683L231.734 18.5409L232.454 16.0924L233.417 13.8448L234.623 11.7189L235.987 9.71312L237.552 7.82575L239.317 6.10137L241.201 4.57603L243.248 3.25144L245.376 2.16877L247.622 1.24566L249.95 0.602241L252.356 0.200756L254.761 0L255.801 0.00171485ZM118.853 41.3301V30.0933H121.782V21.106L118.853 25.5602V3.69239L120.538 0.923101H134.503V49.233H121.782V41.3318L118.853 41.3301ZM145.055 49.233H157.894V12.6814H167.122V0.923101H136.186V12.6814H145.053L145.055 49.233ZM168.447 49.233H181.529V31.0199H194.77V49.233H207.769V0.923101L194.77 0.883634V19.5017H181.529V0.923101H168.447V49.233ZM21.5899 13.3232L22.7532 13.7247L24.318 14.4865L25.7627 15.4507L27.0478 16.5746L28.1717 17.8597L29.0947 19.3044L29.8171 20.8298L30.2975 22.4358L30.5789 24.0005L30.6596 25.4435L30.5394 26.8882L30.2581 28.4136L29.6953 29.9784L28.9335 31.5037L27.8096 32.9879L26.4061 34.352L24.8413 35.5187L23.1958 36.3594L21.5916 36.9222V49.0392L22.7549 48.8779L25.483 48.195L28.0515 47.2736L30.2169 46.1909L32.3033 44.8234L34.2301 43.2586L35.915 41.6166L37.3992 39.7704L38.8439 37.6017L39.6057 36.3182V49.2365H66.2898V37.6017H52.4862V30.9392H66.2898V19.4623H52.4862V12.3589H66.2898V0.923101H39.6057V14.2857L39.3243 13.5239L38.2417 11.7189L36.7575 9.75258L34.8307 7.70736L32.8249 5.98126L30.7797 4.57774L28.4119 3.37326L25.483 2.33005L22.5936 1.56652L21.5916 1.40695L21.5899 13.3232ZM118.853 3.69239V25.5602L115.923 30.0951L118.853 30.0933V41.3301L111.311 41.3318L110.387 42.2532L108.502 43.9793L106.535 45.5046L104.449 46.788L102.243 47.8707L99.9554 48.7561L97.5876 49.396L95.1392 49.8387L92.6513 50L90.2028 49.9605L87.7955 49.638L85.3077 49.0786L82.7786 48.2344L80.452 47.193L78.4067 45.9095L76.4404 44.4648L74.716 42.8589L73.1101 41.0521L71.6654 39.1253L70.4197 37.0011L69.2976 34.5115L68.3745 31.7834L67.7722 29.256L67.4908 26.7664L67.4119 24.3609L67.6126 21.9124L68.0141 19.5052L68.6559 17.1391L69.579 14.7713L70.7423 12.4841L72.1063 10.4389L73.6317 8.55153L75.3166 6.86661L77.2022 5.34298L79.208 3.97893L81.4557 2.77616L83.9831 1.73296L86.5516 1.01061L88.9589 0.569645L91.4073 0.32772L93.854 0.408358L96.2613 0.648568L98.6685 1.21135L101.076 2.01435L103.363 2.97691L105.489 4.1814L107.455 5.58492L109.26 7.14972L110.785 8.67506L111.388 9.39742L104.727 19.7505L103.885 18.9887L103.042 18.2269L101.156 16.8217L99.0289 15.5382L96.7417 14.495L94.4546 13.8533L92.4471 13.6131L90.5219 13.7332L88.5556 14.2154L86.6305 14.9377L85.0657 15.9397L83.7823 17.0224L82.6979 18.3075L81.7748 19.7522L81.0937 21.3171L80.6115 22.9625L80.4125 24.5994V26.2448L80.6939 27.8903L81.2155 29.4962L81.9378 31.0611L82.9021 32.4646L84.0654 33.7085L85.3505 34.7106L86.7952 35.5513L88.4012 36.1947L90.2062 36.5962L92.013 36.797L93.7374 36.6768L95.3433 36.3543L96.9493 35.7503L98.394 34.9902L99.7581 34.0277L100.841 33.0634L101.323 32.5847L118.853 3.69239ZM12.4807 37.5982V12.6814H16.0513L17.8168 12.7209L19.5017 12.8822L21.1455 13.1636L21.5881 13.3249V1.40695L19.6613 1.12556L16.3721 0.924816H0V49.2348H18.7794L20.5449 49.1575L21.5881 49.0374V36.9205L21.4269 36.96L19.5017 37.3563L17.254 37.5176L16.0101 37.5982H12.4807Z" fill="white"/>
</svg>
