<svg width="229" height="50" viewBox="0 0 229 50" fill="none" xmlns="http://www.w3.org/2000/svg">
<path d="M33.8997 25.4019C34.9789 27.7635 32.9754 29.6406 32.1434 31.6522C31.0654 32.9939 30.2635 34.3889 28.8768 35.5955L28.6607 25.4023C29.8622 24.1952 32.8829 23.3906 33.8997 25.4023V25.4019ZM35.9643 14.8611C36.55 17.462 33.4376 19.0186 31.3423 20.2256L28.8764 21.2986L28.6603 21.1106L28.7528 10.3808C31.4341 11.2928 34.2708 12.6345 35.9647 14.8611H35.9643ZM22.1891 6.35783C20.9251 6.30369 19.9393 6.7866 18.7989 6.9745V7.35071L19.015 30.8477L18.7989 31.036C16.2106 23.8735 16.087 15.8269 16.1184 7.69906C14.9156 7.96739 13.8376 8.55779 12.7274 9.04069C12.5438 14.0028 12.9746 19.179 13.5603 24.0618L12.3273 25.9393C10.1701 21.3794 9.95395 16.1215 9.86176 10.8378C8.69117 11.5086 7.51979 12.4207 6.56418 13.4124L7.08867 19.314C7.76693 24.0077 9.0611 28.5139 12.019 32.2972C12.9134 31.063 13.5293 29.6406 14.4849 28.541C16.211 33.7451 17.9986 39.0288 22.5904 43.1063V42.7579L22.1891 6.35783ZM24.9633 6.2774L25.0547 43.0255C26.3187 42.3559 27.3979 41.3088 28.5685 40.4238C33.2226 36.1055 37.2596 31.5718 37.9991 25.8585C37.9681 24.1148 36.7653 22.4786 35.0401 21.6465C37.0125 20.4124 39.3858 18.884 39.848 16.7386C40.1563 14.887 39.5396 13.117 37.9991 11.8028C34.2704 8.87946 29.8626 6.94822 24.9633 6.2774ZM23.2059 2.95079L13.6517 4.66745L13.2519 6.35783C12.9746 7.80616 10.786 7.21576 9.5546 7.61825C7.79714 7.59197 8.69156 9.4424 8.01329 10.3011C6.44178 10.5691 4.77691 10.5691 3.39056 11.1865L3.60631 15.2895C4.03705 27.9777 10.3863 40.1826 23.8229 46.5133C38.4302 38.7876 44.748 25.0539 43.3617 10.3808C41.9749 10.0591 40.5572 9.9253 39.1387 9.76447C38.0297 9.30862 38.4306 7.99406 37.9069 7.1628L33.9001 6.62537C32.2674 6.70618 32.9754 4.96324 32.3599 4.21161C29.3087 3.78245 26.3191 3.2458 23.2067 2.95079H23.2059ZM35.441 1.60956C35.6869 2.52163 35.6869 3.59494 36.4578 4.21161L41.0809 4.93578C41.3583 5.76782 41.3269 6.89409 42.2201 7.35071L46.9366 8.04741C48.3544 25.0802 41.9749 41.8188 23.8229 50C10.3863 44.528 1.84964 32.4568 0.709259 20.0373C0.184768 16.4703 0.062374 12.7149 0 8.95988L0.216151 8.58368L5.14644 7.77909C5.60974 7.13534 5.39358 6.25034 5.76351 5.55324C7.27265 5.20449 9.03011 5.23078 10.2631 4.48033L10.7864 2.06579L23.5146 -3.8147e-06L35.441 1.60956ZM60.9221 34.0378L56.869 16.9638H60.9978L62.2896 24.0061M60.9221 34.0378L56.869 16.9638H60.9978L62.2896 24.0061M60.9221 34.0378L56.869 16.9638H60.9978L62.2896 24.0061M60.9221 34.0378L56.869 16.9638H60.9978L62.2896 24.0061M60.9221 34.0378L56.869 16.9638H60.9978L62.2896 24.0061C62.6698 26.0327 63.0244 28.2366 63.3029 29.9591H63.3539C63.6325 28.1095 64.0377 26.0578 64.4684 23.9555L65.9124 16.9634H70.0162L71.3841 24.1579C71.7642 26.159 72.0427 27.9828 72.2962 29.8826H72.3468C72.6002 27.9828 72.9799 25.9817 73.3345 23.9551L74.728 16.963H78.6544L74.2466 34.037H70.0668L68.6228 26.6906C68.2936 24.968 68.0151 23.3722 67.8123 21.4217H67.7617C67.4577 23.3471 67.1787 24.9684 66.7735 26.6906L65.1522 34.037H60.9221M87.5962 26.7675L86.5323 23.1451C86.2283 22.1318 85.9243 20.8651 85.6709 19.8518H85.6203C85.3672 20.8651 85.1138 22.1569 84.8349 23.1451L83.8216 26.7675H87.5962ZM83.2646 29.6555L82.0485 34.0378H78.0459L83.2646 16.9638H88.331L93.6253 34.0378H89.4706L88.1537 29.6551H83.2646M99.7293 24.5381H101.249C103.175 24.5381 104.314 23.5754 104.314 22.0808C104.314 20.5104 103.251 19.7247 101.477 19.6996C100.54 19.6996 100.008 19.7753 99.7293 19.8263V24.5381ZM95.9045 17.1917C97.1457 16.9893 98.995 16.837 101.047 16.837C103.58 16.837 105.353 17.2172 106.569 18.1795C107.583 18.9899 108.14 20.1805 108.14 21.7513C108.14 23.9296 106.594 25.4243 105.125 25.9566V26.0327C106.316 26.514 106.975 27.654 107.405 29.2248C107.937 31.1497 108.469 33.3791 108.798 34.0378H104.847C104.568 33.5564 104.163 32.163 103.656 30.0607C103.2 27.9329 102.465 27.35 100.895 27.3249H99.7293V34.0378H95.9045V17.1917ZM110.926 34.0378V16.9638H115.435L118.981 23.2208C119.995 25.0194 121.008 27.1472 121.768 29.0725H121.843C121.59 26.8181 121.515 24.513 121.515 21.9545V16.9638H125.061V34.0378H121.008L117.36 27.4512C116.347 25.6275 115.232 23.4232 114.396 21.4221L114.32 21.4476C114.421 23.7021 114.472 26.1088 114.472 28.8952V34.0378H110.926ZM138.562 26.8181H132.28V30.8712H139.297V34.0378H128.404V16.9638H138.942V20.1303H132.28V23.677H138.562V26.8181ZM145.756 24.5381H147.276C149.201 24.5381 150.341 23.5754 150.341 22.0808C150.341 20.5104 149.277 19.7247 147.504 19.6996C146.567 19.6996 146.035 19.7753 145.756 19.8263V24.5381ZM141.931 17.1917C143.172 16.9893 145.021 16.837 147.074 16.837C149.607 16.837 151.38 17.2172 152.596 18.1795C153.609 18.9899 154.167 20.1805 154.167 21.7513C154.167 23.9296 152.621 25.4243 151.152 25.9566V26.0327C152.342 26.514 153.001 27.654 153.432 29.2248C153.964 31.1497 154.496 33.3791 154.825 34.0378H150.873C150.594 33.5564 150.189 32.163 149.683 30.0607C149.226 27.9329 148.492 27.35 146.921 27.3249H145.756V34.0378H141.931V17.1917ZM165.894 31.3015C166.274 31.3521 166.73 31.3521 167.389 31.3521C169.137 31.3521 170.682 30.6935 170.682 28.8948C170.682 27.1723 169.137 26.4881 167.212 26.4881H165.894V31.3015ZM165.894 23.7272H167.161C169.187 23.7272 170.277 22.8912 170.277 21.6245C170.277 20.3327 169.289 19.6486 167.541 19.6486C166.705 19.6486 166.224 19.6992 165.894 19.7498V23.7272ZM162.069 17.1917C163.082 16.9893 165.134 16.837 167.06 16.837C169.415 16.837 170.86 17.0654 172.101 17.7997C173.291 18.4329 174.152 19.598 174.152 21.1436C174.152 22.6637 173.266 24.0822 171.341 24.7915V24.8421C173.291 25.374 174.735 26.8432 174.735 29.0474C174.735 30.5927 174.026 31.8084 172.962 32.6698C171.721 33.6576 169.644 34.2151 166.249 34.2151C164.349 34.2151 162.93 34.0884 162.069 33.9616V17.1921M181.194 24.5381H182.714C184.639 24.5381 185.779 23.5754 185.779 22.0808C185.779 20.5104 184.715 19.7247 182.942 19.6996C182.005 19.6996 181.473 19.7753 181.194 19.8263V24.5381ZM177.368 17.1917C178.61 16.9893 180.459 16.837 182.511 16.837C185.044 16.837 186.818 17.2172 188.034 18.1795C189.047 18.9899 189.604 20.1805 189.604 21.7513C189.604 23.9296 188.059 25.4243 186.59 25.9566V26.0327C187.78 26.514 188.439 27.654 188.87 29.2248C189.402 31.1497 189.934 33.3791 190.263 34.0378H186.311C186.032 33.5564 185.627 32.163 185.12 30.0607C184.664 27.9329 183.93 27.35 182.359 27.3249H181.194V34.0378H177.368V17.1917ZM195.582 25.5514C195.582 28.8952 197.152 31.2513 199.736 31.2513C202.346 31.2513 203.84 28.7685 203.84 25.4501C203.84 22.3852 202.371 19.7506 199.711 19.7506C197.102 19.7506 195.582 22.233 195.582 25.5518V25.5514ZM207.918 25.3234C207.918 30.9218 204.524 34.3163 199.534 34.3163C194.467 34.3163 191.503 30.4911 191.503 25.6275C191.503 20.5104 194.772 16.6852 199.812 16.6852C205.056 16.6852 207.918 20.6117 207.918 25.3234ZM210.578 30.0603C211.617 30.5923 213.213 31.1242 214.859 31.1242C216.632 31.1242 217.569 30.3899 217.569 29.275C217.569 28.2111 216.759 27.603 214.707 26.8683C211.87 25.8801 210.021 24.3098 210.021 21.8274C210.021 18.9142 212.452 16.6848 216.48 16.6848C218.405 16.6848 219.824 17.0901 220.837 17.5459L219.976 20.6619C219.292 20.3323 218.076 19.8514 216.404 19.8514C214.732 19.8514 213.922 20.6113 213.922 21.4978C213.922 22.5872 214.884 23.0686 217.088 23.9045C220.103 25.019 221.521 26.5898 221.521 28.9961C221.521 31.8586 219.318 34.2904 214.631 34.2904C212.68 34.2904 210.755 33.7835 209.793 33.2516L210.578 30.0599M223.725 31.9857C223.725 30.6174 224.662 29.6296 226.005 29.6296C227.348 29.6296 228.26 30.5919 228.26 31.9853C228.26 33.3277 227.348 34.3159 225.979 34.3159C224.662 34.3159 223.725 33.3281 223.725 31.9853" fill="white"/>
</svg>
