<svg width="231" height="50" viewBox="0 0 231 50" fill="none" xmlns="http://www.w3.org/2000/svg">
<path d="M6.4201 47.6802V20.8819H1.1875V13.9431H6.4201V11.9692C6.4201 5.44049 11.1748 0.749023 18.786 0.749023H22.6587V7.41441H19.1247C15.5908 7.41441 13.9604 9.11493 13.9604 12.2426V13.9431H23.2022V20.8819H13.9604V47.6802H6.4201Z" fill="white"/>
<path d="M24.0859 30.8115C24.0859 20.9503 31.8992 13.2624 41.8865 13.2624C51.8738 13.2624 59.6189 20.9475 59.6189 30.8115C59.6189 40.6758 51.8055 48.3609 41.8865 48.3609C31.9676 48.3609 24.0859 40.6758 24.0859 30.8115ZM52.0786 30.8115C52.0786 24.7586 47.7992 20.3378 41.8865 20.3378C35.9739 20.3378 31.6262 24.7586 31.6262 30.8115C31.6262 36.8647 35.9739 41.2854 41.8865 41.2854C47.7992 41.2854 52.0786 36.8647 52.0786 30.8115Z" fill="white"/>
<path d="M114.75 47.6801V13.9431H121.952V17.4125C124.126 14.8289 127.591 13.2624 131.871 13.2624C140.159 13.2624 146.072 19.1814 146.072 28.4987V47.6801H138.532V29.1795C138.532 23.6705 135.541 20.4062 130.65 20.4062C125.759 20.4062 122.293 23.8072 122.293 29.1795V47.6801H114.75Z" fill="white"/>
<path d="M150.695 30.8116C150.695 20.9502 158.034 13.2624 167.683 13.2624C172.234 13.2624 176.108 15.0312 178.619 18.0905V0.749023H186.163V47.6802H178.961V43.1909C176.514 46.4553 172.44 48.3609 167.683 48.3609C158.034 48.3609 150.695 40.6758 150.695 30.8116ZM178.688 30.8116C178.688 24.7586 174.408 20.3378 168.496 20.3378C162.584 20.3378 158.235 24.7586 158.235 30.8116C158.235 36.8645 162.584 41.217 168.496 41.217C174.408 41.217 178.688 36.8645 178.688 30.8116Z" fill="white"/>
<path d="M192.953 4.35245C192.953 1.83722 194.787 0 197.3 0C199.813 0 201.648 1.83722 201.648 4.35245C201.648 6.8677 199.813 8.63658 197.3 8.63658C194.787 8.63658 192.953 6.79934 192.953 4.35245ZM193.496 47.6802V13.9432H201.04V47.6802H193.496Z" fill="white"/>
<path d="M222.239 47.6803C214.563 47.6803 210.892 44.3477 210.892 37.3405V20.8794H205.32V13.9405H209.194C210.212 13.9405 210.892 13.2598 210.892 12.035V5.509H218.436V13.9433H227.404V20.882H218.436V36.5941C218.436 39.2461 219.727 40.6075 222.783 40.6075H227.404V47.6803H222.239Z" fill="white"/>
<path d="M62.4417 17.7516C62.4253 17.9948 62.3897 18.5608 62.357 19.3592C62.3242 20.1575 62.2969 21.1964 62.2969 22.4048C62.2969 24.5045 62.3816 27.1181 62.6847 29.8931C62.9114 31.9764 63.261 34.1498 63.7962 36.2714C64.1978 37.8626 64.7002 39.4264 65.342 40.9028C66.3033 43.1145 67.5705 45.1376 69.291 46.7178C70.1485 47.5053 71.1208 48.1778 72.2077 48.6862C73.2947 49.1975 74.4909 49.542 75.7854 49.6923L75.8783 49.7006C76.3261 49.7251 76.7712 49.7361 77.2137 49.7361C80.4909 49.7361 83.5497 49.0745 86.3543 47.9208C88.8094 46.9147 91.0762 45.5369 93.1572 43.9101C96.8005 41.0612 99.8837 37.4551 102.484 33.6578C106.378 27.9601 109.183 21.828 111.029 17.1036C112.872 12.3794 113.752 9.06854 113.763 9.02754C113.978 8.21555 113.495 7.37896 112.681 7.16298C111.87 6.94699 111.034 7.4309 110.819 8.24562C110.808 8.28663 110.147 10.7554 108.79 14.4216C106.755 19.9197 103.134 28.1161 97.8518 34.8306C95.2138 38.188 92.166 41.1706 88.7331 43.2922C87.0153 44.353 85.2046 45.2033 83.2874 45.7856C81.373 46.3706 79.352 46.6905 77.2109 46.6905C76.8258 46.6905 76.4353 46.6795 76.0394 46.6576L75.9574 48.1778L76.1322 46.6659C74.9688 46.5292 73.9638 46.1984 73.0626 45.709C72.2733 45.2798 71.5633 44.7248 70.9132 44.055C69.7772 42.8822 68.835 41.3456 68.0812 39.5822C66.9478 36.9358 66.2487 33.7945 65.8473 30.7406C65.4458 27.6869 65.3337 24.7205 65.3337 22.4048C65.3337 21.2456 65.3611 20.2476 65.3912 19.485C65.4212 18.7194 65.4567 18.1917 65.4731 17.9512C65.5278 17.1119 64.8914 16.3873 64.0529 16.3326C63.2146 16.278 62.4909 16.915 62.4363 17.7544L62.4417 17.7516Z" fill="white"/>
<path d="M62.3793 17.6261C62.3711 17.678 62.0625 19.887 62.0625 22.99C62.0625 24.7862 62.1663 26.8831 62.5022 29.0458C62.7535 30.667 63.1359 32.3237 63.7148 33.9205C64.149 35.1178 64.6925 36.2798 65.3834 37.3597C66.4158 38.9783 67.7894 40.4191 69.5673 41.4387C71.3425 42.4612 73.5026 43.0381 76.0043 43.0355C78.5114 43.0355 80.8846 42.5159 83.083 41.6247C86.9392 40.0581 90.2684 37.3761 93.1195 34.2867C97.3935 29.6472 100.619 24.0562 102.804 19.6109C104.986 15.1654 106.119 11.8656 106.135 11.8218C106.422 10.9852 105.977 10.0721 105.141 9.78502C104.306 9.49796 103.394 9.94358 103.107 10.7802C103.099 10.8048 102.454 12.6748 101.214 15.4552C99.3598 19.6245 96.1509 25.8442 91.8223 30.9212C89.662 33.4611 87.2232 35.7084 84.5769 37.2969C83.2524 38.0925 81.8787 38.7239 80.4504 39.1586C79.0248 39.5934 77.5473 39.8284 76.0043 39.8284C74.8081 39.8284 73.7703 39.6698 72.8636 39.3911C72.0689 39.1476 71.3726 38.8142 70.7472 38.4014C69.6548 37.6823 68.7671 36.72 68.0379 35.5608C66.9455 33.8275 66.2328 31.6512 65.8177 29.4175C65.397 27.1867 65.2687 24.9092 65.2687 22.99C65.2687 21.5466 65.3424 20.3025 65.4134 19.4276C65.449 18.9903 65.4844 18.6458 65.5117 18.4134C65.5255 18.2958 65.5364 18.2083 65.5445 18.1509C65.5473 18.1209 65.55 18.1017 65.5528 18.0881V18.0744L65.0148 18.0006L65.5528 18.0772C65.6756 17.1995 65.0666 16.3903 64.19 16.2645C63.3133 16.1387 62.505 16.7511 62.3793 17.6287V17.6261Z" fill="white"/>
<path d="M62.362 17.839V17.8773C62.362 18.1151 62.373 19.3209 62.5751 21.0133C62.728 22.2845 62.9874 23.8292 63.4435 25.4586C63.785 26.678 64.2356 27.9437 64.8418 29.174C65.2953 30.0955 65.8387 30.9976 66.4887 31.8369C67.4663 33.0945 68.698 34.2183 70.2301 35.0192C71.7595 35.8203 73.5755 36.2851 75.6347 36.2823C77.399 36.2823 79.0732 35.9323 80.6216 35.3337C83.3362 34.2839 85.674 32.4958 87.6703 30.4536C90.6634 27.3833 92.9166 23.7144 94.4487 20.8C95.9808 17.8856 96.7809 15.723 96.7973 15.6765C97.1058 14.8454 96.6825 13.924 95.8523 13.6151C95.0221 13.3062 94.1017 13.7299 93.7932 14.561C93.7796 14.6021 93.3235 15.8187 92.4632 17.6094C91.1769 20.2969 88.9703 24.2748 86.0536 27.49C84.598 29.0975 82.9675 30.5109 81.2224 31.5006C79.4718 32.4931 77.6257 33.07 75.632 33.07C74.3757 33.07 73.3216 32.8539 72.4094 32.4931C71.612 32.1759 70.9156 31.744 70.293 31.2136C69.206 30.2895 68.3376 29.0511 67.6685 27.6705C66.6635 25.6008 66.1172 23.2305 65.8468 21.3386C65.5737 19.4467 65.5628 18.0386 65.5628 17.8773V17.8609C65.5682 16.9751 64.8582 16.2534 63.9734 16.2451C63.0886 16.237 62.3675 16.9505 62.3594 17.8364L62.362 17.839Z" fill="white"/>
</svg>
