<svg width="128" height="50" viewBox="0 0 128 50" fill="none" xmlns="http://www.w3.org/2000/svg">
<path fill-rule="evenodd" clip-rule="evenodd" d="M106.555 50V25.9921H92.541V50H106.555ZM106.555 24.0079H92.541V0H106.555V24.0079ZM124.574 26.0098C126.417 28.6323 127.569 31.7859 127.569 34.9928C127.569 43.2488 120.819 50 112.561 50H108.558V25.9921L124.574 26.0098ZM108.558 24.0079L122.785 24.0433C121.51 22.8562 119.773 21.7045 118.089 21.0847C121.563 19.065 123.812 15.3086 123.812 11.2508C123.812 5.1031 118.71 0 112.561 0H108.558V24.0079ZM67.5233 50H53.5437V25.9921H67.5233V50ZM67.5233 24.0079H53.5437V0H67.5233V24.0079ZM69.5253 50V25.9921L85.5424 26.0098C87.3841 28.6323 88.5364 31.7859 88.5364 34.9928C88.5364 43.2488 81.7859 50 73.5299 50H69.5253ZM69.5253 24.0079V0H73.5299C79.6776 0 84.7978 5.10241 84.7978 11.2508C84.7978 15.3086 82.5299 19.0643 79.0564 21.0847C80.74 21.7045 82.4767 22.8562 83.7524 24.0433L69.5253 24.0079ZM24.0256 24.0079H9.10703L17.5056 0.000681493H24.0256V24.0079ZM40.9284 24.0079L32.5128 0H26.0283V24.0072L40.9284 24.0079ZM50.0354 50H37.5266L34.0361 40.0072H26.0276V25.9921H41.6376L50.0354 50ZM0 50H12.5095L16.0178 40.0072H24.0263V25.9921H8.41629L0 50Z" fill="white"/>
</svg>
