<svg width="244" height="50" viewBox="0 0 244 50" fill="none" xmlns="http://www.w3.org/2000/svg">
<path fill-rule="evenodd" clip-rule="evenodd" d="M25.0596 0C11.2204 0 0 11.1924 0 25C0 38.8076 11.2204 50 25.0596 50C38.9001 50 50.1204 38.8076 50.1204 25C50.1204 11.1924 38.9001 0 25.0596 0ZM25.0622 48.667C19.3361 48.667 13.9773 46.7625 9.9845 43.2664C6.09983 39.8625 3.08247 34.4541 2.33757 28.7052C4.10345 39.6378 13.6061 47.9889 25.0622 47.9889C37.7749 47.9889 48.0811 37.7072 48.0811 25.0247C48.0811 19.763 46.1108 14.6105 43.126 10.739C46.1498 13.0658 48.7609 19.6929 48.7609 25.0247C48.7609 38.0814 38.15 48.667 25.0622 48.667ZM22.8861 23.2188L24.9124 2.49052L25.0596 2.48922H25.1117L25.3109 24.3023L28.7984 22.2224L25.2901 2.49181C37.646 2.61524 47.6266 12.6436 47.6266 25C47.6266 28.9703 46.5952 32.6989 44.7877 35.9364L29.1253 22.8629L27.642 23.7021L44.6809 36.1235L44.5506 36.347L25.389 25.3495V29.2288L44.4191 36.5665C40.4745 43.1222 33.2808 47.5108 25.0583 47.5108C16.8449 47.5108 9.65633 43.1313 5.71045 36.586L24.7288 29.1885V25.3105L5.54506 36.308L5.41874 36.0897L22.3977 23.7021L20.9144 22.8629L5.29503 35.8676C3.45282 32.5406 2.48931 28.8008 2.49515 25C2.49515 12.741 12.3182 2.77114 24.54 2.49441L21.4835 22.3796L22.8861 23.2188ZM25.0596 1.34334C11.9705 1.34334 1.36087 11.929 1.36087 24.9857C1.36087 30.2889 3.28953 35.305 6.23136 39.6378C7.2289 41.4995 8.30848 42.6519 9.74879 44.1732C4.10475 39.6755 0.45319 32.7522 0.45319 24.9844C0.45319 11.4275 11.4691 0.43652 25.0596 0.43652C38.6501 0.43652 49.8756 11.9056 49.4719 24.9844C49.1307 12.2239 37.9325 1.34334 25.0596 1.34334ZM135.139 26.6551C135.139 22.2704 133.196 18.7159 128.93 18.7159C124.97 18.7159 122.718 22.2704 122.718 26.6551C122.718 31.0399 124.6 34.5944 128.93 34.5944C133.135 34.5944 134.371 32.5157 135.017 29.1911L133.567 29.1859C133.445 30.4188 132.639 33.1965 129.548 33.2575C126.023 33.329 125.777 28.8157 125.837 26.6564L125.898 25.4222C125.898 24.0659 125.776 20.0553 129.052 20.0553C131.649 20.0553 132.02 23.3877 132.02 25.4222H125.898L125.837 26.6564L135.139 26.6551ZM61.9854 13.2529L61.9229 14.2402H62.8501C63.5299 14.2402 64.3972 14.3013 64.3972 15.1652L64.0886 31.8856C64.0886 32.5027 63.7786 33.1809 62.5415 33.1809H61.6143L61.5518 34.1683H67.7974V33.1809H66.7465C65.9417 33.1809 65.3856 32.9341 65.3856 31.8856L65.6943 15.8447L72.3736 33.1185H73.0534L79.794 15.6589L80.1039 31.8856C80.1039 32.4404 79.5465 33.1809 78.6805 33.1809H77.3821V34.1683H85.2361V33.1809H84.3089C83.6291 33.1809 82.8243 32.8106 82.8243 31.9467L82.5144 15.4121C82.5144 14.8561 83.133 14.2402 83.7515 14.2402H84.9262V13.2529H79.2978L73.4845 28.4298L67.6711 13.2529H61.9854ZM105.489 34.1813V33.3797H104.87C104.314 33.3797 103.325 33.1939 103.325 32.0831V24.0009C103.325 21.4714 104.623 20.5464 105.921 20.5464C106.416 20.5464 106.726 20.7933 106.601 21.7183C106.477 22.6433 107.281 23.2604 107.962 23.1993C108.643 23.1383 109.509 23.0136 109.384 21.287C109.259 19.5604 108.272 18.7575 106.54 18.7575C105.179 18.7575 104.066 19.6214 103.757 20.054C103.398 20.5568 102.952 20.3619 102.891 19.8072C102.83 19.2524 102.582 18.6977 101.964 18.8822C100.781 19.2595 99.5548 19.4874 98.3148 19.5604V20.1775C100.912 20.054 100.665 21.3493 100.665 21.9664V32.0844C100.665 33.1952 99.6757 33.381 99.1183 33.381H98.2523V34.1826L105.489 34.1813ZM119.266 19.6968C118.354 19.0329 117.208 18.6522 115.813 18.6522C111.856 18.6522 109.603 22.2068 109.603 26.5928C109.603 30.9775 111.483 34.5112 115.813 34.532C119.647 34.5515 120.576 32.3923 121.22 29.0664L119.771 29.0599C119.647 30.2928 119.215 33.1315 116.432 33.1939C112.908 33.2731 112.661 28.7507 112.722 26.5928C112.722 25.2351 112.908 19.8046 115.876 19.8046C118.41 19.8046 119.957 21.5949 119.957 23.6307H120.761V18.4483H120.081L119.266 19.6968ZM208.733 33.2562C205.208 33.3277 204.962 28.8144 205.021 26.6551H214.324C214.324 22.2704 212.383 18.7159 208.114 18.7159C204.157 18.7159 201.905 22.2704 201.905 26.6551C201.905 31.0399 203.784 34.5944 208.114 34.5944C212.319 34.5944 213.558 32.5157 214.201 29.1911L212.754 29.1846C212.629 30.4188 211.826 33.1965 208.733 33.2562ZM208.239 20.054C210.836 20.054 211.207 23.3864 211.207 25.4209H205.085C205.085 24.0646 204.962 20.054 208.239 20.054ZM157.891 33.2562C154.366 33.3277 154.12 28.8144 154.18 26.6551H163.482C163.482 22.2704 161.539 18.7159 157.272 18.7159C153.315 18.7159 151.061 22.2704 151.061 26.6551C151.061 31.0399 152.942 34.5944 157.272 34.5944C161.477 34.5944 162.713 32.5157 163.359 29.1911L161.91 29.1846C161.787 30.4188 160.984 33.1965 157.891 33.2562ZM157.395 20.054C159.994 20.054 160.363 23.3864 160.363 25.4209H154.241C154.241 24.0646 154.12 20.054 157.395 20.054ZM92.2554 33.2562C88.7314 33.3277 88.484 28.8144 88.5452 26.6551H97.8473C97.8473 22.2704 95.9043 18.7159 91.6381 18.7159C87.6792 18.7159 85.4276 22.2704 85.4276 26.6551C85.4276 31.0399 87.3081 34.5944 91.6381 34.5944C95.8431 34.5944 97.0803 32.5157 97.7249 29.1911L96.2755 29.1859C96.1518 30.4188 95.3483 33.1965 92.2554 33.2562ZM91.7605 20.054C94.3585 20.054 94.7284 23.3864 94.7284 25.4209H88.6064C88.6064 24.0646 88.484 20.054 91.7605 20.054ZM148.607 30.9593V13.7453C148.607 13.0359 148.239 12.4487 147.617 12.6345C146.435 13.0122 145.209 13.24 143.97 13.3126V13.9297C145.763 13.8063 145.949 14.3624 145.949 14.9795V20.2853C145.146 19.5448 144.217 18.8042 142.549 18.8042C140.446 18.8042 136.549 20.4698 136.549 26.3304C136.549 34.0435 141.064 34.5359 142.425 34.5359C143.786 34.5359 145.579 33.4264 145.951 32.8392C145.98 32.7158 146.167 32.5612 146.228 32.8392C146.292 33.3953 146.693 34.2267 147.311 34.0422C148.494 33.6651 149.72 33.4373 150.959 33.3641V32.747C148.361 32.8717 148.607 31.5751 148.607 30.9593ZM145.949 29.108C145.888 32.5001 144.095 33.5499 142.61 33.5499C139.271 33.4888 139.517 28.4298 139.517 26.2693C139.517 24.1088 139.642 19.8527 142.671 20.2229C145.703 20.5932 145.951 23.8009 145.951 25.7132L145.949 29.108ZM184.911 25.3495V23.9308H176.749V25.3495H184.911ZM165.504 28.9365V34.18H166.183L166.801 32.8223C167.42 33.3784 168.719 34.3034 170.388 34.3034C172.058 34.3034 174.409 33.3784 175.338 31.6518C176.263 29.9239 175.831 27.0852 173.728 26.2212C171.887 25.4651 170.272 24.5596 169.028 23.9386C168.641 23.7547 168.324 23.4512 168.124 23.0733C167.923 22.6953 167.85 22.2629 167.916 21.8404C168.102 20.853 168.967 19.8046 170.945 19.7422C172.924 19.6812 173.913 21.3467 174.163 23.2591H174.841V18.3248H174.223L173.542 19.4967C172.245 18.6327 171.687 18.5093 170.513 18.5093C169.338 18.5093 167.359 19.1264 166.245 20.8543C165.133 22.5822 165.442 25.2949 168.102 26.407C170.76 27.5165 171.999 28.196 172.74 28.5662C173.482 28.9365 173.914 30.4175 173.421 31.2815C172.924 32.1441 171.999 33.1328 170.514 33.1328C169.029 33.1328 166.681 32.0831 166.124 28.9378L165.504 28.9365ZM196.535 22.8772C198.02 22.5069 199.505 19.854 199.505 18.065C199.505 16.276 198.824 13.2529 194.494 13.2529H185.218V14.0545C186.146 14.0545 187.753 14.2402 187.753 15.7824V31.0217C187.753 31.8856 187.692 33.3043 185.218 33.3043V34.1683H192.826C195.113 34.1683 200.37 33.9825 200.495 27.9374C200.495 25.9003 199.505 23.4943 196.535 22.8772ZM190.413 14.2402H193.505C195.795 14.2402 196.721 15.9045 196.721 18.065C196.721 20.7179 195.917 22.7537 193.505 22.7537H190.413V14.2402ZM193.567 33.1809H190.413V23.7411H193.938C195.98 23.7411 197.773 25.1598 197.773 28.244C197.773 31.3296 195.916 33.1809 193.567 33.1809ZM225.752 22.9525V32.0831C225.752 33.1939 224.763 33.3797 224.205 33.3797H223.834V34.1813H230.575V33.3797H229.956C229.399 33.3797 228.409 33.1939 228.409 32.0831V23.0149C228.348 18.8809 224.638 18.7575 223.339 18.7575C221.978 18.7575 220.492 19.6214 220.185 20.054C219.824 20.5568 219.379 20.3619 219.318 19.8072C219.257 19.2524 219.01 18.6977 218.389 18.8822C217.207 19.2595 215.981 19.4873 214.742 19.5604V20.1775C217.338 20.054 217.092 21.3493 217.092 21.9664V32.0844C217.092 33.1952 216.102 33.381 215.545 33.381H214.68V34.1826H221.914V33.381H221.296C220.739 33.381 219.749 33.1952 219.749 32.0844V24.0022C219.749 22.6459 220.245 20.4854 222.781 20.2996C225.319 20.1151 225.752 21.7806 225.752 22.9525ZM232.008 23.2617L233.122 19.0667H243.636L234.606 33.3186H239.429C240.542 33.3186 241.408 32.886 242.583 30.0473H243.079L242.089 34.1813H231.327L240.296 19.9306H236.275C235.285 19.9306 234.174 19.9306 232.627 23.2617H232.008Z" fill="white"/>
</svg>
