<svg width="176" height="50" viewBox="0 0 176 50" fill="none" xmlns="http://www.w3.org/2000/svg">
<path fill-rule="evenodd" clip-rule="evenodd" d="M137.264 25.8151L129.282 5.50547C129.282 5.50547 128.266 2.50561 124.783 2.52845C121.304 2.50561 120.289 5.50547 120.289 5.50547L112.301 25.8151H117.696L119.807 19.8198C121.37 20.1986 123.064 20.4156 124.834 20.4156C126.619 20.4156 128.328 20.1986 129.902 19.8105L132.018 25.8151H137.264ZM123.905 8.17838C123.905 8.17838 124.255 7.08234 124.835 7.05879H124.88C125.463 7.08234 125.81 8.17838 125.81 8.17838L128.397 15.5346C127.274 15.82 126.081 15.9706 124.835 15.9706C123.609 15.9706 122.426 15.8243 121.314 15.5446L123.905 8.17838Z" fill="white"/>
<mask id="mask0_667_14315" style="mask-type:luminance" maskUnits="userSpaceOnUse" x="150" y="2" width="26" height="24">
<path fill-rule="evenodd" clip-rule="evenodd" d="M150.223 2.52832H175.182V25.8151H150.223V2.52832Z" fill="white"/>
</mask>
<g mask="url(#mask0_667_14315)">
<path fill-rule="evenodd" clip-rule="evenodd" d="M175.182 25.8151L167.205 5.50547C167.205 5.50547 166.188 2.50561 162.706 2.52845C159.223 2.50561 158.206 5.50547 158.206 5.50547L150.223 25.8151H155.611L157.728 19.8198C159.295 20.1986 160.985 20.4156 162.756 20.4156C164.543 20.4156 166.247 20.1986 167.824 19.8105L169.938 25.8151H175.182ZM161.825 8.17838C161.825 8.17838 162.168 7.08234 162.755 7.05879H162.796C163.381 7.08234 163.727 8.17838 163.727 8.17838L166.311 15.5346C165.188 15.82 163.997 15.9706 162.755 15.9706C161.529 15.9706 160.34 15.8243 159.227 15.5446L161.825 8.17838Z" fill="white"/>
</g>
<mask id="mask1_667_14315" style="mask-type:luminance" maskUnits="userSpaceOnUse" x="1" y="2" width="175" height="46">
<path fill-rule="evenodd" clip-rule="evenodd" d="M1.13281 47.6441H175.178V2.52277H1.13281V47.6441Z" fill="white"/>
</mask>
<g mask="url(#mask1_667_14315)">
<path fill-rule="evenodd" clip-rule="evenodd" d="M141.211 25.8159H146.288V2.53058H141.211V25.8159Z" fill="white"/>
<path fill-rule="evenodd" clip-rule="evenodd" d="M80.7032 2.52197L71.138 25.8101H80.7538L85.9831 11.959L90.9137 25.8101H100.73L90.9642 2.52197H80.7032ZM49.9142 2.52197V9.28806L56.8726 9.38226V25.8101H66.887V9.28806H73.8453V2.52197H49.9142ZM32.0643 2.52197L22.5961 25.8101H32.2112L37.4383 11.959L42.3246 25.8101H52.1408L42.371 2.52197H32.0643ZM1.13281 2.52197V9.28806L8.23948 9.38226V25.8101H18.1533V9.28806H25.1074V2.52197H1.13281Z" fill="white"/>
<path fill-rule="evenodd" clip-rule="evenodd" d="M71.1367 38.1041H73.027V45.5344H77.5475V47.1635H71.1367V38.1041Z" fill="white"/>
<path fill-rule="evenodd" clip-rule="evenodd" d="M78.6641 47.1629H80.5436V38.1035H78.6641V47.1629Z" fill="white"/>
<path fill-rule="evenodd" clip-rule="evenodd" d="M82.3164 38.1162H88.7714V39.7075H84.1967V41.7918H88.2066V43.3652H84.1967V47.1629H82.3164V38.1162Z" fill="white"/>
<path fill-rule="evenodd" clip-rule="evenodd" d="M96.6911 39.7076H91.8996V41.6321H96.2975V43.2049H91.8996V45.534H96.9122V47.1631H90.0508V38.1035H96.6911V39.7076Z" fill="white"/>
<path fill-rule="evenodd" clip-rule="evenodd" d="M101.727 47.1629H103.606V38.1035H101.727V47.1629Z" fill="white"/>
<path fill-rule="evenodd" clip-rule="evenodd" d="M105.344 38.1041H107.326L110.919 44.4212V38.1041H112.682V47.1635H110.791L107.106 40.7357V47.1635H105.344V38.1041Z" fill="white"/>
<path fill-rule="evenodd" clip-rule="evenodd" d="M115.821 44.3668C115.88 44.7814 115.995 45.0897 116.165 45.2951C116.48 45.6683 117.017 45.8539 117.777 45.8539C118.234 45.8539 118.602 45.8047 118.888 45.7068C119.427 45.5185 119.698 45.1681 119.698 44.6558C119.698 44.3568 119.564 44.1249 119.301 43.9615C119.036 43.8016 118.617 43.6604 118.043 43.5369L117.062 43.3222C116.1 43.1094 115.438 42.8775 115.078 42.6279C114.469 42.2097 114.163 41.556 114.163 40.6676C114.163 39.8556 114.462 39.1813 115.059 38.6447C115.656 38.1081 116.532 37.8398 117.688 37.8398C118.655 37.8398 119.477 38.0931 120.16 38.599C120.842 39.1049 121.199 39.8392 121.232 40.8025H119.414C119.38 40.2573 119.137 39.8706 118.684 39.6401C118.382 39.4896 118.006 39.4132 117.557 39.4132C117.056 39.4132 116.658 39.5116 116.36 39.7079C116.062 39.9048 115.914 40.1796 115.914 40.5321C115.914 40.856 116.061 41.0965 116.354 41.2571C116.543 41.3634 116.943 41.4882 117.557 41.6324L119.146 42.0071C119.842 42.1705 120.364 42.3902 120.71 42.6649C121.25 43.0909 121.52 43.7074 121.52 44.5144C121.52 45.3423 121.201 46.0294 120.561 46.5767C119.922 47.124 119.017 47.3973 117.852 47.3973C116.66 47.3973 115.722 47.1276 115.039 46.5896C114.356 46.0501 114.016 45.3094 114.016 44.3668H115.821Z" fill="white"/>
<path fill-rule="evenodd" clip-rule="evenodd" d="M122.848 38.1041H124.77V43.6685C124.77 44.2907 124.844 44.7445 124.99 45.0313C125.219 45.5394 125.716 45.7927 126.485 45.7927C127.248 45.7927 127.742 45.5394 127.971 45.0313C128.119 44.7445 128.191 44.2907 128.191 43.6685V38.1041H130.112V43.672C130.112 44.6353 129.964 45.3846 129.666 45.9219C129.109 46.9052 128.049 47.3976 126.485 47.3976C124.918 47.3976 123.856 46.9052 123.296 45.9219C122.998 45.3846 122.848 44.6353 122.848 43.672V38.1041Z" fill="white"/>
<path fill-rule="evenodd" clip-rule="evenodd" d="M133.821 39.6776V42.1109H135.857C136.261 42.1109 136.566 42.0624 136.767 41.9639C137.125 41.7919 137.305 41.4516 137.305 40.9428C137.305 40.3941 137.131 40.0251 136.784 39.8367C136.591 39.7311 136.3 39.6776 135.911 39.6776H133.821ZM137.731 38.3375C138.065 38.4809 138.347 38.6915 138.578 38.9704C138.77 39.2002 138.921 39.4543 139.034 39.7326C139.146 40.0109 139.201 40.3291 139.201 40.6852C139.201 41.1154 139.093 41.5386 138.876 41.954C138.66 42.3699 138.301 42.6646 137.801 42.8359C138.219 43.005 138.515 43.2433 138.689 43.5523C138.862 43.8612 138.948 44.3336 138.948 44.9687V45.5774C138.948 45.9914 138.966 46.2725 139 46.4194C139.05 46.6535 139.166 46.8254 139.35 46.9361V47.1629H137.259C137.203 46.9625 137.163 46.8004 137.137 46.6777C137.089 46.4237 137.062 46.1633 137.058 45.8972L137.045 45.0551C137.038 44.4771 136.939 44.0925 136.749 43.8999C136.554 43.7072 136.196 43.6108 135.67 43.6108H133.821V47.1629H131.973V38.1035H136.302C136.922 38.1164 137.398 38.1941 137.731 38.3375Z" fill="white"/>
<path fill-rule="evenodd" clip-rule="evenodd" d="M143.476 43.7397H145.794L144.651 40.1747L143.476 43.7397ZM143.602 38.1041H145.742L148.945 47.1635H146.893L146.296 45.3011H142.963L142.349 47.1635H140.371L143.602 38.1041Z" fill="white"/>
<path fill-rule="evenodd" clip-rule="evenodd" d="M150.066 38.1041H152.049L155.642 44.4212V38.1041H157.405V47.1635H155.514L151.829 40.7357V47.1635H150.066V38.1041Z" fill="white"/>
<path fill-rule="evenodd" clip-rule="evenodd" d="M160.047 39.0502C160.776 38.3052 161.704 37.932 162.829 37.932C164.337 37.932 165.438 38.4314 166.135 39.4312C166.521 39.9928 166.726 40.5566 166.756 41.1217H164.864C164.742 40.6871 164.588 40.3596 164.399 40.1384C164.063 39.7452 163.565 39.5483 162.902 39.5483C162.228 39.5483 161.697 39.8258 161.308 40.381C160.919 40.9361 160.724 41.7218 160.724 42.7386C160.724 43.7541 160.928 44.5154 161.339 45.0213C161.75 45.5272 162.272 45.7798 162.905 45.7798C163.554 45.7798 164.047 45.5629 164.389 45.1291C164.577 44.8958 164.732 44.5446 164.857 44.078H166.736C166.574 45.0655 166.161 45.8684 165.494 46.487C164.828 47.1064 163.975 47.4154 162.932 47.4154C161.645 47.4154 160.632 46.9972 159.895 46.1623C159.159 45.3225 158.789 44.1701 158.789 42.7072C158.789 41.126 159.207 39.9071 160.047 39.0502Z" fill="white"/>
<path fill-rule="evenodd" clip-rule="evenodd" d="M174.957 39.7076H170.166V41.632H174.563V43.2048H170.166V45.5339H175.178V47.1629H168.316V38.1035H174.957V39.7076Z" fill="white"/>
<path fill-rule="evenodd" clip-rule="evenodd" d="M51.8516 47.3515H66.2973V42.6398H51.8516V47.3515Z" fill="white"/>
<path fill-rule="evenodd" clip-rule="evenodd" d="M37.4062 47.3518H51.8513V42.6401H37.4062V47.3518Z" fill="white"/>
<path fill-rule="evenodd" clip-rule="evenodd" d="M51.4688 47.6442H52.2432V42.341H51.4688V47.6442Z" fill="#FEFEFE"/>
</g>
</svg>
