<svg width="210" height="50" viewBox="0 0 210 50" fill="none" xmlns="http://www.w3.org/2000/svg">
<path d="M95.0819 12.45H100.053V3.58908H103.586V0H91.5481V3.58908H95.0819V12.45ZM107.25 12.45L109.782 5.00118L112.315 12.45H117.18L112.409 0H107.156L102.385 12.45H107.25ZM119.512 12.45H124.495V3.58908H128.017V0H115.99V3.58908H119.512V12.45ZM131.692 12.45L134.224 5.00118L136.757 12.45H141.622L136.851 0H131.586L126.827 12.45H131.692ZM179.421 21.3462C180.081 22.8171 180.823 24.2528 181.659 25.6413L184.91 31.1132H187.266V18.675H185.158V23.0172C185.158 24.9235 185.205 26.5239 185.358 28.1713L185.311 28.1831C184.698 26.7475 183.991 25.3471 183.19 24.0174L179.975 18.675H177.372V31.125H179.48V26.6651C179.48 24.6176 179.445 22.9819 179.362 21.358L179.421 21.3462ZM168.125 27.6065H172.083L173.213 31.125H175.652L171.6 18.675H168.702L164.709 31.125H167.065L168.125 27.6065ZM169.456 22.8054C169.68 22.064 169.868 21.205 170.045 20.4636H170.08C170.269 21.1815 170.469 22.0287 170.716 22.8054L171.694 25.8767H168.49L169.456 22.8054ZM131.032 29.4304C129.984 29.4187 128.947 29.148 128.017 28.642L127.51 30.5248C128.193 30.9367 129.56 31.3132 130.879 31.3132C134.095 31.3132 135.602 29.5717 135.602 27.5712C135.602 25.7825 134.566 24.6999 132.398 23.8762C130.738 23.2408 130.019 22.7936 130.019 21.8404C130.019 21.1109 130.632 20.346 132.08 20.346C132.94 20.3342 133.8 20.546 134.566 20.9343L135.108 19.0986C134.46 18.7691 133.47 18.4867 132.116 18.4867C129.418 18.4867 127.71 20.0282 127.71 22.064C127.71 23.8527 129.03 24.947 131.091 25.6766C132.669 26.2532 133.294 26.8063 133.294 27.7359C133.294 28.7479 132.481 29.4304 131.032 29.4304ZM98.3212 20.3577C99.1575 20.346 99.9821 20.5107 100.748 20.8402L101.242 19.028C100.783 18.7809 99.7229 18.4749 98.2269 18.4749C94.4223 18.4749 91.5599 20.9461 91.5599 25.0412C91.5599 28.8303 93.9629 31.3132 97.9207 31.3132C99.4284 31.3132 100.618 31.0191 101.148 30.7484L100.771 28.9598C100.171 29.2304 99.2164 29.4069 98.2858 29.4069C95.5531 29.4069 93.9511 27.6653 93.9511 24.9235C93.9511 21.9346 95.7769 20.3577 98.3212 20.3577ZM161.941 31.125V20.5813H165.533V18.675H156.098V20.5813H159.656V31.125H161.941ZM207.432 18.675L205.936 21.864C205.512 22.7701 205.171 23.535 204.852 24.3351H204.817C204.476 23.4879 204.158 22.7818 203.733 21.864L202.249 18.675H199.646L203.592 25.9473V31.125H205.865V25.8767L210 18.675H207.432ZM107.839 18.4749C104.317 18.4749 101.902 21.1697 101.902 24.9941C101.902 28.642 104.128 31.325 107.65 31.325H107.674C111.09 31.325 113.622 28.9362 113.622 24.7705C113.611 21.2168 111.467 18.4749 107.839 18.4749ZM107.745 29.5011H107.721C105.542 29.5011 104.27 27.4065 104.281 24.9353C104.293 22.4641 105.471 20.2871 107.745 20.2871C110.018 20.2871 111.184 22.5112 111.184 24.8529C111.196 27.4653 109.947 29.5011 107.745 29.5011ZM195.995 20.3577C196.831 20.346 197.655 20.5107 198.421 20.8402L198.916 19.028C198.456 18.7809 197.396 18.4749 195.9 18.4749C192.096 18.4749 189.233 20.9461 189.233 25.0412C189.233 28.8303 191.636 31.3132 195.594 31.3132C197.102 31.3132 198.291 31.0191 198.822 30.7484L198.445 28.9598C197.844 29.2304 196.89 29.4069 195.959 29.4069C193.226 29.4069 191.624 27.6653 191.624 24.9235C191.624 21.9346 193.45 20.3577 195.995 20.3577ZM152.246 18.675H149.961V31.125H157.37V29.2069H152.246V18.675ZM147.37 25.7825V18.675H145.096V25.9355C145.096 28.3714 144.107 29.5011 142.47 29.5011C140.927 29.5011 139.914 28.3714 139.914 25.9355V18.675H137.64V25.7943C137.64 29.7129 139.513 31.325 142.387 31.325C145.403 31.325 147.37 29.6187 147.37 25.7825ZM125.449 18.675H123.34V23.0172C123.34 24.9235 123.387 26.5239 123.54 28.1713L123.493 28.1831C122.881 26.7475 122.174 25.3471 121.373 24.0174L118.157 18.675H115.554V31.125H117.663V26.6651C117.663 24.6176 117.627 22.9819 117.545 21.358L117.604 21.3462C118.263 22.8171 119.005 24.2528 119.842 25.6413L123.093 31.1132H125.449V18.675ZM132.917 37.3382H135.19V49.7882H132.917V37.3382ZM117.262 43.9515V43.9044C118.428 43.4926 119.512 42.41 119.512 40.8214C119.512 39.7623 119.123 38.9033 118.452 38.3384C117.616 37.6442 116.178 37.3382 114.635 37.3382C113.493 37.3264 112.338 37.4088 111.219 37.6088V49.7882H113.457V44.7164H114.6C115.884 44.7517 116.473 45.2695 116.826 46.8816C117.168 48.4114 117.462 49.4352 117.651 49.8H119.971C119.724 49.3175 119.382 47.9054 118.994 46.3521C118.676 45.14 118.157 44.2928 117.262 43.9515ZM114.789 43.0572H113.457V39.1504C113.917 39.0563 114.388 39.021 114.859 39.0327C116.32 39.0327 117.262 39.6682 117.262 41.0096C117.262 42.2452 116.32 43.0572 114.789 43.0572ZM127.333 43.0337C126.85 44.5399 126.391 46.0697 126.061 47.5288H126.026C125.708 46.0226 125.272 44.5634 124.801 42.9984L123.105 37.3382H120.619L124.648 49.7882H127.263L131.574 37.3382H129.147L127.333 43.0337ZM150.939 44.2692H155.639V42.41H150.939V39.2092H155.91V37.3382H148.666V49.7882H156.193V47.9172H150.939V44.2692ZM143.919 39.0209C144.755 39.0092 145.579 39.1739 146.345 39.5034L146.84 37.6912C146.38 37.4441 145.32 37.1381 143.824 37.1381C140.02 37.1381 137.157 39.6093 137.157 43.7044C137.157 47.4935 139.56 49.9765 143.518 49.9765C145.026 49.9765 146.215 49.6823 146.746 49.4116L146.369 47.623C145.768 47.8936 144.814 48.0701 143.883 48.0701C141.15 48.0701 139.548 46.3285 139.548 43.5867C139.537 40.6096 141.362 39.0209 143.919 39.0209ZM96.4365 42.5394C94.7756 41.904 94.0571 41.4568 94.0571 40.5037C94.0571 39.7741 94.6696 39.0092 96.1185 39.0092C96.9783 38.9974 97.8382 39.2092 98.6039 39.5975L99.1457 37.7618C98.4979 37.4323 97.5084 37.1499 96.1538 37.1499C93.4564 37.1499 91.7484 38.6915 91.7484 40.7272C91.7484 42.5159 93.0676 43.6103 95.129 44.3398C96.7074 44.9165 97.3317 45.4695 97.3317 46.3992C97.3317 47.4229 96.519 48.0937 95.0701 48.0937C94.0218 48.0819 92.9852 47.8112 92.0664 47.3052L91.5599 49.188C92.2431 49.5999 93.6095 49.9765 94.9288 49.9765C98.1445 49.9765 99.6522 48.2349 99.6522 46.2344C99.6404 44.4575 98.6039 43.3631 96.4365 42.5394ZM103.963 44.2692H108.663V42.41H103.963V39.2092H108.946V37.3382H101.69V49.7882H109.217V47.9172H103.963V44.2692ZM162.53 42.5394C160.869 41.904 160.15 41.4568 160.15 40.5037C160.15 39.7741 160.763 39.0092 162.212 39.0092C163.072 38.9974 163.931 39.2092 164.697 39.5975L165.239 37.7618C164.591 37.4323 163.602 37.1499 162.247 37.1499C159.55 37.1499 157.842 38.6915 157.842 40.7272C157.842 42.5159 159.161 43.6103 161.222 44.3398C162.801 44.9165 163.425 45.4695 163.425 46.3992C163.425 47.4229 162.612 48.0937 161.163 48.0937C160.103 48.0819 159.078 47.8112 158.148 47.3052L157.641 49.188C158.325 49.5999 159.691 49.9765 161.01 49.9765C164.226 49.9765 165.734 48.2349 165.734 46.2344C165.734 44.4575 164.685 43.3631 162.53 42.5394ZM73.6673 28.8891L67.7423 24.7705C67.6716 24.7235 67.601 24.6646 67.5303 24.6176C65.3629 23.0172 64.4206 21.5345 64.4206 19.7929C64.4206 17.4865 66.3053 16.0391 68.9791 16.0391C72.3716 16.0391 73.9735 17.6277 75.9878 17.6277C77.578 17.6277 78.6617 16.5451 78.6617 14.9565C78.6617 13.8033 78.0845 12.8619 76.5649 12.144C74.1738 10.9908 71.5706 10.5554 68.7553 10.5554C65.7987 10.5554 63.1955 11.4262 61.3109 12.8619C60.9339 13.156 60.557 13.4738 60.2154 13.8033L60.1683 13.8503C58.0245 16.1567 56.2222 19.5458 54.7969 24.2763L53.1361 29.7599C50.1677 39.4328 45.4796 44.0574 38.1647 44.0574C30.143 44.0574 25.078 38.4914 25.078 30.266C25.078 22.1817 29.9663 16.5921 37.0574 16.4039H37.4462C39.8491 16.3921 42.2167 16.9099 44.3841 17.9219C45.3265 18.3573 46.1157 18.4985 46.846 18.4985C48.5775 18.4985 49.7319 17.3335 49.7319 15.6037C49.7319 14.5211 49.084 13.4385 47.5645 12.7206C44.8199 11.3438 41.2744 10.5554 37.4462 10.5554C26.0203 10.5554 18.14 18.6397 18.14 30.4189C18.14 33.5255 18.6936 36.3733 19.7302 38.8797C18.2225 42.1393 15.9373 43.8574 12.9454 43.8574C9.32915 43.8574 6.94974 41.7628 6.94974 36.9969V16.6157H15.4072C17.3626 16.6157 18.6583 15.4625 18.6583 13.8033C18.6583 12.144 17.3626 10.9908 15.4072 10.9908H6.94974V3.62439C6.94974 1.45917 5.5009 0.0117718 3.47487 0.0117718C1.44885 0.0117718 0 1.45917 0 3.62439V37.7854C0 45.7284 4.55856 49.9176 12.2857 49.9176C13.8995 49.9176 15.5015 49.6587 17.0328 49.1292H17.0563C19.5888 48.176 21.6267 46.5168 23.0637 44.1163C26.5033 47.823 31.6037 49.9882 37.9527 49.9882C41.2744 49.9882 44.1603 49.341 46.7635 47.976H46.7753C52.0524 45.2342 55.81 39.6682 58.4132 31.1485L59.9327 26.1709C60.9457 27.5241 62.371 28.8068 64.2674 30.1365L69.6859 33.8903C70.4869 34.4434 71.2172 35.0082 71.9004 35.5613C72.8781 36.6322 73.1608 37.7971 73.1608 39.1622C73.1608 42.2688 70.6989 44.3634 67.1651 44.3634C63.7727 44.3634 60.875 42.6336 59.2848 42.6336C57.6946 42.6336 56.6109 43.7162 56.6109 45.3048C56.6109 46.458 57.1881 47.3994 58.7076 48.1172C60.8044 49.1292 64.1968 50 67.2358 50C71.0641 50 74.2444 48.8468 76.4943 46.8228C76.6003 46.7286 76.7063 46.6345 76.8005 46.5286C78.6381 44.6693 79.7453 42.1158 79.7453 39.1739C79.7453 34.82 78.0138 31.9252 73.6673 28.8891Z" fill="white"/>
</svg>
