<svg width="116" height="50" viewBox="0 0 116 50" fill="none" xmlns="http://www.w3.org/2000/svg">
<path d="M77.8817 47.7073C71.2844 44.6226 69.5272 36.9112 69.9214 30.3291C70.1809 26.0021 71.1962 21.8642 72.9674 17.9153C74.1208 15.3433 75.6129 12.9123 77.4817 10.7948C81.8238 5.87507 87.368 2.42693 93.7789 0.917374C100.835 -0.743872 108.347 -0.0420172 115.194 2.1626C115.21 2.16788 115.215 2.17864 115.21 2.19486L113.184 8.62136C113.176 8.64514 113.163 8.6491 113.144 8.63325C110.347 6.32845 107.184 4.464 103.507 4.12836C96.8815 3.52329 91.739 8.3593 88.4534 13.4925C86.4069 16.6901 84.8243 20.1325 83.7057 23.8199C82.7818 26.8656 82.0385 29.8185 81.6227 32.9174C80.9333 38.054 81.2862 45.4648 88.1628 46.1253C89.2791 46.2325 90.3947 46.16 91.5096 45.908C91.5277 45.9038 91.5396 45.8929 91.5452 45.8751C93.3183 40.2271 95.0905 34.5787 96.8617 28.9299C97.0199 28.4261 97.114 28.0614 97.1438 27.8358C97.3766 26.0687 96.2731 24.8336 94.7226 24.185C94.7206 24.1841 94.7188 24.1825 94.7178 24.1805C94.7167 24.1785 94.7163 24.1762 94.7167 24.174C94.7171 24.1718 94.7183 24.1699 94.72 24.1686C94.7217 24.1673 94.7239 24.1667 94.7261 24.1669C101.024 24.1759 107.322 24.1761 113.62 24.1674C113.67 24.1674 113.777 24.1448 113.845 24.1646C113.874 24.1733 113.875 24.1829 113.846 24.1935C112.029 24.875 110.61 25.9674 109.86 27.7599C109.781 27.9475 109.659 28.3044 109.493 28.8308C107.677 34.5989 105.862 40.3669 104.047 46.1349C104.041 46.1531 104.03 46.1663 104.013 46.1746C100.925 47.6881 97.6897 48.7669 94.3086 49.411C88.7361 50.4729 83.0763 50.1367 77.8817 47.7073ZM20.6895 30.9228C20.6802 30.9217 20.6709 30.9239 20.663 30.9289C20.6552 30.934 20.6493 30.9416 20.6465 30.9505C19.154 35.6949 17.6607 40.4441 16.1667 45.1982C16.0043 45.714 15.912 46.0789 15.8897 46.2929C15.8153 46.9951 15.989 47.6485 16.4109 48.253C16.7128 48.6865 17.2634 49.1614 17.8084 49.2599C17.8175 49.2618 17.8201 49.2669 17.8163 49.2752C17.8141 49.2801 17.8108 49.2846 17.8067 49.2888L17.8039 49.2899H0.0106243C0.00810959 49.2898 0.005673 49.2888 0.00375177 49.2871C0.00183054 49.2854 0.000550311 49.2831 0.00014102 49.2807C-0.000268271 49.2782 0.000220098 49.2758 0.00151842 49.2737C0.00281674 49.2717 0.00484006 49.2702 0.0072253 49.2695C1.48405 48.7777 3.02092 47.0072 3.47637 45.5542C7.79524 31.7669 12.1126 17.9791 16.4284 4.19062C16.8754 2.76201 16.3956 1.43471 15.1674 0.602671C15.1645 0.600707 15.1624 0.59787 15.1612 0.594573C15.16 0.591276 15.1599 0.587691 15.1609 0.584342C15.162 0.580993 15.164 0.578054 15.1668 0.575955C15.1696 0.573856 15.173 0.572706 15.1765 0.572672C22.4687 0.569276 29.765 0.566446 37.0654 0.564182C41.1617 0.56305 46.1699 1.82129 48.6483 5.40019C51.3238 9.26435 50.1959 14.3211 48.4682 18.2719C45.1984 25.7506 38.1718 29.5457 30.3753 30.6947C27.331 31.1434 24.2752 31.2373 21.2079 30.9766C21.05 30.9634 20.8772 30.9454 20.6895 30.9228ZM21.8729 27.1475C24.639 27.7469 27.5712 27.0949 29.8869 25.5944C32.3404 24.0039 34.1146 21.4263 35.2312 18.7569C36.1081 16.6597 36.7325 14.5543 37.1045 12.4408C37.3979 10.7739 37.462 8.91456 36.8405 7.32123C35.9812 5.12115 33.845 4.36948 31.6442 4.35476C30.7752 4.3491 29.9028 4.34703 29.027 4.34854C29.007 4.34854 28.994 4.35816 28.9879 4.37741L21.8486 27.1062C21.8472 27.1105 21.8468 27.115 21.8473 27.1195C21.8478 27.124 21.8492 27.1284 21.8515 27.1323C21.8538 27.1362 21.8569 27.1395 21.8606 27.1422C21.8643 27.1448 21.8685 27.1466 21.8729 27.1475Z" fill="white"/>
<path d="M61.0613 38.8267C61.0912 38.8708 61.1216 38.8712 61.1525 38.8278C61.9513 37.7026 62.4424 36.4802 62.626 35.1606C62.7919 33.9663 62.5993 32.9549 61.5406 32.2315C61.5062 32.2077 61.51 32.1958 61.5519 32.1958L67.7005 32.1964C67.7044 32.1964 67.7083 32.1972 67.7119 32.1987C67.7155 32.2003 67.7187 32.2025 67.7214 32.2053C67.7241 32.2081 67.7261 32.2115 67.7274 32.2151C67.7287 32.2187 67.7292 32.2226 67.7288 32.2264C67.4711 35.3514 66.4248 38.1044 64.3651 40.5111C63.8144 41.1545 63.4402 41.5852 63.2423 41.8033C63.2306 41.8162 63.2306 41.8292 63.2423 41.8424C64.1238 42.8289 65.1734 43.7006 66.235 44.4857C68.2766 45.9962 70.4449 47.2916 72.74 48.3719C73.4798 48.72 74.219 49.0075 74.981 49.2656C74.9839 49.2665 74.9864 49.2685 74.988 49.2711C74.9896 49.2737 74.9902 49.2768 74.9896 49.2798C74.989 49.2828 74.9874 49.2855 74.985 49.2874C74.9825 49.2893 74.9795 49.2902 74.9764 49.29H63.1024C62.7415 49.29 61.6884 48.4393 61.382 48.1879C60.3944 47.3785 59.4372 46.5346 58.5105 45.6562C58.4965 45.6426 58.4814 45.6414 58.4651 45.6528C56.2746 47.1759 53.8483 48.4494 51.2986 49.26C48.5266 50.1411 45.7706 50.2354 43.0308 49.543C39.3379 48.6091 36.4952 45.5707 36.0976 41.7377C35.8812 39.653 36.1808 37.3715 37.1954 35.5234C38.8518 32.506 41.7494 30.5408 44.839 29.2073C46.4161 28.5269 48.0424 28.0107 49.6444 27.4C49.6633 27.3925 49.6722 27.3787 49.6711 27.3587C49.4003 23.0559 50.3072 17.9657 53.4597 14.7491C54.4528 13.7359 55.7262 12.9899 57.0603 12.4392C60.1289 11.1719 64.0631 11.2291 66.6605 13.5718C68.6641 15.3791 68.9785 18.1021 67.7804 20.476C67.0485 21.9261 65.9155 23.1396 64.6409 24.1313C62.2158 26.0178 59.41 27.2268 56.6592 28.5371C56.6422 28.5454 56.635 28.5588 56.6377 28.5773C57.0552 31.3247 58.0341 33.9007 59.4452 36.2853C59.966 37.1656 60.5047 38.0127 61.0613 38.8267ZM62.9143 15.4011C62.5444 14.1921 61.0817 14.0914 60.1346 14.5108C59.5628 14.7644 59.0685 15.1136 58.6515 15.5585C56.3187 18.0501 55.7279 21.8729 56.0502 25.1331C56.0525 25.1562 56.064 25.1628 56.0848 25.153C56.3038 25.0503 56.4736 24.9586 56.5941 24.8779C58.7693 23.421 60.8534 21.4093 62.1422 19.1136C62.7279 18.0704 63.2723 16.5711 62.9143 15.4011ZM43.672 41.6431C44.5421 44.3215 47.37 45.3375 49.9441 45.0432C52.0152 44.8066 54.1032 44.0011 55.9075 42.9772C55.9188 42.9708 55.9207 42.9623 55.9131 42.9518C53.3409 39.4055 51.4749 35.5181 50.3152 31.2897C50.3095 31.2685 50.2967 31.2625 50.2766 31.2715C46.4246 32.999 42.1125 36.8388 43.672 41.6431Z" fill="white"/>
</svg>
