<svg width="184" height="50" viewBox="0 0 184 50" fill="none" xmlns="http://www.w3.org/2000/svg">
<path fill-rule="evenodd" clip-rule="evenodd" d="M145.286 3.39831C145.286 1.94773 143.997 0.657902 142.385 0.657902H138.355C136.741 0.657902 135.451 1.94773 135.451 3.39831L135.612 46.6141C135.612 48.0647 136.741 49.3545 138.355 49.3545H142.385C143.997 49.3545 145.286 48.0647 145.286 46.6141V3.39831ZM150.447 4.68811V6.62347C150.447 7.59177 151.092 8.2373 152.061 8.2373H180.44C181.73 8.2373 182.859 7.10825 182.859 5.81843V2.43249C182.859 1.14267 181.73 -0.14714 180.44 0.0136199C180.44 0.0136199 153.026 2.75402 152.061 2.91478C151.091 2.91478 150.447 3.7223 150.447 4.68811ZM127.39 49.3545C120.295 49.3545 115.94 44.0332 115.94 38.0676V20.8127H113.844C112.876 20.8127 111.909 19.8469 111.909 18.8774V15.9737C111.909 14.8471 112.874 14.0409 113.844 14.0409H115.94V3.39706C115.94 1.94648 117.069 0.656647 118.68 0.656647H122.711C124.164 0.656647 125.29 1.94648 125.29 3.39706V14.0409H131.58C132.709 14.0409 133.515 14.8459 133.515 15.9737V18.8774C133.515 19.8457 132.71 20.8127 131.58 20.8127H125.29V36.7778C125.29 39.8397 127.225 42.0991 130.613 42.0991H131.258C132.385 42.0991 133.354 42.9041 133.354 44.1952V47.2596C133.354 48.3887 132.386 49.3557 131.258 49.3557L127.39 49.3545ZM79.0146 31.1338C79.0146 21.943 73.5327 12.7523 61.1157 12.7523C49.6671 12.7523 43.3789 21.7823 43.3789 31.1338C43.3789 41.1296 50.1506 50 61.2765 50C68.8558 50 76.273 46.1306 77.7236 39.5195C77.8843 38.7144 77.24 37.4233 76.111 37.4233H70.6291C69.662 37.4233 68.8558 37.9081 68.371 38.7132C66.7584 40.97 64.5016 42.0991 61.2765 42.0991C56.4388 42.0991 53.2137 38.3891 52.891 34.1982H75.949C78.0476 34.1982 79.0146 33.0691 79.0146 31.1338ZM53.053 27.2643C53.3757 23.2341 56.9224 20.1697 61.1157 20.1697C65.4699 20.1697 69.0165 23.2341 69.5 27.2643H53.053ZM183.826 31.1338C183.826 21.943 178.342 12.7523 165.927 12.7523C154.477 12.7523 148.191 21.7823 148.191 31.1338C148.191 41.1296 154.963 50 166.09 50C173.667 50 181.085 46.1306 182.536 39.5195C182.697 38.7144 182.051 37.4233 180.924 37.4233H175.441C174.984 37.4191 174.535 37.5363 174.138 37.7629C173.741 37.9895 173.412 38.3175 173.183 38.7132C171.572 40.97 169.315 42.0991 165.928 42.0991C161.252 42.0991 158.027 38.3891 157.706 34.1982H180.762C182.86 34.1982 183.826 33.0691 183.826 31.1338ZM157.865 27.2643C158.187 23.2341 161.735 20.1697 165.927 20.1697C170.281 20.1697 173.827 23.2341 174.152 27.2643H157.865Z" fill="white"/>
<path fill-rule="evenodd" clip-rule="evenodd" d="M108.198 1.14324H33.7016C31.9283 1.14324 30.6373 2.59381 30.6373 4.20514L30.798 33.5544C30.798 33.5544 14.8345 4.52917 14.0282 3.07859C13.2219 1.62552 11.4474 0.335693 9.19056 0.335693H3.0631C1.28979 0.335693 0 1.78876 0 3.4001V46.2919C0 48.0665 1.28979 49.3563 3.0631 49.3563H6.93248C8.70579 49.3563 9.99559 48.0665 9.99559 46.2919L9.83483 16.3008C9.83483 16.3008 25.9591 45.4868 26.7654 46.6159C27.5717 48.2272 29.1842 49.3563 31.441 49.3563H37.0837C38.8583 49.3563 40.1481 48.0665 40.1481 46.2919V8.39987H108.194C109.323 8.39987 110.29 7.43157 110.29 6.30375V3.23934C110.294 2.10904 109.328 1.14324 108.198 1.14324Z" fill="white"/>
<path fill-rule="evenodd" clip-rule="evenodd" d="M96.1075 19.8461C99.3326 19.8461 101.751 20.9727 102.718 23.0713C103.042 24.0371 103.847 24.1979 104.977 24.1979H109.491C110.137 24.1979 111.103 23.5523 111.103 22.5865C111.103 17.426 104.816 12.7502 96.1075 12.7502C87.0777 12.7502 81.1122 17.102 81.1122 23.8763C81.1122 29.1976 85.3044 32.262 90.3028 33.7126C92.7216 34.1974 96.7517 35.1632 98.687 35.8087C100.622 36.2935 102.556 36.9378 102.556 38.7124C102.556 41.6135 99.6553 42.4223 96.267 42.4223C93.2051 42.4223 90.1408 41.13 89.3345 38.8731C88.8497 37.5833 87.8827 37.4225 86.5929 37.4225H82.078C81.2717 37.4225 80.3047 38.2276 80.3047 39.1971V39.8402C80.3047 44.8399 87.0777 49.9992 96.4302 49.9992C102.88 49.9992 112.071 47.2588 112.071 38.5516C112.071 33.3886 108.685 29.8431 103.041 28.3926C100.945 27.9078 95.7859 26.4572 94.6557 26.2965C92.5596 25.6509 90.6243 25.0066 90.6243 23.3928C90.6255 20.6524 93.0456 19.8461 96.1075 19.8461Z" fill="white"/>
</svg>
