<svg xmlns="http://www.w3.org/2000/svg" xmlns:xlink="http://www.w3.org/1999/xlink" width="32" height="32" viewBox="0 0 32 32"><defs><style>.a,.c{fill:#00a3bf;}.a{opacity:0.424;}.b{clip-path:url(#a);}</style><clipPath id="a"><rect class="a" width="32" height="32" transform="translate(1078 1379)"/></clipPath></defs><g class="b" transform="translate(-1078 -1379)"><g transform="translate(1078 1380)"><g transform="translate(0 0)"><path class="c" d="M30.275,32.879l-2.539-1.152-.727-1.174A9.763,9.763,0,0,0,31.56,22.3V17.474a.75.75,0,0,0-.4-.646l-6.525-3.472a.714.714,0,0,0-.7.007l-6.319,3.464a.711.711,0,0,0-.367.646v4.917A9.8,9.8,0,0,0,18.1,26.45H12.807a3.693,3.693,0,0,0-2.914,1.439l-2.884,3.78L2.165,32.989A2.938,2.938,0,0,0,0,35.815v1.85a2.974,2.974,0,0,0,2.95,2.95H3.3a3.695,3.695,0,0,0,7.119,0H21.211a3.695,3.695,0,0,0,7.119,0h.719A2.965,2.965,0,0,0,32,37.665V35.544A2.949,2.949,0,0,0,30.275,32.879ZM18.716,17.907l5.6-3.075,5.776,3.083V22.3a8.335,8.335,0,0,1-5.108,7.67h-.015l-.7.3-.572-.257a8.322,8.322,0,0,1-4.976-7.626ZM6.862,41.826A2.224,2.224,0,1,1,9.086,39.6,2.222,2.222,0,0,1,6.862,41.826Zm17.908,0A2.224,2.224,0,1,1,26.994,39.6,2.222,2.222,0,0,1,24.771,41.826Zm5.769-4.169h-.007A1.5,1.5,0,0,1,29.05,39.14h-.617a3.693,3.693,0,0,0-7.325,0H10.525a3.693,3.693,0,0,0-7.325,0H2.95a1.5,1.5,0,0,1-1.483-1.483v-1.85A1.475,1.475,0,0,1,2.554,34.4l5.079-1.387a.762.762,0,0,0,.4-.264l3.039-3.978a2.2,2.2,0,0,1,1.747-.859h6.121A9.939,9.939,0,0,0,23.1,31.36l.881.382a.742.742,0,0,0,.587,0l.991-.426c.051-.022.1-.044.147-.066l.9,1.446a.686.686,0,0,0,.316.279l2.745,1.24a1.479,1.479,0,0,1,.866,1.328v2.114Z" transform="translate(0 -13.269)"/></g><g transform="translate(20.913 7.137)"><path class="c" d="M291.957,110.781a.742.742,0,0,0-1.035-.117l-.007.007-3.435,2.8-1.248-1.461a.734.734,0,1,0-1.123.947l.007.007,1.71,2a.1.1,0,0,0,.022.029c.007.007.015.022.029.029l.029.029c.007.007.022.015.029.022a.158.158,0,0,0,.037.022.1.1,0,0,1,.029.022c.015.007.022.015.037.022a.056.056,0,0,0,.029.015.1.1,0,0,0,.044.015c.007.007.022.007.029.015s.029.007.044.015.022.007.029.007.029.007.044.007.022.007.029.007h.161c.015,0,.037-.007.051-.007a.027.027,0,0,0,.022-.007c.015,0,.029-.007.044-.007s.015-.007.022-.007.022-.007.037-.015.015-.007.029-.007.022-.007.029-.015.022-.007.029-.015.022-.007.029-.015a.055.055,0,0,1,.029-.015c.007,0,.015-.015.029-.015a.1.1,0,0,1,.029-.022c.007-.007.015-.007.022-.015l3.985-3.244A.742.742,0,0,0,291.957,110.781Z" transform="translate(-284.936 -110.505)"/></g></g></g></svg>