<svg xmlns="http://www.w3.org/2000/svg" xmlns:xlink="http://www.w3.org/1999/xlink" width="48" height="48" viewBox="0 0 48 48">
  <defs>
    <clipPath id="clip-path">
      <rect id="Rectangle_28156" data-name="Rectangle 28156" width="36" height="36" transform="translate(496 644)" fill="#fff" stroke="#707070" stroke-width="1"/>
    </clipPath>
  </defs>
  <g id="Group_221744" data-name="Group 221744" transform="translate(-1153 -6502)">
    <rect id="Rectangle_7484" data-name="Rectangle 7484" width="48" height="48" rx="8" transform="translate(1153 6502)" fill="#e8fcff"/>
    <g id="Mask_Group_223568" data-name="Mask Group 223568" transform="translate(663 5864)" clip-path="url(#clip-path)">
      <path id="documents-svgrepo-com" d="M31.32,19.429a1.042,1.042,0,0,1,1.043-1.041h6.274a1.041,1.041,0,1,1,0,2.082H32.364A1.042,1.042,0,0,1,31.32,19.429Zm1.043-3.122h6.274a1.041,1.041,0,1,0,0-2.082H32.364a1.041,1.041,0,1,0,0,2.082ZM47,8.673V26.012c0,.019,0,.037,0,.056a1.035,1.035,0,0,1-.25.629h0q-.025.029-.053.056l-6.969,6.937a1.041,1.041,0,0,1-.69.3H25.045A1.042,1.042,0,0,1,24,32.959V26.367H16.043A1.042,1.042,0,0,1,15,25.326V1.041A1.042,1.042,0,0,1,16.043,0H36.955A1.042,1.042,0,0,1,38,1.041V7.633h7.958A1.042,1.042,0,0,1,47,8.673ZM25.045,7.633H35.912V2.082H17.087v22.2H24V8.673a1.042,1.042,0,0,1,1.043-1.041ZM43.434,27.061h-3.4V30.45ZM44.913,9.714H26.088v22.2H37.942v-5.9a1.042,1.042,0,0,1,1.043-1.041h5.927Z" transform="translate(483 645)" fill="#00b8d9"/>
    </g>
  </g>
</svg>
