<svg width="48" height="48" viewBox="0 0 48 48" fill="none" xmlns="http://www.w3.org/2000/svg">
<mask id="mask0_674_2593" style="mask-type:luminance" maskUnits="userSpaceOnUse" x="2" y="2" width="44" height="44">
<path d="M2 2H46V46H2V2Z" fill="white"/>
</mask>
<g mask="url(#mask0_674_2593)">
<path d="M27.2858 18.4717C26.8373 18.4717 26.4016 18.2372 26.1641 17.8196C25.8122 17.2007 26.0285 16.4137 26.6474 16.0618L38.7129 9.20091C40.5353 8.16459 42.6067 7.61683 44.7034 7.61683C45.4153 7.61683 45.9924 8.19398 45.9924 8.90589C45.9924 9.61788 45.4153 10.195 44.7034 10.195C43.0527 10.195 41.422 10.6262 39.9874 11.442L27.9218 18.3029C27.7207 18.4173 27.5018 18.4717 27.2858 18.4717Z" fill="#559CFF"/>
<path d="M44.9763 30.6719H2.00763V6.22549H10.0564C11.7732 6.22549 13.4411 6.72083 14.8797 7.65798L26.5404 15.2543L35.3493 17.4477C35.3493 17.4477 43.3594 20.9349 44.4611 24.1657C44.7958 25.1476 44.9763 26.1968 44.9763 27.2822V30.6719Z" fill="#B1D1FF"/>
<path d="M13.4724 9.81841C12.4535 9.15463 11.2722 8.80384 10.0563 8.80384H4.58575V17.1436H24.7168L13.4724 9.81841Z" fill="#EDF4FF"/>
<path d="M37.0751 17.7859L35.3491 17.4482V20.4097C35.3491 22.4815 37.0347 24.167 39.1064 24.167H44.4588C43.3571 20.9363 40.5866 18.4354 37.0751 17.7859Z" fill="#EDF4FF"/>
<path d="M43.622 29.8506H2.0152V35.5225C2.0152 36.2344 2.59235 36.8115 3.30426 36.8115H44.7109C45.4228 36.8115 46 36.2344 46 35.5225V32.2286C46 30.9153 44.9353 29.8506 43.622 29.8506Z" fill="#559CFF"/>
<path d="M43.622 29.8506H26.5403V36.8115H44.7109C45.4228 36.8115 46 36.2344 46 35.5225V32.2286C46 30.9153 44.9353 29.8506 43.622 29.8506Z" fill="#559CFF"/>
<path d="M7.84802 23.2305H6.34686C5.63496 23.2305 5.0578 22.6533 5.0578 21.9414C5.0578 21.2295 5.63496 20.6523 6.34686 20.6523H7.84802C8.55993 20.6523 9.13708 21.2295 9.13708 21.9414C9.13708 22.6533 8.55993 23.2305 7.84802 23.2305Z" fill="#559CFF"/>
<path d="M26.5404 24.1136C21.671 24.1136 17.7095 28.0751 17.7095 32.9445C17.7095 37.8138 21.671 41.7754 26.5404 41.7754C31.4097 41.7754 35.3712 37.8138 35.3712 32.9445C35.3712 28.0751 31.4097 24.1136 26.5404 24.1136Z" fill="#074BAA"/>
<path d="M26.5403 36.8115C24.408 36.8115 22.6732 35.0767 22.6732 32.9443C22.6732 30.812 24.408 29.0771 26.5403 29.0771C28.6727 29.0771 30.4075 30.812 30.4075 32.9443C30.4075 35.0767 28.6727 36.8115 26.5403 36.8115Z" fill="#559CFF"/>
</g>
</svg>
