<svg width="36" height="36" viewBox="0 0 36 36" fill="none" xmlns="http://www.w3.org/2000/svg">
<path d="M21.7976 2.84241H6.4164C4.11902 2.84241 2.25 4.71143 2.25 7.00881V30.4517C2.25 30.912 2.62302 31.285 3.08328 31.285H21.7976C24.0947 31.285 25.964 29.416 25.964 27.1186V7.00881C25.964 4.71143 24.0947 2.84241 21.7976 2.84241Z" fill="url(#paint0_linear_1986_4346)"/>
<path d="M5.87613 13.739H16.4581C16.9182 13.739 17.2914 13.366 17.2914 12.9057C17.2914 12.4457 16.9182 12.0724 16.4581 12.0724H5.87613C5.41587 12.0724 5.04285 12.4457 5.04285 12.9057C5.04285 13.366 5.41587 13.739 5.87613 13.739Z" fill="url(#paint1_linear_1986_4346)"/>
<path d="M5.87619 17.3607H16.4582C16.9182 17.3607 17.2915 16.9877 17.2915 16.5274C17.2915 16.0672 16.9182 15.6942 16.4582 15.6942H5.87619C5.41593 15.6942 5.04291 16.0672 5.04291 16.5274C5.04291 16.9877 5.41593 17.3607 5.87619 17.3607Z" fill="url(#paint2_linear_1986_4346)"/>
<path d="M5.87619 20.9819H16.4582C16.9182 20.9819 17.2915 20.6088 17.2915 20.1486C17.2915 19.6883 16.9182 19.3153 16.4582 19.3153H5.87619C5.41593 19.3153 5.04291 19.6883 5.04291 20.1486C5.04291 20.6088 5.41593 20.9819 5.87619 20.9819Z" fill="url(#paint3_linear_1986_4346)"/>
<path d="M25.0161 32.6447C29.5553 32.6447 33.235 28.9649 33.235 24.4258C33.235 19.8866 29.5553 16.2068 25.0161 16.2068C20.4769 16.2068 16.7972 19.8866 16.7972 24.4258C16.7972 28.9649 20.4769 32.6447 25.0161 32.6447Z" fill="#EDF4FF"/>
<path d="M27.9949 22.39H27.3178C27.2149 21.9305 27.0051 21.5072 26.7136 21.144H28.0134C28.3858 21.144 28.6877 20.8624 28.6877 20.515C28.6877 20.1677 28.3858 19.886 28.0134 19.886H24.3062C24.0249 19.8621 23.9603 19.8766 22.6249 19.8722C22.2526 19.8722 21.9507 20.1539 21.9507 20.5012C21.9507 20.8747 22.2967 21.144 22.649 21.144H24.2378C25.0154 21.23 25.6607 21.7241 25.9194 22.39H22.6119C22.2396 22.39 21.9377 22.6716 21.9377 23.019C21.9377 23.3664 22.2396 23.648 22.6119 23.648H25.9334C25.66 24.4018 24.8951 24.9462 23.9959 24.9462H22.6249C22.0261 24.9462 21.7238 25.6242 22.1481 26.02L26.2136 29.8125C26.4768 30.0582 26.9038 30.0582 27.1671 29.8125C27.4304 29.5669 27.4304 29.1686 27.1671 28.923L24.2438 26.1959C25.7803 26.0919 27.0364 25.0294 27.3265 23.648H27.995C28.3673 23.648 28.6692 23.3664 28.6692 23.019C28.6692 22.6716 28.3673 22.39 27.9949 22.39Z" fill="url(#paint4_linear_1986_4346)"/>
<path d="M25.0179 15.6942C20.2031 15.6942 16.2861 19.6112 16.2861 24.4259C16.2861 29.2407 20.2031 33.1577 25.0179 33.1577C29.8326 33.1577 33.7496 29.2407 33.7496 24.4259C33.7496 19.6112 29.8326 15.6942 25.0179 15.6942ZM25.0179 16.7174C26.9594 16.7174 28.7353 17.4392 30.0921 18.6281L19.2201 29.5002C18.0311 28.1434 17.3093 26.3675 17.3093 24.4259C17.3093 20.1754 20.7674 16.7174 25.0179 16.7174ZM25.0179 32.1345C23.0763 32.1345 21.3004 31.4127 19.9436 30.2237L30.8156 19.3517C32.0046 20.7085 32.7264 22.4844 32.7264 24.4259C32.7264 28.6764 29.2684 32.1345 25.0179 32.1345Z" fill="url(#paint5_linear_1986_4346)"/>
<defs>
<linearGradient id="paint0_linear_1986_4346" x1="14.107" y1="2.84241" x2="14.107" y2="31.285" gradientUnits="userSpaceOnUse">
<stop stop-color="#C8DFFF"/>
<stop offset="1" stop-color="#88B3F0"/>
</linearGradient>
<linearGradient id="paint1_linear_1986_4346" x1="11.1671" y1="12.0724" x2="11.1671" y2="13.739" gradientUnits="userSpaceOnUse">
<stop stop-color="#4C70A1"/>
<stop offset="1" stop-color="#143460"/>
</linearGradient>
<linearGradient id="paint2_linear_1986_4346" x1="11.1672" y1="15.6942" x2="11.1672" y2="17.3607" gradientUnits="userSpaceOnUse">
<stop stop-color="#4C70A1"/>
<stop offset="1" stop-color="#143460"/>
</linearGradient>
<linearGradient id="paint3_linear_1986_4346" x1="11.1672" y1="19.3153" x2="11.1672" y2="20.9819" gradientUnits="userSpaceOnUse">
<stop stop-color="#4C70A1"/>
<stop offset="1" stop-color="#143460"/>
</linearGradient>
<linearGradient id="paint4_linear_1986_4346" x1="25.3127" y1="19.8718" x2="25.3127" y2="29.9968" gradientUnits="userSpaceOnUse">
<stop stop-color="#4C70A1"/>
<stop offset="1" stop-color="#143460"/>
</linearGradient>
<linearGradient id="paint5_linear_1986_4346" x1="25.0179" y1="15.6942" x2="25.0179" y2="33.1577" gradientUnits="userSpaceOnUse">
<stop stop-color="#4C70A1"/>
<stop offset="1" stop-color="#143460"/>
</linearGradient>
</defs>
</svg>
