<svg width="48" height="48" viewBox="0 0 48 48" fill="none" xmlns="http://www.w3.org/2000/svg">
<path d="M20.97 44.8002C20.8463 44.8002 20.7225 44.7813 20.603 44.7436C15.8452 43.2412 11.7715 40.3199 8.82202 36.2956C5.87273 32.2712 4.31378 27.5069 4.31378 22.5175V10.1064C4.31378 9.43337 4.85946 8.8877 5.53253 8.8877C9.05269 8.8877 12.2531 6.95752 13.892 3.85036C14.1029 3.45053 14.5179 3.2002 14.97 3.2002H26.97C27.4221 3.2002 27.8371 3.45045 28.048 3.85036C29.6869 6.95752 32.8874 8.8877 36.4002 8.8877C37.0733 8.8877 37.6263 9.43337 37.6263 10.1064V22.5175C37.6263 27.5069 36.0673 32.2712 33.118 36.2955C30.1686 40.3198 26.0949 43.2411 21.337 44.7436C21.2176 44.7813 21.0938 44.8002 20.97 44.8002Z" fill="#B1D1FF"/>
<path d="M20.97 39.615C20.8105 39.615 20.651 39.5837 20.501 39.5211C13.629 36.6556 9.18878 29.9813 9.18878 22.5175V14.2035C9.18878 13.6771 9.52678 13.2101 10.0269 13.0457C12.6137 12.1952 14.892 10.6312 16.6153 8.52272C16.8468 8.23948 17.1931 8.0752 17.5589 8.0752H24.3811C24.7469 8.0752 25.0934 8.23948 25.3248 8.52272C27.048 10.6316 29.3263 12.1958 31.9132 13.0465C32.4133 13.2109 32.7512 13.6779 32.7512 14.2043V22.5175C32.7512 29.9813 28.311 36.6556 21.439 39.5211C21.289 39.5836 21.1295 39.615 20.97 39.615Z" fill="#EDF4FF"/>
<path d="M19.0743 28.9369C18.7624 28.9369 18.4504 28.8179 18.2125 28.5798L14.4208 24.7882C13.9449 24.3123 13.9449 23.5406 14.4208 23.0646C14.8967 22.5886 15.6684 22.5886 16.1444 23.0646L19.0744 25.9945L25.7959 19.273C26.2718 18.797 27.0435 18.797 27.5195 19.273C27.9954 19.7489 27.9954 20.5206 27.5195 20.9965L19.9362 28.5798C19.6981 28.8179 19.3862 28.9369 19.0743 28.9369Z" fill="#074BAA"/>
<path d="M43.6859 33.4231C43.6859 38.713 39.3978 43.0011 34.1079 43.0011C28.818 43.0011 24.5295 38.713 24.5295 33.4231C24.5295 28.1332 28.818 23.8447 34.1079 23.8447C39.3978 23.8447 43.6859 28.1332 43.6859 33.4231Z" fill="#559CFF"/>
<path d="M37.0225 32.1065H35.3886V30.5075C35.3886 29.7806 34.7994 29.1914 34.0725 29.1914C33.3455 29.1914 32.7563 29.7806 32.7563 30.5075V32.1065H31.1927C30.4661 32.1065 29.8766 32.6956 29.8766 33.4226C29.8766 34.1492 30.4661 34.7387 31.1927 34.7387H32.7563V36.3373C32.7563 37.0643 33.3455 37.6534 34.0725 37.6534C34.7994 37.6534 35.3886 37.0643 35.3886 36.3373V34.7387H37.0225C37.7494 34.7387 38.3386 34.1492 38.3386 33.4226C38.3386 32.6956 37.7494 32.1065 37.0225 32.1065Z" fill="#EDF4FF"/>
</svg>
