<svg width="40" height="40" viewBox="0 0 40 40" fill="none" xmlns="http://www.w3.org/2000/svg">
<path d="M26.7231 17.3942C26.1946 17.3942 25.7662 16.9657 25.7662 16.4373V11.9716C25.7662 11.4431 26.1946 11.0146 26.7231 11.0146C27.2516 11.0146 27.6801 11.4431 27.6801 11.9716V16.4373C27.6801 16.9657 27.2516 17.3942 26.7231 17.3942Z" fill="#074BAA"/>
<path d="M28.8603 7.90061C28.3318 7.90061 27.9033 7.47216 27.9033 6.94368V4.71084C27.9033 4.18236 28.3318 3.75391 28.8603 3.75391C29.3887 3.75391 29.8172 4.18236 29.8172 4.71084V6.94368C29.8172 7.47216 29.3887 7.90061 28.8603 7.90061Z" fill="#559CFF"/>
<path d="M24.5861 7.90061C24.0576 7.90061 23.6292 7.47216 23.6292 6.94368V4.71084C23.6292 4.18236 24.0576 3.75391 24.5861 3.75391C25.1146 3.75391 25.543 4.18236 25.543 4.71084V6.94368C25.543 7.47216 25.1146 7.90061 24.5861 7.90061Z" fill="#559CFF"/>
<path d="M26.7231 12.685C24.5949 12.685 22.8635 10.9536 22.8635 8.82541V7.19863C22.8635 6.67015 23.2919 6.2417 23.8204 6.2417H29.6258C30.1543 6.2417 30.5827 6.67015 30.5827 7.19863V8.82541C30.5827 10.9536 28.8513 12.685 26.7231 12.685Z" fill="#074BAA"/>
<path d="M11.4093 23.9017H8.19894C7.67045 23.9017 7.242 23.4732 7.242 22.9447C7.242 22.4162 7.67045 21.9878 8.19894 21.9878H11.4093C11.9378 21.9878 12.3662 22.4162 12.3662 22.9447C12.3662 23.4732 11.9378 23.9017 11.4093 23.9017Z" fill="#B1D1FF"/>
<path d="M36.9285 23.9017H33.7181C33.1896 23.9017 32.7612 23.4732 32.7612 22.9447C32.7612 22.4162 33.1896 21.9878 33.7181 21.9878H36.9285C37.4569 21.9878 37.8854 22.4162 37.8854 22.9447C37.8854 23.4732 37.4569 23.9017 36.9285 23.9017Z" fill="#B1D1FF"/>
<path d="M34.4262 24.9514H10.6955C10.3625 24.9514 10.0534 24.7783 9.87946 24.4943C9.70556 24.2103 9.69178 23.8564 9.84304 23.5597L12.2912 18.7599C13.143 17.0898 14.7707 16.0928 16.6455 16.0928H28.4742C30.3483 16.0928 31.9758 17.0893 32.8279 18.7585L35.2785 23.5595C35.43 23.8562 35.4162 24.2102 35.2423 24.4943C35.0684 24.7783 34.7593 24.9514 34.4262 24.9514Z" fill="#B1D1FF"/>
<path d="M12.3953 28.8184H9.27681C8.09155 28.8184 7.12735 29.7826 7.12735 30.9678V34.2676C7.12735 35.4528 8.09162 36.417 9.27681 36.417H12.3952C13.5804 36.417 14.5447 35.4528 14.5447 34.2676V30.9678C14.5447 29.7826 13.5804 28.8184 12.3953 28.8184Z" fill="#074BAA"/>
<path d="M35.8507 28.8184H32.7323C31.547 28.8184 30.5828 29.7826 30.5828 30.9678V34.2676C30.5828 35.4528 31.5471 36.417 32.7323 36.417H35.8507C37.0358 36.417 38 35.4528 38 34.2676V30.9678C38 29.7826 37.0358 28.8184 35.8507 28.8184Z" fill="#074BAA"/>
<path fill-rule="evenodd" clip-rule="evenodd" d="M28.4743 18.0068H16.6455C15.4878 18.0068 14.5222 18.5983 13.9962 19.6297L12.2578 23.0378H32.8634L31.1233 19.6288C30.5971 18.598 29.6316 18.0068 28.4743 18.0068Z" fill="#EDF4FF"/>
<path d="M32.3901 22.9443H12.7317C9.63901 22.9443 7.12299 25.4604 7.12299 28.553V31.6324C7.12299 32.1609 7.55144 32.5893 8.07992 32.5893H37.0418C37.5703 32.5893 37.9988 32.1609 37.9988 31.6324V28.553C37.9988 25.4604 35.4827 22.9443 32.3901 22.9443Z" fill="#B1D1FF"/>
<path d="M33.2045 28.698H36.085V28.5532C36.085 26.5159 34.4275 24.8584 32.3901 24.8584H30.3337V25.8272C30.3337 27.4102 31.6215 28.698 33.2045 28.698Z" fill="#EDF4FF"/>
<path d="M9.03679 28.5532V28.698H11.9173C13.5002 28.698 14.7881 27.4102 14.7881 25.8272V24.8584H12.7316C10.6943 24.8584 9.03679 26.5159 9.03679 28.5532Z" fill="#EDF4FF"/>
<path d="M28.4944 27.6771C28.4944 27.1487 28.066 26.7202 27.5375 26.7202H17.5854C17.0569 26.7202 16.6285 27.1487 16.6285 27.6771V29.7186C16.6285 30.2471 17.0569 30.6755 17.5854 30.6755H27.5375C28.066 30.6755 28.4944 30.2471 28.4944 29.7186V27.6771Z" fill="#559CFF"/>
<path d="M18.6295 6.07431C16.0613 6.12943 13.51 5.31638 11.447 3.78468C11.0856 3.51643 10.5913 3.51643 10.23 3.78468C8.1622 5.31999 5.60922 6.13569 3.04264 6.07989C2.47967 6.06512 2 6.52193 2 7.10041C2 13.0904 4.27432 16.7889 6.18219 18.8368C8.27665 21.0848 10.3918 21.8901 10.4808 21.9233C10.7134 22.01 10.9692 22.009 11.2014 21.9204C11.2902 21.8865 13.4015 21.0636 15.4929 18.8079C17.3994 16.7517 19.6722 13.0503 19.6722 7.09483C19.6723 6.52268 19.2016 6.06206 18.6295 6.07431Z" fill="#559CFF"/>
<path d="M10.8333 19.8454C7.33067 18.1074 4.35477 14.0876 4.06543 8.10126C6.46815 7.96163 8.82651 7.17785 10.8387 5.84961C12.8469 7.17438 15.2031 7.95619 17.6067 8.09555C17.3169 14.0245 14.351 18.0719 10.8333 19.8454Z" fill="#EDF4FF"/>
<path d="M14.0077 10.0065C13.6091 9.60786 12.9628 9.60786 12.5642 10.0065L10.3258 12.2448L9.65253 11.5716C9.25397 11.173 8.60765 11.173 8.20902 11.5716C7.81039 11.9702 7.81039 12.6165 8.20902 13.0151L9.60401 14.4101C10.0026 14.8087 10.6489 14.8088 11.0475 14.4101L14.0076 11.45C14.4063 11.0514 14.4063 10.4051 14.0077 10.0065Z" fill="#074BAA"/>
</svg>
