<svg width="40" height="40" viewBox="0 0 40 40" fill="none" xmlns="http://www.w3.org/2000/svg">
<path d="M35.2529 24.5408L31.1087 23.2871L31.1016 23.2801L28.2536 21.8227L26.8154 18.9453L25.0393 17.1488C24.8354 16.9428 24.5605 16.8359 24.2891 16.8359C23.6821 16.8359 10.6196 16.8359 9.50164 16.8359C9.10437 16.8359 8.74156 17.0588 8.56156 17.4132L5.64219 23.1591H4.46094C3.10391 23.1591 2 24.263 2 25.6201V27.4531L2.70312 28.4429L2 29.5625V29.7896C2 31.9194 3.73039 33.6526 5.85945 33.6568H36.9453C37.5275 33.6568 38 33.1843 38 32.6021V28.2427C38 26.5257 36.8961 25.0379 35.2529 24.5408Z" fill="#B1D1FF"/>
<path d="M31.1016 23.2801C31.0753 23.28 11.6185 23.2442 11.6089 23.2442C11.0225 23.2428 10.5479 22.7661 10.5486 22.1804L10.5529 19.998C10.554 19.4163 11.0259 18.9453 11.6076 18.9453H26.8154L31.1016 23.2801Z" fill="#EDF4FF"/>
<path d="M38 28.2428V29.4634H34.5547C33.9725 29.4634 33.5 28.9916 33.5 28.4087C33.5 27.8265 33.9725 27.354 34.5547 27.354H37.8987C37.9655 27.6402 38 27.9376 38 28.2428Z" fill="#559CFF"/>
<path d="M10.5565 29.4001C8.18554 29.4001 6.25659 31.3291 6.25659 33.7C6.25659 36.071 8.18554 37.9999 10.5565 37.9999C12.9274 37.9999 14.8564 36.0709 14.8564 33.7C14.8564 31.3291 12.9275 29.4001 10.5565 29.4001Z" fill="#074BAA"/>
<path d="M10.5565 35.8907C9.34865 35.8907 8.36597 34.908 8.36597 33.7002C8.36597 32.4924 9.34865 31.5098 10.5565 31.5098C11.7643 31.5098 12.747 32.4925 12.747 33.7002C12.747 34.908 11.7644 35.8907 10.5565 35.8907Z" fill="#EDF4FF"/>
<path d="M29.5084 29.4001C27.1374 29.4001 25.2085 31.3291 25.2085 33.7C25.2085 36.071 27.1374 37.9999 29.5084 37.9999C31.8793 37.9999 33.8083 36.0709 33.8083 33.7C33.8083 31.3291 31.8793 29.4001 29.5084 29.4001Z" fill="#074BAA"/>
<path d="M29.5084 35.8907C28.3006 35.8907 27.3179 34.908 27.3179 33.7002C27.3179 32.4924 28.3006 31.5098 29.5084 31.5098C30.7162 31.5098 31.6989 32.4925 31.6989 33.7002C31.6989 34.908 30.7162 35.8907 29.5084 35.8907Z" fill="#EDF4FF"/>
<path d="M5.23437 28.5078C5.23437 29.09 4.76187 29.5625 4.17969 29.5625H2V27.4531H4.17969C4.76187 27.4531 5.23437 27.9256 5.23437 28.5078Z" fill="#559CFF"/>
<path d="M27.0601 4.57368C24.4064 4.63064 21.7703 3.79054 19.6386 2.20788C19.2652 1.93071 18.7545 1.93071 18.3811 2.20788C16.2445 3.79427 13.6066 4.6371 10.9546 4.57945C10.373 4.56419 9.87732 5.0362 9.87732 5.63392C9.87732 11.8233 12.2273 15.6447 14.1987 17.7608C16.3628 20.0836 18.5483 20.9157 18.6403 20.95C18.8806 21.0395 19.1449 21.0385 19.3848 20.947C19.4767 20.912 21.6581 20.0617 23.8191 17.731C25.7891 15.6063 28.1375 11.7818 28.1375 5.62816C28.1375 5.03697 27.6513 4.56103 27.0601 4.57368Z" fill="#559CFF"/>
<path d="M19.0045 18.8032C15.3853 17.0075 12.3104 12.8539 12.0115 6.66837C14.4941 6.52409 16.931 5.71423 19.0101 4.3418C21.0851 5.71064 23.5197 6.51846 26.0033 6.66246C25.7038 12.7887 22.6393 16.9707 19.0045 18.8032Z" fill="#EDF4FF"/>
<path d="M22.2845 8.63704C21.8727 8.22515 21.2049 8.22515 20.793 8.63704L18.4801 10.9498L17.7845 10.2542C17.3726 9.84234 16.7048 9.84234 16.2929 10.2542C15.881 10.6661 15.881 11.3339 16.2929 11.7458L17.7343 13.1872C18.1462 13.5991 18.814 13.5991 19.2259 13.1872L22.2845 10.1286C22.6964 9.71669 22.6964 9.04893 22.2845 8.63704Z" fill="#074BAA"/>
</svg>
