<svg width="40" height="40" viewBox="0 0 40 40" fill="none" xmlns="http://www.w3.org/2000/svg">
<path d="M38 26.3281L29.5625 17.8906H27.4531L25.3438 20V32.6563L27.4531 34.7656H36.9453C37.5283 34.7656 38 34.2939 38 33.711V30.5469L35.8906 29.4922L38 28.4375V26.3281Z" fill="#559CFF"/>
<path d="M37.8228 24.6884L33.6041 18.3603C33.4084 18.0668 33.0788 17.8906 32.7266 17.8906H29.5625V25.2734C29.5625 25.8559 30.0347 26.3281 30.6172 26.3281H38V25.2734C38 25.0654 37.9382 24.8615 37.8228 24.6884Z" fill="#EDF4FF"/>
<path d="M27.4531 14.7266V30.5469L25.3438 32.6563H6.21875L4.10938 30.5469V14.7266C4.10938 14.1359 4.57337 13.6719 5.16406 13.6719H26.3985C26.9892 13.6719 27.4531 14.1359 27.4531 14.7266Z" fill="#B1D1FF"/>
<path d="M27.4531 30.5469V34.7656H5.16406C4.57337 34.7656 4.10938 34.3016 4.10938 33.7109V30.5469H27.4531Z" fill="#559CFF"/>
<path d="M15.711 5.23438H14.6563C14.0656 5.23438 13.6016 4.77024 13.6016 4.17969C13.6016 3.58899 13.1376 3.125 12.5469 3.125H6.21875C5.62806 3.125 5.16407 3.58899 5.16407 4.17969C5.16407 4.77024 4.70007 5.23438 4.10938 5.23438H3.05469C2.46399 5.23438 2 5.69837 2 6.28907V12.2796C2 16.7094 4.82664 20.6539 9.04539 22.046C9.15079 22.0883 9.27735 22.1094 9.38282 22.1094C9.48829 22.1094 9.61485 22.0883 9.72025 22.046C13.939 20.6539 16.7656 16.7094 16.7656 12.2796V6.28907C16.7656 5.69837 16.3016 5.23438 15.711 5.23438Z" fill="#559CFF"/>
<path d="M11.6724 5.23438H10.4375H8.32813H7.09323C6.6575 6.4621 5.48441 7.34375 4.10938 7.34375V12.2753C4.10938 15.6917 6.21362 18.726 9.38282 19.9351C12.552 18.726 14.6563 15.6916 14.6563 12.2753V7.34375C13.2812 7.34375 12.1081 6.4621 11.6724 5.23438Z" fill="#EDF4FF"/>
<path d="M11.9922 10.0972C11.6335 9.73843 11.0518 9.73843 10.693 10.0972L8.67845 12.1117L8.07251 11.5058C7.7138 11.147 7.13211 11.147 6.77335 11.5058C6.41458 11.8646 6.41458 12.4462 6.77335 12.805L8.02884 14.0605C8.38755 14.4192 8.96924 14.4193 9.328 14.0605L11.9921 11.3964C12.3509 11.0376 12.3509 10.456 11.9922 10.0972Z" fill="#074BAA"/>
<path d="M30.6172 36.875C28.8725 36.875 27.4531 35.4557 27.4531 33.7109C27.4531 31.9662 28.8725 30.5469 30.6172 30.5469C32.3619 30.5469 33.7813 31.9662 33.7813 33.7109C33.7813 35.4557 32.3619 36.875 30.6172 36.875Z" fill="#074BAA"/>
<path d="M30.6172 32.6562C30.0353 32.6562 29.5625 33.129 29.5625 33.7109C29.5625 34.2928 30.0353 34.7656 30.6172 34.7656C31.1991 34.7656 31.6719 34.2928 31.6719 33.7109C31.6719 33.129 31.1991 32.6562 30.6172 32.6562Z" fill="#B1D1FF"/>
<path d="M11.4922 36.875C9.74745 36.875 8.32812 35.4557 8.32812 33.7109C8.32812 31.9662 9.74745 30.5469 11.4922 30.5469C13.2369 30.5469 14.6563 31.9662 14.6563 33.7109C14.6563 35.4557 13.2369 36.875 11.4922 36.875Z" fill="#074BAA"/>
<path d="M11.4922 32.6562C10.9103 32.6562 10.4375 33.129 10.4375 33.7109C10.4375 34.2928 10.9103 34.7656 11.4922 34.7656C12.0741 34.7656 12.5469 34.2928 12.5469 33.7109C12.5469 33.129 12.0741 32.6562 11.4922 32.6562Z" fill="#B1D1FF"/>
<path d="M34.8359 28.4375C34.253 28.4375 33.7812 28.9092 33.7812 29.4922C33.7812 30.0752 34.253 30.5469 34.8359 30.5469H38V28.4375H34.8359Z" fill="#EDF4FF"/>
</svg>
