<svg width="40" height="41" viewBox="0 0 40 41" fill="none" xmlns="http://www.w3.org/2000/svg">
<path d="M32.9269 29.2344C26.632 38.1221 13.4125 38.1742 7.07292 29.2344H9.76661C15.2424 35.3511 24.7841 35.3291 30.2333 29.2344H32.9269Z" fill="#074BAA"/>
<path d="M32.9268 10.9535H30.2331C24.7573 4.83678 15.2161 4.85822 9.76647 10.9535H7.07349C13.3642 2.068 26.5846 2.00992 32.9268 10.9535Z" fill="#074BAA"/>
<path d="M36.9454 10.6025H3.05457C2.4721 10.6025 1.99988 11.0748 1.99988 11.6572V28.5323C1.99988 29.1148 2.4721 29.587 3.05457 29.587H36.9454C37.5278 29.587 38 29.1148 38 28.5323V11.6572C38 11.0748 37.5278 10.6025 36.9454 10.6025Z" fill="#B1D1FF"/>
<path d="M3.05457 10.6025H9.45304V11.6572C9.45304 15.1525 6.62013 17.9854 3.12488 17.9854H1.99988V11.6572C1.99988 11.075 2.47238 10.6025 3.05457 10.6025Z" fill="#559CFF"/>
<path d="M9.45299 28.5313V29.586H3.05452C2.47233 29.586 1.99983 29.1135 1.99983 28.5313V22.2031H3.12484C6.62009 22.2031 9.45299 25.036 9.45299 28.5313Z" fill="#559CFF"/>
<path d="M37.9999 11.6572V17.9854H36.8925C33.3979 17.9854 30.5643 15.1525 30.5643 11.6572V10.6025H36.9452C37.5274 10.6025 37.9999 11.075 37.9999 11.6572Z" fill="#559CFF"/>
<path d="M36.8925 22.2031H37.9999V28.5313C37.9999 29.1135 37.5274 29.586 36.9452 29.586H30.5643V28.5313C30.5643 25.036 33.3979 22.2031 36.8925 22.2031Z" fill="#559CFF"/>
<path d="M20.0087 25.3675C22.9261 25.3675 25.2911 23.0025 25.2911 20.0851C25.2911 17.1677 22.9261 14.8027 20.0087 14.8027C17.0913 14.8027 14.7263 17.1677 14.7263 20.0851C14.7263 23.0025 17.0913 25.3675 20.0087 25.3675Z" fill="#EDF4FF"/>
<path d="M11.5623 19.0391H9.45289C8.87041 19.0391 8.39819 19.5113 8.39819 20.0938C8.39819 20.6762 8.87041 21.1484 9.45289 21.1484H11.5623C12.1447 21.1484 12.617 20.6762 12.617 20.0938C12.617 19.5113 12.1447 19.0391 11.5623 19.0391Z" fill="#EDF4FF"/>
<path d="M30.5468 19.0391H28.4374C27.8549 19.0391 27.3827 19.5113 27.3827 20.0938C27.3827 20.6762 27.8549 21.1484 28.4374 21.1484H30.5468C31.1292 21.1484 31.6015 20.6762 31.6015 20.0938C31.6015 19.5113 31.1292 19.0391 30.5468 19.0391Z" fill="#EDF4FF"/>
<path d="M31.9149 9.67059L9.57721 32.0083C9.04987 31.5477 8.55135 31.0506 8.08447 30.5183L30.4222 8.18066C30.9495 8.64121 31.4487 9.13832 31.9149 9.67059Z" fill="#074BAA"/>
</svg>
