<svg width="303" height="110" viewBox="0 0 303 110" fill="none" xmlns="http://www.w3.org/2000/svg">
<rect x="0.5" y="0.5" width="302" height="109" rx="14.5" stroke="#BABCBE"/>
<path d="M55.6796 55.4823C56.9746 58.3162 54.5705 60.5687 53.5721 62.9827C52.2785 64.5926 51.3162 66.2666 49.6522 67.7146L49.3928 55.4827C50.8347 54.0343 54.4594 53.0688 55.6796 55.4827V55.4823ZM58.1572 42.8333C58.86 45.9544 55.1251 47.8223 52.6108 49.2708L49.6517 50.5583L49.3923 50.3328L49.5034 37.4569C52.721 38.5514 56.1249 40.1613 58.1576 42.8333H58.1572ZM41.6269 32.6294C40.1101 32.5644 38.9271 33.1439 37.5587 33.3694V33.8209L37.8181 62.0172L37.5587 62.2431C34.4527 53.6482 34.3044 43.9923 34.3421 34.2389C32.8987 34.5609 31.6051 35.2693 30.2729 35.8488C30.0526 41.8033 30.5695 48.0148 31.2723 53.8742L29.7928 56.1272C27.2041 50.6552 26.9447 44.3458 26.8341 38.0053C25.4294 38.8103 24.0238 39.9048 22.877 41.0948L23.5064 48.1768C24.3203 53.8092 25.8733 59.2167 29.4227 63.7566C30.4961 62.2756 31.2351 60.5687 32.3819 59.2492C34.4532 65.4941 36.5983 71.8346 42.1084 76.7276V76.3095L41.6269 32.6294ZM44.956 32.5329L45.0657 76.6306C46.5824 75.827 47.8774 74.5706 49.2822 73.5086C54.8671 68.3266 59.7116 62.8862 60.5989 56.0302C60.5617 53.9378 59.1184 51.9743 57.0481 50.9758C59.415 49.4948 62.263 47.6608 62.8175 45.0863C63.1876 42.8644 62.4475 40.7404 60.5989 39.1634C56.1245 35.6554 50.8351 33.3379 44.956 32.5329ZM42.847 28.541L31.382 30.6009L30.9023 32.6294C30.5695 34.3674 27.9432 33.6589 26.4655 34.1419C24.3566 34.1104 25.4299 36.3309 24.616 37.3613C22.7301 37.6829 20.7323 37.6829 19.0687 38.4238L19.3276 43.3474C19.8445 58.5732 27.4635 73.2191 43.5875 80.816C61.1163 71.5451 68.6976 55.0647 67.034 37.4569C65.3699 37.0709 63.6687 36.9104 61.9664 36.7174C60.6356 36.1704 61.1167 34.5929 60.4883 33.5954L55.6801 32.9504C53.7208 33.0474 54.5705 30.9559 53.8319 30.0539C50.1705 29.5389 46.5829 28.895 42.848 28.541H42.847ZM57.5292 26.9315C57.8243 28.026 57.8243 29.3139 58.7493 30.0539L64.2971 30.9229C64.6299 31.9214 64.5923 33.2729 65.6642 33.8209L71.3239 34.6569C73.0252 55.0963 65.3699 75.1826 43.5875 85C27.4635 78.4335 17.2196 63.9482 15.8511 49.0448C15.2217 44.7643 15.0748 40.2578 15 35.7519L15.2594 35.3004L21.1757 34.3349C21.7317 33.5624 21.4723 32.5004 21.9162 31.6639C23.7272 31.2454 25.8361 31.2769 27.3157 30.3764L27.9437 27.479L43.2175 25L57.5292 26.9315ZM88.1065 65.8453L83.2428 45.3565H88.1974L89.7476 53.8074M88.1065 65.8453L83.2428 45.3565H88.1974L89.7476 53.8074M88.1065 65.8453L83.2428 45.3565H88.1974L89.7476 53.8074M88.1065 65.8453L83.2428 45.3565H88.1974L89.7476 53.8074M88.1065 65.8453L83.2428 45.3565H88.1974L89.7476 53.8074C90.2037 56.2392 90.6293 58.8839 90.9635 60.9509H91.0247C91.3589 58.7314 91.8452 56.2694 92.3621 53.7466L94.0949 45.356H99.0194L100.661 53.9895C101.117 56.3908 101.451 58.5793 101.755 60.8592H101.816C102.12 58.5793 102.576 56.178 103.001 53.7462L104.674 45.3556H109.385L104.096 65.8444H99.0801L97.3473 57.0287C96.9524 54.9616 96.6181 53.0466 96.3747 50.7061H96.314C95.9492 53.0165 95.6145 54.9621 95.1282 57.0287L93.1826 65.8444H88.1065M120.115 57.121L118.839 52.7741C118.474 51.5581 118.109 50.0381 117.805 48.8222H117.744C117.441 50.0381 117.137 51.5883 116.802 52.7741L115.586 57.121H120.115ZM114.917 60.5866L113.458 65.8453H108.655L114.917 45.3565H120.997L127.35 65.8453H122.365L120.784 60.5861H114.917M134.675 54.4457H136.499C138.81 54.4457 140.177 53.2905 140.177 51.4969C140.177 49.6125 138.901 48.6696 136.773 48.6395C135.648 48.6395 135.01 48.7304 134.675 48.7916V54.4457ZM130.085 45.63C131.575 45.3871 133.794 45.2045 136.256 45.2045C139.296 45.2045 141.424 45.6606 142.883 46.8154C144.099 47.7879 144.768 49.2166 144.768 51.1015C144.768 53.7156 142.913 55.5091 141.15 56.1479V56.2392C142.579 56.8168 143.369 58.1848 143.886 60.0697C144.525 62.3797 145.163 65.0549 145.558 65.8453H140.816C140.481 65.2677 139.995 63.5956 139.387 61.0729C138.84 58.5195 137.958 57.82 136.074 57.7899H134.675V65.8453H130.085V45.63ZM148.111 65.8453V45.3565H153.522L157.778 52.8649C158.994 55.0233 160.209 57.5766 161.121 59.8871H161.212C160.909 57.1817 160.818 54.4156 160.818 51.3454V45.3565H165.073V65.8453H160.209L155.832 57.9415C154.616 55.753 153.279 53.1078 152.275 50.7066L152.184 50.7371C152.306 53.4425 152.367 56.3306 152.367 59.6743V65.8453H148.111ZM181.274 57.1817H173.735V62.0454H182.156V65.8453H169.084V45.3565H181.73V49.1564H173.735V53.4124H181.274V57.1817ZM189.907 54.4457H191.731C194.042 54.4457 195.41 53.2905 195.41 51.4969C195.41 49.6125 194.133 48.6696 192.005 48.6395C190.88 48.6395 190.242 48.7304 189.907 48.7916V54.4457ZM185.317 45.63C186.807 45.3871 189.025 45.2045 191.488 45.2045C194.528 45.2045 196.656 45.6606 198.115 46.8154C199.331 47.7879 200 49.2166 200 51.1015C200 53.7156 198.145 55.5091 196.382 56.1479V56.2392C197.811 56.8168 198.601 58.1848 199.118 60.0697C199.756 62.3797 200.395 65.0549 200.79 65.8453H196.047C195.713 65.2677 195.227 63.5956 194.619 61.0729C194.072 58.5195 193.19 57.82 191.306 57.7899H189.907V65.8453H185.317V45.63ZM214.073 62.5618C214.529 62.6226 215.076 62.6226 215.866 62.6226C217.964 62.6226 219.818 61.8322 219.818 59.6738C219.818 57.6068 217.964 56.7858 215.654 56.7858H214.073V62.5618ZM214.073 53.4727H215.593C218.025 53.4727 219.332 52.4695 219.332 50.9495C219.332 49.3993 218.147 48.5783 216.049 48.5783C215.046 48.5783 214.468 48.639 214.073 48.6998V53.4727ZM209.483 45.63C210.698 45.3871 213.161 45.2045 215.471 45.2045C218.298 45.2045 220.032 45.4784 221.521 46.3597C222.95 47.1195 223.983 48.5176 223.983 50.3723C223.983 52.1965 222.919 53.8987 220.609 54.7498V54.8105C222.95 55.4489 224.683 57.2118 224.683 59.8569C224.683 61.7112 223.831 63.17 222.554 64.2038C221.065 65.3892 218.572 66.0581 214.499 66.0581C212.219 66.0581 210.516 65.906 209.483 65.754V45.6305M232.432 54.4457H234.257C236.567 54.4457 237.935 53.2905 237.935 51.4969C237.935 49.6125 236.658 48.6696 234.53 48.6395C233.405 48.6395 232.767 48.7304 232.432 48.7916V54.4457ZM227.842 45.63C229.332 45.3871 231.551 45.2045 234.014 45.2045C237.053 45.2045 239.181 45.6606 240.64 46.8154C241.856 47.7879 242.525 49.2166 242.525 51.1015C242.525 53.7156 240.671 55.5091 238.908 56.1479V56.2392C240.336 56.8168 241.127 58.1848 241.644 60.0697C242.282 62.3797 242.92 65.0549 243.316 65.8453H238.573C238.239 65.2677 237.752 63.5956 237.145 61.0729C236.597 58.5195 235.716 57.82 233.831 57.7899H232.432V65.8453H227.842V45.63ZM249.698 55.6616C249.698 59.6743 251.583 62.5016 254.684 62.5016C257.815 62.5016 259.608 59.5222 259.608 55.5402C259.608 51.8622 257.845 48.7007 254.654 48.7007C251.522 48.7007 249.698 51.6796 249.698 55.6621V55.6616ZM264.502 55.3881C264.502 62.1062 260.429 66.1795 254.44 66.1795C248.361 66.1795 244.804 61.5893 244.804 55.753C244.804 49.6125 248.726 45.0223 254.775 45.0223C261.068 45.0223 264.502 49.734 264.502 55.3881ZM267.694 61.0724C268.94 61.7107 270.855 62.3491 272.831 62.3491C274.959 62.3491 276.083 61.4678 276.083 60.13C276.083 58.8533 275.111 58.1236 272.648 57.2419C269.244 56.0561 267.025 54.1717 267.025 51.1928C267.025 47.6971 269.943 45.0218 274.777 45.0218C277.087 45.0218 278.789 45.5081 280.005 46.0551L278.971 49.7942C278.151 49.3988 276.692 48.8217 274.685 48.8217C272.679 48.8217 271.706 49.7335 271.706 50.7974C271.706 52.1047 272.861 52.6823 275.506 53.6854C279.123 55.0228 280.826 56.9077 280.826 59.7953C280.826 63.2303 278.181 66.1485 272.557 66.1485C270.216 66.1485 267.907 65.5403 266.751 64.9019L267.694 61.0719M283.47 63.3828C283.47 61.7409 284.595 60.5555 286.206 60.5555C287.817 60.5555 288.912 61.7103 288.912 63.3824C288.912 64.9933 287.817 66.1791 286.175 66.1791C284.595 66.1791 283.47 64.9937 283.47 63.3824" fill="#417DC8"/>
</svg>
