<svg width="303" height="110" viewBox="0 0 303 110" fill="none" xmlns="http://www.w3.org/2000/svg">
<rect x="0.5" y="0.5" width="302" height="109" rx="14.5" stroke="#BABCBE"/>
<path fill-rule="evenodd" clip-rule="evenodd" d="M211.881 90.5V56.889H192.261V90.5H211.881ZM211.881 54.111H192.261V20.5H211.881V54.111ZM237.106 56.9138C239.687 60.5852 241.3 65.0003 241.3 69.4899C241.3 81.0484 231.849 90.5 220.289 90.5H214.684V56.889L237.106 56.9138ZM214.684 54.111L234.603 54.1607C232.816 52.4987 230.385 50.8863 228.028 50.0186C232.891 47.191 236.04 41.9321 236.04 36.2511C236.04 27.6443 228.898 20.5 220.289 20.5H214.684V54.111ZM157.236 90.5H137.664V56.889H157.236V90.5ZM157.236 54.111H137.664V20.5H157.236V54.111ZM160.039 90.5V56.889L182.462 56.9138C185.041 60.5852 186.654 65.0003 186.654 69.4899C186.654 81.0484 177.203 90.5 165.645 90.5H160.039ZM160.039 54.111V20.5H165.645C174.252 20.5 181.42 27.6434 181.42 36.2511C181.42 41.9321 178.245 47.1901 173.382 50.0186C175.739 50.8863 178.17 52.4987 179.957 54.1607L160.039 54.111ZM96.339 54.111H75.453L87.211 20.501H96.339V54.111ZM120.003 54.111L108.221 20.5H99.1427V54.1101L120.003 54.111ZM132.753 90.5H115.24L110.354 76.5101H99.1417V56.889H120.996L132.753 90.5ZM62.7031 90.5H80.2165L85.128 76.5101H96.3399V56.889H74.4859L62.7031 90.5Z" fill="#CC2229"/>
</svg>
