<svg width="303" height="110" viewBox="0 0 303 110" fill="none" xmlns="http://www.w3.org/2000/svg">
<rect x="0.5" y="0.5" width="302" height="109" rx="14.5" stroke="#BABCBE"/>
<path fill-rule="evenodd" clip-rule="evenodd" d="M227.641 74.8367V64.3415H228.442L230.209 63.9873L231.461 63.5371L232.648 62.8645L233.707 62.0945L234.669 61.1323L235.502 60.0383L236.306 58.5311L236.722 57.2793L237.012 55.9629L237.043 54.8401L236.979 53.5237L236.689 52.2074L236.209 50.9871L235.565 49.7998L234.763 48.7415L233.318 47.4251L232.195 46.7182L230.975 46.1403L229.69 45.7876L228.342 45.594H227.637V35.0014L228.857 35.0329L230.879 35.2581L232.836 35.6753L234.732 36.2862L236.529 37.0562L238.264 37.9869L239.966 39.1742L241.634 40.6182L243.079 42.1597L244.266 43.7327L245.293 45.4018L246.097 47.1025L246.641 48.7071L246.801 49.4127V35.7385H256.463L269.303 54.7111L269.272 35.6424L279.802 35.7385V74.3864H270.298L257.234 55.5127V74.3864H246.801V60.682L246.543 61.4191L245.871 63.0896L244.97 64.8219L243.912 66.4595L242.692 68.0009L241.344 69.4134L239.837 70.6982L238.231 71.821L236.529 72.7832L234.7 73.5848L232.647 74.2286L230.622 74.6445L228.698 74.838L227.641 74.8367ZM227.641 35.0014V45.594H226.997L225.649 45.7876L224.367 46.1719L223.144 46.7498L222.021 47.4567L220.995 48.3558L220.097 49.3509L219.36 50.5067L218.813 51.694L218.428 52.9788L218.203 54.3267V55.6431L218.396 56.991L218.75 58.2758L219.297 59.5276L219.552 60.0081L219.745 60.2661L220.131 60.8124L221.062 61.8076L222.089 62.6408L223.244 63.3491L224.496 63.8611L225.781 64.2152L227.129 64.3758L227.644 64.3442V74.8394H226.746L224.819 74.6788L222.894 74.3274L220.967 73.7166L219.139 72.9465L217.404 72.0488L215.798 70.9548L214.355 69.7346L213.744 69.2226L213.232 68.7078V74.3892H191.115V35.7385H201.483V64.8205H210.376L209.99 64.0189L209.574 63.1857L208.866 61.4191L208.322 59.5908L207.937 57.6636L207.743 55.7392V53.8449L207.968 51.8546L208.387 49.8327L208.963 47.874L209.733 46.0758L210.698 44.3751L211.79 42.7705L213.041 41.2606L214.454 39.8811L215.961 38.6608L217.599 37.6012L219.301 36.735L221.098 35.9965L222.96 35.4818L224.885 35.1606L226.809 35L227.641 35.0014ZM118.083 68.0641V59.0747H120.426V51.8848L118.083 55.4482V37.9539L119.43 35.7385H130.602V74.3864H120.426V68.0654L118.083 68.0641ZM139.044 74.3864H149.315V45.1452H156.698V35.7385H131.949V45.1452H139.043L139.044 74.3864ZM157.757 74.3864H168.224V59.8159H178.816V74.3864H189.215V35.7385L178.816 35.7069V50.6014H168.224V35.7385H157.757V74.3864ZM40.2719 45.6585L41.2025 45.9797L42.4544 46.5892L43.6101 47.3606L44.6382 48.2597L45.5373 49.2878L46.2758 50.4435L46.8537 51.6638L47.238 52.9486L47.4631 54.2004L47.5276 55.3548L47.4316 56.5106L47.2064 57.7309L46.7562 58.9827L46.1468 60.203L45.2477 61.3903L44.1249 62.4816L42.873 63.415L41.5567 64.0875L40.2733 64.5378V74.2313L41.2039 74.1023L43.3864 73.556L45.4412 72.8189L47.1735 71.9527L48.8426 70.8588L50.3841 69.6069L51.732 68.2933L52.9194 66.8163L54.0751 65.0813L54.6846 64.0546V74.3892H76.0318V65.0813H64.9889V59.7514H76.0318V50.5698H64.9889V44.8871H76.0318V35.7385H54.6846V46.4286L54.4595 45.8191L53.5933 44.3751L52.406 42.8021L50.8645 41.1659L49.2599 39.785L47.6237 38.6622L45.7295 37.6986L43.3864 36.864L41.0749 36.2532L40.2733 36.1256L40.2719 45.6585ZM118.083 37.9539V55.4482L115.738 59.076L118.083 59.0747V68.0641L112.048 68.0654L111.31 68.8025L109.801 70.1834L108.228 71.4037L106.559 72.4304L104.794 73.2966L102.964 74.0048L101.07 74.5168L99.1113 74.871L97.121 75L95.1622 74.9684L93.2364 74.7104L91.2461 74.2629L89.2228 73.5876L87.3615 72.7544L85.7254 71.7276L84.1523 70.5719L82.7728 69.2871L81.488 67.8417L80.3323 66.3002L79.3357 64.6009L78.438 62.6092L77.6996 60.4267L77.2178 58.4048L76.9926 56.4131L76.9295 54.4887L77.0901 52.5299L77.4113 50.6041L77.9247 48.7113L78.6632 46.817L79.5938 44.9873L80.685 43.3511L81.9053 41.8412L83.2532 40.4933L84.7618 39.2744L86.3664 38.1831L88.1645 37.2209L90.1864 36.3864L92.2413 35.8085L94.1671 35.4557L96.1258 35.2622L98.0832 35.3267L100.009 35.5189L101.935 35.9691L103.861 36.6115L105.69 37.3815L107.391 38.3451L108.964 39.4679L110.408 40.7198L111.628 41.94L112.11 42.5179L106.782 50.8004L106.108 50.191L105.434 49.5815L103.925 48.4573L102.223 47.4306L100.393 46.596L98.5636 46.0827L96.9576 45.8905L95.4175 45.9866L93.8445 46.3723L92.3044 46.9502L91.0526 47.7518L90.0258 48.6179L89.1583 49.646L88.4198 50.8018L87.8749 52.0536L87.4892 53.37L87.33 54.6795V55.9958L87.5551 57.3122L87.9724 58.597L88.5502 59.8488L89.3217 60.9717L90.2523 61.9668L91.2804 62.7684L92.4362 63.441L93.721 63.9558L95.165 64.277L96.6104 64.4376L97.9899 64.3415L99.2747 64.0834L100.559 63.6003L101.715 62.9922L102.806 62.2221L103.673 61.4507L104.058 61.0677L118.083 37.9539ZM32.9846 65.0786V45.1452H35.841L37.2535 45.1767L38.6014 45.3058L39.9164 45.5309L40.2705 45.6599V36.1256L38.729 35.9004L36.0977 35.7399H23V74.3878H38.0235L39.4359 74.326L40.2705 74.23V64.5364L40.1415 64.568L38.6014 64.885L36.8032 65.0141L35.8081 65.0786H32.9846Z" fill="white"/>
</svg>
