<svg width="303" height="110" viewBox="0 0 303 110" fill="none" xmlns="http://www.w3.org/2000/svg">
<rect x="0.5" y="0.5" width="302" height="109" rx="14.5" stroke="#BABCBE"/>
<g clip-path="url(#clip0_667_19073)">
<path d="M274.952 33.2642C274.924 33.1723 274.896 33.0804 274.86 32.9885C253.053 32.9977 231.255 32.9885 209.457 32.9977C209.402 33.062 209.365 33.1264 209.356 33.2091C209.356 50.0885 209.356 66.9587 209.347 83.8383C209.485 84.7387 209.982 85.5564 210.645 86.1722C210.672 86.1814 210.737 86.1903 210.764 86.1996C211.105 86.5578 211.593 86.7327 212.053 86.898C212.394 86.8797 212.725 87.0266 213.066 86.9899H240.129C240.387 86.9807 240.653 87.0266 240.902 86.9256C240.911 86.8891 240.92 86.8246 240.929 86.7878C240.939 86.7419 240.948 86.6408 240.957 86.5858C241.537 83.3515 242.099 80.1078 242.715 76.8735L242.771 76.46C240.267 76.4506 237.754 76.46 235.25 76.4506C234.643 76.4323 234.017 76.4506 233.409 76.377C232.369 76.3311 231.32 76.3678 230.28 76.2668C228.991 76.2668 227.711 76.1473 226.423 76.1473C225.41 76.0462 224.388 76.0831 223.366 76.0371C222.704 75.9546 222.023 75.9912 221.351 75.9635C220.255 75.8442 219.141 75.927 218.046 75.8074C216.886 75.8168 215.726 75.7155 214.567 75.6879C214.576 75.6787 214.585 75.6419 214.585 75.6327C214.972 75.6419 215.349 75.6145 215.736 75.6053C216.592 75.4949 217.457 75.5685 218.313 75.449C219.206 75.449 220.09 75.3296 220.983 75.3296C221.774 75.2193 222.575 75.2837 223.366 75.1733C224.296 75.1733 225.207 75.054 226.137 75.0447C226.901 74.9436 227.675 74.9987 228.439 74.8977C229.332 74.9068 230.215 74.769 231.108 74.7783C231.983 74.677 232.875 74.7045 233.75 74.6126C233.667 74.2729 233.603 73.9329 233.529 73.5927C233.465 73.3814 233.207 73.4274 233.041 73.3997C231.044 73.1147 229.055 72.8301 227.067 72.5545C227.196 72.4532 227.371 72.4992 227.518 72.4809C229.065 72.3613 230.602 72.2235 232.148 72.1133C232.498 72.095 232.839 72.0306 233.189 72.0214C233.032 71.5437 232.94 71.0199 232.728 70.5789C229.424 70.0735 226.119 69.6233 222.824 69.0811C223.68 68.9433 224.545 68.879 225.401 68.7871L225.475 68.7595C228.209 68.4745 230.952 68.1529 233.686 67.8866C237.156 67.8683 240.617 67.8772 244.087 67.8866C244.198 67.8683 244.391 67.9231 244.41 67.767C244.695 66.2786 244.971 64.7901 245.256 63.3014C245.652 61.2341 246.278 59.1941 247.245 57.3105C248.763 54.2782 251.166 51.7054 254.093 49.9964C256.827 48.3976 259.994 47.6258 263.142 47.4788C264.164 47.3869 265.195 47.4144 266.207 47.5431C266.87 47.6993 267.551 47.8831 268.076 48.3333C268.508 48.6825 268.766 49.197 268.959 49.7116C269.383 50.9337 269.622 52.2017 269.825 53.4789C269.834 53.9935 269.926 54.5724 269.65 55.041C269.392 55.5004 268.877 55.7209 268.389 55.8588C266.612 56.3182 264.753 55.8862 262.976 56.3182C261.513 56.6306 260.15 57.4391 259.22 58.6062C258.125 59.966 257.545 61.6565 257.223 63.3475C256.974 64.8544 256.661 66.3613 256.413 67.8774C258.162 67.8868 259.92 67.8682 261.678 67.8867C262.378 67.8867 263.096 68.2726 263.381 68.9341C263.749 69.7795 263.667 70.7352 263.547 71.6264C263.4 72.628 263.16 73.6203 262.709 74.5391C262.332 75.3201 261.706 76.037 260.85 76.3126C260.408 76.4872 259.929 76.4504 259.46 76.4504C257.913 76.4504 256.367 76.4687 254.82 76.4504C254.572 77.5807 254.406 78.7384 254.185 79.887C253.78 82.1197 253.384 84.3617 252.979 86.6039C252.97 86.6775 252.961 86.8336 252.961 86.9163C253.688 86.953 254.415 86.9163 255.143 86.9346C260.537 86.9346 265.94 86.9252 271.344 86.9346C271.924 86.953 272.513 86.8152 273.019 86.5303C273.323 86.4201 273.507 86.1535 273.774 86.0066C274.032 85.8596 274.105 85.5565 274.326 85.3634C274.565 84.9407 274.814 84.4998 274.832 84.0034C274.86 84.0034 274.934 83.9942 274.97 83.9851C274.942 67.0783 274.97 50.1712 274.952 33.2642Z" fill="url(#paint0_linear_667_19073)" stroke="#FCD109" stroke-width="0.094"/>
<path d="M217.936 22.1459C218.718 21.8978 219.537 22.0632 220.338 22.0081C235.37 22.0173 250.402 22.0081 265.434 22.0081C266.327 21.9713 267.11 22.4767 267.938 22.734C268.601 23.0004 269.291 23.2118 269.954 23.4966C270.092 23.5517 270.193 23.6712 270.294 23.7723C270.285 24.9852 270.294 26.2073 270.294 27.4293C270.304 27.7509 270.248 28.0817 270.359 28.3941C270.552 28.4217 270.653 28.5687 270.782 28.6882C271.39 28.9638 271.905 29.4141 272.458 29.7816C273.286 30.3697 274.17 30.8843 274.98 31.4907C275.016 31.7296 274.989 31.9777 274.915 32.1982C274.833 32.4555 274.888 32.7312 274.86 32.9884C253.053 32.9976 231.255 32.9884 209.458 32.9976C209.412 32.6944 209.494 32.3912 209.366 32.1063C209.347 31.8674 209.264 31.555 209.494 31.3896C210.415 30.7464 211.391 30.1675 212.293 29.4876C212.854 29.1292 213.397 28.7617 213.94 28.3941C214.051 28.2104 214.014 27.9807 214.014 27.7785C214.014 26.4462 214.014 25.1138 214.023 23.7815C214.336 23.3772 214.879 23.3312 215.312 23.1291C216.187 22.7983 217.07 22.4767 217.936 22.1459ZM217.991 22.3021C216.813 22.7523 215.625 23.1842 214.447 23.6344C214.29 23.662 214.207 23.7998 214.125 23.9193C214.134 23.9928 214.143 24.1214 214.143 24.195C214.134 25.2976 214.143 26.4002 214.134 27.5028C214.143 27.7785 214.106 28.0542 214.207 28.3023C214.088 28.4217 213.959 28.5412 213.812 28.633C212.477 29.4968 211.188 30.434 209.853 31.2886C209.623 31.4264 209.366 31.6102 209.439 31.9134C209.393 32.0788 209.476 32.2166 209.651 32.1707C212.541 32.1523 215.423 32.189 218.313 32.1431C222.612 32.1431 226.902 32.1523 231.2 32.1431L231.265 32.1155C231.458 32.1615 231.651 32.1431 231.854 32.1431C239.641 32.1431 247.429 32.1523 255.225 32.1431C257.674 32.1523 260.132 32.1431 262.59 32.1431C266.64 32.1431 270.699 32.1798 274.75 32.1615C274.869 32.1339 274.906 32.0512 274.86 31.9042C274.851 31.7572 274.906 31.555 274.75 31.4631C274.105 31.1599 273.553 30.6913 272.936 30.3237C272.715 30.14 272.43 30.0389 272.264 29.7908C271.629 29.4325 271.04 28.9914 270.414 28.5963C270.294 28.5228 270.202 28.4033 270.101 28.3023C270.156 28.1093 270.175 27.898 270.175 27.6958C270.165 26.5289 270.175 25.3619 270.165 24.195C270.193 24.0112 270.184 23.7998 270.018 23.6804C268.913 23.2853 267.818 22.8626 266.723 22.4583C266.382 22.2929 266.005 22.201 265.636 22.1459H218.589C218.387 22.1551 218.193 22.2562 217.991 22.3021Z" fill="#F8F3B5" stroke="#F8F3B5" stroke-width="0.094"/>
<path d="M214.143 24.1949C214.953 24.5349 215.818 24.7279 216.638 25.0587C217.08 25.2333 217.218 25.7111 217.411 26.097C217.218 26.2899 216.987 26.4462 216.757 26.5932C215.91 27.1629 215.045 27.7142 214.207 28.3023C214.106 28.0542 214.143 27.7785 214.134 27.5028C214.143 26.4002 214.134 25.2976 214.143 24.1949ZM267.671 25.0587C268.49 24.7371 269.346 24.5165 270.166 24.1949C270.175 25.3619 270.166 26.5289 270.175 27.6958C270.175 27.898 270.156 28.1093 270.101 28.3023C269.383 27.8061 268.656 27.3374 267.938 26.8505C267.588 26.5932 267.202 26.4002 266.889 26.0878C267.082 25.7019 267.229 25.2333 267.671 25.0587Z" fill="#F7B402" stroke="#F7B402" stroke-width="0.094"/>
<path d="M228.19 25.4355C229.202 25.1966 230.334 26.097 230.252 27.1537C230.261 28.192 229.165 29.0374 228.162 28.7985C227.757 28.6607 227.37 28.4493 227.122 28.091C226.8 27.604 226.726 26.9516 226.984 26.4186C227.168 25.9041 227.665 25.5549 228.19 25.4355ZM254.452 26.0143C254.875 25.5457 255.547 25.2792 256.173 25.4446C256.643 25.5825 257.103 25.8857 257.306 26.3451C257.711 27.1353 257.398 28.2012 256.606 28.6147C255.906 29.0006 255.023 28.8169 254.489 28.2564C253.946 27.6407 253.909 26.63 254.452 26.0143Z" fill="#BDA727" stroke="#BDA727" stroke-width="0.094"/>
<path d="M216.758 26.5931C216.988 26.4461 217.218 26.2899 217.411 26.097L217.476 26.1613C217.54 26.6391 217.494 27.1261 217.512 27.6039C217.485 29.0373 217.54 30.4799 217.476 31.9133C214.797 31.9133 212.118 31.895 209.44 31.9133C209.366 31.6101 209.624 31.4263 209.854 31.2885C211.189 30.434 212.477 29.4967 213.812 28.633C213.959 28.5411 214.088 28.4217 214.208 28.3022C215.046 27.7142 215.911 27.1628 216.758 26.5931ZM266.797 26.4094C266.797 26.2899 266.824 26.1888 266.889 26.0878C267.202 26.4002 267.588 26.5931 267.938 26.8504C268.656 27.3374 269.383 27.806 270.101 28.3022C270.202 28.4033 270.295 28.5227 270.414 28.5963C271.04 28.9914 271.629 29.4324 272.264 29.7908C272.43 30.0389 272.715 30.1399 272.936 30.3237C273.553 30.6913 274.105 31.1599 274.75 31.4631C274.906 31.555 274.851 31.7571 274.86 31.9042C272.181 31.9133 269.512 31.895 266.833 31.9133C266.787 31.5458 266.815 31.1783 266.806 30.8199C266.806 29.3497 266.788 27.8795 266.797 26.4094Z" fill="#F7E62D" stroke="#F7E62D" stroke-width="0.094"/>
<path d="M274.86 31.9042C272.181 31.9134 269.511 31.895 266.833 31.9134C266.787 31.5458 266.814 31.1783 266.805 30.8199C266.805 29.3497 266.787 27.8796 266.796 26.4094C266.796 26.2899 266.823 26.1889 266.888 26.0878C267.081 25.7019 267.228 25.2332 267.67 25.0587C268.489 24.7371 269.346 24.5165 270.165 24.1949C270.193 24.0112 270.183 23.7998 270.017 23.6804C268.913 23.2853 267.818 22.8626 266.722 22.4583C266.381 22.2929 266.004 22.201 265.636 22.1459H218.588C218.386 22.1551 218.193 22.2561 217.99 22.3021C216.812 22.7523 215.624 23.1842 214.446 23.6344C214.29 23.662 214.207 23.7998 214.124 23.9193C214.133 23.9928 214.142 24.1214 214.142 24.1949C214.952 24.5349 215.817 24.7279 216.637 25.0587C217.079 25.2332 217.217 25.7111 217.41 26.097L217.474 26.1613C217.539 26.6391 217.493 27.1261 217.511 27.6039C217.484 29.0373 217.539 30.4799 217.474 31.9134C214.796 31.9134 212.117 31.895 209.438 31.9134C209.392 32.0788 209.475 32.2166 209.65 32.1706C212.54 32.1523 215.422 32.189 218.312 32.1431C222.611 32.1431 226.901 32.1523 231.199 32.1431L231.264 32.1155C231.457 32.1615 231.65 32.1431 231.853 32.1431C239.64 32.1431 247.428 32.1523 255.225 32.1431C257.673 32.1523 260.131 32.1431 262.589 32.1431C266.639 32.1431 270.698 32.1798 274.749 32.1615C274.869 32.1339 274.906 32.0512 274.86 31.9042ZM226.984 26.4186C227.168 25.904 227.665 25.5548 228.19 25.4354C229.202 25.1965 230.334 26.097 230.251 27.1537C230.261 28.192 229.165 29.0373 228.162 28.7984C227.757 28.6606 227.37 28.4493 227.122 28.0909C226.8 27.6039 226.726 26.9515 226.984 26.4186ZM254.452 26.0143C254.875 25.5457 255.547 25.2792 256.173 25.4446C256.643 25.5824 257.103 25.8856 257.305 26.3451C257.71 27.1353 257.397 28.2012 256.606 28.6147C255.906 29.0006 255.023 28.8168 254.489 28.2563C253.946 27.6407 253.908 26.6299 254.452 26.0143Z" fill="url(#paint1_radial_667_19073)" stroke="#FCD109" stroke-width="0.094"/>
<path d="M256.798 35.9422C256.927 35.9698 256.128 35.1753 256.284 35.1386C256.431 35.157 256.99 34.7243 257.665 35.0773C258.34 35.4303 258.172 36.2565 258.096 36.5628C258.005 36.9274 257.772 37.1601 257.588 37.3438C257.487 37.4265 257.26 37.5552 257.122 37.546C257.205 37.0958 256.938 37.0222 256.919 36.5628L256.798 35.9422Z" fill="url(#paint2_linear_667_19073)" stroke="#FCD109" stroke-width="0.094"/>
<path d="M227.372 36.4403C227.354 36.8997 227.087 36.9733 227.17 37.4235C227.032 37.4327 226.805 37.304 226.704 37.2213C226.519 37.0376 226.287 36.8049 226.196 36.4403C226.119 36.1341 225.952 35.3079 226.627 34.9548C227.302 34.6017 227.86 35.0344 228.008 35.0161C228.164 35.0528 227.365 35.8473 227.493 35.8197L227.372 36.4403Z" fill="url(#paint3_linear_667_19073)" stroke="#FCD109" stroke-width="0.094"/>
<path d="M255.593 41.8285C255.732 41.7085 255.824 41.7085 256.008 41.7085C254.903 44.0975 253.615 46.4866 251.677 48.3466C251.47 48.5313 251.251 48.7025 251.022 48.8592C250.8 49.0212 250.582 49.1731 250.366 49.328C250.154 49.4747 249.944 49.6223 249.739 49.7762C249.214 50.061 248.754 50.4562 248.174 50.6307C247.116 51.1361 245.974 51.4761 244.824 51.715C244.373 51.7886 243.912 51.8988 243.452 51.9079C242.881 52.0734 242.274 51.9539 241.694 51.9906C241.372 52.0458 241.086 51.862 240.773 51.8988C240.502 51.8604 240.231 51.8145 239.962 51.7608C239.689 51.7051 239.417 51.6408 239.148 51.568C234.928 50.2539 230.786 47.0379 229.579 42.6885C229.525 42.3955 229.497 42.0983 229.497 41.8004C229.626 42.0577 229.759 42.3131 229.898 42.5662C231.614 46.3028 235.02 49.2432 239.044 50.1298C239.37 50.2784 239.724 50.2263 240.037 50.355C240.322 50.355 240.599 50.3458 240.875 50.4377C241.823 50.456 242.771 50.4469 243.719 50.4469C243.848 50.456 243.967 50.3917 244.097 50.3642C245.677 50.3107 247.225 49.8805 248.667 49.2281C248.955 49.0976 249.239 48.9582 249.518 48.8112C249.763 48.6828 250.001 48.5437 250.233 48.3942C250.461 48.2475 250.683 48.0913 250.898 47.926C252.602 46.5785 254.075 44.8326 255.075 42.825C255.265 42.4637 255.439 42.1292 255.593 41.8285Z" fill="#BDA727" stroke="#BDA727" stroke-width="0.094"/>
<path d="M254.093 49.9966C256.827 48.3978 259.993 47.6259 263.141 47.4789C264.163 47.387 265.194 47.4146 266.207 47.5432C266.87 47.6994 267.551 47.8832 268.075 48.3335C267.808 48.3518 267.551 48.2324 267.284 48.1956C266.529 48.0486 265.746 48.1037 264.982 48.0854C262.764 48.0854 260.527 48.2599 258.382 48.8664C257.259 49.2064 256.136 49.6015 255.115 50.1895C253.347 51.1635 251.755 52.4499 250.466 53.9936C248.165 56.6309 246.812 59.9754 246.158 63.3845C245.845 65.2128 245.486 67.0321 245.201 68.8698C244.74 68.9157 244.271 68.8883 243.811 68.8883C241.786 68.8791 239.76 68.8698 237.735 68.8517C237.303 68.8698 236.879 68.769 236.447 68.7964C232.764 68.8147 229.082 68.7872 225.4 68.7872L225.474 68.7595C228.208 68.4745 230.951 68.1529 233.685 67.8866C237.155 67.8683 240.616 67.8772 244.087 67.8866C244.197 67.8683 244.391 67.9232 244.409 67.7671C244.694 66.2786 244.97 64.7901 245.256 63.3014C245.652 61.2343 246.278 59.1943 247.244 57.3106C248.763 54.2784 251.166 51.7056 254.093 49.9966Z" fill="#0D69B3" stroke="#0D69B3" stroke-width="0.094"/>
<path d="M258.383 48.8664C260.528 48.2599 262.765 48.0853 264.983 48.0853C265.747 48.1037 266.53 48.0486 267.285 48.1956C267.551 48.2323 267.809 48.3518 268.076 48.3334C268.509 48.6826 268.767 49.1971 268.96 49.7117C269.384 50.9338 269.623 52.2018 269.825 53.479C269.834 53.9936 269.926 54.5725 269.65 55.0411C269.393 55.5005 268.877 55.7211 268.389 55.8589C266.613 56.3183 264.753 55.8864 262.977 56.3183C261.513 56.6307 260.151 57.4392 259.221 58.6063C258.126 59.9661 257.546 61.6566 257.223 63.3476C256.975 64.8545 256.662 66.3614 256.413 67.8775C256.303 68.2176 256.239 68.5851 256.174 68.9436C257.914 68.9712 259.654 68.9435 261.393 68.9618C262.056 68.9435 262.719 68.9801 263.382 68.9342C263.75 69.7796 263.667 70.7353 263.547 71.6265C263.4 72.6281 263.161 73.6204 262.71 74.5392C262.332 75.3203 261.706 76.0371 260.85 76.3127C260.408 76.4873 259.93 76.4505 259.46 76.4505C257.914 76.4505 256.367 76.4688 254.821 76.4505C254.572 77.5808 254.407 78.7385 254.186 79.8871C253.781 82.1198 253.385 84.3618 252.98 86.604C252.971 86.6776 252.961 86.8337 252.961 86.9164V86.9256C248.939 86.9256 244.925 86.9349 240.903 86.9256C240.912 86.889 240.921 86.8245 240.93 86.7877C240.94 86.7418 240.949 86.6407 240.958 86.5857C240.967 86.6593 240.976 86.7971 240.986 86.8613C241.234 86.889 241.685 87.0174 241.75 86.6593C242.376 83.2778 242.956 79.878 243.6 76.4965C243.352 76.4414 243.094 76.4414 242.836 76.4873C242.799 76.6159 242.762 76.7445 242.716 76.8731L242.772 76.4596C240.268 76.4503 237.755 76.4596 235.251 76.4503C234.643 76.4322 234.018 76.4503 233.41 76.3769C232.37 76.3309 231.321 76.3677 230.28 76.2665C228.992 76.2665 227.712 76.1471 226.423 76.1471C225.411 76.0461 224.389 76.0827 223.367 76.0368C222.705 75.9543 222.023 75.9908 221.352 75.9634C220.256 75.8438 219.142 75.9268 218.047 75.8071C216.887 75.8164 215.727 75.7152 214.567 75.6877C214.577 75.6785 214.586 75.6418 214.586 75.6326C214.972 75.6418 215.35 75.6141 215.736 75.6049C216.593 75.4947 217.458 75.5682 218.314 75.4488C219.207 75.4488 220.09 75.3293 220.983 75.3293C221.775 75.2191 222.576 75.2833 223.367 75.1731C224.297 75.1731 225.208 75.0536 226.138 75.0445C226.902 74.9434 227.675 74.9986 228.44 74.8975C229.332 74.9067 230.216 74.7688 231.109 74.7779C231.983 74.6767 232.876 74.7043 233.751 74.6125C233.668 74.2726 233.603 73.9327 233.53 73.5925C233.466 73.3811 233.208 73.427 233.042 73.3996C231.045 73.1145 229.056 72.8298 227.068 72.5541C227.197 72.4529 227.372 72.4988 227.519 72.4807C229.065 72.361 230.603 72.2231 232.149 72.1132C232.499 72.0947 232.84 72.0305 233.189 72.0213C233.033 71.5434 232.941 71.0197 232.729 70.5786C229.425 70.0732 226.12 69.623 222.824 69.0809C223.68 68.9431 224.546 68.8787 225.402 68.7868C229.084 68.7868 232.766 68.8144 236.448 68.796C236.88 68.7685 237.304 68.8696 237.737 68.8513C239.762 68.8696 241.787 68.879 243.812 68.8879C244.272 68.8879 244.742 68.9155 245.202 68.8696C245.487 67.0319 245.846 65.2124 246.159 63.3841C246.813 59.9749 248.166 56.6305 250.467 53.9934C251.756 52.4496 253.349 51.1632 255.116 50.1892C256.137 49.6014 257.26 49.2063 258.383 48.8664Z" fill="#107BD4" stroke="#107BD4" stroke-width="0.094"/>
<path d="M256.412 67.8776C258.161 67.8869 259.92 67.8684 261.678 67.8869C262.377 67.8869 263.095 68.2728 263.381 68.9343C262.718 68.9802 262.055 68.9436 261.392 68.9619C259.653 68.9436 257.913 68.9713 256.173 68.9436C256.238 68.5852 256.302 68.2176 256.412 67.8776ZM242.835 76.4874C243.093 76.4414 243.351 76.4414 243.599 76.4966C242.955 79.8781 242.375 83.2778 241.749 86.6593C241.684 87.0175 241.233 86.8891 240.985 86.8614C240.975 86.7972 240.966 86.6593 240.957 86.5857C241.537 83.3514 242.098 80.1078 242.715 76.8735C242.761 76.7446 242.798 76.6161 242.835 76.4874Z" fill="#0D69B3" stroke="#0D69B3" stroke-width="0.094"/>
<path d="M257.218 36.1995C257.144 36.0617 257.135 35.8963 257.135 35.7401L257.061 35.7493C256.951 35.345 256.611 34.9591 256.169 34.9407C255.837 34.9131 255.423 34.9223 255.23 35.2347C254.862 35.7309 255.036 36.3649 255.018 36.9254C255.018 36.9622 255.027 37.0265 255.027 37.0633C255.027 37.44 254.981 37.8075 254.917 38.1751C254.862 38.2854 254.834 38.4048 254.834 38.5334C254.678 39.3972 254.364 40.2517 253.941 41.0327C253.858 41.143 253.794 41.2625 253.766 41.3911C253.49 41.8689 253.159 42.31 252.818 42.751C252.763 42.797 252.717 42.8521 252.671 42.9072C252.431 43.2013 252.174 43.4494 251.907 43.7066C251.842 43.7434 251.796 43.7893 251.741 43.8261C251.428 44.1293 251.078 44.4142 250.701 44.6439C250.655 44.6714 250.609 44.7082 250.553 44.7449C248.197 46.2978 245.334 46.941 242.545 46.9686C240.179 47.0421 237.795 46.5367 235.659 45.5168C235.623 45.4984 235.531 45.4617 235.494 45.4433C235.135 45.2503 234.767 45.0849 234.435 44.846C234.362 44.8093 234.288 44.7633 234.205 44.7266C233.864 44.5244 233.542 44.3039 233.239 44.0466C233.137 43.9547 233.027 43.8812 232.916 43.7985C232.585 43.532 232.244 43.2472 231.959 42.9256C231.886 42.8429 231.812 42.7694 231.738 42.6959C230.735 41.6576 229.953 40.3895 229.538 39.0113C229.142 37.9178 229.198 36.7233 229.152 35.5747C228.82 35.0693 228.121 34.7845 227.569 35.0969C227.338 35.2623 227.311 35.5655 227.136 35.7769C226.851 38.8091 228.148 41.8322 230.22 44.019C230.22 44.0926 230.256 44.1385 230.321 44.1661C230.689 44.506 231.048 44.8552 231.416 45.186C231.481 45.2503 231.554 45.3146 231.637 45.3698C232.005 45.673 232.401 45.9487 232.788 46.2335C232.861 46.2886 232.935 46.3346 233.018 46.3805C233.524 46.6746 234.003 47.0237 234.546 47.2259C234.583 47.2534 234.647 47.2994 234.684 47.3178C236.433 48.1539 238.32 48.7236 240.253 48.9074C240.465 48.9074 240.677 48.9258 240.888 48.9717C241.809 49.0268 242.729 48.9993 243.65 48.9809C246.494 48.7328 249.431 48.0437 251.806 46.3713L251.833 46.4081C251.907 46.3438 251.971 46.2886 252.045 46.2335C252.423 45.9578 252.791 45.6638 253.159 45.3606C253.242 45.2963 253.334 45.2228 253.417 45.1401C253.822 44.699 254.291 44.2947 254.632 43.7893L254.687 43.8169C254.715 43.771 254.761 43.6791 254.788 43.6331C255.101 43.2104 255.387 42.7694 255.663 42.3283C255.681 42.3008 255.727 42.2548 255.746 42.2273L255.709 42.1905C255.737 42.1538 255.801 42.0802 255.829 42.0435C256.335 41.0144 256.786 39.9393 256.942 38.7999C257.007 38.7723 257.044 38.7172 257.044 38.6529C257.053 38.2854 257.182 37.9362 257.145 37.5686C257.227 37.1184 257.236 36.659 257.218 36.1995Z" fill="white" stroke="white" stroke-width="0.094"/>
<mask id="mask0_667_19073" style="mask-type:luminance" maskUnits="userSpaceOnUse" x="227" y="34" width="31" height="16">
<path d="M257.218 36.1995C257.144 36.0617 257.135 35.8963 257.135 35.7401L257.061 35.7493C256.951 35.345 256.611 34.9591 256.169 34.9407C255.837 34.9131 255.423 34.9223 255.23 35.2347C254.862 35.7309 255.036 36.3649 255.018 36.9254C255.018 36.9622 255.027 37.0265 255.027 37.0633C255.027 37.44 254.981 37.8075 254.917 38.1751C254.862 38.2854 254.834 38.4048 254.834 38.5334C254.678 39.3972 254.364 40.2517 253.941 41.0327C253.858 41.143 253.794 41.2625 253.766 41.3911C253.49 41.8689 253.159 42.31 252.818 42.751C252.763 42.797 252.717 42.8521 252.671 42.9072C252.431 43.2013 252.174 43.4494 251.907 43.7066C251.842 43.7434 251.796 43.7893 251.741 43.8261C251.428 44.1293 251.078 44.4142 250.701 44.6439C250.655 44.6714 250.609 44.7082 250.553 44.7449C248.197 46.2978 245.334 46.941 242.545 46.9686C240.179 47.0421 237.795 46.5367 235.659 45.5168C235.623 45.4984 235.531 45.4617 235.494 45.4433C235.135 45.2503 234.767 45.0849 234.435 44.846C234.362 44.8093 234.288 44.7633 234.205 44.7266C233.864 44.5244 233.542 44.3039 233.239 44.0466C233.137 43.9547 233.027 43.8812 232.916 43.7985C232.585 43.532 232.244 43.2472 231.959 42.9256C231.886 42.8429 231.812 42.7694 231.738 42.6959C230.735 41.6576 229.953 40.3895 229.538 39.0113C229.142 37.9178 229.198 36.7233 229.152 35.5747C228.82 35.0693 228.121 34.7845 227.569 35.0969C227.338 35.2623 227.311 35.5655 227.136 35.7769C226.851 38.8091 228.148 41.8322 230.22 44.019C230.22 44.0926 230.256 44.1385 230.321 44.1661C230.689 44.506 231.048 44.8552 231.416 45.186C231.481 45.2503 231.554 45.3146 231.637 45.3698C232.005 45.673 232.401 45.9487 232.788 46.2335C232.861 46.2886 232.935 46.3346 233.018 46.3805C233.524 46.6746 234.003 47.0237 234.546 47.2259C234.583 47.2534 234.647 47.2994 234.684 47.3178C236.433 48.1539 238.32 48.7236 240.253 48.9074C240.465 48.9074 240.677 48.9258 240.888 48.9717C241.809 49.0268 242.729 48.9993 243.65 48.9809C246.494 48.7328 249.431 48.0437 251.806 46.3713L251.833 46.4081C251.907 46.3438 251.971 46.2886 252.045 46.2335C252.423 45.9578 252.791 45.6638 253.159 45.3606C253.242 45.2963 253.334 45.2228 253.417 45.1401C253.822 44.699 254.291 44.2947 254.632 43.7893L254.687 43.8169C254.715 43.771 254.761 43.6791 254.788 43.6331C255.101 43.2104 255.387 42.7694 255.663 42.3283C255.681 42.3008 255.727 42.2548 255.746 42.2273L255.709 42.1905C255.737 42.1538 255.801 42.0802 255.829 42.0435C256.335 41.0144 256.786 39.9393 256.942 38.7999C257.007 38.7723 257.044 38.7172 257.044 38.6529C257.053 38.2854 257.182 37.9362 257.145 37.5686C257.227 37.1184 257.236 36.659 257.218 36.1995Z" fill="white"/>
</mask>
<g mask="url(#mask0_667_19073)">
<path d="M226.429 35.8891C227.175 36.1228 228.889 35.5349 229.374 36.0729M226.858 38.1556C227.573 37.9072 229.107 37.3191 229.743 37.6656M227.595 40.4221C227.94 40.5339 228.622 39.9277 228.96 39.7501C229.464 39.4857 229.98 39.2831 230.54 39.197M228.699 42.8112C229.056 42.3054 229.483 41.8854 229.998 41.5261C230.508 41.1702 231.905 40.2191 232.504 40.5446M229.743 44.5264C230.147 44.2053 230.312 43.6372 230.737 43.2998C231.251 42.8917 232.038 42.8184 232.565 42.5661M231.476 45.7974C231.597 44.909 232.501 43.837 233.363 43.9137M232.811 47.0379C233.267 46.9924 233.652 45.9743 233.96 45.6292C234.422 45.1124 234.9 44.9534 235.511 44.7714M235.45 48.1406C235.42 47.4977 236.086 45.6546 236.861 45.7515M237.413 48.7532C237.381 47.9935 237.775 45.7083 238.702 45.629M239.439 49.9783C239.263 48.9159 239.274 47.379 240.114 46.6091M241.955 50.2233C241.861 49.3377 240.98 47.5475 241.955 46.8542M244.655 49.6107C244.234 49.1237 243.989 47.2023 244.164 46.6704M247.232 49.1819C246.908 48.5936 246.505 48.041 246.382 47.3581C246.309 46.9499 246.438 46.3685 246.373 46.0578M249.38 48.263C248.676 47.8033 248.481 46.1137 248.705 45.384M251.467 47.3442C250.966 46.2718 250.432 45.4403 250.423 44.2201M253.492 45.384C252.714 44.8614 251.72 43.9115 251.835 42.8725M255.64 43.73C254.457 43.4685 253.038 42.4125 252.326 41.4635M256.621 41.7085C255.769 41.526 252.95 40.4284 253.124 39.3195M257.542 39.5646C256.354 39.1297 254.625 38.7387 253.676 37.9106M258.156 37.6043C257.407 37.6682 256.335 37.3065 255.574 37.1754C254.729 37.03 253.946 36.7458 253.124 36.5628M257.419 35.7054C255.975 35.7916 254.621 35.2985 253.308 34.8478" stroke="#D1D1D1" stroke-width="2"/>
</g>
<path d="M72.6766 40.1234C74.0107 39.9225 75.5458 39.7969 76.6783 40.6259C77.383 41.1533 77.6347 42.1079 77.5843 42.9623C77.6347 44.369 76.9804 45.8764 75.7222 46.6051C74.6147 47.208 73.2809 47.258 72.0475 47.1325C71.217 47.0322 70.3865 46.5801 69.9587 45.8263C69.0021 43.6407 70.185 40.5505 72.6766 40.1234ZM32.7605 41.7062C32.8359 40.9524 33.5155 40.2741 34.2956 40.2994C40.1096 40.2994 45.8981 40.3244 51.6868 40.2994C52.316 40.2491 52.9956 40.5253 53.2974 41.078C53.7252 41.8318 53.3478 42.6608 53.2974 43.4397C53.1214 44.4946 53.1716 45.9017 51.9385 46.3035C47.7103 46.4291 43.482 46.3035 39.2537 46.3538C38.8511 49.0166 38.4736 51.6545 38.0707 54.2924C38.0707 54.3929 38.096 54.6192 38.096 54.7193C41.1916 54.6944 44.2872 54.7193 47.3828 54.6944C48.2386 54.6441 49.1445 55.3729 49.069 56.2771C48.9936 57.2067 48.7922 58.111 48.6665 59.0407C48.5656 59.6686 48.0623 60.2465 47.408 60.3721C43.9599 60.4474 40.4615 60.2967 37.0138 60.4474C36.4599 64.2409 35.8055 68.0343 35.2266 71.828C35.1513 72.5817 34.5471 73.2348 33.7921 73.2597C32.3577 73.285 30.9229 73.285 29.4885 73.2597C28.5573 73.285 27.8022 72.2547 28.0538 71.3755C29.5895 61.4777 31.175 51.6046 32.7605 41.7062ZM58.3309 40.3494C59.6397 40.249 60.9735 40.3244 62.2823 40.2994C63.0878 40.2491 63.8932 40.8771 63.9685 41.7062C63.9685 42.3592 63.7923 43.0125 63.7169 43.6656C62.6598 50.3986 61.5776 57.1315 60.5204 63.8644C60.3694 64.9446 60.0926 66.1002 60.4199 67.2056C60.7974 68.3109 62.4834 67.8336 62.8862 68.9892C63.1379 69.9188 62.8609 70.8985 62.7854 71.8532C62.71 73.1093 61.2754 73.3855 60.294 73.6623C58.1549 74.0641 55.5623 73.7626 54.0271 72.0038C52.9197 70.7229 52.8441 68.9138 53.0709 67.3062C54.4047 58.7645 55.7385 50.2229 57.0977 41.6559C57.1733 41.0278 57.6766 40.45 58.3309 40.3494ZM108.289 41.7062C108.364 40.9524 109.044 40.2994 109.799 40.2994H113.625C114.581 40.2741 115.361 41.3043 115.135 42.2085C114.254 47.7858 113.348 53.3631 112.467 58.94C113.801 58.7392 115.311 58.488 116.242 57.4077C117.802 55.649 119.086 53.6144 120.043 51.479C120.37 50.6498 120.546 49.444 121.628 49.2932C123.063 49.2429 124.522 49.268 125.957 49.2932C126.939 49.268 127.668 50.3734 127.341 51.2778C126.964 52.6096 126.335 53.8404 125.68 55.0212C124.22 57.3828 122.61 59.7191 120.496 61.5781C121.427 64.3666 122.61 67.0799 123.642 69.8184C123.943 70.7228 124.674 71.7778 123.994 72.6573C123.214 73.7124 121.754 73.1846 120.672 73.3102C119.539 73.1846 117.903 73.7624 117.274 72.4813C116.091 69.7428 115.11 66.9293 113.901 64.1909C113.197 64.2158 112.467 64.2411 111.762 64.1658C111.712 64.2663 111.611 64.4671 111.561 64.5678C111.183 67.0799 110.781 69.5923 110.378 72.1044C110.227 72.7073 109.749 73.235 109.094 73.2853C107.761 73.3355 106.401 73.3102 105.042 73.3102C104.463 73.3102 103.935 72.9335 103.683 72.431C103.432 71.9283 103.582 71.3508 103.658 70.7981C105.218 61.1007 106.754 51.4034 108.289 41.7062ZM178.23 44.4446C178.407 43.7409 179.086 43.2637 179.791 43.2887C180.798 43.314 181.829 43.2637 182.861 43.314C183.692 43.339 184.346 44.1681 184.245 44.972C184.094 46.404 183.742 47.8361 183.641 49.2678C184.623 49.2678 185.63 49.2429 186.611 49.2678C187.492 49.2678 188.222 50.1724 188.071 51.0264C187.945 51.8055 187.769 52.5592 187.643 53.3377C187.517 53.9911 186.964 54.5186 186.334 54.619C185.126 54.6944 183.944 54.5687 182.761 54.6944C182.257 58.0606 181.704 61.4269 181.175 64.7937C181.099 65.5725 181.049 66.4516 181.502 67.13C182.182 67.9591 183.364 67.6575 184.321 67.7582C185.076 67.9841 185.554 68.8134 185.428 69.5672C185.302 70.4211 185.277 71.2754 185.076 72.1043C184.774 73.0337 183.692 73.2098 182.861 73.4357C180.571 74.0388 177.928 74.0388 175.89 72.7072C174.002 71.4259 173.7 68.9388 173.901 66.8285C174.43 62.7586 175.261 58.7139 175.714 54.6189C175.009 54.6439 174.153 54.7445 173.625 54.1164C173.021 53.4884 173.323 52.5588 173.423 51.7798C173.575 50.9508 173.549 49.8706 174.455 49.4184C175.185 49.1419 176.016 49.3431 176.796 49.2425C177.274 47.6349 177.727 46.0272 178.23 44.4446ZM164.011 52.5841C165.596 51.0014 167.509 49.695 169.698 49.042C170.655 48.6148 171.888 49.4188 171.863 50.4739C171.687 51.8557 171.36 53.2121 171.133 54.5687C171.032 55.2471 170.453 55.825 169.774 55.9004C167.307 56.3273 165.168 57.8093 163.457 59.5681C163.029 60.0959 162.4 60.5982 162.324 61.3267C161.796 64.8438 161.242 68.361 160.688 71.8781C160.613 72.6317 159.958 73.3605 159.178 73.3103H155.353C154.472 73.3605 153.692 72.4814 153.792 71.6019C154.9 64.6429 156.007 57.7092 157.089 50.7501C157.14 50.0468 157.643 49.3685 158.373 49.293C159.304 49.2428 160.235 49.2678 161.192 49.2678C161.947 49.2678 162.651 49.9461 162.651 50.7251C162.651 51.8053 162.551 52.9106 162.526 54.016C163.13 53.6394 163.507 53.0364 164.011 52.5841ZM69.9333 49.3935C71.2923 49.1173 72.7017 49.3435 74.0608 49.2679C74.8411 49.1676 75.6716 49.6699 75.7973 50.4489C75.8982 51.1522 75.6965 51.8305 75.621 52.5089C74.5893 58.9656 73.5572 65.422 72.5506 71.8784C72.4751 72.6073 71.8713 73.3356 71.0909 73.3104C69.732 73.3104 68.3728 73.3356 66.9888 73.2855C66.1329 73.1848 65.5037 72.2053 65.7303 71.376C66.8126 64.6685 67.8446 57.9857 68.9267 51.2779C68.9771 50.5493 69.1784 49.695 69.9333 49.3935ZM151.376 49.7204C147.626 49.0167 143.801 48.5143 140 48.8911C136.603 49.3183 133.18 50.8509 131.091 53.6394C128.197 57.3072 127.215 62.2314 127.869 66.8038C128.222 68.9893 129.178 71.2002 130.965 72.5567C132.626 73.8381 134.866 74.0138 136.88 73.6872C139.698 73.1344 142.089 71.326 144.052 69.316C144.153 70.1701 143.952 71.0243 144.002 71.8534C144.052 72.632 144.757 73.3605 145.537 73.3103H148.105C148.86 73.3103 149.489 72.6072 149.539 71.8783C150.621 65.0701 151.703 58.2869 152.761 51.504C152.911 50.6497 152.232 49.8207 151.376 49.7204ZM144.304 61.553C143.297 63.4372 141.888 65.1456 140.302 66.6024C139.396 67.3562 138.239 68.1351 137.006 67.884C135.797 67.6327 135.219 66.3766 134.942 65.2963C134.313 62.4826 134.892 59.4175 136.477 56.9808C137.182 55.85 138.314 54.996 139.623 54.6442C141.46 54.1919 143.398 54.4181 145.185 54.9205L145.286 55.0212C145.059 57.2067 144.631 59.3673 144.304 61.553ZM101.972 57.7847C101.947 55.2723 101.267 52.6345 99.5056 50.7502C98.2976 49.4188 96.4854 48.7405 94.7237 48.7654C91.8041 48.6652 89.0609 50.0972 86.9217 52.0063C86.4433 52.3833 86.1163 52.936 85.5879 53.2374C85.5879 52.4081 85.6633 51.5792 85.638 50.7252C85.6633 49.9461 84.9333 49.2679 84.1783 49.2679H81.6111C80.8059 49.2679 80.1514 49.9715 80.1011 50.7501C78.5155 60.7993 76.905 70.8483 75.3193 80.8974C75.0929 81.8268 75.8984 82.7816 76.8547 82.7564C78.264 82.7314 79.6986 82.857 81.0828 82.6557C82.1903 82.3543 82.165 81.073 82.3413 80.1436C82.7438 77.9327 83.0209 75.7219 83.2724 73.486C88.2305 74.4406 93.9939 73.7876 97.6936 70.0442C100.714 66.7534 102.123 62.2061 101.972 57.7847ZM94.925 60.3219C94.7742 62.6332 93.9435 64.9697 92.3329 66.6527C90.244 68.6376 87.0726 68.361 84.5056 67.683C84.4555 67.6075 84.3797 67.4567 84.3546 67.3815C84.7572 65.1958 84.9586 62.985 85.4621 60.8244C86.8715 58.5133 88.5827 56.1767 91.024 54.8956C91.93 54.4686 93.1633 54.569 93.8177 55.3981C94.925 56.7798 95.0257 58.6388 94.925 60.3219Z" fill="#107BD4" stroke="#107BD4" stroke-width="0.101"/>
</g>
<defs>
<linearGradient id="paint0_linear_667_19073" x1="242.159" y1="32.9884" x2="242.159" y2="86.9958" gradientUnits="userSpaceOnUse">
<stop stop-color="#F7E830"/>
<stop offset="1" stop-color="#FDCB06"/>
</linearGradient>
<radialGradient id="paint1_radial_667_19073" cx="0" cy="0" r="1" gradientUnits="userSpaceOnUse" gradientTransform="translate(241.876 57.6211) scale(44.0079 43.9289)">
<stop offset="0.596" stop-color="#F29405"/>
<stop offset="0.736" stop-color="#F7D01E"/>
<stop offset="1" stop-color="#FDCB06"/>
</radialGradient>
<linearGradient id="paint2_linear_667_19073" x1="257.214" y1="34.9375" x2="257.229" y2="37.495" gradientUnits="userSpaceOnUse">
<stop stop-color="#FADA1C"/>
<stop offset="1" stop-color="#FDCB06"/>
</linearGradient>
<linearGradient id="paint3_linear_667_19073" x1="227.078" y1="34.815" x2="227.063" y2="37.3725" gradientUnits="userSpaceOnUse">
<stop stop-color="#FADA1C"/>
<stop offset="1" stop-color="#FDCB06"/>
</linearGradient>
<clipPath id="clip0_667_19073">
<rect width="247" height="65" fill="white" transform="translate(28 22)"/>
</clipPath>
</defs>
</svg>
