<svg width="303" height="110" viewBox="0 0 303 110" fill="none" xmlns="http://www.w3.org/2000/svg">
<rect x="0.5" y="0.5" width="302" height="109" rx="14.5" stroke="#BABCBE"/>
<g clip-path="url(#clip0_667_18960)">
<path d="M167.127 63.0409C166.587 72.0573 168.994 82.6205 178.031 86.8461C185.146 90.1738 192.899 90.6344 200.533 89.1798C205.164 88.2975 209.595 86.8197 213.826 84.7465C213.849 84.7351 213.865 84.717 213.873 84.6922C216.359 76.791 218.846 68.8898 221.333 60.9886C221.56 60.2675 221.727 59.7786 221.835 59.5217C222.863 57.0662 224.806 55.5698 227.295 54.6363C227.335 54.6218 227.335 54.6086 227.295 54.5967C227.202 54.5696 227.054 54.6006 226.986 54.6006C218.359 54.6125 209.732 54.6122 201.105 54.5998C201.102 54.5996 201.099 54.6004 201.096 54.6022C201.094 54.604 201.092 54.6066 201.092 54.6096C201.091 54.6126 201.092 54.6158 201.093 54.6185C201.095 54.6213 201.097 54.6234 201.1 54.6246C203.224 55.5132 204.735 57.205 204.416 59.6256C204.376 59.9347 204.247 60.4342 204.03 61.1243C201.604 68.8621 199.176 76.5995 196.747 84.3363C196.74 84.3606 196.723 84.3756 196.699 84.3813C195.171 84.7266 193.643 84.8258 192.114 84.679C182.694 83.7742 182.211 73.6227 183.155 66.5865C183.725 62.3416 184.743 58.2966 186.009 54.1246C187.541 49.0735 189.709 44.3579 192.512 39.9778C197.013 32.9462 204.057 26.3218 213.133 27.1506C218.169 27.6104 222.503 30.1643 226.333 33.3215C226.36 33.3432 226.378 33.3378 226.388 33.3052L229.164 24.5021C229.171 24.4798 229.163 24.4651 229.142 24.4579C219.762 21.4379 209.473 20.4765 199.807 22.7521C191.025 24.8199 183.431 29.5433 177.483 36.2825C174.923 39.1831 172.879 42.5131 171.299 46.0362C168.873 51.4455 167.482 57.1137 167.127 63.0409ZM99.6877 63.8543C99.9448 63.8853 100.181 63.9098 100.398 63.9279C104.599 64.2851 108.785 64.1564 112.955 63.5418C123.635 61.9679 133.26 56.7692 137.739 46.5247C140.106 41.1129 141.651 34.186 137.986 28.8928C134.591 23.9903 127.731 22.2668 122.12 22.2683C112.119 22.2714 102.125 22.2753 92.1358 22.2799C92.131 22.28 92.1264 22.2816 92.1225 22.2844C92.1187 22.2873 92.1159 22.2913 92.1145 22.2959C92.1131 22.3005 92.1132 22.3054 92.1148 22.3099C92.1164 22.3145 92.1194 22.3183 92.1234 22.321C93.8057 23.4608 94.463 25.2789 93.8507 27.2359C87.9388 46.1236 82.0248 65.0105 76.1087 83.8967C75.4848 85.887 73.3796 88.3122 71.3566 88.986C71.3533 88.9869 71.3505 88.9889 71.3488 88.9918C71.347 88.9946 71.3463 88.9979 71.3469 89.0013C71.3474 89.0047 71.3492 89.0078 71.3518 89.0101C71.3545 89.0124 71.3578 89.0138 71.3612 89.0139H95.7348C95.7364 89.0139 95.7377 89.0134 95.7387 89.0124C95.7444 89.0067 95.7488 89.0005 95.7519 88.9938C95.7571 88.9824 95.7534 88.9754 95.741 88.9728C94.9945 88.8379 94.2403 88.1874 93.8267 87.5935C93.2488 86.7654 93.0109 85.8704 93.1128 84.9085C93.1433 84.6154 93.2698 84.1156 93.4922 83.409C95.5387 76.8967 97.5842 70.3911 99.6287 63.8922C99.6326 63.8801 99.6406 63.8696 99.6513 63.8627C99.6621 63.8557 99.6749 63.8528 99.6877 63.8543Z" stroke="#80A3D6" stroke-width="2.30947"/>
<path d="M154.993 74.681C154.23 73.5661 153.492 72.4057 152.779 71.1998C150.846 67.9333 149.505 64.4047 148.933 60.6412C148.93 60.6159 148.939 60.5976 148.963 60.5862C152.731 58.7913 156.574 57.1352 159.896 54.551C161.642 53.1926 163.194 51.5303 164.197 49.5439C165.838 46.2921 165.407 42.5619 162.663 40.0863C159.105 36.8772 153.716 36.7989 149.512 38.5348C147.685 39.2893 145.94 40.3111 144.58 41.699C140.262 46.1052 139.019 53.0778 139.39 58.9719C139.392 58.9993 139.38 59.0182 139.354 59.0285C137.159 59.8651 134.931 60.5722 132.771 61.5042C128.539 63.3309 124.57 66.0229 122.301 70.1562C120.911 72.6876 120.5 75.813 120.797 78.6686C121.342 83.9192 125.235 88.0812 130.294 89.3605C134.047 90.309 137.822 90.1797 141.62 88.9728C145.112 87.8625 148.436 86.118 151.436 84.0316C151.459 84.0161 151.479 84.0176 151.499 84.0362C152.768 85.2396 154.079 86.3956 155.432 87.5043C155.852 87.8486 157.294 89.0139 157.789 89.0139H174.054C174.058 89.0142 174.062 89.013 174.066 89.0104C174.069 89.0078 174.071 89.0041 174.072 89C174.073 88.9959 174.072 88.9916 174.07 88.988C174.068 88.9844 174.064 88.9818 174.06 88.9806C173.017 88.627 172.004 88.2331 170.99 87.7563C167.847 86.2764 164.876 84.502 162.08 82.4328C160.626 81.3575 159.188 80.1634 157.98 78.812C157.964 78.7939 157.964 78.7761 157.98 78.7585C158.251 78.4598 158.764 77.8697 159.518 76.9884C162.34 73.6917 163.773 69.9205 164.126 65.6398C164.127 65.6346 164.126 65.6293 164.124 65.6244C164.122 65.6194 164.12 65.6148 164.116 65.611C164.112 65.6071 164.108 65.604 164.103 65.6019C164.098 65.5998 164.093 65.5987 164.087 65.5987L155.665 65.598C155.607 65.598 155.602 65.6142 155.649 65.6468C157.1 66.6377 157.363 68.0232 157.136 69.6592C156.885 71.4667 156.212 73.1412 155.118 74.6826C155.075 74.742 155.034 74.7415 154.993 74.681ZM101.309 58.6827C105.098 59.5038 109.114 58.6106 112.287 56.5552C115.647 54.3765 118.078 50.8456 119.607 47.1892C120.808 44.3163 121.664 41.4323 122.173 38.5372C122.575 36.2538 122.663 33.7068 121.812 31.5243C120.635 28.5105 117.708 27.4809 114.694 27.4607C113.503 27.453 112.308 27.4501 111.109 27.4522C111.081 27.4522 111.063 27.4654 111.055 27.4917L101.275 58.6261C101.274 58.632 101.273 58.6383 101.274 58.6444C101.274 58.6506 101.276 58.6565 101.28 58.6619C101.283 58.6672 101.287 58.6718 101.292 58.6754C101.297 58.679 101.303 58.6815 101.309 58.6827Z" stroke="#80A3D6" stroke-width="2.30947"/>
<path d="M157.531 42.5922C157.024 40.936 155.02 40.798 153.723 41.3726C152.94 41.7199 152.262 42.1983 151.691 42.8077C148.496 46.2207 147.686 51.4574 148.128 55.9233C148.131 55.9548 148.147 55.9639 148.175 55.9504C148.475 55.8098 148.708 55.6842 148.873 55.5736C151.853 53.5779 154.708 50.8224 156.473 47.6776C157.275 46.2486 158.021 44.1948 157.531 42.5922ZM131.172 78.5391C132.364 82.208 136.238 83.5997 139.764 83.1965C142.601 82.8724 145.461 81.7691 147.932 80.3666C147.948 80.3578 147.951 80.3461 147.94 80.3317C144.417 75.4739 141.861 70.1489 140.272 64.3566C140.264 64.3277 140.247 64.3194 140.219 64.3318C134.943 66.6981 129.036 71.958 131.172 78.5391Z" stroke="#80A3D6" stroke-width="2.30947"/>
<path d="M68 18.0125H236V92.9875H68V18.0125ZM167.126 63.0409C166.586 72.0573 168.993 82.6205 178.03 86.846C185.146 90.1738 192.899 90.6343 200.532 89.1798C205.164 88.2975 209.595 86.8197 213.826 84.7464C213.849 84.7351 213.864 84.717 213.872 84.6922C216.358 76.791 218.845 68.8898 221.332 60.9886C221.56 60.2675 221.727 59.7785 221.834 59.5216C222.863 57.0661 224.806 55.5697 227.295 54.6362C227.334 54.6218 227.334 54.6086 227.294 54.5967C227.201 54.5696 227.054 54.6006 226.985 54.6006C218.359 54.6125 209.731 54.6122 201.104 54.5998C201.101 54.5995 201.098 54.6004 201.096 54.6022C201.093 54.604 201.092 54.6066 201.091 54.6096C201.091 54.6126 201.091 54.6157 201.093 54.6185C201.094 54.6212 201.097 54.6234 201.099 54.6246C203.223 55.5131 204.735 57.2049 204.416 59.6255C204.375 59.9346 204.246 60.4342 204.03 61.1243C201.603 68.8621 199.176 76.5995 196.747 84.3363C196.739 84.3606 196.723 84.3756 196.698 84.3812C195.171 84.7265 193.643 84.8258 192.114 84.679C182.694 83.7742 182.211 73.6227 183.155 66.5865C183.724 62.3415 184.743 58.2966 186.008 54.1245C187.54 49.0735 189.708 44.3579 192.512 39.9777C197.012 32.9462 204.057 26.3217 213.133 27.1506C218.169 27.6103 222.503 30.1643 226.333 33.3215C226.359 33.3432 226.378 33.3378 226.388 33.3052L229.164 24.502C229.17 24.4798 229.163 24.4651 229.141 24.4578C219.762 21.4379 209.472 20.4765 199.807 22.7521C191.025 24.8199 183.43 29.5433 177.482 36.2825C174.923 39.183 172.879 42.5131 171.299 46.0362C168.872 51.4455 167.482 57.1137 167.126 63.0409ZM99.6872 63.8542C99.9443 63.8852 100.181 63.9098 100.397 63.9279C104.599 64.285 108.785 64.1563 112.955 63.5418C123.635 61.9678 133.26 56.7692 137.739 46.5247C140.106 41.1128 141.651 34.186 137.986 28.8927C134.591 23.9903 127.73 22.2667 122.119 22.2683C112.119 22.2714 102.124 22.2753 92.1354 22.2799C92.1306 22.2799 92.1259 22.2815 92.1221 22.2844C92.1182 22.2873 92.1154 22.2913 92.114 22.2959C92.1126 22.3005 92.1128 22.3054 92.1144 22.3099C92.116 22.3144 92.119 22.3183 92.1229 22.321C93.8053 23.4607 94.4625 25.2789 93.8503 27.2359C87.9383 46.1236 82.0243 65.0105 76.1082 83.8967C75.4843 85.8869 73.3791 88.3122 71.3561 88.986C71.3529 88.9869 71.3501 88.9889 71.3483 88.9917C71.3465 88.9945 71.3459 88.9979 71.3464 89.0013C71.347 89.0046 71.3487 89.0077 71.3514 89.0101C71.354 89.0124 71.3573 89.0137 71.3608 89.0139H95.7344C95.7359 89.0139 95.7372 89.0134 95.7382 89.0123C95.7439 89.0066 95.7483 89.0004 95.7514 88.9937C95.7566 88.9824 95.753 88.9754 95.7406 88.9728C94.9941 88.8379 94.2398 88.1874 93.8262 87.5935C93.2484 86.7654 93.0104 85.8704 93.1123 84.9085C93.1428 84.6154 93.2693 84.1156 93.4918 83.409C95.5383 76.8967 97.5838 70.3911 99.6282 63.8922C99.6321 63.88 99.6401 63.8695 99.6509 63.8626C99.6616 63.8557 99.6745 63.8527 99.6872 63.8542ZM154.992 74.681C154.23 73.5661 153.492 72.4057 152.778 71.1998C150.845 67.9333 149.504 64.4047 148.933 60.6412C148.929 60.6159 148.939 60.5975 148.962 60.5862C152.73 58.7913 156.574 57.1352 159.896 54.551C161.642 53.1926 163.194 51.5302 164.196 49.5438C165.837 46.2921 165.407 42.5619 162.662 40.0863C159.104 36.8772 153.715 36.7989 149.511 38.5348C147.684 39.2892 145.94 40.3111 144.579 41.699C140.261 46.1052 139.019 53.0778 139.39 58.9719C139.391 58.9993 139.379 59.0182 139.353 59.0285C137.159 59.8651 134.931 60.5722 132.77 61.5042C128.538 63.3309 124.569 66.0228 122.3 70.1562C120.91 72.6876 120.5 75.813 120.796 78.6686C121.341 83.9191 125.235 88.0811 130.293 89.3605C134.047 90.309 137.822 90.1797 141.619 88.9728C145.112 87.8625 148.435 86.118 151.436 84.0316C151.458 84.0161 151.479 84.0176 151.498 84.0362C152.767 85.2395 154.079 86.3956 155.431 87.5043C155.851 87.8486 157.294 89.0139 157.788 89.0139H174.053C174.058 89.0142 174.062 89.013 174.065 89.0104C174.068 89.0078 174.071 89.0041 174.071 89C174.072 88.9959 174.071 88.9916 174.069 88.988C174.067 88.9844 174.064 88.9818 174.06 88.9805C173.016 88.627 172.003 88.2331 170.99 87.7563C167.846 86.2764 164.876 84.5019 162.079 82.4328C160.625 81.3574 159.187 80.1634 157.98 78.812C157.964 78.7939 157.964 78.7761 157.98 78.7585C158.251 78.4597 158.763 77.8697 159.518 76.9884C162.339 73.6917 163.772 69.9204 164.125 65.6398C164.126 65.6346 164.125 65.6293 164.123 65.6243C164.122 65.6194 164.119 65.6148 164.115 65.6109C164.112 65.6071 164.107 65.604 164.102 65.6019C164.097 65.5998 164.092 65.5987 164.087 65.5987L155.664 65.5979C155.607 65.5979 155.602 65.6142 155.649 65.6468C157.099 66.6377 157.363 68.0232 157.135 69.6592C156.884 71.4667 156.211 73.1412 155.117 74.6826C155.075 74.742 155.033 74.7415 154.992 74.681Z" fill="#0046AD"/>
<path d="M178.031 86.8461C168.994 82.6205 166.587 72.0573 167.127 63.0409C167.482 57.1137 168.873 51.4455 171.299 46.0362C172.879 42.5131 174.923 39.1831 177.483 36.2825C183.431 29.5433 191.025 24.8199 199.807 22.7521C209.473 20.4765 219.762 21.4379 229.142 24.4579C229.163 24.4651 229.171 24.4798 229.164 24.5021L226.388 33.3052C226.378 33.3378 226.36 33.3432 226.333 33.3215C222.503 30.1643 218.169 27.6104 213.133 27.1506C204.057 26.3218 197.013 32.9462 192.512 39.9778C189.709 44.3579 187.541 49.0735 186.009 54.1246C184.743 58.2966 183.725 62.3416 183.155 66.5865C182.211 73.6227 182.694 83.7742 192.114 84.679C193.643 84.8258 195.171 84.7266 196.699 84.3813C196.723 84.3756 196.74 84.3606 196.747 84.3363C199.176 76.5995 201.604 68.8621 204.03 61.1243C204.247 60.4342 204.376 59.9347 204.416 59.6256C204.735 57.205 203.224 55.5132 201.1 54.6246C201.097 54.6234 201.095 54.6213 201.093 54.6185C201.092 54.6158 201.091 54.6126 201.092 54.6096C201.092 54.6066 201.094 54.604 201.096 54.6022C201.099 54.6004 201.102 54.5996 201.105 54.5998C209.732 54.6122 218.359 54.6125 226.986 54.6006C227.054 54.6006 227.202 54.5696 227.295 54.5967C227.335 54.6086 227.335 54.6218 227.295 54.6363C224.806 55.5698 222.863 57.0662 221.835 59.5217C221.727 59.7786 221.56 60.2675 221.333 60.9886C218.846 68.8898 216.359 76.791 213.873 84.6922C213.865 84.717 213.849 84.7351 213.826 84.7465C209.595 86.8197 205.164 88.2975 200.533 89.1798C192.899 90.6344 185.146 90.1738 178.031 86.8461ZM99.6877 63.8543C99.6749 63.8528 99.6621 63.8557 99.6513 63.8627C99.6406 63.8696 99.6326 63.8801 99.6287 63.8922C97.5842 70.3911 95.5387 76.8967 93.4922 83.409C93.2698 84.1156 93.1433 84.6154 93.1128 84.9085C93.0109 85.8704 93.2488 86.7654 93.8267 87.5935C94.2403 88.1874 94.9945 88.8379 95.741 88.9728C95.7534 88.9754 95.7571 88.9824 95.7519 88.9938C95.7488 89.0005 95.7444 89.0067 95.7387 89.0124C95.7377 89.0134 95.7364 89.0139 95.7348 89.0139H71.3612C71.3578 89.0138 71.3545 89.0124 71.3518 89.0101C71.3492 89.0078 71.3474 89.0047 71.3469 89.0013C71.3463 88.9979 71.347 88.9946 71.3488 88.9918C71.3505 88.9889 71.3533 88.9869 71.3566 88.986C73.3796 88.3122 75.4848 85.887 76.1087 83.8967C82.0248 65.0105 87.9388 46.1236 93.8507 27.2359C94.463 25.2789 93.8057 23.4608 92.1234 22.321C92.1194 22.3183 92.1164 22.3145 92.1148 22.3099C92.1132 22.3054 92.1131 22.3005 92.1145 22.2959C92.1159 22.2913 92.1187 22.2873 92.1225 22.2844C92.1264 22.2816 92.131 22.28 92.1358 22.2799C102.125 22.2753 112.119 22.2714 122.12 22.2683C127.731 22.2668 134.591 23.9903 137.986 28.8928C141.651 34.186 140.106 41.1129 137.739 46.5247C133.26 56.7692 123.635 61.9679 112.955 63.5418C108.785 64.1564 104.599 64.2851 100.398 63.9279C100.181 63.9098 99.9448 63.8853 99.6877 63.8543ZM101.309 58.6828C105.098 59.5038 109.114 58.6107 112.286 56.5552C115.647 54.3765 118.078 50.8457 119.607 47.1892C120.808 44.3163 121.664 41.4323 122.173 38.5372C122.575 36.2538 122.663 33.7069 121.812 31.5243C120.635 28.5105 117.708 27.4809 114.694 27.4607C113.503 27.453 112.308 27.4501 111.109 27.4522C111.081 27.4522 111.063 27.4654 111.055 27.4918L101.275 58.6262C101.273 58.6321 101.273 58.6383 101.274 58.6445C101.274 58.6506 101.276 58.6565 101.279 58.6619C101.283 58.6672 101.287 58.6718 101.292 58.6754C101.297 58.679 101.303 58.6815 101.309 58.6828Z" fill="white"/>
<path d="M101.308 58.6827C101.302 58.6815 101.296 58.679 101.291 58.6754C101.286 58.6718 101.282 58.6672 101.279 58.6619C101.275 58.6565 101.273 58.6506 101.273 58.6444C101.272 58.6383 101.273 58.632 101.275 58.6261L111.054 27.4917C111.062 27.4654 111.08 27.4522 111.108 27.4522C112.307 27.4501 113.502 27.453 114.693 27.4607C117.707 27.4809 120.634 28.5105 121.811 31.5243C122.662 33.7068 122.574 36.2538 122.172 38.5372C121.663 41.4323 120.808 44.3163 119.606 47.1892C118.077 50.8456 115.646 54.3765 112.286 56.5552C109.113 58.6106 105.097 59.5038 101.308 58.6827Z" fill="#0046AD"/>
<path d="M154.992 74.681C155.033 74.7415 155.074 74.742 155.117 74.6826C156.211 73.1412 156.884 71.4667 157.135 69.6592C157.363 68.0232 157.099 66.6377 155.648 65.6468C155.601 65.6142 155.606 65.5979 155.664 65.5979L164.086 65.5987C164.092 65.5987 164.097 65.5998 164.102 65.6019C164.107 65.604 164.111 65.6071 164.115 65.6109C164.119 65.6148 164.121 65.6194 164.123 65.6243C164.125 65.6293 164.126 65.6346 164.125 65.6398C163.772 69.9205 162.339 73.6917 159.517 76.9884C158.763 77.8697 158.25 78.4597 157.979 78.7585C157.963 78.7761 157.963 78.7939 157.979 78.812C159.187 80.1634 160.625 81.3574 162.079 82.4328C164.876 84.5019 167.846 86.2764 170.99 87.7563C172.003 88.2331 173.016 88.627 174.059 88.9805C174.063 88.9818 174.067 88.9844 174.069 88.988C174.071 88.9916 174.072 88.9959 174.071 89C174.07 89.0041 174.068 89.0078 174.065 89.0104C174.061 89.013 174.057 89.0142 174.053 89.0139H157.788C157.293 89.0139 155.851 87.8486 155.431 87.5043C154.078 86.3956 152.767 85.2395 151.498 84.0362C151.478 84.0176 151.458 84.0161 151.436 84.0316C148.435 86.118 145.111 87.8625 141.619 88.9728C137.821 90.1797 134.046 90.309 130.293 89.3605C125.235 88.0812 121.341 83.9191 120.796 78.6686C120.5 75.813 120.91 72.6876 122.3 70.1562C124.569 66.0228 128.538 63.3309 132.77 61.5042C134.93 60.5722 137.158 59.8651 139.353 59.0285C139.379 59.0182 139.391 58.9993 139.389 58.9719C139.018 53.0778 140.261 46.1052 144.579 41.699C145.939 40.3111 147.684 39.2892 149.511 38.5348C153.715 36.7989 159.104 36.8772 162.662 40.0863C165.406 42.5619 165.837 46.2921 164.196 49.5438C163.193 51.5302 161.641 53.1926 159.895 54.551C156.573 57.1352 152.73 58.7913 148.962 60.5862C148.938 60.5975 148.929 60.6159 148.932 60.6412C149.504 64.4047 150.845 67.9333 152.778 71.1998C153.491 72.4057 154.229 73.5661 154.992 74.681ZM157.53 42.5922C157.023 40.936 155.02 40.798 153.722 41.3726C152.939 41.7199 152.262 42.1983 151.691 42.8077C148.495 46.2207 147.686 51.4574 148.128 55.9233C148.131 55.9548 148.146 55.9639 148.175 55.9504C148.475 55.8098 148.707 55.6842 148.872 55.5736C151.852 53.5779 154.707 50.8224 156.472 47.6776C157.275 46.2487 158.021 44.1948 157.53 42.5922ZM131.172 78.5391C132.363 82.208 136.237 83.5997 139.763 83.1965C142.6 82.8724 145.46 81.7691 147.932 80.3666C147.948 80.3578 147.95 80.3461 147.94 80.3317C144.416 75.4739 141.86 70.1489 140.272 64.3566C140.264 64.3277 140.246 64.3194 140.219 64.3318C134.942 66.6981 129.035 71.958 131.172 78.5391Z" fill="white"/>
<path d="M153.723 41.3726C155.02 40.798 157.024 40.936 157.531 42.5922C158.021 44.1948 157.275 46.2486 156.473 47.6776C154.708 50.8224 151.853 53.5779 148.873 55.5736C148.708 55.6842 148.475 55.8098 148.175 55.9504C148.147 55.9639 148.131 55.9548 148.128 55.9233C147.686 51.4574 148.496 46.2207 151.691 42.8077C152.262 42.1983 152.94 41.7199 153.723 41.3726ZM139.764 83.1965C136.238 83.5997 132.364 82.208 131.172 78.5391C129.036 71.958 134.943 66.6981 140.219 64.3318C140.247 64.3194 140.264 64.3277 140.272 64.3566C141.861 70.1489 144.417 75.4739 147.94 80.3317C147.951 80.3461 147.948 80.3578 147.932 80.3666C145.461 81.7691 142.601 82.8724 139.764 83.1965Z" fill="#0046AD"/>
</g>
<defs>
<clipPath id="clip0_667_18960">
<rect width="168" height="75" fill="white" transform="translate(68 18)"/>
</clipPath>
</defs>
</svg>
