<svg width="303" height="110" viewBox="0 0 303 110" fill="none" xmlns="http://www.w3.org/2000/svg">
<rect x="0.5" y="0.5" width="302" height="109" rx="14.5" stroke="#BABCBE"/>
<path fill-rule="evenodd" clip-rule="evenodd" d="M119.256 26.5469C117.946 24.7774 117.215 22.8632 116.956 20.8309C120.506 19.25 124.588 18.2676 129.277 18.0009C136.41 20.0427 140.035 23.2172 141.667 27.1876C134.346 23.1839 126.751 22.4033 119.256 26.5469Z" fill="url(#paint0_linear_667_19027)"/>
<path fill-rule="evenodd" clip-rule="evenodd" d="M129.538 50.4297C126.184 51.066 122.707 51.0364 119.265 49.9206C116.222 48.0797 114.513 45.0434 114.229 40.443C114.378 32.3897 120.127 29.6367 127.337 31.3761C118.775 38.4465 121.694 47.8276 129.538 50.4297Z" fill="url(#paint1_linear_667_19027)"/>
<path fill-rule="evenodd" clip-rule="evenodd" d="M131.526 28.3537C125.984 28.0994 121.146 29.4074 117.531 32.6572C122.322 30.4978 127.676 30.1269 134.482 34.3655L150.842 45.5348C162.115 53.6266 172.97 57.6916 182.577 49.7398C173.084 52.1146 165.896 48.9126 158.135 42.1183C149.471 35.756 140.221 29.6189 131.526 28.3537Z" fill="url(#paint2_linear_667_19027)"/>
<path fill-rule="evenodd" clip-rule="evenodd" d="M148.373 42.4581C152.673 29.495 141.811 17.889 129.277 18.0008C141.567 21.5698 144.836 30.0339 141.543 38.6798C136.661 48.862 129.466 52.7892 119.212 49.8894C129.669 57.0124 143.289 54.4992 148.373 42.4581Z" fill="url(#paint3_linear_667_19027)"/>
<path fill-rule="evenodd" clip-rule="evenodd" d="M185.994 41.7165C185.433 29.563 177.502 27.9923 169.79 29.9876C174.811 31.4904 178.254 34.3784 178.36 39.7424C178.102 45.2235 175.886 48.4589 172.293 50.0794C179.412 51.5532 185.267 51.9029 185.994 41.7165Z" fill="url(#paint4_linear_667_19027)"/>
<path fill-rule="evenodd" clip-rule="evenodd" d="M165.481 26.2309C171.088 25.042 178.204 26.6778 182.554 32.013C173.482 27.6034 158.278 30.6787 157.509 45.7L157.541 69.8289C153.985 70.0121 151.16 68.6767 151.052 65.4959V45.7852C151.454 35.928 155.712 28.9917 165.481 26.2309Z" fill="url(#paint5_linear_667_19027)"/>
<path d="M154.19 78.3462C153.816 78.3691 153.447 78.4867 153.125 78.6842C151.999 79.398 152.019 80.8377 152.019 81.1086C152.019 82.0424 152.289 83.0898 153.216 83.5857C153.523 83.7337 153.842 83.8135 154.19 83.8135V85.6268C153.747 85.5514 153.184 85.3772 152.635 84.9635C152.47 84.8235 152.289 84.6366 152.132 84.4443L152.13 84.5108C152.118 84.602 152.118 84.7162 152.1 84.8147C152.13 85.1829 152.094 85.5578 152.112 85.9278C152.084 86.2251 152.12 86.5466 152.084 86.8496C152.074 87.2517 152.063 87.6596 152.042 88.0724C152.055 88.186 152.037 88.2821 152.037 88.3822C152.042 88.5113 152.019 88.6138 152.01 88.7406C151.983 88.7896 152.01 88.847 151.955 88.8903C151.824 88.9471 151.761 89.0835 151.726 89.2253C151.7 89.9761 151.668 90.7584 151.625 91.5358C151.617 91.6864 151.597 91.8408 151.539 91.97L151.377 92.1721L151.322 92.477C151.301 92.5013 151.305 92.5255 151.267 92.5304C151.247 92.3809 151.267 92.2206 151.264 92.0574L151.267 91.6544L151.243 91.6053C151.145 92.056 151.123 92.5445 151.089 92.9928C151.069 93.0093 151.037 92.9928 151.016 92.9879C150.962 92.8548 150.996 92.679 150.978 92.5304C150.863 92.3847 150.841 92.1725 150.863 91.9787L150.881 91.4455C150.863 91.3834 150.863 91.3106 150.859 91.246C150.803 91.228 150.744 91.2115 150.732 91.146C150.737 91.1255 150.726 91.1193 150.71 91.1076C150.756 90.8129 150.737 90.5179 150.769 90.2194C150.737 90.1412 150.785 90.042 150.773 89.9546C150.818 89.5316 150.832 89.1228 150.823 88.6979C150.769 88.6696 150.803 88.5745 150.726 88.5799C150.637 88.9592 150.623 89.3884 150.546 89.7759C150.568 89.8746 150.524 89.9372 150.53 90.0281C150.611 90.1179 150.644 90.2407 150.637 90.3456C150.6 90.3821 150.608 90.4335 150.563 90.4607L150.588 90.62C150.546 90.6973 150.514 90.7676 150.481 90.8482C150.456 90.8508 150.431 90.8657 150.41 90.8482C150.393 90.6657 150.393 90.484 150.435 90.3242C150.419 90.1669 150.442 89.9761 150.435 89.809C150.464 89.129 150.442 88.4877 150.435 87.8025C150.414 87.7908 150.389 87.7669 150.377 87.7926C150.29 88.0248 150.352 88.304 150.236 88.527C150.189 88.3151 150.167 87.153 150.213 86.8986C150.197 86.4678 150.233 86.0114 150.216 85.5578C150.233 85.2819 150.097 85.1174 150.09 85.3252C150.081 85.6705 150.04 86.0012 150.077 86.3464C150.077 86.9759 150.04 87.6382 150.025 88.2821C150.04 88.5643 149.961 88.8674 149.986 89.1787C149.986 89.3098 149.945 89.4774 149.986 89.6079C149.974 89.6579 149.986 89.7215 149.93 89.7366C149.888 89.6885 149.793 89.7119 149.815 89.6215C149.797 89.5642 149.838 89.5245 149.88 89.4928C149.9 89.3253 149.9 89.132 149.838 88.962C149.815 88.7896 149.919 88.6182 149.896 88.439C149.866 88.4177 149.9 88.3648 149.854 88.3405C149.822 88.2958 149.838 88.2302 149.846 88.1812C149.917 88.0442 149.872 87.8495 149.866 87.6936C149.854 87.5848 149.777 87.4984 149.78 87.3848C149.763 87.0885 149.777 86.8428 149.797 86.5631C149.788 86.3445 149.802 86.1012 149.808 85.8686C149.815 85.6302 149.802 85.3568 149.797 85.1047C149.808 84.6904 149.793 84.2767 149.793 83.8465C149.777 83.829 149.777 83.8023 149.751 83.7881C149.704 83.9834 149.582 83.8785 149.549 83.7629C149.571 83.6328 149.549 83.5212 149.562 83.4046C149.571 83.3108 149.579 83.2064 149.571 83.1151C149.55 82.6489 149.616 82.1771 149.597 81.729C149.62 81.2171 149.571 80.7171 149.644 80.2122L149.634 79.9172C149.648 79.4575 149.655 78.9767 149.655 78.5149C149.648 78.393 149.655 78.2541 149.634 78.1199C149.62 78.1123 149.61 78.1006 149.597 78.1199C149.562 78.2194 149.512 78.3212 149.512 78.4413C149.488 78.4777 149.447 78.4995 149.406 78.4654C149.352 78.3512 149.38 78.24 149.352 78.1199C149.358 77.9054 149.352 77.6743 149.413 77.4704L149.434 77.4358C149.46 77.0867 149.46 76.7005 149.597 76.3791C149.62 76.299 149.705 76.2743 149.777 76.2589C149.905 76.2472 149.971 76.4044 150.034 76.4891C150.139 76.474 150.261 76.5107 150.347 76.44C150.502 76.4005 150.452 76.5943 150.514 76.6564C150.564 76.7402 150.662 76.7271 150.744 76.73C151.016 76.7142 150.841 76.2743 151.145 76.3599C151.196 76.474 151.322 76.5107 151.44 76.5005C151.639 76.5654 151.914 76.5578 151.983 76.8046C152.042 76.941 152.055 77.1095 152.055 77.2551C152.047 77.2675 152.047 77.493 152.05 77.7906C152.162 77.6743 152.279 77.5538 152.342 77.4841C152.819 77.0019 153.485 76.6702 154.19 76.5221V78.3462ZM154.325 78.3438C154.28 78.3438 154.235 78.3452 154.19 78.3462V76.5218C154.48 76.4563 154.775 76.4296 155.065 76.4296C156.549 76.4272 157.423 77.1777 157.789 77.5628C158.3 78.1193 158.913 79.1578 158.913 80.9122C158.913 81.2259 158.896 82.1277 158.567 83.0646C157.768 85.3695 155.811 85.6744 154.836 85.6744C154.679 85.6744 154.454 85.667 154.19 85.6268V83.8135H154.196C154.576 83.8135 154.888 83.7027 155.017 83.6376C156.376 83.0224 156.361 81.1441 156.361 80.9744C156.362 80.7882 156.374 79.2426 155.306 78.5984C155.141 78.4978 154.812 78.3438 154.325 78.3438ZM170.312 74.243L170.282 74.236C170.26 74.2076 170.26 74.179 170.24 74.1459C170.221 74.127 170.187 74.112 170.176 74.0789L170.155 74.0588C170.163 74.0195 170.155 73.9903 170.121 73.9752C170.117 73.9446 170.166 73.8902 170.183 73.8626C170.201 73.8332 170.176 73.8132 170.163 73.798C170.131 73.7789 170.121 73.7271 170.135 73.6916C170.131 73.6522 170.105 73.6283 170.077 73.5941C170.032 73.5204 170.015 72.9763 170.006 72.9459C170.045 72.9195 170.043 72.8534 170.092 72.8474C170.146 72.8369 170.135 72.7865 170.183 72.7371C170.201 72.6875 170.472 72.8157 170.454 72.756C170.472 72.7297 170.454 72.6951 170.485 72.6763C170.51 72.6686 170.546 72.6495 170.562 72.6256C170.56 72.5966 170.608 72.5738 170.608 72.5523C170.645 72.5344 170.635 72.6014 170.682 72.5738C170.74 72.5645 170.74 72.5028 170.778 72.4878C170.786 72.4534 170.797 72.4166 170.826 72.3892C170.831 72.3648 170.82 72.3396 170.847 72.318C170.9 72.2875 170.938 72.3688 170.982 72.2989C170.985 72.275 170.962 72.26 170.985 72.2449C171.054 72.238 171.28 72.0599 171.339 72.0522C171.391 72.0381 171.416 71.9891 171.464 72.0089C171.503 72.0381 171.551 71.9699 171.583 71.9699V71.9696C171.592 71.9696 171.6 71.975 171.604 71.9965C171.626 72.0065 171.66 72.0196 171.66 72.0307C171.663 72.0495 171.683 72.0522 171.707 72.0522L171.733 72.0065C171.771 72.0176 171.749 72.0599 171.795 72.0522C171.802 72.0597 171.84 72.0687 171.851 72.0966C171.872 72.1063 171.864 72.1433 171.897 72.151C172.013 72.0597 171.924 72.1738 171.941 72.1776C171.962 72.1876 171.991 72.2153 171.979 72.2381C172 72.2405 171.991 72.2673 172.013 72.2724C172.024 72.2875 172.068 72.2673 172.054 72.3006C172.081 72.3141 172.078 72.351 172.115 72.351C172.124 72.3712 172.157 72.3892 172.124 72.4166C172.157 72.4166 172.157 72.4397 172.184 72.4397C172.219 72.4707 172.312 72.5395 172.317 72.5738C172.322 72.6014 172.532 72.7801 172.532 72.7928C172.54 72.803 172.578 72.8672 172.581 72.8803C172.589 72.9005 172.651 73.0675 172.667 73.1042C172.651 73.1253 172.68 73.1484 172.676 73.1689C172.713 73.1508 172.713 73.1827 172.726 73.2069C172.717 73.2359 172.756 73.299 172.758 73.3221C172.758 73.3296 172.782 73.341 172.791 73.3548C172.81 73.3548 172.845 73.4308 172.848 73.4573C172.832 73.4955 172.791 74.0399 172.411 74.2105C172.384 74.236 172.375 74.2044 172.349 74.2044C172.275 74.2076 172.329 74.2753 172.284 74.3057C172.242 74.3246 172.234 74.3057 172.203 74.2991C172.163 74.3103 172.124 74.3105 172.099 74.3057C172.054 74.3334 172 74.3094 171.971 74.3586C171.931 74.3888 171.991 74.4082 171.962 74.4349C171.935 74.4208 171.904 74.4563 171.864 74.4433C171.84 74.446 171.802 74.4739 171.795 74.4839C171.757 74.508 171.737 74.4839 171.707 74.4839C171.645 74.446 171.675 74.736 171.613 74.7275C171.551 74.7471 171.506 74.7245 171.478 74.7625C171.448 74.8082 171.391 74.7804 171.345 74.8095C171.321 74.7866 171.356 74.9232 171.325 74.9424C171.317 74.9523 171.176 74.9662 171.158 74.9662C171.091 74.9839 171.039 74.9563 170.97 74.9662C170.962 74.9316 170.892 74.9662 170.897 74.9232C170.823 74.8676 170.785 74.5675 170.732 74.4967C170.716 74.4626 170.691 74.4349 170.661 74.4144C170.61 74.408 170.569 74.3829 170.56 74.3488C170.546 74.3297 170.539 74.2991 170.51 74.3094C170.472 74.3094 170.338 74.2637 170.312 74.243Z" fill="#FFB318"/>
<path d="M124.557 74.243L124.523 74.236C124.494 74.2076 124.494 74.179 124.485 74.1459C124.463 74.127 124.428 74.1119 124.411 74.0789L124.397 74.0588C124.401 74.0194 124.384 73.9903 124.357 73.9752C124.35 73.9446 124.404 73.8902 124.428 73.8626C124.436 73.8332 124.411 73.8132 124.401 73.798C124.369 73.7788 124.363 73.7271 124.372 73.6916C124.369 73.6522 124.345 73.6283 124.314 73.594C124.272 73.5204 124.255 72.9763 124.239 72.9459C124.282 72.9195 124.276 72.8534 124.33 72.8474C124.38 72.8369 124.375 72.7865 124.416 72.7371C124.436 72.6875 124.705 72.8156 124.69 72.756C124.705 72.7296 124.69 72.6951 124.721 72.6762C124.746 72.6686 124.787 72.6495 124.794 72.6256C124.796 72.5966 124.84 72.5738 124.84 72.5523C124.879 72.5344 124.877 72.6014 124.916 72.5737C124.98 72.5644 124.978 72.5028 125.017 72.4878C125.018 72.4534 125.038 72.4166 125.062 72.3892C125.072 72.3648 125.055 72.3396 125.088 72.318C125.139 72.2875 125.178 72.3688 125.22 72.2988C125.225 72.275 125.195 72.2599 125.229 72.2449C125.287 72.2379 125.52 72.0599 125.583 72.0522C125.632 72.0381 125.657 71.989 125.711 72.0089C125.74 72.0381 125.79 71.9699 125.817 71.9699C125.83 71.9696 125.834 71.9749 125.838 71.9965C125.868 72.0065 125.896 72.0196 125.893 72.0306C125.896 72.0495 125.924 72.0522 125.941 72.0522L125.979 72.0065C126.01 72.0176 125.986 72.0599 126.028 72.0522C126.044 72.0597 126.081 72.0686 126.085 72.0966C126.114 72.1063 126.11 72.1433 126.141 72.151C126.246 72.0597 126.168 72.1738 126.181 72.1776C126.206 72.1876 126.225 72.2153 126.217 72.2381C126.23 72.2405 126.225 72.2673 126.246 72.2724C126.263 72.2875 126.3 72.2673 126.292 72.3006C126.318 72.3141 126.318 72.351 126.353 72.351C126.361 72.3712 126.394 72.3892 126.366 72.4166C126.386 72.4166 126.394 72.4397 126.423 72.4397C126.453 72.4707 126.55 72.5395 126.55 72.5737C126.558 72.6014 126.773 72.7801 126.778 72.7928C126.778 72.803 126.811 72.8672 126.823 72.8803C126.83 72.9005 126.885 73.0675 126.903 73.1042C126.885 73.1253 126.921 73.1484 126.909 73.1689C126.951 73.1508 126.951 73.1827 126.962 73.2069C126.951 73.2358 126.99 73.299 127 73.3221C127 73.3296 127.025 73.341 127.025 73.3548C127.045 73.3548 127.077 73.4308 127.086 73.4573C127.074 73.4955 127.033 74.0399 126.645 74.2105C126.625 74.236 126.607 74.2044 126.593 74.2044C126.514 74.2076 126.566 74.2753 126.517 74.3057C126.485 74.3246 126.472 74.3057 126.44 74.2991C126.408 74.3103 126.366 74.3105 126.331 74.3057C126.292 74.3333 126.235 74.3094 126.21 74.3586C126.168 74.3888 126.225 74.4082 126.206 74.4348C126.172 74.4208 126.141 74.4563 126.11 74.4433C126.078 74.446 126.044 74.4739 126.028 74.4839C125.999 74.508 125.979 74.4839 125.941 74.4839C125.889 74.446 125.916 74.736 125.851 74.7275C125.792 74.7471 125.739 74.7245 125.715 74.7625C125.688 74.8081 125.624 74.7804 125.583 74.8095C125.558 74.7866 125.601 74.9232 125.563 74.9423C125.546 74.9523 125.41 74.9662 125.392 74.9662C125.335 74.9839 125.277 74.9563 125.212 74.9662C125.195 74.9316 125.125 74.9662 125.134 74.9232C125.055 74.8676 125.017 74.5675 124.969 74.4967C124.949 74.4626 124.928 74.4348 124.894 74.4144C124.849 74.408 124.809 74.3829 124.794 74.3487C124.783 74.3297 124.774 74.2991 124.746 74.3094C124.705 74.3094 124.578 74.2637 124.557 74.243Z" fill="#FF0000"/>
<path d="M187.452 76.5955H189.665V78.3207H187.431V82.093C187.452 82.4678 187.415 83.7028 188.868 83.7028C189.088 83.7018 189.309 83.6833 189.761 83.5687L189.818 85.3846C189.217 85.5199 188.811 85.623 188.197 85.623C187.964 85.623 186.632 85.6065 185.857 84.8566C185.016 84.0603 185.038 82.7242 185.054 81.7008L185.056 78.3207V76.5955L185.059 75.7882C185.059 74.6294 186.013 74.1749 186.9 73.9753L187.449 73.9749L187.452 76.5955ZM193.905 85.6341C193.12 85.6341 192.523 85.5924 191.082 85.2559L191.097 84.9469C191.163 84.5215 191.449 83.7504 192.554 83.7775C192.865 83.8466 193.216 83.8922 193.59 83.8922C194.683 83.8912 195.262 83.4352 195.262 82.9389C195.246 82.5528 194.937 82.339 194.607 82.1805C193.959 81.8883 193.269 81.7592 192.631 81.4846C192.14 81.2779 190.964 80.6691 190.964 79.1961C190.964 78.9744 190.995 78.4438 191.323 77.9158C191.78 77.244 192.834 76.4603 194.809 76.4603C195.72 76.4603 196.425 76.5957 197.314 76.8047L197.15 78.4979C196.425 78.2971 195.901 78.159 195.159 78.159C194.552 78.159 194.159 78.2804 193.915 78.4008C193.505 78.5956 193.413 78.9236 193.413 79.1098C193.413 79.5123 193.75 79.6717 194.123 79.8046C194.81 80.0719 195.55 80.2123 196.244 80.501C197.223 80.9413 197.757 81.7871 197.757 82.8034C197.757 83.1792 197.677 84.0946 196.788 84.81C195.989 85.4704 194.95 85.6341 193.905 85.6341ZM164.359 78.0667C164.281 78.0616 164.2 78.0592 164.116 78.0592C162.959 78.0589 161.977 78.515 161.647 78.6843C161.506 78.7656 161.408 78.816 161.157 79.0264L161.08 77.0222C162.294 76.6294 163.059 76.4297 164.35 76.4297H164.359V78.0667ZM164.359 85.5199C164.048 85.5924 163.696 85.6341 163.299 85.6341C162.905 85.6341 161.216 85.5725 160.372 84.3151C160.231 84.1127 159.942 83.6047 159.942 82.9103C159.942 82.1779 160.265 81.6719 160.418 81.4491C161.267 80.2792 162.943 80.0365 164.359 80.0007V81.4909C163.907 81.5424 163.479 81.6453 163.142 81.8377C162.844 82.0176 162.704 82.2328 162.624 82.3539C162.566 82.4402 162.465 82.6364 162.465 82.9103C162.465 83.0642 162.519 83.2502 162.597 83.4021C162.914 84.0603 163.736 84.0946 163.956 84.0946C164.049 84.0942 164.19 84.0875 164.359 84.0567V85.5199ZM166.312 84.2108C166.184 84.3963 166.13 84.4671 166.038 84.5735C165.759 84.881 165.217 85.3102 164.359 85.5199V84.0567C164.757 83.9806 165.302 83.7794 165.711 83.2682C166.163 82.7057 166.204 82.1443 166.254 81.4683H166.255C165.709 81.4464 165.011 81.4151 164.359 81.4909V80.0007C164.506 79.9969 164.65 79.9973 164.79 79.9973C165.256 79.9956 165.735 80.0083 166.204 80.0262C166.204 80.0262 166.184 79.3983 166.061 79.0745C165.872 78.6121 165.404 78.1323 164.359 78.0667V76.4297C164.602 76.4273 165.157 76.4297 165.768 76.5655C167.362 76.9005 167.984 77.7552 168.202 78.3654C168.411 78.8869 168.416 79.4136 168.434 80.4771V82.5882C168.434 83.1326 168.446 83.6698 168.458 84.2112C168.465 84.2108 168.465 85.4583 169.458 85.4583L167.354 85.4569C166.356 85.4569 166.303 84.2112 166.303 84.2112L166.312 84.2108Z" fill="#FFB318"/>
<path d="M110.666 78.1043C110.588 78.0982 110.506 78.0982 110.424 78.0982C109.262 78.0958 108.286 78.5615 107.955 78.7185C107.817 78.8095 107.717 78.8566 107.466 79.0653L107.392 77.0598C108.608 76.6685 109.373 76.4677 110.659 76.4677H110.666V78.1043ZM110.666 85.5539C110.355 85.6302 110.002 85.6744 109.604 85.6744C109.214 85.6744 107.519 85.6151 106.687 84.3583C106.543 84.1514 106.25 83.6415 106.25 82.949C106.25 82.2171 106.576 81.7125 106.716 81.4872C107.581 80.3233 109.249 80.0769 110.666 80.0402V81.5326C110.215 81.5854 109.783 81.6861 109.442 81.8798C109.155 82.0424 109.01 82.2705 108.932 82.3895C108.877 82.4731 108.767 82.6747 108.767 82.949C108.767 83.1005 108.824 83.288 108.899 83.4414C109.228 84.097 110.042 84.1339 110.264 84.1339C110.359 84.1339 110.5 84.1237 110.666 84.0946V85.5539ZM112.619 84.2505C112.5 84.4398 112.436 84.5113 112.352 84.6098C112.068 84.9196 111.522 85.348 110.666 85.5544V84.0942C111.065 84.0203 111.609 83.8203 112.023 83.3059C112.475 82.7489 112.513 82.1895 112.561 81.5112V81.5098C112.018 81.4872 111.318 81.458 110.666 81.5326V80.0398C110.812 80.0359 110.955 80.0364 111.094 80.0364C111.567 80.0335 112.039 80.0529 112.513 80.0577C112.513 80.0577 112.5 79.4363 112.367 79.12C112.184 78.6526 111.714 78.1694 110.666 78.1045V76.4677C110.903 76.4653 111.463 76.4691 112.078 76.6083C113.679 76.941 114.293 77.7906 114.509 78.4007C114.709 78.9248 114.724 79.4579 114.743 80.5177V82.625C114.743 83.1632 114.748 83.7124 114.764 84.2505C114.779 84.2505 114.771 85.4976 115.771 85.4976H113.661C112.67 85.4976 112.617 84.2505 112.617 84.2505H112.619ZM132.644 78.1043C132.565 78.0982 132.485 78.0982 132.402 78.0982C131.235 78.0958 130.259 78.5615 129.924 78.7185C129.785 78.8095 129.694 78.8566 129.44 79.0653L129.365 77.0598C130.584 76.6685 131.345 76.4677 132.636 76.4677H132.644V78.1043ZM132.644 85.5539C132.332 85.6302 131.979 85.6744 131.579 85.6744C131.183 85.6744 129.496 85.6151 128.657 84.3583C128.517 84.1514 128.223 83.6415 128.223 82.949C128.225 82.2171 128.546 81.7125 128.694 81.4872C129.555 80.3233 131.226 80.0769 132.644 80.0402V81.5326C132.19 81.5854 131.759 81.6845 131.42 81.8798C131.127 82.0424 130.985 82.2705 130.914 82.3895C130.855 82.4731 130.745 82.6747 130.745 82.949C130.745 83.1005 130.802 83.288 130.874 83.4414C131.203 84.097 132.018 84.1339 132.232 84.1339C132.329 84.1339 132.475 84.1237 132.644 84.0946V85.5539ZM134.588 84.2505C134.468 84.4398 134.414 84.5113 134.327 84.6098C134.047 84.9196 133.503 85.348 132.644 85.5544V84.0942C133.044 84.0173 133.586 83.8149 133.991 83.3059C134.444 82.7489 134.485 82.1895 134.541 81.5112V81.5098C133.996 81.4872 133.295 81.4593 132.644 81.5326V80.0398C132.791 80.0359 132.936 80.0364 133.076 80.0364C133.539 80.0335 134.02 80.0529 134.485 80.0577C134.485 80.0577 134.468 79.4363 134.34 79.12C134.157 78.6526 133.687 78.1717 132.644 78.1045V76.4677C132.883 76.4653 133.441 76.4691 134.053 76.6083C135.646 76.941 136.264 77.7906 136.479 78.4007C136.685 78.9248 136.702 79.4579 136.72 80.5177V82.625C136.72 83.1632 136.727 83.7124 136.737 84.2505C136.754 84.2505 136.743 85.4976 137.74 85.4976H135.635C134.642 85.4976 134.588 84.2505 134.588 84.2505Z" fill="#FF0000"/>
<path d="M170.261 83.8349C170.261 84.8493 171.283 85.4657 172.101 85.4657H172.722L172.718 76.5309H170.261V83.8349Z" fill="#FFB318"/>
<path d="M119.201 85.6744C118.423 85.6744 117.822 85.6287 116.379 85.2897L116.389 84.9809C116.462 84.5613 116.746 83.7857 117.846 83.8135C118.163 83.8805 118.51 83.9316 118.888 83.9316C119.981 83.9316 120.561 83.4764 120.561 82.986C120.541 82.5921 120.235 82.368 119.911 82.2197C119.25 81.9249 118.564 81.7961 117.933 81.5212C117.44 81.3223 116.26 80.7084 116.26 79.2327C116.26 79.0159 116.289 78.4858 116.624 77.9591C117.076 77.2753 118.133 76.5005 120.109 76.5005C121.018 76.498 121.722 76.636 122.612 76.8373L122.449 78.536C121.722 78.3352 121.198 78.1971 120.454 78.1971C119.852 78.193 119.452 78.3173 119.218 78.4386C118.798 78.6412 118.712 78.9591 118.712 79.1453C118.712 79.5542 119.052 79.7074 119.411 79.8402C120.109 80.1175 120.854 80.249 121.541 80.5376C122.521 80.9771 123.049 81.8261 123.049 82.8427C123.049 83.2191 122.976 84.1339 122.089 84.8493C121.29 85.5083 120.253 85.6744 119.201 85.6744ZM147.372 78.4678C147.453 78.731 147.487 79.9602 147.508 81.197V85.5578H146.3C145.764 85.3213 145.281 85.1363 145.13 84.4138V80.635C145.096 79.8046 144.971 78.9591 144.257 78.5654C144.105 78.4853 143.816 78.3692 143.358 78.3692C143.021 78.3692 142.239 78.4489 141.711 79.1819C141.241 79.821 141.199 80.6223 141.184 81.3731L141.157 85.5083L138.728 85.5199L138.724 76.636H141.007L141.017 78.0096C141.225 77.755 141.491 77.3817 142.163 77.007C142.579 76.7917 143.181 76.5005 144.284 76.5005C144.433 76.498 144.922 76.5209 145.376 76.6224C146.357 76.8703 147.098 77.5539 147.372 78.4678Z" fill="#FF0000"/>
<path d="M181.941 85.4034C181.476 85.176 181.064 84.9635 180.927 84.3079V80.5312C180.893 79.7022 180.77 78.8641 180.05 78.4678C179.901 78.3868 179.609 78.2655 179.154 78.2655C178.815 78.2638 178.029 78.3542 177.506 79.0744C177.031 79.7248 176.996 80.5177 176.981 81.2682L176.982 85.4131H174.527L174.479 76.5308H176.798L176.82 77.9054C177.015 77.6578 177.29 77.2768 177.962 76.9058C178.372 76.6865 178.975 76.3981 180.086 76.3981C180.232 76.3981 180.725 76.416 181.174 76.5208C182.152 76.7727 182.9 77.4502 183.171 78.3691C183.269 78.694 183.302 80.6138 183.315 82.0706L183.32 82.3565L183.315 82.5629C183.315 83.1083 183.32 83.6513 183.336 84.1933C183.352 84.1933 183.505 85.196 184.654 85.4442L182.233 85.4412C182.134 85.4412 182.026 85.4238 181.941 85.4034Z" fill="#FFB318"/>
<path d="M124.495 83.8349C124.495 84.8493 125.526 85.4657 126.336 85.4657H126.959L126.956 76.5309H124.495V83.8349Z" fill="#FF0000"/>
<defs>
<linearGradient id="paint0_linear_667_19027" x1="122.506" y1="29.1517" x2="136.117" y2="16.0367" gradientUnits="userSpaceOnUse">
<stop stop-color="#613B85"/>
<stop offset="0.251" stop-color="#67309B"/>
<stop offset="0.549" stop-color="#B29EC9"/>
<stop offset="0.859" stop-color="#6514A3"/>
<stop offset="1" stop-color="#5F3186"/>
</linearGradient>
<linearGradient id="paint1_linear_667_19027" x1="121.884" y1="50.8479" x2="121.884" y2="30.8767" gradientUnits="userSpaceOnUse">
<stop stop-color="#613B85"/>
<stop offset="0.251" stop-color="#67309B"/>
<stop offset="0.549" stop-color="#B29EC9"/>
<stop offset="0.859" stop-color="#6514A3"/>
<stop offset="1" stop-color="#5F3186"/>
</linearGradient>
<linearGradient id="paint2_linear_667_19027" x1="182.576" y1="41.1803" x2="117.531" y2="41.1803" gradientUnits="userSpaceOnUse">
<stop stop-color="#FEBA32"/>
<stop offset="0.451" stop-color="#E63E23"/>
<stop offset="0.522" stop-color="#E63E23"/>
<stop offset="1" stop-color="#FAB934"/>
</linearGradient>
<linearGradient id="paint3_linear_667_19027" x1="134.271" y1="53.8437" x2="134.271" y2="18" gradientUnits="userSpaceOnUse">
<stop stop-color="#E63B2E"/>
<stop offset="0.4" stop-color="#F9B939"/>
<stop offset="0.549" stop-color="#FCBA37"/>
<stop offset="1" stop-color="#E63E23"/>
</linearGradient>
<linearGradient id="paint4_linear_667_19027" x1="177.892" y1="50.8486" x2="177.892" y2="29.2621" gradientUnits="userSpaceOnUse">
<stop stop-color="#613B85"/>
<stop offset="0.251" stop-color="#67309B"/>
<stop offset="0.549" stop-color="#B29EC9"/>
<stop offset="0.859" stop-color="#6514A3"/>
<stop offset="1" stop-color="#5F3186"/>
</linearGradient>
<linearGradient id="paint5_linear_667_19027" x1="166.803" y1="69.8455" x2="166.803" y2="25.8634" gradientUnits="userSpaceOnUse">
<stop stop-color="#E63B2E"/>
<stop offset="0.439" stop-color="#F9B939"/>
<stop offset="0.588" stop-color="#FCBA37"/>
<stop offset="1" stop-color="#E63E23"/>
</linearGradient>
</defs>
</svg>
