<svg width="303" height="110" viewBox="0 0 303 110" fill="none" xmlns="http://www.w3.org/2000/svg">
<rect x="0.5" y="0.5" width="302" height="109" rx="14.5" stroke="#BABCBE"/>
<path d="M109.618 37.2874C107.077 36.2448 104.407 35.528 101.997 35.528C98.4796 35.528 96.7203 36.3099 96.7203 37.6132C96.7203 41.5229 112.419 38.3951 112.419 46.6706C112.419 50.1242 109.227 52.7307 102.713 52.7307C98.8711 52.7307 95.8742 51.9487 92.4221 50.059L93.855 46.9964C96.8513 48.6906 99.6514 49.4074 102.713 49.4074C106.556 49.4074 108.576 48.2997 108.576 46.6706C108.576 42.4351 92.878 45.5629 92.878 37.8087C92.878 34.4854 96.069 32.1396 101.867 32.1396C105.319 32.1396 108.25 32.9215 110.986 34.2899L109.618 37.2874ZM127.074 52.861C120.82 52.861 115.61 48.6906 115.61 42.4351C115.61 36.2448 120.82 32.0093 127.074 32.0093C133.392 32.0093 138.473 36.2448 138.473 42.4351C138.538 48.6906 133.392 52.861 127.074 52.861ZM127.074 35.3977C122.514 35.3977 119.388 38.4603 119.388 42.4351C119.388 46.4752 122.384 49.5377 127.074 49.5377C131.764 49.5377 134.695 46.4752 134.695 42.4351C134.76 38.4603 131.764 35.3977 127.074 35.3977ZM153.454 52.861C146.874 52.861 141.925 48.6906 141.925 42.4351C141.925 36.3099 146.94 32.0093 153.454 32.0093C157.362 32.0093 160.097 33.117 162.638 34.9415L160.684 37.8087C158.86 36.4403 156.58 35.3977 153.585 35.3977C148.765 35.3977 145.768 38.4603 145.768 42.37C145.768 46.41 148.765 49.4074 153.585 49.4074C156.581 49.4074 158.991 48.43 160.815 47.0616L162.769 49.9287C160.293 51.8184 157.362 52.861 153.454 52.861ZM166.481 32.7261H170.389V52.2745H166.481V32.7261ZM175.6 52.2745V32.7261H193.837V35.9841H179.508V40.5454H190.581V43.8035H179.508V49.0165H194.489V52.2745H175.6ZM208.167 35.9841V52.2745H204.259V35.9841H196.443V32.7261H215.983V35.9841H208.167ZM219.24 52.2745V32.7261H236.827V35.9841H222.497V40.5454H233.57V43.8035H222.497V49.0165H237.478V52.2745H219.24ZM103.625 75.6024C105.644 75.6024 107.859 75.1463 109.162 74.4295V68.5649H113.07V76.3192C110.464 78.0134 107.012 78.9908 103.625 78.9908C97.046 78.9908 92.0312 74.8204 92.0312 68.5649C92.0312 62.4397 97.046 58.2042 103.56 58.2042C107.338 58.2042 110.203 59.2475 112.678 61.1365L110.724 64.0036C108.901 62.6352 106.621 61.6578 103.625 61.6578C98.8053 61.5275 95.8091 64.6552 95.8091 68.5649C95.8091 72.7353 98.8053 75.6024 103.625 75.6024ZM117.629 78.3392V58.7907H135.867V62.0488H121.537V66.6101H132.61V69.8682H121.537V75.0811H136.519V78.3392H117.629ZM143.032 78.3392H139.775V58.7907H143.488L156.32 73.6475C156.124 69.9333 155.994 66.9359 155.994 64.0036V58.7907H159.902V78.3392H155.994L143.227 63.6127L143.032 63.6778C143.162 66.6101 143.032 71.7579 143.032 73.3869V78.3392ZM165.178 78.3392V58.7907H182.764V62.0488H168.435V66.6101H179.508V69.8682H168.435V75.0811H183.416V78.3392H165.178ZM196.834 71.1714H191.232V78.3392H187.324V58.7907H199.96C204.129 58.7907 206.734 61.3972 206.734 65.1114C206.734 68.6294 204.194 70.6501 201.067 71.1062L206.93 78.4037H202.37L196.834 71.1714ZM199.569 67.9133C201.849 67.9133 203.152 66.7404 203.152 65.0462C203.152 63.1572 202.044 62.0488 199.96 62.0488H191.232V67.9133H199.569ZM214.42 73.7779L212.14 78.3392H208.167L217.742 58.7907H221.584L231.159 78.3392H227.251L224.971 73.7779H214.42ZM215.918 70.5198H223.474L219.696 62.5701L215.918 70.5198ZM234.221 78.3392V58.7907H237.478V75.0811H250.505V78.3392H234.221ZM253.11 78.3392V58.7907H271.348V62.0488H257.019V66.6101H268.092V69.8682H257.019V75.0811H272V78.3392H253.11Z" fill="white"/>
<path d="M31 32.0745H78.5486V56.1843H31V32.0745Z" fill="#E90031"/>
<path d="M31 55.5326H78.5486V78.9908H31V55.5326Z" fill="#231F20"/>
<path d="M39.4678 54.2294H70.0813V56.8358H39.4678V54.2294Z" fill="white"/>
</svg>
