<svg width="303" height="110" viewBox="0 0 303 110" fill="none" xmlns="http://www.w3.org/2000/svg">
<rect x="0.5" y="0.5" width="302" height="109" rx="14.5" stroke="#BABCBE"/>
<g clip-path="url(#clip0_667_19102)">
<path d="M195.673 45.1379C196.307 47.4839 198.69 48.8652 201.028 48.2513C203.367 47.6154 204.744 45.2256 204.132 42.8796C203.498 40.5335 201.116 39.1522 198.777 39.7662C196.438 40.402 195.061 42.8138 195.673 45.1379ZM189.729 49.8518C191.324 49.4133 192.264 47.7909 191.849 46.1903C191.411 44.5897 189.794 43.6469 188.199 44.0635C186.603 44.502 185.663 46.1245 186.079 47.7251C186.494 49.3256 188.133 50.2684 189.729 49.8518ZM180.964 51.3866C182.123 51.0797 182.822 49.8738 182.516 48.6898C182.21 47.5277 181.008 46.8261 179.828 47.1331C178.669 47.44 177.97 48.6459 178.276 49.8299C178.582 50.992 179.784 51.6936 180.964 51.3866Z" fill="#2B4C87"/>
<path d="M174.124 52.3952C174.867 52.1979 175.304 51.4305 175.107 50.685C174.911 49.9395 174.146 49.501 173.403 49.6984C172.66 49.8957 172.222 50.6631 172.419 51.4085C172.616 52.154 173.381 52.5925 174.124 52.3952Z" fill="#2E4E88"/>
<path d="M192.417 36.2362C193.51 38.1437 195.958 38.8014 197.859 37.7052C199.761 36.6089 200.416 34.1533 199.323 32.2457C198.231 30.3382 195.783 29.6805 193.881 30.7767C191.958 31.8949 191.324 34.3287 192.417 36.2362ZM183.631 41.3229C184.396 42.6603 186.101 43.1207 187.434 42.3534C188.767 41.586 189.226 39.8758 188.461 38.5383C187.696 37.2009 185.991 36.7405 184.658 37.5078C183.303 38.2752 182.844 39.9854 183.631 41.3229ZM177.358 42.6384C176.396 43.1865 176.09 44.4143 176.637 45.3571C177.183 46.3218 178.407 46.6288 179.347 46.0807C180.309 45.5325 180.615 44.3047 180.068 43.3619C179.544 42.4191 178.32 42.0902 177.358 42.6384ZM171.763 46.6946C171.151 47.0454 170.932 47.8347 171.282 48.4705C171.632 49.0844 172.44 49.3037 173.052 48.9529C173.664 48.6021 173.883 47.7909 173.533 47.1769C173.184 46.5411 172.397 46.3438 171.763 46.6946Z" fill="#1E3E70"/>
<path d="M191.958 28.3868C193.357 26.9836 193.357 24.7033 191.958 23.3001C190.56 21.8969 188.286 21.8969 186.888 23.3001C185.489 24.7033 185.489 26.9836 186.888 28.3868C188.286 29.79 190.56 29.79 191.958 28.3868ZM183.238 32.0703C182.232 31.0617 180.593 31.0617 179.588 32.0703C178.582 33.0788 178.582 34.7232 179.588 35.7318C180.593 36.7404 182.232 36.7404 183.238 35.7318C184.243 34.7232 184.243 33.0788 183.238 32.0703ZM173.883 38.911C173.184 39.6126 173.184 40.7527 173.883 41.4543C174.583 42.1559 175.719 42.1559 176.419 41.4543C177.118 40.7527 177.118 39.6126 176.419 38.911C175.719 38.2094 174.583 38.2094 173.883 38.911ZM169.447 45.9052C169.906 46.3656 170.671 46.3656 171.129 45.9052C171.588 45.4448 171.588 44.6774 171.129 44.2169C170.671 43.7565 169.906 43.7565 169.447 44.2169C168.966 44.6774 168.966 45.4228 169.447 45.9052Z" fill="#184D89"/>
<path d="M179.369 22.3573C180.986 23.3001 183.063 22.7301 183.981 21.1076C184.92 19.4851 184.352 17.4022 182.735 16.4813C181.117 15.5385 179.041 16.1086 178.123 17.7311C177.183 19.3535 177.752 21.4145 179.369 22.3573ZM173.315 28.0798C172.659 29.22 173.053 30.689 174.189 31.3467C175.326 32.0045 176.79 31.6098 177.446 30.4697C178.101 29.3296 177.708 27.8606 176.571 27.2028C175.435 26.5451 173.971 26.9397 173.315 28.0798ZM171.741 35.5783C170.976 35.1398 170.015 35.4029 169.556 36.1703C169.118 36.9377 169.381 37.9024 170.146 38.3629C170.911 38.8014 171.872 38.5383 172.309 37.7709C172.768 37.0035 172.506 36.0388 171.741 35.5783ZM168.069 41.9805C167.545 41.6736 166.867 41.849 166.583 42.3752C166.277 42.9014 166.452 43.5811 166.977 43.8661C167.501 44.1731 168.179 43.9977 168.463 43.4715C168.769 42.9672 168.594 42.2875 168.069 41.9805Z" fill="#3569A4"/>
<path d="M170.474 18.4547C172.179 18.9151 173.927 17.9065 174.364 16.1964C174.823 14.4862 173.818 12.7321 172.113 12.2936C170.409 11.8332 168.66 12.8418 168.223 14.552C167.764 16.2621 168.791 18.0162 170.474 18.4547ZM167.808 28.4965C168.966 28.8035 170.168 28.1238 170.496 26.9398C170.802 25.7778 170.124 24.5719 168.944 24.243C167.786 23.936 166.584 24.6157 166.256 25.7997C165.95 26.9837 166.627 28.1896 167.808 28.4965ZM165.688 36.4116C166.474 36.6308 167.305 36.1485 167.524 35.3592C167.742 34.5699 167.261 33.7367 166.474 33.5174C165.688 33.2982 164.857 33.7805 164.639 34.5699C164.42 35.3592 164.901 36.1923 165.688 36.4116ZM163.327 41.3448C163.196 41.871 163.502 42.4192 164.027 42.5726C164.551 42.7261 165.098 42.3972 165.25 41.871C165.382 41.3448 165.076 40.7967 164.551 40.6432C164.027 40.5116 163.48 40.8186 163.327 41.3448Z" fill="#4B8DCB"/>
<path d="M160.835 17.0076C162.474 17.0076 163.829 15.6701 163.829 14.0038C163.829 12.3594 162.496 11 160.835 11C159.196 11 157.841 12.3375 157.841 14.0038C157.863 15.6701 159.196 17.0076 160.835 17.0076ZM160.835 23.3879C159.742 23.3879 158.846 24.2868 158.846 25.3831C158.846 26.4793 159.742 27.3783 160.835 27.3783C161.928 27.3783 162.824 26.4793 162.824 25.3831C162.824 24.2868 161.95 23.3879 160.835 23.3879ZM162.234 34.2848C162.234 33.5174 161.6 32.8816 160.835 32.8816C160.07 32.8816 159.436 33.5174 159.436 34.2848C159.436 35.0522 160.07 35.688 160.835 35.688C161.622 35.6661 162.234 35.0522 162.234 34.2848ZM160.835 40.2704C160.332 40.2704 159.939 40.6651 159.939 41.1694C159.939 41.6736 160.332 42.0683 160.835 42.0683C161.338 42.0683 161.731 41.6736 161.731 41.1694C161.731 40.6651 161.338 40.2704 160.835 40.2704Z" fill="#3398B3"/>
<path d="M151.109 18.1038C152.595 17.7092 153.47 16.1744 153.076 14.6835C152.683 13.1926 151.153 12.3155 149.667 12.7102C148.18 13.1049 147.306 14.6396 147.7 16.1306C148.093 17.6215 149.623 18.4985 151.109 18.1038ZM151.59 26.8521C151.852 27.8168 152.836 28.3869 153.776 28.1238C154.737 27.8606 155.306 26.874 155.043 25.9312C154.781 24.9665 153.797 24.3964 152.858 24.6595C151.896 24.9226 151.328 25.9093 151.59 26.8521ZM154.366 35.3153C154.541 36.0169 155.262 36.4116 155.939 36.2362C156.639 36.0607 157.032 35.3372 156.857 34.6356C156.682 33.934 155.961 33.5393 155.284 33.7147C154.584 33.9121 154.191 34.6137 154.366 35.3153ZM156.617 41.8491C156.726 42.2656 157.163 42.5287 157.6 42.4191C158.016 42.3095 158.278 41.871 158.169 41.4325C158.059 41.0159 157.622 40.7528 157.185 40.8624C156.77 40.972 156.508 41.4105 156.617 41.8491Z" fill="#02A496"/>
<path d="M141.93 21.7215C143.175 20.998 143.591 19.4194 142.869 18.1696C142.148 16.9199 140.575 16.5033 139.329 17.2268C138.083 17.9504 137.668 19.529 138.389 20.7787C139.11 22.0066 140.706 22.4231 141.93 21.7215ZM147.109 30.7109C147.874 30.2724 148.137 29.2858 147.7 28.5403C147.262 27.7729 146.279 27.5098 145.514 27.9483C144.749 28.3868 144.487 29.3735 144.924 30.1409C145.383 30.8863 146.345 31.1495 147.109 30.7109ZM151.35 38.056C151.918 37.7271 152.115 36.9816 151.787 36.4116C151.459 35.8415 150.716 35.6442 150.147 35.973C149.579 36.3019 149.382 37.0255 149.71 37.6174C150.038 38.1875 150.781 38.3848 151.35 38.056ZM154.781 42.6384C154.584 42.3095 154.169 42.1999 153.819 42.3753C153.491 42.5726 153.382 42.9892 153.557 43.34C153.754 43.6689 154.169 43.7785 154.519 43.6031C154.868 43.3838 154.978 42.9672 154.781 42.6384Z" fill="#00AA75"/>
<path d="M133.974 27.6194C134.914 26.6767 134.914 25.1638 133.974 24.221C133.035 23.2782 131.527 23.2782 130.587 24.221C129.647 25.1638 129.647 26.6767 130.587 27.6194C131.527 28.5403 133.035 28.5403 133.974 27.6194ZM141.296 32.9692C140.75 32.4211 139.876 32.4211 139.329 32.9692C138.783 33.5174 138.783 34.3944 139.329 34.9425C139.876 35.4907 140.75 35.4907 141.296 34.9425C141.843 34.4163 141.843 33.5174 141.296 32.9692ZM147.35 39.4592C146.913 39.0207 146.236 39.0207 145.799 39.4592C145.361 39.8977 145.361 40.5774 145.799 41.0159C146.236 41.4544 146.913 41.4544 147.35 41.0159C147.766 40.5993 147.766 39.8977 147.35 39.4592ZM151.853 44.6993C151.612 44.4582 151.241 44.4582 151 44.6993C150.76 44.9405 150.76 45.3133 151 45.5544C151.241 45.7956 151.612 45.7956 151.853 45.5544C152.093 45.3133 152.093 44.9186 151.853 44.6993Z" fill="#4FBA69"/>
<path d="M124.707 36.1485C125.756 36.7624 127.089 36.3897 127.701 35.3372C128.313 34.2848 127.941 32.9474 126.892 32.3335C125.843 31.7196 124.51 32.0923 123.898 33.1447C123.286 34.1971 123.658 35.5346 124.707 36.1485ZM136.29 38.9769C135.722 38.648 134.979 38.8453 134.651 39.4154C134.323 39.9854 134.52 40.7309 135.088 41.0598C135.657 41.3887 136.4 41.1913 136.728 40.6213C137.055 40.0293 136.859 39.3057 136.29 38.9769ZM143.875 43.5812C143.394 43.2962 142.782 43.4716 142.519 43.9539C142.235 44.4363 142.41 45.0502 142.891 45.3133C143.372 45.5983 143.984 45.4229 144.246 44.9406C144.508 44.4801 144.333 43.8662 143.875 43.5812Z" fill="#7EC45F"/>
<path d="M201.29 49.6984C198.646 49.6984 196.504 51.8471 196.504 54.5C196.504 57.153 198.646 59.3017 201.29 59.3017C203.935 59.3017 206.077 57.153 206.077 54.5C206.077 51.8471 203.935 49.6984 201.29 49.6984ZM193.379 54.5C193.379 52.6144 191.849 51.0577 189.947 51.0577C188.046 51.0577 186.516 52.5925 186.516 54.5C186.516 56.3856 188.046 57.9423 189.947 57.9423C191.849 57.9423 193.379 56.4075 193.379 54.5ZM181.095 52.154C179.806 52.154 178.757 53.2064 178.757 54.5C178.757 55.7936 179.806 56.846 181.095 56.846C182.385 56.846 183.434 55.7936 183.434 54.5C183.434 53.2064 182.385 52.154 181.095 52.154Z" fill="#4C609B"/>
<path d="M175.741 54.5C175.741 53.6668 175.064 52.9652 174.212 52.9652C173.381 52.9652 172.682 53.6449 172.682 54.5C172.682 55.3332 173.359 56.0348 174.212 56.0348C175.064 56.0348 175.741 55.3332 175.741 54.5Z" fill="#54669F"/>
<path d="M201.051 60.7488C198.712 60.1129 196.308 61.5161 195.696 63.8622C195.062 66.2082 196.461 68.62 198.799 69.2339C201.138 69.8697 203.542 68.4665 204.154 66.1205C204.766 63.7745 203.367 61.3846 201.051 60.7488ZM188.177 64.9365C189.773 65.375 191.412 64.4103 191.827 62.8097C192.264 61.2092 191.303 59.5648 189.707 59.1482C188.112 58.7097 186.473 59.6744 186.057 61.275C185.642 62.8755 186.582 64.498 188.177 64.9365ZM179.828 61.867C180.987 62.1739 182.189 61.4942 182.517 60.3102C182.823 59.1482 182.145 57.9423 180.965 57.6134C179.807 57.3065 178.604 57.9862 178.277 59.1701C177.971 60.3541 178.648 61.56 179.828 61.867ZM173.403 59.3017C174.146 59.499 174.911 59.0605 175.107 58.315C175.304 57.5696 174.867 56.8022 174.124 56.6049C173.381 56.4075 172.616 56.846 172.419 57.5915C172.222 58.337 172.66 59.1044 173.403 59.3017Z" fill="#746FA8"/>
<path d="M197.859 71.2949C195.957 70.1986 193.531 70.8564 192.417 72.7639C191.324 74.6714 191.98 77.1051 193.881 78.2233C195.783 79.3196 198.23 78.6618 199.323 76.7543C200.416 74.8468 199.76 72.4131 197.859 71.2949ZM188.439 70.4617C189.204 69.1243 188.745 67.4141 187.412 66.6467C186.079 65.8793 184.374 66.3398 183.609 67.6772C182.844 69.0147 183.303 70.7248 184.636 71.4922C185.969 72.2596 187.674 71.7992 188.439 70.4617ZM180.09 65.6162C180.636 64.6515 180.309 63.4456 179.369 62.8975C178.407 62.3493 177.205 62.6782 176.659 63.621C176.112 64.5857 176.44 65.7916 177.38 66.3398C178.32 66.9098 179.544 66.5809 180.09 65.6162ZM173.533 61.8231C173.883 61.2092 173.686 60.398 173.052 60.0472C172.44 59.6964 171.632 59.8937 171.282 60.5295C170.932 61.1434 171.129 61.9328 171.763 62.3055C172.397 62.6563 173.183 62.459 173.533 61.8231Z" fill="#99558E"/>
<path d="M186.888 80.6132C185.489 82.0164 185.489 84.2966 186.888 85.6999C188.286 87.1031 190.56 87.1031 191.958 85.6999C193.357 84.2966 193.357 82.0164 191.958 80.6132C190.56 79.2099 188.286 79.2099 186.888 80.6132ZM183.238 76.9297C184.243 75.9211 184.243 74.2767 183.238 73.2682C182.232 72.2596 180.593 72.2596 179.588 73.2682C178.582 74.2767 178.582 75.9211 179.588 76.9297C180.593 77.9602 182.232 77.9602 183.238 76.9297ZM176.419 70.089C177.118 69.3874 177.118 68.2472 176.419 67.5456C175.719 66.844 174.583 66.844 173.883 67.5456C173.184 68.2472 173.184 69.3874 173.883 70.089C174.583 70.7906 175.719 70.7906 176.419 70.089ZM169.447 64.8049C169.906 65.2654 170.671 65.2654 171.129 64.8049C171.588 64.3445 171.588 63.5771 171.129 63.1167C170.671 62.6563 169.906 62.6563 169.447 63.1167C168.966 63.5771 168.966 64.3226 169.447 64.8049Z" fill="#AF3579"/>
<path d="M179.369 86.6427C177.752 87.5855 177.205 89.6465 178.123 91.269C179.063 92.8914 181.117 93.4396 182.735 92.5187C184.352 91.5759 184.899 89.5149 183.981 87.8925C183.041 86.27 180.986 85.6999 179.369 86.6427ZM177.446 78.5303C176.79 77.3902 175.326 76.9955 174.189 77.6533C173.053 78.3111 172.659 79.7801 173.315 80.9202C173.971 82.0603 175.435 82.455 176.571 81.7972C177.708 81.1394 178.101 79.6704 177.446 78.5303ZM171.741 73.4217C172.506 72.9832 172.768 71.9965 172.331 71.2291C171.894 70.4618 170.911 70.1987 170.168 70.6372C169.403 71.0757 169.14 72.0623 169.577 72.8078C170.015 73.5971 170.976 73.8602 171.741 73.4217ZM166.977 65.112C166.452 65.4189 166.277 66.0767 166.583 66.6029C166.889 67.1291 167.545 67.3045 168.069 66.9975C168.594 66.6906 168.769 66.0328 168.463 65.5066C168.157 65.0023 167.501 64.805 166.977 65.112Z" fill="#BE266A"/>
<path d="M170.474 90.5453C168.769 91.0058 167.764 92.7598 168.223 94.4481C168.682 96.1582 170.43 97.1668 172.113 96.7064C173.818 96.2459 174.823 94.4919 174.364 92.8037C173.927 91.0935 172.179 90.0849 170.474 90.5453ZM168.944 84.757C170.102 84.4501 170.802 83.2442 170.496 82.0602C170.19 80.8982 168.988 80.1965 167.807 80.5035C166.649 80.8105 165.95 82.0164 166.256 83.2003C166.561 84.3624 167.764 85.064 168.944 84.757ZM167.523 73.6628C167.305 72.8735 166.496 72.3911 165.687 72.6104C164.9 72.8296 164.42 73.6408 164.638 74.4521C164.857 75.2414 165.665 75.7238 166.474 75.5045C167.261 75.2853 167.72 74.4521 167.523 73.6628ZM165.25 67.129C165.097 66.6028 164.573 66.2739 164.026 66.4274C163.502 66.5589 163.174 67.129 163.327 67.6552C163.48 68.1814 164.004 68.5103 164.551 68.3568C165.075 68.2034 165.403 67.6552 165.25 67.129Z" fill="#D4535C"/>
<path d="M160.835 91.9925C159.196 91.9925 157.841 93.33 157.841 94.9963C157.841 96.6407 159.174 98.0001 160.835 98.0001C162.474 98.0001 163.829 96.6626 163.829 94.9963C163.829 93.33 162.496 91.9925 160.835 91.9925ZM158.846 83.617C158.846 84.7133 159.742 85.6122 160.835 85.6122C161.928 85.6122 162.824 84.7133 162.824 83.617C162.824 82.5207 161.928 81.6218 160.835 81.6218C159.742 81.6218 158.846 82.4988 158.846 83.617ZM160.835 76.1185C161.6 76.1185 162.234 75.4827 162.234 74.7153C162.234 73.9479 161.6 73.3121 160.835 73.3121C160.07 73.3121 159.436 73.9479 159.436 74.7153C159.458 75.5046 160.07 76.1185 160.835 76.1185ZM160.835 66.9318C160.332 66.9318 159.939 67.3264 159.939 67.8307C159.939 68.335 160.332 68.7296 160.835 68.7296C161.338 68.7296 161.731 68.335 161.731 67.8307C161.731 67.3483 161.338 66.9318 160.835 66.9318Z" fill="#E06550"/>
<path d="M151.109 90.8962C149.623 90.5015 148.093 91.3785 147.7 92.8694C147.306 94.3604 148.18 95.8952 149.667 96.2898C151.153 96.6845 152.683 95.8074 153.076 94.3165C153.47 92.8256 152.595 91.2908 151.109 90.8962ZM153.797 80.8762C152.836 80.6131 151.852 81.1832 151.612 82.1479C151.35 83.1126 151.918 84.0993 152.88 84.3405C153.841 84.6036 154.825 84.0335 155.065 83.0688C155.306 82.1041 154.737 81.1174 153.797 80.8762ZM155.961 72.7638C155.262 72.5884 154.562 72.9831 154.388 73.6847C154.213 74.3863 154.606 75.0879 155.306 75.2853C156.005 75.4607 156.704 75.066 156.879 74.3644C157.054 73.6628 156.639 72.9612 155.961 72.7638ZM158.169 67.5675C158.278 67.1509 158.038 66.7124 157.6 66.5809C157.185 66.4712 156.748 66.7124 156.617 67.1509C156.508 67.5675 156.748 68.006 157.185 68.1376C157.622 68.2472 158.059 68.006 158.169 67.5675Z" fill="#F57F28"/>
<path d="M141.93 87.3004C140.684 86.5769 139.11 87.0154 138.389 88.2432C137.668 89.4929 138.105 91.0716 139.329 91.7951C140.575 92.5187 142.148 92.0801 142.869 90.8523C143.591 89.6026 143.175 88.002 141.93 87.3004ZM147.11 78.2891C146.345 77.8506 145.383 78.1137 144.924 78.8811C144.487 79.6484 144.749 80.6132 145.514 81.0517C146.279 81.4902 147.241 81.2271 147.7 80.4597C148.137 79.7142 147.875 78.7276 147.11 78.2891ZM150.148 73.027C150.716 73.3559 151.459 73.1585 151.787 72.5885C152.115 72.0184 151.918 71.2729 151.35 70.9441C150.781 70.6152 150.038 70.8125 149.71 71.3826C149.383 71.9526 149.579 72.6981 150.148 73.027ZM154.541 65.4189C154.213 65.2215 153.776 65.3312 153.579 65.682C153.382 66.0108 153.492 66.4494 153.841 66.6467C154.169 66.844 154.606 66.7344 154.803 66.3836C154.978 66.0328 154.868 65.6162 154.541 65.4189Z" fill="#F89829"/>
<path d="M130.587 81.4025C129.647 82.3453 129.647 83.8581 130.587 84.8009C131.527 85.7437 133.035 85.7437 133.974 84.8009C134.914 83.8581 134.914 82.3453 133.974 81.4025C133.035 80.4597 131.527 80.4597 130.587 81.4025ZM139.329 74.0575C138.783 74.6056 138.783 75.4826 139.329 76.0308C139.876 76.5789 140.75 76.5789 141.296 76.0308C141.843 75.4826 141.843 74.6056 141.296 74.0575C140.75 73.5093 139.876 73.5093 139.329 74.0575ZM145.799 67.9841C145.361 68.4226 145.361 69.1023 145.799 69.5408C146.236 69.9794 146.913 69.9794 147.35 69.5408C147.787 69.1023 147.787 68.4226 147.35 67.9841C146.913 67.5456 146.236 67.5456 145.799 67.9841ZM151.853 63.4675C151.612 63.2263 151.241 63.2263 151 63.4675C150.76 63.7087 150.76 64.0814 151 64.3226C151.241 64.5638 151.612 64.5638 151.853 64.3226C152.093 64.0814 152.093 63.6868 151.853 63.4675Z" fill="#FDC126"/>
<path d="M124.773 72.7858C123.724 73.3997 123.374 74.7371 123.965 75.7895C124.577 76.842 125.91 77.1928 126.959 76.6008C128.008 75.9869 128.358 74.6494 127.767 73.597C127.156 72.5446 125.822 72.1718 124.773 72.7858ZM135.111 67.9622C134.543 68.2911 134.346 69.0365 134.674 69.6066C135.002 70.1766 135.745 70.374 136.313 70.0451C136.881 69.7162 137.078 68.9707 136.75 68.4007C136.401 67.8306 135.679 67.6333 135.111 67.9622ZM142.87 63.6867C142.389 63.9717 142.236 64.5637 142.498 65.0461C142.783 65.5285 143.373 65.6819 143.854 65.4188C144.334 65.1338 144.487 64.5418 144.225 64.0595C143.963 63.5771 143.351 63.4017 142.87 63.6867Z" fill="#FED626"/>
<path d="M120.314 47.5277H123.833V61.0776H120.314V47.5277ZM122.478 41.4763C121.385 41.1913 120.27 41.8271 119.986 42.9234C119.702 44.0197 120.336 45.1379 121.429 45.4229C122.522 45.7079 123.636 45.0721 123.92 43.9758C124.205 42.8795 123.549 41.7613 122.478 41.4763ZM134.695 61.3626C133.778 61.3626 132.947 61.2092 132.226 60.8803C131.483 60.5514 130.893 60.069 130.455 59.4332V67.8526H127.024V47.5277H130.434V49.4133C130.893 48.7336 131.483 48.2074 132.204 47.8347C132.947 47.44 133.756 47.2646 134.674 47.2646C135.526 47.2646 136.335 47.4181 137.122 47.747C137.908 48.0759 138.608 48.5363 139.198 49.1721C139.788 49.786 140.269 50.5315 140.64 51.4085C140.99 52.2855 141.187 53.2503 141.187 54.3246C141.187 55.4209 141.012 56.3856 140.64 57.2407C140.269 58.0958 139.788 58.8412 139.198 59.4551C138.608 60.0691 137.908 60.5514 137.143 60.8803C136.335 61.2092 135.526 61.3626 134.695 61.3626ZM133.996 58.0958C134.521 58.0958 135.001 57.9861 135.439 57.7888C135.898 57.5915 136.291 57.3064 136.619 56.9776C136.969 56.6268 137.231 56.2321 137.427 55.7717C137.624 55.3112 137.712 54.807 137.712 54.2807C137.712 53.7545 137.624 53.2503 137.427 52.7898C137.231 52.3294 136.969 51.9347 136.619 51.5839C136.269 51.2331 135.876 50.97 135.439 50.7727C134.98 50.5753 134.499 50.4657 133.996 50.4657C133.472 50.4657 132.969 50.5753 132.51 50.7727C132.051 50.97 131.657 51.255 131.33 51.5839C131.002 51.9347 130.74 52.3294 130.543 52.8117C130.346 53.2722 130.259 53.7765 130.259 54.3027C130.259 54.8289 130.346 55.3332 130.543 55.7936C130.74 56.254 131.002 56.6487 131.33 56.9995C131.657 57.3503 132.051 57.6134 132.51 57.8107C132.947 58.0081 133.45 58.0958 133.996 58.0958ZM143.656 47.5277H147.066V49.6106C147.394 48.7994 147.897 48.2074 148.53 47.8347C149.164 47.4619 149.929 47.2646 150.803 47.2646C151.262 47.2646 151.678 47.3085 152.071 47.4181C152.464 47.5277 152.792 47.6373 153.076 47.7908L151.831 51.2112C151.656 51.0796 151.394 50.97 151.088 50.8823C150.76 50.7946 150.41 50.7508 150.038 50.7508C149.164 50.7508 148.443 50.9919 147.918 51.4962C147.394 52.0005 147.11 52.8117 147.11 53.9519V61.0995H143.678L143.656 47.5277ZM160.704 61.3626C159.677 61.3626 158.737 61.1872 157.885 60.8145C157.011 60.4418 156.267 59.9375 155.612 59.3017C154.978 58.6658 154.475 57.8984 154.104 57.0653C153.754 56.2102 153.557 55.2893 153.557 54.3246C153.557 53.3599 153.732 52.439 154.104 51.5839C154.453 50.7288 154.956 49.9834 155.612 49.3475C156.246 48.7117 157.011 48.2074 157.885 47.8347C158.759 47.4619 159.699 47.2865 160.704 47.2865C161.71 47.2865 162.649 47.4619 163.524 47.8347C164.398 48.2074 165.163 48.7117 165.797 49.3475C166.43 49.9834 166.933 50.7288 167.305 51.5839C167.676 52.439 167.851 53.3599 167.851 54.3246C167.851 55.2893 167.676 56.2102 167.305 57.0653C166.933 57.9204 166.43 58.6658 165.797 59.3017C165.163 59.9375 164.398 60.4418 163.524 60.8145C162.671 61.1872 161.731 61.3626 160.704 61.3626ZM160.748 58.0738C161.272 58.0738 161.753 57.9642 162.19 57.7669C162.649 57.5696 163.043 57.3065 163.371 56.9556C163.698 56.6268 163.961 56.2321 164.157 55.7717C164.354 55.3112 164.442 54.807 164.442 54.2807C164.442 53.7545 164.354 53.2722 164.157 52.7898C163.961 52.3294 163.698 51.9128 163.371 51.5839C163.043 51.255 162.649 50.9919 162.19 50.7727C161.731 50.5753 161.251 50.4657 160.748 50.4657C160.223 50.4657 159.743 50.5753 159.305 50.7727C158.846 50.97 158.453 51.2331 158.125 51.5839C157.797 51.9128 157.535 52.3294 157.338 52.7898C157.142 53.2503 157.054 53.7545 157.054 54.2807C157.054 54.807 157.142 55.3112 157.338 55.7717C157.535 56.2321 157.797 56.6268 158.125 56.9556C158.453 57.2845 158.846 57.5476 159.305 57.7669C159.743 57.9861 160.223 58.0738 160.748 58.0738ZM95.9229 47.5277H99.4198L102.152 56.1883L105.343 47.5277H108.425L111.572 56.1883L114.391 47.5277H117.888L113.32 61.0776H110.064L106.851 52.2417L103.594 61.0776H100.294L95.9229 47.5277Z" fill="#341D55"/>
</g>
<defs>
<clipPath id="clip0_667_19102">
<rect width="134" height="87" fill="white" transform="translate(84 11)"/>
</clipPath>
</defs>
</svg>
