<svg width="303" height="110" viewBox="0 0 303 110" fill="none" xmlns="http://www.w3.org/2000/svg">
<rect x="0.5" y="0.5" width="302" height="109" rx="14.5" stroke="#BABCBE"/>
<path fill-rule="evenodd" clip-rule="evenodd" d="M57.0204 53.6973V53.2044L52.8492 49.6113H52.3631C51.216 50.8796 49.4449 51.8301 47.4636 51.8301C44.3705 51.8301 41.9368 49.47 41.9368 46.2301C41.9368 42.9902 44.3705 40.6301 47.4636 40.6301C49.4449 40.6301 51.216 41.5805 52.3631 42.8489H52.8492L57.0204 39.2558V38.7629C54.8305 36.0865 51.3909 34.3606 47.4973 34.3606C40.3389 34.3606 34.918 39.4324 34.918 46.2301C34.918 46.4934 34.9773 46.7358 34.995 46.9943C37.9244 48.9883 40.5106 50.5842 42.7373 52.0452C45.9475 54.0778 48.5385 55.9482 50.6722 57.687C53.1603 57.0711 55.3854 55.6727 57.0204 53.6973ZM37.5282 53.5705C39.1998 55.6255 41.5598 57.0994 44.3432 57.7287C42.463 56.6707 40.6421 55.6319 38.9464 54.4824C38.449 54.1741 38.0062 53.8755 37.5282 53.5705ZM81.1651 56.5872L80.1223 52.0789L79.7405 51.8317C79.5319 51.9377 79.3587 52.0789 78.8373 52.0789C78.0367 52.0789 77.5506 51.2328 77.1335 50.565C76.4388 49.5069 75.8821 48.9434 75.396 48.6978C77.9324 47.5707 79.6362 45.4578 79.6362 42.4283C79.6362 37.7434 76.4388 34.7844 70.4965 34.7844H60.1392V57.6789H67.02V49.6482H67.6457C69.1746 49.6482 71.1222 52.9588 72.0254 54.439C73.9024 57.4333 75.396 58.1012 78.072 58.1012C79.3234 58.1012 80.3662 57.6436 80.9918 57.0801L81.1651 56.5872ZM72.6158 42.8152C72.6158 44.3308 71.504 45.0693 70.2174 45.0693H67.02V40.4198H70.2174C71.504 40.4198 72.6158 41.2659 72.6158 42.8152ZM107.748 46.2381C107.748 39.4404 102.327 34.3686 95.1337 34.3686C87.9384 34.3686 82.5175 39.4404 82.5175 46.2381C82.5175 53.0358 87.9384 58.1076 95.1337 58.1076C102.327 58.1076 107.748 53.0005 107.748 46.2381ZM100.728 46.2381C100.728 49.5133 98.2252 51.8381 95.1337 51.8381C92.0406 51.8381 89.5379 49.5133 89.5379 46.2381C89.5379 42.9629 92.0406 40.6381 95.1337 40.6381C98.2252 40.6381 100.728 42.9629 100.728 46.2381ZM123.085 34.7909L118.802 47.3925L114.743 34.7909H108.165L107.861 35.3191L116.267 57.6838H120.438L125.171 45.209L129.92 57.6838H134.091L142.513 35.3191L142.193 34.7909H135.631L131.556 47.4727L127.257 34.7909H123.085ZM167.701 46.2044C167.701 39.3714 163.148 34.7925 155.746 34.7925H145.215V57.687H155.746C163.148 57.687 167.701 53.1081 167.701 46.2044ZM160.681 46.2397C160.681 49.9725 158.491 52.0516 155.468 52.0516H152.096V40.4278H155.468C158.491 40.4278 160.681 42.5069 160.681 46.2397ZM190.466 40.4262H197.204V57.6838H204.103V40.4262H211.001V34.7909H190.466V40.4262ZM232.98 42.4331C232.98 37.7482 229.783 34.7893 223.84 34.7893H213.483V57.6838H220.365V49.653H221.998L226.272 57.6838H233.119L233.432 57.1555L228.844 48.6672C231.311 47.5049 232.98 45.4273 232.98 42.4331ZM225.96 42.82C225.96 44.3356 224.848 45.0741 223.561 45.0741H220.365V40.4246H223.561C224.848 40.4246 225.96 41.2707 225.96 42.82ZM237.151 57.6838H244.05V34.7909H237.151V57.6838ZM255.28 42.9276V34.7909H248.381V57.6838H255.28V50.6356L256.563 49.1585L262.339 57.6838H269.558L269.879 57.1539L261.536 45.0324L269.237 35.3191L269.077 34.7909H261.697L255.28 42.9276ZM278.702 52.0484V48.8856H286.564V43.5955H278.702V40.4262H288.97V34.7893H271.804V57.6838H289.13V52.0484H278.702Z" fill="#FC0000"/>
<path fill-rule="evenodd" clip-rule="evenodd" d="M179.396 57.9518C184.437 57.9518 188.812 55.4874 188.812 50.7351C188.812 45.5557 184.402 44.2167 180.51 43.0897C178.979 42.6321 177.413 42.1023 177.413 40.9752C177.413 40.1644 178.283 39.6716 179.605 39.6716C181.865 39.6716 183.776 41.0812 184.748 41.9979H185.234L188.465 38.1239V37.631C186.763 35.6947 183.29 34.2161 179.465 34.2161C174.113 34.2161 170.398 37.1028 170.398 41.2931C170.398 45.803 174.495 47.7761 177.97 48.7619C180.231 49.3961 181.763 49.5005 181.763 50.7351C181.763 51.6165 180.683 52.1447 179.013 52.1447C176.892 52.1447 174.322 50.7704 173.072 49.5374H172.586L169.39 53.5511V54.0456C171.439 56.3335 175.121 57.9518 179.396 57.9518ZM60.7103 79C59.0434 75.1821 55.6953 70.2821 42.5817 63.2885C36.5335 59.9234 26.2018 54.7424 16.913 44.8894C17.7552 48.444 22.0708 56.2548 40.6245 66.0018C45.7647 68.8163 54.4568 71.4557 60.7103 78.9872M59.8761 72.4656C58.2942 67.9541 55.4386 62.1775 41.8919 53.6009C35.2966 49.2757 25.6082 43.8443 12.8701 30C13.7814 33.7328 17.8081 43.4381 38.1057 56.0413C44.7732 60.5624 53.3787 63.3511 59.8761 72.4656Z" fill="#FC0000"/>
</svg>
