<svg width="303" height="110" viewBox="0 0 303 110" fill="none" xmlns="http://www.w3.org/2000/svg">
<rect x="0.5" y="0.5" width="302" height="109" rx="14.5" stroke="#BABCBE"/>
<path fill-rule="evenodd" clip-rule="evenodd" d="M220.873 26.4178C220.873 24.5321 219.197 22.8553 217.102 22.8553H211.863C209.765 22.8553 208.088 24.5321 208.088 26.4178L208.297 82.5983C208.297 84.4841 209.765 86.1608 211.863 86.1608H217.102C219.197 86.1608 220.873 84.4841 220.873 82.5983V26.4178ZM227.582 28.0945V30.6105C227.582 31.8693 228.421 32.7085 229.68 32.7085H266.573C268.25 32.7085 269.717 31.2407 269.717 29.564V25.1622C269.717 23.4855 268.25 21.8087 266.573 22.0177C266.573 22.0177 230.935 25.5802 229.68 25.7892C228.42 25.7892 227.582 26.839 227.582 28.0945ZM197.608 86.1608C188.385 86.1608 182.723 79.2432 182.723 71.4879V49.0565H179.998C178.74 49.0565 177.482 47.801 177.482 46.5406V42.7658C177.482 41.3013 178.738 40.2531 179.998 40.2531H182.723V26.4162C182.723 24.5304 184.191 22.8536 186.286 22.8536H191.525C193.414 22.8536 194.878 24.5304 194.878 26.4162V40.2531H203.055C204.522 40.2531 205.571 41.2997 205.571 42.7658V46.5406C205.571 47.7994 204.524 49.0565 203.055 49.0565H194.878V69.8111C194.878 73.7916 197.394 76.7288 201.798 76.7288H202.637C204.101 76.7288 205.362 77.7754 205.362 79.4538V83.4375C205.362 84.9053 204.103 86.1624 202.637 86.1624L197.608 86.1608ZM134.72 62.4739C134.72 50.5259 127.594 38.578 111.451 38.578C96.5682 38.578 88.3936 50.317 88.3936 62.4739C88.3936 75.4684 97.1968 87 111.66 87C121.514 87 131.156 81.9697 133.042 73.3753C133.251 72.3287 132.413 70.6504 130.945 70.6504H123.819C122.562 70.6504 121.514 71.2806 120.883 72.3271C118.787 75.261 115.853 76.7288 111.66 76.7288C105.372 76.7288 101.179 71.9059 100.759 66.4576H130.735C133.463 66.4576 134.72 64.9899 134.72 62.4739ZM100.97 57.4436C101.389 52.2043 106 48.2206 111.451 48.2206C117.112 48.2206 121.723 52.2043 122.351 57.4436H100.97ZM270.975 62.4739C270.975 50.5259 263.846 38.578 247.706 38.578C232.821 38.578 224.65 50.317 224.65 62.4739C224.65 75.4684 233.453 87 247.918 87C257.768 87 267.412 81.9697 269.298 73.3753C269.507 72.3287 268.668 70.6504 267.203 70.6504H260.075C259.481 70.6448 258.896 70.7971 258.381 71.0917C257.865 71.3864 257.437 71.8127 257.14 72.3271C255.045 75.261 252.111 76.7288 247.708 76.7288C241.629 76.7288 237.437 71.9059 237.019 66.4576H266.993C269.719 66.4576 270.975 64.9899 270.975 62.4739ZM237.226 57.4436C237.644 52.2043 242.256 48.2206 247.706 48.2206C253.366 48.2206 257.977 52.2043 258.398 57.4436H237.226Z" fill="#2B5692"/>
<path fill-rule="evenodd" clip-rule="evenodd" d="M172.658 23.4862H75.8122C73.5069 23.4862 71.8285 25.3719 71.8285 27.4667L72.0375 65.6208C72.0375 65.6208 51.2849 27.8879 50.2367 26.0022C49.1886 24.1132 46.8816 22.4364 43.9478 22.4364H35.982C33.6767 22.4364 32 24.3254 32 26.4201V82.1794C32 84.4864 33.6767 86.1632 35.982 86.1632H41.0122C43.3176 86.1632 44.9943 84.4864 44.9943 82.1794L44.7853 43.191C44.7853 43.191 65.7469 81.1329 66.7951 82.6007C67.8433 84.6954 69.9396 86.1632 72.8735 86.1632H80.209C82.5159 86.1632 84.1926 84.4864 84.1926 82.1794V32.9198H172.653C174.121 32.9198 175.378 31.661 175.378 30.1949V26.2111C175.383 24.7418 174.127 23.4862 172.658 23.4862Z" fill="#2B5692"/>
<path fill-rule="evenodd" clip-rule="evenodd" d="M156.941 47.8C161.134 47.8 164.278 49.2645 165.535 51.9927C165.957 53.2482 167.003 53.4572 168.471 53.4572H174.34C175.179 53.4572 176.435 52.618 176.435 51.3625C176.435 44.6538 168.262 38.5753 156.941 38.5753C145.202 38.5753 137.447 44.2326 137.447 53.0392C137.447 59.9569 142.897 63.9406 149.395 65.8264C152.539 66.4566 157.779 67.7121 160.295 68.5513C162.81 69.1815 165.325 70.0191 165.325 72.3261C165.325 76.0976 161.553 77.149 157.148 77.149C153.168 77.149 149.184 75.469 148.136 72.5351C147.506 70.8583 146.249 70.6493 144.572 70.6493H138.703C137.655 70.6493 136.397 71.6959 136.397 72.9563V73.7922C136.397 80.2919 145.202 86.999 157.361 86.999C165.746 86.999 177.694 83.4365 177.694 72.1171C177.694 65.4052 173.292 60.7961 165.955 58.9103C163.23 58.2801 156.523 56.3944 155.054 56.1854C152.329 55.3462 149.813 54.5086 149.813 52.4107C149.815 48.8481 152.961 47.8 156.941 47.8Z" fill="#2B5692"/>
</svg>
