<svg width="303" height="110" viewBox="0 0 303 110" fill="none" xmlns="http://www.w3.org/2000/svg">
<rect x="0.5" y="0.5" width="302" height="109" rx="14.5" stroke="#BABCBE"/>
<path d="M141.719 75.6133C140.73 73.019 136.891 69.9749 136.891 69.9749C133.936 67.3807 131.972 63.7967 131.522 62.1022L130.353 61.7423V81.4166H132.137V68.0855C133.037 70.6797 137.415 74.0837 137.415 74.0837C137.415 74.0837 140.82 76.9479 142.424 80.8768L143.504 81.4166V62.0122H141.719V75.6133Z" fill="#DDAD7F"/>
<path d="M123.739 62.2821C120.695 67.1107 118.371 68.3703 114.967 71.7594C112.102 74.6235 109.958 77.8476 111.023 81.4166H114.337C113.617 79.6321 114.157 77.6526 114.607 76.9478H122.749V81.4166H124.804V61.6523C124.819 61.6523 124.189 61.5623 123.739 62.2821ZM122.764 75.6132H115.251C116.421 72.4791 120.89 70.6047 122.764 67.1107V75.6132Z" fill="#DDAD7F"/>
<path d="M106.299 78.8373L107.994 64.9664C108.444 63.0919 108.713 62.1022 111.128 60.1378C109.433 59.9578 108.623 60.9475 107.289 60.8576H96.7319C94.5875 60.6776 94.0477 62.5521 94.4076 63.2719C94.6775 62.642 95.0374 62.642 95.6672 62.5521H105.684C105.684 62.5521 104.425 63.9767 104.17 65.9561C104.17 65.9561 103.09 77.9376 103.27 81.7015C103.45 89.2143 109.088 93.3381 111.683 92.9782C107.469 89.1244 105.849 84.4607 106.299 78.8373Z" fill="#DDAD7F"/>
<path d="M163.103 51.5453C163.732 51.8152 164.182 51.6353 163.372 51.0054C158.634 47.9613 155.86 40.7184 155.59 34.5402V22.1988C156.579 22.8286 158.454 22.9186 158.454 22.9186H165.607C167.481 22.9186 168.471 23.5484 169.191 25.2429C169.821 22.2888 167.931 19.6045 164.992 19.6045H156.924C154.87 19.6945 152.096 18 152.096 18V31.5111C152.096 45.2021 159.609 51.0204 163.103 51.5453Z" fill="#DDAD7F"/>
<path d="M150.221 18C150.221 18 147.537 19.6945 145.393 19.6045H137.34C134.476 19.6045 132.512 22.2888 133.141 25.2429C133.951 23.5484 134.926 22.9186 136.8 22.9186H143.863C143.863 22.9186 145.738 22.8286 146.727 22.1988V34.5402C146.457 40.7034 143.683 47.9613 138.945 50.9904C138.135 51.6203 138.585 51.8002 139.215 51.5303C142.709 50.9904 150.221 45.1871 150.221 31.4961V18Z" fill="#DDAD7F"/>
<path d="M152.366 62.0122H149.861V81.4166H152.366V62.0122Z" fill="#DDAD7F"/>
<path d="M208 77.0378C209.604 74.8035 210.594 71.0396 208.54 67.3806C206.665 63.8867 201.387 60.6776 201.297 59.5979C198.703 61.6523 196.558 63.4368 195.388 66.121C194.129 68.8052 193.784 72.6441 195.388 75.9582C197.173 79.6321 199.242 81.5965 201.657 84.0108C203.351 85.8853 206.575 89.6492 205.511 92.9632C206.32 92.9632 207.385 90.9988 207.565 90.279C208.015 87.9547 207.745 86.785 206.755 85.0905C206.125 83.9358 204.791 82.7662 203.801 81.6115C205.226 80.4419 206.755 78.7473 208 77.0378ZM202.361 80.2619C200.307 78.5674 199.047 77.1278 197.803 74.3536C196.543 71.8493 196.468 68.8952 196.993 66.8408C197.623 64.6064 199.137 63.0019 200.577 61.8323C202.182 63.0019 203.891 64.4265 205.136 66.4809C207.19 69.9749 207.19 72.4792 205.855 75.8682C205.046 77.8476 204.161 79.0023 202.361 80.2619Z" fill="#DDAD7F"/>
<path d="M186.991 74.0837H179.913V62.0122H177.318V80.8917H179.913V75.6133H186.991V81.1617H189.675V62.0122H186.991V74.0837Z" fill="#DDAD7F"/>
<path d="M168.651 70.6947C166.057 69.3601 163.822 68.4604 161.768 66.8558C160.688 65.9561 160.688 64.3516 161.678 63.6318C162.757 62.822 164.542 62.912 165.787 63.5418C166.956 64.2616 167.301 65.0564 168.201 65.8661C168.831 66.406 169.461 66.6759 170.075 66.4959C169.805 65.2363 168.996 64.0816 167.931 63.0919C165.427 60.9475 161.138 61.4874 159.518 63.1819C157.644 65.2363 158.259 67.2007 160.058 69.0002C162.113 71.0546 165.787 71.8644 168.726 74.6386C170.15 75.9732 170.42 78.0426 168.456 79.2872C167.121 80.097 164.797 80.3669 162.727 79.5572C161.303 78.9273 160.673 78.4025 159.683 77.0529C159.054 76.0782 158.529 75.3584 156.909 75.3584C157.179 77.7727 159.054 79.7371 161.468 80.7268C164.602 81.8965 168.096 81.7165 170.855 79.8271C174.199 77.5777 173.389 73.199 168.651 70.6947Z" fill="#DDAD7F"/>
<path d="M151.197 53.7797C149.772 53.7797 148.692 54.8594 148.692 56.2839C148.692 57.6186 149.772 58.7882 151.197 58.7882C152.456 58.7882 153.611 57.6186 153.611 56.2839C153.626 54.8594 152.456 53.7797 151.197 53.7797Z" fill="#DDAD7F"/>
</svg>
