<svg width="303" height="110" viewBox="0 0 303 110" fill="none" xmlns="http://www.w3.org/2000/svg">
<rect x="0.5" y="0.5" width="302" height="109" rx="14.5" stroke="#BABCBE"/>
<path fill-rule="evenodd" clip-rule="evenodd" d="M97.077 17H44V34.3076H61.7416V55.7987H79.048V34.3076H97.077V17ZM151.019 55.6555L134.288 17H113.231L96.4998 55.6555H113.809L123.759 32.6597L133.711 55.6555H151.019ZM201.931 17H148.855V34.3076H166.596V55.7987H183.903V34.3076H201.931V17ZM255.873 55.6555L239.144 17H218.086L201.354 55.6555H218.663L228.613 32.6597L238.566 55.6555H255.873Z" fill="#2D509F"/>
<path d="M44 60.8445H256.306V64.3088H44V60.8445ZM44 88.538H256.306V92H44V88.538Z" fill="#2D509F"/>
<path fill-rule="evenodd" clip-rule="evenodd" d="M46.9537 71.1982C45.6596 72.7591 45.0137 74.7587 45.0137 77.2014C45.0137 80.4183 45.8749 82.7935 47.595 84.335C48.9005 85.4985 50.5164 86.0837 52.4415 86.0837C54.6701 86.0837 56.4429 85.3725 57.7598 83.9525C58.8558 82.774 59.5017 81.3127 59.6953 79.5709H57.5113C57.2834 80.66 56.9445 81.5372 56.4829 82.2083C55.6217 83.476 54.3632 84.1116 52.7118 84.1116C50.9161 84.1116 49.5636 83.5104 48.6589 82.2999C47.753 81.0963 47.3018 79.5239 47.3018 77.5874C47.3018 75.2191 47.8034 73.4623 48.8066 72.3194C49.8087 71.1742 51.1245 70.5993 52.7541 70.5993C54.0917 70.5993 55.1304 70.9119 55.8691 71.5338C56.6089 72.1579 57.1025 73.0031 57.351 74.0727H59.5372C59.4112 72.6652 58.7688 71.4112 57.611 70.3084C56.4543 69.2033 54.8281 68.649 52.7324 68.649C50.2782 68.6478 48.3497 69.501 46.9537 71.1982ZM65.2747 82.245C64.3471 80.9875 63.8833 79.4403 63.8833 77.608C63.8833 75.3153 64.4238 73.5837 65.506 72.4098C66.5871 71.2337 67.9866 70.6451 69.6987 70.6451C71.4634 70.6451 72.8537 71.2383 73.8706 72.4236C74.891 73.6089 75.3995 75.179 75.3995 77.1236C75.3995 78.9639 74.9552 80.5901 74.0756 82.009C73.1927 83.4268 71.76 84.1323 69.7891 84.1323C67.706 84.1311 66.2023 83.5047 65.2747 82.245ZM63.2305 71.7124C62.1162 73.3077 61.5608 75.2214 61.5608 77.4614C61.5608 79.9419 62.209 81.9907 63.5122 83.6123C64.9689 85.2969 66.9708 86.1352 69.5189 86.1352C72.2456 86.1352 74.3436 85.1778 75.8152 83.2516C77.0692 81.6139 77.6968 79.5583 77.6968 77.0892C77.6968 74.8056 77.1482 72.9309 76.0523 71.4685C74.6471 69.5892 72.4827 68.6478 69.5624 68.6478C66.7669 68.6478 64.6586 69.6728 63.2305 71.7124ZM80.3113 85.6542V69.1002H83.5248L88.2797 83.0981L93.0002 69.1002H96.177V85.6542H94.0504V75.8867C94.0504 75.5466 94.0572 74.9877 94.0721 74.2044C94.0859 73.4234 94.0939 72.5874 94.0939 71.6929L89.3733 85.6542H87.1528L82.3979 71.6929V72.2003C82.3979 72.6057 82.4082 73.2252 82.4265 74.0544C82.4448 74.8824 82.4551 75.4928 82.4551 75.8867V85.6542H80.3113ZM99.5302 85.6542V69.1002H102.743L107.495 83.0981L112.218 69.1002H115.395V85.6542H113.264V75.8867C113.264 75.5466 113.27 74.9877 113.289 74.2044C113.304 73.4234 113.311 72.5874 113.311 71.6929L108.588 85.6542H106.369L101.613 71.6929V72.2003C101.613 72.6057 101.624 73.2252 101.642 74.0544C101.66 74.8824 101.669 75.4928 101.669 75.8867V85.6542H99.5302ZM118.961 78.3982C118.961 80.4332 119.235 82.001 119.783 83.0981C120.783 85.0954 122.678 86.0929 125.474 86.0929C128.268 86.0929 130.168 85.0954 131.178 83.0981C131.725 82.0022 131.999 80.4344 131.999 78.3982V69.1002H129.721V79.3338C129.721 80.526 129.537 81.4788 129.169 82.1854C128.488 83.4829 127.194 84.1311 125.294 84.1311C123.71 84.1311 122.582 83.5345 121.914 82.3285C121.463 81.5326 121.236 80.5329 121.236 79.3338V69.1002H118.961V78.3982ZM137.603 85.6542V72.2541L146.086 85.6542H148.599V69.1002H146.472V82.5095L138.111 69.1002H135.465V85.6542H137.603ZM152.631 85.6542H154.895V69.1002H152.631V85.6542ZM159.727 71.1982C158.436 72.7591 157.793 74.7587 157.793 77.2014C157.793 80.4183 158.649 82.7935 160.369 84.335C161.681 85.4985 163.293 86.0837 165.216 86.0837C167.448 86.0837 169.222 85.3725 170.535 83.9525C171.631 82.774 172.276 81.3127 172.474 79.5709H170.285C170.064 80.66 169.719 81.5372 169.26 82.2083C168.396 83.476 167.141 84.1116 165.486 84.1116C163.691 84.1116 162.341 83.5104 161.436 82.2999C160.532 81.0963 160.075 79.5239 160.075 77.5874C160.075 75.2191 160.578 73.4623 161.58 72.3194C162.582 71.1742 163.901 70.5993 165.532 70.5993C166.865 70.5993 167.903 70.9119 168.648 71.5338C169.387 72.1579 169.88 73.0031 170.129 74.0727H172.314C172.185 72.6652 171.542 71.4112 170.388 70.3084C169.231 69.2033 167.603 68.649 165.505 68.649C163.053 68.6478 161.126 69.501 159.727 71.1982ZM181.177 71.5578L183.69 78.87H178.506L181.177 71.5578ZM176.073 85.6542L177.864 80.6955H184.411L186.089 85.6542H188.545L182.542 69.1002H180.005L173.776 85.6542H176.073ZM189.2 69.1002H202.632V71.0711H197.053V85.6542H194.778V71.0711H189.2V69.1002ZM205.188 85.6542H207.452V69.1002H205.188V85.6542ZM213.949 82.245C213.02 80.9875 212.558 79.4403 212.558 77.608C212.558 75.3153 213.099 73.5837 214.182 72.4098C215.262 71.2337 216.658 70.6451 218.371 70.6451C220.136 70.6451 221.529 71.2383 222.545 72.4236C223.563 73.6089 224.075 75.179 224.075 77.1236C224.075 78.9639 223.632 80.5901 222.749 82.009C221.867 83.4268 220.436 84.1323 218.461 84.1323C216.38 84.1311 214.876 83.5047 213.949 82.245ZM211.905 71.7124C210.791 73.3077 210.236 75.2214 210.236 77.4614C210.236 79.9419 210.885 81.9907 212.187 83.6123C213.642 85.2969 215.645 86.1352 218.19 86.1352C220.919 86.1352 223.017 85.1778 224.489 83.2516C225.744 81.6139 226.372 79.5583 226.372 77.0892C226.372 74.8056 225.824 72.9309 224.728 71.4685C223.32 69.5892 221.158 68.6478 218.237 68.6478C215.441 68.6478 213.33 69.6728 211.905 71.7124ZM231.181 85.6542V72.2541L239.669 85.6542H242.18V69.1002H240.052V82.5095L231.69 69.1002H229.043V85.6542H231.181ZM246.773 84.5606C247.939 85.6142 249.549 86.1352 251.609 86.1352C253.372 86.1352 254.922 85.7436 256.256 84.9545C257.586 84.1666 258.255 82.8565 258.255 81.0242C258.255 79.548 257.729 78.4268 256.678 77.6538C256.07 77.2083 255.204 76.8624 254.085 76.6071L251.764 76.0768C250.203 75.7172 249.201 75.4126 248.756 75.1755C248.078 74.7999 247.742 74.2044 247.742 73.3947C247.742 72.6584 248.031 72.0125 248.608 71.4582C249.19 70.8993 250.138 70.6222 251.459 70.6222C253.097 70.6222 254.257 71.0562 254.944 71.9197C255.311 72.3938 255.55 73.0718 255.665 73.957H257.772C257.772 72.119 257.166 70.7814 255.949 69.9396C254.738 69.1036 253.262 68.6845 251.529 68.6845C249.644 68.6845 248.188 69.1609 247.157 70.1183C246.128 71.0688 245.613 72.2919 245.613 73.7749C245.613 75.1526 246.139 76.1856 247.192 76.8773C247.798 77.2736 248.837 77.6378 250.299 77.9687L252.543 78.4738C253.758 78.7555 254.652 79.0796 255.225 79.4529C255.788 79.84 256.07 80.4813 256.07 81.3837C256.07 82.5851 255.401 83.4165 254.064 83.8826C253.372 84.1242 252.608 84.2422 251.764 84.2422C249.885 84.2422 248.577 83.6936 247.834 82.5977C247.44 82.0136 247.221 81.2486 247.167 80.3118H245.06C245.038 82.1018 245.608 83.5161 246.773 84.5606Z" fill="#2D509F"/>
</svg>
