<svg width="303" height="110" viewBox="0 0 303 110" fill="none" xmlns="http://www.w3.org/2000/svg">
<rect x="0.5" y="0.5" width="302" height="109" rx="14.5" stroke="#BABCBE"/>
<g clip-path="url(#clip0_667_19129)">
<path d="M94.9682 32.0006H17.1456C14.9001 32.0006 13.0635 33.8394 13.0635 36.0877V72.9147C13.0635 75.1624 14.9001 77 17.1456 77L94.9682 76.995V32.0006Z" fill="#0E2D6D"/>
<path opacity="0.8" d="M94.9676 32.9473H16.2744C16.2744 32.9473 17.9942 42.2306 28.8459 50.0144C28.8459 50.0144 34.4012 54.2028 38.0199 54.1651H94.9659V32.9473H94.9676Z" fill="url(#paint0_linear_667_19129)"/>
<path d="M94.9678 76.9927L284.857 76.9893C287.099 76.9893 288.936 75.1516 288.936 72.9045V36.0871C288.936 33.8388 287.099 32 284.857 32H94.9678V76.9927Z" fill="url(#paint1_linear_667_19129)"/>
<path opacity="0.8" d="M94.9678 32.9473H285.7C285.7 32.9473 283.98 42.2306 273.13 50.0144C273.13 50.0144 267.571 54.2028 265.239 54.1651H94.9683L94.9678 32.9473Z" fill="url(#paint2_linear_667_19129)"/>
<path d="M67.1555 73.7909C67.6896 74.066 68.7747 74.3923 70.1339 74.4299C72.4766 74.4794 73.7504 73.5823 74.6962 71.4814L87.2486 43.4445C86.7313 43.1683 85.5777 42.8583 84.6482 42.8403C83.03 42.806 80.8604 43.134 79.4843 46.4453L75.4286 56.0471L67.4554 43.0473C66.9387 42.8921 65.6823 42.6676 64.7685 42.6676C61.9462 42.6676 60.3791 43.7015 58.743 45.4784L50.9962 53.9625L57.2283 63.7887C58.3819 65.5819 59.8978 66.496 62.3595 66.496C63.9782 66.496 65.3206 66.1185 65.9401 65.8249L58.4336 54.4963L63.7536 48.8404L72.4828 62.5647L67.1645 73.7909H67.1555ZM50.6889 63.1851C50.6889 65.254 49.8796 66.4459 45.8509 66.4459C45.3173 66.4459 44.8534 66.4093 44.4052 66.3402V38.9265C44.4052 36.8402 45.1106 34.6667 49.1736 34.6667C49.6909 34.6667 50.2065 34.7196 50.6889 34.822V63.1851ZM42.3793 59.048C42.3793 62.9095 39.8653 65.7197 34.7515 66.2727C31.0502 66.6703 25.696 66.2035 23.1483 65.9104C23.0618 65.4959 22.9933 64.9801 22.9933 64.5649C22.9933 61.2018 24.8007 60.4278 26.5047 60.4278C28.2784 60.4278 31.0682 60.7372 33.1345 60.7372C35.4232 60.7372 36.1118 59.9604 36.1118 59.2207C36.1118 58.2538 35.2002 57.8595 33.4265 57.5135L28.5711 56.5826C24.5423 55.8052 22.3906 53.013 22.3906 50.047C22.3906 46.4448 24.9383 43.4265 29.9488 42.8752C33.7366 42.4607 38.35 42.9258 40.8819 43.2363C40.9673 43.6678 41.019 44.0806 41.019 44.5295C41.019 47.8921 39.2458 48.616 37.5412 48.616C36.2326 48.616 34.2027 48.3747 31.8769 48.3747C29.5174 48.3747 28.5374 49.0306 28.5374 49.8226C28.5374 50.6674 29.4658 51.0117 30.948 51.2704L35.5788 52.1333C40.3304 53.0119 42.3793 55.7192 42.3793 59.048ZM130.577 60.9144C130.577 56.0882 127.439 53.7409 122.443 52.6345L113.69 50.6438C112.098 50.2894 110.772 49.8012 110.772 48.2082C110.772 46.4814 112.143 45.8176 115.811 45.8176C120.145 45.8176 121.161 46.0387 125.096 46.0387C126.909 46.0387 128.764 45.1966 128.764 41.6113C128.764 41.1675 128.722 40.6804 128.633 40.2377C125.98 40.0172 121.25 39.7511 115.416 39.7511C106.618 39.7511 103.257 43.5592 103.257 48.4287C103.257 52.9888 106.132 55.515 111.215 56.7092L119.968 58.7448C122.002 59.2297 123.108 60.1167 123.108 61.4015C123.108 63.1283 121.561 63.7932 117.892 63.7932C113.56 63.7932 111.57 63.4844 107.635 63.4844C105.822 63.4844 103.966 64.3231 103.966 67.9101C103.966 68.3528 104.011 68.8388 104.098 69.2826C106.753 69.5464 112.454 69.858 118.288 69.858C127.089 69.8569 130.583 66.0944 130.583 60.9144H130.577ZM202.812 53.1221V45.7293H209.751C212.715 45.7293 215.057 46.1703 215.057 49.2696C215.057 51.8802 213.289 53.1221 209.751 53.1221H202.807H202.812ZM202.766 58.9653H206.434L213.517 67.4213C214.839 69.0593 216.124 69.9013 219.13 69.9013C221.164 69.9013 222.534 69.6364 223.636 69.1031L214.435 58.4355C219.609 57.329 222.216 53.9619 222.216 49.0041C222.216 42.8943 218.501 39.8839 210.988 39.8839L200.246 39.8406C196.755 39.9727 195.603 41.1675 195.603 44.3557V69.4153C196.132 69.5031 196.755 69.5452 197.372 69.5452C201.792 69.5452 202.808 68.2639 202.808 65.961L202.774 58.9648L202.766 58.9653ZM140.962 53.9192V45.7726H148.167C151.75 45.7726 153.519 47.1007 153.519 49.714C153.519 52.504 151.75 53.9198 148.167 53.9198L140.962 53.9192ZM133.756 69.4159C134.287 69.5042 134.907 69.5464 135.523 69.5464C139.946 69.5464 140.962 68.2656 140.962 65.9622V59.8962H148.477C156.655 59.8962 160.722 56.3554 160.722 49.714C160.722 43.2937 156.655 39.8844 148.964 39.8844H138.397C134.861 39.8844 133.756 41.2569 133.756 44.4001V69.4159ZM184.641 54.2736C184.641 57.6845 184.067 60.0717 182.918 61.4904C181.813 62.9506 179.999 63.6154 177.524 63.6154C175.004 63.5699 173.194 62.8628 172.042 61.4904C170.895 60.1184 170.319 57.7278 170.319 54.2736C170.319 50.8649 170.938 48.4743 172.086 47.1012C173.236 45.6843 175.048 45.0206 177.523 45.0206C179.998 45.0206 181.768 45.6843 182.917 47.1012C184.063 48.4743 184.641 50.8649 184.641 54.2736ZM177.52 69.5042C182.161 69.5042 185.743 68.3978 188.264 66.1399C190.781 63.9248 192.067 59.9401 192.067 54.2741C192.019 48.697 190.739 44.7995 188.131 42.4966C185.521 40.2382 181.987 39.0885 177.519 39.0885C173.055 39.0885 169.517 40.2382 166.909 42.4966C164.301 44.7995 163.018 48.6964 162.973 54.2741C162.973 59.9401 164.256 63.9254 166.776 66.1399C169.298 68.3983 172.882 69.5042 177.521 69.5042H177.52ZM241.228 45.9509H247.02C248.922 45.9509 250.864 45.065 250.864 41.2997C250.864 40.8587 250.821 40.3266 250.732 39.8844H228.232C226.331 39.8844 224.384 40.7704 224.384 44.5323C224.384 44.9767 224.429 45.506 224.52 45.9509H234.023V69.4153C234.554 69.5031 235.172 69.5452 235.792 69.5452C240.209 69.5452 241.228 68.2639 241.228 65.961V45.9509ZM279.112 60.9144C279.112 56.0882 275.969 53.7409 270.977 52.6345L262.223 50.6438C260.631 50.2894 259.305 49.8012 259.305 48.2082C259.305 46.4814 260.675 45.8176 264.344 45.8176C268.678 45.8176 269.695 46.0387 273.628 46.0387C275.442 46.0387 277.298 45.1966 277.298 41.6113C277.298 41.1675 277.258 40.6804 277.168 40.2377C274.514 40.0172 269.784 39.7511 263.947 39.7511C255.152 39.7511 251.79 43.5592 251.79 48.4287C251.79 52.9888 254.664 55.515 259.749 56.7092L268.501 58.7448C270.536 59.2297 271.641 60.1167 271.641 61.4015C271.641 63.1283 270.092 63.7932 266.425 63.7932C262.093 63.7932 260.105 63.4844 256.166 63.4844C254.353 63.4844 252.498 64.3231 252.498 67.9101C252.498 68.3528 252.542 68.8388 252.631 69.2826C255.282 69.5464 260.986 69.858 266.822 69.858C275.623 69.8569 279.117 66.0944 279.117 60.9144H279.112Z" fill="white"/>
</g>
<defs>
<linearGradient id="paint0_linear_667_19129" x1="55.621" y1="32.9473" x2="55.621" y2="54.1651" gradientUnits="userSpaceOnUse">
<stop stop-color="white"/>
<stop offset="0.039" stop-color="#E7ECF5"/>
<stop offset="0.122" stop-color="#BACAE4"/>
<stop offset="0.21" stop-color="#93ACD4"/>
<stop offset="0.303" stop-color="#7293C7"/>
<stop offset="0.403" stop-color="#577EBC"/>
<stop offset="0.51" stop-color="#426EB3"/>
<stop offset="0.631" stop-color="#3363AE"/>
<stop offset="0.774" stop-color="#2B5CAA"/>
<stop offset="1" stop-color="#285AA9"/>
</linearGradient>
<linearGradient id="paint1_linear_667_19129" x1="191.952" y1="76.9932" x2="191.952" y2="32.0006" gradientUnits="userSpaceOnUse">
<stop stop-color="#D92231"/>
<stop offset="0.193" stop-color="#D12130"/>
<stop offset="0.448" stop-color="#BD1F2C"/>
<stop offset="0.735" stop-color="#9D1A26"/>
<stop offset="1" stop-color="#7C131D"/>
</linearGradient>
<linearGradient id="paint2_linear_667_19129" x1="190.334" y1="32.9473" x2="190.334" y2="54.1651" gradientUnits="userSpaceOnUse">
<stop stop-color="white"/>
<stop offset="0.048" stop-color="#FAE1E3"/>
<stop offset="0.13" stop-color="#F2B4B9"/>
<stop offset="0.217" stop-color="#EB8D95"/>
<stop offset="0.31" stop-color="#E66C76"/>
<stop offset="0.408" stop-color="#E1515D"/>
<stop offset="0.515" stop-color="#DD3C49"/>
<stop offset="0.634" stop-color="#DB2D3B"/>
<stop offset="0.776" stop-color="#D92533"/>
<stop offset="1" stop-color="#D92231"/>
</linearGradient>
<clipPath id="clip0_667_19129">
<rect width="276" height="45" fill="white" transform="translate(13 32)"/>
</clipPath>
</defs>
</svg>
