<svg width="303" height="110" viewBox="0 0 303 110" fill="none" xmlns="http://www.w3.org/2000/svg">
<rect x="0.5" y="0.5" width="302" height="109" rx="14.5" stroke="#BABCBE"/>
<path fill-rule="evenodd" clip-rule="evenodd" d="M221.139 56.6412L209.937 28.2077C209.937 28.2077 208.512 24.0079 203.623 24.0399C198.74 24.0079 197.316 28.2077 197.316 28.2077L186.105 56.6412H193.678L196.64 48.2477C198.833 48.7781 201.21 49.0818 203.695 49.0818C206.2 49.0818 208.598 48.7781 210.807 48.2347L213.777 56.6412H221.139ZM202.391 31.9498C202.391 31.9498 202.882 30.4153 203.696 30.3823H203.76C204.577 30.4153 205.065 31.9498 205.065 31.9498L208.695 42.2484C207.119 42.648 205.444 42.8588 203.696 42.8588C201.975 42.8588 200.315 42.6541 198.755 42.2624L202.391 31.9498Z" fill="#D62049"/>
<mask id="mask0_667_18996" style="mask-type:luminance" maskUnits="userSpaceOnUse" x="239" y="24" width="36" height="33">
<path fill-rule="evenodd" clip-rule="evenodd" d="M239.321 24.0397H274.349V56.6412H239.321V24.0397Z" fill="white"/>
</mask>
<g mask="url(#mask0_667_18996)">
<path fill-rule="evenodd" clip-rule="evenodd" d="M274.349 56.6412L263.154 28.2077C263.154 28.2077 261.727 24.0079 256.841 24.0399C251.952 24.0079 250.526 28.2077 250.526 28.2077L239.321 56.6412H246.883L249.855 48.2477C252.054 48.7781 254.425 49.0818 256.911 49.0818C259.419 49.0818 261.809 48.7781 264.023 48.2347L266.99 56.6412H274.349ZM255.604 31.9498C255.604 31.9498 256.085 30.4153 256.909 30.3823H256.967C257.787 30.4153 258.273 31.9498 258.273 31.9498L261.9 42.2484C260.324 42.648 258.653 42.8588 256.909 42.8588C255.188 42.8588 253.52 42.6541 251.958 42.2624L255.604 31.9498Z" fill="#D62049"/>
</g>
<mask id="mask1_667_18996" style="mask-type:luminance" maskUnits="userSpaceOnUse" x="30" y="24" width="245" height="64">
<path fill-rule="evenodd" clip-rule="evenodd" d="M30.0938 87.2017H274.35V24.0319H30.0938V87.2017Z" fill="white"/>
</mask>
<g mask="url(#mask1_667_18996)">
<path fill-rule="evenodd" clip-rule="evenodd" d="M226.679 56.6423H233.803V24.0428H226.679V56.6423Z" fill="#D62049"/>
<path fill-rule="evenodd" clip-rule="evenodd" d="M141.764 24.0311L128.34 56.6345H141.835L149.173 37.2429L156.093 56.6345H169.869L156.164 24.0311H141.764ZM98.554 24.0311V33.5037L108.319 33.6355V56.6345H122.374V33.5037H132.139V24.0311H98.554ZM73.5033 24.0311L60.2155 56.6345H73.7095L81.0452 37.2429L87.9027 56.6345H101.679L87.9678 24.0311H73.5033ZM30.0938 24.0311V33.5037L40.0673 33.6355V56.6345H53.9804V33.5037H63.7399V24.0311H30.0938Z" fill="#0073BB"/>
<path fill-rule="evenodd" clip-rule="evenodd" d="M128.34 73.8458H130.993V84.2483H137.337V86.529H128.34V73.8458Z" fill="#4C4C4E"/>
<path fill-rule="evenodd" clip-rule="evenodd" d="M138.903 86.5282H141.541V73.845H138.903V86.5282Z" fill="#4C4C4E"/>
<path fill-rule="evenodd" clip-rule="evenodd" d="M144.026 73.8628H153.085V76.0905H146.665V79.0086H152.293V81.2114H146.665V86.5282H144.026V73.8628Z" fill="#4C4C4E"/>
<path fill-rule="evenodd" clip-rule="evenodd" d="M164.201 76.0907H157.476V78.7851H163.649V80.9869H157.476V84.2476H164.511V86.5283H154.882V73.845H164.201V76.0907Z" fill="#4C4C4E"/>
<path fill-rule="evenodd" clip-rule="evenodd" d="M171.266 86.5282H173.903V73.845H171.266V86.5282Z" fill="#4C4C4E"/>
<path fill-rule="evenodd" clip-rule="evenodd" d="M176.346 73.8458H179.128L184.17 82.6898V73.8458H186.644V86.529H183.991L178.818 77.5301V86.529H176.346V73.8458Z" fill="#4C4C4E"/>
<path fill-rule="evenodd" clip-rule="evenodd" d="M191.048 82.6136C191.131 83.1939 191.292 83.6255 191.531 83.9132C191.973 84.4356 192.726 84.6954 193.794 84.6954C194.435 84.6954 194.951 84.6265 195.353 84.4896C196.11 84.226 196.489 83.7353 196.489 83.0181C196.489 82.5996 196.301 82.2749 195.933 82.0461C195.56 81.8223 194.972 81.6245 194.167 81.4517L192.79 81.1511C191.44 80.8532 190.511 80.5285 190.006 80.179C189.15 79.5936 188.722 78.6785 188.722 77.4347C188.722 76.2978 189.141 75.3538 189.979 74.6026C190.817 73.8513 192.046 73.4757 193.668 73.4757C195.026 73.4757 196.18 73.8303 197.137 74.5386C198.095 75.2469 198.595 76.2749 198.642 77.6235H196.09C196.043 76.8602 195.702 76.3188 195.066 75.9962C194.642 75.7854 194.114 75.6785 193.485 75.6785C192.782 75.6785 192.223 75.8163 191.805 76.091C191.386 76.3667 191.179 76.7514 191.179 77.2449C191.179 77.6985 191.385 78.0351 191.796 78.2599C192.062 78.4088 192.623 78.5835 193.485 78.7854L195.714 79.3099C196.691 79.5387 197.424 79.8463 197.91 80.2309C198.667 80.8273 199.046 81.6904 199.046 82.8202C199.046 83.9792 198.599 84.9412 197.7 85.7074C196.804 86.4736 195.534 86.8562 193.899 86.8562C192.226 86.8562 190.91 86.4787 189.95 85.7254C188.993 84.9702 188.515 83.9332 188.515 82.6136H191.048Z" fill="#4C4C4E"/>
<path fill-rule="evenodd" clip-rule="evenodd" d="M200.908 73.8458H203.606V81.636C203.606 82.507 203.71 83.1425 203.915 83.544C204.236 84.2553 204.933 84.6099 206.012 84.6099C207.083 84.6099 207.776 84.2553 208.098 83.544C208.305 83.1425 208.407 82.507 208.407 81.636V73.8458H211.104V81.641C211.104 82.9896 210.895 84.0386 210.477 84.7908C209.695 86.1674 208.208 86.8568 206.012 86.8568C203.813 86.8568 202.323 86.1674 201.538 84.7908C201.119 84.0386 200.908 82.9896 200.908 81.641V73.8458Z" fill="#4C4C4E"/>
<path fill-rule="evenodd" clip-rule="evenodd" d="M216.308 76.0487V79.4553H219.165C219.733 79.4553 220.16 79.3874 220.442 79.2494C220.945 79.0087 221.197 78.5323 221.197 77.82C221.197 77.0518 220.953 76.5352 220.466 76.2714C220.195 76.1236 219.787 76.0487 219.24 76.0487H216.308ZM221.795 74.1725C222.263 74.3733 222.66 74.6681 222.984 75.0587C223.253 75.3804 223.465 75.7361 223.624 76.1257C223.78 76.5153 223.858 76.9608 223.858 77.4594C223.858 78.0617 223.707 78.6541 223.403 79.2356C223.098 79.8179 222.595 80.2306 221.894 80.4703C222.48 80.707 222.896 81.0407 223.14 81.4732C223.382 81.9058 223.503 82.5671 223.503 83.4563V84.3084C223.503 84.8879 223.529 85.2815 223.576 85.4872C223.646 85.815 223.809 86.0557 224.067 86.2106V86.5282H221.133C221.054 86.2475 220.998 86.0207 220.961 85.8489C220.894 85.4933 220.856 85.1287 220.851 84.7561L220.832 83.5772C220.823 82.7681 220.684 82.2295 220.416 81.9599C220.144 81.6901 219.64 81.5551 218.902 81.5551H216.308V86.5282H213.714V73.845H219.79C220.66 73.8629 221.328 73.9718 221.795 74.1725Z" fill="#4C4C4E"/>
<path fill-rule="evenodd" clip-rule="evenodd" d="M229.86 81.7358H233.114L231.509 76.7448L229.86 81.7358ZM230.037 73.8458H233.04L237.536 86.529H234.656L233.818 83.9217H229.141L228.279 86.529H225.503L230.037 73.8458Z" fill="#4C4C4E"/>
<path fill-rule="evenodd" clip-rule="evenodd" d="M239.11 73.8458H241.893L246.935 82.6898V73.8458H249.409V86.529H246.756L241.584 77.5301V86.529H239.11V73.8458Z" fill="#4C4C4E"/>
<path fill-rule="evenodd" clip-rule="evenodd" d="M253.114 75.1703C254.137 74.1273 255.439 73.6049 257.018 73.6049C259.135 73.6049 260.68 74.3041 261.657 75.7037C262.199 76.49 262.488 77.2792 262.529 78.0704H259.874C259.704 77.462 259.487 77.0035 259.222 76.6938C258.751 76.1433 258.051 75.8676 257.12 75.8676C256.176 75.8676 255.43 76.2561 254.883 77.0334C254.338 77.8106 254.064 78.9105 254.064 80.3341C254.064 81.7557 254.351 82.8216 254.928 83.5299C255.505 84.2382 256.236 84.5918 257.125 84.5918C258.035 84.5918 258.728 84.2881 259.208 83.6807C259.471 83.3541 259.689 82.8625 259.865 82.2093H262.502C262.274 83.5918 261.694 84.7158 260.759 85.5819C259.823 86.4491 258.626 86.8816 257.163 86.8816C255.356 86.8816 253.935 86.2962 252.901 85.1273C251.868 83.9515 251.349 82.3382 251.349 80.2902C251.349 78.0764 251.935 76.37 253.114 75.1703Z" fill="#4C4C4E"/>
<path fill-rule="evenodd" clip-rule="evenodd" d="M274.037 76.0907H267.314V78.7849H273.484V80.9867H267.314V84.2474H274.348V86.5282H264.718V73.845H274.037V76.0907Z" fill="#4C4C4E"/>
<path fill-rule="evenodd" clip-rule="evenodd" d="M101.274 86.7921H121.548V80.1957H101.274V86.7921Z" fill="#D62049"/>
<path fill-rule="evenodd" clip-rule="evenodd" d="M81 86.7926H101.272V80.1962H81V86.7926Z" fill="#0073BB"/>
<path fill-rule="evenodd" clip-rule="evenodd" d="M100.732 87.2019H101.819V79.7775H100.732V87.2019Z" fill="#FEFEFE"/>
</g>
</svg>
