<svg width="303" height="110" viewBox="0 0 303 110" fill="none" xmlns="http://www.w3.org/2000/svg">
<rect x="0.5" y="0.5" width="302" height="109" rx="14.5" stroke="#BABCBE"/>
<path fill-rule="evenodd" clip-rule="evenodd" d="M44.5655 27C29.3424 27 17 39.3116 17 54.5C17 69.6884 29.3424 82 44.5655 82C59.7901 82 72.1325 69.6884 72.1325 54.5C72.1325 39.3116 59.7901 27 44.5655 27ZM44.5684 80.5338C38.2697 80.5338 32.375 78.4387 27.9829 74.593C23.7098 70.8488 20.3907 64.8995 19.5713 58.5758C21.5138 70.6016 31.9667 79.7878 44.5684 79.7878C58.5524 79.7878 69.8892 68.4779 69.8892 54.5272C69.8892 48.7393 67.7218 43.0716 64.4385 38.8129C67.7648 41.3724 70.637 48.6622 70.637 54.5272C70.637 68.8895 58.965 80.5338 44.5684 80.5338ZM42.1747 52.5407L44.4037 29.7396L44.5655 29.7381H44.6228L44.842 53.7326L48.6782 51.4446L44.8191 29.741C58.4106 29.8768 69.3893 40.9079 69.3893 54.5C69.3893 58.8673 68.2547 62.9688 66.2664 66.5301L49.0378 52.1491L47.4062 53.0723L66.1489 66.7359L66.0057 66.9817L44.9279 54.8844V59.1517L65.861 67.2232C61.522 74.4344 53.6089 79.2619 44.5641 79.2619C35.5293 79.2619 27.622 74.4444 23.2815 67.2446L44.2017 59.1074V54.8415L23.0996 66.9388L22.9606 66.6987L41.6375 53.0723L40.0059 52.1491L22.8245 66.4543C20.7981 62.7947 19.7382 58.6809 19.7447 54.5C19.7447 41.0151 30.55 30.0482 43.994 29.7439L40.6319 51.6175L42.1747 52.5407ZM44.5655 28.4777C30.1675 28.4777 18.497 40.1219 18.497 54.4843C18.497 60.3178 20.6185 65.8355 23.8545 70.6016C24.9518 72.6494 26.1393 73.9171 27.7237 75.5905C21.5152 70.643 17.4985 63.0274 17.4985 54.4828C17.4985 39.5703 29.616 27.4802 44.5655 27.4802C59.5151 27.4802 71.8632 40.0962 71.4191 54.4828C71.0438 40.4463 58.7258 28.4777 44.5655 28.4777ZM165.653 56.3207C165.653 51.4975 163.516 47.5875 158.823 47.5875C154.467 47.5875 151.99 51.4975 151.99 56.3207C151.99 61.1438 154.06 65.0538 158.823 65.0538C163.448 65.0538 164.808 62.7673 165.518 59.1102L163.924 59.1045C163.789 60.4607 162.903 63.5161 159.503 63.5833C155.626 63.6619 155.355 58.6972 155.421 56.3221L155.488 54.9645C155.488 53.4725 155.353 49.0609 158.958 49.0609C161.814 49.0609 162.222 52.7265 162.222 54.9645H155.488L155.421 56.3221L165.653 56.3207ZM85.184 41.5782L85.1152 42.6643H86.1351C86.8829 42.6643 87.8369 42.7314 87.8369 43.6818L87.4974 62.0742C87.4974 62.753 87.1565 63.499 85.7956 63.499H84.7757L84.7069 64.5851H91.5772V63.499H90.4212C89.5359 63.499 88.9242 63.2275 88.9242 62.0742L89.2637 44.4292L96.611 63.4304H97.3587L104.773 44.2248L105.114 62.0742C105.114 62.6844 104.501 63.499 103.549 63.499H102.12V64.5851H110.76V63.499H109.74C108.992 63.499 108.107 63.0917 108.107 62.1413L107.766 43.9533C107.766 43.3417 108.446 42.6643 109.127 42.6643H110.419V41.5782H104.228L97.8329 58.2728L91.4382 41.5782H85.184ZM133.038 64.5994V63.7176H132.357C131.746 63.7176 130.657 63.5133 130.657 62.2914V53.401C130.657 50.6186 132.085 49.6011 133.514 49.6011C134.058 49.6011 134.399 49.8726 134.261 50.8901C134.125 51.9076 135.009 52.5864 135.758 52.5193C136.507 52.4521 137.46 52.3149 137.323 50.4156C137.185 48.5164 136.099 47.6332 134.194 47.6332C132.697 47.6332 131.472 48.5836 131.133 49.0594C130.737 49.6125 130.247 49.3981 130.18 48.7879C130.113 48.1777 129.841 47.5675 129.16 47.7704C127.859 48.1855 126.51 48.4361 125.146 48.5164V49.1952C128.003 49.0594 127.732 50.4842 127.732 51.1631V62.2928C127.732 63.5147 126.643 63.7191 126.03 63.7191H125.078V64.6008L133.038 64.5994ZM148.192 48.6664C147.19 47.9362 145.929 47.5175 144.395 47.5175C140.041 47.5175 137.563 51.4274 137.563 56.2521C137.563 61.0752 139.632 64.9624 144.395 64.9852C148.612 65.0067 149.633 62.6315 150.342 58.9731L148.748 58.9659C148.612 60.3221 148.136 63.4447 145.075 63.5133C141.199 63.6004 140.927 58.6258 140.994 56.2521C140.994 54.7587 141.199 48.7851 144.464 48.7851C147.251 48.7851 148.953 50.7543 148.953 52.9937H149.837V47.2931H149.089L148.192 48.6664ZM246.606 63.5819C242.728 63.6605 242.458 58.6958 242.524 56.3207H252.756C252.756 51.4975 250.622 47.5875 245.926 47.5875C241.572 47.5875 239.096 51.4975 239.096 56.3207C239.096 61.1438 241.163 65.0538 245.926 65.0538C250.551 65.0538 251.914 62.7673 252.621 59.1102L251.03 59.1031C250.892 60.4607 250.008 63.5161 246.606 63.5819ZM246.063 49.0594C248.92 49.0594 249.328 52.7251 249.328 54.963H242.594C242.594 53.4711 242.458 49.0594 246.063 49.0594ZM190.68 63.5819C186.802 63.6605 186.532 58.6958 186.598 56.3207H196.83C196.83 51.4975 194.693 47.5875 190 47.5875C185.646 47.5875 183.167 51.4975 183.167 56.3207C183.167 61.1438 185.237 65.0538 190 65.0538C194.625 65.0538 195.985 62.7673 196.695 59.1102L195.101 59.1031C194.966 60.4607 194.082 63.5161 190.68 63.5819ZM190.134 49.0594C192.994 49.0594 193.399 52.7251 193.399 54.963H186.665C186.665 53.4711 186.532 49.0594 190.134 49.0594ZM118.481 63.5819C114.605 63.6605 114.332 58.6958 114.4 56.3207H124.632C124.632 51.4975 122.495 47.5875 117.802 47.5875C113.447 47.5875 110.97 51.4975 110.97 56.3207C110.97 61.1438 113.039 65.0538 117.802 65.0538C122.427 65.0538 123.788 62.7673 124.497 59.1102L122.903 59.1045C122.767 60.4607 121.883 63.5161 118.481 63.5819ZM117.937 49.0594C120.794 49.0594 121.201 52.7251 121.201 54.963H114.467C114.467 53.4711 114.332 49.0594 117.937 49.0594ZM180.468 61.0552V42.1198C180.468 41.3395 180.062 40.6935 179.379 40.8979C178.078 41.3134 176.73 41.564 175.367 41.6439V42.3227C177.339 42.187 177.544 42.7986 177.544 43.4774V49.3138C176.66 48.4992 175.639 47.6847 173.804 47.6847C171.49 47.6847 167.204 49.5168 167.204 55.9634C167.204 64.4479 172.171 64.9895 173.668 64.9895C175.165 64.9895 177.137 63.7691 177.546 63.1231C177.579 62.9874 177.783 62.8173 177.851 63.1231C177.921 63.7348 178.362 64.6494 179.043 64.4465C180.344 64.0317 181.692 63.781 183.055 63.7005V63.0217C180.197 63.1589 180.468 61.7326 180.468 61.0552ZM177.544 59.0188C177.477 62.7501 175.504 63.9048 173.871 63.9048C170.198 63.8377 170.469 58.2728 170.469 55.8962C170.469 53.5196 170.607 48.8379 173.939 49.2452C177.273 49.6525 177.546 53.1809 177.546 55.2846L177.544 59.0188ZM220.402 54.8844V53.3239H211.424V54.8844H220.402ZM199.055 58.8301V64.598H199.801L200.481 63.1046C201.162 63.7162 202.591 64.7337 204.426 64.7337C206.264 64.7337 208.85 63.7162 209.871 61.8169C210.89 59.9163 210.414 56.7937 208.101 55.8433C206.075 55.0116 204.299 54.0155 202.931 53.3324C202.505 53.1301 202.156 52.7964 201.936 52.3806C201.716 51.9648 201.635 51.4892 201.708 51.0244C201.912 49.9383 202.864 48.7851 205.039 48.7165C207.217 48.6493 208.304 50.4814 208.579 52.585H209.326V47.1573H208.645L207.896 48.4464C206.469 47.496 205.856 47.3603 204.564 47.3603C203.272 47.3603 201.094 48.0391 199.87 49.9398C198.646 51.8405 198.986 54.8244 201.912 56.0477C204.836 57.2681 206.198 58.0156 207.013 58.4229C207.83 58.8301 208.306 60.4593 207.763 61.4096C207.217 62.3586 206.198 63.4461 204.565 63.4461C202.932 63.4461 200.349 62.2914 199.736 58.8316L199.055 58.8301ZM233.188 52.1649C234.823 51.7576 236.456 48.8394 236.456 46.8715C236.456 44.9037 235.706 41.5782 230.943 41.5782H220.74V42.4599C221.761 42.4599 223.529 42.6643 223.529 44.3606V61.1238C223.529 62.0742 223.461 63.6347 220.74 63.6347V64.5851H229.108C231.624 64.5851 237.407 64.3807 237.544 57.7312C237.544 55.4904 236.456 52.8437 233.188 52.1649ZM226.454 42.6643H229.856C232.374 42.6643 233.393 44.4949 233.393 46.8715C233.393 49.7897 232.509 52.0291 229.856 52.0291H226.454V42.6643ZM229.923 63.499H226.454V53.1152H230.332C232.578 53.1152 234.55 54.6758 234.55 58.0684C234.55 61.4625 232.508 63.499 229.923 63.499ZM265.328 52.2478V62.2914C265.328 63.5133 264.239 63.7176 263.626 63.7176H263.217V64.5994H270.632V63.7176H269.952C269.339 63.7176 268.25 63.5133 268.25 62.2914V52.3163C268.182 47.769 264.101 47.6332 262.673 47.6332C261.176 47.6332 259.542 48.5836 259.204 49.0594C258.807 49.6125 258.317 49.3981 258.25 48.7879C258.182 48.1777 257.911 47.5675 257.228 47.7704C255.927 48.1855 254.579 48.4361 253.216 48.5164V49.1952C256.072 49.0594 255.801 50.4842 255.801 51.1631V62.2928C255.801 63.5147 254.713 63.7191 254.1 63.7191H253.148V64.6008H261.106V63.7191H260.426C259.812 63.7191 258.724 63.5147 258.724 62.2928V53.4025C258.724 51.9105 259.27 49.5339 262.059 49.3295C264.851 49.1266 265.328 50.9587 265.328 52.2478ZM272.209 52.5879L273.434 47.9733H285L275.067 63.6505H280.372C281.596 63.6505 282.549 63.1746 283.841 60.052H284.387L283.298 64.5994H271.46L281.326 48.9237H276.902C275.813 48.9237 274.591 48.9237 272.89 52.5879H272.209Z" fill="white"/>
</svg>
