<svg width="303" height="110" viewBox="0 0 303 110" fill="none" xmlns="http://www.w3.org/2000/svg">
<rect x="0.5" y="0.5" width="302" height="109" rx="14.5" stroke="#BABCBE"/>
<path d="M42.4221 74.6802V47.8819H37.1895V40.9431H42.4221V38.9692C42.4221 32.4405 47.1767 27.749 54.788 27.749H58.6607V34.4144H55.1267C51.5928 34.4144 49.9623 36.1149 49.9623 39.2426V40.9431H59.2041V47.8819H49.9623V74.6802H42.4221Z" fill="#6E00BE"/>
<path d="M60.0859 57.8115C60.0859 47.9503 67.8992 40.2623 77.8865 40.2623C87.8738 40.2623 95.6189 47.9475 95.6189 57.8115C95.6189 67.6757 87.8055 75.3609 77.8865 75.3609C67.9676 75.3609 60.0859 67.6757 60.0859 57.8115ZM88.0786 57.8115C88.0786 51.7585 83.7992 47.3378 77.8865 47.3378C71.9739 47.3378 67.6262 51.7585 67.6262 57.8115C67.6262 63.8646 71.9739 68.2854 77.8865 68.2854C83.7992 68.2854 88.0786 63.8646 88.0786 57.8115Z" fill="#6E00BE"/>
<path d="M150.753 74.6801V40.9431H157.955V44.4125C160.129 41.8289 163.594 40.2623 167.874 40.2623C176.162 40.2623 182.075 46.1814 182.075 55.4987V74.6801H174.535V56.1795C174.535 50.6704 171.544 47.4062 166.653 47.4062C161.762 47.4062 158.296 50.8071 158.296 56.1795V74.6801H150.753Z" fill="#6E00BE"/>
<path d="M186.695 57.8116C186.695 47.9502 194.034 40.2624 203.683 40.2624C208.234 40.2624 212.108 42.0312 214.619 45.0905V27.749H222.163V74.6802H214.961V70.1909C212.514 73.4553 208.44 75.3609 203.683 75.3609C194.034 75.3609 186.695 67.6758 186.695 57.8116ZM214.688 57.8116C214.688 51.7586 210.408 47.3378 204.496 47.3378C198.584 47.3378 194.235 51.7586 194.235 57.8116C194.235 63.8645 198.584 68.217 204.496 68.217C210.408 68.217 214.688 63.8645 214.688 57.8116Z" fill="#6E00BE"/>
<path d="M228.955 31.3525C228.955 28.8372 230.789 27 233.302 27C235.815 27 237.65 28.8372 237.65 31.3525C237.65 33.8677 235.815 35.6366 233.302 35.6366C230.789 35.6366 228.955 33.7993 228.955 31.3525ZM229.498 74.6802V40.9432H237.042V74.6802H229.498Z" fill="#6E00BE"/>
<path d="M258.239 74.6803C250.563 74.6803 246.892 71.3477 246.892 64.3405V47.8794H241.32V40.9405H245.194C246.212 40.9405 246.892 40.2598 246.892 39.035V32.509H254.436V40.9433H263.404V47.8821H254.436V63.5941C254.436 66.2461 255.727 67.6075 258.783 67.6075H263.404V74.6803H258.239Z" fill="#6E00BE"/>
<path d="M98.4427 44.7516C98.4263 44.9949 98.3907 45.5608 98.3579 46.3592C98.3252 47.1575 98.2979 48.1964 98.2979 49.4049C98.2979 51.5046 98.3826 54.1181 98.6857 56.8931C98.9123 58.9764 99.262 61.1499 99.7972 63.2714C100.199 64.8627 100.701 66.4264 101.343 67.9028C102.304 70.1146 103.572 72.1377 105.292 73.7178C106.15 74.5053 107.122 75.1778 108.209 75.6863C109.296 76.1975 110.492 76.5421 111.786 76.6924L111.879 76.7006C112.327 76.7252 112.772 76.7361 113.215 76.7361C116.492 76.7361 119.551 76.0746 122.355 74.9208C124.81 73.9147 127.077 72.5369 129.158 70.9102C132.801 68.0613 135.885 64.4552 138.485 60.6578C142.379 54.9602 145.184 48.828 147.03 44.1036C148.873 39.3794 149.753 36.0686 149.764 36.0276C149.979 35.2156 149.496 34.379 148.682 34.163C147.871 33.947 147.035 34.4309 146.82 35.2456C146.809 35.2867 146.148 37.7554 144.791 41.4217C142.756 46.9197 139.135 55.1161 133.853 61.8306C131.215 65.188 128.167 68.1706 124.734 70.2922C123.016 71.353 121.206 72.2033 119.288 72.7856C117.374 73.3706 115.353 73.6905 113.212 73.6905C112.827 73.6905 112.436 73.6796 112.04 73.6577L111.958 75.1778L112.133 73.666C110.97 73.5292 109.965 73.1985 109.064 72.7091C108.274 72.2799 107.564 71.7249 106.914 71.055C105.778 69.8822 104.836 68.3456 104.082 66.5822C102.949 63.9358 102.25 60.7946 101.848 57.7406C101.447 54.6869 101.335 51.7205 101.335 49.4049C101.335 48.2456 101.362 47.2477 101.392 46.485C101.422 45.7194 101.458 45.1917 101.474 44.9513C101.529 44.1119 100.892 43.3874 100.054 43.3327C99.2156 43.278 98.4919 43.915 98.4372 44.7544L98.4427 44.7516Z" fill="#E119A0"/>
<path d="M98.3774 44.6261C98.3691 44.6779 98.0605 46.887 98.0605 49.99C98.0605 51.7862 98.1643 53.8831 98.5002 56.0457C98.7515 57.667 99.1339 59.3237 99.7128 60.9204C100.147 62.1178 100.691 63.2798 101.381 64.3596C102.414 65.9782 103.787 67.419 105.565 68.4387C107.341 69.4612 109.501 70.0381 112.002 70.0354C114.509 70.0354 116.883 69.5159 119.081 68.6246C122.937 67.0581 126.266 64.3761 129.118 61.2867C133.392 56.6471 136.617 51.0562 138.802 46.6109C140.984 42.1654 142.117 38.8655 142.133 38.8218C142.42 37.9852 141.975 37.0721 141.139 36.785C140.304 36.4979 139.392 36.9436 139.105 37.7801C139.097 37.8048 138.452 39.6748 137.212 42.4552C135.358 46.6245 132.149 52.8442 127.82 57.9212C125.66 60.4611 123.221 62.7084 120.575 64.2968C119.25 65.0925 117.877 65.7239 116.448 66.1586C115.023 66.5934 113.545 66.8284 112.002 66.8284C110.806 66.8284 109.768 66.6698 108.862 66.3911C108.067 66.1476 107.371 65.8142 106.745 65.4014C105.653 64.6823 104.765 63.72 104.036 62.5607C102.944 60.8275 102.231 58.6512 101.816 56.4175C101.395 54.1867 101.267 51.9092 101.267 49.99C101.267 48.5465 101.34 47.3025 101.411 46.4276C101.447 45.9903 101.482 45.6457 101.51 45.4134C101.524 45.2957 101.534 45.2082 101.543 45.1509C101.545 45.1209 101.548 45.1017 101.551 45.0881V45.0743L101.013 45.0006L101.551 45.0771C101.674 44.1995 101.065 43.3903 100.188 43.2645C99.3114 43.1387 98.503 43.7511 98.3774 44.6287V44.6261Z" fill="#00AEFF"/>
<path d="M98.3611 44.8391V44.8774C98.3611 45.1152 98.372 46.321 98.5741 48.0133C98.7271 49.2845 98.9865 50.8292 99.4425 52.4586C99.784 53.678 100.235 54.9438 100.841 56.1741C101.294 57.0955 101.838 57.9977 102.488 58.8369C103.465 60.0945 104.697 61.2183 106.229 62.0192C107.759 62.8203 109.575 63.2852 111.634 63.2824C113.398 63.2824 115.072 62.9324 116.621 62.3338C119.335 61.2839 121.673 59.4958 123.669 57.4536C126.662 54.3833 128.916 50.7144 130.448 47.8C131.98 44.8856 132.78 42.723 132.796 42.6766C133.105 41.8454 132.682 40.9241 131.851 40.6151C131.021 40.3062 130.101 40.73 129.792 41.5611C129.779 41.6021 129.323 42.8188 128.462 44.6094C127.176 47.2969 124.969 51.2749 122.053 54.49C120.597 56.0975 118.967 57.511 117.221 58.5006C115.471 59.4931 113.625 60.07 111.631 60.07C110.375 60.07 109.321 59.8539 108.408 59.4931C107.611 59.176 106.915 58.7441 106.292 58.2136C105.205 57.2895 104.337 56.0511 103.667 54.6705C102.662 52.6008 102.116 50.2305 101.846 48.3386C101.573 46.4467 101.562 45.0386 101.562 44.8774V44.861C101.567 43.9752 100.857 43.2535 99.9724 43.2452C99.0876 43.237 98.3665 43.9505 98.3584 44.8364L98.3611 44.8391Z" fill="#FFA000"/>
</svg>
