<svg width="303" height="110" viewBox="0 0 303 110" fill="none" xmlns="http://www.w3.org/2000/svg">
<rect x="0.5" y="0.5" width="302" height="109" rx="14.5" stroke="#BABCBE"/>
<path d="M140.487 40.695H145.949V30.948H149.833V27H136.604V30.948H140.487V40.695Z" fill="white"/>
<path d="M153.859 40.695L156.642 32.5013L159.425 40.695H164.771L159.528 27H153.755L148.513 40.695H153.859Z" fill="white"/>
<path d="M167.331 40.695H172.807V30.948H176.677V27H163.461V30.948H167.331V40.695Z" fill="white"/>
<path d="M180.718 40.695L183.501 32.5013L186.284 40.695H191.63L186.388 27H180.602L175.372 40.695H180.718Z" fill="white"/>
<path d="M233.167 50.4811C233.892 52.0991 234.708 53.6783 235.627 55.2057L239.199 61.2247H241.788V47.5427H239.471V52.3191C239.471 54.4161 239.523 56.1765 239.691 57.9887L239.639 58.0016C238.966 56.4224 238.19 54.8821 237.31 53.4194L233.776 47.5427H230.915V61.2377H233.232V56.3318C233.232 54.0795 233.193 52.2803 233.103 50.494L233.167 50.4811Z" fill="white"/>
<path d="M220.754 57.3674H225.103L226.346 61.2377H229.025L224.572 47.5427H221.388L217 61.2377H219.589L220.754 57.3674ZM222.217 52.0861C222.462 51.2707 222.67 50.3257 222.864 49.5102H222.903C223.11 50.2998 223.33 51.2318 223.602 52.0861L224.676 55.4646H221.155L222.217 52.0861Z" fill="white"/>
<path d="M179.992 59.3734C178.84 59.3605 177.701 59.0628 176.679 58.5062L176.122 60.5772C176.873 61.0303 178.374 61.4445 179.824 61.4445C183.358 61.4445 185.015 59.5288 185.015 57.3282C185.015 55.3607 183.876 54.1699 181.494 53.2638C179.669 52.5648 178.879 52.0729 178.879 51.0244C178.879 50.2219 179.552 49.3805 181.144 49.3805C182.089 49.3676 183.034 49.6006 183.876 50.0277L184.471 48.0084C183.759 47.646 182.672 47.3353 181.183 47.3353C178.219 47.3353 176.342 49.031 176.342 51.2704C176.342 53.2379 177.792 54.4417 180.057 55.2442C181.792 55.8785 182.478 56.4869 182.478 57.5095C182.478 58.6227 181.585 59.3734 179.992 59.3734Z" fill="white"/>
<path d="M144.043 49.3936C144.962 49.3806 145.868 49.5619 146.71 49.9243L147.253 47.9309C146.749 47.6591 145.584 47.3225 143.94 47.3225C139.759 47.3225 136.613 50.0408 136.613 54.5454C136.613 58.7134 139.254 61.4446 143.603 61.4446C145.26 61.4446 146.567 61.121 147.15 60.8233L146.736 58.8558C146.076 59.1535 145.027 59.3477 144.004 59.3477C141.001 59.3477 139.241 57.4319 139.241 54.4159C139.241 51.1281 141.247 49.3936 144.043 49.3936Z" fill="white"/>
<path d="M213.956 61.2377V49.6397H217.904V47.5427H207.536V49.6397H211.445V61.2377H213.956Z" fill="white"/>
<path d="M263.948 47.5427L262.304 51.0506C261.838 52.0473 261.462 52.8887 261.113 53.7689H261.074C260.699 52.8369 260.349 52.0603 259.883 51.0506L258.252 47.5427H255.392L259.728 55.5422V61.2377H262.226V55.4646L266.77 47.5427H263.948Z" fill="white"/>
<path d="M154.504 47.3225C150.634 47.3225 147.98 50.2867 147.98 54.4936C147.98 58.5063 150.427 61.4576 154.297 61.4576H154.323C158.077 61.4576 160.86 58.8299 160.86 54.2477C160.847 50.3385 158.491 47.3225 154.504 47.3225ZM154.401 59.4512H154.375C151.98 59.4512 150.582 57.1472 150.595 54.4289C150.608 51.7106 151.903 49.3159 154.401 49.3159C156.899 49.3159 158.181 51.7624 158.181 54.3383C158.193 57.2119 156.821 59.4512 154.401 59.4512Z" fill="white"/>
<path d="M251.379 49.3936C252.298 49.3806 253.204 49.5619 254.046 49.9243L254.589 47.9309C254.085 47.6591 252.92 47.3225 251.276 47.3225C247.095 47.3225 243.949 50.0408 243.949 54.5454C243.949 58.7134 246.59 61.4446 250.939 61.4446C252.596 61.4446 253.903 61.121 254.486 60.8233L254.072 58.8558C253.411 59.1535 252.363 59.3477 251.34 59.3477C248.337 59.3477 246.577 57.4319 246.577 54.4159C246.577 51.1281 248.583 49.3936 251.379 49.3936Z" fill="white"/>
<path d="M203.304 47.5427H200.793V61.2377H208.935V59.1278H203.304V47.5427Z" fill="white"/>
<path d="M197.945 55.361V47.5427H195.447V55.5293C195.447 58.2087 194.359 59.4514 192.56 59.4514C190.864 59.4514 189.751 58.2087 189.751 55.5293V47.5427H187.253V55.374C187.253 59.6844 189.311 61.4577 192.469 61.4577C195.783 61.4577 197.945 59.5808 197.945 55.361Z" fill="white"/>
<path d="M173.855 47.5427H171.538V52.3191C171.538 54.4161 171.589 56.1765 171.758 57.9887L171.706 58.0016C171.033 56.4224 170.256 54.8821 169.376 53.4194L165.842 47.5427H162.981V61.2377H165.298V56.3318C165.298 54.0795 165.26 52.2803 165.169 50.494L165.234 50.4811C165.959 52.0991 166.774 53.6783 167.693 55.2057L171.266 61.2247H173.855V47.5427Z" fill="white"/>
<path d="M184.562 68.0717H182.063V81.7666H184.562V68.0717Z" fill="white"/>
<path d="M164.86 75.3465V75.2947C166.142 74.8417 167.332 73.6508 167.332 71.9034C167.332 70.7384 166.905 69.7935 166.167 69.1721C165.248 68.4084 163.669 68.0719 161.974 68.0719C160.718 68.0589 159.449 68.1495 158.22 68.3696V81.7668H160.679V76.1879H161.935C163.346 76.2267 163.993 76.7963 164.381 78.5696C164.757 80.2524 165.08 81.3785 165.287 81.7798H167.837C167.565 81.2491 167.19 79.6958 166.763 77.9871C166.413 76.6539 165.844 75.7219 164.86 75.3465ZM162.142 74.3628H160.679V70.0653C161.184 69.9617 161.702 69.9229 162.219 69.9359C163.825 69.9359 164.86 70.6348 164.86 72.1105C164.86 73.4696 163.825 74.3628 162.142 74.3628Z" fill="white"/>
<path d="M175.928 74.3366C175.397 75.9935 174.892 77.6762 174.53 79.2813H174.491C174.142 77.6245 173.663 76.0194 173.145 74.2978L171.281 68.0717H168.55L172.977 81.7666H175.85L180.588 68.0717H177.921L175.928 74.3366Z" fill="white"/>
<path d="M201.867 75.6958H207.032V73.6506H201.867V70.1298H207.33V68.0717H199.369V81.7666H207.641V79.7085H201.867V75.6958Z" fill="white"/>
<path d="M194.152 69.9231C195.071 69.9102 195.977 70.0914 196.818 70.4538L197.362 68.4604C196.857 68.1886 195.692 67.8521 194.048 67.8521C189.867 67.8521 186.722 70.5703 186.722 75.0749C186.722 79.2429 189.362 81.9742 193.712 81.9742C195.368 81.9742 196.676 81.6506 197.258 81.3529L196.844 79.3853C196.184 79.6831 195.135 79.8772 194.113 79.8772C191.11 79.8772 189.349 77.9615 189.349 74.9455C189.336 71.6706 191.343 69.9231 194.152 69.9231Z" fill="white"/>
<path d="M141.972 73.7934C140.147 73.0944 139.357 72.6026 139.357 71.5541C139.357 70.7515 140.031 69.9102 141.623 69.9102C142.568 69.8972 143.513 70.1302 144.354 70.5574L144.949 68.5381C144.237 68.1756 143.15 67.865 141.662 67.865C138.697 67.865 136.82 69.5607 136.82 71.8C136.82 73.7675 138.27 74.9714 140.535 75.7739C142.27 76.4082 142.956 77.0165 142.956 78.0391C142.956 79.1653 142.063 79.9031 140.471 79.9031C139.319 79.8901 138.18 79.5924 137.17 79.0358L136.613 81.1069C137.364 81.5599 138.866 81.9742 140.315 81.9742C143.849 81.9742 145.506 80.0584 145.506 77.8579C145.493 75.9033 144.354 74.6995 141.972 73.7934Z" fill="white"/>
<path d="M150.246 75.6958H155.411V73.6506H150.246V70.1298H155.722V68.0717H147.748V81.7666H156.019V79.7085H150.246V75.6958Z" fill="white"/>
<path d="M214.605 73.7934C212.78 73.0944 211.991 72.6026 211.991 71.5541C211.991 70.7515 212.664 69.9102 214.256 69.9102C215.201 69.8972 216.146 70.1302 216.987 70.5574L217.582 68.5381C216.871 68.1756 215.783 67.865 214.295 67.865C211.33 67.865 209.453 69.5607 209.453 71.8C209.453 73.7675 210.903 74.9714 213.168 75.7739C214.903 76.4082 215.589 77.0165 215.589 78.0391C215.589 79.1653 214.696 79.9031 213.104 79.9031C211.939 79.8901 210.813 79.5924 209.79 79.0358L209.233 81.1069C209.984 81.5599 211.486 81.9742 212.935 81.9742C216.469 81.9742 218.126 80.0584 218.126 77.8579C218.126 75.9033 216.974 74.6995 214.605 73.7934Z" fill="white"/>
<path d="M116.953 58.7781L110.442 54.2476C110.365 54.1959 110.287 54.1311 110.209 54.0794C107.828 52.319 106.792 50.688 106.792 48.7723C106.792 46.2352 108.863 44.6431 111.802 44.6431C115.529 44.6431 117.29 46.3905 119.503 46.3905C121.251 46.3905 122.442 45.1997 122.442 43.4522C122.442 42.1837 121.807 41.1481 120.138 40.3585C117.51 39.09 114.649 38.6111 111.556 38.6111C108.307 38.6111 105.446 39.5689 103.375 41.1481C102.961 41.4717 102.546 41.8212 102.171 42.1837C102.158 42.1966 102.132 42.2225 102.119 42.2354C99.7634 44.7725 97.7829 48.5004 96.2166 53.704L94.3915 59.736C91.1295 70.3761 85.9777 75.4632 77.9394 75.4632C69.1243 75.4632 63.5583 69.3406 63.5583 60.2926C63.5583 51.3999 68.9302 45.2514 76.7226 45.0443C76.865 45.0443 77.0074 45.0443 77.1498 45.0443C79.7904 45.0314 82.3922 45.6009 84.7739 46.7141C85.8095 47.1931 86.6767 47.3484 87.4793 47.3484C89.3821 47.3484 90.6506 46.0669 90.6506 44.1641C90.6506 42.9733 89.9387 41.7824 88.2689 40.9928C85.2529 39.4783 81.3566 38.6111 77.1498 38.6111C64.5938 38.6111 55.9341 47.5037 55.9341 60.4609C55.9341 63.8781 56.5425 67.0106 57.6816 69.7677C56.0247 73.3533 53.5136 75.2431 50.2257 75.2431C46.2518 75.2431 43.6371 72.9391 43.6371 67.6967V45.2773H52.9311C55.0798 45.2773 56.5037 44.0088 56.5037 42.1837C56.5037 40.3585 55.0798 39.09 52.9311 39.09H43.6371V30.9869C43.6371 28.6052 42.045 27.0131 39.8186 27.0131C37.5921 27.0131 36 28.6052 36 30.9869V46.7141V68.5639C36 77.3013 41.0094 81.9094 49.5008 81.9094C51.2742 81.9094 53.0346 81.6246 54.7174 81.0421C54.7303 81.0421 54.7303 81.0421 54.7433 81.0421C57.5263 79.9937 59.7656 78.1685 61.3448 75.5279C65.1246 79.6053 70.7294 81.9871 77.7064 81.9871C81.3566 81.9871 84.528 81.2751 87.3887 79.7736H87.4016C93.2006 76.7576 97.3298 70.635 100.191 61.2634L101.86 55.788C102.974 57.2766 104.54 58.6875 106.624 60.1502L112.578 64.2794C113.458 64.8878 114.261 65.5091 115.012 66.1175C116.086 67.2954 116.397 68.5769 116.397 70.0784C116.397 73.4957 113.691 75.7997 109.808 75.7997C106.08 75.7997 102.896 73.8969 101.148 73.8969C99.4009 73.8969 98.2101 75.0878 98.2101 76.8353C98.2101 78.1038 98.8443 79.1393 100.514 79.9289C102.818 81.0421 106.546 82 109.886 82C114.093 82 117.588 80.7315 120.06 78.5051C120.176 78.4015 120.293 78.298 120.396 78.1815C122.416 76.1363 123.633 73.3274 123.633 70.0913C123.633 65.302 121.73 62.1177 116.953 58.7781Z" fill="white"/>
</svg>
