<svg width="170" height="72" viewBox="0 0 170 72" fill="none" xmlns="http://www.w3.org/2000/svg">
<g clip-path="url(#clip0_116_8503)">
<rect width="170" height="72" rx="6" fill="#1BC6AF" fill-opacity="0.08"/>
<path fill-rule="evenodd" clip-rule="evenodd" d="M48.9674 26.7601L48.929 16H42.9248L42.9632 26.7601L45.9653 30.8824L48.9674 26.7601ZM42.9632 45.2015V56H48.9674V45.2015L45.9653 41.0792L42.9632 45.2015Z" fill="white"/>
<path fill-rule="evenodd" clip-rule="evenodd" d="M48.9672 45.2011L55.2914 53.9257L60.1306 50.4051L53.8064 41.6805L48.9672 40.1187V45.2011ZM42.963 26.7598L36.6004 18.0352L31.7612 21.5557L38.0854 30.2739L42.963 31.8358V26.7598Z" fill="#00F2E6"/>
<path fill-rule="evenodd" clip-rule="evenodd" d="M38.0851 30.2811L27.8435 26.959L26 32.6367L36.2416 35.9972L41.0808 34.397L38.0851 30.2811ZM50.804 37.5591L53.806 41.6813L64.0477 45.0035L65.8912 39.3258L55.6495 36.0036L50.804 37.5591Z" fill="#00B9F1"/>
<path fill-rule="evenodd" clip-rule="evenodd" d="M55.6431 36.0031L65.8848 32.6426L64.0413 26.9648L53.7996 30.287L50.7976 34.4092L55.6431 36.0031ZM36.2416 36.0031L26 39.3252L27.8435 45.0029L38.0851 41.6808L41.0872 37.5585L36.2416 36.0031Z" fill="#D63AFF"/>
<path fill-rule="evenodd" clip-rule="evenodd" d="M38.0854 41.6805L31.7612 50.4051L36.6004 53.9257L42.963 45.2011V40.1187L38.0854 41.6805ZM53.8064 30.2803L60.1306 21.5557L55.2914 18.0352L48.9672 26.7534V31.8358L53.8064 30.2803Z" fill="#FB015B"/>
<path fill-rule="evenodd" clip-rule="evenodd" d="M87.4945 26.1973V40.1963C87.4945 43.2752 84.9724 45.7972 81.8936 45.7972V42.9936C83.4554 42.9936 84.6972 41.7518 84.6972 40.1899V26.1973H87.4945ZM138.626 29.0009H144.944V26.2037H129.543V29.0009H135.822V45.8036H138.626V29.0009ZM121.1 26.1973V40.1963C121.1 41.7582 119.858 43 118.296 43C116.734 43 115.493 41.7582 115.493 40.1963V31.7982C115.493 28.7193 112.971 26.1973 109.892 26.1973C106.813 26.1973 104.291 28.7193 104.291 31.7982V40.2027C104.291 41.7646 103.049 43.0064 101.487 43.0064C99.9252 43.0064 98.6834 41.7646 98.6834 40.2027V26.1973H95.8798V40.1963C95.8798 43.2752 98.4018 45.7972 101.481 45.7972C104.56 45.7972 107.082 43.2752 107.082 40.1963V31.7982C107.082 30.2363 108.323 28.9945 109.885 28.9945C111.447 28.9945 112.689 30.2363 112.689 31.7982V40.2027C112.689 43.2816 115.211 45.8036 118.29 45.8036C121.369 45.8036 123.891 43.2816 123.891 40.2027V26.1973H121.1Z" fill="black"/>
</g>
<defs>
<clipPath id="clip0_116_8503">
<rect width="170" height="72" rx="6" fill="white"/>
</clipPath>
</defs>
</svg>
