<svg width="170" height="72" viewBox="0 0 170 72" fill="none" xmlns="http://www.w3.org/2000/svg">
<g clip-path="url(#clip0_116_8486)">
<rect width="170" height="72" rx="6" fill="#1BC6AF" fill-opacity="0.08"/>
<g clip-path="url(#clip1_116_8486)">
<path d="M83.5499 9.0798C95.7015 8.23718 103.759 14.1838 108.366 21.429C110.676 25.062 112.943 30.5792 112.953 36.2483C112.964 42.4079 110.969 47.7416 108.366 51.6554C105.691 55.6779 102.231 59.0005 97.8987 61.182C90.6563 64.8287 80.535 64.9284 73.9056 61.4172C66.5225 57.5071 60.8461 51.9254 58.7338 42.2465C57.8884 38.3729 57.7913 33.3681 58.9688 29.074C59.2453 28.0666 59.7476 27.0066 60.1451 26.0159C62.0557 21.2563 65.3076 17.1173 69.3189 14.2547C70.9307 13.1045 72.8862 11.9604 74.6114 11.1969C76.7581 10.2466 80.3722 9.30044 83.5499 9.0798Z" fill="white"/>
<path d="M106.6 36.9334C106.6 48.4181 97.2899 57.7277 85.8055 57.7277C74.3208 57.7277 65.0107 48.4181 65.0107 36.9334C65.0107 25.4489 74.3208 16.1387 85.8055 16.1387C97.2899 16.1387 106.6 25.4489 106.6 36.9334Z" fill="black"/>
<path d="M83.5499 9.0798C95.7015 8.23718 103.759 14.1838 108.366 21.429C110.676 25.062 112.943 30.5792 112.953 36.2483C112.964 42.4079 110.969 47.7416 108.366 51.6554C105.691 55.6779 102.231 59.0005 97.8987 61.182C90.6563 64.8287 80.535 64.9284 73.9056 61.4172C66.5225 57.5071 60.8461 51.9254 58.7338 42.2465C57.8884 38.3729 57.7913 33.3681 58.9688 29.074C59.2453 28.0666 59.7476 27.0066 60.1451 26.0159C62.0557 21.2563 65.3076 17.1173 69.3189 14.2547C70.9307 13.1045 72.8862 11.9604 74.6114 11.1969C76.7581 10.2466 80.3722 9.30044 83.5499 9.0798ZM79.4335 11.0793C74.9197 12.2496 71.6104 14.346 68.7307 16.6073C64.5786 19.8673 61.9313 24.4173 60.3806 29.8971C58.6551 35.9935 59.7633 43.371 62.1446 48.0093C64.614 52.8192 67.9297 56.5527 72.612 59.1824C77.1676 61.7406 83.5747 63.3833 90.2539 62.1228C96.1886 61.0026 100.696 58.4174 104.367 54.5955C109.28 49.4818 113.228 40.0633 110.601 30.1321C109.899 27.4779 108.98 24.7116 107.543 22.3698C106.766 21.1046 105.627 19.86 104.485 18.6062C100.176 13.8743 93.2121 9.79673 84.2557 10.3734C82.5514 10.4829 81.0535 10.6591 79.4335 11.0791V11.0793Z" fill="black"/>
<path d="M87.1275 61.9357L111.157 37.9069L111.027 37.7771L86.998 61.8059L87.1275 61.9357ZM85.027 60.0326L109.161 35.8992L109.031 35.7694L84.8972 59.9028L85.027 60.0326ZM82.9263 58.1299L107.165 33.8913L107.036 33.7615L82.7967 58.0002L82.9263 58.1299ZM80.8255 56.2269L105.169 31.8836L105.04 31.7538L80.696 56.0973L80.8255 56.2269ZM78.725 54.324L103.174 29.8756L103.044 29.7459L78.5952 54.1944L78.725 54.324ZM76.6242 52.4215L101.178 27.8679L101.048 27.7381L76.4945 52.292L76.6242 52.4215ZM74.5235 50.5182L99.182 25.86L99.0522 25.7304L74.3937 50.3885L74.5235 50.5182ZM72.4228 48.6154L97.1861 23.8523L97.0563 23.7225L72.293 48.4856L72.4228 48.6154ZM70.322 46.7123L95.1898 21.8443L95.06 21.7148L70.1922 46.5827L70.322 46.7123ZM68.2213 44.8094L93.1943 19.8366L93.0647 19.7071L68.0917 44.6796L68.2213 44.8094ZM66.1205 42.9065L91.1986 17.8289L91.0688 17.6991L65.991 42.777L66.1205 42.9065ZM64.0198 41.0037L89.2029 15.821L89.0734 15.6914L63.8902 40.8739L64.0198 41.0037ZM61.9193 39.1006L87.2068 13.8133L87.0772 13.6835L61.7895 38.9712L61.9193 39.1008V39.1006ZM59.8185 37.1977L85.2109 11.8053L85.0814 11.6758L59.689 37.0682L59.8185 37.1977Z" fill="white"/>
<path d="M59.6807 37.4414L84.19 61.9519L84.3198 61.8223L59.8104 37.3117L59.6807 37.4414ZM61.6684 35.4253L86.2255 59.9837L86.355 59.8541L61.7979 35.2958L61.6684 35.4253ZM63.6559 33.4092L88.2607 58.0153L88.3904 57.8855L63.7857 33.2797L63.6559 33.4092ZM65.6437 31.3934L90.2961 56.0469L90.4257 55.9173L65.7732 31.2634L65.6437 31.3934ZM67.6312 29.3773L92.3313 54.0785L92.4609 53.9489L67.7607 29.2477L67.6312 29.3773ZM69.6187 27.3612L94.3665 52.1101L94.4961 51.9805L69.7485 27.2316L69.6187 27.3612ZM71.6062 25.3453L96.402 50.1417L96.5317 50.0121L71.736 25.2155L71.6062 25.3453ZM73.5937 23.3292L98.4374 48.1733L98.567 48.0438L73.7235 23.1996L73.5937 23.3292ZM75.5815 21.3131L100.473 46.2049L100.602 46.0754L75.711 21.1836L75.5815 21.3131ZM77.569 19.2972L102.508 44.2363L102.638 44.1067L77.6985 19.1677L77.569 19.2972ZM79.5567 17.2811L104.543 42.2683L104.673 42.1386L79.6863 17.1516L79.5567 17.2811ZM81.5442 15.265L106.578 40.2997L106.708 40.1702L81.6736 15.1355L81.5442 15.265ZM83.5318 13.2492L108.614 38.3315L108.743 38.202L83.6613 13.1196L83.5318 13.2492ZM85.5193 11.2331L110.649 36.3631L110.779 36.2334L85.649 11.1035L85.5195 11.2331H85.5193Z" fill="white"/>
<path d="M103.073 18.7248C100.911 16.5622 98.2518 14.6133 95.0758 13.4323C91.7837 12.2081 88.0596 11.1762 83.6674 11.5505C76.6708 12.1469 71.7586 15.286 68.025 18.96C65.41 21.5334 63.4428 24.6869 62.1443 28.3691C60.2378 33.7757 60.3536 40.1572 62.4971 45.658C64.3254 50.3502 67.3182 54.1347 71.5532 57.0662C75.5343 59.8227 81.2484 61.9601 87.666 61.4181C95.4827 60.7579 101.202 56.7476 104.955 52.1268C105.915 50.9447 106.87 49.6084 107.425 48.0103C107.968 46.8588 108.234 46.0763 108.483 45.6582C109.526 43.3222 110.078 40.8578 110.247 38.131C110.769 29.7443 107.542 23.1933 103.073 18.725V18.7248ZM100.77 44.2768C100.755 44.3088 100.741 44.3385 100.726 44.3713C100.338 45.481 99.67 46.4087 98.9986 47.2298C96.3739 50.4385 92.3746 53.2231 86.9083 53.6816C82.4202 54.0578 78.4243 52.5736 75.6404 50.6598C73.2212 48.9969 71.3822 46.9381 70.0925 44.4639C70.0138 44.315 69.2649 42.5896 69.2627 42.5138C68.2412 39.3448 68.1524 34.2496 69.2011 31.1919C69.9008 29.1509 71.0672 26.943 72.6117 25.1935C74.7445 22.7782 76.8787 21.2303 80.2567 20.1363C81.7989 19.6368 83.1797 19.1283 85.0787 19.0778C89.7096 18.9544 94.4255 21.0337 96.9574 23.3119C99.2844 25.4051 101.936 29.4831 102.603 33.3088C103.289 37.2465 102.557 41.0911 100.77 44.2768Z" fill="black"/>
<path d="M92.7204 48.0525C91.58 48.0525 90.5792 47.3304 90.2299 46.2555L88.9599 42.3855H82.6059L81.4258 46.2201C81.0696 47.3158 80.0613 48.0495 78.9151 48.0495C78.6399 48.0495 78.3666 48.0059 78.1026 47.9203C76.7325 47.5089 75.9548 46.0345 76.3746 44.635L81.7375 27.647C82.0858 26.5664 83.111 25.8125 84.231 25.8125H87.0826C88.2089 25.8125 89.2341 26.5537 89.5755 27.6144L95.2155 44.5961C95.6667 45.9844 94.9199 47.475 93.5518 47.9201C93.2811 48.0082 93.0018 48.0525 92.7204 48.0525Z" fill="white"/>
<path d="M92.7204 47.687C91.6988 47.687 90.804 47.0414 90.4916 46.08L89.2213 42.2094L89.159 42.0201H82.4032L82.3435 42.2143L81.1633 46.0488C81.0682 46.3443 80.9157 46.6181 80.7145 46.8545C80.5134 47.0909 80.2675 47.2853 79.991 47.4265C79.7146 47.5676 79.413 47.6529 79.1035 47.6772C78.7941 47.7016 78.4829 47.6646 78.1877 47.5684C76.9575 47.1989 76.2621 45.8776 76.6383 44.6236L82.0001 27.6395C82.3112 26.6738 83.2312 25.9973 84.2313 25.9973H87.0829C88.0903 25.9973 89.0092 26.6616 89.3141 27.6084L94.955 44.5924C95.3587 45.8351 94.6901 47.1701 93.467 47.5684C93.2242 47.6473 92.9726 47.687 92.7204 47.687ZM92.7204 48.237C93.0307 48.237 93.3392 48.188 93.6367 48.0914C95.1505 47.5987 95.9749 45.9524 95.4773 44.4208L89.8366 27.4374C89.4591 26.265 88.3279 25.4473 87.0827 25.4473H84.2311C82.991 25.4473 81.8605 26.2787 81.4759 27.4724L76.1124 44.4618C75.6483 46.0085 76.5062 47.6378 78.0236 48.0933C78.3093 48.1861 78.6112 48.234 78.9152 48.234C80.1813 48.234 81.2946 47.4232 81.6875 46.2147L82.869 42.3761L82.606 42.5701H88.96L88.6985 42.381L89.9687 46.2508C90.3548 47.4387 91.4612 48.237 92.7204 48.237Z" fill="black"/>
<path d="M71.6583 20.3991L71.6516 20.3898C70.9828 19.4733 71.179 18.1911 72.164 17.4723C73.1489 16.7536 74.4141 16.9554 75.0829 17.8719L75.0898 17.8809C75.7586 18.7974 75.5624 20.0798 74.5774 20.7985C73.5923 21.5173 72.3271 21.3158 71.6583 20.3991ZM74.1935 18.5488L74.1868 18.5398C73.8508 18.0792 73.2249 17.9211 72.7372 18.2769C72.2538 18.6296 72.2163 19.258 72.5523 19.7187L72.5589 19.7277C72.8952 20.1883 73.5208 20.3467 74.0042 19.9941C74.4919 19.6379 74.5297 19.0095 74.1935 18.5488ZM78.1064 14.3914L79.1114 14.0691L81.9291 17.3444L80.8111 17.7032L80.3214 17.1191L78.8702 17.5848L78.8169 18.343L77.7205 18.6947L78.1064 14.3914ZM79.7601 16.4043L78.9974 15.4691L78.9162 16.675L79.7601 16.4043ZM83.7394 15.3769L83.748 13.1582L84.8602 13.1625L84.8516 15.3586C84.8493 15.9288 85.1361 16.2008 85.5765 16.203C86.017 16.2045 86.3057 15.946 86.3079 15.393L86.3167 13.1687L87.4289 13.173L87.4203 15.3634C87.4152 16.6393 86.6847 17.1953 85.5613 17.1908C84.4379 17.1861 83.7345 16.6131 83.7394 15.3769ZM91.4452 14.9893L90.3115 14.6432L90.5916 13.7254L93.9067 14.7371L93.6265 15.6549L92.4928 15.309L91.6194 18.1705L90.5721 17.8508L91.4452 14.9893ZM96.8676 16.0178L97.7792 16.6245L96.96 17.8558L98.1303 18.6346L98.9497 17.4033L99.8613 18.01L97.672 21.2999L96.7602 20.693L97.5923 19.443L96.4218 18.6642L95.59 19.9142L94.6784 19.3075L96.8676 16.0178Z" fill="white"/>
<path d="M100.088 51.9812L100.095 51.99C100.799 52.8803 100.652 54.1694 99.6946 54.9252C98.7379 55.6812 97.4656 55.5278 96.7622 54.6375L96.7554 54.6287C96.0517 53.7382 96.1991 52.4493 97.1558 51.6933C98.1127 50.9377 99.3848 51.0909 100.088 51.9812H100.088ZM97.6253 53.927L97.6323 53.9358C97.9858 54.3833 98.617 54.5176 99.0911 54.1432C99.5606 53.7721 99.5743 53.1428 99.2207 52.6953L99.2136 52.6865C98.8604 52.239 98.229 52.1047 97.7593 52.4757C97.2854 52.8502 97.2718 53.4795 97.6253 53.927ZM93.9063 58.2419L92.9163 58.6082L89.9573 55.4599L91.0583 55.0522L91.5733 55.6142L93.0029 55.085L93.0224 54.3253L94.1025 53.9257L93.9063 58.2419ZM92.1656 56.304L92.9687 57.2045L92.9969 55.9962L92.1656 56.304ZM88.2396 57.4904L88.3373 59.707L87.2266 59.7559L87.1295 57.562C87.1044 56.9926 86.8049 56.7346 86.3649 56.7539C85.9251 56.7733 85.6488 57.0455 85.6731 57.5983L85.7713 59.8202L84.6605 59.8692L84.5638 57.681C84.5073 56.4065 85.2105 55.8161 86.3326 55.7665C87.455 55.7171 88.185 56.2553 88.2396 57.4904ZM80.5198 58.2151L81.6643 58.5242L81.4142 59.4509L78.0674 58.5474L78.3175 57.6208L79.4621 57.9298L80.242 55.0408L81.2995 55.3263L80.5198 58.2151ZM75.1094 57.4101L74.1699 56.8472L74.9304 55.5783L73.7247 54.8556L72.9642 56.1244L72.0249 55.5616L74.0567 52.1715L74.996 52.7346L74.224 54.0228L75.4297 54.7456L76.2017 53.4574L77.1412 54.0205L75.1094 57.4101Z" fill="white"/>
</g>
</g>
<defs>
<clipPath id="clip0_116_8486">
<rect width="170" height="72" rx="6" fill="white"/>
</clipPath>
<clipPath id="clip1_116_8486">
<rect width="55" height="55" fill="white" transform="translate(58 9)"/>
</clipPath>
</defs>
</svg>
