<svg width="170" height="72" viewBox="0 0 170 72" fill="none" xmlns="http://www.w3.org/2000/svg">
<g clip-path="url(#clip0_116_8440)">
<rect width="170" height="72" rx="6" fill="#EC696A" fill-opacity="0.08"/>
<g clip-path="url(#clip1_116_8440)">
<path d="M127.141 50.7991V56.0002H136.537C138.463 56.0002 141.767 54.5922 141.882 50.6554V48.6439C141.882 45.2818 139.124 43.2991 136.537 43.2991H131.854V40.8853H141.135V35.6554H132.227C129.928 35.6554 126.854 37.5519 126.854 41.0864V42.8968C126.854 46.4313 129.9 48.2416 132.227 48.2416C138.693 48.2703 130.675 48.2416 136.652 48.2416V50.7703M76.7961 49.5347C76.7961 49.5347 81.8248 49.1037 81.8248 42.6094C81.8248 36.1152 75.7329 35.5117 75.7329 35.5117H64.7559V56.0002H70.2731V51.0577L75.0432 56.0002H83.2041L76.7961 49.5347ZM74.6697 45.3393H70.2731V40.6554H74.6984C74.6984 40.6554 75.934 41.1152 75.934 42.983C75.934 44.8508 74.6697 45.3393 74.6697 45.3393ZM95.4455 35.6554H89.8421C85.8478 35.6554 84.4972 39.2761 84.4972 41.0002V56.0002H90.1007V52.4083H95.3593V56.0002H100.79V41.0002C100.79 36.6324 96.8248 35.6554 95.4455 35.6554ZM95.3593 46.6037H90.072V41.6324C90.072 41.6324 90.072 40.5117 91.8248 40.5117H93.7501C95.3018 40.5117 95.3306 41.6324 95.3306 41.6324V46.6037H95.3593ZM103.348 35.6554H109.181V56.0002H103.348V35.6554ZM117.371 50.7416V35.6554H111.566V56.0002H125.216V50.7416H117.371Z" fill="#CC0000"/>
<path d="M30.1294 55.9994H52.8305C52.8305 55.9994 48.4915 36.2006 62.8593 28.1834C65.9915 26.6604 75.9627 20.9707 92.2846 33.0397C92.8018 32.6086 93.2903 32.2638 93.2903 32.2638C93.2903 32.2638 78.3478 17.35 61.7099 19.0167C53.3478 19.7638 43.0604 27.3788 37.0259 37.4362C30.9915 47.4937 30.1294 55.9994 30.1294 55.9994Z" fill="#CC0000"/>
<path d="M30.1294 55.9994H52.8305C52.8305 55.9994 48.4915 36.2006 62.8593 28.1834C65.9915 26.6604 75.9627 20.9707 92.2846 33.0397C92.8018 32.6086 93.2903 32.2638 93.2903 32.2638C93.2903 32.2638 78.3478 17.35 61.7099 19.0167C53.3478 19.7638 43.0604 27.3788 37.0259 37.4362C30.9915 47.4937 30.1294 55.9994 30.1294 55.9994Z" fill="#CC0000"/>
<path d="M30.1294 55.9999H52.8305C52.8305 55.9999 48.4915 36.2011 62.8593 28.1838C65.9915 26.6608 75.9627 20.9712 92.2846 33.0401C92.8018 32.6091 93.2903 32.2643 93.2903 32.2643C93.2903 32.2643 78.3478 17.3505 61.7099 19.0172C53.3191 19.7643 43.0317 27.3792 36.9972 37.4367C30.9627 47.4942 30.1294 55.9999 30.1294 55.9999ZM77.4282 20.6263L77.5432 18.7011C77.2846 18.5574 76.5662 18.2126 74.7558 17.6953L74.6409 19.5919C75.5892 19.908 76.5087 20.2528 77.4282 20.6263Z" fill="#CC0000"/>
<path d="M74.6981 26.7184L74.5832 28.5287C75.5315 28.5575 76.4798 28.6724 77.428 28.8736L77.543 27.092C76.566 26.8908 75.6177 26.7759 74.6981 26.7184ZM64.066 17.7529H64.3533L63.7786 16C62.8878 16 61.9683 16.0575 61.02 16.1724L61.566 17.8678C62.3993 17.7816 63.2326 17.7529 64.066 17.7529ZM65.4453 28.3276L66.1062 30.3103C66.9395 29.908 67.7729 29.5632 68.6062 29.3046L67.974 27.408C66.997 27.6954 66.1637 28.0115 65.4453 28.3276ZM52.3993 20.7701L51.1062 18.7874C50.3878 19.1609 49.6407 19.5632 48.8648 20.023L50.1866 22.0345C50.9338 21.5747 51.6522 21.1437 52.3993 20.7701ZM58.2901 33.7012L59.6694 35.7701C60.1579 35.0517 60.7326 34.3908 61.3648 33.7299L60.0717 31.7759C59.4108 32.3793 58.8073 33.0402 58.2901 33.7012ZM54.1234 42.954L56.451 44.7931C56.566 43.6724 56.7671 42.5517 57.0545 41.431L54.9855 39.7931C54.6119 40.8563 54.3533 41.9195 54.1234 42.954ZM41.5372 29.3046L39.497 27.523C38.7499 28.2414 38.0315 28.9598 37.3706 29.6782L39.5832 31.5747C40.1866 30.7989 40.8476 30.023 41.5372 29.3046ZM32.8591 42.1494L29.5545 40.9425C29.0085 42.1782 28.405 43.6149 28.1177 44.3908L31.4223 45.5977C31.7958 44.6207 32.3993 43.2126 32.8591 42.1494ZM53.6924 50.2529C53.7499 51.7759 53.8935 53.0115 54.0372 53.8736L57.4855 55.1092C57.2269 53.9885 56.9683 52.7241 56.7958 51.3736L53.6924 50.2529Z" fill="#CC0000"/>
</g>
</g>
<defs>
<clipPath id="clip0_116_8440">
<rect width="170" height="72" rx="6" fill="white"/>
</clipPath>
<clipPath id="clip1_116_8440">
<rect width="113.766" height="40" fill="white" transform="translate(28.1172 16)"/>
</clipPath>
</defs>
</svg>
