<svg width="170" height="72" viewBox="0 0 170 72" fill="none" xmlns="http://www.w3.org/2000/svg">
<g clip-path="url(#clip0_116_8426)">
<rect width="170" height="72" rx="6" fill="#EC696A" fill-opacity="0.08"/>
<g clip-path="url(#clip1_116_8426)">
<path d="M83.4733 11H91.644V48.449C87.4588 49.2406 84.3778 49.5521 81.0443 49.5521C71.0649 49.5417 65.8701 45.0834 65.8701 36.5208C65.8701 28.2709 71.3803 22.9166 79.9191 22.9166C81.2441 22.9166 82.2535 23.0209 83.4733 23.3333V11ZM83.7596 30.082C82.8027 29.7695 82.0141 29.6654 81.0045 29.6654C76.872 29.6654 74.4849 32.1861 74.4849 36.6038C74.4849 40.9049 76.7669 43.2798 80.9521 43.2798C81.8563 43.2798 82.5924 43.2289 83.7596 43.0727V30.082Z" fill="#2BA977"/>
<path d="M105.005 23.9221V42.6722C105.005 49.1294 104.522 52.2347 103.102 54.9118C101.777 57.4857 100.031 59.1087 96.4246 60.9013L88.8428 57.3285C92.4496 55.6523 94.1952 54.1711 95.3099 51.9108C96.477 49.5993 96.8451 46.9221 96.8451 39.8805V23.9222L105.005 23.9221ZM96.0217 11H104.192V19.3021H96.0217V11Z" fill="#2BA977"/>
</g>
</g>
<defs>
<clipPath id="clip0_116_8426">
<rect width="170" height="72" rx="6" fill="white"/>
</clipPath>
<clipPath id="clip1_116_8426">
<rect width="39.26" height="50" fill="white" transform="translate(65.8701 11)"/>
</clipPath>
</defs>
</svg>
