<svg width="170" height="72" viewBox="0 0 170 72" fill="none" xmlns="http://www.w3.org/2000/svg">
<g clip-path="url(#clip0_699_5093)">
<rect width="170" height="72" rx="6" fill="#845EF7" fill-opacity="0.08"/>
<g clip-path="url(#clip1_699_5093)">
<path d="M107.022 46.1987C107.022 47.0311 106.844 47.7667 106.484 48.3978C106.13 49.0188 105.601 49.5391 104.89 49.9505C99.026 53.3319 93.1561 56.7028 87.2938 60.0876C85.7134 61 84.181 60.9666 82.6123 60.0411C80.2781 58.6647 68.592 51.9694 65.1096 49.9524C63.6755 49.1221 62.9777 47.8515 62.9773 46.2002C62.9751 39.4002 62.9773 32.6001 62.9751 25.8C62.9751 24.9859 63.1459 24.2644 63.4901 23.6427C63.8439 23.0032 64.381 22.4685 65.1078 22.0478C68.5902 20.0308 80.278 13.3361 82.6116 11.9592C84.181 11.0331 85.7134 11 87.2943 11.9126C93.1568 15.2976 99.027 18.6686 104.892 22.0499C105.619 22.4704 106.156 23.0054 106.51 23.6445C106.853 24.2663 107.025 24.9876 107.025 25.8019C107.025 25.8019 107.025 39.3984 107.022 46.1987Z" fill="#A179DC"/>
<path d="M85.0674 36.0664L63.4902 23.6428C63.8441 23.0032 64.3811 22.4685 65.1079 22.0478C68.5904 20.0308 80.2781 13.3361 82.6117 11.9592C84.1812 11.0331 85.7135 11 87.2945 11.9126C93.1569 15.2976 99.0272 18.6686 104.892 22.0499C105.619 22.4704 106.156 23.0054 106.51 23.6445L85.0674 36.0664Z" fill="#280068"/>
<path d="M107.022 46.1983C107.022 47.0307 106.844 47.7663 106.484 48.3975L85.0674 36.0658L106.51 23.6441C106.854 24.2659 107.024 24.9872 107.025 25.8016C107.025 25.8016 107.025 39.3981 107.022 46.1983Z" fill="#390091"/>
<path d="M97.7713 40.71V38.3877H100.094V40.71H101.255V38.3877H103.577V37.2266H101.255V34.9045H103.577V33.7434H101.255V31.4212H100.094V33.7434H97.7713V31.4212H96.6102V33.7434H94.2881V34.9045H96.6102V37.2266H94.2881V38.3877H96.6102V40.71H97.7713ZM100.094 37.2268H97.7713V34.9045H100.094V37.2268Z" fill="white"/>
<path d="M85.1146 52.3729C91.1717 52.3729 96.4599 49.0834 99.2924 44.1939L99.2648 44.2409L92.1382 40.1376C90.7342 42.5148 88.1604 44.1192 85.2075 44.1523L85.1144 44.1528C80.6118 44.1528 76.9614 40.5025 76.9614 35.9998C76.9599 34.5807 77.3307 33.1859 78.0367 31.9548C79.4421 29.5014 82.084 27.8467 85.1146 27.8467C88.164 27.8467 90.8209 29.5224 92.219 32.002L92.1851 31.9426L99.3009 27.8203C96.4993 22.9721 91.2835 19.6928 85.2969 19.6275L85.1146 19.6264C79.0384 19.6264 73.7352 22.9363 70.9097 27.8517C69.5304 30.2513 68.7412 33.0332 68.7412 35.9998C68.7412 45.0423 76.0716 52.373 85.1144 52.373L85.1146 52.3729Z" fill="white"/>
</g>
</g>
<defs>
<clipPath id="clip0_699_5093">
<rect width="170" height="72" rx="6" fill="white"/>
</clipPath>
<clipPath id="clip1_699_5093">
<rect width="44.44" height="50" fill="white" transform="matrix(1 0 0 -1 62.7798 61)"/>
</clipPath>
</defs>
</svg>
