<svg width="271" height="39" viewBox="0 0 271 39" fill="none" xmlns="http://www.w3.org/2000/svg">
<g clip-path="url(#clip0_96_4716)">
<path d="M16.727 23.7648C17.8676 24.3828 18.8143 25.318 19.4577 26.4625C20.1011 27.6071 20.4152 28.9143 20.3636 30.2334C20.3926 31.3437 20.1845 32.4471 19.7538 33.4667C19.323 34.4863 18.6799 35.3975 17.8695 36.1369C16.1908 37.6746 13.9991 38.4947 11.7465 38.428H0.015625V10.1709H10.9327C13.1296 10.1133 15.2655 10.9134 16.9064 12.4085C17.6951 13.1226 18.321 14.0049 18.7403 14.9932C19.1596 15.9815 19.3621 17.0518 19.3332 18.1287C19.3639 19.2117 19.1438 20.2868 18.6909 21.2663C18.238 22.2458 17.565 23.1019 16.727 23.7648ZM10.9177 15.3641H5.45919V21.5883H10.9177C11.3113 21.5974 11.7024 21.5227 12.0662 21.3689C12.43 21.215 12.7584 20.9855 13.0308 20.6947C13.3113 20.4017 13.5312 20.0539 13.6774 19.6721C13.8237 19.2903 13.8934 18.8823 13.8821 18.4723C13.8953 18.0635 13.828 17.6561 13.6843 17.2744C13.5407 16.8926 13.3235 16.5443 13.0457 16.25C12.7731 15.9554 12.4424 15.7234 12.0755 15.5694C11.7086 15.4153 11.3141 15.3427 10.9177 15.3564V15.3641ZM11.7465 33.2271C12.1718 33.24 12.5952 33.1625 12.9898 32.9995C13.3844 32.8365 13.7416 32.5916 14.0389 32.2801C14.3406 31.962 14.5768 31.5852 14.7333 31.1719C14.8898 30.7587 14.9634 30.3174 14.9499 29.8745C14.9605 29.4376 14.8854 29.003 14.7289 28.5964C14.5725 28.1897 14.3378 27.8193 14.0389 27.507C13.7416 27.1956 13.3844 26.9506 12.9898 26.7876C12.5952 26.6246 12.1718 26.5471 11.7465 26.56H5.45919V33.2271H11.7465Z" fill="white"/>
<path d="M39.0984 38.4342L33.5055 28.613H29.3762V38.4342H23.9102V10.1771H34.984C36.1965 10.1558 37.4004 10.3887 38.5216 10.8615C39.6427 11.3344 40.6574 12.0371 41.5028 12.9265C42.3702 13.7847 43.0562 14.8158 43.5186 15.956C43.981 17.0962 44.2098 18.3212 44.1909 19.5554C44.1869 21.2968 43.6662 22.9958 42.6975 24.4279C41.7459 25.9071 40.4014 27.0781 38.822 27.8034L44.9526 38.4953L39.0984 38.4342ZM29.3911 15.3551V23.7176H35.0064C35.5078 23.721 36.0038 23.6128 36.4603 23.4004C36.9167 23.1881 37.3225 22.8768 37.6496 22.4881C38.3815 21.6823 38.7779 20.6168 38.7547 19.5172C38.7803 18.4218 38.3834 17.3601 37.6496 16.5617C37.3192 16.1787 36.9123 15.8728 36.4563 15.6646C36.0002 15.4564 35.5058 15.3509 35.0064 15.3551H29.3911Z" fill="white"/>
<path d="M66.3757 38.4368L64.6209 33.3429H53.256L51.5907 38.4368H45.6992L55.4065 10.1797H62.1717L71.9313 38.475L66.3757 38.4368ZM55.0331 28.1268H62.8213L58.8264 16.5643L55.0331 28.1268Z" fill="white"/>
<path d="M90.6032 10.1406H96.0618V38.4359H91.91L80.0522 21.138V38.4359H74.5938V10.1788H78.738L90.6032 27.4156V10.1406Z" fill="white"/>
<path d="M112.185 10.1376C113.966 10.088 115.737 10.4243 117.381 11.1246C119.026 11.8248 120.507 12.8731 121.728 14.2005C122.98 15.5383 123.962 17.1165 124.616 18.844C125.269 20.5716 125.582 22.4144 125.536 24.2662C125.583 26.1192 125.271 27.9634 124.617 29.6924C123.963 31.4213 122.981 33.0007 121.728 34.3394C120.512 35.6657 119.036 36.7146 117.397 37.4173C115.758 38.1201 113.992 38.461 112.215 38.4176H101.23V10.1605L112.185 10.1376ZM112.185 33.1022C113.275 33.1435 114.361 32.9461 115.371 32.5233C116.38 32.1005 117.29 31.4621 118.039 30.6507C119.576 28.912 120.381 26.6233 120.279 24.2814C120.38 21.942 119.575 19.6562 118.039 17.9198C117.29 17.1084 116.38 16.47 115.371 16.0472C114.361 15.6244 113.275 15.427 112.185 15.4683H106.652V33.1022H112.185Z" fill="white"/>
<path d="M137.88 38.9996C135.445 39.0838 133.039 38.4302 130.966 37.1209C129.129 35.9157 127.739 34.1174 127.016 32.0117L131.675 29.2165C132.755 32.1033 134.879 33.5467 138.045 33.5467C139.225 33.6411 140.403 33.3438 141.405 32.699C141.737 32.4543 142.008 32.1318 142.193 31.7585C142.379 31.3852 142.475 30.9718 142.473 30.553C142.476 30.0862 142.357 29.6271 142.127 29.2239C141.897 28.8207 141.565 28.4884 141.166 28.2619C139.69 27.4649 138.122 26.8595 136.499 26.4595C135.431 26.1444 134.381 25.7671 133.355 25.3292C132.449 24.9145 131.588 24.4025 130.787 23.8018C129.945 23.1832 129.272 22.3552 128.83 21.3962C128.363 20.331 128.133 19.1726 128.158 18.0053C128.115 16.8453 128.333 15.6907 128.797 14.6311C129.261 13.5715 129.957 12.6355 130.831 11.8957C132.629 10.36 134.912 9.54565 137.253 9.60455C139.34 9.56252 141.393 10.1466 143.16 11.2847C144.885 12.4318 146.262 14.0512 147.132 15.9586L142.547 18.6621C141.442 16.2411 139.672 15.0269 137.253 15.0269C136.303 14.9633 135.36 15.2327 134.58 15.7906C134.274 16.0288 134.027 16.3377 133.859 16.692C133.692 17.0464 133.609 17.4362 133.617 17.8297C133.609 18.2544 133.703 18.6746 133.892 19.0529C134.081 19.4313 134.358 19.7561 134.699 19.9986C135.995 20.8066 137.402 21.4115 138.873 21.7933L140.793 22.4195C141.226 22.5723 141.816 22.8014 142.57 23.1069C143.173 23.3464 143.755 23.6377 144.31 23.9775C144.799 24.3117 145.268 24.6765 145.713 25.0696C146.187 25.4698 146.593 25.9471 146.916 26.4824C147.234 27.0373 147.484 27.6297 147.662 28.2466C147.868 28.9736 147.969 29.7275 147.961 30.4842C148.007 31.6736 147.779 32.8573 147.295 33.9399C146.811 35.0224 146.085 35.9734 145.176 36.7161C143.08 38.327 140.498 39.135 137.88 38.9996Z" fill="white"/>
<path d="M168.772 10.1403V15.4862H161.305V38.4508H155.846V15.4709H148.379V10.125L168.772 10.1403Z" fill="white"/>
<path d="M193.579 34.7368C192.253 36.1191 190.665 37.2101 188.912 37.9429C187.16 38.6756 185.279 39.0347 183.386 38.9983C181.494 39.036 179.614 38.6773 177.863 37.9445C176.111 37.2116 174.525 36.12 173.201 34.7368C171.845 33.3774 170.776 31.7484 170.06 29.9503C169.343 28.1521 168.994 26.223 169.034 24.2816C168.994 22.3415 169.343 20.4135 170.06 18.6166C170.777 16.8198 171.846 15.1921 173.201 13.8342C174.524 12.4496 176.11 11.3565 177.862 10.6223C179.614 9.88815 181.494 9.52834 183.386 9.56505C185.28 9.53 187.16 9.89053 188.913 10.6246C190.666 11.3587 192.253 12.4508 193.579 13.8342C194.943 15.1873 196.019 16.8134 196.741 18.6109C197.463 20.4084 197.815 22.3388 197.775 24.2816C197.815 26.2257 197.463 28.1572 196.741 29.956C196.019 31.7548 194.943 33.3822 193.579 34.7368ZM177.017 30.9182C177.849 31.7733 178.843 32.4459 179.939 32.8949C181.034 33.344 182.207 33.5601 183.386 33.5301C184.565 33.56 185.736 33.3438 186.83 32.8947C187.924 32.4456 188.917 31.7731 189.748 30.9182C190.599 30.0488 191.267 29.0097 191.709 27.8653C192.15 26.721 192.358 25.496 192.317 24.2664C192.355 23.0348 192.147 21.8081 191.705 20.6617C191.264 19.5152 190.598 18.4731 189.748 17.5992C188.919 16.7409 187.927 16.0651 186.833 15.6133C185.739 15.1615 184.566 14.9433 183.386 14.9721C182.206 14.9432 181.032 15.1613 179.936 15.6131C178.841 16.0648 177.848 16.7407 177.017 17.5992C176.167 18.4731 175.501 19.5152 175.06 20.6617C174.618 21.8081 174.41 23.0348 174.448 24.2664C174.402 25.4963 174.603 26.723 175.04 27.8699C175.476 29.0169 176.139 30.0597 176.987 30.9335L177.017 30.9182Z" fill="white"/>
<path d="M216.783 38.4344L211.19 28.6131H207.061V38.4344H201.625V10.1773H212.691C213.905 10.1548 215.111 10.3872 216.233 10.8601C217.356 11.333 218.371 12.0363 219.218 12.9266C220.085 13.7849 220.771 14.8159 221.233 15.9561C221.696 17.0963 221.925 18.3214 221.906 19.5556C221.898 21.2963 221.378 22.9943 220.412 24.428C219.459 25.9056 218.115 27.0761 216.537 27.8036L222.667 38.4954L216.783 38.4344ZM207.076 15.3552V23.7178H212.684C213.186 23.7217 213.684 23.6138 214.142 23.4015C214.599 23.1892 215.006 22.8775 215.335 22.4882C216.067 21.6825 216.463 20.6169 216.44 19.5174C216.465 18.422 216.068 17.3602 215.335 16.5618C215.003 16.1783 214.595 15.872 214.137 15.6638C213.68 15.4557 213.184 15.3504 212.684 15.3552H207.076Z" fill="white"/>
<path d="M246.991 10.1406L237.5 27.4004V38.4359H232.087V27.4004L222.641 10.1406H228.801L234.775 21.917L240.801 10.1406H246.991Z" fill="white"/>
</g>
<path d="M260.846 14.4648H258.338L258.315 12.9922H260.65C260.973 12.9846 261.272 12.927 261.548 12.8197C261.831 12.7123 262.058 12.5589 262.226 12.3595C262.403 12.1524 262.491 11.8993 262.491 11.6002C262.491 11.2168 262.426 10.9138 262.296 10.6914C262.165 10.469 261.947 10.3079 261.64 10.2082C261.341 10.1085 260.93 10.0587 260.409 10.0587H258.844V18.3532H257.222V8.59765H260.409C261.168 8.59765 261.824 8.70502 262.376 8.91976C262.928 9.13451 263.354 9.46046 263.653 9.89762C263.952 10.3271 264.102 10.8716 264.102 11.5312C264.102 11.9454 264.006 12.3173 263.814 12.6471C263.622 12.9769 263.342 13.2607 262.974 13.4984C262.606 13.7362 262.157 13.9279 261.628 14.0736C261.605 14.0736 261.578 14.1005 261.548 14.1542C261.525 14.2002 261.502 14.2232 261.479 14.2232C261.348 14.2999 261.264 14.3574 261.226 14.3957C261.195 14.4264 261.16 14.4456 261.122 14.4533C261.091 14.4609 260.999 14.4648 260.846 14.4648ZM260.731 14.4648L260.961 13.4294C262.15 13.4294 262.959 13.6825 263.388 14.1887C263.826 14.6872 264.044 15.3199 264.044 16.0869V16.7081C264.044 16.9919 264.059 17.2641 264.09 17.5249C264.121 17.778 264.171 17.9927 264.24 18.1691V18.3532H262.572C262.495 18.1538 262.449 17.87 262.434 17.5019C262.426 17.1337 262.422 16.8653 262.422 16.6966V16.0984C262.422 15.5385 262.292 15.1282 262.031 14.8674C261.778 14.599 261.344 14.4648 260.731 14.4648ZM253.702 13.6135C253.702 14.6335 253.878 15.5845 254.231 16.4665C254.584 17.3485 255.075 18.1193 255.704 18.7788C256.333 19.4384 257.061 19.9523 257.889 20.3204C258.718 20.6885 259.604 20.8726 260.547 20.8726C261.49 20.8726 262.372 20.6885 263.193 20.3204C264.021 19.9523 264.746 19.4384 265.367 18.7788C265.996 18.1193 266.487 17.3485 266.84 16.4665C267.192 15.5845 267.369 14.6335 267.369 13.6135C267.369 12.5858 267.192 11.6347 266.84 10.7604C266.487 9.88611 265.996 9.123 265.367 8.4711C264.746 7.81153 264.021 7.30151 263.193 6.94105C262.372 6.57291 261.49 6.38885 260.547 6.38885C259.604 6.38885 258.718 6.57291 257.889 6.94105C257.061 7.30151 256.333 7.81153 255.704 8.4711C255.075 9.123 254.584 9.88611 254.231 10.7604C253.878 11.6347 253.702 12.5858 253.702 13.6135ZM252.379 13.6135C252.379 12.394 252.59 11.2628 253.012 10.2197C253.433 9.17669 254.02 8.26786 254.772 7.49325C255.523 6.71096 256.39 6.10508 257.372 5.67559C258.361 5.23843 259.419 5.01985 260.547 5.01985C261.674 5.01985 262.729 5.23843 263.711 5.67559C264.7 6.10508 265.567 6.71096 266.31 7.49325C267.062 8.26786 267.649 9.17669 268.071 10.2197C268.492 11.2628 268.703 12.394 268.703 13.6135C268.703 14.8329 268.492 15.9641 268.071 17.0072C267.649 18.0502 267.062 18.9667 266.31 19.7567C265.567 20.539 264.7 21.1487 263.711 21.5859C262.729 22.023 261.674 22.2416 260.547 22.2416C259.419 22.2416 258.361 22.023 257.372 21.5859C256.39 21.1487 255.523 20.539 254.772 19.7567C254.02 18.9667 253.433 18.0502 253.012 17.0072C252.59 15.9641 252.379 14.8329 252.379 13.6135Z" fill="white"/>
<defs>
<clipPath id="clip0_96_4716">
<rect width="246.983" height="29.4332" fill="white" transform="translate(0 9.56641)"/>
</clipPath>
</defs>
</svg>
