<svg width="170" height="72" viewBox="0 0 170 72" fill="none" xmlns="http://www.w3.org/2000/svg">
<g clip-path="url(#clip0_116_8625)">
<rect width="170" height="72" rx="6" fill="#75BAF9" fill-opacity="0.08"/>
<path d="M34.6002 29.5601C34.4524 29.0869 34.0975 28.7025 33.6538 28.4659L24.6334 24.1479C24.3968 24.0296 24.1306 24 23.894 24C23.6574 24 23.3912 24 23.1546 24.0591L14.1342 28.4067C13.6906 28.6137 13.3653 28.9982 13.247 29.501L11.0288 39.2312C10.9401 39.734 11.0584 40.2368 11.3541 40.6508L17.5945 48.37C17.9494 48.7249 18.4522 48.9615 18.955 48.991H28.8922C29.4246 49.0502 29.9274 48.8136 30.2527 48.37L36.4931 40.6508C36.7888 40.2368 36.9071 39.734 36.848 39.2312L34.6002 29.5601Z" fill="white" stroke="white" stroke-width="5" stroke-miterlimit="10"/>
<path d="M34.6002 29.5601C34.4524 29.0869 34.0975 28.7025 33.6538 28.4659L24.6334 24.1479C24.3968 24.0296 24.1306 24 23.894 24C23.6574 24 23.3912 24 23.1546 24.0591L14.1342 28.4067C13.6906 28.6137 13.3653 28.9982 13.247 29.501L11.0288 39.2312C10.9401 39.734 11.0584 40.2368 11.3541 40.6508L17.5945 48.37C17.9494 48.7249 18.4522 48.9615 18.955 48.991H28.8922C29.4246 49.0502 29.9274 48.8136 30.2527 48.37L36.4931 40.6508C36.7888 40.2368 36.9071 39.734 36.848 39.2312L34.6002 29.5601Z" fill="#326DE6"/>
<path d="M33.2104 38.8461C33.1808 38.8461 33.1512 38.8461 33.1512 38.8165C33.1512 38.7869 33.0921 38.7869 33.0329 38.7869C32.9146 38.7573 32.7963 38.7573 32.678 38.7573C32.6189 38.7573 32.5597 38.7573 32.5006 38.7278H32.471C32.1457 38.6982 31.7908 38.639 31.4654 38.5503C31.3767 38.5207 31.288 38.432 31.2584 38.3433L31.0218 38.2841C31.1401 37.4265 31.081 36.5392 30.9035 35.6815C30.6965 34.8238 30.3416 33.9957 29.8684 33.2564L30.0458 33.0789V33.0493C30.0458 32.9606 30.0754 32.8423 30.1346 32.7832C30.4007 32.5466 30.6669 32.3691 30.9627 32.1917C31.0218 32.1621 31.081 32.1325 31.1401 32.1029C31.2584 32.0438 31.3471 31.9846 31.4654 31.9255C31.495 31.8959 31.5246 31.8959 31.5542 31.8663C31.5837 31.8368 31.5542 31.8367 31.5542 31.8072C31.8203 31.6001 31.8795 31.2452 31.6725 30.9791C31.5837 30.8608 31.4063 30.772 31.2584 30.772C31.1105 30.772 30.9627 30.8312 30.8444 30.9199L30.8148 30.9495C30.7852 30.9791 30.7556 31.0086 30.7261 31.0086C30.6373 31.0974 30.5486 31.1861 30.4895 31.2748C30.4599 31.334 30.4007 31.3635 30.3712 31.3931C30.1641 31.6297 29.8979 31.8663 29.6318 32.0438C29.5726 32.0734 29.5135 32.1029 29.4543 32.1029C29.4247 32.1029 29.3656 32.1029 29.336 32.0734H29.3064L29.0698 32.2212C28.8332 31.9846 28.5671 31.748 28.3305 31.5114C27.2362 30.6537 25.8757 30.1214 24.4857 29.9735L24.4561 29.7369V29.7665C24.3674 29.7073 24.3378 29.6186 24.3082 29.5299C24.3082 29.2046 24.3082 28.8792 24.3674 28.5243V28.4948C24.3674 28.4356 24.397 28.3765 24.397 28.3173C24.4265 28.199 24.4265 28.0807 24.4561 27.9624V27.785C24.4857 27.4892 24.2491 27.1934 23.9533 27.1639C23.7759 27.1343 23.5984 27.223 23.4506 27.3709C23.3323 27.4892 23.2731 27.6371 23.2731 27.785V27.9328C23.2731 28.0511 23.3027 28.1694 23.3323 28.2877C23.3618 28.3469 23.3618 28.406 23.3618 28.4652V28.4948C23.421 28.8201 23.421 29.1454 23.421 29.5003C23.3914 29.589 23.3618 29.6778 23.2731 29.7369V29.7961L23.2435 30.0327C22.9182 30.0622 22.5929 30.1214 22.238 30.1805C20.8479 30.4763 19.5762 31.2157 18.6002 32.2508L18.4228 32.1325H18.3932C18.3636 32.1325 18.334 32.1621 18.2749 32.1621C18.2157 32.1621 18.1566 32.1325 18.0974 32.1029C17.8313 31.8959 17.5651 31.6593 17.3581 31.4227C17.3285 31.3635 17.2693 31.334 17.2398 31.3044C17.151 31.2157 17.0919 31.1269 17.0032 31.0382C16.9736 31.0086 16.944 31.0086 16.9144 30.9791C16.8849 30.9495 16.8849 30.9495 16.8849 30.9495C16.7666 30.8608 16.6187 30.8016 16.4708 30.8016C16.2934 30.8016 16.1455 30.8608 16.0568 31.0086C15.8793 31.2748 15.9385 31.6297 16.1751 31.8368C16.2046 31.8368 16.2046 31.8663 16.2046 31.8663C16.2046 31.8663 16.2638 31.9255 16.2934 31.9255C16.3821 31.9846 16.5004 32.0438 16.6187 32.1029C16.6778 32.1325 16.737 32.1621 16.7961 32.1917C17.0919 32.3691 17.3876 32.5466 17.6242 32.7832C17.6834 32.8423 17.7425 32.9606 17.713 33.0493V33.0198L17.8904 33.1972C17.8608 33.2564 17.8313 33.2859 17.8017 33.3451C16.8849 34.7943 16.5004 36.5096 16.7666 38.1954L16.53 38.2546C16.53 38.2841 16.5004 38.2841 16.5004 38.2841C16.4708 38.3729 16.3821 38.432 16.2934 38.4912C15.968 38.5799 15.6427 38.639 15.2878 38.6686C15.2287 38.6686 15.1695 38.6686 15.1104 38.6982C14.9921 38.6982 14.8738 38.7278 14.7555 38.7278C14.7259 38.7278 14.6963 38.7573 14.6371 38.7573C14.6076 38.7573 14.6076 38.7573 14.578 38.7869C14.2527 38.8461 14.0456 39.1418 14.1048 39.4672C14.1639 39.7333 14.4301 39.9108 14.6963 39.8812C14.7555 39.8812 14.785 39.8812 14.8442 39.8516C14.8738 39.8516 14.8738 39.8516 14.8738 39.8221C14.8738 39.7925 14.9625 39.8221 14.9921 39.8221C15.1104 39.7925 15.2287 39.7333 15.3174 39.7038C15.3765 39.6742 15.4357 39.6446 15.4948 39.6446H15.5244C15.8497 39.5263 16.1455 39.4376 16.5004 39.3784H16.53C16.6187 39.3784 16.7074 39.408 16.7666 39.4672C16.7961 39.4672 16.7961 39.4967 16.7961 39.4967L17.0623 39.4672C17.5059 40.8276 18.334 42.0402 19.4875 42.9274C19.7537 43.1345 19.9903 43.3119 20.286 43.4598L20.1381 43.6668C20.1381 43.6964 20.1677 43.6964 20.1677 43.6964C20.2269 43.7851 20.2269 43.9034 20.1973 43.9922C20.079 44.2879 19.9015 44.5837 19.7241 44.8498V44.8794C19.6945 44.9386 19.6649 44.9681 19.6058 45.0273C19.5466 45.0864 19.4875 45.2047 19.3988 45.323C19.3692 45.3526 19.3692 45.3822 19.3396 45.4118C19.3396 45.4118 19.3396 45.4413 19.31 45.4413C19.1622 45.7371 19.2805 46.092 19.5466 46.2399C19.6058 46.2694 19.6945 46.299 19.7537 46.299C19.9903 46.299 20.1973 46.1511 20.3156 45.9441C20.3156 45.9441 20.3156 45.9145 20.3452 45.9145C20.3452 45.885 20.3747 45.8554 20.4043 45.8258C20.4339 45.7075 20.493 45.6188 20.5226 45.5005L20.5818 45.323C20.6705 44.9977 20.8184 44.702 20.9662 44.4062C21.0254 44.3175 21.1141 44.2583 21.2028 44.2288C21.2324 44.2288 21.2324 44.2288 21.2324 44.1992L21.3507 43.9626C22.1788 44.2879 23.0365 44.4358 23.9238 44.4358C24.4561 44.4358 24.9885 44.3766 25.5208 44.2288C25.8461 44.1696 26.1715 44.0513 26.4672 43.9626L26.5855 44.1696C26.6151 44.1696 26.6151 44.1696 26.6151 44.1992C26.7038 44.2288 26.7926 44.2879 26.8517 44.3766C26.9996 44.6724 27.1475 44.9681 27.2362 45.2935V45.323L27.2953 45.5005C27.3249 45.6188 27.3545 45.7371 27.4136 45.8258C27.4432 45.8554 27.4432 45.885 27.4728 45.9145C27.4728 45.9145 27.4728 45.9441 27.5024 45.9441C27.6207 46.1511 27.8277 46.299 28.0643 46.299C28.153 46.299 28.2122 46.2694 28.3009 46.2399C28.4192 46.1807 28.5375 46.0624 28.5671 45.9145C28.5966 45.7667 28.5966 45.6188 28.5375 45.4709C28.5375 45.4413 28.5079 45.4413 28.5079 45.4413C28.5079 45.4118 28.4783 45.3822 28.4488 45.3526C28.3896 45.2343 28.3305 45.1456 28.2417 45.0569C28.2122 44.9977 28.1826 44.9681 28.1234 44.909V44.8498C27.9164 44.5837 27.7685 44.2879 27.6502 43.9922C27.6207 43.9034 27.6207 43.7851 27.6798 43.6964C27.6798 43.6668 27.7094 43.6668 27.7094 43.6668L27.6207 43.4302C29.129 42.5134 30.2824 41.0938 30.8148 39.408L31.0514 39.4376C31.081 39.4376 31.081 39.408 31.081 39.408C31.1401 39.3489 31.2288 39.3193 31.3176 39.3193H31.3471C31.6725 39.3784 31.9978 39.4672 32.2935 39.5855H32.3231C32.3823 39.615 32.4414 39.6446 32.5006 39.6446C32.6189 39.7038 32.7076 39.7629 32.8259 39.7925C32.8555 39.7925 32.885 39.8221 32.9442 39.8221C32.9738 39.8221 32.9738 39.8221 33.0033 39.8516C33.0625 39.8812 33.0921 39.8812 33.1512 39.8812C33.4174 39.8812 33.654 39.7038 33.7427 39.4672C33.7132 39.1418 33.4765 38.9052 33.2104 38.8461ZM24.6631 37.9292L23.8646 38.3137L23.0661 37.9292L22.8591 37.0716L23.421 36.3618H24.3082L24.8702 37.0716L24.6631 37.9292ZM29.4839 36.0069C29.6318 36.6279 29.6614 37.249 29.6022 37.8701L26.7926 37.0716C26.5264 37.0124 26.3785 36.7462 26.4377 36.4801C26.4672 36.3913 26.4968 36.3322 26.556 36.273L28.7741 34.2619C29.0994 34.7943 29.336 35.3858 29.4839 36.0069ZM27.8868 33.1676L25.4617 34.883C25.2546 35.0013 24.9589 34.9717 24.811 34.7647C24.7519 34.7055 24.7223 34.6464 24.7223 34.5577L24.5448 31.5706C25.8461 31.7185 26.9996 32.2804 27.8868 33.1676ZM22.5337 31.6593L23.1252 31.541L22.9774 34.4985C22.9774 34.7647 22.7408 34.9717 22.4746 34.9717C22.3859 34.9717 22.3267 34.9421 22.238 34.9126L19.7832 33.1676C20.5522 32.4283 21.4986 31.8959 22.5337 31.6593ZM18.9256 34.2619L21.1141 36.2139C21.3211 36.3913 21.3507 36.6871 21.1733 36.8941C21.1141 36.9828 21.055 37.0124 20.9367 37.042L18.0679 37.8701C17.9791 36.6279 18.2749 35.3562 18.9256 34.2619ZM18.4228 39.2601L21.3507 38.7573C21.5873 38.7573 21.8239 38.9052 21.8535 39.1418C21.8831 39.2305 21.8831 39.3488 21.8239 39.4376L20.7001 42.1585C19.6649 41.4783 18.8368 40.4431 18.4228 39.2601ZM25.1363 42.9274C24.7223 43.0162 24.3082 43.0753 23.8646 43.0753C23.2435 43.0753 22.5929 42.957 22.0014 42.7796L23.4506 40.1474C23.5984 39.9699 23.835 39.9108 24.0421 40.0291C24.1308 40.0882 24.1899 40.1474 24.2787 40.2361L25.6983 42.8091C25.5208 42.8387 25.3434 42.8683 25.1363 42.9274ZM28.7445 40.3544C28.3009 41.0642 27.6798 41.6853 26.97 42.1289L25.8166 39.3488C25.7574 39.1122 25.8757 38.8756 26.0828 38.7869C26.1715 38.7573 26.2602 38.7278 26.3489 38.7278L29.3064 39.2305C29.1586 39.6446 28.9811 40.0291 28.7445 40.3544Z" fill="white"/>
<path d="M48.1458 37.5751C48.4711 37.2202 48.7669 36.8653 49.1218 36.5104C49.4471 36.1259 49.7724 35.771 50.0977 35.4161C50.4231 35.0316 50.7188 34.7063 50.985 34.381C51.2512 34.0557 51.5174 33.7599 51.7244 33.5233H55.51C54.741 34.381 54.0017 35.2387 53.2919 36.0372C52.5525 36.8357 51.7835 37.6638 50.9258 38.4919C51.3991 38.9356 51.8427 39.3792 52.2567 39.882C52.7004 40.4143 53.144 40.9467 53.5876 41.5382C54.0017 42.1001 54.4157 42.6916 54.7706 43.2536C55.1255 43.8155 55.4213 44.3478 55.6579 44.821H51.9906C51.754 44.4366 51.4878 44.0521 51.192 43.6084C50.8963 43.1648 50.5709 42.7212 50.2752 42.248C49.9499 41.8044 49.595 41.3607 49.2105 40.9467C48.8852 40.5622 48.5303 40.2073 48.1458 39.9116V44.8506H44.9517V28.6434L48.1458 28.1406V37.5751Z" fill="#1D1D1B"/>
<path d="M66.7781 44.3778C66.0979 44.5553 65.3881 44.7031 64.6782 44.7919C63.791 44.9397 62.8742 44.9989 61.9869 44.9989C61.1588 45.0285 60.3603 44.8806 59.5913 44.6144C58.9998 44.3778 58.497 44.0229 58.083 43.5497C57.6985 43.0469 57.4323 42.485 57.2844 41.8639C57.107 41.1837 57.0479 40.4443 57.0479 39.7345V33.4941H60.242V39.3796C60.242 40.4147 60.3898 41.1541 60.656 41.5977C60.9222 42.0414 61.425 42.278 62.1644 42.278C62.401 42.278 62.6376 42.278 62.9037 42.2484C63.1699 42.2188 63.3769 42.2188 63.584 42.1597V33.4941H66.7781V44.3778Z" fill="#1D1D1B"/>
<path d="M77.011 39.0539C77.011 36.9836 76.242 35.9781 74.7337 35.9781C74.4084 35.9781 74.0831 36.0076 73.7577 36.0964C73.4915 36.1555 73.2254 36.2738 72.9888 36.4217V42.2184C73.1366 42.248 73.3437 42.2776 73.5803 42.3071C73.8169 42.3367 74.0831 42.3367 74.3788 42.3367C75.1478 42.3959 75.8871 42.0705 76.3603 41.4495C76.804 40.7397 77.0406 39.9115 77.011 39.0539ZM80.2643 39.1722C80.2643 40.0003 80.146 40.8284 79.8502 41.6269C79.6136 42.3367 79.2291 42.9578 78.7264 43.4901C78.194 44.0225 77.5729 44.4366 76.8927 44.7027C76.0942 44.9985 75.2661 45.1168 74.4084 45.1168C74.0239 45.1168 73.6099 45.0872 73.1958 45.0576C72.7817 45.0281 72.3677 44.9689 71.9536 44.9393C71.5692 44.8802 71.1847 44.821 70.8002 44.7323C70.4157 44.6732 70.0904 44.5844 69.8242 44.4661V28.6434L73.0183 28.1406V33.7599C73.3732 33.612 73.7577 33.4937 74.1422 33.405C74.5563 33.3163 74.9703 33.2867 75.3844 33.2867C76.1237 33.2867 76.8335 33.405 77.5138 33.7303C78.1053 33.9965 78.6376 34.4106 79.0517 34.9133C79.4953 35.4753 79.8206 36.0964 79.9981 36.7766C80.1755 37.516 80.2643 38.3441 80.2643 39.1722Z" fill="#1D1D1B"/>
<path d="M82.1868 39.2303C82.1572 38.3431 82.3347 37.4558 82.6304 36.6277C82.8966 35.9179 83.3107 35.2968 83.843 34.7349C84.3458 34.2321 84.9077 33.8476 85.5584 33.611C86.209 33.3449 86.8892 33.2266 87.5695 33.2266C89.1665 33.2266 90.4383 33.7293 91.3551 34.7053C92.2719 35.6813 92.7451 37.1305 92.7451 38.9937C92.7451 39.1712 92.7451 39.3782 92.7156 39.6148C92.686 39.8514 92.686 40.0289 92.686 40.2063H85.4401C85.4992 40.8274 85.8245 41.4189 86.3569 41.7738C87.0076 42.1878 87.7765 42.3949 88.5455 42.3653C89.1074 42.3653 89.6989 42.3061 90.2608 42.2174C90.734 42.1287 91.2072 41.9808 91.6509 41.8034L92.0945 44.406C91.8875 44.5243 91.6509 44.5834 91.4142 44.6722C91.0889 44.7609 90.7636 44.8496 90.4383 44.8792C90.0834 44.9383 89.7285 44.9975 89.3144 45.0566C88.9299 45.0862 88.5159 45.1158 88.1018 45.1158C87.185 45.1454 86.2977 44.9975 85.4401 44.6722C84.7303 44.406 84.1092 43.9919 83.5768 43.4596C83.074 42.9272 82.7191 42.2766 82.4825 41.5963C82.3051 40.7978 82.1868 40.0289 82.1868 39.2303ZM89.6989 38.0177C89.6989 37.7516 89.6397 37.4854 89.551 37.2192C89.4919 36.953 89.344 36.746 89.1961 36.539C89.0187 36.332 88.8116 36.1545 88.575 36.0362C88.2793 35.8883 87.9835 35.8292 87.6582 35.8292C87.3329 35.8292 87.0371 35.8883 86.7414 36.0362C86.5048 36.1545 86.2682 36.3024 86.0907 36.5094C85.9133 36.7164 85.7654 36.953 85.6767 37.2192C85.5879 37.4854 85.5288 37.7516 85.4992 38.0177H89.6989Z" fill="#1D1D1B"/>
<path d="M102.032 36.3333C101.736 36.2742 101.411 36.1854 101.026 36.1263C100.612 36.0376 100.198 36.008 99.7841 36.008C99.5475 36.008 99.3109 36.0376 99.0447 36.0671C98.8377 36.0967 98.6306 36.1263 98.4236 36.1854V44.7918H95.2295V34.0856C95.8801 33.849 96.5604 33.6715 97.2406 33.5237C98.0983 33.3166 98.9855 33.2279 99.8432 33.2575C100.05 33.2575 100.257 33.2871 100.464 33.2871C100.701 33.2871 100.937 33.3166 101.204 33.3758C101.44 33.4054 101.677 33.435 101.943 33.4941C102.15 33.5237 102.357 33.5828 102.564 33.6715L102.032 36.3333Z" fill="#1D1D1B"/>
<path d="M104.279 33.879C104.96 33.7015 105.669 33.5537 106.379 33.4354C107.266 33.2875 108.183 33.2283 109.07 33.2283C109.869 33.1988 110.668 33.3466 111.436 33.6128C112.028 33.8198 112.56 34.1747 112.945 34.648C113.329 35.1212 113.595 35.6831 113.743 36.2746C113.921 36.9548 113.98 37.6646 113.98 38.3744V44.7331H110.815V38.7885C110.815 37.7533 110.668 37.0435 110.401 36.5999C110.135 36.1859 109.632 35.9493 108.893 35.9493C108.656 35.9493 108.42 35.9493 108.154 35.9788C107.887 35.9788 107.68 36.0084 107.473 36.038V44.7331H104.279V33.879Z" fill="#1D1D1B"/>
<path d="M116.405 39.2303C116.376 38.3431 116.553 37.4558 116.849 36.6277C117.115 35.9179 117.529 35.2968 118.062 34.7349C118.564 34.2321 119.126 33.8476 119.777 33.611C120.428 33.3449 121.108 33.2266 121.788 33.2266C123.385 33.2266 124.657 33.7293 125.574 34.7053C126.49 35.6813 126.964 37.1305 126.964 39.0233C126.964 39.2008 126.964 39.4078 126.934 39.6444C126.905 39.881 126.905 40.0584 126.905 40.2359H119.659C119.718 40.857 120.043 41.4485 120.575 41.8034C121.226 42.2174 121.995 42.4245 122.764 42.3949C123.326 42.3949 123.917 42.3357 124.479 42.247C124.953 42.1583 125.426 42.0104 125.899 41.8034L126.343 44.406C126.136 44.5243 125.899 44.5834 125.662 44.6722C125.337 44.7609 125.012 44.8496 124.686 44.8792C124.331 44.9383 123.977 44.9975 123.563 45.0566C123.178 45.0862 122.764 45.1158 122.35 45.1158C121.433 45.1454 120.546 44.9975 119.688 44.6722C118.978 44.406 118.357 43.9919 117.825 43.4596C117.322 42.9272 116.967 42.2766 116.731 41.5963C116.494 40.7978 116.376 39.9993 116.405 39.2303ZM123.888 38.0177C123.888 37.7516 123.829 37.4854 123.74 37.2192C123.681 36.953 123.533 36.746 123.385 36.539C123.208 36.332 123.001 36.1545 122.764 36.0362C122.468 35.8883 122.173 35.8292 121.847 35.8292C121.522 35.8292 121.226 35.8883 120.93 36.0362C120.694 36.1545 120.487 36.3024 120.309 36.5094C120.132 36.7164 119.984 36.953 119.895 37.2192C119.806 37.4854 119.747 37.7516 119.718 38.0177H123.888Z" fill="#1D1D1B"/>
<path d="M129.33 30.6844L132.524 30.1816V33.4941H136.369V36.1558H132.524V40.1189C132.494 40.6808 132.613 41.2428 132.879 41.716C133.115 42.1004 133.588 42.3075 134.328 42.3075C134.683 42.3075 135.038 42.2779 135.363 42.2187C135.718 42.1596 136.043 42.0709 136.369 41.9526L136.812 44.4369C136.398 44.6143 135.955 44.7326 135.511 44.8509C134.949 44.9692 134.357 45.0284 133.766 45.0284C133.027 45.058 132.287 44.9397 131.607 44.6735C131.075 44.4665 130.601 44.1116 130.246 43.6975C129.892 43.2539 129.655 42.7215 129.507 42.1596C129.359 41.5089 129.3 40.8287 129.33 40.1781V30.6844Z" fill="#1D1D1B"/>
<path d="M137.995 39.2303C137.966 38.3431 138.143 37.4558 138.439 36.6277C138.705 35.9179 139.119 35.2968 139.652 34.7349C140.154 34.2321 140.716 33.8476 141.367 33.611C142.018 33.3449 142.698 33.2266 143.378 33.2266C144.975 33.2266 146.247 33.7293 147.164 34.7053C148.081 35.6813 148.554 37.1305 148.554 39.0233C148.554 39.2008 148.554 39.4078 148.524 39.6444C148.524 39.881 148.495 40.0584 148.495 40.2359H141.278C141.337 40.857 141.663 41.4485 142.195 41.8034C142.846 42.2174 143.615 42.4245 144.384 42.3949C144.946 42.3949 145.537 42.3357 146.099 42.247C146.572 42.1583 147.045 42.0104 147.489 41.8034L147.933 44.406C147.726 44.5243 147.489 44.5834 147.252 44.6722C146.927 44.7609 146.602 44.8496 146.276 44.8792C145.922 44.9383 145.567 44.9975 145.153 45.0566C144.768 45.0862 144.354 45.1158 143.94 45.1158C143.023 45.1454 142.136 44.9975 141.278 44.6722C140.568 44.406 139.947 43.9919 139.415 43.4596C138.912 42.9272 138.557 42.2766 138.321 41.5963C138.114 40.7978 137.995 39.9993 137.995 39.2303ZM145.478 38.0177C145.478 37.7516 145.419 37.4854 145.33 37.2192C145.271 36.953 145.123 36.746 144.975 36.539C144.798 36.332 144.591 36.1545 144.354 36.0362C144.058 35.8883 143.763 35.8292 143.437 35.8292C143.112 35.8292 142.816 35.8883 142.52 36.0362C142.284 36.1545 142.047 36.3024 141.87 36.5094C141.692 36.7164 141.544 36.953 141.456 37.2192C141.367 37.4854 141.308 37.7516 141.278 38.0177H145.478Z" fill="#1D1D1B"/>
<path d="M154.291 42.4836C154.705 42.5132 155.149 42.454 155.533 42.3061C155.77 42.1878 155.918 41.9217 155.888 41.6555C155.858 41.3597 155.681 41.0936 155.415 41.0048C154.971 40.7387 154.468 40.5021 153.966 40.3542C153.463 40.1767 153.019 39.9697 152.605 39.7627C152.221 39.5852 151.895 39.3486 151.57 39.0529C151.274 38.7571 151.067 38.4318 150.919 38.0473C150.742 37.6037 150.683 37.1305 150.683 36.6573C150.653 35.6813 151.097 34.7349 151.866 34.1434C152.664 33.5223 153.729 33.2266 155.089 33.2266C155.74 33.2266 156.42 33.2857 157.071 33.4336C157.574 33.5223 158.077 33.6406 158.579 33.8181L158.017 36.332C157.603 36.1841 157.219 36.0954 156.805 35.9771C156.332 35.8588 155.829 35.8292 155.356 35.8292C154.35 35.8292 153.847 36.0954 153.847 36.6573C153.847 36.7756 153.877 36.8939 153.906 37.0122C153.966 37.1305 154.054 37.2192 154.173 37.3079C154.291 37.3967 154.468 37.4854 154.675 37.6037C154.882 37.722 155.178 37.8403 155.533 37.9586C156.125 38.1656 156.716 38.4318 157.248 38.7275C157.663 38.9346 158.017 39.2008 158.313 39.5557C158.579 39.8218 158.757 40.1472 158.875 40.5316C158.993 40.9457 159.053 41.3597 159.053 41.7738C159.112 42.7794 158.638 43.7553 157.781 44.3173C156.953 44.8792 155.77 45.1749 154.232 45.1749C153.374 45.2045 152.546 45.1158 151.718 44.9088C151.245 44.7905 150.801 44.6426 150.357 44.4947L150.89 41.8921C151.422 42.0991 151.984 42.2766 152.546 42.3949C153.137 42.4245 153.699 42.4836 154.291 42.4836Z" fill="#1D1D1B"/>
</g>
<defs>
<clipPath id="clip0_116_8625">
<rect width="170" height="72" rx="6" fill="white"/>
</clipPath>
</defs>
</svg>
