<svg width="170" height="72" viewBox="0 0 170 72" fill="none" xmlns="http://www.w3.org/2000/svg">
<g clip-path="url(#clip0_116_8647)">
<rect width="170" height="72" rx="6" fill="#75BAF9" fill-opacity="0.08"/>
<g clip-path="url(#clip1_116_8647)">
<path d="M101.296 30.3271C101.296 39.4881 93.9835 46.9217 84.9577 46.9217C75.9319 46.9217 68.6191 39.4881 68.6191 30.3271C68.6191 21.166 75.932 13.7324 84.9577 13.7324C93.9836 13.7324 101.297 21.166 101.297 30.3271" fill="#D33833"/>
<path d="M69.2911 34.4363C69.2911 34.4363 68.1052 17.1352 84.1672 16.6377L83.0472 14.7793L74.3376 17.6847L71.8473 20.5246L69.6733 24.6602L68.4346 29.4763L68.8036 32.6958" fill="#EF3D3A"/>
<path d="M73.7712 19.0062C70.9121 21.9246 69.1332 25.9425 69.1332 30.3921C69.1332 34.8417 70.9121 38.8595 73.7712 41.7779C76.6437 44.6963 80.5835 46.4893 84.958 46.4893C89.3326 46.4893 93.2723 44.6963 96.1447 41.778C99.004 38.8595 100.783 34.8417 100.783 30.3921C100.783 25.9424 99.004 21.9246 96.1447 19.0062C93.2724 16.1008 89.3326 14.2949 84.958 14.2949C80.5967 14.2949 76.6438 16.0878 73.7712 19.0062ZM73.0466 42.4715C70.003 39.383 68.1187 35.1035 68.1187 30.3921C68.1187 25.6807 70.003 21.4011 73.0466 18.2995C76.0903 15.2109 80.3068 13.2871 84.9581 13.2871C89.6093 13.2871 93.8257 15.2109 96.8695 18.2995C99.9131 21.3881 101.797 25.6675 101.797 30.3921C101.797 35.1034 99.9131 39.383 96.8695 42.4715C93.8257 45.5732 89.6093 47.4839 84.958 47.4839C80.3068 47.4839 76.0903 45.5732 73.0466 42.4715Z" fill="#231F20"/>
<path d="M91.8361 30.4175L89.3457 30.7839L85.9858 31.1635L83.8117 31.2158L81.6903 31.1504L80.0696 30.6532L78.6333 29.1087L77.5133 25.9547L77.263 25.2741L75.7742 24.7769L74.9044 23.3504L74.2852 21.3087L74.9704 19.5159L76.5911 18.9531L77.8955 19.5682L78.5147 20.9294L79.2658 20.8115L79.5161 20.4974L79.2658 19.0709L79.2 17.2779L79.5688 14.8045L79.5557 13.3911L80.6888 11.5851L82.6785 10.1585L86.1571 8.67969L90.0178 9.24235L93.3777 11.6505L94.9326 14.1239L95.9338 15.9169L96.1843 20.3665L95.4332 24.201L94.0628 27.6038L92.7716 29.4229" fill="#F0D6B7"/>
<path d="M89.7277 41.1101L80.8336 41.4765V42.9553L81.5847 48.1511L81.2157 48.5829L74.9964 46.4759L74.5617 45.7299L73.9423 38.7413L72.4798 34.5534L72.1636 33.5588L77.1442 30.1562L78.6991 29.541L80.0694 31.2161L81.2552 32.2632L82.6257 32.695L83.2449 32.8783L83.9959 36.0978L84.5626 36.7783L85.9987 36.281L84.9973 38.2046L90.3996 40.7436L89.7277 41.11" fill="#335061"/>
<path d="M74.9705 19.5429L76.5913 18.9803L77.8957 19.5953L78.5149 20.9564L79.266 20.8387L79.4506 20.0927L79.0815 18.6661L79.4504 15.2635L79.1342 13.4051L80.2542 12.1095L82.6786 10.1987L81.9934 9.26953L78.5676 10.9446L77.1315 12.0571L76.3277 13.7845L75.0891 15.4597L74.7202 17.4359L74.9705 19.5429Z" fill="#6D6B6D"/>
<path d="M77.5268 13.7321C77.5268 13.7321 78.4622 11.4419 82.1911 10.3295C85.92 9.21709 82.3757 9.53113 82.3757 9.53113L78.3303 11.0755L76.7757 12.6197L76.0905 13.8499L77.5268 13.7321ZM75.6557 19.111C75.6557 19.111 74.3512 14.7791 79.3318 14.1641L79.1474 13.4181L75.7216 14.2164L74.7202 17.436L74.9705 19.5428L75.6557 19.111Z" fill="#DCD9D8"/>
<path d="M77.6451 24.8566L78.4619 24.0713C78.4619 24.0713 78.8309 24.1106 78.8968 24.5424C78.9626 24.9744 79.1471 28.8744 81.8219 30.9683C82.0722 31.1646 79.8323 30.6541 79.8323 30.6541L77.8425 27.5656M89.0953 23.6786C89.0953 23.6786 89.2401 21.8072 89.754 21.9512C90.268 22.0951 90.268 22.6054 90.268 22.6054C90.268 22.6054 89.0294 23.3907 89.0953 23.6786ZM94.2604 16.8211C94.2604 16.8211 93.2325 17.0304 93.1404 17.9335C93.0481 18.8364 94.2604 18.1167 94.4448 18.0512M86.7367 16.8865C86.7367 16.8865 85.3663 17.0697 85.3663 17.9335C85.3663 18.7971 86.9212 18.7317 87.3559 18.3653M78.2774 20.9042C78.2774 20.9042 75.919 19.4777 75.6687 20.8388C75.4184 22.1998 74.8649 23.1813 76.0376 24.6078L75.2338 24.3592L74.4829 22.4485L74.2324 20.5901L75.6687 19.1113L77.2893 19.2291L78.2248 19.975L78.2776 20.9042M79.3975 17.0043C79.3975 17.0043 80.4515 11.5599 85.8012 10.5129C90.202 9.64916 92.521 10.6963 93.3907 11.6908C93.3907 11.6908 89.4642 7.05796 85.7352 8.47134C82.0064 9.89791 79.2657 12.4891 79.3315 14.1512C79.437 17.0041 79.3974 17.0041 79.3974 17.0041M93.8255 12.3059C93.8255 12.3059 92.0204 12.2405 91.9544 13.8501C91.9544 13.8501 91.9544 14.0989 92.0731 14.3475C92.0731 14.3475 93.5093 12.7377 94.3789 13.6015" fill="#F7E4CD"/>
<path d="M85.9328 14.5178C85.9328 14.5178 85.6166 12.0575 83.5084 13.4839C82.138 14.4131 82.2697 15.7087 82.507 15.9574C82.7573 16.2061 82.6915 16.7033 82.8759 16.3632C83.0604 16.0229 83.0076 14.9105 83.6928 14.5963C84.3648 14.2823 85.498 13.9421 85.9328 14.5178Z" fill="#F7E4CD"/>
<path d="M80.0828 31.216L74.2323 33.807C74.2323 33.807 76.6568 43.3869 75.4181 46.3577L74.5486 46.0437L74.4827 42.3923L72.862 35.4824L72.1768 33.5715L78.2774 29.4883L80.0826 31.2158M80.6756 36.5161L81.5057 37.524V41.2276H80.5176C80.5176 41.2276 80.399 38.6364 80.399 38.3223C80.399 38.0081 80.5176 36.8957 80.5176 36.8957M80.7021 41.7903L77.8955 41.9081L78.6993 42.4709L80.6888 42.7851" fill="#49728B"/>
<path d="M90.2814 41.1767L92.5871 41.1113L93.1537 46.7911L90.7952 47.1053L90.2812 41.1766" fill="#335061"/>
<path d="M90.9004 41.1756L94.3789 40.9922C94.3789 40.9922 95.8152 37.4064 95.8152 37.2232C95.8152 37.0399 97.0537 32.0276 97.0537 32.0276L94.2472 29.1222L93.6805 28.625L92.1917 30.1038V35.8491L90.9004 41.1756Z" fill="#335061"/>
<path d="M92.4553 40.7442L90.2812 41.1762L90.5976 42.9037C91.4012 43.2701 92.7716 42.2886 92.7716 42.2886M92.5212 29.9212L96.8826 33.1406L97.0012 31.6617L93.7072 28.6387L92.5213 29.9212" fill="#49728B"/>
<path d="M82.8632 53.3463L81.5719 48.1507L80.9262 44.3161L80.8208 41.4761L86.6578 41.1621H90.2814L89.952 47.6533L90.5185 52.6657L90.4527 53.5949L85.7223 53.9614L82.8632 53.3463Z" fill="white"/>
<path d="M89.4773 41.1107C89.4773 41.1107 89.1611 47.5366 90.0967 52.117C90.0967 52.117 88.2256 53.2948 85.498 53.5958L90.7292 53.4126L91.3484 53.0462L90.5974 42.9167L90.3997 40.7441" fill="#DCD9D8"/>
<path d="M93.2458 46.3063L95.6702 45.6258L100.269 45.3771L100.954 43.2701L99.7154 39.6187L98.2792 39.4355L96.2896 40.0507L94.3921 40.9799L93.3776 40.7966L92.5869 41.1107" fill="white"/>
<path d="M93.2065 45.0634C93.2065 45.0634 94.8273 44.3174 95.0776 44.3828L94.3924 40.9802L95.1962 40.666C95.1962 40.666 95.7628 43.8856 95.7628 44.252C95.7628 44.252 99.2413 44.4352 99.5575 44.4352C99.5575 44.4352 100.309 43.0086 100.124 41.5298L100.809 43.506L100.875 44.6184L99.8738 46.0972L98.7538 46.3459L96.8828 46.2805L96.2634 45.4821L94.0893 45.7962L93.4041 46.0449" fill="#DCD9D8"/>
<path d="M90.7553 40.6787L89.3849 37.2237L87.9487 35.182C87.9487 35.182 88.265 34.3184 88.6998 34.3184H90.1361L91.5065 34.8156L91.3878 37.1059L90.7553 40.6787Z" fill="white"/>
<path d="M91.0324 39.5003C91.0324 39.5003 89.2931 36.1631 89.2931 35.6657C89.2931 35.6657 89.6094 34.9197 90.0442 35.103C90.4791 35.2862 91.4146 35.7836 91.4146 35.7836V34.6057L89.2931 34.1738L87.8569 34.357L90.2813 40.063L90.782 40.1285" fill="#DCD9D8"/>
<path d="M83.4161 31.3466L81.6901 31.1633L80.0693 30.666V31.2288L80.8599 32.0926L83.3502 33.205" fill="white"/>
<path d="M80.6361 31.5312C80.6361 31.5312 82.5598 32.3296 83.1924 32.1464L83.2581 32.8924L81.519 32.5259L80.4648 31.7799L80.6361 31.5312Z" fill="#DCD9D8"/>
<path d="M93.246 34.527C92.1919 34.5007 91.2299 34.3699 90.3999 34.1343C90.4526 33.7941 90.3471 33.467 90.4394 33.2182C90.6766 33.0481 91.0586 33.0481 91.4144 33.0089C91.1114 32.8649 90.6766 32.7994 90.334 32.8911C90.3207 32.6555 90.2154 32.5115 90.1494 32.3283C90.7425 32.1189 92.1392 30.7448 92.9297 31.1897C93.3119 31.4122 93.47 32.6423 93.4963 33.2575C93.5226 33.7547 93.4436 34.2521 93.246 34.527Z" fill="#D33833"/>
<path d="M93.246 34.527C92.1919 34.5007 91.2299 34.3699 90.3999 34.1343C90.4526 33.7941 90.3471 33.467 90.4394 33.2182C90.6766 33.0481 91.0586 33.0481 91.4144 33.0089C91.1114 32.8649 90.6766 32.7994 90.334 32.8911C90.3207 32.6555 90.2154 32.5115 90.1494 32.3283C90.7425 32.1189 92.1392 30.7448 92.9297 31.1897C93.3119 31.4122 93.47 32.6423 93.4963 33.2575C93.5226 33.7547 93.4436 34.2521 93.246 34.527Z" fill="black" stroke="#D33833" stroke-width="11.9904"/>
<path d="M88.1994 32.8135C88.1994 32.8921 88.1994 32.9704 88.1861 33.049C87.8567 33.2585 87.3296 33.2585 86.9607 33.4417C87.4879 33.4678 87.9095 33.5986 88.2784 33.7688C88.2651 33.9652 88.2651 34.1746 88.2521 34.3709C87.6459 34.7766 87.0925 35.3917 86.381 35.7843C86.0384 35.9676 84.8657 36.4387 84.51 36.3471C84.3122 36.2947 84.286 36.0461 84.2069 35.8105C84.0356 35.3133 83.6403 34.5017 83.6007 33.7427C83.5612 32.7873 83.4559 31.1776 84.4967 31.3738C85.3399 31.5309 86.315 31.9105 86.9607 32.2639C87.3691 32.4994 87.5932 32.7611 88.1994 32.8135Z" fill="#D33833"/>
<path d="M88.1994 32.8135C88.1994 32.8921 88.1994 32.9704 88.1861 33.049C87.8567 33.2585 87.3296 33.2585 86.9607 33.4417C87.4879 33.4678 87.9095 33.5986 88.2784 33.7688C88.2651 33.9652 88.2651 34.1746 88.2521 34.3709C87.6459 34.7766 87.0925 35.3917 86.381 35.7843C86.0384 35.9676 84.8657 36.4387 84.51 36.3471C84.3122 36.2947 84.286 36.0461 84.2069 35.8105C84.0356 35.3133 83.6403 34.5017 83.6007 33.7427C83.5612 32.7873 83.4559 31.1776 84.4967 31.3738C85.3399 31.5309 86.315 31.9105 86.9607 32.2639C87.3691 32.4994 87.5932 32.7611 88.1994 32.8135Z" fill="black" stroke="#D33833" stroke-width="11.9904"/>
<path d="M88.7922 33.9519C88.6999 33.4282 88.5945 33.2845 88.634 32.8263C90.0439 31.8971 90.2944 34.423 88.7922 33.9519Z" fill="#D33833"/>
<path d="M88.7922 33.9519C88.6999 33.4282 88.5945 33.2845 88.634 32.8263C90.0439 31.8971 90.2944 34.423 88.7922 33.9519Z" fill="black" stroke="#D33833" stroke-width="11.9904"/>
<path d="M90.8214 34.3711C90.8214 34.3711 90.3867 33.7559 90.7028 33.5727C91.0192 33.3895 91.3222 33.5727 91.5066 33.2587C91.6912 32.9445 91.5066 32.7614 91.5725 32.3949C91.6384 32.0285 91.9414 31.9631 92.2577 31.8977C92.5739 31.8321 93.4436 31.7143 93.5621 32.0154L93.1932 30.9029L92.4422 30.6543L90.0836 32.0154L89.965 32.696V34.057M84.286 36.4127C84.207 35.4442 84.128 34.4889 84.0489 33.5204C83.9171 32.0809 84.3915 32.3294 85.6563 32.3294C85.854 32.3294 86.8422 32.552 86.9082 32.696C87.2508 33.3895 86.3415 33.2324 87.3033 33.7559C88.1071 34.1879 89.5434 33.4943 89.214 32.5127C89.0294 32.2902 88.2653 32.4473 87.9886 32.3032L86.526 31.5574C85.9068 31.2432 84.4836 30.7721 83.8248 31.2171C82.1514 32.3425 83.9303 35.1694 84.5232 36.3473" fill="#EF3D3A"/>
<path d="M85.9332 14.518C84.2335 14.1254 83.3903 15.2247 82.8763 16.3632C82.4152 16.2586 82.5996 15.6304 82.7183 15.3164C83.0212 14.4919 84.2468 13.3794 85.248 13.5365C85.6696 13.5888 86.2494 13.9815 85.9332 14.518ZM94.1948 16.4286H94.2738C94.656 17.2139 94.9853 18.0516 95.4729 18.7583C95.1436 19.5173 93.0221 20.1717 93.0484 18.8368C93.5096 18.6405 94.3002 18.7975 94.7087 18.5358C94.4715 17.8945 94.1421 17.3446 94.1948 16.4286ZM86.7897 16.455C87.1586 17.1224 87.2771 17.816 87.791 18.3134C88.0283 18.5358 88.4762 18.8106 88.2523 19.4387C88.1996 19.5828 87.8174 19.91 87.5934 19.9754C86.7897 20.211 84.9054 20.0278 85.5379 19.02C86.2098 19.0462 87.1059 19.4519 87.6067 18.9676C87.2245 18.3656 86.5393 17.1616 86.7897 16.455ZM93.8918 23.1816C92.6795 23.9539 91.3222 24.8046 89.3196 24.6082C88.898 24.2418 88.7267 23.4172 89.1483 22.8808C89.359 23.2472 89.2273 23.9278 89.8335 24.0324C90.9666 24.2287 92.2842 23.3387 93.1011 23.0379C93.6018 22.1871 93.0617 21.8862 92.6005 21.3364C91.665 20.224 90.4264 18.8368 90.4659 17.1748C90.848 16.8999 90.8743 17.5935 90.927 17.7113C91.4145 18.8368 92.6401 20.2895 93.5227 21.258C93.7468 21.4935 94.1025 21.7291 94.1421 21.8862C94.2607 22.331 93.8391 22.8805 93.8918 23.1816ZM77.8428 22.3703C77.4608 22.1478 77.3686 21.2056 76.9206 21.1793C76.2749 21.1402 76.3935 22.4097 76.3935 23.1555C75.9588 22.763 75.8796 21.5327 76.1959 20.9046C75.827 20.7213 75.6687 21.1009 75.458 21.2317C75.7347 19.3341 78.2645 20.3549 77.8428 22.3703ZM94.656 23.98C94.0894 25.0532 93.2856 26.231 91.6254 26.2703C91.5858 25.9301 91.5595 25.3935 91.6254 25.1841C92.9035 25.0532 93.694 24.4119 94.656 23.98ZM86.6975 24.6736C87.7516 25.2234 89.7016 25.2888 91.1511 25.2495C91.2301 25.5636 91.2301 25.9562 91.2301 26.3358C89.3723 26.4142 87.1849 25.9562 86.6975 24.6736ZM86.4999 25.6945C87.2377 27.5266 89.7543 27.3173 91.8757 27.265C91.7836 27.5005 91.5858 27.7884 91.3224 27.88C90.6372 28.1548 88.7661 28.3643 87.8174 27.8669C87.2245 27.5529 86.8292 26.833 86.4999 26.4142C86.3549 26.218 85.5643 25.7075 86.4999 25.6945Z" fill="#231F20"/>
<path d="M93.7991 35.7849C92.9426 37.2506 92.1127 38.7557 91.0981 40.0382C91.5196 38.795 91.7041 36.701 91.7701 35.1044C92.666 34.6855 93.4303 35.1958 93.7991 35.7849Z" fill="#81B0C4"/>
<path d="M98.4244 41.0449C97.4625 41.2412 96.7905 42.1704 95.8418 42.105C96.3689 41.3851 97.2648 41.071 98.4244 41.0449ZM98.846 42.5368C98.0555 42.6154 97.1331 42.7462 96.3426 42.6808C96.7246 42.105 98.174 42.3143 98.846 42.5368ZM99.1227 43.8325C98.2399 43.8456 97.1462 43.8325 96.303 43.767C96.8036 43.2304 98.5561 43.5707 99.1227 43.8325Z" fill="#231F20"/>
<path d="M92.139 47.3669C92.2707 48.4663 92.7056 49.5788 92.6529 50.7828C92.1653 50.9397 91.8887 51.0837 91.2298 51.0837C91.1903 50.0629 91.0453 48.4925 91.0849 47.511C91.4011 47.5371 91.8754 47.2885 92.139 47.3669Z" fill="#DCD9D8"/>
<path d="M90.7159 31.1388C90.2679 31.4266 89.899 31.7799 89.4641 32.0941C88.5154 32.1465 88.0015 32.0287 87.3164 31.4921C87.3296 31.4528 87.3954 31.4659 87.3954 31.4135C88.41 31.8586 89.7012 31.2305 90.7159 31.1388Z" fill="#F0D6B7"/>
<path d="M85.4189 37.9832C85.6957 36.7922 86.7894 36.1641 87.7775 35.5098C88.792 36.7923 89.4114 38.4413 90.0966 40.0378C88.4758 39.5536 86.8288 38.7815 85.4189 37.9832Z" fill="#81B0C4"/>
<path d="M91.0852 47.5234C91.0456 48.505 91.1774 50.0624 91.2301 51.0962C91.889 51.0962 92.1656 50.9523 92.6532 50.7952C92.7059 49.5911 92.271 48.4787 92.1393 47.3794C91.8757 47.2878 91.4014 47.5365 91.0852 47.5234ZM80.913 41.9745C81.3479 45.9136 81.9671 49.2115 83.1134 52.7059C85.6565 53.478 88.7134 53.5435 90.9666 52.8498C90.5582 50.8868 90.7295 48.4919 90.4923 46.3848C90.3077 44.8012 90.4 43.2177 90.1497 41.6079C87.4221 41.0453 83.5747 41.4771 80.913 41.9745ZM90.7953 41.6342C90.7689 43.3224 90.8743 44.9975 91.0062 46.6857C91.6648 46.5942 92.0997 46.5288 92.7059 46.3848C92.5082 44.7619 92.5346 42.9167 92.1262 41.4771C91.665 41.4903 91.2564 41.4772 90.7953 41.6342ZM94.1025 41.3593C93.7863 41.2939 93.4306 41.3593 93.1407 41.3593C93.2856 42.7335 93.615 44.2516 93.7336 45.7043C94.1948 45.7174 94.4451 45.4949 94.8273 45.4294C94.8536 44.16 94.7219 42.4063 94.1025 41.3593ZM99.1228 45.9136C100.098 45.6781 100.704 44.5002 100.427 43.2831C100.243 42.4717 99.9265 40.9275 99.5707 40.4039C99.3204 40.0244 98.622 39.514 98.0555 39.8673C97.1463 40.4432 95.552 40.6133 94.8932 41.3069C95.2225 42.4063 95.3279 43.8983 95.4597 45.2854C96.5929 45.351 97.9764 44.9715 98.9252 45.3771C98.2662 45.5865 97.423 45.5865 96.8564 45.9006C97.3307 46.1231 98.4113 46.0838 99.1228 45.9136ZM90.0838 40.0375C89.3986 38.4409 88.7794 36.7919 87.7647 35.5094C86.7765 36.1636 85.6961 36.7919 85.4062 37.9828C86.8292 38.7812 88.4764 39.5533 90.0838 40.0375ZM91.7703 35.1037C91.7044 36.7003 91.52 38.7942 91.0984 40.0375C92.1129 38.7419 92.9431 37.2499 93.7995 35.7841C93.4306 35.1952 92.6664 34.6848 91.7704 35.1035L91.7703 35.1037ZM89.8598 34.4363C89.4776 34.3969 89.1483 34.8812 88.6475 34.6717C88.5289 34.8026 88.4235 34.9335 88.3049 35.0644C89.4118 36.3992 89.9257 38.2839 90.7822 39.8412C91.2434 38.3363 91.1906 36.7003 91.2961 35.0644C90.6636 35.0905 90.3078 34.4756 89.8598 34.4363ZM88.6344 32.8264C88.5948 33.2845 88.7002 33.4285 88.7924 33.952C90.2946 34.4231 90.0442 31.8972 88.6344 32.8264ZM86.9609 32.2768C86.3153 31.9233 85.3403 31.5438 84.497 31.3869C83.4561 31.1905 83.5614 32.8003 83.601 33.7557C83.6406 34.5146 84.0359 35.313 84.2072 35.8234C84.2862 36.059 84.3125 36.3076 84.5102 36.36C84.866 36.4386 86.0518 35.9805 86.3813 35.7972C87.0928 35.4177 87.6461 34.8027 88.2523 34.3838C88.2655 34.1875 88.2655 33.9781 88.2786 33.7818C87.9097 33.5985 87.5013 33.4809 86.9609 33.4547C87.3168 33.2714 87.857 33.2714 88.1863 33.0621C88.1863 32.9835 88.1863 32.905 88.1996 32.8264C87.5934 32.761 87.3694 32.4993 86.9609 32.2768ZM80.7681 31.1644C80.2279 31.714 82.2833 32.4469 82.9291 32.4862C82.9291 32.1459 83.1267 31.8188 83.0871 31.5701C82.3097 31.4393 81.2952 31.5308 80.7681 31.1644ZM87.4091 31.413C87.4091 31.4654 87.3431 31.4523 87.33 31.4916C88.0283 32.0282 88.5421 32.1458 89.4776 32.0936C89.8994 31.7926 90.2814 31.4262 90.7295 31.1381C89.7016 31.2298 88.4105 31.858 87.4091 31.413ZM93.4965 33.2453C93.4702 32.6432 93.3119 31.4 92.9298 31.1774C92.1393 30.7194 90.7426 32.1066 90.1497 32.3161C90.2155 32.4993 90.321 32.6432 90.3341 32.8788C90.69 32.7872 91.1115 32.8526 91.4145 32.9965C91.0588 33.0358 90.6767 33.0358 90.4396 33.206C90.3604 33.4546 90.4659 33.7818 90.4 34.1221C91.2301 34.3577 92.192 34.4755 93.2461 34.5146C93.4437 34.253 93.5227 33.7556 93.4965 33.2453ZM79.8589 31.6879C79.6876 31.5701 78.5413 30.0912 78.3832 30.1566C76.3145 30.9681 74.3776 32.3685 72.6514 33.7032C74.2985 37.2238 74.9705 41.5294 75.0891 45.6781C76.9734 46.5549 78.6335 47.8244 81.2029 47.9552C80.8999 45.8745 80.6364 44.0029 80.4651 42.0398C79.8195 41.765 78.8971 42.0529 78.291 41.9613C78.291 41.2415 79.2133 41.6472 79.2923 41.163C79.3451 40.7965 78.7784 40.7704 78.9629 40.1945C79.4373 40.3647 79.6876 40.7442 80.1884 40.8882C80.6496 39.8936 80.1884 38.1268 80.2542 37.2892C80.2675 37.1322 80.3332 36.4254 80.689 36.5432C81.0053 36.6479 80.6758 38.4409 80.7023 39.226C80.7286 39.959 80.61 40.6526 80.913 41.1107C83.3903 40.7704 85.9069 40.5609 88.5948 40.4825C88.0019 40.2338 87.3035 39.9983 86.5393 39.5663C86.1177 39.3308 84.8133 38.8466 84.6947 38.4539C84.497 37.8257 85.1953 37.4986 85.3139 36.9619C84.0622 37.6425 83.825 36.3077 83.522 35.3784C83.2584 34.5277 83.1004 33.8866 83.0345 33.4022C81.9408 32.8526 80.7813 32.3422 79.8589 31.6879ZM92.4028 30.3267C94.129 29.5024 94.4451 33.4285 93.7599 34.698C93.8654 35.0774 94.2211 35.2215 94.3661 35.5616C93.4042 37.2761 92.337 38.8727 91.3487 40.5609C92.0735 40.1029 93.1276 40.4825 93.9839 40.1422C94.3003 40.0244 94.5243 39.3047 94.7614 38.7288C95.4201 37.1583 96.1053 35.169 96.4085 33.6772C96.4743 33.337 96.6719 32.5908 96.6192 32.2898C96.5402 31.7402 95.8023 31.3345 95.4201 31.0073C94.7219 30.3791 94.287 29.8427 93.549 29.2536C93.2724 29.6856 92.6399 29.9734 92.4028 30.3269V30.3267ZM75.9192 15.1325C75.1023 16.0356 75.2736 17.7108 75.3659 18.9147C76.8547 17.9856 78.8181 18.9933 78.8048 20.5638C79.5163 20.5506 79.0684 19.6869 78.9367 19.1241C78.5149 17.305 79.6482 15.3419 78.9892 13.6799C77.7112 13.7845 76.6703 14.2948 75.9192 15.1325ZM81.7958 9.91078C79.938 10.4343 77.5531 11.7822 76.7889 13.4442C77.3818 13.3527 77.7903 13.0648 78.37 13.0255C78.5941 13.0124 78.8839 13.1171 79.1343 13.0517C79.6349 12.9209 80.0698 11.7953 80.4518 11.3765C80.8209 10.9708 81.2688 10.7876 81.5719 10.4212C81.7695 10.3295 82.0593 10.3295 82.0726 10.0416C81.9935 9.94995 81.9013 9.88467 81.7958 9.91078ZM91.4804 10.408C89.5436 9.32187 86.2758 8.51046 84.2203 9.53119C82.56 10.3557 80.3202 11.7167 79.5559 13.4313C80.2674 15.0932 79.3451 16.6113 79.2791 18.2995C79.2528 19.2026 79.7009 19.9749 79.7403 20.9564C79.49 21.3621 78.7521 21.4013 78.2383 21.3752C78.067 20.5113 77.764 19.5429 76.8679 19.4382C75.603 19.2943 74.6675 20.3413 74.6148 21.4275C74.5489 22.7101 75.603 24.8302 77.105 24.6863C77.6848 24.6339 77.8298 24.058 78.4622 24.058C78.8048 24.7386 77.9353 24.9479 77.843 25.4321C77.8165 25.5631 77.9088 26.0473 77.9747 26.2828C78.2514 27.3952 78.8575 28.8479 79.4504 29.6986C80.2147 30.7848 81.7037 30.9419 83.3111 31.0466C83.601 30.4315 84.6551 30.4838 85.3402 30.6409C84.5102 30.3138 83.746 29.5285 83.1135 28.8349C82.3887 28.0365 81.6509 27.1859 81.6114 26.1389C82.9949 28.0365 84.1281 29.6986 86.6316 30.5363C88.5289 31.1644 90.7426 30.2482 92.2052 29.2275C92.8112 28.8086 93.167 28.1282 93.6019 27.5261C95.2094 25.2228 95.9604 21.9509 95.8023 18.7708C95.7364 17.4621 95.7364 16.1533 95.2884 15.2765C94.8273 14.3604 93.2593 13.5228 92.3369 14.3604C92.1656 13.4574 93.1011 12.9077 94.1947 13.2349C93.4174 12.2272 92.6005 11.0362 91.4804 10.408ZM95.0908 39.9983C96.6061 39.2523 99.4258 37.9959 100.361 39.9983C100.717 40.7441 101.126 41.9875 101.297 42.7596C101.547 43.8329 101.02 46.11 99.9001 46.4632C98.9119 46.7774 97.7656 46.7643 96.5798 46.5288C96.4348 46.411 96.2899 46.2146 96.1713 46.0052C95.3281 45.979 94.5243 46.0446 93.8654 46.3979C93.9312 47.026 93.5096 47.1177 93.1011 47.2487C92.8112 48.4133 93.6941 49.9314 93.4833 50.9784C93.3383 51.7374 92.4028 51.8552 91.7177 51.986C91.6913 52.4049 91.744 52.7583 91.7967 53.1116C91.6387 53.6875 90.9402 54.0146 90.2683 54.0932C88.0679 54.3549 84.7343 54.4727 82.626 53.7136C82.033 52.2741 81.5719 50.5335 81.0843 48.8976C79.0288 49.12 77.3555 48.0206 75.7875 47.2878C75.2473 47.0392 74.4962 46.8952 74.2853 46.4634C74.0877 46.0446 74.1667 45.2462 74.114 44.5002C73.9954 42.5764 73.8769 40.718 73.3762 38.7549C73.1522 37.865 72.7437 37.0929 72.467 36.2423C72.2035 35.457 71.7555 34.4755 71.6369 33.6902C71.4656 32.5255 72.5724 32.46 73.2708 31.9496C74.3645 31.1644 75.2208 30.7324 76.4067 30.0257C76.7626 29.8164 77.8165 29.2929 77.9351 29.0442C78.1724 28.5601 77.5268 27.8796 77.3555 27.5C77.0788 26.898 76.9337 26.3876 76.8943 25.7985C75.9061 25.6416 75.1418 25.0527 74.6939 24.3983C73.9427 23.299 73.4157 21.2705 74.0746 19.7393C74.1273 19.6215 74.3776 19.3728 74.4172 19.1896C74.4962 18.8232 74.2722 18.3388 74.259 17.9463C74.1932 15.9439 74.6016 14.2163 75.9588 13.6144C76.5121 11.4289 78.4885 10.7091 80.3465 9.62286C81.0449 9.21715 81.8091 8.95547 82.5996 8.66741C85.4325 7.63362 89.7939 7.82988 92.1525 9.59661C93.1539 10.3426 94.7482 11.9261 95.3148 13.0778C96.83 16.101 96.7115 21.1657 95.6574 24.8564C95.5124 25.3536 95.3148 26.0734 95.0249 26.6755C94.8273 27.0943 94.208 27.9187 94.2738 28.2851C94.353 28.6647 95.697 29.6724 95.9869 29.9473C96.5008 30.4445 97.4889 31.099 97.5679 31.7272C97.6602 32.3946 97.2781 33.3107 97.0805 33.952C96.4479 36.0983 95.8155 38.0745 95.0908 39.9983Z" fill="#231F20"/>
<path d="M85.0108 25.1318C85.0898 25.027 85.5377 24.857 86.1702 25.158C86.1702 25.158 85.4192 25.2758 85.485 26.5192L85.1688 26.4536C85.1821 26.4668 84.8527 25.3412 85.0108 25.1318Z" fill="#F7E4CD"/>
<path d="M90.4655 35.7583C90.4655 35.9415 90.3075 36.0985 90.1229 36.0985C89.9384 36.0985 89.7803 35.9415 89.7803 35.7583C89.7803 35.5749 89.9384 35.418 90.1229 35.418C90.3206 35.418 90.4655 35.5749 90.4655 35.7583ZM90.8081 37.3418C90.8081 37.5251 90.6501 37.6821 90.4655 37.6821C90.281 37.6821 90.1229 37.5251 90.1229 37.3418C90.1229 37.1584 90.281 37.0015 90.4655 37.0015C90.6632 37.0015 90.8081 37.1455 90.8081 37.3418Z" fill="#1D1919"/>
<path d="M72.8622 57.3657C72.7567 57.3789 72.6646 57.3918 72.5854 57.405C72.5064 57.4181 72.4274 57.4312 72.322 57.4574C72.2034 57.4835 72.1374 57.5359 72.1111 57.6144C72.0848 57.693 72.0584 57.7713 72.0584 57.8762V61.0693C72.0584 61.3501 71.9953 61.6273 71.8739 61.8809C71.7554 62.1295 71.5972 62.3258 71.3865 62.4959C71.1756 62.6529 70.9384 62.7838 70.675 62.8623C70.4114 62.9409 70.1346 62.9933 69.8447 62.9933C69.3308 62.9933 68.9225 62.8755 68.6062 62.6267C68.29 62.3781 68.1318 62.0509 68.1318 61.6191C68.1318 61.3704 68.1977 61.161 68.3427 60.9908C68.4876 60.8207 68.6853 60.7422 68.9356 60.7422C69.1728 60.7422 69.3572 60.8076 69.5023 60.9517C69.6471 61.0956 69.713 61.2657 69.713 61.4621C69.713 61.6323 69.6471 61.8024 69.5286 61.9462C69.41 62.0902 69.2651 62.2342 69.1069 62.352V62.4044C69.1332 62.4566 69.1859 62.509 69.265 62.5483C69.3441 62.5876 69.4363 62.6006 69.5154 62.6006C69.8447 62.6006 70.1083 62.4828 70.2928 62.2471C70.4774 62.0117 70.5695 61.6584 70.5695 61.1872V57.9153C70.5695 57.8238 70.5562 57.7321 70.5299 57.6667C70.5036 57.6013 70.4245 57.5489 70.3059 57.4966C70.2269 57.4574 70.1215 57.4312 70.0029 57.405C69.8843 57.3788 69.7921 57.3657 69.713 57.3527V57.0385H72.8226V57.3657H72.8622ZM77.7374 61.8678C77.6452 62.0248 77.5267 62.1687 77.3948 62.3127C77.2631 62.4566 77.1049 62.5613 76.9336 62.666C76.7492 62.7708 76.5647 62.8494 76.3803 62.9016C76.1957 62.954 75.9718 62.9801 75.7346 62.9801C75.3262 62.9801 74.9835 62.9279 74.6805 62.8099C74.3906 62.6922 74.1403 62.5483 73.9559 62.352C73.7581 62.1556 73.6264 61.9331 73.521 61.6714C73.4249 61.3979 73.3759 61.1104 73.3761 60.8207C73.3761 60.546 73.4288 60.2711 73.5341 60.0225C73.6396 59.7737 73.7846 59.5382 73.969 59.3419C74.1535 59.1456 74.3906 58.9884 74.6805 58.8708C74.9816 58.7486 75.3039 58.6863 75.6292 58.6874C76.0114 58.6874 76.3277 58.7399 76.5779 58.8315C76.8283 58.9231 77.0259 59.054 77.1841 59.2111C77.3421 59.368 77.4475 59.5514 77.5267 59.7607C77.5925 59.9701 77.632 60.1926 77.632 60.4281V60.6899H74.8518C74.8518 61.2527 74.9573 61.6714 75.1811 61.9594C75.392 62.2473 75.7478 62.3912 76.209 62.3912C76.4726 62.3912 76.6964 62.3258 76.9073 62.1819C77.1178 62.0403 77.2972 61.8577 77.4344 61.6452L77.7374 61.8677V61.8678ZM76.1695 60.3103C76.1695 60.1532 76.1564 59.983 76.1432 59.8129C76.1299 59.6428 76.1037 59.4989 76.0509 59.3941C75.9982 59.2633 75.9456 59.1716 75.8533 59.1062C75.7743 59.0408 75.6688 59.0145 75.5503 59.0145C75.3394 59.0145 75.1681 59.1193 75.0497 59.3287C74.9178 59.538 74.8518 59.8783 74.8388 60.3364L76.1695 60.3103ZM83.5482 62.8362H81.071V62.5352C81.1238 62.5352 81.1896 62.522 81.2556 62.509C81.3346 62.4959 81.3872 62.4828 81.4269 62.4698C81.4795 62.4435 81.5191 62.3912 81.5454 62.3388C81.5718 62.2864 81.5849 62.1949 81.5849 62.0902V60.1796C81.5849 59.9048 81.5322 59.6954 81.4269 59.5515C81.3213 59.4075 81.1765 59.342 80.9656 59.342C80.8602 59.342 80.7549 59.3552 80.6626 59.3944C80.5703 59.4205 80.478 59.4729 80.3858 59.5383C80.3068 59.5907 80.2409 59.643 80.1882 59.7084C80.1355 59.7608 80.0959 59.8132 80.0696 59.8654V62.051C80.0696 62.1427 80.0829 62.2212 80.1092 62.2866C80.1355 62.3521 80.1882 62.4045 80.2409 62.4306C80.2805 62.4567 80.3331 62.483 80.399 62.496L80.5967 62.5353V62.8363H78.0932V62.5353C78.159 62.5353 78.2249 62.5221 78.304 62.5091C78.3699 62.496 78.4358 62.483 78.4885 62.4699C78.5808 62.4437 78.6334 62.3913 78.6731 62.3259C78.6994 62.2605 78.7256 62.182 78.7256 62.0773V59.6954C78.7256 59.6169 78.6994 59.5252 78.6598 59.4468C78.6202 59.3682 78.5543 59.3027 78.4885 59.2504C78.4358 59.2243 78.383 59.185 78.3039 59.1719C78.2233 59.1451 78.1387 59.1318 78.0537 59.1326V58.8316L80.0169 58.7269L80.0828 58.7923V59.3813H80.0961C80.1922 59.3028 80.2845 59.2198 80.3727 59.1326C80.4697 59.0492 80.5709 58.9705 80.6757 58.897C80.7811 58.8316 80.9129 58.7792 81.071 58.7269C81.2291 58.6745 81.4136 58.6615 81.5981 58.6615C82.0461 58.6615 82.3755 58.7923 82.5995 59.0411C82.8235 59.2897 82.9288 59.63 82.9288 60.0487V62.051C82.9288 62.1557 82.9421 62.2344 82.9684 62.2866C82.9948 62.3521 83.0607 62.3913 83.1397 62.4306C83.1793 62.4438 83.232 62.4699 83.2978 62.483C83.3637 62.4962 83.4296 62.5091 83.5219 62.5223V62.8362H83.5482ZM89.214 62.8362H87.2771C87.0728 62.4737 86.853 62.12 86.6183 61.7762C86.4206 61.4882 86.2361 61.2134 86.0648 60.9778L85.8277 61.1872V62.0771C85.8277 62.1687 85.841 62.2603 85.8672 62.3127C85.8935 62.3781 85.9463 62.4174 86.0385 62.4566C86.0913 62.4828 86.144 62.4959 86.2098 62.509C86.2757 62.5221 86.3416 62.5352 86.4074 62.5352V62.8362H83.8512V62.5352C83.9172 62.5352 83.983 62.522 84.0621 62.509C84.1279 62.4959 84.1938 62.4828 84.2466 62.4698C84.3388 62.4435 84.3914 62.3912 84.431 62.3258C84.4574 62.2603 84.4837 62.1819 84.4837 62.0771V57.5228C84.4837 57.4312 84.4574 57.3395 84.4178 57.2479C84.3782 57.1563 84.3257 57.0778 84.2465 57.0254C84.1938 56.9993 84.1148 56.96 84.0093 56.947C83.9039 56.9207 83.8117 56.9077 83.7195 56.9077V56.6067L85.7618 56.502L85.8277 56.5674V60.7814C86.0254 60.5982 86.2626 60.3889 86.5129 60.1533C86.7632 59.9178 86.9741 59.7214 87.1189 59.5644C87.2112 59.4727 87.264 59.4073 87.264 59.355C87.2771 59.3026 87.2771 59.2765 87.2771 59.2634C87.2771 59.2111 87.2375 59.1718 87.1454 59.1456C87.0531 59.1194 86.9345 59.0801 86.7501 59.054V58.7661H88.8318V59.054C88.5552 59.1325 88.3445 59.1979 88.1995 59.2634C88.0545 59.3288 87.8963 59.4204 87.7251 59.5251C87.6131 59.6005 87.5032 59.6791 87.3957 59.7607C87.2903 59.8391 87.1717 59.944 87.0268 60.0617C87.2903 60.4543 87.5407 60.8076 87.7646 61.1349C87.9886 61.462 88.2258 61.8155 88.4761 62.1819C88.5552 62.3127 88.6607 62.3912 88.7924 62.4435C88.9241 62.4828 89.0427 62.509 89.1744 62.5221V62.8361H89.214V62.8362ZM91.8493 62.8362H89.2536V62.5352C89.3195 62.5352 89.3985 62.522 89.4643 62.509C89.5302 62.4959 89.5961 62.4828 89.6356 62.4698C89.7279 62.4435 89.7806 62.3912 89.8202 62.3258C89.8597 62.2603 89.8728 62.1819 89.8728 62.0771V59.6953C89.8728 59.6036 89.8465 59.5119 89.8069 59.4466C89.7724 59.3756 89.7174 59.3164 89.6489 59.2765C89.5961 59.2502 89.5302 59.2111 89.4249 59.1848C89.3195 59.1587 89.2272 59.1325 89.1482 59.1325V58.8315L91.1641 58.7268L91.2299 58.7922V62.038C91.2299 62.1296 91.2564 62.2081 91.2958 62.2866C91.3354 62.3521 91.4012 62.4045 91.4671 62.4306C91.5198 62.4567 91.5857 62.483 91.6517 62.496C91.7176 62.5092 91.7834 62.5223 91.8624 62.5353V62.8363H91.8492L91.8493 62.8362ZM91.2564 57.2742C91.2564 57.4835 91.1772 57.6537 91.0192 57.7976C90.861 57.9416 90.6633 58.0201 90.4526 58.0201C90.2286 58.0201 90.0441 57.9416 89.8728 57.7976C89.7148 57.6537 89.6356 57.4705 89.6356 57.2741C89.6356 57.0647 89.7146 56.8946 89.8728 56.7375C90.0308 56.5936 90.2287 56.515 90.4526 56.515C90.6766 56.515 90.861 56.5936 91.0192 56.7375C91.1772 56.8815 91.2564 57.0646 91.2564 57.2741V57.2742ZM97.66 62.8362H95.1829V62.5352C95.2356 62.5352 95.3015 62.522 95.3674 62.509C95.4464 62.4959 95.4991 62.4828 95.5387 62.4698C95.5914 62.4435 95.6308 62.3912 95.6573 62.3388C95.6836 62.2864 95.6968 62.1949 95.6968 62.0902V60.1796C95.6968 59.9048 95.6441 59.6954 95.5387 59.5515C95.4332 59.4075 95.2884 59.342 95.0775 59.342C94.972 59.342 94.8666 59.3552 94.7745 59.3944C94.6822 59.4336 94.5899 59.4729 94.4977 59.5383C94.4187 59.5907 94.3528 59.643 94.3001 59.7084C94.2474 59.7608 94.2078 59.8132 94.1815 59.8654V62.051C94.1815 62.1427 94.1947 62.2212 94.221 62.2866C94.2474 62.3521 94.3001 62.4045 94.3528 62.4306C94.3923 62.4567 94.445 62.483 94.5109 62.496L94.7086 62.5353V62.8363H92.205V62.5353C92.2709 62.5353 92.3368 62.5221 92.4159 62.5091C92.4818 62.496 92.5477 62.483 92.6004 62.4699C92.6925 62.4437 92.7452 62.3913 92.7848 62.3259C92.8111 62.2605 92.8375 62.182 92.8375 62.0773V59.6954C92.8375 59.6169 92.8111 59.5252 92.7717 59.4468C92.7321 59.3682 92.6662 59.3027 92.6004 59.2504C92.5477 59.2243 92.4949 59.185 92.4158 59.1719C92.3351 59.1451 92.2505 59.1318 92.1655 59.1326V58.8316L94.1288 58.7269L94.1947 58.7923V59.3813H94.208C94.304 59.3028 94.3964 59.2198 94.4846 59.1326C94.5816 59.0492 94.6827 58.9705 94.7876 58.897C94.893 58.8316 95.0248 58.7792 95.1829 58.7269C95.3409 58.6745 95.5255 58.6615 95.71 58.6615C96.1579 58.6615 96.4873 58.7923 96.7112 59.0411C96.9354 59.2897 97.0407 59.63 97.0407 60.0487V62.051C97.0407 62.1557 97.054 62.2344 97.0803 62.2866C97.1067 62.3521 97.1726 62.3913 97.2516 62.4306C97.2911 62.4438 97.3439 62.4699 97.4096 62.483C97.4756 62.4962 97.5415 62.5091 97.6337 62.5223V62.8362H97.66ZM99.9394 62.9801C99.676 62.9801 99.4125 62.9409 99.1622 62.8623C98.9117 62.7838 98.7141 62.7053 98.5693 62.6137L98.4507 62.8885H98.1344L98.0817 61.3704H98.3847C98.4243 61.4882 98.4901 61.6321 98.5956 61.7892C98.6879 61.9462 98.8064 62.0771 98.9249 62.208C99.0609 62.3303 99.2113 62.4358 99.3729 62.5221C99.5442 62.6006 99.7155 62.653 99.9001 62.653C100.15 62.653 100.335 62.6006 100.453 62.509C100.572 62.4174 100.638 62.2603 100.638 62.0641C100.638 61.9594 100.611 61.8677 100.559 61.7892C100.506 61.7238 100.427 61.6584 100.335 61.6059C100.229 61.5536 100.111 61.5013 99.979 61.4621C99.8473 61.4228 99.6892 61.3835 99.5048 61.3181C99.3202 61.2657 99.1622 61.2134 99.0303 61.1479C98.8986 61.0956 98.7537 61.0039 98.6219 60.8861C98.5033 60.7815 98.398 60.6506 98.3321 60.5067C98.253 60.3626 98.2267 60.1796 98.2267 59.9701C98.2267 59.5905 98.3847 59.2764 98.7141 59.0409C99.0435 58.8054 99.4652 58.6874 99.9923 58.6874C100.243 58.6874 100.467 58.7138 100.677 58.7661C100.888 58.8184 101.06 58.8708 101.205 58.9362L101.297 58.7006H101.613L101.679 60.0879H101.389C101.297 59.8 101.125 59.5643 100.901 59.355C100.664 59.1456 100.414 59.0409 100.15 59.0409C99.9396 59.0409 99.7683 59.0801 99.6497 59.1718C99.5311 59.2634 99.4651 59.3812 99.4651 59.5382C99.4651 59.7476 99.5574 59.8916 99.7287 59.9832C99.9 60.0748 100.15 60.1665 100.467 60.2449C100.954 60.3758 101.31 60.546 101.547 60.7553C101.771 60.9778 101.89 61.2525 101.89 61.5798C101.89 62.0248 101.718 62.3781 101.363 62.6138C100.967 62.8492 100.506 62.9801 99.9394 62.9801Z" fill="#231F20"/>
</g>
</g>
<defs>
<clipPath id="clip0_116_8647">
<rect width="170" height="72" rx="6" fill="white"/>
</clipPath>
<clipPath id="clip1_116_8647">
<rect width="34" height="55" fill="white" transform="translate(68 8)"/>
</clipPath>
</defs>
</svg>
