<svg width="303" height="110" viewBox="0 0 303 110" fill="none" xmlns="http://www.w3.org/2000/svg">
<rect x="0.5" y="0.5" width="302" height="109" rx="14.5" stroke="#BABCBE"/>
<path d="M93.9165 28H61.6341C57.2868 28 53.7505 31.7354 53.7505 36.327C53.7505 40.9186 57.2868 44.6548 61.6341 44.6548H68.6903V40.316H61.6341C59.5516 40.316 57.8579 38.5264 57.8579 36.327C57.8579 34.1276 59.5516 32.3387 61.6341 32.3387H93.9165C95.999 32.3387 97.6927 34.1276 97.6927 36.327C97.6927 38.5264 95.999 40.316 93.9165 40.316H75.2417V44.6548H93.9165C98.2638 44.6548 101.8 40.9186 101.8 36.327C101.8 31.7354 98.2638 28 93.9165 28Z" fill="#FF4E00"/>
<mask id="mask0_96_5894" style="mask-type:luminance" maskUnits="userSpaceOnUse" x="69" y="33" width="17" height="49">
<path d="M69.8193 33.7186H85.7751V81.4719H69.8193V33.7186Z" fill="white"/>
</mask>
<g mask="url(#mask0_96_5894)">
<mask id="mask1_96_5894" style="mask-type:luminance" maskUnits="userSpaceOnUse" x="69" y="33" width="17" height="49">
<path d="M69.895 41.6921V73.554C69.895 77.9083 73.4313 81.4509 77.7787 81.4509C82.1252 81.4509 85.6622 77.9083 85.6622 73.554V45.8607H81.5548V73.554C81.5548 75.6394 79.8611 77.3362 77.7787 77.3362C75.6961 77.3362 74.0024 75.6394 74.0024 73.554V41.6921C74.0024 39.6068 75.6961 37.9099 77.7787 37.9099C78.9418 37.9099 79.9819 38.4399 80.6753 39.2704H85.2813C84.2583 36.0969 81.2822 33.7944 77.7787 33.7944C73.4313 33.7944 69.895 37.3378 69.895 41.6921Z" fill="white"/>
</mask>
<g mask="url(#mask1_96_5894)">
<path d="M81.725 26.9542L49.3008 45.7077L73.8414 88.2903L106.266 69.536L81.725 26.9542Z" fill="url(#paint0_linear_96_5894)"/>
</g>
</g>
<path d="M108.926 52.7483H103.928V50.6246H116.325V52.7483H111.327V66.0994H108.926V52.7483ZM117.082 68.44C117.514 68.5844 117.926 68.657 118.315 68.657C118.762 68.657 119.108 68.5236 119.354 68.2558C119.598 67.9881 119.858 67.5003 120.132 66.7932L120.543 65.7091L115.805 54.851H118.358L121.647 63.217L124.654 54.851H127.077L122.253 66.9875C121.95 67.768 121.643 68.4221 121.333 68.9497C121.023 69.4765 120.659 69.8738 120.24 70.1415C119.822 70.4084 119.288 70.5426 118.639 70.5426C118.279 70.5426 117.948 70.5169 117.644 70.4669C117.341 70.4154 117.017 70.3327 116.671 70.2172L117.082 68.44ZM128.656 54.851H130.884V56.5197C131.303 55.9273 131.786 55.4683 132.334 55.1437C132.882 54.8182 133.48 54.6559 134.129 54.6559C134.332 54.6559 134.516 54.6668 134.681 54.6886C134.847 54.7097 135.002 54.7355 135.147 54.7643L134.866 56.8014C134.721 56.7726 134.569 56.7476 134.411 56.7257C134.252 56.7038 134.086 56.6929 133.914 56.6929C133.567 56.6929 133.221 56.7507 132.875 56.8662C132.529 56.9825 132.197 57.1698 131.88 57.4297C131.577 57.7044 131.339 58.0151 131.166 58.3624C130.993 58.7089 130.906 59.1132 130.906 59.576V66.0994H128.656V54.851ZM136.855 54.851H139.127V66.0994H136.855V54.851ZM136.812 50.6028H139.127V52.9216H136.812V50.6028ZM143.519 62.9134C143.519 63.4332 143.678 63.8492 143.995 64.1598C144.312 64.4705 144.824 64.6258 145.531 64.6258C146.511 64.6258 147.304 64.38 147.91 63.889C148.517 63.3973 148.819 62.6824 148.819 61.7434V60.6164L147.088 60.6812C146.166 60.7101 145.444 60.8147 144.925 60.995C144.405 61.176 144.041 61.4258 143.833 61.7434C143.623 62.0611 143.519 62.4513 143.519 62.9134ZM141.269 63C141.269 62.2492 141.428 61.6311 141.745 61.1472C142.062 60.6633 142.491 60.2839 143.032 60.0092C143.572 59.7353 144.182 59.5362 144.86 59.4129C145.538 59.2904 146.237 59.2147 146.958 59.1858L148.819 59.1203V58.6871C148.819 57.8059 148.632 57.1737 148.257 56.7905C147.882 56.408 147.276 56.216 146.439 56.216C145.632 56.216 145.034 56.3542 144.644 56.6281C144.255 56.9029 144.002 57.2861 143.886 57.777L141.832 57.56C142.033 56.5056 142.527 55.7322 143.313 55.2412C144.1 54.7503 145.169 54.5045 146.526 54.5045C148.156 54.5045 149.313 54.8837 149.998 55.6416C150.684 56.4003 151.026 57.4734 151.026 58.8603V66.0994H148.862V64.6477C148.444 65.1238 147.932 65.5288 147.327 65.8613C146.721 66.193 145.977 66.3592 145.098 66.3592C143.959 66.3592 143.035 66.0775 142.329 65.514C141.622 64.9505 141.269 64.113 141.269 63ZM153.773 54.851H156.001V56.4767C156.565 55.7688 157.166 55.2631 157.808 54.9594C158.45 54.6559 159.117 54.5045 159.809 54.5045C161.064 54.5045 162.002 54.8549 162.622 55.555C163.242 56.2566 163.552 57.2713 163.552 58.6004V66.0994H161.302V59.0344C161.302 58.0947 161.13 57.4266 160.782 57.0293C160.437 56.6321 159.91 56.433 159.203 56.433C158.814 56.433 158.428 56.5056 158.046 56.65C157.664 56.7944 157.314 57.0113 156.997 57.3002C156.679 57.5748 156.438 57.8785 156.272 58.2102C156.106 58.5427 156.023 58.9618 156.023 59.4676V66.0994H153.773V54.851ZM175.278 55.3926C175.278 54.7573 175.176 54.2367 174.974 53.8324C174.773 53.4282 174.416 53.1245 173.904 52.9216C173.391 52.7203 172.681 52.6188 171.773 52.6188H168.875V58.2968H171.794C172.732 58.2968 173.45 58.1813 173.947 57.9503C174.445 57.7193 174.79 57.3829 174.986 56.9427C175.18 56.5017 175.278 55.985 175.278 55.3926ZM166.516 50.6246H171.816C173.331 50.6246 174.509 50.8346 175.353 51.2529C176.197 51.672 176.785 52.2356 177.117 52.9434C177.448 53.6521 177.614 54.4467 177.614 55.3279C177.614 56.2527 177.441 57.091 177.095 57.8418C176.748 58.5934 176.157 59.1889 175.322 59.6299C174.484 60.0709 173.316 60.291 171.816 60.291H168.875V66.0994H166.516V50.6246ZM179.864 62.3281V54.851H182.136V61.9167C182.136 62.8557 182.294 63.5237 182.612 63.921C182.929 64.3191 183.434 64.5173 184.126 64.5173C184.919 64.5173 185.619 64.2356 186.224 63.672C186.542 63.3832 186.783 63.0757 186.949 62.7511C187.115 62.4256 187.198 62.0104 187.198 61.5046V54.851H189.469V66.0994H187.242V64.4307C186.708 65.1245 186.131 65.6334 185.511 65.9589C184.89 66.2835 184.22 66.4459 183.499 66.4459C182.244 66.4459 181.324 66.0994 180.741 65.4055C180.156 64.7124 179.864 63.6869 179.864 62.3281ZM192.26 54.851H194.489V56.5197C194.907 55.9273 195.39 55.4683 195.938 55.1437C196.486 54.8182 197.084 54.6559 197.734 54.6559C197.936 54.6559 198.119 54.6668 198.286 54.6886C198.451 54.7097 198.606 54.7355 198.751 54.7643L198.47 56.8014C198.325 56.7726 198.174 56.7476 198.015 56.7257C197.856 56.7038 197.691 56.6929 197.517 56.6929C197.172 56.6929 196.825 56.7507 196.479 56.8662C196.133 56.9825 195.802 57.1698 195.484 57.4297C195.181 57.7044 194.943 58.0151 194.77 58.3624C194.597 58.7089 194.511 59.1132 194.511 59.576V66.0994H192.26V54.851ZM208.681 60.4424C208.681 59.4169 208.544 58.6075 208.27 58.0151C207.995 57.4227 207.643 57.0004 207.21 56.7476C206.777 56.4947 206.315 56.3682 205.825 56.3682C204.801 56.3682 204.022 56.7148 203.489 57.4086C202.955 58.1017 202.688 58.9907 202.688 60.074V60.7678C202.688 61.9526 202.937 62.8845 203.434 63.5635C203.932 64.2425 204.685 64.5821 205.696 64.5821C206.561 64.5821 207.275 64.2645 207.837 63.6283C208.4 62.993 208.681 61.9308 208.681 60.4424ZM200.438 54.851H202.645V56.3901C203.092 55.7829 203.619 55.3169 204.224 54.9915C204.83 54.6668 205.529 54.5045 206.322 54.5045C207.375 54.5045 208.251 54.7503 208.95 55.2412C209.65 55.7322 210.173 56.419 210.52 57.3002C210.866 58.1813 211.038 59.2069 211.038 60.3776C211.038 62.2562 210.599 63.7368 209.72 64.8209C208.839 65.9042 207.634 66.4459 206.106 66.4459C205.486 66.4459 204.876 66.3194 204.278 66.0666C203.679 65.8145 203.149 65.3766 202.688 64.7553V70.3038H200.438V54.851ZM213.505 50.6246H215.777V66.0994H213.505V50.6246ZM220.947 57.7989C220.732 58.2898 220.594 58.8534 220.536 59.4894H226.421C226.363 58.4201 226.135 57.6037 225.739 57.0402C225.343 56.4767 224.625 56.195 223.587 56.195C222.895 56.195 222.335 56.3394 221.91 56.6281C221.485 56.9177 221.164 57.3072 220.947 57.7989ZM218.243 60.5727C218.243 59.2724 218.47 58.1704 218.925 57.2673C219.379 56.3644 220.01 55.6783 220.818 55.2085C221.625 54.7393 222.556 54.5045 223.608 54.5045C224.762 54.5045 225.711 54.7393 226.453 55.2085C227.196 55.6783 227.748 56.3284 228.109 57.1589C228.469 57.9901 228.649 58.9469 228.649 60.0311V61.0277H220.515C220.573 62.1837 220.857 63.0836 221.37 63.7259C221.881 64.369 222.627 64.6905 223.608 64.6905C224.459 64.6905 225.09 64.5282 225.502 64.2027C225.913 63.8781 226.19 63.434 226.335 62.8697H228.476C228.289 63.9827 227.795 64.8568 226.995 65.4929C226.194 66.1282 225.066 66.4459 223.608 66.4459C221.892 66.4459 220.569 65.9261 219.639 64.8857C218.708 63.8453 218.243 62.4076 218.243 60.5727ZM230.574 63.2599H233.019V66.0994H230.574V63.2599ZM237.281 62.9134C237.281 63.4332 237.44 63.8492 237.757 64.1598C238.074 64.4705 238.587 64.6258 239.293 64.6258C240.274 64.6258 241.067 64.38 241.673 63.889C242.279 63.3973 242.582 62.6824 242.582 61.7434V60.6164L240.851 60.6812C239.927 60.7101 239.207 60.8147 238.687 60.995C238.168 61.176 237.804 61.4258 237.595 61.7434C237.385 62.0611 237.281 62.4513 237.281 62.9134ZM235.03 63C235.03 62.2492 235.189 61.6311 235.507 61.1472C235.824 60.6633 236.254 60.2839 236.794 60.0092C237.335 59.7353 237.944 59.5362 238.622 59.4129C239.3 59.2904 240 59.2147 240.722 59.1858L242.582 59.1203V58.6871C242.582 57.8059 242.394 57.1737 242.019 56.7905C241.644 56.408 241.038 56.216 240.202 56.216C239.393 56.216 238.795 56.3542 238.407 56.6281C238.017 56.9029 237.764 57.2861 237.649 57.777L235.593 57.56C235.795 56.5056 236.289 55.7322 237.075 55.2412C237.861 54.7503 238.932 54.5045 240.288 54.5045C241.918 54.5045 243.076 54.8837 243.761 55.6416C244.445 56.4003 244.788 57.4734 244.788 58.8603V66.0994H242.625V64.6477C242.206 65.1238 241.694 65.5288 241.089 65.8613C240.483 66.193 239.741 66.3592 238.86 66.3592C237.721 66.3592 236.798 66.0775 236.091 65.514C235.385 64.9505 235.03 64.113 235.03 63ZM247.557 54.851H249.829V66.0994H247.557V54.851ZM247.514 50.6028H249.829V52.9216H247.514V50.6028Z" fill="white"/>
<defs>
<linearGradient id="paint0_linear_96_5894" x1="65.5125" y1="36.3315" x2="90.1192" y2="78.8754" gradientUnits="userSpaceOnUse">
<stop stop-color="#FF4E00"/>
<stop offset="0.0625" stop-color="#FF4E00"/>
<stop offset="0.0664062" stop-color="#FD4D01"/>
<stop offset="0.0703125" stop-color="#FC4D02"/>
<stop offset="0.0742188" stop-color="#FB4C02"/>
<stop offset="0.078125" stop-color="#FA4C03"/>
<stop offset="0.0820312" stop-color="#F94B04"/>
<stop offset="0.0859375" stop-color="#F84B04"/>
<stop offset="0.0898438" stop-color="#F74A05"/>
<stop offset="0.09375" stop-color="#F64A05"/>
<stop offset="0.0976562" stop-color="#F54A06"/>
<stop offset="0.101562" stop-color="#F44907"/>
<stop offset="0.105469" stop-color="#F34907"/>
<stop offset="0.109375" stop-color="#F24808"/>
<stop offset="0.113281" stop-color="#F14808"/>
<stop offset="0.117188" stop-color="#F04709"/>
<stop offset="0.121094" stop-color="#EF470A"/>
<stop offset="0.125" stop-color="#EE460A"/>
<stop offset="0.128906" stop-color="#ED460B"/>
<stop offset="0.132812" stop-color="#EC450B"/>
<stop offset="0.136719" stop-color="#EB450C"/>
<stop offset="0.140625" stop-color="#EA450D"/>
<stop offset="0.144531" stop-color="#E9440D"/>
<stop offset="0.148438" stop-color="#E8440E"/>
<stop offset="0.152344" stop-color="#E7430E"/>
<stop offset="0.15625" stop-color="#E6430F"/>
<stop offset="0.160156" stop-color="#E5420F"/>
<stop offset="0.164062" stop-color="#E44210"/>
<stop offset="0.167969" stop-color="#E34111"/>
<stop offset="0.171875" stop-color="#E24111"/>
<stop offset="0.175781" stop-color="#E14112"/>
<stop offset="0.179688" stop-color="#E04012"/>
<stop offset="0.183594" stop-color="#DF4013"/>
<stop offset="0.1875" stop-color="#DE3F14"/>
<stop offset="0.191406" stop-color="#DD3F14"/>
<stop offset="0.195312" stop-color="#DC3E15"/>
<stop offset="0.199219" stop-color="#DB3E15"/>
<stop offset="0.203125" stop-color="#DA3E16"/>
<stop offset="0.207031" stop-color="#D93D17"/>
<stop offset="0.210938" stop-color="#D83D17"/>
<stop offset="0.214844" stop-color="#D73C18"/>
<stop offset="0.21875" stop-color="#D63C18"/>
<stop offset="0.222656" stop-color="#D53B19"/>
<stop offset="0.226562" stop-color="#D43B19"/>
<stop offset="0.230469" stop-color="#D33A1A"/>
<stop offset="0.234375" stop-color="#D23A1B"/>
<stop offset="0.238281" stop-color="#D13A1B"/>
<stop offset="0.242187" stop-color="#D0391C"/>
<stop offset="0.246094" stop-color="#CF391C"/>
<stop offset="0.25" stop-color="#CE381D"/>
<stop offset="0.253906" stop-color="#CD381D"/>
<stop offset="0.257812" stop-color="#CC371E"/>
<stop offset="0.261719" stop-color="#CB371F"/>
<stop offset="0.265625" stop-color="#CA371F"/>
<stop offset="0.269531" stop-color="#C93620"/>
<stop offset="0.273437" stop-color="#C83620"/>
<stop offset="0.277344" stop-color="#C73521"/>
<stop offset="0.28125" stop-color="#C63521"/>
<stop offset="0.285156" stop-color="#C53422"/>
<stop offset="0.289062" stop-color="#C43423"/>
<stop offset="0.292969" stop-color="#C33423"/>
<stop offset="0.296875" stop-color="#C23324"/>
<stop offset="0.300781" stop-color="#C13324"/>
<stop offset="0.304688" stop-color="#C03225"/>
<stop offset="0.308594" stop-color="#BF3225"/>
<stop offset="0.3125" stop-color="#BE3126"/>
<stop offset="0.316406" stop-color="#BD3127"/>
<stop offset="0.320312" stop-color="#BC3127"/>
<stop offset="0.324219" stop-color="#BB3028"/>
<stop offset="0.328125" stop-color="#BA3028"/>
<stop offset="0.332031" stop-color="#B92F29"/>
<stop offset="0.335938" stop-color="#B82F29"/>
<stop offset="0.339844" stop-color="#B72F2A"/>
<stop offset="0.34375" stop-color="#B62E2B"/>
<stop offset="0.347656" stop-color="#B52E2B"/>
<stop offset="0.351563" stop-color="#B52D2C"/>
<stop offset="0.355469" stop-color="#B42D2C"/>
<stop offset="0.359375" stop-color="#B32C2D"/>
<stop offset="0.363281" stop-color="#B22C2D"/>
<stop offset="0.367188" stop-color="#B12C2E"/>
<stop offset="0.371094" stop-color="#B02B2E"/>
<stop offset="0.375" stop-color="#AF2B2F"/>
<stop offset="0.378906" stop-color="#AE2A30"/>
<stop offset="0.382812" stop-color="#AD2A30"/>
<stop offset="0.386719" stop-color="#AC2A31"/>
<stop offset="0.390625" stop-color="#AB2931"/>
<stop offset="0.394531" stop-color="#AA2932"/>
<stop offset="0.398437" stop-color="#A92832"/>
<stop offset="0.402344" stop-color="#A82833"/>
<stop offset="0.40625" stop-color="#A72733"/>
<stop offset="0.410156" stop-color="#A62734"/>
<stop offset="0.414062" stop-color="#A52734"/>
<stop offset="0.417969" stop-color="#A52635"/>
<stop offset="0.421875" stop-color="#A42636"/>
<stop offset="0.425781" stop-color="#A32536"/>
<stop offset="0.429688" stop-color="#A22537"/>
<stop offset="0.433594" stop-color="#A12537"/>
<stop offset="0.4375" stop-color="#A02438"/>
<stop offset="0.441406" stop-color="#9F2438"/>
<stop offset="0.445312" stop-color="#9E2339"/>
<stop offset="0.449219" stop-color="#9D2339"/>
<stop offset="0.453125" stop-color="#9C233A"/>
<stop offset="0.457031" stop-color="#9B223A"/>
<stop offset="0.460938" stop-color="#9A223B"/>
<stop offset="0.464844" stop-color="#9A213B"/>
<stop offset="0.46875" stop-color="#99213C"/>
<stop offset="0.472656" stop-color="#98213C"/>
<stop offset="0.476563" stop-color="#97203D"/>
<stop offset="0.480469" stop-color="#96203E"/>
<stop offset="0.484375" stop-color="#951F3E"/>
<stop offset="0.488281" stop-color="#941F3F"/>
<stop offset="0.492188" stop-color="#931F3F"/>
<stop offset="0.496094" stop-color="#921E40"/>
<stop offset="0.5" stop-color="#911E40"/>
<stop offset="0.503906" stop-color="#911D41"/>
<stop offset="0.507812" stop-color="#901D41"/>
<stop offset="0.511719" stop-color="#8F1D42"/>
<stop offset="0.515625" stop-color="#8E1C42"/>
<stop offset="0.519531" stop-color="#8D1C43"/>
<stop offset="0.523438" stop-color="#8C1C43"/>
<stop offset="0.527344" stop-color="#8B1B44"/>
<stop offset="0.53125" stop-color="#8A1B44"/>
<stop offset="0.535156" stop-color="#8A1A45"/>
<stop offset="0.539062" stop-color="#891A45"/>
<stop offset="0.542969" stop-color="#881A46"/>
<stop offset="0.546875" stop-color="#871946"/>
<stop offset="0.550781" stop-color="#861947"/>
<stop offset="0.554687" stop-color="#851947"/>
<stop offset="0.558594" stop-color="#841848"/>
<stop offset="0.5625" stop-color="#841848"/>
<stop offset="0.566406" stop-color="#831749"/>
<stop offset="0.570312" stop-color="#821749"/>
<stop offset="0.574219" stop-color="#81174A"/>
<stop offset="0.578125" stop-color="#80164A"/>
<stop offset="0.582031" stop-color="#7F164B"/>
<stop offset="0.585938" stop-color="#7F164B"/>
<stop offset="0.589844" stop-color="#7E154C"/>
<stop offset="0.59375" stop-color="#7D154C"/>
<stop offset="0.597656" stop-color="#7C144D"/>
<stop offset="0.601562" stop-color="#7B144D"/>
<stop offset="0.605469" stop-color="#7A144E"/>
<stop offset="0.609375" stop-color="#7A134E"/>
<stop offset="0.613281" stop-color="#79134F"/>
<stop offset="0.617188" stop-color="#78134F"/>
<stop offset="0.621094" stop-color="#771250"/>
<stop offset="0.625" stop-color="#761250"/>
<stop offset="0.628906" stop-color="#761251"/>
<stop offset="0.632812" stop-color="#751151"/>
<stop offset="0.636719" stop-color="#741151"/>
<stop offset="0.640625" stop-color="#731152"/>
<stop offset="0.644531" stop-color="#721052"/>
<stop offset="0.648438" stop-color="#721053"/>
<stop offset="0.652344" stop-color="#711053"/>
<stop offset="0.65625" stop-color="#700F54"/>
<stop offset="0.660156" stop-color="#6F0F54"/>
<stop offset="0.664062" stop-color="#6F0F55"/>
<stop offset="0.667969" stop-color="#6E0E55"/>
<stop offset="0.671875" stop-color="#6D0E56"/>
<stop offset="0.675781" stop-color="#6C0E56"/>
<stop offset="0.679688" stop-color="#6C0D56"/>
<stop offset="0.683594" stop-color="#6B0D57"/>
<stop offset="0.6875" stop-color="#6A0D57"/>
<stop offset="0.691406" stop-color="#690C58"/>
<stop offset="0.695313" stop-color="#690C58"/>
<stop offset="0.699219" stop-color="#680C58"/>
<stop offset="0.703125" stop-color="#670B59"/>
<stop offset="0.707031" stop-color="#670B59"/>
<stop offset="0.710938" stop-color="#660B5A"/>
<stop offset="0.714844" stop-color="#650A5A"/>
<stop offset="0.71875" stop-color="#650A5A"/>
<stop offset="0.722656" stop-color="#640A5B"/>
<stop offset="0.726562" stop-color="#640A5B"/>
<stop offset="0.730469" stop-color="#63095B"/>
<stop offset="0.734375" stop-color="#62095C"/>
<stop offset="0.75" stop-color="#62095C"/>
<stop offset="1" stop-color="#62095C"/>
</linearGradient>
</defs>
</svg>
