<svg width="170" height="72" viewBox="0 0 170 72" fill="none" xmlns="http://www.w3.org/2000/svg">
<g clip-path="url(#clip0_116_8712)">
<rect width="170" height="72" rx="6" fill="#EC696A" fill-opacity="0.08"/>
<g clip-path="url(#clip1_116_8712)">
<path fill-rule="evenodd" clip-rule="evenodd" d="M52.9481 24.2773L46.2894 37.644L58.0126 51.1868L36.2544 53.6488L70.017 54.0009L52.9481 24.2773Z" fill="#035BDA"/>
<path fill-rule="evenodd" clip-rule="evenodd" d="M51.6349 19L36.3481 31.7513L25 50.8342L34.6599 49.8667L51.6349 19Z" fill="#035BDA"/>
<path d="M82.7781 32.4961L75.4663 50.3666H77.9524L79.8536 45.3568H87.9361L89.9568 50.3666H92.4292L85.0909 32.4961H82.7781ZM83.8681 34.6643H83.9211C84.0186 35.2126 84.1161 35.6117 84.2136 35.8609L87.2047 43.4753H80.5978L83.5624 35.8609C83.6777 35.5701 83.7795 35.1711 83.8681 34.6643ZM140.403 37.3065C138.622 37.3065 137.128 37.9336 135.923 39.1881C134.727 40.4343 134.129 42.0505 134.129 44.0361C134.129 46.138 134.678 47.7703 135.777 48.9334C136.876 50.0882 138.387 50.6657 140.31 50.6657C142.278 50.6657 143.86 50.2588 145.056 49.4446V47.5254C143.771 48.4725 142.362 48.9458 140.829 48.9458C139.464 48.9458 138.392 48.5595 137.612 47.7869C136.832 47.0142 136.424 45.9176 136.389 44.4969H146V43.4252C146 41.5061 145.513 40.0067 144.538 38.9267C143.563 37.8466 142.184 37.3065 140.403 37.3065ZM130.663 37.3814C129.874 37.3814 129.161 37.6348 128.523 38.1416C127.885 38.6401 127.411 39.3377 127.101 40.235H127.047V37.6056H124.867V50.3666H127.047V43.8616C127.047 42.4409 127.358 41.3193 127.978 40.4968C128.607 39.6743 129.387 39.2629 130.318 39.2629C131.035 39.2629 131.585 39.3999 131.966 39.6741V37.5555C131.665 37.4392 131.23 37.3814 130.663 37.3814ZM94.6453 37.6056V39.3502H101.944L93.8875 49.7313V50.3666H105.068V48.622H97.0913L105.147 38.1912V37.6056H94.6453ZM108.427 37.6056V45.2323C108.427 48.8546 110.049 50.6657 113.292 50.6657C115.189 50.6657 116.589 49.893 117.493 48.3477H117.546V50.3666H119.726V37.6056H117.546V44.9581C117.546 46.1461 117.201 47.1099 116.509 47.8493C115.827 48.5804 114.954 48.9458 113.891 48.9458C111.693 48.9458 110.594 47.6002 110.594 44.9084V37.6056H108.427ZM140.363 39.0263C141.427 39.0263 142.256 39.3544 142.849 40.0108C143.452 40.6671 143.758 41.5849 143.767 42.7647H136.415C136.583 41.6514 137.027 40.75 137.745 40.0604C138.462 39.3709 139.335 39.0263 140.363 39.0263Z" fill="#035BDA"/>
</g>
</g>
<defs>
<clipPath id="clip0_116_8712">
<rect width="170" height="72" rx="6" fill="white"/>
</clipPath>
<clipPath id="clip1_116_8712">
<rect width="121" height="35" fill="white" transform="translate(25 19)"/>
</clipPath>
</defs>
</svg>
