<svg width="170" height="72" viewBox="0 0 170 72" fill="none" xmlns="http://www.w3.org/2000/svg">
<g clip-path="url(#clip0_116_8718)">
<rect width="170" height="72" rx="6" fill="#EC696A" fill-opacity="0.08"/>
<path d="M84.9999 46.7548V39.9911C92.1478 39.9911 97.6962 32.8911 94.9516 25.356C93.9446 22.5873 91.7134 20.3525 88.9293 19.3438C81.4063 16.6146 74.3177 22.1522 74.3177 29.3115H67.5845C67.5845 17.9001 78.6024 9.00042 90.5484 12.7383C95.7612 14.3798 99.9275 18.533 101.547 23.7541C105.278 35.7192 96.393 46.7548 84.9999 46.7548Z" fill="#0080FF"/>
<path fill-rule="evenodd" clip-rule="evenodd" d="M85.0196 40.0311H78.2864V33.2871H85.0196V40.0311ZM78.2864 45.1929H73.1328V40.0311H78.2864V45.1929ZM73.1328 40.0311H68.8086V35.6999H73.1328V40.0311Z" fill="#0080FF"/>
<path d="M56.2111 53.5973C55.3423 52.9842 54.2366 52.6875 52.9729 52.6875H50.2085V61.4883H52.9926C54.2563 61.4883 55.362 61.1719 56.2308 60.5192C56.7047 60.183 57.0799 59.7084 57.3563 59.1151C57.613 58.5217 57.7512 57.8098 57.7512 57.0385C57.7512 56.2672 57.613 55.575 57.3563 54.9817C57.0799 54.3883 56.7047 53.9137 56.2111 53.5973ZM51.8276 54.1708H52.6964C53.6639 54.1708 54.4538 54.3686 55.0659 54.7443C55.7372 55.1596 56.0729 55.931 56.0729 57.0385C56.0729 58.1855 55.7372 58.9964 55.0659 59.4315C54.4933 59.8073 53.7034 60.005 52.7162 60.005H51.8276V54.1708ZM59.6666 52.5689C59.3901 52.5689 59.1729 52.6677 58.9755 52.8457C58.7978 53.0237 58.699 53.2413 58.699 53.5181C58.699 53.795 58.7978 54.0126 58.9755 54.2103C59.1532 54.3883 59.3901 54.4872 59.6666 54.4872C59.9232 54.4872 60.1602 54.3883 60.3576 54.2103C60.5353 54.0324 60.6341 53.795 60.6341 53.5181C60.6341 53.2413 60.5353 53.0237 60.3576 52.8457C60.1602 52.6677 59.9232 52.5689 59.6666 52.5689ZM58.8767 55.2783H60.4366V61.4883H58.8767V55.2783ZM66.1036 55.7925C65.6297 55.3772 65.1163 55.1201 64.5437 55.1201C63.6749 55.1201 62.964 55.4167 62.4112 56.0101C61.8583 56.5836 61.5621 57.3351 61.5621 58.2449C61.5621 59.1151 61.8385 59.8666 62.3914 60.4599C62.9443 61.0334 63.6749 61.3301 64.5239 61.3301C65.1163 61.3301 65.6494 61.1719 66.0641 60.8357V60.9741C66.0641 61.4883 65.9258 61.8838 65.6494 62.1607C65.373 62.4376 64.9978 62.576 64.5239 62.576C63.8131 62.576 63.3589 62.2992 62.8061 61.5476L61.7398 62.576L61.7596 62.6156C61.9965 62.932 62.3322 63.2485 62.8061 63.5451C63.2602 63.8418 63.8526 64 64.5437 64C65.4717 64 66.222 63.7231 66.7749 63.1496C67.3278 62.576 67.6042 61.8245 67.6042 60.895V55.2585H66.0641V55.7925H66.1036ZM65.6889 59.471C65.4125 59.7875 65.057 59.9259 64.6226 59.9259C64.1685 59.9259 63.8328 59.7677 63.5564 59.471C63.28 59.1546 63.1615 58.7591 63.1615 58.2646C63.1615 57.7504 63.2997 57.3549 63.5564 57.0385C63.8131 56.722 64.1883 56.5836 64.6226 56.5836C65.0768 56.5836 65.4125 56.7418 65.6889 57.0385C65.9653 57.3549 66.1036 57.7702 66.1036 58.2646C66.1036 58.7591 65.9653 59.1546 65.6889 59.471ZM68.9666 55.2783H70.5265V61.4883H68.9666V55.2783ZM69.7565 52.5689C69.48 52.5689 69.2628 52.6677 69.0654 52.8457C68.8877 53.0237 68.7889 53.2413 68.7889 53.5181C68.7889 53.795 68.8877 54.0126 69.0654 54.2103C69.2431 54.3883 69.48 54.4872 69.7565 54.4872C70.0131 54.4872 70.2501 54.3883 70.4475 54.2103C70.6253 54.0324 70.724 53.795 70.724 53.5181C70.724 53.2413 70.6253 53.0237 70.4475 52.8457C70.2501 52.6677 70.0329 52.5689 69.7565 52.5689ZM73.9425 53.5973H72.4023V55.2783H71.5138V56.7023H72.4023V59.2733C72.4023 60.0841 72.5603 60.6577 72.8762 60.9939C73.1922 61.3301 73.7648 61.4883 74.5546 61.4883C74.8113 61.4883 75.068 61.4883 75.3049 61.4685H75.3839V60.0446L74.8508 60.0644C74.4756 60.0644 74.2387 60.005 74.1202 59.8666C74.0017 59.7281 73.9425 59.4513 73.9425 59.036V56.6825H75.4036V55.2585H73.9425V53.5973ZM82.7094 52.6677H84.2693V61.4883H82.7094V52.6677ZM100.026 59.2733C99.7497 59.5897 99.4536 59.8666 99.2364 60.005C99.0192 60.1435 98.7427 60.2226 98.4268 60.2226C97.9727 60.2226 97.5975 60.0644 97.3013 59.7084C97.0051 59.3722 96.8472 58.9173 96.8472 58.4031C96.8472 57.8691 97.0051 57.434 97.3013 57.0978C97.5975 56.7616 97.9727 56.5836 98.4268 56.5836C98.9204 56.5836 99.4536 56.9 99.9077 57.434L100.934 56.4452C100.263 55.575 99.4141 55.1596 98.3873 55.1596C97.5383 55.1596 96.7879 55.4761 96.1758 56.0892C95.5637 56.7023 95.2675 57.4736 95.2675 58.4031C95.2675 59.3326 95.5835 60.1039 96.1758 60.717C96.7879 61.3301 97.5185 61.6465 98.3873 61.6465C99.5128 61.6465 100.421 61.1521 101.053 60.2621L100.026 59.2733ZM106.443 56.1485C106.226 55.8321 105.93 55.5947 105.555 55.4167C105.18 55.2388 104.745 55.1399 104.271 55.1399C103.403 55.1399 102.692 55.4563 102.159 56.0892C101.645 56.722 101.369 57.4933 101.369 58.4229C101.369 59.3722 101.665 60.1435 102.218 60.7368C102.791 61.3301 103.541 61.6267 104.469 61.6267C105.515 61.6267 106.384 61.1916 107.036 60.361L107.075 60.3215L106.049 59.3326C105.95 59.4513 105.812 59.5699 105.693 59.6886C105.535 59.827 105.397 59.9457 105.239 60.0248C105.002 60.1435 104.745 60.2028 104.449 60.2028C104.015 60.2028 103.659 60.0841 103.383 59.827C103.126 59.5897 102.968 59.2733 102.929 58.8777H107.056L107.075 58.3042C107.075 57.9087 107.016 57.5131 106.917 57.1571C106.819 56.8011 106.661 56.4649 106.443 56.1485ZM103.027 57.612C103.106 57.3153 103.245 57.0582 103.442 56.8803C103.659 56.6627 103.936 56.5638 104.252 56.5638C104.627 56.5638 104.923 56.6627 105.12 56.8803C105.298 57.078 105.417 57.3153 105.436 57.612H103.027ZM112.426 55.753C111.952 55.3574 111.301 55.1399 110.491 55.1399C109.978 55.1399 109.484 55.2585 109.05 55.4761C108.635 55.6739 108.24 56.0298 107.984 56.4649L108.003 56.4847L109.01 57.434C109.425 56.7814 109.879 56.544 110.491 56.544C110.827 56.544 111.084 56.6231 111.301 56.8011C111.498 56.9791 111.617 57.1967 111.617 57.4736V57.7702C111.222 57.6516 110.847 57.5922 110.472 57.5922C109.701 57.5922 109.07 57.7702 108.596 58.1262C108.122 58.4822 107.885 59.0162 107.885 59.6886C107.885 60.2819 108.082 60.7368 108.497 61.0928C108.912 61.429 109.405 61.607 109.998 61.607C110.59 61.607 111.143 61.3696 111.656 60.9543V61.4685H113.196V57.4736C113.137 56.7418 112.9 56.1485 112.426 55.753ZM109.662 59.1151C109.84 58.9964 110.096 58.9371 110.412 58.9371C110.787 58.9371 111.182 59.0162 111.597 59.1546V59.7677C111.261 60.0841 110.807 60.2424 110.254 60.2424C109.978 60.2424 109.78 60.183 109.622 60.0644C109.484 59.9457 109.405 59.8073 109.405 59.6095C109.405 59.3919 109.484 59.2337 109.662 59.1151ZM119.14 55.8716C118.705 55.3772 118.093 55.1399 117.323 55.1399C116.711 55.1399 116.198 55.3179 115.823 55.6739V55.2981H114.302V61.4883H115.862V58.0669C115.862 57.5922 115.98 57.2165 116.198 56.9594C116.415 56.7023 116.711 56.5638 117.126 56.5638C117.481 56.5638 117.738 56.6825 117.935 56.9198C118.133 57.1571 118.231 57.4933 118.231 57.8889V61.4883H119.791V57.8889C119.791 57.0385 119.574 56.3463 119.14 55.8716ZM80.7547 55.753C80.2808 55.3574 79.6292 55.1399 78.8196 55.1399C78.3062 55.1399 77.8126 55.2585 77.3782 55.4761C76.9635 55.6739 76.5686 56.0298 76.3119 56.4649L76.3317 56.4847L77.3387 57.434C77.7533 56.7814 78.2075 56.544 78.8196 56.544C79.1553 56.544 79.412 56.6231 79.6292 56.8011C79.8266 56.9791 79.9451 57.1967 79.9451 57.4736V57.7702C79.5502 57.6516 79.175 57.5922 78.7999 57.5922C78.0298 57.5922 77.3979 57.7702 76.924 58.1262C76.4502 58.4822 76.2132 59.0162 76.2132 59.6886C76.2132 60.2819 76.4107 60.7368 76.8253 61.0928C77.24 61.429 77.7336 61.607 78.326 61.607C78.9183 61.607 79.4712 61.3696 79.9846 60.9543V61.4685H81.5247V57.4736C81.4655 56.7418 81.2285 56.1485 80.7547 55.753ZM77.9903 59.1151C78.168 58.9964 78.4247 58.9371 78.7406 58.9371C79.1158 58.9371 79.5107 59.0162 79.9253 59.1546V59.7677C79.5897 60.0841 79.1355 60.2424 78.5827 60.2424C78.3062 60.2424 78.1088 60.183 77.9508 60.0644C77.8126 59.9457 77.7336 59.8073 77.7336 59.6095C77.7336 59.3919 77.8126 59.2337 77.9903 59.1151ZM89.9363 61.6267C87.4286 61.6267 85.3948 59.5897 85.3948 57.078C85.3948 54.5663 87.4286 52.5293 89.9363 52.5293C92.4439 52.5293 94.4777 54.5663 94.4777 57.078C94.4777 59.5897 92.4439 61.6267 89.9363 61.6267ZM89.9363 54.1312C88.3171 54.1312 86.9942 55.4563 86.9942 57.078C86.9942 58.6997 88.3171 60.0248 89.9363 60.0248C91.5554 60.0248 92.8783 58.6997 92.8783 57.078C92.8783 55.4563 91.5554 54.1312 89.9363 54.1312Z" fill="#0080FF"/>
</g>
<defs>
<clipPath id="clip0_116_8718">
<rect width="170" height="72" rx="6" fill="white"/>
</clipPath>
</defs>
</svg>
