<svg width="170" height="72" viewBox="0 0 170 72" fill="none" xmlns="http://www.w3.org/2000/svg">
<g clip-path="url(#clip0_116_8695)">
<rect width="170" height="72" rx="6" fill="#EC696A" fill-opacity="0.08"/>
<g clip-path="url(#clip1_116_8695)">
<path d="M67.9493 29.3432C67.9493 30.2692 68.0497 31.02 68.2254 31.5706C68.4262 32.1212 68.6771 32.7219 69.0285 33.3726C69.1539 33.5729 69.2041 33.7731 69.2041 33.9483C69.2041 34.1986 69.0535 34.4488 68.7273 34.6991L67.1463 35.7503C66.9204 35.9004 66.6946 35.9755 66.4938 35.9755C66.2428 35.9755 65.9919 35.8504 65.7409 35.6251C65.3896 35.2497 65.0884 34.8493 64.8375 34.4488C64.5865 34.0234 64.3356 33.5478 64.0595 32.9722C62.1021 35.2748 59.6427 36.426 56.6814 36.426C54.5734 36.426 52.8919 35.8254 51.6623 34.624C50.4326 33.4227 49.8052 31.8209 49.8052 29.8187C49.8052 27.6913 50.558 25.9644 52.0889 24.663C53.6197 23.3615 55.6525 22.7108 58.2373 22.7108C59.0906 22.7108 59.9689 22.7859 60.8975 22.911C61.826 23.0362 62.7796 23.2364 63.7835 23.4616V21.6346C63.7835 19.7325 63.3819 18.406 62.604 17.6301C61.8009 16.8543 60.4457 16.4789 58.5134 16.4789C57.635 16.4789 56.7316 16.579 55.803 16.8042C54.8745 17.0295 53.9711 17.3048 53.0927 17.6552C52.6912 17.8304 52.39 17.9305 52.2144 17.9805C52.0387 18.0306 51.9132 18.0556 51.8128 18.0556C51.4615 18.0556 51.2858 17.8053 51.2858 17.2798V16.0534C51.2858 15.6529 51.336 15.3526 51.4615 15.1774C51.587 15.0022 51.8128 14.827 52.1642 14.6518C53.0425 14.2013 54.0965 13.8259 55.3262 13.5256C56.5559 13.2002 57.8609 13.0501 59.2411 13.0501C62.2275 13.0501 64.4109 13.7258 65.8162 15.0773C67.1965 16.4288 67.8991 18.4811 67.8991 21.2341V29.3432H67.9493ZM57.7605 33.1474C58.5887 33.1474 59.4419 32.9972 60.3454 32.6969C61.2488 32.3966 62.0519 31.8459 62.7294 31.0951C63.131 30.6196 63.4321 30.094 63.5827 29.4933C63.7333 28.8927 63.8337 28.1669 63.8337 27.3159V26.2647C63.1059 26.0895 62.3279 25.9394 61.5248 25.8393C60.7218 25.7392 59.9438 25.6891 59.1659 25.6891C57.4844 25.6891 56.2548 26.0145 55.4266 26.6902C54.5984 27.366 54.1969 28.317 54.1969 29.5684C54.1969 30.7447 54.4981 31.6207 55.1255 32.2214C55.7278 32.8471 56.6061 33.1474 57.7605 33.1474ZM77.9123 35.8504C77.4606 35.8504 77.1594 35.7753 76.9587 35.6001C76.7579 35.4499 76.5822 35.0996 76.4317 34.624L70.5342 15.2775C70.3836 14.777 70.3083 14.4516 70.3083 14.2764C70.3083 13.876 70.5091 13.6507 70.9106 13.6507H73.37C73.8468 13.6507 74.1731 13.7258 74.3487 13.901C74.5495 14.0512 74.7001 14.4016 74.8506 14.8771L79.0667 31.4455L82.9816 14.8771C83.1071 14.3765 83.2577 14.0512 83.4585 13.901C83.6592 13.7508 84.0106 13.6507 84.4623 13.6507H86.4699C86.9468 13.6507 87.273 13.7258 87.4738 13.901C87.6745 14.0512 87.8502 14.4016 87.9506 14.8771L91.9157 31.6457L96.2572 14.8771C96.4078 14.3765 96.5835 14.0512 96.7592 13.901C96.9599 13.7508 97.2862 13.6507 97.7379 13.6507H100.072C100.473 13.6507 100.699 13.8509 100.699 14.2764C100.699 14.4016 100.674 14.5267 100.649 14.6769C100.624 14.827 100.574 15.0273 100.473 15.3026L94.4253 34.6491C94.2747 35.1496 94.099 35.475 93.8983 35.6251C93.6975 35.7753 93.3712 35.8754 92.9446 35.8754H90.7864C90.3096 35.8754 89.9833 35.8003 89.7826 35.6251C89.5818 35.4499 89.4061 35.1246 89.3057 34.624L85.4159 18.4811L81.5512 34.599C81.4257 35.0996 81.2751 35.4249 81.0744 35.6001C80.8736 35.7753 80.5223 35.8504 80.0705 35.8504H77.9123ZM110.16 36.5261C108.855 36.5261 107.55 36.376 106.296 36.0756C105.041 35.7753 104.062 35.4499 103.41 35.0745C103.008 34.8493 102.732 34.599 102.632 34.3738C102.531 34.1485 102.481 33.8982 102.481 33.673V32.3966C102.481 31.871 102.682 31.6207 103.058 31.6207C103.209 31.6207 103.359 31.6457 103.51 31.6958C103.66 31.7458 103.886 31.8459 104.137 31.9461C104.991 32.3215 105.919 32.6218 106.898 32.822C107.902 33.0223 108.88 33.1224 109.884 33.1224C111.465 33.1224 112.695 32.8471 113.548 32.2964C114.401 31.7458 114.853 30.9449 114.853 29.9188C114.853 29.218 114.627 28.6424 114.176 28.1669C113.724 27.6913 112.871 27.2659 111.641 26.8654L108.002 25.7392C106.17 25.1635 104.815 24.3126 103.987 23.1863C103.159 22.0851 102.732 20.8587 102.732 19.5573C102.732 18.5061 102.958 17.5801 103.41 16.7792C103.861 15.9783 104.464 15.2775 105.216 14.7269C105.969 14.1513 106.823 13.7258 107.826 13.4255C108.83 13.1251 109.884 13 110.988 13C111.541 13 112.118 13.025 112.67 13.1001C113.247 13.1752 113.774 13.2753 114.301 13.3754C114.803 13.5006 115.28 13.6257 115.731 13.7759C116.183 13.926 116.535 14.0762 116.785 14.2264C117.137 14.4266 117.388 14.6268 117.538 14.8521C117.689 15.0523 117.764 15.3276 117.764 15.678V16.8543C117.764 17.3799 117.563 17.6552 117.187 17.6552C116.986 17.6552 116.66 17.5551 116.233 17.3548C114.803 16.7041 113.197 16.3788 111.415 16.3788C109.985 16.3788 108.855 16.604 108.077 17.0795C107.299 17.5551 106.898 18.2809 106.898 19.307C106.898 20.0078 107.149 20.6085 107.651 21.084C108.153 21.5595 109.081 22.035 110.411 22.4605L113.975 23.5868C115.782 24.1624 117.087 24.9633 117.865 25.9894C118.643 27.0156 119.019 28.1919 119.019 29.4933C119.019 30.5695 118.793 31.5456 118.367 32.3966C117.915 33.2475 117.313 33.9983 116.535 34.599C115.757 35.2247 114.828 35.6752 113.749 36.0006C112.62 36.3509 111.44 36.5261 110.16 36.5261Z" fill="#252F3E"/>
<path fill-rule="evenodd" clip-rule="evenodd" d="M114.904 48.691C106.647 54.7728 94.6514 58.0014 84.3371 58.0014C69.882 58.0014 56.8573 52.6704 47.0198 43.8106C46.2419 43.1098 46.9445 42.1588 47.8731 42.7094C58.5136 48.8662 71.6387 52.5954 85.2154 52.5954C94.3753 52.5954 104.439 50.6932 113.699 46.7889C115.079 46.1632 116.259 47.6899 114.904 48.691Z" fill="#FF9900"/>
<path fill-rule="evenodd" clip-rule="evenodd" d="M118.342 44.7858C117.288 43.4343 111.365 44.135 108.68 44.4604C107.877 44.5605 107.751 43.8597 108.479 43.3342C113.197 40.0305 120.952 40.9815 121.855 42.0828C122.759 43.209 121.604 50.9426 117.187 54.6467C116.51 55.2224 115.857 54.922 116.158 54.1712C117.162 51.6934 119.396 46.1122 118.342 44.7858Z" fill="#FF9900"/>
</g>
</g>
<defs>
<clipPath id="clip0_116_8695">
<rect width="170" height="72" rx="6" fill="white"/>
</clipPath>
<clipPath id="clip1_116_8695">
<rect width="77" height="45" fill="white" transform="translate(46 13)"/>
</clipPath>
</defs>
</svg>
