<svg width="170" height="72" viewBox="0 0 170 72" fill="none" xmlns="http://www.w3.org/2000/svg">
<g clip-path="url(#clip0_116_8726)">
<rect width="170" height="72" rx="6" fill="#EC696A" fill-opacity="0.08"/>
<path d="M85.3246 27.75C79.2719 27.75 74.9079 31.6875 74.9079 37.5937C74.9079 43.5 79.8202 47.4375 85.8728 47.4375C89.5296 47.4375 92.7533 45.9937 94.7489 43.5602L90.5548 41.143C89.4474 42.3516 87.7643 43.057 85.8728 43.057C83.2467 43.057 81.0154 41.6898 80.1875 39.5023H95.5493C95.67 38.8898 95.7412 38.2555 95.7412 37.5883C95.7412 31.6875 91.3772 27.75 85.3246 27.75ZM80.1382 35.6797C80.8235 33.4977 82.6985 32.125 85.3191 32.125C87.9452 32.125 89.8202 33.4977 90.5 35.6797H80.1382ZM144.36 27.75C138.307 27.75 133.943 31.6875 133.943 37.5937C133.943 43.5 138.855 47.4375 144.908 47.4375C148.565 47.4375 151.788 45.9937 153.784 43.5602L149.59 41.143C148.482 42.3516 146.799 43.057 144.908 43.057C142.282 43.057 140.05 41.6898 139.223 39.5023H154.584C154.705 38.8898 154.776 38.2555 154.776 37.5883C154.776 31.6875 150.412 27.75 144.36 27.75ZM139.179 35.6797C139.864 33.4977 141.739 32.125 144.36 32.125C146.986 32.125 148.861 33.4977 149.541 35.6797H139.179ZM117.781 37.5937C117.781 40.875 119.93 43.0625 123.263 43.0625C125.522 43.0625 127.216 42.0398 128.088 40.3719L132.298 42.7945C130.555 45.693 127.287 47.4375 123.263 47.4375C117.205 47.4375 112.846 43.5 112.846 37.5937C112.846 31.6875 117.211 27.75 123.263 27.75C127.287 27.75 130.549 29.4945 132.298 32.393L128.088 34.8156C127.216 33.1477 125.522 32.125 123.263 32.125C119.935 32.125 117.781 34.3125 117.781 37.5937ZM163 21.7344V46.8906H158.066V21.7344H163ZM28.2577 19L48.5154 54H8L28.2577 19ZM78.9046 21.7344L63.7127 47.9844L48.5208 21.7344H54.2171L63.7127 38.1406L73.2083 21.7344H78.9046ZM111.202 28.2969V33.5961C110.654 33.4375 110.072 33.3281 109.447 33.3281C106.262 33.3281 103.965 35.5156 103.965 38.7969V46.8906H99.0307V28.2969H103.965V33.3281C103.965 30.55 107.205 28.2969 111.202 28.2969Z" fill="black"/>
</g>
<defs>
<clipPath id="clip0_116_8726">
<rect width="170" height="72" rx="6" fill="white"/>
</clipPath>
</defs>
</svg>
