<svg width="170" height="72" viewBox="0 0 170 72" fill="none" xmlns="http://www.w3.org/2000/svg">
<g clip-path="url(#clip0_216_20885)">
<rect width="170" height="72" rx="6" fill="#845EF7" fill-opacity="0.08"/>
<g clip-path="url(#clip1_216_20885)">
<path d="M145.365 47.6215C144.073 47.6215 142.906 47.3202 141.862 46.7177C140.836 46.1155 140.031 45.2827 139.447 44.2197C138.863 43.139 138.571 41.9344 138.571 40.6056C138.571 39.33 138.845 38.1607 139.394 37.0977C139.96 36.017 140.747 35.1667 141.756 34.5465C142.764 33.9088 143.914 33.5899 145.206 33.5899C146.533 33.5899 147.683 33.8822 148.656 34.4668C149.646 35.0514 150.398 35.8666 150.911 36.9117C151.425 37.9393 151.681 39.1262 151.681 40.4728C151.681 40.6322 151.672 40.7917 151.655 40.9512C151.637 41.1105 151.628 41.1991 151.628 41.2168H141.49C141.579 42.4216 142.012 43.3518 142.791 44.0072C143.569 44.6627 144.454 44.9904 145.444 44.9904C146.966 44.9904 148.134 44.2818 148.948 42.8644L151.442 44.0604C150.858 45.1411 150.045 46.0091 149.001 46.6647C147.974 47.3025 146.763 47.6215 145.365 47.6215ZM148.709 38.9846C148.673 38.5593 148.532 38.1253 148.284 37.6824C148.036 37.2394 147.647 36.8674 147.116 36.5662C146.603 36.2474 145.958 36.0879 145.179 36.0879C144.312 36.0879 143.56 36.3536 142.923 36.8851C142.304 37.4166 141.88 38.1165 141.649 38.9846H148.709ZM132.164 47.6215C130.66 47.6215 129.413 47.2759 128.422 46.5849C127.449 45.8763 126.759 44.9904 126.352 43.9274L128.953 42.8113C129.254 43.5377 129.687 44.0869 130.253 44.4589C130.837 44.831 131.474 45.0171 132.164 45.0171C132.889 45.0171 133.482 44.8842 133.942 44.6184C134.402 44.335 134.632 43.9718 134.632 43.5289C134.632 43.1036 134.446 42.7582 134.075 42.4924C133.703 42.209 133.093 41.9609 132.244 41.7483L130.439 41.3232C129.448 41.0928 128.59 40.6676 127.865 40.0476C127.157 39.4098 126.803 38.586 126.803 37.5761C126.803 36.3536 127.307 35.388 128.316 34.6794C129.324 33.953 130.563 33.5899 132.031 33.5899C133.252 33.5899 134.331 33.8468 135.269 34.3604C136.224 34.8742 136.914 35.6185 137.339 36.5928L134.765 37.6824C134.517 37.1332 134.137 36.7256 133.623 36.46C133.11 36.1941 132.553 36.0613 131.952 36.0613C131.368 36.0613 130.855 36.1941 130.412 36.46C129.97 36.7079 129.749 37.0446 129.749 37.4699C129.749 37.8419 129.899 38.143 130.2 38.3734C130.518 38.6037 131.014 38.7985 131.686 38.958L133.65 39.4364C134.977 39.7729 135.968 40.2867 136.622 40.9776C137.277 41.6509 137.604 42.4659 137.604 43.4226C137.604 44.202 137.366 44.9107 136.888 45.5486C136.428 46.1863 135.782 46.6913 134.951 47.0633C134.137 47.4354 133.208 47.6215 132.164 47.6215ZM118.198 47.6215C117.26 47.6215 116.411 47.4354 115.65 47.0633C114.907 46.6736 114.315 46.1421 113.872 45.4688C113.448 44.7779 113.235 43.9984 113.235 43.1303C113.235 41.7483 113.749 40.6587 114.775 39.8615C115.818 39.0642 117.137 38.6657 118.729 38.6657C120.127 38.6657 121.321 38.9049 122.312 39.3831V38.8252C122.312 38.0278 121.993 37.3724 121.356 36.8586C120.737 36.3271 119.985 36.0613 119.1 36.0613C117.756 36.0613 116.677 36.6105 115.863 37.7089L113.634 36.1677C114.253 35.3349 115.022 34.6972 115.942 34.2542C116.88 33.8114 117.933 33.5899 119.1 33.5899C121.029 33.5899 122.515 34.0771 123.559 35.0516C124.62 36.008 125.151 37.3635 125.151 39.1175V47.1962H122.312V45.5752H122.152C121.728 46.1775 121.188 46.6736 120.533 47.0633C119.879 47.4354 119.1 47.6215 118.198 47.6215ZM118.676 45.203C119.331 45.203 119.932 45.0437 120.48 44.7248C121.047 44.3881 121.489 43.9541 121.807 43.4226C122.144 42.8734 122.312 42.2888 122.312 41.6686C121.374 41.1548 120.374 40.8979 119.313 40.8979C118.34 40.8979 117.579 41.1105 117.031 41.5358C116.482 41.9609 116.208 42.5013 116.208 43.1567C116.208 43.7592 116.447 44.2553 116.924 44.645C117.42 45.0171 118.004 45.203 118.676 45.203ZM105.95 47.6213C104.994 47.6213 104.136 47.4177 103.376 47.01C102.633 46.6026 102.075 46.0888 101.704 45.4688H101.544V47.1962H98.7843V28.1685H101.704V33.8822L101.544 35.7157H101.704C102.075 35.1134 102.633 34.6086 103.376 34.201C104.136 33.7935 104.994 33.5897 105.95 33.5897C107.082 33.5897 108.126 33.891 109.081 34.4934C110.055 35.0957 110.824 35.9372 111.39 37.0179C111.974 38.0809 112.266 39.2768 112.266 40.6056C112.266 41.9343 111.974 43.1303 111.39 44.1931C110.824 45.2561 110.055 46.0978 109.081 46.7177C108.126 47.3202 107.082 47.6213 105.95 47.6213ZM105.446 44.9373C106.136 44.9373 106.773 44.7602 107.356 44.4058C107.958 44.0515 108.436 43.5465 108.789 42.8911C109.161 42.2178 109.347 41.456 109.347 40.6056C109.347 39.7552 109.161 39.0022 108.789 38.3468C108.436 37.6735 107.958 37.1597 107.356 36.8054C106.773 36.451 106.136 36.2739 105.446 36.2739C104.756 36.2739 104.11 36.451 103.508 36.8054C102.924 37.1597 102.447 37.6646 102.075 38.3201C101.721 38.9757 101.544 39.7375 101.544 40.6056C101.544 41.4737 101.721 42.2355 102.075 42.8911C102.447 43.5465 102.924 44.0515 103.508 44.4058C104.11 44.7602 104.756 44.9373 105.446 44.9373ZM90.7295 47.6215C89.4378 47.6215 88.2702 47.3202 87.2263 46.7177C86.2001 46.1155 85.3951 45.2827 84.8113 44.2197C84.2275 43.139 83.9356 41.9344 83.9356 40.6056C83.9356 39.33 84.2098 38.1607 84.7583 37.0977C85.3244 36.017 86.1117 35.1667 87.1201 34.5465C88.1286 33.9088 89.2787 33.5899 90.5702 33.5899C91.8971 33.5899 93.0472 33.8822 94.0202 34.4668C95.011 35.0514 95.763 35.8666 96.2759 36.9117C96.789 37.9393 97.0456 39.1262 97.0456 40.4728C97.0456 40.6322 97.0368 40.7917 97.0192 40.9512C97.0013 41.1105 96.9926 41.1991 96.9926 41.2168H86.8548C86.9432 42.4216 87.3766 43.3518 88.1552 44.0072C88.9336 44.6627 89.8183 44.9904 90.8091 44.9904C92.3306 44.9904 93.4983 44.2818 94.3121 42.8644L96.8067 44.0604C96.2229 45.1411 95.4092 46.0091 94.3653 46.6647C93.3391 47.3025 92.1272 47.6215 90.7295 47.6215ZM94.0734 38.9846C94.0379 38.5593 93.8965 38.1253 93.6487 37.6824C93.401 37.2394 93.0118 36.8674 92.4811 36.5662C91.968 36.2474 91.3222 36.0879 90.5436 36.0879C89.6767 36.0879 88.9249 36.3536 88.2879 36.8851C87.6687 37.4166 87.244 38.1165 87.014 38.9846H94.0734ZM75.8336 34.015H78.5936V35.9816H78.7528C79.036 35.3083 79.5491 34.7503 80.2921 34.3073C81.0352 33.8468 81.7959 33.6164 82.5745 33.6164C83.2113 33.6164 83.7333 33.705 84.1402 33.8822V36.9384C83.5386 36.6371 82.8664 36.4866 82.1233 36.4866C81.1678 36.4866 80.3628 36.8586 79.7081 37.6027C79.0713 38.3291 78.7528 39.2237 78.7528 40.2867V47.1962H75.8336V34.015ZM71.6674 31.7827C71.119 31.7827 70.6501 31.5967 70.2608 31.2247C69.8892 30.835 69.7036 30.3653 69.7036 29.8161C69.7036 29.2669 69.8892 28.8064 70.2608 28.4342C70.6501 28.0445 71.119 27.8496 71.6674 27.8496C72.2159 27.8496 72.6758 28.0445 73.0475 28.4342C73.4367 28.8064 73.6313 29.2669 73.6313 29.8161C73.6313 30.3653 73.4367 30.835 73.0475 31.2247C72.6758 31.5966 72.2159 31.7827 71.6674 31.7827ZM70.2077 34.015H73.1269V47.1962H70.2077V34.015ZM56.9106 28.1685H68.4549V31.0121H59.8828V36.4864H67.6056V39.3034H59.8828V47.1962H56.9106V28.1685Z" fill="#5E5E5E"/>
<path d="M28.2188 52.927C29.7176 53.5306 31.3101 53.8675 32.9247 53.9224C35.0963 54.0001 37.2556 53.5643 39.2276 52.6503C36.9575 51.756 34.8737 50.4459 33.083 48.7871C31.9337 50.6299 30.2335 52.0853 28.2188 52.927Z" fill="#FF9100"/>
<path d="M33.0826 48.7877C29.0353 45.0394 26.58 39.6141 26.7874 33.6633C26.7942 33.4703 26.8044 33.2772 26.8163 33.0841C25.0188 32.6174 23.1297 32.6371 21.3424 33.1413C20.2273 35.0949 19.6048 37.2913 19.5286 39.5402C19.319 45.5514 22.9516 50.8036 28.2185 52.9276C30.2293 52.086 31.929 50.6393 33.0826 48.7877Z" fill="#FFC400"/>
<path d="M33.0828 48.7876C34.0237 47.2796 34.5944 45.5117 34.6609 43.6071C34.8355 38.5967 31.4719 34.2866 26.8163 33.084C26.8045 33.2771 26.7944 33.4701 26.7876 33.6632C26.5801 39.6139 29.0353 45.0392 33.0828 48.7876Z" fill="#FF9100"/>
<path d="M34.1399 19C31.4887 21.1271 29.3948 23.9317 28.128 27.1627C27.3858 29.0566 26.9425 31.0546 26.814 33.085C31.4694 34.2876 34.8331 38.5977 34.6583 43.6081C34.5959 45.4437 34.0517 47.2306 33.0804 48.7886C34.8707 50.448 36.9546 51.7582 39.225 52.6518C43.8293 50.5206 47.0961 45.9345 47.2854 40.5101C47.4078 36.9955 46.0594 33.8632 44.1539 31.2193C42.1417 28.4233 34.1399 19 34.1399 19Z" fill="#DD2C00"/>
</g>
</g>
<defs>
<clipPath id="clip0_216_20885">
<rect width="170" height="72" rx="6" fill="white"/>
</clipPath>
<clipPath id="clip1_216_20885">
<rect width="133" height="35" fill="white" transform="translate(19 19)"/>
</clipPath>
</defs>
</svg>
