<svg width="209" height="55" viewBox="0 0 209 55" fill="none" xmlns="http://www.w3.org/2000/svg">
<g clip-path="url(#clip0_518_1936)">
<path d="M94.982 48.5714C94.982 51.8214 97.0422 53.9999 99.9548 53.9999C102.868 53.9999 104.928 51.8214 104.928 48.5714V21.1071H107.769C110.327 21.1071 112.529 19.8928 112.529 16.8214C112.529 13.7142 110.327 12.5356 107.769 12.5356H104.928V6.71422C104.928 3.46422 102.868 1.28564 99.9548 1.28564C97.0422 1.28564 94.982 3.46422 94.982 6.71422V12.5356H92.7797C90.2933 12.5356 88.4107 14.3571 88.4107 16.8214C88.4107 19.4642 90.0801 21.1071 92.7797 21.1071H94.982V48.5714ZM27.3864 6.60707C27.3864 3.21422 25.1841 1.32136 22.2004 1.32136C19.2167 1.32136 17.0144 3.21422 17.0144 6.60707V39.3571C17.0144 41.5356 17.0144 45.0714 13.1427 45.0714C10.0168 45.0714 7.60145 42.5714 4.83085 42.5714C2.55753 42.5714 0.959106 44.8928 0.959106 46.7142C0.959106 52.6071 8.91571 54.4642 13.711 54.4642C19.9981 54.4642 27.4219 51.4642 27.4219 40.0714V6.60707H27.3864ZM30.157 40.1428C30.157 48.8214 36.0534 54.3928 46.5675 54.3928C57.0816 54.3928 62.978 48.8214 62.978 40.1428V22.4999C62.978 19.2499 60.9178 17.0714 58.0051 17.0714C55.0924 17.0714 53.0322 19.2499 53.0322 22.4999V39.9285C53.0322 43.9999 49.9064 46.2499 46.603 46.2499C43.2641 46.2499 40.1738 43.9999 40.1738 39.9285V22.4999C40.1738 19.2499 38.1136 17.0714 35.2009 17.0714C32.2882 17.0714 30.228 19.2499 30.228 22.4999V40.1428H30.157ZM90.8971 23.7499C90.8971 25.9999 89.1566 28.1071 86.8122 28.1071C84.9297 28.1071 81.129 25.2499 77.8966 25.2499C76.085 25.2499 74.5221 26.0714 74.5221 27.9642C74.5221 32.4999 91.8206 31.8214 91.8206 42.9642C91.8206 49.4642 86.2084 54.4642 77.6479 54.4642C72.0357 54.4642 63.7239 51.3214 63.7239 46.9285C63.7239 45.4285 65.2513 42.5714 68.0219 42.5714C71.8936 42.5714 73.6341 45.8928 78.3228 45.8928C81.3776 45.8928 82.2656 44.9285 82.2656 43.1071C82.2656 38.6428 64.9671 39.3214 64.9671 28.1071C64.9671 21.3214 70.5794 16.7142 78.4649 16.7142C83.3668 16.6785 90.8971 18.9285 90.8971 23.7499Z" fill="#1274C0"/>
<path d="M198.453 48.1785C198.453 51.4285 200.549 53.607 203.497 53.607C206.445 53.607 208.541 51.4285 208.541 48.1785V6.35704C208.541 3.10704 206.445 0.928467 203.497 0.928467C200.549 0.928467 198.453 3.10704 198.453 6.35704V48.1785ZM145.599 6.35704C145.599 3.10704 143.503 0.928467 140.555 0.928467C137.607 0.928467 135.511 3.10704 135.511 6.35704V19.6428C132.847 17.3928 129.437 16.2499 125.92 16.2499C115.087 16.2499 109.688 26.107 109.688 35.607C109.688 44.8213 116.117 53.9999 126.276 53.9999C129.721 53.9999 133.628 52.4999 135.511 49.4999C136.15 52.0713 137.749 53.5713 140.555 53.5713C143.503 53.5713 145.599 51.3928 145.599 48.1428V6.35704ZM135.511 34.857C135.511 39.607 133.131 45.0356 127.59 45.0356C122.333 45.0356 119.74 39.7499 119.74 35.1785C119.74 30.5713 122.333 25.2142 127.59 25.2142C132.989 25.2142 135.511 30.107 135.511 34.857ZM148.369 48.1785C148.369 51.4285 150.465 53.607 153.413 53.607C156.361 53.607 158.457 51.4285 158.457 48.1785V22.107C158.457 18.857 156.361 16.6785 153.413 16.6785C150.465 16.6785 148.369 18.857 148.369 22.107V48.1785ZM153.413 1.9999C150.394 1.9999 147.73 4.57132 147.73 7.35704C147.73 10.357 150.394 12.9999 153.413 12.9999C156.575 12.9999 159.097 10.4285 159.097 7.35704C159.097 4.53561 156.433 1.9999 153.413 1.9999ZM195.683 23.0356C195.683 20.5356 195.683 16.6428 190.852 16.6428C188.401 16.6428 186.305 18.357 186.021 20.7142C183.783 17.6428 180.125 16.2499 176.431 16.2499C167.195 16.2499 159.771 24.4642 159.771 35.1785C159.771 46.1785 166.982 53.9999 176.431 53.9999C180.267 53.9999 183.428 52.4285 186.021 49.4285C186.732 51.9999 187.904 53.5713 190.852 53.5713C195.683 53.5713 195.683 49.6785 195.683 47.1785V23.0356ZM169.859 35.2142C169.859 30.5356 172.31 25.2499 177.851 25.2499C183.179 25.2499 185.63 30.5356 185.63 35.2142C185.63 39.8928 183.108 45.0713 177.851 45.0713C172.381 45.0356 169.859 39.8928 169.859 35.2142Z" fill="#FF6C00"/>
</g>
<defs>
<clipPath id="clip0_518_1936">
<rect width="208.861" height="55" fill="white"/>
</clipPath>
</defs>
</svg>
