<svg width="200" height="78" viewBox="0 0 200 78" fill="none" xmlns="http://www.w3.org/2000/svg">
<path d="M113.989 2.92805C110.259 4.79706 108.642 8.28587 108.642 17.7555C108.642 17.7555 110.507 15.8865 113.492 14.7651C115.668 13.9552 117.222 12.8961 118.341 12.0862C121.574 9.65648 122.071 6.72837 122.071 1.61974C122.009 1.61974 116.911 1.30824 113.989 2.92805Z" fill="#FBBD71"/>
<path d="M91.1715 5.10893C87.9386 7.78784 87.1303 12.3981 87.1303 12.3981L76.6853 52.5195L68.1055 19.6872C67.2973 16.1984 65.6808 11.8997 63.2561 8.90925C60.2718 5.10893 54.0546 4.85973 53.3085 4.85973C52.7489 4.85973 46.5939 5.10893 43.3609 8.90925C40.9362 11.8997 39.3197 16.1984 38.5114 19.6872L30.429 52.5195L19.984 12.3981C19.984 12.3981 19.1758 8.09934 15.9428 5.10893C10.8447 0.498705 3.32178 1.62011 3.32178 1.62011L23.217 76.692C23.217 76.692 29.6829 77.2527 32.9159 75.6329C37.2058 73.4524 39.3818 71.8949 41.8066 61.6153C44.2313 52.4572 50.6972 25.7926 51.1946 23.9236C51.4433 23.1137 52.0029 20.684 53.6193 20.684C55.2358 20.684 55.7954 22.8645 56.0441 23.9236C56.6036 25.7926 63.0074 52.4572 65.4321 61.6153C68.1055 71.8326 69.9707 73.4524 74.3228 75.6329C77.5558 77.2527 84.0217 76.692 84.0217 76.692L103.793 1.62011C103.793 1.62011 96.2697 0.561006 91.1715 5.10893ZM122.009 13.7064C122.009 13.7064 120.641 15.5754 117.968 17.1952C116.103 18.2543 114.486 18.815 112.621 19.8741C109.388 21.4939 108.58 23.1137 108.58 25.5434V76.4428C108.58 76.4428 113.678 77.0035 116.911 75.3837C121.201 73.2032 122.009 71.085 122.009 61.9268V16.6968V13.7064ZM171.436 39.3118L196.678 1.86931C196.678 1.86931 186.233 0.000302792 180.824 4.85973C177.343 7.85014 173.861 13.4572 173.861 13.4572L164.722 26.914C164.162 27.7239 163.665 28.2846 162.856 28.2846C162.048 28.2846 161.24 27.4747 160.991 26.914L151.852 13.4572C151.852 13.4572 148.122 8.09934 144.889 4.85973C139.542 0.000302792 129.035 1.86931 129.035 1.86931L153.468 39.2495L128.475 76.6297C128.475 76.6297 139.48 78.0003 144.889 73.1409C148.37 70.1505 151.603 65.0418 151.603 65.0418L160.743 51.585C161.302 50.7751 161.8 50.2144 162.608 50.2144C163.416 50.2144 164.224 51.0243 164.473 51.585L173.612 65.0418C173.612 65.0418 177.094 70.1505 180.327 73.1409C185.674 78.0003 196.43 76.6297 196.43 76.6297L171.436 39.3118Z" fill="white"/>
</svg>
