<svg width="204" height="103" viewBox="0 0 204 103" fill="none" xmlns="http://www.w3.org/2000/svg">
<path fill-rule="evenodd" clip-rule="evenodd" d="M101.624 103C157.749 103 203.247 79.9418 203.247 51.5C203.247 23.0582 157.749 0 101.624 0C45.4995 0 0 23.0582 0 51.5C0 79.9418 45.4995 103 101.624 103Z" fill="#6E81B6"/>
<path fill-rule="evenodd" clip-rule="evenodd" d="M122.21 68.1467L127.251 42.2031C128.388 36.3477 127.442 31.9803 124.44 29.2203C121.531 26.55 116.594 25.2511 109.346 25.2511H100.616L103.113 12.3973C103.16 12.1581 103.153 11.9115 103.094 11.6752C103.034 11.4388 102.923 11.2187 102.768 11.0305C102.613 10.8423 102.418 10.6908 102.198 10.5867C101.977 10.4827 101.736 10.4287 101.493 10.4287H89.4437C88.6523 10.4287 87.9727 10.9903 87.8216 11.7669L82.4675 39.3092C81.9809 36.21 80.7815 33.5459 78.862 31.3475C75.3278 27.3021 69.7378 25.2511 62.2455 25.2511H38.8924C38.101 25.2511 37.4214 25.8127 37.2703 26.5881L26.4355 82.3387C26.3409 82.8241 26.4674 83.323 26.782 83.7039C27.0954 84.0861 27.5623 84.3061 28.0576 84.3061H40.2011C40.9925 84.3061 41.672 83.7445 41.8232 82.9666L44.4443 69.4824H53.4838C58.2271 69.4824 62.2135 68.9688 65.325 67.9562C68.5065 66.9215 71.4348 65.1667 74.0154 62.7508C76.1008 60.835 77.8236 58.6894 79.1496 56.3755L76.9856 67.5138C76.8909 67.9992 77.0175 68.5006 77.3321 68.8791C77.6455 69.2612 78.1137 69.4812 78.6077 69.4812H90.6566C91.4479 69.4812 92.1275 68.9196 92.2786 68.1442L98.2251 37.5421H106.493C110.016 37.5421 111.048 38.2438 111.33 38.5448C111.584 38.8201 112.112 39.7897 111.519 42.8458L106.726 67.5126C106.68 67.7517 106.688 67.9981 106.748 68.2341C106.808 68.47 106.92 68.6898 107.075 68.8777C107.23 69.0656 107.424 69.217 107.644 69.3211C107.864 69.4252 108.105 69.4795 108.348 69.48H120.589C120.972 69.4807 121.343 69.3481 121.639 69.1047C121.935 68.8614 122.137 68.5227 122.21 68.1467ZM66.3486 46.7106C65.5916 50.5999 64.1662 53.3734 62.1091 54.9549C60.02 56.566 56.6788 57.3819 52.1775 57.3819H46.7951L50.6869 37.3541H57.6459C62.7579 37.3541 64.8175 38.4465 65.6445 39.362C66.791 40.6327 67.0343 43.1752 66.3486 46.7106ZM172.963 31.3475C169.43 27.3021 163.84 25.2511 156.347 25.2511H132.994C132.202 25.2511 131.523 25.8127 131.372 26.5881L120.539 82.3387C120.443 82.8241 120.569 83.323 120.884 83.7039C121.198 84.0849 121.667 84.3061 122.158 84.3061H134.303C135.096 84.3061 135.774 83.7445 135.925 82.9666L138.546 69.4824H147.587C152.331 69.4824 156.314 68.9688 159.427 67.9562C162.61 66.9215 165.538 65.1667 168.117 62.7508C170.27 60.7736 172.041 58.5506 173.383 56.1506C174.725 53.7507 175.687 51.0742 176.249 48.1938C177.629 41.0898 176.524 35.4223 172.963 31.3475ZM161.14 46.7106C160.382 50.5999 158.956 53.3734 156.902 54.9549C154.811 56.566 151.47 57.3819 146.97 57.3819H141.586L145.477 37.3541H152.437C157.549 37.3541 159.609 38.4465 160.437 39.362C161.581 40.6327 161.826 43.1752 161.14 46.7106Z" fill="white"/>
<path fill-rule="evenodd" clip-rule="evenodd" d="M57.6481 35.6969C62.2613 35.6969 65.3371 36.5485 66.8744 38.2517C68.4104 39.9549 68.7766 42.8796 67.973 47.022C67.1324 51.3365 65.5153 54.416 63.119 56.2618C60.7227 58.1075 57.0755 59.0292 52.1797 59.0292H44.7919L49.3263 35.6969H57.6481ZM28.0586 82.6489H40.2021L43.0838 67.8277H53.486C58.0758 67.8277 61.8521 67.3448 64.816 66.3801C67.78 65.4155 70.4749 63.7996 72.8994 61.5299C74.9344 59.6608 76.5811 57.5963 77.8419 55.3401C79.1015 53.084 79.9961 50.5955 80.5257 47.8736C81.8111 41.2649 80.8415 36.1172 77.6195 32.4306C74.3986 28.7428 69.2731 26.8996 62.2477 26.8996H38.8946L28.0586 82.6489ZM89.4447 12.0771H101.494L98.6132 26.8996H109.348C116.1 26.8996 120.761 28.0768 123.324 30.4325C125.888 32.7882 126.656 36.6063 125.631 41.8842L120.59 67.8277H108.349L113.142 43.1597C113.686 40.353 113.487 38.4397 112.54 37.4185C111.592 36.3986 109.576 35.8874 106.494 35.8874H96.8645L90.6576 67.8277H78.6087L89.4447 12.0771ZM152.439 35.6969C157.053 35.6969 160.127 36.5485 161.666 38.2517C163.202 39.9549 163.567 42.8796 162.763 47.022C161.925 51.3365 160.308 54.416 157.91 56.2618C155.515 58.1075 151.867 59.0292 146.973 59.0292H139.586L144.119 35.6969H152.439ZM122.847 82.6489H134.992L137.873 67.8277H148.275C152.866 67.8277 156.642 67.3448 159.606 66.3801C162.57 65.4155 165.265 63.7996 167.689 61.5299C169.724 59.6608 171.371 57.5963 172.631 55.3401C173.89 53.084 174.786 50.5955 175.317 47.8736C176.601 41.2649 175.632 36.1172 172.411 32.4306C169.187 28.7428 164.063 26.8996 157.038 26.8996H133.685L122.847 82.6489Z" fill="black"/>
</svg>
