<svg width="132" height="150" viewBox="0 0 132 150" fill="none" xmlns="http://www.w3.org/2000/svg">
<g clip-path="url(#clip0_116_6464)">
<path d="M115.378 29.4557C115.275 28.7057 114.615 28.2906 114.07 28.2449C113.527 28.1997 102.015 27.3495 102.015 27.3495C102.015 27.3495 94.0198 19.4411 93.1423 18.5658C92.2643 17.691 90.5495 17.9571 89.8839 18.1523C89.7859 18.181 88.1371 18.6881 85.4097 19.529C82.7391 11.8718 78.0257 4.83515 69.7337 4.83515C69.5048 4.83515 69.2692 4.8444 69.0336 4.85775C66.6753 1.75039 63.7541 0.400391 61.2309 0.400391C41.9149 0.400391 32.6867 24.4595 29.7933 36.6855C22.2875 39.0028 16.9555 40.6502 16.2744 40.8634C12.0849 42.1728 11.9524 42.3043 11.4023 46.2377C10.9882 49.2156 0.026123 133.683 0.026123 133.683L85.4453 149.629L131.728 139.653C131.728 139.653 115.481 30.2057 115.378 29.4557ZM80.6886 20.9838L73.4608 23.2127C73.4634 22.7052 73.466 22.2059 73.466 21.6598C73.466 16.9009 72.8029 13.0692 71.7393 10.0317C76.0118 10.566 78.8573 15.4096 80.6886 20.9838ZM66.4392 10.9754C67.6271 13.941 68.3994 18.197 68.3994 23.9401C68.3994 24.2339 68.3968 24.5026 68.3942 24.7744C63.6938 26.225 58.586 27.8 53.4669 29.3802C56.3412 18.3274 61.7289 12.9891 66.4392 10.9754ZM60.7003 5.56255C61.534 5.56255 62.3739 5.84457 63.1777 6.39577C56.9872 9.29816 50.3518 16.6081 47.5496 31.2059L35.7502 34.847C39.0323 23.7125 46.8263 5.56255 60.7003 5.56255Z" fill="#95BF46"/>
<path d="M114.07 28.2446C113.527 28.1994 102.015 27.3493 102.015 27.3493C102.015 27.3493 94.0198 19.4409 93.1423 18.5655C92.8139 18.2398 92.371 18.0729 91.9081 18.001L85.4495 149.628L131.728 139.653C131.728 139.653 115.481 30.2054 115.378 29.4554C115.275 28.7054 114.615 28.2904 114.07 28.2446Z" fill="#5E8E3E"/>
<path d="M69.7339 53.7255L64.027 70.6395C64.027 70.6395 59.027 67.9806 52.8979 67.9806C43.9124 67.9806 43.4603 73.599 43.4603 75.0147C43.4603 82.7397 63.6708 85.6996 63.6708 103.794C63.6708 118.03 54.6085 127.197 42.3894 127.197C27.7265 127.197 20.228 118.105 20.228 118.105L24.1541 105.18C24.1541 105.18 31.8619 111.773 38.3659 111.773C42.6158 111.773 44.3445 108.44 44.3445 106.004C44.3445 95.9269 27.7636 95.4774 27.7636 78.9193C27.7636 64.9832 37.8029 51.4971 58.068 51.4971C65.8764 51.4971 69.7339 53.7255 69.7339 53.7255Z" fill="white"/>
</g>
<defs>
<clipPath id="clip0_116_6464">
<rect width="132" height="150" fill="white"/>
</clipPath>
</defs>
</svg>
