<svg width="170" height="72" viewBox="0 0 170 72" fill="none" xmlns="http://www.w3.org/2000/svg">
<g clip-path="url(#clip0_116_8383)">
<rect width="170" height="72" rx="6" fill="#845EF7" fill-opacity="0.08"/>
<path fill-rule="evenodd" clip-rule="evenodd" d="M85.4655 56C107.262 56 124.931 47.0454 124.931 36C124.931 24.9546 107.262 16 85.4655 16C63.6697 16 46 24.9546 46 36C46 47.0454 63.6697 56 85.4655 56Z" fill="#6E81B6"/>
<path fill-rule="evenodd" clip-rule="evenodd" d="M93.4605 42.4636L95.4181 32.3884C95.86 30.1144 95.4925 28.4184 94.3266 27.3465C93.1971 26.3095 91.2796 25.8051 88.4649 25.8051H85.0747L86.0444 20.8133C86.0626 20.7204 86.06 20.6247 86.0367 20.5329C86.0135 20.4411 85.9703 20.3556 85.9101 20.2825C85.8499 20.2095 85.7743 20.1506 85.6887 20.1102C85.6031 20.0698 85.5096 20.0488 85.415 20.0488H80.7358C80.4284 20.0488 80.1645 20.2669 80.1058 20.5685L78.0266 31.2646C77.8376 30.061 77.3718 29.0264 76.6264 28.1726C75.2539 26.6016 73.083 25.8051 70.1734 25.8051H61.1042C60.7968 25.8051 60.5329 26.0232 60.4742 26.3243L56.2666 47.975C56.2298 48.1636 56.279 48.3573 56.4011 48.5052C56.5228 48.6537 56.7042 48.7391 56.8965 48.7391H61.6124C61.9198 48.7391 62.1837 48.521 62.2424 48.2189L63.2603 42.9823H66.7707C68.6128 42.9823 70.1609 42.7828 71.3693 42.3896C72.6048 41.9878 73.742 41.3063 74.7442 40.3681C75.5541 39.6241 76.2231 38.7909 76.7381 37.8923L75.8977 42.2178C75.8609 42.4063 75.9101 42.601 76.0322 42.748C76.1539 42.8964 76.3358 42.9818 76.5276 42.9818H81.2068C81.5141 42.9818 81.778 42.7638 81.8367 42.4626L84.146 30.5783H87.3568C88.725 30.5783 89.1259 30.8508 89.2351 30.9677C89.3339 31.0746 89.5391 31.4512 89.3086 32.638L87.4475 42.2173C87.4296 42.3102 87.4325 42.4059 87.4559 42.4975C87.4793 42.5892 87.5226 42.6745 87.5828 42.7475C87.6429 42.8205 87.7184 42.8792 87.8039 42.9197C87.8894 42.9601 87.9828 42.9812 88.0774 42.9814H92.831C92.9798 42.9817 93.124 42.9301 93.2388 42.8356C93.3537 42.7411 93.4321 42.6096 93.4605 42.4636ZM71.7668 34.1389C71.4728 35.6493 70.9193 36.7264 70.1204 37.3406C69.3091 37.9662 68.0115 38.2831 66.2635 38.2831H64.1732L65.6846 30.5053H68.3871C70.3724 30.5053 71.1722 30.9295 71.4934 31.2851C71.9386 31.7785 72.0331 32.7659 71.7668 34.1389ZM113.17 28.1726C111.798 26.6016 109.627 25.8051 106.718 25.8051H97.6486C97.3408 25.8051 97.0774 26.0232 97.0187 26.3243L92.8115 47.975C92.7742 48.1636 92.8234 48.3573 92.9456 48.5052C93.0677 48.6532 93.2495 48.7391 93.4404 48.7391H98.1568C98.4647 48.7391 98.7281 48.521 98.7868 48.2189L99.8047 42.9823H103.316C105.158 42.9823 106.705 42.7828 107.914 42.3896C109.15 41.9878 110.287 41.3063 111.289 40.3681C112.125 39.6002 112.812 38.7369 113.334 37.8049C113.855 36.8729 114.228 35.8335 114.446 34.7149C114.982 31.9561 114.553 29.7551 113.17 28.1726ZM108.579 34.1389C108.285 35.6493 107.731 36.7264 106.933 37.3406C106.121 37.9662 104.824 38.2831 103.076 38.2831H100.985L102.496 30.5053H105.199C107.185 30.5053 107.984 30.9295 108.306 31.2851C108.75 31.7785 108.845 32.7659 108.579 34.1389Z" fill="white"/>
<path fill-rule="evenodd" clip-rule="evenodd" d="M68.3866 29.8641C70.1781 29.8641 71.3726 30.1949 71.9696 30.8563C72.5661 31.5177 72.7083 32.6535 72.3962 34.2622C72.0698 35.9378 71.4418 37.1337 70.5112 37.8505C69.5806 38.5673 68.1642 38.9252 66.2629 38.9252H63.3939L65.1548 29.8641H68.3866ZM56.8955 48.0979H61.6114L62.7305 42.3421H66.7702C68.5527 42.3421 70.0192 42.1546 71.1702 41.78C72.3213 41.4053 73.3679 40.7778 74.3094 39.8964C75.0997 39.1705 75.7392 38.3688 76.2288 37.4926C76.718 36.6164 77.0654 35.65 77.2711 34.593C77.7703 32.0264 77.3937 30.0273 76.1424 28.5957C74.8916 27.1635 72.9011 26.4477 70.1728 26.4477H61.1037L56.8955 48.0979ZM80.7348 20.6914H85.414L84.2954 26.4477H88.4644C91.0863 26.4477 92.8964 26.9049 93.8919 27.8197C94.8873 28.7345 95.1856 30.2173 94.7876 32.267L92.83 42.3421H88.0764L89.9376 32.7623C90.149 31.6723 90.0717 30.9293 89.7037 30.5327C89.3358 30.1366 88.5527 29.9381 87.3558 29.9381H83.6163L81.2058 42.3421H76.5266L80.7348 20.6914ZM105.199 29.8641C106.99 29.8641 108.184 30.1949 108.782 30.8563C109.378 31.5177 109.52 32.6535 109.208 34.2622C108.882 35.9378 108.254 37.1337 107.323 37.8505C106.393 38.5673 104.976 38.9252 103.076 38.9252H100.207L101.967 29.8641H105.199ZM93.7067 48.0979H98.4231L99.5417 42.3421H103.581C105.364 42.3421 106.831 42.1546 107.982 41.78C109.133 41.4053 110.18 40.7778 111.121 39.8964C111.911 39.1705 112.551 38.3688 113.04 37.4926C113.529 36.6164 113.877 35.65 114.083 34.593C114.582 32.0264 114.205 30.0273 112.955 28.5957C111.703 27.1635 109.713 26.4477 106.985 26.4477H97.9153L93.7067 48.0979Z" fill="black"/>
</g>
<defs>
<clipPath id="clip0_116_8383">
<rect width="170" height="72" rx="6" fill="white"/>
</clipPath>
</defs>
</svg>
