<svg width="25" height="24" viewBox="0 0 25 24" fill="none" xmlns="http://www.w3.org/2000/svg">
<path d="M2.41992 10.4609V14.9297C3.9473 16.4417 7.43208 17.2798 12.4999 17.2798C17.5678 17.2798 21.0525 16.4417 22.5799 14.9297V10.4609C20.9201 11.5909 17.9066 12.4798 12.4999 12.4798C7.09322 12.4798 4.07977 11.5909 2.41992 10.4609Z" fill="white"/>
<path d="M2.41992 16.2207V20.6396C2.41992 22.8456 7.49062 23.9996 12.4999 23.9996C17.5092 23.9996 22.5799 22.8456 22.5799 20.6396V16.2207C20.9201 17.3506 17.9066 18.2396 12.4999 18.2396C7.09322 18.2396 4.07977 17.3506 2.41992 16.2207Z" fill="white"/>
<path d="M12.4999 0C7.49062 0 2.41992 1.15392 2.41992 3.36V3.40992C3.9473 4.92192 7.43208 5.76 12.4999 5.76C17.5678 5.76 21.0525 4.92192 22.5799 3.40992V3.36C22.5799 1.15392 17.5092 0 12.4999 0Z" fill="white"/>
<path d="M2.41992 4.70117V9.16995C3.9473 10.682 7.43208 11.52 12.4999 11.52C17.5678 11.52 21.0525 10.682 22.5799 9.16995V4.70117C20.9201 5.83109 17.9066 6.72003 12.4999 6.72003C7.09322 6.72003 4.07977 5.83109 2.41992 4.70117Z" fill="white"/>
</svg>
