<svg width="25" height="24" viewBox="0 0 25 24" fill="none" xmlns="http://www.w3.org/2000/svg">
<path d="M21.0088 1.5H3.99128C3.64525 1.50025 3.31346 1.63782 3.06878 1.8825C2.8241 2.12718 2.68653 2.45897 2.68628 2.805V12.9713H22.3138V2.805C22.3135 2.45897 22.176 2.12718 21.9313 1.8825C21.6866 1.63782 21.3548 1.50025 21.0088 1.5ZM7.32128 9.83625H8.12753C8.18541 9.83704 8.24287 9.82642 8.29664 9.80497C8.35041 9.78353 8.39942 9.7517 8.44087 9.71129C8.48231 9.67089 8.51539 9.62271 8.5382 9.56951C8.561 9.51631 8.57309 9.45913 8.57378 9.40125C8.54373 9.1322 8.6369 8.85338 8.9488 8.84625C9.26239 8.85485 9.35293 9.13059 9.32376 9.40125C9.32182 9.71688 9.19481 10.0189 8.97057 10.241C8.74633 10.4631 8.44316 10.5873 8.12753 10.5863H7.32128C7.00564 10.5873 6.70247 10.4631 6.47823 10.241C6.25399 10.0189 6.12697 9.71688 6.12503 9.40125V6.6225C6.12619 6.30628 6.25283 6.00345 6.47713 5.78055C6.70144 5.55765 7.00506 5.43292 7.32128 5.43375H8.12753C8.44375 5.43292 8.74737 5.55766 8.97167 5.78056C9.19598 6.00346 9.32262 6.30628 9.32378 6.6225C9.32186 6.72069 9.28151 6.81421 9.21139 6.88297C9.14127 6.95174 9.04698 6.99025 8.94877 6.99025C8.85056 6.99025 8.75627 6.95173 8.68615 6.88296C8.61604 6.81419 8.57569 6.72067 8.57378 6.62248C8.57349 6.56431 8.56169 6.50678 8.53907 6.45319C8.51644 6.3996 8.48344 6.35102 8.44197 6.31024C8.40049 6.26946 8.35135 6.23729 8.29738 6.21558C8.24342 6.19387 8.18569 6.18305 8.12753 6.18375H7.32128C7.26311 6.18306 7.20539 6.19388 7.15142 6.21559C7.09746 6.2373 7.04832 6.26947 7.00684 6.31025C6.96536 6.35103 6.93236 6.39962 6.90974 6.45321C6.88712 6.5068 6.87532 6.56433 6.87503 6.6225V9.40125C6.87571 9.45913 6.88781 9.51631 6.91061 9.56951C6.93342 9.62271 6.9665 9.67089 7.00794 9.71129C7.04939 9.7517 7.0984 9.78353 7.15217 9.80497C7.20593 9.82642 7.2634 9.83704 7.32128 9.83625ZM14.4838 10.2113C14.482 10.3095 14.4417 10.4032 14.3716 10.4721C14.3015 10.541 14.2071 10.5796 14.1088 10.5796C14.0105 10.5796 13.9161 10.541 13.8459 10.4721C13.7758 10.4032 13.7355 10.3095 13.7338 10.2112V6.66L12.9988 7.785C12.948 7.86071 12.8793 7.92275 12.7989 7.96565C12.7185 8.00855 12.6287 8.03099 12.5375 8.03099C12.4464 8.03099 12.3566 8.00855 12.2762 7.96565C12.1957 7.92275 12.1271 7.86071 12.0763 7.785L11.345 6.66V10.2113C11.345 10.3107 11.3055 10.4061 11.2352 10.4764C11.1649 10.5467 11.0695 10.5863 10.97 10.5863C10.8706 10.5863 10.7752 10.5467 10.7049 10.4764C10.6345 10.4061 10.595 10.3107 10.595 10.2113V5.985C10.5938 5.86655 10.6311 5.75092 10.7014 5.65556C10.7716 5.56019 10.871 5.49029 10.9845 5.45641C11.098 5.42253 11.2195 5.42651 11.3305 5.46775C11.4416 5.50899 11.5362 5.58524 11.6 5.685L12.5375 7.1175L13.475 5.685C13.5405 5.58739 13.6355 5.51327 13.7461 5.47348C13.8567 5.43368 13.9771 5.43029 14.0898 5.4638C14.2025 5.49731 14.3015 5.56597 14.3724 5.65974C14.4432 5.75351 14.4823 5.86749 14.4838 5.98503V10.2113ZM18.5225 6.93C18.5214 6.98187 18.5095 7.03295 18.4877 7.08004C18.4659 7.12713 18.4347 7.16923 18.3959 7.2037C18.3571 7.23818 18.3116 7.26429 18.2623 7.28042C18.213 7.29654 18.1609 7.30233 18.1092 7.29742C18.0576 7.29251 18.0075 7.27701 17.9621 7.25189C17.9167 7.22676 17.877 7.19255 17.8454 7.15139C17.8138 7.11023 17.791 7.063 17.7785 7.01265C17.7659 6.96229 17.7639 6.9099 17.7725 6.85873C17.7735 6.76094 17.7532 6.66411 17.713 6.57493C17.6729 6.48574 17.6139 6.40632 17.5401 6.34215C17.4663 6.27798 17.3795 6.23059 17.2856 6.20324C17.1917 6.17589 17.093 6.16924 16.9963 6.18375C16.1433 6.1827 16.1399 7.6728 16.9963 7.67247C19.0235 7.58467 19.0232 10.6741 16.9963 10.5862C16.624 10.5813 16.2688 10.4289 16.0087 10.1624C15.7486 9.89602 15.6048 9.53732 15.6088 9.165C15.6107 9.06681 15.651 8.97329 15.7212 8.90453C15.7913 8.83576 15.8856 8.79725 15.9838 8.79725C16.082 8.79725 16.1763 8.83578 16.2464 8.90454C16.3165 8.97331 16.3569 9.06683 16.3588 9.16502C16.3565 9.25096 16.3713 9.3365 16.4021 9.41675C16.4329 9.49699 16.4793 9.57038 16.5385 9.63271C16.5977 9.69505 16.6686 9.74511 16.7471 9.78003C16.8257 9.81495 16.9103 9.83406 16.9963 9.83625C17.9437 9.96021 18.0658 8.46975 17.135 8.42247C16.9276 8.43712 16.7194 8.40641 16.5251 8.33246C16.3307 8.25852 16.1548 8.14312 16.0095 7.9943C15.8643 7.84547 15.7532 7.66679 15.684 7.47069C15.6148 7.27458 15.5891 7.06575 15.6088 6.85872C15.6518 4.91513 18.5713 4.98295 18.5225 6.93Z" fill="white"/>
<path d="M2.68628 13.7217V15.7729C2.68638 16.1194 2.82379 16.4516 3.06839 16.6969C3.313 16.9422 3.64486 17.0806 3.99128 17.0817H20.8138C21.0108 17.0817 21.2059 17.043 21.3879 16.9676C21.5699 16.8922 21.7353 16.7818 21.8746 16.6425C22.0139 16.5032 22.1243 16.3378 22.1997 16.1558C22.2751 15.9738 22.3138 15.7787 22.3138 15.5817V13.7217H2.68628ZM11.4275 15.0267H13.5763C13.6748 15.0281 13.7687 15.0683 13.8379 15.1385C13.907 15.2086 13.9458 15.3032 13.9458 15.4017C13.9458 15.5002 13.907 15.5947 13.8379 15.6649C13.7687 15.7351 13.6748 15.7752 13.5763 15.7767H11.4275C11.3293 15.7749 11.2356 15.7346 11.1668 15.6644C11.098 15.5943 11.0594 15.5 11.0594 15.4017C11.0594 15.3034 11.098 15.2091 11.1668 15.1389C11.2356 15.0688 11.3293 15.0285 11.4275 15.0267Z" fill="white"/>
<path d="M14.6487 19.3948L14.3599 17.8311C13.8649 17.8311 11.0374 17.8311 11.0374 17.8311L10.7524 19.3948C11.7141 19.3949 13.6871 19.3947 14.6487 19.3948Z" fill="white"/>
<path d="M15.4213 20.1445H9.57877C9.33133 20.1452 9.09421 20.2438 8.91924 20.4188C8.74428 20.5937 8.64568 20.8308 8.64502 21.0783V22.1245C8.64532 22.2239 8.68492 22.3191 8.75518 22.3894C8.82544 22.4596 8.92065 22.4992 9.02002 22.4995H15.98C16.0293 22.4997 16.0782 22.4901 16.1237 22.4713C16.1693 22.4526 16.2107 22.4249 16.2456 22.3901C16.2804 22.3552 16.308 22.3138 16.3268 22.2682C16.3456 22.2227 16.3552 22.1738 16.355 22.1245V21.0783C16.3544 20.8308 16.2558 20.5937 16.0808 20.4188C15.9058 20.2438 15.6687 20.1452 15.4213 20.1445Z" fill="white"/>
</svg>
