<svg width="25" height="24" viewBox="0 0 25 24" fill="none" xmlns="http://www.w3.org/2000/svg">
<path fill-rule="evenodd" clip-rule="evenodd" d="M18.3879 22.8687H15.4183C15.2365 22.8687 15.0889 22.7211 15.0889 22.5393C15.0889 22.3575 15.2365 22.2099 15.4183 22.2099H18.3879V22.0464C18.3879 21.984 18.4127 21.9242 18.4568 21.8801C18.5009 21.836 18.5608 21.8111 18.6232 21.8111H19.1929V20.1032H19.8517V21.8111H20.4214C20.4838 21.8111 20.5437 21.836 20.5878 21.8801C20.6319 21.9242 20.6567 21.984 20.6567 22.0464V22.2099H23.6263C23.8081 22.2099 23.9557 22.3575 23.9557 22.5393C23.9557 22.7211 23.8081 22.8687 23.6263 22.8687H20.6567V23.0555C20.6567 23.1179 20.6319 23.1778 20.5878 23.2219C20.5437 23.266 20.4838 23.2908 20.4214 23.2908H18.6232C18.5608 23.2908 18.5009 23.266 18.4568 23.2219C18.4127 23.1778 18.3879 23.1179 18.3879 23.0555V22.8687ZM14.9873 15.4743C14.0076 16.3284 12.8297 16.9604 11.5335 17.2904C11.7832 17.0406 12.02 16.7457 12.2408 16.4096C12.6117 15.845 12.9394 15.1619 13.2098 14.3877C13.7592 14.5071 14.2781 14.652 14.7595 14.8194V14.976C14.7595 15.175 14.8477 15.3535 14.9873 15.4743ZM14.7595 14.1246C14.3346 13.9856 13.8838 13.8628 13.4111 13.7581C13.7807 12.4909 14.0051 11.0232 14.0328 9.45524H17.8782C17.8562 10.0208 17.7781 10.5724 17.6491 11.1045H15.4183C15.0545 11.1045 14.7595 11.3994 14.7595 11.7633V14.1246ZM3.03337 14.5592C1.85596 13.169 1.11963 11.3944 1.04443 9.45524H4.89083C4.9185 11.0233 5.14279 12.4911 5.51234 13.7583C4.60368 13.9595 3.77601 14.2277 3.05822 14.5486C3.04994 14.552 3.04166 14.5556 3.03337 14.5592ZM6.15846 13.6289C5.79577 12.406 5.57733 10.9802 5.54975 9.45524H9.13187V13.3465C8.08745 13.3638 7.08712 13.4624 6.15846 13.6289ZM9.79069 13.3465V9.45524H13.3739C13.3463 10.9801 13.1277 12.4059 12.7649 13.6288C11.836 13.4623 10.8354 13.3637 9.79069 13.3465ZM12.5582 14.2607C12.3134 14.9415 12.0209 15.5445 11.6902 16.0479C11.1833 16.8195 10.5935 17.3549 9.9458 17.5353C9.89422 17.5383 9.84255 17.5407 9.79069 17.5427V14.0055C10.761 14.0219 11.6915 14.1105 12.5582 14.2607ZM9.13187 14.0055V17.5427C9.0801 17.5407 9.02839 17.5383 8.97681 17.5353C8.32923 17.3549 7.73954 16.8195 7.23281 16.0479C6.90222 15.5446 6.60975 14.9416 6.36509 14.2608C7.23149 14.1107 8.16185 14.0219 9.13187 14.0055ZM5.71356 14.3879C5.98387 15.162 6.31135 15.845 6.68213 16.4096C6.90288 16.7457 7.13973 17.0407 7.38938 17.2905C5.89738 16.9107 4.56208 16.1307 3.50547 15.0725C4.1601 14.7955 4.90363 14.5639 5.71356 14.3879ZM1.04443 8.79642C1.11808 6.89769 1.82556 5.1567 2.96039 3.77985C3.6938 4.11322 4.545 4.39124 5.48213 4.59858C5.13055 5.8416 4.91775 7.27157 4.89083 8.79642H1.04443ZM5.54975 8.79642C5.57653 7.31496 5.78349 5.92701 6.12782 4.72771C7.06561 4.8959 8.07639 4.99543 9.13187 5.01266V8.79642H5.54975ZM9.79069 8.79642V5.01266C10.8465 4.99543 11.8575 4.89585 12.7955 4.72762C13.14 5.92691 13.347 7.31487 13.3739 8.79642H9.79069ZM14.0328 8.79642C14.0058 7.27153 13.7929 5.84145 13.4412 4.59844C14.378 4.3911 15.229 4.11317 15.9622 3.77985C17.097 5.1567 17.8045 6.89769 17.8782 8.79642H14.0328ZM9.13187 4.35374C8.14853 4.33727 7.20556 4.24729 6.32829 4.09482C6.58025 3.37134 6.88552 2.73261 7.23281 2.20376C7.73954 1.43218 8.32923 0.896843 8.97681 0.71642C9.02839 0.713455 9.0801 0.710961 9.13187 0.708984V4.35374ZM9.79069 0.708984C9.84255 0.710961 9.89422 0.713455 9.9458 0.71642C10.5935 0.896843 11.1833 1.43218 11.6902 2.20376C12.0376 2.73261 12.3429 3.37129 12.5949 4.09473C11.7175 4.24724 10.7743 4.33727 9.79069 4.35374V0.708984ZM3.42232 3.26367C4.49168 2.16249 5.85794 1.35105 7.38938 0.96122C7.13973 1.21105 6.90288 1.50593 6.68213 1.84211C6.29483 2.43185 5.95479 3.15077 5.6778 3.96785C4.84815 3.78743 4.08829 3.54917 3.42232 3.26367ZM13.2454 3.96771C12.9683 3.15068 12.6282 2.43181 12.2408 1.84207C12.02 1.50597 11.7832 1.2111 11.5335 0.961267C13.0648 1.35115 14.431 2.16254 15.5003 3.26367C14.8345 3.54913 14.0748 3.78734 13.2454 3.96771ZM23.391 11.7633C23.521 11.7633 23.6263 11.8687 23.6263 11.9986V14.7407C23.6263 14.8707 23.521 14.976 23.391 14.976H15.6536C15.5237 14.976 15.4183 14.8707 15.4183 14.7407V11.9986C15.4183 11.8687 15.5237 11.7633 15.6536 11.7633H23.391ZM18.637 13.6991H22.4397C22.6215 13.6991 22.7691 13.5515 22.7691 13.3696C22.7691 13.1879 22.6215 13.0402 22.4397 13.0402H18.637C18.4552 13.0402 18.3075 13.1879 18.3075 13.3696C18.3075 13.5515 18.4552 13.6991 18.637 13.6991ZM17.0218 12.8967C16.7607 12.8967 16.5488 13.1086 16.5488 13.3696C16.5488 13.6307 16.7607 13.8426 17.0218 13.8426C17.2828 13.8426 17.4947 13.6307 17.4947 13.3696C17.4947 13.1086 17.2828 12.8967 17.0218 12.8967ZM23.391 16.2317C23.521 16.2317 23.6263 16.337 23.6263 16.467V19.2091C23.6263 19.3391 23.521 19.4444 23.391 19.4444H15.6536C15.5237 19.4444 15.4183 19.3391 15.4183 19.2091V16.467C15.4183 16.337 15.5237 16.2317 15.6536 16.2317H23.391ZM18.693 18.1675H22.4958C22.6776 18.1675 22.8252 18.0199 22.8252 17.8381C22.8252 17.6562 22.6776 17.5087 22.4958 17.5087H18.693C18.5113 17.5087 18.3636 17.6562 18.3636 17.8381C18.3636 18.0199 18.5113 18.1675 18.693 18.1675ZM17.0218 17.3651C16.7607 17.3651 16.5488 17.577 16.5488 17.8381C16.5488 18.0991 16.7607 18.311 17.0218 18.311C17.2828 18.311 17.4947 18.0991 17.4947 17.8381C17.4947 17.577 17.2828 17.3651 17.0218 17.3651Z" fill="white"/>
</svg>
