<svg width="170" height="72" viewBox="0 0 170 72" fill="none" xmlns="http://www.w3.org/2000/svg">
<g clip-path="url(#clip0_116_8583)">
<rect width="170" height="72" rx="6" fill="#75BAF9" fill-opacity="0.08"/>
<g clip-path="url(#clip1_116_8583)">
<path d="M23.0589 24.0474C23.1607 24.0287 23.2441 23.9998 23.3273 24C26.7575 24.0133 30.188 24.0082 33.6178 24.0562C34.7867 24.0724 35.8608 24.4856 36.8211 25.1706C39.013 26.7335 39.2155 31.1987 36.2064 32.8003C36.0533 32.8818 35.9009 32.9641 35.693 33.0754C36.2648 33.3384 36.8274 33.5147 37.299 33.8286C39.1089 35.0334 39.846 37.7291 39.0358 40.0968C38.3287 42.1626 36.6501 43.0157 34.6979 43.4694C34.0567 43.6185 33.3852 43.6959 32.7267 43.7005C29.5202 43.7237 26.3134 43.7109 23.0586 43.7109C23.0589 37.1639 23.0589 30.616 23.0589 24.0474ZM26.4884 40.8291C28.8733 40.8291 31.1893 40.8836 33.5011 40.8095C34.9544 40.7629 36.0045 39.202 35.917 37.6838C35.8309 36.1872 34.9112 34.9146 33.4897 34.848C31.1979 34.7407 28.8998 34.7711 26.6042 34.7471C26.5699 34.7469 26.5351 34.7975 26.4883 34.8339L26.4884 40.8291ZM26.4964 32.1853C28.628 32.1853 30.6837 32.263 32.7302 32.1594C34.2374 32.083 35.088 30.8755 35.0317 29.2248C34.9817 27.7633 34.1205 26.8844 32.57 26.8433C30.626 26.7922 28.6798 26.8159 26.7344 26.8113C26.6553 26.8111 26.5761 26.8539 26.4964 26.8766V32.1853ZM132.793 29.4839H135.652V31.0195C135.97 30.7735 136.358 30.5003 136.716 30.1925C138.907 28.3084 144.103 28.5396 145.882 32.3339C147.412 35.5994 147.346 38.8834 145.28 41.9235C144.136 43.6074 142.364 44.2091 140.357 44.1009C138.613 44.0066 137.078 43.4573 135.87 41.8396V48.9999H132.793C132.793 42.4888 132.793 36.0049 132.793 29.4839ZM135.697 36.6744C135.826 37.3895 135.897 38.1217 136.096 38.8167C136.541 40.3677 137.894 41.5146 139.296 41.6137C141.172 41.7462 142.519 41.0519 143.197 39.3858C144.058 37.2684 144.028 35.1329 142.768 33.154C141.283 30.8197 137.724 31.0148 136.465 33.4602C135.947 34.4669 135.694 35.5264 135.697 36.6744ZM130.767 41.674C130.767 42.2592 130.788 42.8535 130.752 43.4448C130.743 43.5907 130.561 43.8373 130.442 43.8474C129.551 43.9219 128.644 44.0522 127.764 43.9601C126.988 43.8789 126.56 43.2196 126.321 42.4573C124.478 43.9604 122.365 44.2855 120.117 44.0065C118.238 43.7732 116.681 42.2267 116.547 40.5095C116.362 38.1429 117.269 36.6019 119.39 36.0408C120.877 35.6476 122.427 35.4895 123.948 35.2239C124.317 35.1595 124.69 35.107 125.05 35.0082C125.742 34.819 126.242 34.435 126.292 33.6455C126.345 32.8294 126.029 32.1935 125.263 31.8846C123.957 31.3579 122.627 31.371 121.341 31.974C120.754 32.2491 120.405 32.8027 120.098 33.7429H117.084C117.087 32.5916 117.486 31.6239 118.25 30.8092C119.258 29.7329 120.572 29.3104 121.987 29.1621C123.469 29.0068 124.942 29.0137 126.381 29.5C128.316 30.154 129.243 31.4334 129.24 33.4818C129.237 35.6561 129.239 37.8305 129.239 40.0051C129.238 41.5483 129.238 41.5483 130.767 41.674ZM126.109 36.7674C125.159 36.9323 124.29 37.0587 123.432 37.2384C122.53 37.4275 121.611 37.5913 120.751 37.907C119.907 38.2166 119.621 39.0063 119.649 39.8544C119.675 40.6652 120.228 41.1195 120.94 41.369C122.162 41.7967 123.387 41.744 124.552 41.1978C125.386 40.8066 126.022 40.1671 126.097 39.1899C126.158 38.3759 126.109 37.5535 126.109 36.7674ZM48.5568 29.0731C53.2835 29.0174 56.0553 32.4893 55.763 37.2166C55.6615 38.8597 55.2209 40.3953 54.1415 41.6939C52.9784 43.0931 51.4818 43.8299 49.6877 44.0298C48.1895 44.1971 46.7337 44.0988 45.3454 43.4675C43.2781 42.527 42.0988 40.8858 41.6028 38.6991C41.2626 37.2003 41.2775 35.7078 41.6588 34.2252C42.5001 30.9547 45.0134 29.0858 48.5568 29.0731ZM44.4423 36.617C44.5664 37.3109 44.6312 38.0221 44.826 38.6955C45.3218 40.4099 46.6722 41.5419 48.2161 41.6169C50.1246 41.7096 51.4598 40.9052 52.1691 39.1239C52.8615 37.3849 52.8626 35.6052 52.1034 33.8873C50.9786 31.342 47.914 30.6912 45.9407 32.583C44.8154 33.6617 44.525 35.095 44.4423 36.617ZM64.956 29.0733C69.2192 29.0666 72.12 31.9453 72.1739 36.2271C72.1967 38.0351 71.9028 39.7591 70.8437 41.2737C69.3276 43.442 67.1376 44.2006 64.6164 44.0855C63.6875 44.0431 62.7245 43.8363 61.8587 43.4958C59.826 42.6962 58.6139 41.1219 58.0753 39.0148C57.6025 37.1644 57.6551 35.3258 58.2565 33.5172C59.1789 30.7431 61.7091 29.0781 64.956 29.0733ZM69.0423 36.2325C68.9735 35.8528 68.9057 35.119 68.7014 34.4254C68.182 32.6614 66.8095 31.5904 65.0801 31.5151C63.4515 31.444 61.9866 32.4063 61.3549 34.0915C60.6109 36.0765 60.6656 38.0537 61.7867 39.9031C62.9545 41.8299 65.6019 42.2521 67.3382 40.8145C68.6629 39.7176 68.987 38.2032 69.0423 36.2325ZM95.401 33.4391C94.4282 33.4391 93.4807 33.4471 92.534 33.429C92.4173 33.4268 92.2358 33.3097 92.1981 33.2048C91.6657 31.723 90.413 31.5468 89.1176 31.5393C88.5805 31.5361 88.009 31.6671 87.5116 31.8762C86.4487 32.323 86.3305 33.5281 87.3267 34.1054C88.0178 34.5059 88.8292 34.721 89.6087 34.9409C90.7117 35.2522 91.8503 35.4396 92.9462 35.7714C95.748 36.62 96.8431 39.435 95.2743 41.7556C94.5218 42.8685 93.3964 43.4709 92.106 43.783C90.1988 44.2442 88.3 44.2781 86.4362 43.6036C84.4419 42.8816 83.3885 41.4326 83.233 39.2394H86.276C87.1412 41.5024 89.586 42.3838 91.8764 41.2273C92.4062 40.9596 92.76 40.579 92.7953 39.9533C92.8331 39.2845 92.5753 38.7094 91.9764 38.4856C90.9086 38.0865 89.7933 37.8129 88.6971 37.4908C87.789 37.2239 86.8522 37.0312 85.976 36.6838C84.2857 36.013 83.5513 34.8589 83.5616 33.0996C83.5707 31.565 84.4659 30.2502 86.0531 29.6735C88.2377 28.8798 90.4672 28.781 92.6614 29.6424C94.145 30.2247 95.0291 31.3731 95.3968 32.9194C95.43 33.0621 95.401 33.2202 95.401 33.4391ZM78.88 29.4443H81.6964V31.752H78.9366C78.9171 32.0284 78.8919 32.2218 78.8916 32.415C78.8889 34.7444 78.8878 37.0737 78.8927 39.4026C78.8932 39.7126 78.9172 40.0234 78.9477 40.3321C79.0083 40.9481 79.3495 41.3139 79.9684 41.3476C80.5355 41.3788 81.1057 41.3543 81.7062 41.3543V43.6618C80.4199 43.9809 79.1125 43.964 77.8469 43.6815C76.3732 43.3526 75.7745 42.3365 75.7615 40.4133C75.7438 37.7958 75.7563 35.1779 75.7557 32.5601V31.7906H73.4166V29.4565H75.7241V25.1823H78.8803C78.88 26.5804 78.88 27.9683 78.88 29.4443ZM105.22 43.7507C104.008 43.7507 102.861 43.7886 101.718 43.7399C100.609 43.6928 99.756 42.9563 99.5138 41.8572C99.3758 41.2304 99.3027 40.5909 99.2957 39.9491C99.2712 37.4864 99.2856 35.023 99.2856 32.56V31.7812H96.9541V29.478H99.2508V25.1865H102.413V29.4084H105.216V31.7284H102.526C102.494 31.9374 102.452 32.082 102.452 32.2268C102.45 34.7343 102.442 37.2417 102.458 39.7489C102.467 41.0749 102.813 41.394 104.125 41.3846C104.475 41.3824 104.826 41.3844 105.22 41.3844L105.22 43.7507ZM110.48 29.4919V31.92C111.695 29.854 113.375 28.7775 115.857 29.1445V32.14C114.678 31.9624 113.541 31.9307 112.534 32.656C111.212 33.6077 110.751 34.9983 110.718 36.5312C110.667 38.901 110.705 41.2729 110.705 43.6957H107.608V29.4917C108.546 29.4919 109.464 29.4919 110.48 29.4919Z" fill="#573E7D"/>
</g>
</g>
<defs>
<clipPath id="clip0_116_8583">
<rect width="170" height="72" rx="6" fill="white"/>
</clipPath>
<clipPath id="clip1_116_8583">
<rect width="124" height="25" fill="white" transform="translate(23 24)"/>
</clipPath>
</defs>
</svg>
