<svg width="82" height="82" viewBox="0 0 82 82" fill="none" xmlns="http://www.w3.org/2000/svg">
<rect width="82" height="82" rx="6.83333" fill="#75BAF9"/>
<path d="M30.6875 19.541V24.1563H38.7636L30.6875 19.541Z" fill="white"/>
<path d="M51.3125 24.1563V19.541L43.2363 24.1563H51.3125Z" fill="white"/>
<path d="M52.6016 47.4453V42.2891H60.3359V19H53.8906V26.7344H42.2891V42.2891H50.0234V44.8672H42.2891V50.0234H39.7109V44.8672H31.9766V42.2891H39.7109V26.7344H28.1094V19H21.6641V42.2891H29.3984V47.4453H37.1328V50.0234H31.9766V55.1797H50.0234V50.0234H44.8672V47.4453H52.6016ZM47.4453 30.6875H55.1797V33.2656H47.4453V30.6875ZM47.4453 35.8438H55.1797V38.4219H47.4453V35.8438ZM26.8203 30.6875H34.5547V33.2656H26.8203V30.6875ZM26.8203 35.8438H34.5547V38.4219H26.8203V35.8438Z" fill="white"/>
<path d="M31.9766 57.7578H50.0234V63H31.9766V57.7578Z" fill="white"/>
</svg>
