<svg width="82" height="82" viewBox="0 0 82 82" fill="none" xmlns="http://www.w3.org/2000/svg">
<rect width="82" height="82" rx="6.83333" fill="#EC696A"/>
<g clip-path="url(#clip0_193_10190)">
<path d="M51.3124 34.5552C44.9151 34.5552 39.7109 39.7592 39.7109 46.1566C39.7109 52.5539 44.915 57.758 51.3123 57.758C57.7097 57.758 62.9997 52.5539 62.9997 46.1566C62.9997 39.7592 57.7098 34.5552 51.3124 34.5552ZM52.6353 52.3689C52.6242 52.373 52.6125 52.3711 52.6013 52.375V53.8909C52.6013 54.6034 52.0248 55.1799 51.3122 55.1799C50.5997 55.1799 50.0232 54.6034 50.0232 53.8909V52.3662C49.1742 52.0794 48.3607 51.535 47.6653 50.706C47.2071 50.1609 47.2776 49.3477 47.824 48.8908C48.3691 48.4325 49.1848 48.503 49.6392 49.0494C50.3215 49.8613 51.0932 50.1836 51.7528 49.9469C52.2601 49.7619 52.6013 49.2747 52.6013 48.7347C52.6013 48.0235 52.0235 47.4456 51.3122 47.4456C49.1798 47.4456 47.4451 45.7109 47.4451 43.5785C47.4451 42.0213 48.3716 40.6227 49.8055 40.0161C49.8765 39.986 49.9517 39.9877 50.0233 39.9621V38.4224C50.0233 37.7099 50.5998 37.1333 51.3123 37.1333C52.0248 37.1333 52.6014 37.7099 52.6014 38.4224V39.9644C53.2689 40.1899 53.9198 40.5484 54.501 41.1113C55.012 41.606 55.0247 42.4217 54.5286 42.9341C54.0339 43.4452 53.2169 43.4565 52.7058 42.9618C52.0789 42.3537 51.3853 42.1447 50.8112 42.3903C50.3329 42.5929 50.0232 43.0587 50.0232 43.5786C50.0232 44.2898 50.601 44.8677 51.3122 44.8677C53.4447 44.8677 55.1793 46.6024 55.1793 48.7348C55.1795 50.3548 54.1573 51.815 52.6353 52.3689Z" fill="white"/>
<path d="M20.2893 47.4458C19.5768 47.4458 19.0002 48.0224 19.0002 48.7349V61.7113C19.0002 62.4238 19.5768 63.0003 20.2893 63.0003H24.1564V47.4458H20.2893Z" fill="white"/>
<path d="M49.5727 27.0459L40.5493 19.3116C40.0684 18.8961 39.3534 18.8961 38.8725 19.3116L29.8492 27.0459C29.4389 27.3958 29.2916 27.9648 29.4791 28.4709C29.6654 28.977 30.1475 29.3131 30.6876 29.3131H34.5547C34.5547 40.4573 34.5547 51.8551 34.5547 63.0001C37.8755 63.0001 40.1714 63.0001 43.5781 63.0001C44.2906 63.0001 44.8672 62.4236 44.8672 61.7111V58.7708C40.2831 56.4188 37.1329 51.6535 37.1329 46.1566C37.1329 40.6598 40.2832 35.8945 44.8672 33.5425V29.3131H48.7343C49.2743 29.3131 49.7565 28.977 49.9428 28.471C50.1304 27.9648 49.9831 27.3958 49.5727 27.0459Z" fill="white"/>
<path d="M28.1096 37.1333C27.3971 37.1333 26.8206 37.7099 26.8206 38.4224V47.4457V63.0001C28.7034 63.0001 30.1486 63.0001 31.9767 63.0001V37.1333H28.1096Z" fill="white"/>
</g>
<defs>
<clipPath id="clip0_193_10190">
<rect width="44" height="44" fill="white" transform="translate(19 19)"/>
</clipPath>
</defs>
</svg>
