<svg width="82" height="82" viewBox="0 0 82 82" fill="none" xmlns="http://www.w3.org/2000/svg">
<rect width="82" height="82" rx="6.83333" fill="#1BC6AF"/>
<path fill-rule="evenodd" clip-rule="evenodd" d="M25.4272 29.4555L12.5075 21.5007C12.1994 21.3195 11.8552 21.3014 11.5471 21.4644C11.239 21.6456 11.0579 21.9537 11.0579 22.298V39.6209C11.0579 40.9618 11.7102 42.1397 12.8699 42.8644L16.4034 45.0207C16.6389 45.1657 16.8745 45.2201 17.1281 45.1476C17.4 45.0752 17.5811 44.912 17.7261 44.6946L25.7534 30.742C26.0252 30.2889 25.8802 29.7091 25.4272 29.4555ZM62.7551 42.4114L57.8082 33.5687C57.4096 32.8983 56.7753 31.8835 56.3586 31.0501C56.1593 30.6695 55.7606 30.4521 55.3257 30.5427C49.0199 31.8292 45.6314 26.2482 38.4014 28.4408C36.6437 28.9843 31.8418 35.272 30.664 37.8632C30.4647 38.2619 30.5916 38.7331 30.9358 39.0048C35.5202 42.5927 36.3357 31.7205 42.8771 35.254C48.9111 38.5156 53.4955 41.7048 58.841 45.9449C59.2035 46.2167 59.6927 46.2167 60.037 45.9268C60.8162 45.2563 61.9396 44.2234 62.5919 43.553C62.9 43.245 62.9544 42.792 62.7551 42.4114ZM32.2223 48.1918C31.9143 47.3764 30.7727 46.4703 29.7399 46.9233C28.997 47.2315 26.0977 51.236 25.3004 52.432C23.8508 54.5883 26.3514 56.654 28.0728 55.313C28.707 54.842 30.7365 51.689 31.2982 50.9461C31.8237 50.2394 32.7116 49.4421 32.2223 48.1918ZM32.9109 51.0004C32.1499 51.3991 30.1204 54.5339 29.5767 55.295C27.9641 57.5056 30.6822 59.2271 32.0955 58.2124C32.5485 57.9586 34.5598 55.0413 35.1035 54.2983C36.6437 52.1964 34.4511 50.167 32.9109 51.0004ZM35.629 55.5668L33.8169 58.1398C32.7298 60.4048 35.0854 61.5827 36.5531 60.713C36.8974 60.5136 38.8363 57.9586 39.0174 57.4513C39.6879 55.6393 37.0604 53.5192 35.629 55.5668ZM23.8145 46.416C23.1259 46.6697 21.7307 48.5724 21.6945 49.3515C21.622 50.6562 22.9629 51.9608 24.3219 51.4897C24.8292 51.3447 26.6051 49.1522 26.6594 48.3549C26.7319 46.9778 25.2279 45.6369 23.8145 46.416ZM71.4528 21.1201C71.1447 20.9571 70.8004 20.9571 70.4924 21.1382L57.5726 29.0931C57.1196 29.3649 56.9747 29.9447 57.2464 30.3615L65.2737 44.3322C65.4187 44.5677 65.5999 44.7127 65.8717 44.7852C66.1254 44.8396 66.361 44.8033 66.5966 44.6765L70.1299 42.484C71.2896 41.7773 71.942 40.6175 71.942 39.2585V21.9537C71.942 21.5912 71.7608 21.3014 71.4528 21.1201ZM60.0732 48.2281C55.0901 44.4047 49.944 40.3458 44.1998 37.2472C43.2214 36.6855 41.5905 35.7613 41.0288 35.5801C38.8906 34.9277 36.3718 39.0048 35.0128 40.1102C32.9834 41.2337 30.4284 40.5813 29.5767 39.2222C28.7795 37.8813 30.6822 35.4352 32.0412 33.6413C32.2586 33.3694 32.2948 33.0251 32.168 32.699C32.023 32.3728 31.7693 32.1735 31.425 32.1191C30.8633 32.0285 30.3197 31.938 29.758 31.8111C28.9063 31.5937 28.4353 31.2856 27.9641 30.9957C27.7285 30.8507 27.493 30.8145 27.2393 30.8869C26.9855 30.9414 26.7862 31.1044 26.6594 31.3218C25.2461 33.6594 21.3139 40.6719 20.2086 42.8644C20.0093 43.2269 20.0817 43.6436 20.3536 43.9517C20.9153 44.5316 21.3683 45.1657 21.8576 45.7999C22.0025 45.9812 22.2743 46.0355 22.4918 45.9086C24.2313 44.7852 26.3695 44.7852 27.5473 46.7785C27.638 46.9415 27.7647 47.014 27.946 47.0322C28.109 47.0322 28.254 46.9596 28.3627 46.8146L28.6527 46.3798C30.3197 44.6765 33.4545 46.108 33.5271 48.8261C33.5451 49.2609 33.8532 49.6234 34.2699 49.7321C35.7195 50.0582 36.6437 51.1817 36.7887 52.7763C36.8248 53.2111 37.133 53.5554 37.5497 53.6279C39.4342 54.0084 40.5215 55.6936 40.2134 57.4513C40.1772 57.6688 40.1409 57.7955 40.1227 57.9043C39.9416 58.3935 40.159 58.8828 40.6302 59.1002C41.7718 59.5895 43.2395 60.2237 44.0368 60.568C45.8125 61.2747 48.5669 59.064 46.2655 57.7775L42.5691 55.9835C41.6268 55.7118 41.6812 54.5158 42.8589 54.7876C43.3845 54.9145 43.9462 55.295 44.4172 55.5305C45.7401 56.201 46.8454 56.8715 47.9507 57.3969C50.6145 58.7197 52.8976 55.8023 50.7956 54.5883C49.8533 54.0447 48.603 53.3561 47.9146 52.9756C47.244 52.595 46.5555 52.2145 45.9031 51.8158C45.2508 51.4173 44.0549 51.0548 44.5804 50.2394C45.124 49.6777 46.5011 50.8193 47.6064 51.4354C48.5487 51.979 51.1036 53.3199 52.0641 53.8634C54.7097 55.4943 57.1921 53.3199 54.7821 51.1273C54.456 50.7649 47.6427 46.6879 46.8454 46.3255C45.9213 45.5825 46.8998 44.7671 47.5703 45.202L57.4277 51.7253C59.7289 52.6494 61.9034 49.9314 60.0732 48.2281Z" fill="white"/>
</svg>
