<svg width="55" height="56" viewBox="0 0 55 56" fill="none" xmlns="http://www.w3.org/2000/svg">
<path d="M46.6093 27.6604H53.3887C54.2781 27.6604 55 26.9396 55 26.0491C55 25.1597 54.2781 24.4378 53.3887 24.4378H47.2495C48.0219 19.5694 47.6631 16.277 47.6427 16.0997C47.5696 15.4627 47.126 14.9299 46.5137 14.743C44.0655 13.9932 41.9321 13.2326 40.0759 12.4871V8.50391H45.6092C46.2741 10.3795 48.0659 11.7266 50.166 11.7266C52.8312 11.7266 55 9.55771 55 6.89258C55 4.22637 52.8312 2.05859 50.166 2.05859C48.0659 2.05859 46.2741 3.40566 45.6092 5.28125H38.4646C37.574 5.28125 36.8532 6.00205 36.8532 6.89258V11.0853C30.8806 8.26543 28.9008 5.95264 28.7815 5.80869C28.1378 4.923 26.8628 4.92225 26.2185 5.80869C26.0992 5.95264 24.1194 8.26543 18.1468 11.0853V6.89258C18.1468 6.00205 17.426 5.28125 16.5354 5.28125H9.39082C8.72588 3.40566 6.93408 2.05859 4.83398 2.05859C2.16885 2.05859 0 4.22637 0 6.89258C0 9.55771 2.16885 11.7266 4.83398 11.7266C6.93408 11.7266 8.72588 10.3795 9.39082 8.50391H14.9241V12.4871C13.0679 13.2326 10.9345 13.9932 8.48633 14.743C7.87402 14.9299 7.43037 15.4627 7.35732 16.0997C7.33691 16.277 6.97813 19.5694 7.75049 24.4378H1.61133C0.721875 24.4378 0 25.1597 0 26.0491C0 26.9396 0.721875 27.6604 1.61133 27.6604H8.39072C8.74274 29.1264 9.15417 30.5355 9.70234 32.0701H5.27549C4.38604 32.0701 3.66416 32.7909 3.66416 33.6814C3.66416 34.5709 4.38604 35.2928 5.27549 35.2928H11.0021C12.4005 38.3846 14.1021 41.1792 16.1165 43.7866H9.39082C8.72588 41.911 6.93408 40.564 4.83398 40.564C2.16885 40.564 0 42.7328 0 45.3979C0 48.0631 2.16885 50.2319 4.83398 50.2319C6.93408 50.2319 8.72588 48.8849 9.39082 47.0093H18.8644C21.1342 49.4295 23.7112 51.6521 26.5783 53.6512C27.1327 54.0379 27.8674 54.0379 28.4217 53.6512C31.2888 51.6521 33.8658 49.4295 36.1356 47.0093H45.6092C46.2741 48.8849 48.0659 50.2319 50.166 50.2319C52.8312 50.2319 55 48.0631 55 45.3979C55 42.7328 52.8312 40.564 50.166 40.564C48.0659 40.564 46.2741 41.911 45.6092 43.7866H38.8835C40.893 41.1854 42.5963 38.3917 43.9978 35.2928H49.7245C50.614 35.2928 51.3358 34.5709 51.3358 33.6814C51.3358 32.7909 50.614 32.0701 49.7245 32.0701H45.2977C45.8452 30.5373 46.2567 29.1283 46.6093 27.6604ZM36.3666 35.9147C36.3666 37.5347 35.0496 38.8517 33.4297 38.8517H21.5703C19.9504 38.8517 18.6334 37.5347 18.6334 35.9147V26.6872C18.6334 25.4067 19.4562 24.3164 20.6014 23.9146V22.8662C20.6014 19.0624 23.6962 15.9676 27.5 15.9676C31.3038 15.9676 34.3986 19.0624 34.3986 22.8662V23.9146C35.5438 24.3164 36.3666 25.4067 36.3666 26.6872V35.9147Z" fill="white"/>
<path d="M21.856 26.9727V35.6287H33.1438V26.9727H21.856ZM29.1112 31.8689C29.1112 32.7595 28.3894 33.4803 27.4999 33.4803C26.6104 33.4803 25.8886 32.7595 25.8886 31.8689V30.7324C25.8886 29.8419 26.6104 29.1211 27.4999 29.1211C28.3894 29.1211 29.1112 29.8419 29.1112 30.7324V31.8689Z" fill="white"/>
<path d="M31.1759 22.8664V23.7505H23.824V22.8664C23.824 20.8394 25.4729 19.1904 27.5 19.1904C29.527 19.1904 31.1759 20.8394 31.1759 22.8664Z" fill="white"/>
</svg>
