<svg width="55" height="55" viewBox="0 0 55 55" fill="none" xmlns="http://www.w3.org/2000/svg">
<path fill-rule="evenodd" clip-rule="evenodd" d="M43.5418 36.6663C39.7491 36.6663 36.6668 39.7486 36.6668 43.5413C36.6668 47.334 39.7491 50.4163 43.5418 50.4163C47.3345 50.4163 50.4168 47.334 50.4168 43.5413C50.4168 39.7486 47.3345 36.6663 43.5418 36.6663ZM40.4366 44.3549L42.7283 46.6465C42.9918 46.9101 43.3585 47.0247 43.7252 46.9674C44.0918 46.9101 44.4012 46.6809 44.5616 46.3486L46.8533 41.7653C47.1397 41.2038 46.9106 40.5049 46.3377 40.2299C45.7762 39.9434 45.0772 40.1726 44.8022 40.7455L43.221 43.908L42.0522 42.7393C41.6054 42.2924 40.8835 42.2924 40.4366 42.7393C39.9897 43.1861 39.9897 43.908 40.4366 44.3663V44.3549ZM17.1877 19.4788H11.4585C10.8283 19.4788 10.3127 19.9945 10.3127 20.6247C10.3127 21.2549 10.8283 21.7705 11.4585 21.7705H15.7325C15.3429 22.5038 15.0106 23.2715 14.7241 24.0622H9.16683C8.53662 24.0622 8.021 24.5778 8.021 25.208C8.021 25.8382 8.53662 26.3538 9.16683 26.3538H14.0939C13.945 27.0986 13.8418 27.8663 13.7845 28.6455H5.72933C5.09912 28.6455 4.5835 29.1611 4.5835 29.7913C4.5835 30.4216 5.09912 30.9372 5.72933 30.9372H13.7845C13.8418 31.7163 13.945 32.4841 14.0939 33.2288H9.16683C8.53662 33.2288 8.021 33.7445 8.021 34.3747C8.021 35.0049 8.53662 35.5205 9.16683 35.5205H14.7241C15.0106 36.3111 15.3429 37.0788 15.7325 37.8122H11.4585C10.8283 37.8122 10.3127 38.3278 10.3127 38.958C10.3127 39.5882 10.8283 40.1038 11.4585 40.1038H17.1877C20.3272 44.2747 25.3116 46.9788 30.9377 46.9788C32.2897 46.9788 33.6075 46.8184 34.8679 46.5205C34.547 45.5809 34.3752 44.584 34.3752 43.5413C34.3752 42.9684 34.4325 42.4184 34.5241 41.8799C33.3897 42.2236 32.1866 42.3955 30.9377 42.3955C23.9825 42.3955 18.3335 36.7466 18.3335 29.7913C18.3335 22.8361 23.9825 17.1872 30.9377 17.1872C37.8929 17.1872 43.5418 22.8361 43.5418 29.7913C43.5418 31.4184 43.2325 32.9882 42.6595 34.4205C42.946 34.3976 43.2439 34.3747 43.5418 34.3747C44.871 34.3747 46.1314 34.6611 47.2658 35.1653C47.8272 33.4695 48.1252 31.6705 48.1252 29.7913C48.1252 21.4841 42.2127 14.5403 34.3752 12.9476V11.458H35.521C37.4231 11.458 38.9585 9.92259 38.9585 8.02051C38.9585 6.11842 37.4231 4.58301 35.521 4.58301H26.3543C24.4522 4.58301 22.9168 6.11842 22.9168 8.02051C22.9168 9.92259 24.4522 11.458 26.3543 11.458H27.5002V12.9476C23.3064 13.7955 19.6741 16.1788 17.1877 19.4788ZM35.5668 39.0268C36.5179 37.3653 37.9616 36.0247 39.7147 35.2111C39.7262 35.1882 39.7491 35.1538 39.7606 35.1309C40.7002 33.5726 41.2502 31.7507 41.2502 29.7913C41.2502 24.0965 36.6325 19.4788 30.9377 19.4788C25.2429 19.4788 20.6252 24.0965 20.6252 29.7913C20.6252 35.4861 25.2429 40.1038 30.9377 40.1038C32.5418 40.1038 34.0543 39.7372 35.4064 39.0841C35.4522 39.0611 35.5095 39.0382 35.5668 39.0268ZM5.72933 33.2288C6.35954 33.2288 6.87516 33.7445 6.87516 34.3747C6.87516 35.0049 6.35954 35.5205 5.72933 35.5205C5.09912 35.5205 4.5835 35.0049 4.5835 34.3747C4.5835 33.7445 5.09912 33.2288 5.72933 33.2288ZM29.7918 21.7705V29.7913C29.7918 30.1007 29.9179 30.3872 30.1241 30.6049L33.5616 34.0424C34.0085 34.4893 34.7304 34.4893 35.1887 34.0424C35.6356 33.5955 35.6356 32.8736 35.1887 32.4153L32.0835 29.3101V21.7591C32.0835 21.1288 31.5679 20.6132 30.9377 20.6132C30.3075 20.6132 29.7918 21.1288 29.7918 21.7591V21.7705ZM5.72933 24.0622C6.35954 24.0622 6.87516 24.5778 6.87516 25.208C6.87516 25.8382 6.35954 26.3538 5.72933 26.3538C5.09912 26.3538 4.5835 25.8382 4.5835 25.208C4.5835 24.5778 5.09912 24.0622 5.72933 24.0622Z" fill="white"/>
</svg>
