<svg width="72" height="56" viewBox="0 0 72 56" fill="none" xmlns="http://www.w3.org/2000/svg">
<path fill-rule="evenodd" clip-rule="evenodd" d="M68.3956 49.4118C70.6239 47.1908 72 44.1237 72 40.7359C72 37.3481 70.6239 34.281 68.3956 32.0599C66.1672 29.8388 63.09 28.4673 59.6911 28.4673C56.2921 28.4673 53.215 29.8389 50.9866 32.0599C48.7582 34.2809 47.3822 37.3481 47.3822 40.7359C47.3822 44.1236 48.7583 47.1907 50.9866 49.4118C53.2149 51.6329 56.2921 53.0045 59.6911 53.0045C63.09 53.0045 66.1705 51.6295 68.3956 49.4118ZM61.3658 26.9901C60.8153 26.924 60.2549 26.8909 59.6912 26.8909C55.9972 26.8909 52.4823 28.3418 49.8696 30.9463C48.2746 32.536 47.1107 34.4596 46.4475 36.555L2.56782 36.5517V3.05444H61.3667L61.3658 26.9901ZM4.58298 11.0063V16.8761C4.58298 17.3058 4.93116 17.6528 5.36223 17.6528C5.79331 17.6528 6.14149 17.3058 6.14149 16.8761V11.0063C6.14149 10.5766 5.79331 10.2296 5.36223 10.2296C4.93116 10.2263 4.58298 10.5766 4.58298 11.0063ZM8.22725 6.81215V16.8732C8.22725 17.3028 8.57543 17.6499 9.0065 17.6499C9.43757 17.6499 9.78575 17.3028 9.78575 16.8732V6.81215C9.78575 6.38249 9.43757 6.03545 9.0065 6.03545C8.57543 6.03545 8.22725 6.38579 8.22725 6.81215ZM11.8715 9.833V16.8761C11.8715 17.3058 12.2197 17.6528 12.6508 17.6528C13.0818 17.6528 13.43 17.3058 13.43 16.8761V9.833C13.43 9.40334 13.0818 9.0563 12.6508 9.0563C12.2197 9.0563 11.8715 9.40334 11.8715 9.833ZM15.5158 5.63886V16.8726C15.5158 17.3022 15.864 17.6493 16.295 17.6493C16.7261 17.6493 17.0743 17.3022 17.0743 16.8726L17.0776 5.63886C17.0776 5.2092 16.7294 4.86216 16.2983 4.86216C15.864 4.86216 15.5158 5.2125 15.5158 5.63886ZM12.3723 26.431C12.747 26.431 13.0985 26.5302 13.4035 26.7054C13.4333 26.669 13.4698 26.636 13.5063 26.6062L23.3848 18.7368C23.4246 18.707 23.4643 18.6806 23.5075 18.6574C23.4478 18.4657 23.4179 18.2608 23.4179 18.0493C23.4179 16.9057 24.3464 15.9803 25.4937 15.9803C26.6411 15.9803 27.5695 16.9058 27.5695 18.0493C27.5695 18.241 27.543 18.4261 27.4932 18.6012C27.5363 18.6211 27.5761 18.6475 27.6159 18.6773L34.6789 24.0051C34.7187 24.0348 34.7551 24.0679 34.7883 24.1042C35.1033 23.9126 35.4714 23.8035 35.866 23.8035C36.1147 23.8035 36.3501 23.8464 36.5723 23.9258C36.5955 23.8861 36.6253 23.8464 36.6585 23.8101L47.986 11.0356C48.0192 10.9992 48.0556 10.9662 48.0921 10.9365C47.9495 10.6555 47.8666 10.3349 47.8666 9.99778C47.8666 8.85419 48.7951 7.9288 49.9424 7.9288C51.0897 7.9288 52.0182 8.85427 52.0182 9.99778C52.0182 11.1414 51.0897 12.0668 49.9424 12.0668C49.6937 12.0668 49.4583 12.0238 49.2361 11.9445C49.2129 11.9874 49.1831 12.0271 49.1499 12.0635L37.8258 24.8346C37.7926 24.8709 37.7561 24.904 37.7197 24.9337C37.8622 25.2146 37.9451 25.5352 37.9451 25.8691C37.9451 27.0127 37.0166 27.9381 35.8694 27.9381C34.7221 27.9381 33.7936 27.0126 33.7936 25.8691C33.7936 25.6774 33.8201 25.4923 33.8698 25.3171C33.8267 25.2973 33.7869 25.2709 33.7472 25.2411L26.6842 19.9133C26.6444 19.8835 26.6079 19.8505 26.5747 19.8141C26.2597 20.0058 25.8917 20.1149 25.4971 20.1149C25.1224 20.1149 24.7709 20.0157 24.4659 19.8406C24.436 19.8769 24.3995 19.91 24.3631 19.9397L14.4846 27.8092C14.4448 27.8389 14.405 27.8654 14.3619 27.8885C14.4216 28.0802 14.4514 28.2851 14.4514 28.4933C14.4514 29.6369 13.5229 30.5623 12.3757 30.5623C11.2283 30.5623 10.2999 29.6368 10.2999 28.4933C10.2999 27.3563 11.2283 26.431 12.3723 26.431ZM63.9319 27.5481C63.6003 27.4424 63.2653 27.3498 62.9271 27.2672L62.9238 2.27752C62.9238 1.84785 62.5756 1.50082 62.1446 1.50082H1.78712C1.35604 1.50082 1.00786 1.84785 1.00786 2.27752V37.3316C1.00786 37.7613 1.35604 38.1083 1.78712 38.1083H46.0522C45.8864 38.9676 45.8002 39.8468 45.8002 40.7359C45.8002 42.1505 46.0158 43.5386 46.4269 44.8574H1.71106C1.24019 44.8574 0.812426 44.6657 0.504026 44.355C0.192323 44.0443 0 43.618 0 43.1519V2.20214C0 1.73282 0.192323 1.30976 0.504026 0.999068L0.537184 0.966017C0.845567 0.678477 1.26006 0.5 1.71433 0.5H62.2237C62.6946 0.5 63.1223 0.691693 63.4307 0.999066L63.4341 1.00237C63.7424 1.30974 63.9348 1.7361 63.9348 2.20545L63.9319 27.5481ZM32.4535 40.997C32.3308 40.8747 32.1584 40.7987 31.966 40.7987C31.777 40.7987 31.6046 40.8747 31.4786 41.0003C31.3526 41.1226 31.2763 41.2944 31.2763 41.4861C31.2763 41.6778 31.3526 41.8497 31.4753 41.972L31.4786 41.9687C31.6013 42.0943 31.7737 42.1703 31.9661 42.1703C32.1584 42.1703 32.3308 42.0943 32.4535 41.972V41.9687C32.5795 41.8431 32.6558 41.6745 32.6558 41.4828C32.6558 41.2944 32.5795 41.1226 32.4535 40.997ZM31.966 39.242C31.346 39.242 30.7823 39.4932 30.3777 39.8997C29.9698 40.3029 29.7211 40.8648 29.7211 41.4828C29.7211 42.0976 29.9732 42.6594 30.3777 43.0627V43.066C30.7856 43.4725 31.3459 43.7237 31.966 43.7237C32.5828 43.7237 33.1465 43.4725 33.5544 43.066L33.5577 43.0693C33.9656 42.6628 34.2176 42.1042 34.2176 41.4861C34.2176 40.8681 33.9656 40.3063 33.561 39.903H33.5577C33.1465 39.4932 32.5862 39.242 31.966 39.242ZM43.7808 53.3186H20.1513C19.8495 53.3186 19.5776 53.4409 19.3786 53.6359L19.3753 53.6392C19.1797 53.8342 19.057 54.1085 19.057 54.4093C19.057 54.7068 19.1797 54.9811 19.3786 55.1794C19.5776 55.3777 19.8495 55.5 20.1513 55.5H43.7808C44.0793 55.5 44.3545 55.3777 44.5535 55.1794C44.7524 54.9811 44.8751 54.7101 44.8751 54.4093C44.8751 54.1251 44.7657 53.864 44.5866 53.669L44.5568 53.6392C44.3545 53.4409 44.0826 53.3186 43.7808 53.3186ZM25.4466 51.7653H38.488L36.661 46.4143H27.2732L25.4466 51.7653ZM67.5893 32.8668C69.6088 34.8796 70.8589 37.6626 70.8589 40.7363C70.8589 43.81 69.6088 46.5929 67.5893 48.6057C65.5732 50.6152 62.7912 51.858 59.7173 51.8646H59.6709C56.597 51.858 53.8149 50.6152 51.7988 48.6057C49.7794 46.5929 48.5293 43.81 48.5293 40.7363C48.5293 37.6626 49.7794 34.8796 51.7988 32.8668C53.8182 30.854 56.6103 29.608 59.6941 29.608C62.7747 29.608 65.5666 30.854 67.5893 32.8668ZM58.9112 34.916C58.9112 34.4864 59.2594 34.1393 59.6904 34.1393C60.1215 34.1393 60.4697 34.4864 60.4697 34.916V40.4157L62.9235 42.8614C63.2286 43.1655 63.2286 43.658 62.9235 43.9621C62.6184 44.2661 62.1243 44.2661 61.8193 43.9621L59.1366 41.2882C58.994 41.1461 58.9078 40.9544 58.9078 40.7395L58.9144 34.916L58.9112 34.916ZM60.473 31.1945C62.814 31.3829 64.9197 32.4075 66.4848 33.9674C68.0499 35.5274 69.0779 37.6262 69.2668 39.9596H67.5127C67.0816 39.9596 66.7334 40.3066 66.7334 40.7363C66.7334 41.1659 67.0816 41.513 67.5127 41.513H69.2668C69.0778 43.8463 68.0499 45.9451 66.4848 47.5051C64.9197 49.065 62.814 50.0897 60.473 50.278V48.5296C60.473 48.1 60.1248 47.7529 59.6937 47.7529C59.2626 47.7529 58.9145 48.1 58.9145 48.5296V50.278C56.5734 50.0896 54.4678 49.065 52.9027 47.5051C51.3376 45.9451 50.3096 43.8463 50.1206 41.513H51.8748C52.3058 41.513 52.654 41.1659 52.654 40.7363C52.654 40.3066 52.3058 39.9596 51.8748 39.9596H50.1206C50.3096 37.6262 51.3376 35.5274 52.9027 33.9674C54.4678 32.4075 56.5734 31.3829 58.9145 31.1945V32.9429C58.9145 33.3726 59.2626 33.7196 59.6937 33.7196C60.1248 33.7196 60.473 33.3726 60.473 32.9429V31.1945Z" fill="white"/>
</svg>
