<svg width="55" height="55" viewBox="0 0 55 55" fill="none" xmlns="http://www.w3.org/2000/svg">
<g clip-path="url(#clip0_116_5633)">
<path d="M40.3905 19.4438C32.3938 19.4438 25.8887 25.9489 25.8887 33.9456C25.8887 41.9423 32.3937 48.4473 40.3904 48.4473C48.3871 48.4473 54.9996 41.9423 54.9996 33.9456C54.9996 25.9489 48.3872 19.4438 40.3905 19.4438ZM42.0442 41.711C42.0302 41.7162 42.0156 41.7138 42.0016 41.7186V43.6134C42.0016 44.5041 41.2809 45.2248 40.3903 45.2248C39.4997 45.2248 38.779 44.5041 38.779 43.6134V41.7077C37.7178 41.3491 36.7009 40.6687 35.8316 39.6324C35.2589 38.951 35.347 37.9345 36.0299 37.3633C36.7113 36.7905 37.731 36.8786 38.299 37.5616C39.1518 38.5765 40.1165 38.9794 40.9411 38.6835C41.5752 38.4523 42.0016 37.8433 42.0016 37.1682C42.0016 36.2792 41.2793 35.5569 40.3903 35.5569C37.7247 35.5569 35.5564 33.3885 35.5564 30.723C35.5564 28.7766 36.7145 27.0283 38.5069 26.27C38.5956 26.2324 38.6896 26.2345 38.7791 26.2025V24.2778C38.7791 23.3872 39.4998 22.6665 40.3904 22.6665C41.281 22.6665 42.0017 23.3872 42.0017 24.2778V26.2054C42.8361 26.4873 43.6497 26.9353 44.3762 27.639C45.015 28.2574 45.0308 29.277 44.4108 29.9175C43.7924 30.5563 42.7711 30.5705 42.1323 29.9521C41.3486 29.1921 40.4816 28.9308 39.764 29.2377C39.1661 29.491 38.779 30.0732 38.779 30.7231C38.779 31.6122 39.5013 32.3345 40.3903 32.3345C43.0559 32.3345 45.2242 34.5029 45.2242 37.1683C45.2244 39.1934 43.9466 41.0187 42.0442 41.711Z" fill="white"/>
<path d="M1.61182 35.5571C0.721182 35.5571 0.000488281 36.2778 0.000488281 37.1685V53.3889C0.000488281 54.2796 0.721182 55.0003 1.61182 55.0003H6.44569V35.5571H1.61182Z" fill="white"/>
<path d="M38.216 10.0573L26.9368 0.389458C26.3357 -0.129819 25.4419 -0.129819 24.8408 0.389458L13.5617 10.0573C13.0488 10.4947 12.8647 11.206 13.0991 11.8386C13.3319 12.4712 13.9346 12.8913 14.6097 12.8913H19.4436C19.4436 26.8217 19.4436 41.0689 19.4436 55.0002C23.5946 55.0002 26.4644 55.0002 30.7228 55.0002C31.6134 55.0002 32.3341 54.2795 32.3341 53.3888V49.7135C26.604 46.7735 22.6663 40.8169 22.6663 33.9458C22.6663 27.0748 26.6041 21.1181 32.3341 18.1781V12.8914H37.168C37.843 12.8914 38.4458 12.4713 38.6787 11.8387C38.9132 11.206 38.7291 10.4947 38.216 10.0573Z" fill="white"/>
<path d="M11.3867 22.6665C10.4961 22.6665 9.77539 23.3872 9.77539 24.2778V35.557V55C12.129 55 13.9354 55 16.2206 55V22.6665H11.3867Z" fill="white"/>
</g>
<defs>
<clipPath id="clip0_116_5633">
<rect width="55" height="55" fill="white"/>
</clipPath>
</defs>
</svg>
