<svg width="55" height="55" viewBox="0 0 55 55" fill="none" xmlns="http://www.w3.org/2000/svg">
<g clip-path="url(#clip0_116_5484)">
<path d="M46.4062 15.5762C46.2017 15.5762 45.9977 15.5835 45.7946 15.598C45.1823 13.6454 44.0315 11.8838 42.462 10.5287C40.3524 8.70719 37.6205 7.74609 34.8258 7.84942C32.0868 3.04648 26.9661 0 21.4844 0C14.5984 0 8.50513 4.73269 6.67595 11.372C2.71283 13.1337 0.107422 17.0913 0.107422 21.4844C0.107422 25.7677 2.55396 29.4901 6.12305 31.3281V27.2852C6.12305 24.6197 8.29157 22.4512 10.957 22.4512H44.043C46.7085 22.4512 48.877 24.6197 48.877 27.2852V32.1803C52.3548 31.1197 54.8926 27.8827 54.8926 24.0625C54.8926 19.3831 51.0855 15.5762 46.4062 15.5762Z" fill="white"/>
<path d="M44.043 25.6738H10.957C10.0671 25.6738 9.3457 26.3953 9.3457 27.2852V38.6659H45.6543V27.2852C45.6543 26.3953 44.9327 25.6738 44.043 25.6738ZM23.1618 33.9453H14.6094C13.7195 33.9453 12.998 33.2239 12.998 32.334C12.998 31.4441 13.7195 30.7227 14.6094 30.7227H23.1618C24.0515 30.7227 24.7731 31.4441 24.7731 32.334C24.7731 33.2239 24.0515 33.9453 23.1618 33.9453ZM33.5156 33.9298C32.6257 33.9298 31.9043 33.2084 31.9043 32.3185C31.9043 31.4286 32.6257 30.7072 33.5156 30.7072C34.4054 30.7072 35.127 31.4286 35.127 32.3185C35.127 33.2084 34.4054 33.9298 33.5156 33.9298ZM40.3906 33.9298C39.5007 33.9298 38.7793 33.2084 38.7793 32.3185C38.7793 31.4286 39.5007 30.7072 40.3906 30.7072C41.2804 30.7072 42.002 31.4286 42.002 32.3185C42.002 33.2084 41.2804 33.9298 40.3906 33.9298Z" fill="white"/>
<path d="M9.3457 53.3888C9.3457 54.2787 10.0671 55.0002 10.957 55.0002H44.043C44.9327 55.0002 45.6543 54.2787 45.6543 53.3888V41.8887H9.3457V53.3888ZM40.3906 46.4064C41.2804 46.4064 42.002 47.1279 42.002 48.0177C42.002 48.9076 41.2804 49.6291 40.3906 49.6291C39.5007 49.6291 38.7793 48.9076 38.7793 48.0177C38.7793 47.1279 39.5007 46.4064 40.3906 46.4064ZM33.5156 46.4064C34.4054 46.4064 35.127 47.1279 35.127 48.0177C35.127 48.9076 34.4054 49.6291 33.5156 49.6291C32.6257 49.6291 31.9043 48.9076 31.9043 48.0177C31.9043 47.1279 32.6257 46.4064 33.5156 46.4064ZM14.6094 46.4064H23.1618C24.0515 46.4064 24.7731 47.1279 24.7731 48.0177C24.7731 48.9076 24.0515 49.6291 23.1618 49.6291H14.6094C13.7195 49.6291 12.998 48.9076 12.998 48.0177C12.998 47.1279 13.7195 46.4064 14.6094 46.4064Z" fill="white"/>
</g>
<defs>
<clipPath id="clip0_116_5484">
<rect width="55" height="55" fill="white"/>
</clipPath>
</defs>
</svg>
