<svg width="55" height="56" viewBox="0 0 55 56" fill="none" xmlns="http://www.w3.org/2000/svg">
<path d="M50.166 2.75586H11.4941C8.82438 2.75586 6.66016 4.92009 6.66016 7.58984V11.8867H21.9678L22.7734 10.8125C24.295 8.78384 26.6828 7.58984 29.2188 7.58984H42.1094C46.5589 7.58984 50.166 11.197 50.166 15.6465V50.8271C50.166 52.162 51.2482 53.2441 52.583 53.2441C53.9178 53.2441 55 52.162 55 50.8271V7.58984C55 4.92009 52.8358 2.75586 50.166 2.75586Z" fill="white"/>
<path d="M21.5918 28C21.5918 25.3345 19.4233 23.166 16.7578 23.166C14.0924 23.166 11.9238 25.3345 11.9238 28V30.6855H21.5918V28Z" fill="white"/>
<path d="M23.2031 33.9082H10.3125C10.0163 33.9082 9.77539 34.1492 9.77539 34.4453V43.0391C9.77539 43.3352 10.0163 43.5762 10.3125 43.5762H23.2031C23.4993 43.5762 23.7402 43.3352 23.7402 43.0391V34.4453C23.7402 34.1492 23.4993 33.9082 23.2031 33.9082ZM16.7578 40.3535C15.8679 40.3535 15.1465 39.6321 15.1465 38.7422C15.1465 37.8523 15.8679 37.1309 16.7578 37.1309C17.6477 37.1309 18.3691 37.8523 18.3691 38.7422C18.3691 39.6321 17.6477 40.3535 16.7578 40.3535Z" fill="white"/>
<path d="M46.9434 15.6465C46.9434 12.9767 44.7791 10.8125 42.1094 10.8125H29.2188C27.7053 10.8125 26.2595 11.5353 25.3516 12.7461L23.5791 15.1094H4.83398C2.16423 15.1094 0 17.2736 0 19.9434V48.4102C0 51.0799 2.16423 53.2441 4.83398 53.2441H47.4886C47.1394 52.5111 46.9434 51.6917 46.9434 50.8271V15.6465ZM26.9629 43.0391C26.9629 45.1122 25.2763 46.7988 23.2031 46.7988H10.3125C8.23937 46.7988 6.55273 45.1122 6.55273 43.0391V34.4453C6.55273 32.9486 7.43209 31.6536 8.70117 31.0491V28C8.70117 23.5576 12.3154 19.9434 16.7578 19.9434C21.2002 19.9434 24.8145 23.5576 24.8145 28V31.0491C26.0835 31.6536 26.9629 32.9485 26.9629 34.4453V43.0391ZM40.3906 46.7988H31.7969C30.907 46.7988 30.1855 46.0774 30.1855 45.1875C30.1855 44.2976 30.907 43.5762 31.7969 43.5762H40.3906C41.2805 43.5762 42.002 44.2976 42.002 45.1875C42.002 46.0774 41.2805 46.7988 40.3906 46.7988ZM40.3906 40.3535H31.7969C30.907 40.3535 30.1855 39.6321 30.1855 38.7422C30.1855 37.8523 30.907 37.1309 31.7969 37.1309H40.3906C41.2805 37.1309 42.002 37.8523 42.002 38.7422C42.002 39.6321 41.2805 40.3535 40.3906 40.3535Z" fill="white"/>
</svg>
