<svg width="150" height="150" viewBox="0 0 150 150" fill="none" xmlns="http://www.w3.org/2000/svg">
<g clip-path="url(#clip0_116_6439)">
<path d="M75.0028 150C33.4393 150 -0.3107 116.874 0.00277654 75C0.316253 33.126 31.8778 0 75.0028 0C118.131 0 150.003 33.75 150.003 75C150.003 116.25 116.566 150 75.0028 150ZM97.1893 138.437L75.9403 81.249L55.9393 139.687C70.6288 143.127 80.6278 144.062 97.1893 138.437ZM45.3162 135.313L13.4413 48.126C9.0643 57.501 8.12973 65.3144 7.50278 75C7.81625 100.623 22.1893 124.061 45.3162 135.313ZM142.192 75C142.503 58.4385 135.006 45.3135 134.379 43.4385C135.006 56.2529 133.128 62.8125 130.942 70.0019L109.066 132.814C136.567 116.25 141.876 91.5615 142.503 75H142.192ZM72.8172 72.1875L62.1913 43.125L54.3778 42.501C51.2547 40.3125 53.1268 36.876 55.3153 36.876C69.3778 37.8135 77.1883 37.8135 91.2538 36.876C94.6932 36.876 95.6278 41.8769 91.5643 42.501L84.0643 43.125L108.436 114.999L119.997 75.624C120.624 58.4385 115.933 56.5635 109.684 44.0625C104.683 34.374 109.998 24.999 119.686 24.6885C111.87 17.1885 95.9354 7.81348 74.9969 7.5C54.0584 7.18652 31.8719 17.8125 18.7469 37.8135L41.8739 37.1894C44.6864 38.4404 43.4354 42.501 41.8739 42.8144L33.7498 43.4385L58.1248 116.563L72.8172 72.1875Z" fill="#21759B"/>
</g>
<defs>
<clipPath id="clip0_116_6439">
<rect width="150" height="150" fill="white"/>
</clipPath>
</defs>
</svg>
