<svg version="1.2" xmlns="http://www.w3.org/2000/svg" viewBox="0 0 65 65" width="65" height="65">
	<style>
		.s0 { fill: #ffffff } 
	</style>
	<path class="s0" d="m56.88 46.72c-4.49 0-8.13-3.64-8.13-8.13 0-1.11-0.91-2.03-2.03-2.03-1.12 0-2.03 0.92-2.03 2.03 0 4.49-3.64 8.13-8.13 8.13-1.11 0-2.03 0.91-2.03 2.03 0 1.12 0.92 2.03 2.03 2.03 4.49 0 8.13 3.64 8.13 8.13 0 1.11 0.91 2.03 2.03 2.03 1.12 0 2.03-0.92 2.03-2.03 0-4.49 3.64-8.13 8.12-8.13 1.12 0 2.04-0.91 2.04-2.03 0-1.12-0.92-2.03-2.04-2.03z"/>
	<path class="s0" d="m28.44 28.44c6.73 0 12.18-5.46 12.18-12.19 0-6.73-5.45-12.19-12.18-12.19-6.73 0-12.19 5.46-12.19 12.19 0 6.73 5.46 12.19 12.19 12.19z"/>
	<path class="s0" d="m36.56 54.84c-3.35 0-6.09-2.74-6.09-6.09 0-3.35 2.74-6.09 6.09-6.09 2.24 0 4.06-1.83 4.06-4.07 0-1.84 0.84-3.51 2.16-4.65-1.89-0.93-3.98-1.44-6.22-1.44h-16.25c-7.84 0-14.22 6.38-14.22 14.22v4.06c0 3.35 2.75 6.09 6.1 6.09h27.89c-0.71-1.21-2.01-2.03-3.52-2.03z"/>
</svg>