<svg width="100" height="100" viewBox="0 0 100 100" fill="none" xmlns="http://www.w3.org/2000/svg">
<rect width="100" height="100" rx="20" fill="#3F7E8B"/>
<g clip-path="url(#clip0_49_21075)">
<path d="M25.9799 11.7031L47.8137 31.8198V31.8152V11.7495H52.064V31.9098L73.9956 11.7031V34.6391H83V67.7221H74.0233V88.1454L52.064 68.8526V88.367H47.8137V69.1707L26.0046 88.3796V67.7221H17V34.6391H25.9799V11.7031ZM44.6096 38.8374H21.2502V63.5238H25.9993V55.7368L44.6096 38.8374ZM30.2546 57.5996V79.0115L47.8137 63.5459V41.6509L30.2546 57.5996ZM52.1862 63.3413V41.6302L69.7505 57.5799V67.7221H69.7731V78.7929L52.1862 63.3413ZM74.0233 63.5238H78.7498V38.8374H55.5644L74.0233 55.5618V63.5238ZM69.7454 34.6391V21.3601L55.3327 34.6391H69.7454ZM44.6426 34.6391H30.2301V21.3601L44.6426 34.6391Z" fill="white"/>
</g>
<defs>
<clipPath id="clip0_49_21075">
<rect width="66" height="76.8281" fill="white" transform="translate(17 11.7031)"/>
</clipPath>
</defs>
</svg>
