<svg width="100" height="100" viewBox="0 0 100 100" fill="none" xmlns="http://www.w3.org/2000/svg">
<rect width="100" height="100" rx="20" fill="#D97757"/>
<g clip-path="url(#clip0_49_21096)">
<path d="M29.7532 60.0773L42.5392 52.9305L42.7532 52.3077L42.5392 51.9634H41.9139L39.7747 51.8323L32.4684 51.6356L26.1329 51.3733L19.9949 51.0455L18.4481 50.7177L17 48.8162L17.1481 47.8655L18.4481 46.9968L20.3076 47.1607L24.4215 47.4393L30.5924 47.8655L35.0684 48.1278L41.7 48.8162H42.7532L42.9013 48.39L42.5392 48.1278L42.2595 47.8655L35.8747 43.5545L28.9633 38.9976L25.343 36.375L23.3848 35.0472L22.3975 33.8015L21.9696 31.0804L23.7468 29.1298L26.1329 29.2937L26.7418 29.4577L29.1608 31.3099L34.3278 35.2931L41.0747 40.2434L42.062 41.063L42.457 40.7843L42.5063 40.5876L42.062 39.85L38.3924 33.2441L34.4759 26.5236L32.7316 23.737L32.2709 22.065C32.1063 21.3766 31.9911 20.8029 31.9911 20.098L34.0152 17.3606L35.1342 17L37.8329 17.3606L38.9684 18.3441L40.6468 22.1634L43.362 28.1791L47.5747 36.3586L48.8089 38.7845L49.4671 41.0302L49.7139 41.7186H50.1418V41.3252L50.4873 36.7192L51.1291 31.0641L51.7544 23.7861L51.9684 21.7372L52.9886 19.2784L55.0127 17.9507L56.5924 18.7047L57.8924 20.557L57.7114 21.7536L56.938 26.753L55.4241 34.5883L54.4367 39.8336H55.0127L55.6709 39.1779L58.3367 35.6537L62.8127 30.0806L64.7873 27.8677L67.0911 25.4253L68.5722 24.2615H71.3696L73.4266 27.3104L72.5051 30.4576L69.6253 34.0965L67.2392 37.1781L63.8165 41.7678L61.6772 45.4395L61.8747 45.7346L62.3848 45.6854L70.119 44.0463L74.2987 43.2922L79.2848 42.4399L81.5392 43.4889L81.7861 44.5544L80.8975 46.7345L75.5658 48.0458L69.3127 49.2916L59.9987 51.4881L59.8835 51.57L60.0152 51.7339L64.2114 52.1273L66.0051 52.2257H70.3987L78.5772 52.8322L80.7165 54.2419L82 55.963L81.7861 57.2743L78.4949 58.9463L74.0519 57.8972L63.6848 55.4385L60.1304 54.5533H59.6367V54.8484L62.5987 57.7333L68.0291 62.618L74.8253 68.9124L75.1709 70.4696L74.2987 71.699L73.3772 71.5679L67.4038 67.0929L65.1 65.0768L59.8835 60.7002H59.538V61.1592L60.7392 62.9131L67.0911 72.4202L67.4203 75.3379L66.9595 76.2887L65.3139 76.8624L63.5038 76.5345L59.7848 71.3384L55.9506 65.4866L52.857 60.2412L52.4785 60.4543L50.6519 80.0424L49.7962 81.0422L47.8215 81.7963L46.1759 80.5505L45.3038 78.5343L46.1759 74.5511L47.2291 69.355L48.0848 65.2243L48.8582 60.0937L49.319 58.389L49.2861 58.2742L48.9076 58.3234L45.024 63.6343L39.1165 71.5843L34.443 76.5673L33.3241 77.0099L31.3823 76.01L31.5633 74.2233L32.6494 72.6333L39.1165 64.4375L43.0165 59.3561L45.5342 56.422L45.5177 55.9958H45.3696L28.1899 67.1093L25.1291 67.5027L23.8127 66.2734L23.9772 64.2572L24.6025 63.6015L29.7696 60.0609L29.7532 60.0773Z" fill="white"/>
</g>
<defs>
<clipPath id="clip0_49_21096">
<rect width="65" height="65" fill="white" transform="translate(17 17)"/>
</clipPath>
</defs>
</svg>
