<svg width="101" height="100" viewBox="0 0 101 100" fill="none" xmlns="http://www.w3.org/2000/svg">
<path d="M9.76336 2.89084C11.123 2.06158 12.5396 1.4112 14.0304 0.928164C14.8576 0.66011 15.7013 0.455927 16.557 0.287207C17.6497 0.0717274 18.7462 -0.000233394 19.8558 5.68351e-07C40.1975 0.00351001 60.5393 0.00223991 80.8811 0.00374395C81.4788 0.0038108 82.0701 0.0769742 82.6635 0.156455C83.9155 0.324139 85.1318 0.631366 86.3197 1.04414C87.3869 1.41494 88.419 1.86869 89.4127 2.41764C90.5248 3.03195 91.5661 3.7411 92.5523 4.537C93.2816 5.12545 93.9605 5.77102 94.586 6.46452C95.4842 7.46016 96.323 8.50551 97.0203 9.65811C97.9795 11.2437 98.751 12.9106 99.2355 14.7027C99.417 15.3741 99.5866 16.0494 99.7337 16.729C99.8175 17.1161 99.8392 17.5163 99.8988 17.9091C100.085 19.137 100.005 20.3731 100.006 21.6054C100.011 41.3345 100.011 61.0636 100.002 80.7926C100.002 81.3643 99.8979 81.9364 99.8361 82.5075C99.678 83.9688 99.2715 85.3695 98.7713 86.7436C98.2834 88.0842 97.6437 89.3514 96.8824 90.5602C95.7216 92.4033 94.2867 94.0031 92.6259 95.4027C91.6562 96.2199 90.6076 96.9249 89.4972 97.5418C88.3595 98.174 87.171 98.6871 85.9373 99.0902C85.133 99.353 84.3166 99.5831 83.4744 99.7058C82.9524 99.7819 82.4352 99.8922 81.9124 99.9606C81.6049 100.001 81.2907 99.9987 80.9795 99.9988C60.3258 100 39.6721 100.001 19.0184 99.9976C18.4551 99.9976 17.8967 99.92 17.3369 99.8454C16.0861 99.6787 14.8722 99.3684 13.6841 98.9598C12.2246 98.4579 10.8401 97.7942 9.53591 96.9629C8.7484 96.4608 8.00981 95.8991 7.28957 95.3048C6.01324 94.2516 4.89169 93.0568 3.91389 91.7276C3.05569 90.5609 2.33187 89.3155 1.73965 87.9891C1.16303 86.6976 0.717832 85.3665 0.419163 83.9878C0.27922 83.3418 0.177246 82.6852 0.101976 82.0284C0.0377037 81.4677 0.0107311 80.8999 0.0106308 80.3352C0.00625234 60.1717 0.0104639 40.0082 2.4292e-06 19.8446C-0.000799728 18.2924 0.197065 16.7762 0.587415 15.2822C1.11283 13.2715 1.9071 11.3724 3.01578 9.60971C3.54203 8.77306 4.10681 7.96482 4.76859 7.22754C5.10115 6.85704 5.41349 6.46719 5.76069 6.1112C6.93519 4.90696 8.22833 3.84701 9.66286 2.9638C9.69113 2.94642 9.71663 2.92457 9.76336 2.89084ZM17.9893 70.469C19.374 73.6115 21.3906 76.2661 24.1655 78.3018C28.7077 81.6341 33.7702 82.7766 39.3122 81.7761C39.5911 81.7258 39.7584 81.7861 39.9444 81.9888C41.6375 83.8341 43.6258 85.2808 45.8998 86.3287C49.364 87.9249 52.9938 88.4181 56.7591 87.8824C60.943 87.2873 64.5412 85.4797 67.5509 82.5204C69.6497 80.4567 71.1831 78.0232 72.1424 75.2376C72.2522 74.9188 72.4082 74.77 72.7472 74.6915C76.509 73.8205 79.7437 71.9961 82.3535 69.1516C85.9168 65.268 87.6783 60.6735 87.5498 55.3842C87.4762 52.3556 86.6907 49.5136 85.262 46.8465C84.5805 45.5743 83.7595 44.3977 82.8038 43.3168C82.6697 43.1651 82.6308 43.0341 82.7008 42.8405C82.7992 42.5688 82.8703 42.2868 82.9441 42.0069C83.8833 38.4464 83.8205 34.8992 82.6994 31.3957C81.4261 27.4168 79.1334 24.1275 75.749 21.6609C71.2513 18.383 66.2324 17.2647 60.7542 18.2418C60.4378 18.2982 60.2455 18.244 60.0332 18.0103C58.8494 16.7073 57.4951 15.6052 55.987 14.6994C52.2583 12.4598 48.2193 11.595 43.9043 12.0629C39.4464 12.5464 35.6196 14.3953 32.4302 17.5384C30.3168 19.6211 28.7888 22.0851 27.8324 24.8963C27.7501 25.1379 27.6331 25.2449 27.3814 25.3023C23.7007 26.1416 20.5341 27.9046 17.8971 30.612C16.2055 32.3486 14.9013 34.3438 13.9624 36.5731C12.3512 40.3983 12.0173 44.3461 12.9364 48.3892C13.6358 51.4658 15.0325 54.2023 17.1019 56.5859C17.3236 56.8413 17.3527 57.0472 17.2567 57.3584C16.6244 59.4082 16.3481 61.5068 16.4359 63.6531C16.532 66.0044 17.04 68.2608 17.9893 70.469Z" fill="#10A37F"/>
<path d="M17.9785 70.4465C17.04 68.2613 16.532 66.0049 16.4358 63.6535C16.3481 61.5073 16.6243 59.4086 17.2566 57.3589C17.3526 57.0477 17.3236 56.8418 17.1019 56.5864C15.0325 54.2028 13.6358 51.4663 12.9364 48.3897C12.0172 44.3466 12.3511 40.3989 13.9623 36.5735C14.9012 34.3443 16.2055 32.3491 17.897 30.6124C20.534 27.9051 23.7007 26.1421 27.3814 25.3028C27.6331 25.2454 27.7501 25.1384 27.8323 24.8968C28.7888 22.0856 30.3167 19.6216 32.4301 17.5389C35.6195 14.3958 39.4463 12.5468 43.9043 12.0634C48.2192 11.5955 52.2583 12.4603 55.9869 14.6999C57.495 15.6057 58.8493 16.7077 60.0331 18.0107C60.2455 18.2445 60.4377 18.2987 60.7542 18.2423C66.2323 17.2652 71.2512 18.3834 75.7489 21.6614C79.1333 24.128 81.4261 27.4173 82.6993 31.3961C83.8205 34.8997 83.8832 38.4469 82.944 42.0073C82.8702 42.2873 82.7991 42.5693 82.7008 42.841C82.6307 43.0345 82.6696 43.1655 82.8038 43.3173C83.7594 44.3982 84.5804 45.5747 85.2619 46.8469C86.6906 49.514 87.4761 52.3561 87.5497 55.3847C87.6782 60.674 85.9167 65.2684 82.3535 69.152C79.7436 71.9966 76.5089 73.821 72.7471 74.6919C72.4082 74.7704 72.2521 74.9193 72.1423 75.2381C71.183 78.0237 69.6497 80.4571 67.5508 82.5208C64.5411 85.4802 60.9429 87.2878 56.7591 87.8829C52.9937 88.4185 49.3639 87.9254 45.8998 86.3291C43.6257 85.2813 41.6375 83.8346 39.9443 81.9892C39.7584 81.7866 39.591 81.7262 39.3121 81.7766C33.7702 82.7771 28.7076 81.6347 24.1654 78.3023C21.3906 76.2665 19.3739 73.612 17.9785 70.4465ZM62.135 35.946C61.5174 35.5902 60.8967 35.2396 60.284 34.8754C60.0993 34.7656 59.9485 34.7623 59.7598 34.8719C57.7565 36.0352 55.7488 37.1909 53.7435 38.3507C53.6827 38.3858 53.6341 38.4418 53.5627 38.5027C53.6832 38.5774 53.7755 38.6382 53.871 38.6934C57.9116 41.0269 61.9527 43.3598 65.9936 45.693C67.9609 46.8289 69.9277 47.966 71.8959 49.1004C72.218 49.286 72.5069 49.5067 72.7339 49.8046C73.108 50.2956 73.242 50.8532 73.2415 51.4638C73.2368 56.922 73.2388 62.3802 73.2388 67.8384C73.2388 68.2394 73.2371 68.6404 73.2406 69.0414C73.2414 69.1243 73.2623 69.207 73.282 69.3478C73.8069 69.1118 74.3025 68.9155 74.7743 68.6727C79.8166 66.0776 82.8684 60.8606 82.5249 55.207C82.2355 50.4415 80.0491 46.6951 76.076 44.0343C75.0233 43.3293 73.8924 42.7405 72.7936 42.1049C69.2558 40.0585 65.7162 38.0152 62.135 35.946ZM53.4723 74.8447C52.0446 75.6689 50.6154 76.4904 49.1897 77.318C47.7712 78.1416 46.342 78.9472 44.9055 79.8037C45.0311 79.9095 45.1128 79.9836 45.1998 80.0509C47.9894 82.2104 51.1502 83.226 54.6713 83.0667C59.976 82.8267 64.7189 79.6078 66.9379 74.772C67.8051 72.882 68.2383 70.8947 68.239 68.8155C68.2412 63.1343 68.2398 57.4531 68.2398 51.7719C68.2398 51.6271 68.2293 51.4814 68.242 51.3377C68.2614 51.1184 68.164 50.9921 67.9759 50.8876C67.3821 50.5576 66.7967 50.2125 66.2084 49.8726C64.8391 49.0813 63.4707 48.2883 62.0993 47.5005C61.9923 47.439 61.8948 47.3202 61.7215 47.3822V47.8476C61.7215 54.7208 61.7217 61.5939 61.7206 68.467C61.7206 68.6448 61.7237 68.8253 61.6963 69C61.5691 69.8109 61.1412 70.4153 60.4294 70.8258C58.1235 72.1557 55.8197 73.489 53.4723 74.8447ZM48.0578 64.6845C45.3289 66.2603 42.598 67.8326 39.8723 69.4141C38.9491 69.9497 38.045 69.9547 37.1221 69.4143C35.7479 68.6096 34.3644 67.821 32.9856 67.0244C29.2828 64.885 25.5805 62.7449 21.8772 60.6064C21.8158 60.571 21.7442 60.5533 21.6611 60.5211C21.6398 60.6016 21.6211 60.6529 21.6131 60.7058C21.4288 61.9225 21.3895 63.1425 21.5258 64.3672C21.916 67.8725 23.3843 70.8529 25.9517 73.2624C28.6789 75.8218 31.9505 77.0917 35.6829 77.1261C38.2077 77.1494 40.5767 76.5101 42.7696 75.2496C45.2607 73.8179 47.748 72.3798 50.2362 70.9433C52.8015 69.4623 55.365 67.9782 57.9326 66.5014C58.1352 66.3849 58.2435 66.2596 58.2426 66.008C58.2339 63.7135 58.2379 61.4188 58.2363 59.1242C58.2362 59.0422 58.2169 58.9601 58.2002 58.8272C54.8196 60.78 51.4388 62.7324 48.0578 64.6845ZM17.7446 41.1995C17.328 43.2847 17.3501 45.3655 17.8756 47.4262C18.8678 51.3177 21.0831 54.3169 24.5463 56.3592C27.3479 58.0115 30.1751 59.6202 32.991 61.2481C35.2185 62.5358 37.4466 63.8222 39.6723 65.1131C39.8655 65.2252 40.0236 65.2869 40.2513 65.154C42.2517 63.9857 44.2603 62.8313 46.2653 61.671C46.3261 61.6358 46.3753 61.5807 46.4506 61.5176C46.3281 61.4416 46.2362 61.3811 46.141 61.3262C44.7232 60.5073 43.3049 59.6893 41.8868 58.8708C37.3138 56.2315 32.743 53.5885 28.1663 50.9557C27.2166 50.4094 26.7619 49.6187 26.7637 48.5204C26.7733 42.7385 26.7682 36.9566 26.7682 31.1747V30.7581C26.7081 30.7443 26.6841 30.7306 26.6659 30.736C26.581 30.7617 26.4964 30.7894 26.414 30.8223C24.4369 31.6111 22.7226 32.7856 21.2757 34.3455C19.4759 36.2859 18.3142 38.5593 17.7446 41.1995ZM32.5506 26.5213C32.0091 28.0604 31.7555 29.6489 31.7546 31.2772C31.7513 37.0474 31.7549 42.8176 31.7484 48.5878C31.7481 48.8662 31.8342 49.0317 32.0816 49.173C34.0354 50.2886 35.9811 51.4184 37.9299 52.5427C38.0223 52.596 38.1205 52.639 38.2489 52.7033C38.2566 52.5642 38.2663 52.4677 38.2666 52.3711C38.2728 50.8452 38.2813 49.3193 38.2824 47.7934C38.2848 44.5741 38.2831 41.3549 38.2831 38.1356C38.2831 35.9188 38.2845 33.7021 38.2822 31.4853C38.2817 30.9474 38.4086 30.4502 38.7089 29.9997C38.9629 29.6186 39.3164 29.3577 39.7076 29.132C44.7721 26.2095 49.8349 23.284 54.8975 20.3582C54.9588 20.3228 55.012 20.2731 55.0943 20.211C54.9483 20.0924 54.8321 19.9905 54.7084 19.8988C51.0102 17.1555 46.8978 16.2452 42.4494 17.415C37.6105 18.6876 34.3354 21.7872 32.5506 26.5213ZM46.4328 38.5289C51.0043 35.8891 55.5771 33.2518 60.1459 30.6077C61.0581 30.0797 61.9547 30.0667 62.8678 30.5955C65.1904 31.9405 67.5164 33.2798 69.8406 34.6224C72.5986 36.2155 75.356 37.8096 78.1142 39.4024C78.179 39.4398 78.2505 39.4658 78.3561 39.5142C78.3811 39.3821 78.4052 39.2777 78.4203 39.1719C78.5367 38.3545 78.5841 37.5339 78.5565 36.7076C78.4716 34.168 77.7635 31.8156 76.4281 29.6575C74.928 27.2333 72.8777 25.4167 70.2901 24.2218C67.9335 23.1335 65.4548 22.7131 62.8701 22.9732C60.8131 23.1802 58.8939 23.8184 57.1042 24.8572C54.5902 26.3164 52.0692 27.7635 49.5513 29.216C47.0624 30.6519 44.5746 32.0897 42.0828 33.5206C41.8806 33.6367 41.7676 33.7619 41.7685 34.0128C41.776 36.3073 41.7726 38.6019 41.7745 40.8964C41.7745 40.9779 41.7967 41.0594 41.816 41.1917C43.368 40.2964 44.8791 39.4247 46.4328 38.5289ZM53.6283 57.4231C55.0746 56.5876 56.5194 55.7495 57.9689 54.9195C58.1502 54.8157 58.2436 54.7078 58.243 54.4801C58.2346 51.4955 58.2358 48.5109 58.241 45.5263C58.2413 45.3357 58.1808 45.2255 58.0139 45.1295C55.4273 43.642 52.8431 42.1504 50.2632 40.6515C50.0716 40.5402 49.9323 40.5481 49.7458 40.6564C47.1659 42.1549 44.5827 43.648 41.9965 45.1356C41.8283 45.2323 41.7692 45.3422 41.7695 45.532C41.7744 48.5166 41.7748 51.5012 41.7687 54.4858C41.7683 54.693 41.8459 54.8049 42.0188 54.9045C44.5862 56.3816 47.1521 57.8615 49.7123 59.351C49.9384 59.4825 50.1028 59.4676 50.3196 59.3397C51.4033 58.7006 52.4963 58.0772 53.6283 57.4231Z" fill="#FAFBFB"/>
<path d="M62.1562 35.958C65.7162 38.0148 69.2558 40.0582 72.7935 42.1045C73.8924 42.7401 75.0232 43.329 76.076 44.034C80.0491 46.6947 82.2354 50.4411 82.5249 55.2067C82.8684 60.8603 79.8166 66.0773 74.7742 68.6724C74.3025 68.9151 73.8068 69.1115 73.282 69.3475C73.2622 69.2067 73.2413 69.124 73.2406 69.0411C73.237 68.6401 73.2388 68.2391 73.2388 67.8381C73.2388 62.3799 73.2368 56.9217 73.2415 51.4634C73.242 50.8528 73.108 50.2953 72.7339 49.8043C72.5069 49.5064 72.218 49.2857 71.8959 49.1001C69.9276 47.9657 67.9609 46.8286 65.9935 45.6926C61.9527 43.3595 57.9116 41.0265 53.871 38.693C53.7754 38.6379 53.6831 38.5771 53.5626 38.5023C53.634 38.4415 53.6827 38.3855 53.7434 38.3503C55.7488 37.1906 57.7565 36.0348 59.7597 34.8715C59.9484 34.7619 60.0993 34.7653 60.284 34.8751C60.8966 35.2392 61.5174 35.5898 62.1562 35.958Z" fill="#11A480"/>
<path d="M53.4937 74.8323C55.8197 73.4885 58.1235 72.1551 60.4294 70.8253C61.1412 70.4148 61.5692 69.8104 61.6963 68.9995C61.7237 68.8248 61.7206 68.6443 61.7206 68.4665C61.7217 61.5934 61.7215 54.7203 61.7215 47.8471V47.3817C61.8948 47.3197 61.9923 47.4385 62.0994 47.5C63.4707 48.2878 64.8391 49.0808 66.2084 49.8721C66.7967 50.212 67.3821 50.5571 67.9759 50.8871C68.164 50.9916 68.2614 51.1179 68.242 51.3372C68.2293 51.4809 68.2398 51.6266 68.2398 51.7714C68.2398 57.4526 68.2412 63.1338 68.2391 68.815C68.2383 70.8942 67.8051 72.8815 66.9379 74.7715C64.7189 79.6073 59.976 82.8262 54.6713 83.0662C51.1502 83.2255 47.9894 82.2099 45.1998 80.0504C45.1128 79.9831 45.0311 79.909 44.9055 79.8032C46.342 78.9467 47.7712 78.1411 49.1897 77.3175C50.6154 76.4899 52.0447 75.6684 53.4937 74.8323Z" fill="#11A480"/>
<path d="M48.0792 64.6725C51.4537 62.724 54.8067 60.7872 58.2002 58.8271C58.2169 58.9601 58.2362 59.0421 58.2363 59.1242C58.2379 61.4188 58.234 63.7134 58.2426 66.0079C58.2436 66.2596 58.1351 66.3848 57.9326 66.5013C55.365 67.9782 52.8015 69.4623 50.2362 70.9433C47.748 72.3798 45.2606 73.8178 42.7696 75.2496C40.5767 76.51 38.2077 77.1493 35.6829 77.126C31.9505 77.0916 28.6789 75.8217 25.9517 73.2623C23.3843 70.8529 21.9161 67.8725 21.5258 64.3671C21.3895 63.1424 21.4289 61.9224 21.6131 60.7057C21.6211 60.6528 21.6399 60.6015 21.6611 60.521C21.7442 60.5533 21.8159 60.5709 21.8772 60.6063C25.5805 62.7448 29.2828 64.8849 32.9856 67.0243C34.3644 67.821 35.748 68.6096 37.1221 69.4142C38.045 69.9546 38.9491 69.9497 39.8723 69.414C42.598 67.8326 45.3289 66.2603 48.0792 64.6725Z" fill="#11A380"/>
<path d="M17.7505 41.1713C18.3142 38.5588 19.4759 36.2854 21.2757 34.3451C22.7226 32.7852 24.4369 31.6107 26.414 30.8218C26.4964 30.789 26.581 30.7613 26.6659 30.7356C26.6841 30.7301 26.7081 30.7439 26.7682 30.7577V31.1743C26.7682 36.9562 26.7733 42.7381 26.7637 48.5199C26.7619 49.6183 27.2166 50.4089 28.1663 50.9553C32.743 53.5881 37.3138 56.2311 41.8868 58.8704C43.3049 59.6889 44.7232 60.5069 46.141 61.3257C46.2362 61.3807 46.3281 61.4412 46.4506 61.5171C46.3753 61.5803 46.3261 61.6354 46.2653 61.6705C44.2603 62.8309 42.2517 63.9852 40.2513 65.1536C40.0236 65.2865 39.8655 65.2248 39.6723 65.1127C37.4467 63.8218 35.2185 62.5354 32.991 61.2477C30.1751 59.6198 27.3479 58.011 24.5463 56.3588C21.0831 54.3165 18.8679 51.3173 17.8756 47.4257C17.3502 45.3651 17.328 43.2843 17.7505 41.1713Z" fill="#11A380"/>
<path d="M32.5592 26.4955C34.3354 21.7863 37.6105 18.6866 42.4495 17.4141C46.8978 16.2443 51.0102 17.1546 54.7085 19.8978C54.8322 19.9895 54.9483 20.0915 55.0943 20.2101C55.012 20.2722 54.9588 20.3218 54.8975 20.3572C49.8349 23.2831 44.7721 26.2086 39.7076 29.131C39.3164 29.3568 38.9629 29.6177 38.7089 29.9988C38.4087 30.4493 38.2817 30.9465 38.2822 31.4844C38.2846 33.7011 38.2832 35.9179 38.2832 38.1346C38.2832 41.3539 38.2848 44.5732 38.2825 47.7925C38.2813 49.3184 38.2729 50.8442 38.2667 52.3702C38.2663 52.4667 38.2566 52.5633 38.249 52.7024C38.1205 52.638 38.0223 52.595 37.93 52.5417C35.9811 51.4174 34.0354 50.2877 32.0816 49.1721C31.8342 49.0307 31.7481 48.8652 31.7484 48.5868C31.7549 42.8166 31.7513 37.0464 31.7546 31.2762C31.7556 29.648 32.0091 28.0594 32.5592 26.4955Z" fill="#11A37F"/>
<path d="M46.4116 38.5408C44.8791 39.4245 43.368 40.2963 41.816 41.1915C41.7967 41.0592 41.7745 40.9777 41.7745 40.8962C41.7726 38.6017 41.776 36.3072 41.7684 34.0127C41.7676 33.7617 41.8806 33.6366 42.0828 33.5205C44.5746 32.0896 47.0624 30.6517 49.5513 29.2159C52.0692 27.7634 54.5902 26.3163 57.1042 24.8571C58.8939 23.8183 60.8132 23.1801 62.8701 22.9731C65.4548 22.713 67.9335 23.1334 70.2901 24.2217C72.8777 25.4166 74.928 27.2332 76.4281 29.6574C77.7635 31.8155 78.4716 34.1679 78.5565 36.7074C78.5841 37.5338 78.5367 38.3543 78.4203 39.1718C78.4052 39.2775 78.3811 39.382 78.3561 39.514C78.2505 39.4657 78.179 39.4397 78.1142 39.4022C75.356 37.8095 72.5986 36.2153 69.8406 34.6222C67.5164 33.2797 65.1904 31.9404 62.8678 30.5953C61.9547 30.0666 61.0581 30.0796 60.1459 30.6075C55.5771 33.2517 51.0043 35.889 46.4116 38.5408Z" fill="#11A380"/>
<path d="M53.6072 57.4355C52.4964 58.077 51.4033 58.7004 50.3196 59.3395C50.1028 59.4674 49.9384 59.4823 49.7123 59.3508C47.1521 57.8613 44.5862 56.3814 42.0189 54.9043C41.8459 54.8047 41.7683 54.6928 41.7687 54.4856C41.7749 51.501 41.7745 48.5164 41.7695 45.5318C41.7692 45.342 41.8283 45.2321 41.9965 45.1354C44.5827 43.6478 47.1659 42.1547 49.7458 40.6562C49.9323 40.5478 50.0716 40.54 50.2632 40.6513C52.8431 42.1502 55.4273 43.6418 58.0139 45.1293C58.1808 45.2253 58.2414 45.3355 58.2411 45.5261C58.2358 48.5107 58.2347 51.4953 58.243 54.4798C58.2437 54.7076 58.1502 54.8155 57.9689 54.9193C56.5194 55.7493 55.0746 56.5873 53.6072 57.4355L53.6072 57.4355Z" fill="#11A37F"/>
</svg>
