<svg width="100" height="100" viewBox="0 0 100 100" fill="none" xmlns="http://www.w3.org/2000/svg">
<rect width="100" height="100" rx="20" fill="url(#paint0_linear_49_21086)"/>
<path d="M51.3004 18.565L54.2949 26.881C57.6213 36.1106 64.8894 43.3787 74.119 46.7051L82.435 49.6996C83.1846 49.9719 83.1846 51.0347 82.435 51.3032L74.119 54.2977C64.8894 57.6241 57.6213 64.8922 54.2949 74.1218L51.3004 82.4378C51.0281 83.1874 49.9653 83.1874 49.6968 82.4378L46.7023 74.1218C43.3759 64.8922 36.1078 57.6241 26.8782 54.2977L18.5622 51.3032C17.8126 51.0309 17.8126 49.9681 18.5622 49.6996L26.8782 46.7051C36.1078 43.3787 43.3759 36.1106 46.7023 26.881L49.6968 18.565C49.9653 17.8117 51.0281 17.8117 51.3004 18.565Z" fill="white"/>
<defs>
<linearGradient id="paint0_linear_49_21086" x1="100" y1="6.00001" x2="2.6226e-06" y2="100" gradientUnits="userSpaceOnUse">
<stop offset="0.0275716" stop-color="#DE83FF"/>
<stop offset="0.743661" stop-color="#B563FF"/>
</linearGradient>
</defs>
</svg>
