<svg width="100" height="100" viewBox="0 0 100 100" fill="none" xmlns="http://www.w3.org/2000/svg">
<rect width="100" height="100" rx="20" fill="#FBF4EE"/>
<g clip-path="url(#clip0_49_21107)">
<path d="M77.517 35.3694H55.0319C50.0518 35.3694 48.5578 38.2715 47.8357 40.5536C47.8357 40.0823 48.5578 37.5522 49.4293 34.7244C50.3008 31.8967 51.2719 28.8208 51.77 27.2333C52.766 24.0335 54.4094 18.0059 60.3108 18.0059C67.2829 18.0059 68.254 25.5466 69.748 29.9371C71.2421 34.3275 73.9064 35.3694 77.4921 35.3694H77.517Z" fill="url(#paint0_radial_49_21107)"/>
<path d="M21.8645 65.6315H33.3685C37.9751 65.6315 40.9382 63.1013 41.9094 59.6038C42.9054 56.1063 47.8357 40.5536 47.8357 40.5536C47.8357 39.611 50.7988 30.3836 51.7699 27.2085C52.7659 24.0335 54.4094 18.0059 60.3108 18.0059H34.6882C28.4382 18.0059 25.1514 19.9158 21.2171 26.5884C17.6066 33.5586 13 49.1361 13 57.0737C13 65.0113 19.8974 65.6563 21.8645 65.6563V65.6315Z" fill="url(#paint1_linear_49_21107)"/>
<path d="M53.1893 60.4473C53.1893 60.9434 52.4423 63.4735 51.5957 66.3012C50.7242 69.129 49.7531 72.2048 49.2551 73.7923C48.284 76.9178 46.6903 82.7966 40.7142 82.995C33.7919 82.995 32.7959 75.4543 31.3019 71.039C29.9324 66.971 27.5419 65.7803 24.3298 65.6315H23.533H46.018C50.9981 65.6315 52.517 62.7293 53.2142 60.4473H53.1893Z" fill="url(#paint2_radial_49_21107)"/>
<path d="M79.1354 35.3686H67.6314C63.0248 35.3686 60.0617 37.8987 59.0906 41.3962C58.1195 44.8937 53.1643 60.4464 53.1643 60.4464C53.1643 61.389 50.2011 70.6165 49.23 73.7915C48.2589 76.9665 46.5906 82.9941 40.3655 82.9941H65.988C72.238 82.9941 75.5248 81.0842 79.4591 74.4116C83.3934 67.7391 87.9999 52.1863 87.6762 43.9263C87.6762 35.6662 80.7788 35.3438 78.8117 35.3438H79.1354V35.3686Z" fill="url(#paint3_radial_49_21107)"/>
</g>
<defs>
<radialGradient id="paint0_radial_49_21107" cx="0" cy="0" r="1" gradientUnits="userSpaceOnUse" gradientTransform="translate(73.1594 35.0717) scale(21.4143 21.3323)">
<stop offset="0.03" stop-color="#008DEF"/>
<stop offset="1" stop-color="#0538C7"/>
</radialGradient>
<linearGradient id="paint1_linear_49_21107" x1="36.9293" y1="19.2213" x2="36.2868" y2="63.8208" gradientUnits="userSpaceOnUse">
<stop stop-color="#33BFFB"/>
<stop offset="0.05" stop-color="#1FA6EC"/>
<stop offset="0.2" stop-color="#1196E3"/>
<stop offset="0.3" stop-color="#0D91E0"/>
<stop offset="0.6" stop-color="#5DB56A"/>
<stop offset="1" stop-color="#FFC800"/>
</linearGradient>
<radialGradient id="paint2_radial_49_21107" cx="0" cy="0" r="1" gradientUnits="userSpaceOnUse" gradientTransform="translate(28.1395 66.1276) scale(21.1653 21.0842)">
<stop offset="0.03" stop-color="#FFA54F"/>
<stop offset="0.56" stop-color="#FF683F"/>
<stop offset="1" stop-color="#C8303C"/>
</radialGradient>
<radialGradient id="paint3_radial_49_21107" cx="0" cy="0" r="1" gradientUnits="userSpaceOnUse" gradientTransform="translate(60.7238 93.4909) rotate(-76.4599) scale(56.4106 110.29)">
<stop offset="0.03" stop-color="#FFB152"/>
<stop offset="0.19" stop-color="#FCA25C"/>
<stop offset="0.32" stop-color="#F47B76"/>
<stop offset="0.48" stop-color="#EE588E"/>
<stop offset="0.6" stop-color="#D555AC"/>
<stop offset="0.73" stop-color="#B253D5"/>
<stop offset="0.84" stop-color="#A552E6"/>
<stop offset="0.9" stop-color="#AB5CE8"/>
<stop offset="0.99" stop-color="#BD78EF"/>
<stop offset="1" stop-color="#C07DF1"/>
</radialGradient>
<clipPath id="clip0_49_21107">
<rect width="75" height="65" fill="white" transform="translate(13 18)"/>
</clipPath>
</defs>
</svg>
