<svg width="175" height="26" viewBox="0 0 175 26" fill="none" xmlns="http://www.w3.org/2000/svg">
<g clip-path="url(#clip0_102_9806)">
<path d="M10.9027 9.14333C10.9027 9.14333 9.45909 8.99971 9.45909 10.2861V15.9999H18.9924V17.7147C18.9924 17.7147 19.0209 18.5714 18.1258 18.5714H9.45909V26H19.8591C19.8591 26 26.156 25.0281 26.2142 18.5714V9.14333H10.9027ZM25.9245 0H7.14757C0.357852 1.59962 0.214233 7.17105 0.214233 7.17105V26H7.43728V8.85733C7.43728 7.40009 8.8809 7.14381 8.8809 7.14381H25.9258L25.9245 0ZM50.7137 20.6118C50.2184 20.9424 49.8519 21.185 49.5932 21.3398C48.6671 21.913 47.7843 22.355 46.966 22.7079C45.7811 23.1932 44.725 23.4359 43.7779 23.4359C40.5254 23.4359 37.8325 22.443 35.6559 20.4348C33.4794 18.4266 32.4047 15.912 32.4047 12.8675C32.4047 9.93324 33.3741 7.39514 35.334 5.23219C37.2939 3.07048 39.6637 2.01067 42.4642 2.01067C43.628 2.01067 44.876 2.20876 46.1686 2.62971C47.8487 3.15838 49.2057 3.95324 50.2828 4.98952L48.4083 7.06333C47.6122 6.292 46.5784 5.71752 45.3713 5.36467C44.4675 5.09971 43.477 4.96848 42.3776 4.96848C40.4177 4.96848 38.7586 5.76086 37.445 7.32829C36.1314 8.91676 35.464 10.7925 35.464 12.9988C35.464 15.184 36.2168 16.9706 37.7248 18.4055C39.2328 19.8392 41.1494 20.5672 43.4758 20.5672C44.4452 20.5672 45.4369 20.2577 46.4484 19.6634C47.2891 19.0233 47.72 18.7138 47.741 18.6915V14.1688H41.4515L42.3553 11.3447H50.7137V20.6118ZM69.7122 15.0949C69.7122 17.2789 68.9372 19.1769 67.3859 20.7653C65.8345 22.3538 63.9179 23.171 61.6349 23.171C59.524 23.171 57.6718 22.3761 56.0771 20.8099C54.4824 19.2437 53.7074 17.3457 53.7074 15.1171C53.7074 12.9109 54.4626 11.0129 55.9694 9.37981C57.4761 7.74676 59.3296 6.95314 61.5049 6.95314C63.918 6.95314 65.8779 7.72571 67.4069 9.29191C68.9372 10.8148 69.7122 12.7561 69.7122 15.0949ZM66.7606 15.1394C66.7606 13.6611 66.2654 12.4032 65.2749 11.388C64.2844 10.3505 63.0562 9.84286 61.5916 9.84286C60.2136 9.84286 59.0498 10.3728 58.0803 11.4326C57.1109 12.4911 56.6367 13.7045 56.6367 15.0726C56.6367 16.5075 57.132 17.7209 58.1014 18.7361C59.0708 19.7513 60.278 20.28 61.7414 20.28C63.0996 20.28 64.2621 19.7724 65.2539 18.7571C66.2654 17.7419 66.7606 16.5286 66.7606 15.1394ZM88.452 15.0949C88.452 17.2789 87.677 19.1769 86.1257 20.7653C84.5743 22.3538 82.6578 23.171 80.3747 23.171C78.2638 23.171 76.4116 22.3761 74.8169 20.8099C73.2235 19.2437 72.4472 17.3457 72.4472 15.1171C72.4472 12.9109 73.2024 11.0129 74.7092 9.37981C76.2172 7.74676 78.0694 6.95314 80.2447 6.95314C82.6578 6.95314 84.6177 7.72571 86.1467 9.29191C87.677 10.8148 88.452 12.7561 88.452 15.0949ZM85.5004 15.1394C85.5004 13.6611 85.0052 12.4032 84.0147 11.388C83.0242 10.3505 81.796 9.84286 80.3314 9.84286C78.9534 9.84286 77.7896 10.3728 76.8201 11.4326C75.8507 12.4911 75.3765 13.7045 75.3765 15.0726C75.3765 16.5075 75.8718 17.7209 76.8424 18.7361C77.8106 19.7513 79.0178 20.28 80.4824 20.28C81.8394 20.28 83.002 19.7724 83.9937 18.7571C85.0052 17.7419 85.5004 16.5286 85.5004 15.1394ZM105.793 22.729L103.079 23.1487V20.5227L102.497 21.1838C101.984 21.664 101.404 22.0658 100.774 22.3761C99.8488 22.8027 98.8416 23.0212 97.8232 23.0162C95.7122 23.0162 93.9021 22.2436 92.4375 20.6762C90.9728 19.1088 90.2411 17.2566 90.2411 15.0949C90.2411 12.8663 90.9728 10.9472 92.4164 9.35752C93.86 7.76781 95.6256 6.97419 97.7365 6.97419C98.9437 6.97419 99.9985 7.17229 100.881 7.56971C101.507 7.85695 102.045 8.2321 102.497 8.69638C102.648 8.89448 102.799 9.11486 102.95 9.31295V2.42914L105.835 2.00943L105.793 22.729ZM103.251 15.293C103.251 13.749 102.733 12.4466 101.679 11.388C100.624 10.3059 99.4377 9.77724 98.0819 9.77724C96.5739 9.77724 95.368 10.2849 94.442 11.3001C93.579 12.2695 93.1271 13.4618 93.1271 14.8522C93.1271 16.4184 93.579 17.7196 94.484 18.7349C95.3879 19.7501 96.5306 20.2577 97.9309 20.2577C99.3089 20.2577 100.516 19.7947 101.593 18.8463C102.691 17.8744 103.251 16.6833 103.251 15.293ZM121.021 5.29905H112.944V10.7925H119.211V13.6166H112.944V22.7079L109.799 23.171V2.45143H120.396L121.021 5.29905ZM127.505 3.68705L125.566 6.136L123.714 3.68705L125.674 1.26038L127.505 3.68705ZM126.923 22.729L124.037 23.1264V7.79133L126.923 7.35057V22.729ZM139.956 7.19581L138.599 10.3282C138.42 10.301 138.24 10.2865 138.06 10.2849C137.78 10.2849 137.5 10.3071 137.219 10.3505C136.938 10.3938 136.637 10.5052 136.316 10.66C135.713 10.925 135.195 11.4982 134.743 12.3587C134.243 13.3353 133.984 14.4174 133.988 15.5146V22.7079L131.103 23.171V7.79133L133.774 7.306V10.5052C134.118 9.95305 134.484 9.4021 134.829 8.82886C135.324 8.25438 135.906 7.83591 136.552 7.592C136.896 7.46076 137.521 7.34933 138.469 7.26143C139.374 7.19581 139.891 7.15124 139.956 7.19581ZM161.451 22.729L158.565 23.1487V12.6236C158.565 11.6517 158.35 10.946 157.919 10.5052C157.488 10.0632 156.842 9.84286 156.001 9.84286C154.99 9.84286 154.213 10.2626 153.697 11.1008C153.352 11.674 153.159 12.2918 153.159 12.9096V22.7067L150.273 23.2366V12.6892C150.273 11.7631 150.057 11.0562 149.647 10.5721C149.217 10.0855 148.657 9.84286 147.924 9.84286H147.644C146.631 9.84286 145.898 10.2626 145.447 11.123C145.102 11.7631 144.93 12.579 144.93 13.572V22.7067L141.937 23.2366V7.79133L144.628 7.32829V9.29191C144.93 8.82762 145.231 8.45248 145.512 8.18876C146.287 7.46076 147.192 7.10667 148.204 7.10667C149.345 7.10667 150.185 7.28371 150.767 7.65886C151.262 7.96838 151.736 8.58495 152.21 9.46771C153.201 7.90152 154.601 7.10667 156.454 7.10667C158.22 7.10667 159.535 7.65886 160.395 8.78429C161.107 9.71038 161.451 11.0785 161.451 12.8663V22.729ZM174.637 18.0737C174.637 19.4851 174.142 20.6551 173.151 21.5602C172.161 22.4863 170.91 22.9283 169.402 22.9283C168.261 22.9283 167.248 22.6633 166.322 22.1334C165.396 21.6048 164.708 21.008 164.254 20.3023L166.28 18.4934C166.43 18.7138 166.56 18.8896 166.689 19.0221C167.444 19.7947 168.348 20.1921 169.402 20.1921C170.135 20.1921 170.717 19.994 171.126 19.6189C171.557 19.2437 171.751 18.7138 171.751 18.0291C171.751 17.2578 171.256 16.7279 170.265 16.4407C168.304 15.8451 167.248 15.5146 167.098 15.4477C166.193 14.9847 165.547 14.4993 165.137 13.9471C164.685 13.307 164.449 12.4689 164.449 11.388C164.449 10.0632 164.944 8.96133 165.913 8.07857C166.883 7.19581 168.045 6.7761 169.38 6.7761C170.394 6.7761 171.341 6.99648 172.203 7.46076C173.065 7.92381 173.689 8.40914 174.055 8.98362L172.332 10.8581C172.073 10.599 171.792 10.3629 171.492 10.1524C170.803 9.66705 170.135 9.42438 169.511 9.42438C168.907 9.42438 168.412 9.55686 168.024 9.82057C167.571 10.1524 167.335 10.6377 167.335 11.2778C167.335 11.8956 167.55 12.3587 168.003 12.6459C168.391 12.8886 169.209 13.1535 170.502 13.4395C171.793 13.749 172.785 14.279 173.496 15.0292C174.293 15.8229 174.637 16.8158 174.637 18.0737Z" fill="#3A7AF3"/>
</g>
<defs>
<clipPath id="clip0_102_9806">
<rect width="174.571" height="26" fill="white" transform="translate(0.214233)"/>
</clipPath>
</defs>
</svg>
