<svg width="64" height="64" viewBox="0 0 64 64" fill="none" xmlns="http://www.w3.org/2000/svg">
<path d="M30.0005 2C33.9229 2 37.5677 3.18855 40.5943 5.22515L40.0184 7.75776C39.7625 8.88317 38.8837 9.76199 37.7583 10.0179L32.8919 11.1245C30.6157 11.642 29.0005 13.6657 29.0005 16C29.0005 18.3343 30.6157 20.358 32.8919 20.8755L37.7583 21.9821C38.8837 22.238 39.7625 23.1168 40.0184 24.2422L41.125 29.1086C41.6426 31.3848 43.6663 33 46.0005 33C47.1028 33 48.1358 32.6399 48.9736 32.0201C48.4436 42.0392 40.1518 50 30.0005 50C19.5071 50 11.0005 41.4934 11.0005 31V21C11.0005 10.5066 19.5071 2 30.0005 2Z" fill="url(#paint0_linear_19_3134)"/>
<path d="M5.35349 37.1076C6.39866 36.7502 7.53563 37.3078 7.89298 38.3529C10.9996 47.439 19.7158 54 30.0005 54C40.2853 54 49.0015 47.439 52.1081 38.3529C52.4655 37.3078 53.6024 36.7502 54.6476 37.1076C55.6928 37.4649 56.2503 38.6019 55.893 39.647C52.4453 49.7306 43.1434 57.132 32.0005 57.9287V60C32.0005 61.1046 31.1051 62 30.0005 62C28.896 62 28.0005 61.1046 28.0005 60V57.9287C16.8577 57.132 7.55583 49.7306 4.10811 39.647C3.75075 38.6019 4.30833 37.4649 5.35349 37.1076Z" fill="url(#paint1_linear_19_3134)"/>
<path d="M46.0005 2C46.9343 2 47.7437 2.64607 47.9508 3.55654L49.0573 8.42294C49.5691 10.6738 51.3268 12.4314 53.5776 12.9432L58.444 14.0498C59.3545 14.2568 60.0005 15.0663 60.0005 16C60.0005 16.9337 59.3545 17.7432 58.444 17.9502L53.5776 19.0568C51.3268 19.5686 49.5691 21.3262 49.0573 23.5771L47.9508 28.4435C47.7437 29.3539 46.9343 30 46.0005 30C45.0668 30 44.2574 29.3539 44.0503 28.4435L42.9438 23.5771C42.432 21.3262 40.6743 19.5686 38.4235 19.0568L33.5571 17.9502C32.6466 17.7432 32.0005 16.9337 32.0005 16C32.0005 15.0663 32.6466 14.2568 33.5571 14.0498L38.4235 12.9432C40.6743 12.4314 42.432 10.6738 42.9438 8.42294L44.0503 3.55654C44.2574 2.64607 45.0668 2 46.0005 2Z" fill="url(#paint2_linear_19_3134)"/>
<defs>
<linearGradient id="paint0_linear_19_3134" x1="29.987" y1="2" x2="29.987" y2="50" gradientUnits="userSpaceOnUse">
<stop stop-color="#AC5FEA"/>
<stop offset="1" stop-color="#E83E8C"/>
</linearGradient>
<linearGradient id="paint1_linear_19_3134" x1="30.0005" y1="36.9995" x2="30.0005" y2="62" gradientUnits="userSpaceOnUse">
<stop stop-color="#AC5FEA"/>
<stop offset="1" stop-color="#E83E8C"/>
</linearGradient>
<linearGradient id="paint2_linear_19_3134" x1="46.0005" y1="2" x2="46.0005" y2="30" gradientUnits="userSpaceOnUse">
<stop stop-color="#AC5FEA"/>
<stop offset="1" stop-color="#E83E8C"/>
</linearGradient>
</defs>
</svg>
