<svg width="64" height="64" viewBox="0 0 64 64" fill="none" xmlns="http://www.w3.org/2000/svg">
<path fill-rule="evenodd" clip-rule="evenodd" d="M2.66667 48.6667H1.33333C0.593333 48.6667 0 49.2634 0 50.0001V54.0001C0 55.4147 0.560059 56.7714 1.56006 57.7714C2.56006 58.7714 3.92 59.3334 5.33333 59.3334H58.6667C60.08 59.3334 61.4399 58.7714 62.4399 57.7714C63.4399 56.7714 64 55.4147 64 54.0001C64 52.0001 64 50.0001 64 50.0001C64 49.2634 63.4067 48.6667 62.6667 48.6667H61.3333V14.0001C61.3333 11.0547 58.9467 8.66675 56 8.66675H52C51.2667 8.66675 50.6667 9.26408 50.6667 10.0001C50.6667 10.7361 51.2667 11.3334 52 11.3334H56C57.4733 11.3334 58.6667 12.5274 58.6667 14.0001V48.6667H38.6667C38.22 48.6667 37.8067 48.8894 37.5601 49.2608L36.62 50.6667H27.38L26.4399 49.2608C26.1933 48.8894 25.78 48.6667 25.3333 48.6667H5.33333V14.0001C5.33333 13.2927 5.61328 12.6147 6.11328 12.1147C6.61328 11.6141 7.29333 11.3334 8 11.3334H28.6667C29.4 11.3334 30 10.7361 30 10.0001C30 9.26408 29.4 8.66675 28.6667 8.66675H8C6.58667 8.66675 5.22673 9.22875 4.22673 10.2287C3.22673 11.2287 2.66667 12.5854 2.66667 14.0001V48.6667ZM30.2733 14.0001L33.4067 5.53741C33.6001 5.01408 34.1 4.66675 34.6533 4.66675C35.2133 4.66675 35.7134 5.01408 35.9067 5.53741L39.04 14.0001H54.6667C55.4067 14.0001 56 14.5967 56 15.3334V44.6667C56 45.4034 55.4067 46.0001 54.6667 46.0001H9.33333C8.59333 46.0001 8 45.4034 8 44.6667V15.3334C8 14.5967 8.59333 14.0001 9.33333 14.0001H30.2733ZM22.68 24.0001L24.3 28.3794L28.68 30.0001L24.3 31.6207L22.68 36.0001L21.0601 31.6207L16.68 30.0001L21.0601 28.3794L22.68 24.0001ZM34.6533 9.84208L36.8267 15.7081C36.96 16.0734 37.2466 16.3608 37.6133 16.4961L43.48 18.6667L37.6133 20.8374C37.2466 20.9727 36.96 21.2601 36.8267 21.6254L34.6533 27.4914L32.4867 21.6254C32.3533 21.2601 32.06 20.9727 31.7 20.8374L25.8333 18.6667L31.7 16.4961C32.06 16.3608 32.3533 16.0734 32.4867 15.7081L34.6533 9.84208ZM43.9867 8.66675H42.6533C41.92 8.66675 41.32 9.26408 41.32 10.0001C41.32 10.7361 41.92 11.3334 42.6533 11.3334H43.9867V12.6667C43.9867 13.4027 44.5867 14.0001 45.32 14.0001C46.06 14.0001 46.6533 13.4027 46.6533 12.6667V11.3334H47.9867C48.7267 11.3334 49.32 10.7361 49.32 10.0001C49.32 9.26408 48.7267 8.66675 47.9867 8.66675H46.6533V7.33341C46.6533 6.59741 46.06 6.00008 45.32 6.00008C44.5867 6.00008 43.9867 6.59741 43.9867 7.33341V8.66675Z" fill="url(#paint0_linear_19_3124)"/>
<defs>
<linearGradient id="paint0_linear_19_3124" x1="32" y1="4.66675" x2="32" y2="59.3334" gradientUnits="userSpaceOnUse">
<stop stop-color="#AC5FEA"/>
<stop offset="1" stop-color="#E83E8C"/>
</linearGradient>
</defs>
</svg>
