<svg width="64" height="64" viewBox="0 0 64 64" fill="none" xmlns="http://www.w3.org/2000/svg">
<path d="M60 27C60.5304 27 61.0391 26.7893 61.4142 26.4142C61.7893 26.0391 62 25.5304 62 25C62 24.4696 61.7893 23.9609 61.4142 23.5858C61.0391 23.2107 60.5304 23 60 23H56V20H60C60.5304 20 61.0391 19.7893 61.4142 19.4142C61.7893 19.0391 62 18.5304 62 18C62 17.4696 61.7893 16.9609 61.4142 16.5858C61.0391 16.2107 60.5304 16 60 16H55.81C55.4191 14.0751 54.47 12.3078 53.0811 10.9189C51.6922 9.53001 49.9249 8.58088 48 8.19V4C48 3.46957 47.7893 2.96086 47.4142 2.58579C47.0391 2.21071 46.5304 2 46 2C45.4696 2 44.9609 2.21071 44.5858 2.58579C44.2107 2.96086 44 3.46957 44 4V8H41V4C41 3.46957 40.7893 2.96086 40.4142 2.58579C40.0391 2.21071 39.5304 2 39 2C38.4696 2 37.9609 2.21071 37.5858 2.58579C37.2107 2.96086 37 3.46957 37 4V8H34V4C34 3.46957 33.7893 2.96086 33.4142 2.58579C33.0391 2.21071 32.5304 2 32 2C31.4696 2 30.9609 2.21071 30.5858 2.58579C30.2107 2.96086 30 3.46957 30 4V8H27V4C27 3.46957 26.7893 2.96086 26.4142 2.58579C26.0391 2.21071 25.5304 2 25 2C24.4696 2 23.9609 2.21071 23.5858 2.58579C23.2107 2.96086 23 3.46957 23 4V8H20V4C20 3.46957 19.7893 2.96086 19.4142 2.58579C19.0391 2.21071 18.5304 2 18 2C17.4696 2 16.9609 2.21071 16.5858 2.58579C16.2107 2.96086 16 3.46957 16 4V8.19C14.0751 8.58088 12.3078 9.53001 10.9189 10.9189C9.53001 12.3078 8.58088 14.0751 8.19 16H4C3.46957 16 2.96086 16.2107 2.58579 16.5858C2.21071 16.9609 2 17.4696 2 18C2 18.5304 2.21071 19.0391 2.58579 19.4142C2.96086 19.7893 3.46957 20 4 20H8V23H4C3.46957 23 2.96086 23.2107 2.58579 23.5858C2.21071 23.9609 2 24.4696 2 25C2 25.5304 2.21071 26.0391 2.58579 26.4142C2.96086 26.7893 3.46957 27 4 27H8V30H4C3.46957 30 2.96086 30.2107 2.58579 30.5858C2.21071 30.9609 2 31.4696 2 32C2 32.5304 2.21071 33.0391 2.58579 33.4142C2.96086 33.7893 3.46957 34 4 34H8V37H4C3.46957 37 2.96086 37.2107 2.58579 37.5858C2.21071 37.9609 2 38.4696 2 39C2 39.5304 2.21071 40.0391 2.58579 40.4142C2.96086 40.7893 3.46957 41 4 41H8V44H4C3.46957 44 2.96086 44.2107 2.58579 44.5858C2.21071 44.9609 2 45.4696 2 46C2 46.5304 2.21071 47.0391 2.58579 47.4142C2.96086 47.7893 3.46957 48 4 48H8.19C8.58088 49.9249 9.53001 51.6922 10.9189 53.0811C12.3078 54.47 14.0751 55.4191 16 55.81V60C16 60.5304 16.2107 61.0391 16.5858 61.4142C16.9609 61.7893 17.4696 62 18 62C18.5304 62 19.0391 61.7893 19.4142 61.4142C19.7893 61.0391 20 60.5304 20 60V56H23V60C23 60.5304 23.2107 61.0391 23.5858 61.4142C23.9609 61.7893 24.4696 62 25 62C25.5304 62 26.0391 61.7893 26.4142 61.4142C26.7893 61.0391 27 60.5304 27 60V56H30V60C30 60.5304 30.2107 61.0391 30.5858 61.4142C30.9609 61.7893 31.4696 62 32 62C32.5304 62 33.0391 61.7893 33.4142 61.4142C33.7893 61.0391 34 60.5304 34 60V56H37V60C37 60.5304 37.2107 61.0391 37.5858 61.4142C37.9609 61.7893 38.4696 62 39 62C39.5304 62 40.0391 61.7893 40.4142 61.4142C40.7893 61.0391 41 60.5304 41 60V56H44V60C44 60.5304 44.2107 61.0391 44.5858 61.4142C44.9609 61.7893 45.4696 62 46 62C46.5304 62 47.0391 61.7893 47.4142 61.4142C47.7893 61.0391 48 60.5304 48 60V55.81C49.9249 55.4191 51.6922 54.47 53.0811 53.0811C54.47 51.6922 55.4191 49.9249 55.81 48H60C60.5304 48 61.0391 47.7893 61.4142 47.4142C61.7893 47.0391 62 46.5304 62 46C62 45.4696 61.7893 44.9609 61.4142 44.5858C61.0391 44.2107 60.5304 44 60 44H56V41H60C60.5304 41 61.0391 40.7893 61.4142 40.4142C61.7893 40.0391 62 39.5304 62 39C62 38.4696 61.7893 37.9609 61.4142 37.5858C61.0391 37.2107 60.5304 37 60 37H54C53.4696 37 52.9609 37.2107 52.5858 37.5858C52.2107 37.9609 52 38.4696 52 39V46.07C51.9974 47.6419 51.3717 49.1487 50.2602 50.2602C49.1487 51.3717 47.6419 51.9974 46.07 52H17.93C16.3581 51.9974 14.8513 51.3717 13.7398 50.2602C12.6283 49.1487 12.0026 47.6419 12 46.07V17.93C12.0026 16.3581 12.6283 14.8513 13.7398 13.7398C14.8513 12.6283 16.3581 12.0026 17.93 12H46.07C47.6419 12.0026 49.1487 12.6283 50.2602 13.7398C51.3717 14.8513 51.9974 16.3581 52 17.93V32C52 32.5304 52.2107 33.0391 52.5858 33.4142C52.9609 33.7893 53.4696 34 54 34H60C60.5304 34 61.0391 33.7893 61.4142 33.4142C61.7893 33.0391 62 32.5304 62 32C62 31.4696 61.7893 30.9609 61.4142 30.5858C61.0391 30.2107 60.5304 30 60 30H56V27H60Z" fill="url(#paint0_linear_19_3090)"/>
<path d="M27.1899 33.74H31.0199L29.1099 28.26L27.1899 33.74Z" fill="url(#paint1_linear_19_3090)"/>
<path d="M46 16H18C17.4696 16 16.9609 16.2107 16.5858 16.5858C16.2107 16.9609 16 17.4696 16 18V46C16 46.5304 16.2107 47.0391 16.5858 47.4142C16.9609 47.7893 17.4696 48 18 48H46C46.5304 48 47.0391 47.7893 47.4142 47.4142C47.7893 47.0391 48 46.5304 48 46V18C48 17.4696 47.7893 16.9609 47.4142 16.5858C47.0391 16.2107 46.5304 16 46 16ZM36.54 39.39C36.5002 39.4327 36.4523 39.4671 36.3991 39.4912C36.3459 39.5152 36.2884 39.5284 36.23 39.53H33.43C33.2746 39.537 33.1209 39.4956 32.9901 39.4114C32.8593 39.3272 32.7579 39.2044 32.7 39.06L31.92 37H26.29L25.51 39.09C25.4533 39.2353 25.3523 39.3589 25.2212 39.4433C25.0901 39.5277 24.9357 39.5686 24.78 39.56H22C21.9415 39.559 21.8839 39.546 21.8306 39.522C21.7773 39.4979 21.7294 39.4632 21.69 39.42C21.6458 39.3814 21.6105 39.3337 21.5863 39.2802C21.5622 39.2267 21.5498 39.1687 21.55 39.11C21.538 39.0439 21.538 38.9761 21.55 38.91L26.55 25.12C26.6002 24.9336 26.7132 24.7701 26.8698 24.6572C27.0265 24.5443 27.2172 24.4888 27.41 24.5H30.76C30.9537 24.4901 31.145 24.546 31.3029 24.6585C31.4609 24.7711 31.5761 24.9337 31.63 25.12L36.63 38.91C36.6367 38.9765 36.6367 39.0435 36.63 39.11C36.633 39.2109 36.6012 39.3098 36.54 39.39ZM42.46 38.99C42.4606 39.1312 42.4069 39.2673 42.31 39.37C42.2606 39.4207 42.2015 39.461 42.1362 39.4885C42.0709 39.5159 42.0008 39.5301 41.93 39.53H38.85C38.7076 39.5274 38.5717 39.4697 38.471 39.369C38.3703 39.2683 38.3126 39.1324 38.31 38.99V25C38.3086 24.9275 38.322 24.8555 38.3496 24.7884C38.3771 24.7213 38.4181 24.6606 38.47 24.61C38.5727 24.5131 38.7088 24.4594 38.85 24.46H41.93C42.0002 24.4581 42.07 24.4703 42.1353 24.4961C42.2007 24.5219 42.2601 24.5606 42.31 24.61C42.3601 24.6614 42.3993 24.7226 42.4251 24.7896C42.4508 24.8566 42.4627 24.9282 42.46 25V38.99Z" fill="url(#paint2_linear_19_3090)"/>
<defs>
<linearGradient id="paint0_linear_19_3090" x1="32" y1="2" x2="32" y2="62" gradientUnits="userSpaceOnUse">
<stop stop-color="#AC5FEA"/>
<stop offset="1" stop-color="#E83E8C"/>
</linearGradient>
<linearGradient id="paint1_linear_19_3090" x1="29.1049" y1="28.26" x2="29.1049" y2="33.74" gradientUnits="userSpaceOnUse">
<stop stop-color="#AC5FEA"/>
<stop offset="1" stop-color="#E83E8C"/>
</linearGradient>
<linearGradient id="paint2_linear_19_3090" x1="32" y1="16" x2="32" y2="48" gradientUnits="userSpaceOnUse">
<stop stop-color="#AC5FEA"/>
<stop offset="1" stop-color="#E83E8C"/>
</linearGradient>
</defs>
</svg>
