<svg width="64" height="64" viewBox="0 0 64 64" fill="none" xmlns="http://www.w3.org/2000/svg">
<path d="M31.9998 40.6303C32.9638 40.6303 33.7453 39.8488 33.7453 38.8849C33.7453 37.9209 32.9638 37.1394 31.9998 37.1394C31.0359 37.1394 30.2544 37.9209 30.2544 38.8849C30.2544 39.8488 31.0359 40.6303 31.9998 40.6303Z" fill="url(#paint0_linear_19_3100)"/>
<path d="M64 13.8667V3.87879C64 1.74545 62.2545 0 60.1212 0H3.87879C1.74545 0 0 1.74545 0 3.87879V13.8667H64ZM27.3455 4.94545C28.9939 4.94545 30.2545 6.20606 30.2545 7.85455C30.2545 9.50303 28.9939 10.7636 27.3455 10.7636C25.697 10.7636 24.4364 9.50303 24.4364 7.85455C24.4364 6.30303 25.697 4.94545 27.3455 4.94545ZM19.0061 4.94545C20.6545 4.94545 21.9152 6.20606 21.9152 7.85455C21.9152 9.50303 20.6545 10.7636 19.0061 10.7636C17.3576 10.7636 16.097 9.50303 16.097 7.85455C16.097 6.30303 17.3576 4.94545 19.0061 4.94545ZM10.5697 4.94545C12.2182 4.94545 13.4788 6.20606 13.4788 7.85455C13.4788 9.50303 12.2182 10.7636 10.5697 10.7636C8.92121 10.7636 7.66061 9.50303 7.66061 7.85455C7.66061 6.30303 9.01818 4.94545 10.5697 4.94545Z" fill="url(#paint1_linear_19_3100)"/>
<path d="M0 15.8062V60.1213C0 62.2546 1.74545 64.0001 3.87879 64.0001H60.1212C62.2545 64.0001 64 62.2546 64 60.1213V15.8062H0ZM54.8848 39.5637C54.497 40.0486 44.5091 51.8789 32 51.8789C19.4909 51.8789 9.50303 40.0486 9.11515 39.5637C8.82424 39.1758 8.82424 38.691 9.11515 38.3031C9.30909 38.1092 10.5697 36.5577 12.703 34.6183L10.8606 32.0971C10.5697 31.7092 10.6667 31.0304 11.0545 30.7395C11.4424 30.4486 12.1212 30.5455 12.4121 30.9334L14.1576 33.3577C15.2242 32.4849 16.2909 31.6122 17.5515 30.8365L16.2909 28.1213C16.097 27.6365 16.2909 27.0546 16.7758 26.8607C17.2606 26.6668 17.8424 26.8607 18.0364 27.3455L19.2 29.7698C20.2667 29.091 21.4303 28.5092 22.6909 28.0243L22.0121 25.5031C21.9152 25.0183 22.2061 24.4365 22.6909 24.3395C23.1758 24.2425 23.7576 24.5334 23.8545 25.0183L24.4364 27.2486C25.6 26.8607 26.7636 26.4728 28.0242 26.2789C28.0242 25.891 27.9273 25.5031 27.9273 25.1152L27.8303 24.0486C27.8303 23.5637 28.2182 23.0789 28.703 22.9819C29.1879 22.8849 29.6727 23.3698 29.7697 23.8546L29.8667 24.9213C29.8667 25.3092 29.9636 25.6001 29.9636 25.988C30.5455 25.891 31.2242 25.891 31.8061 25.891C32.3879 25.891 33.0667 25.891 33.6485 25.988C33.6485 25.6001 33.7455 25.3092 33.7455 24.9213L33.8424 23.8546C33.8424 23.2728 34.3273 22.8849 34.9091 22.9819C35.4909 22.9819 35.8788 23.4668 35.7818 24.0486L35.6848 25.1152C35.6848 25.5031 35.5879 25.891 35.5879 26.2789C36.8485 26.4728 38.0121 26.8607 39.1758 27.2486L39.7576 25.0183C39.8545 24.5334 40.4364 24.1455 40.9212 24.3395C41.4061 24.4365 41.7939 25.0183 41.6 25.5031L41.2121 27.9274C42.4727 28.4122 43.6364 29.091 44.703 29.6728L45.8667 27.2486C46.0606 26.7637 46.6424 26.5698 47.1273 26.7637C47.6121 26.9577 47.8061 27.5395 47.6121 28.0243L46.3515 30.7395C47.6121 31.6122 48.7758 32.4849 49.7455 33.2607L51.4909 30.8365C51.7818 30.4486 52.3636 30.2546 52.8485 30.6425C53.2364 30.9334 53.4303 31.5152 53.0424 32.0001L51.2 34.5213C53.3333 36.4607 54.6909 38.0122 54.7879 38.2062C55.1758 38.691 55.1758 39.1758 54.8848 39.5637Z" fill="url(#paint2_linear_19_3100)"/>
<path d="M31.9999 27.8303C21.915 27.8303 13.3817 36.4606 11.1514 38.8849C13.3817 41.3091 21.915 49.9394 31.9999 49.9394C42.0847 49.9394 50.618 41.3091 52.8483 38.8849C50.618 36.4606 42.0847 27.8303 31.9999 27.8303ZM31.9999 48C26.9574 48 22.9817 43.9273 22.9817 38.9818C22.9817 33.9394 27.0544 29.9637 31.9999 29.9637C37.0423 29.9637 41.018 34.0364 41.018 38.9818C41.018 43.9273 37.0423 48 31.9999 48Z" fill="url(#paint3_linear_19_3100)"/>
<path d="M32.0002 31.8062C28.1214 31.8062 24.9214 35.0062 24.9214 38.8849C24.9214 42.7637 28.1214 45.9637 32.0002 45.9637C35.879 45.9637 39.079 42.7637 39.079 38.8849C39.079 35.0062 35.879 31.8062 32.0002 31.8062ZM32.0002 42.5698C29.9638 42.5698 28.3153 40.9213 28.3153 38.8849C28.3153 36.8486 29.9638 35.2001 32.0002 35.2001C34.0365 35.2001 35.685 36.8486 35.685 38.8849C35.685 40.9213 34.0365 42.5698 32.0002 42.5698Z" fill="url(#paint4_linear_19_3100)"/>
<defs>
<linearGradient id="paint0_linear_19_3100" x1="31.9998" y1="37.4939" x2="31.9998" y2="40.6303" gradientUnits="userSpaceOnUse">
<stop stop-color="#AC5FEA"/>
<stop offset="1" stop-color="#E83E8C"/>
</linearGradient>
<linearGradient id="paint1_linear_19_3100" x1="32" y1="1.40833" x2="32" y2="13.8667" gradientUnits="userSpaceOnUse">
<stop stop-color="#AC5FEA"/>
<stop offset="1" stop-color="#E83E8C"/>
</linearGradient>
<linearGradient id="paint2_linear_19_3100" x1="32" y1="20.7008" x2="32" y2="64.0001" gradientUnits="userSpaceOnUse">
<stop stop-color="#AC5FEA"/>
<stop offset="1" stop-color="#E83E8C"/>
</linearGradient>
<linearGradient id="paint3_linear_19_3100" x1="31.9999" y1="30.0758" x2="31.9999" y2="49.9394" gradientUnits="userSpaceOnUse">
<stop stop-color="#AC5FEA"/>
<stop offset="1" stop-color="#E83E8C"/>
</linearGradient>
<linearGradient id="paint4_linear_19_3100" x1="32.0002" y1="33.244" x2="32.0002" y2="45.9637" gradientUnits="userSpaceOnUse">
<stop stop-color="#AC5FEA"/>
<stop offset="1" stop-color="#E83E8C"/>
</linearGradient>
</defs>
</svg>
