<svg width="140" height="65" viewBox="0 0 140 65" fill="none" xmlns="http://www.w3.org/2000/svg">
<g clip-path="url(#clip0_102_9798)">
<path d="M0.15564 38.8057H26.3501V65.0001H0.15564V38.8057ZM28.5292 38.8057H54.7237V65.0001H28.5292V38.8057ZM56.9028 38.8057H83.0973V65.0001H56.9028V38.8057ZM85.2764 38.8057H111.471V65.0001H85.2764V38.8057ZM113.65 38.8057H139.844V65.0001H113.65V38.8057Z" fill="#00B67A"/>
<path d="M13.2528 56.4623L17.2367 55.4509L18.9018 60.5803L13.2528 56.4623ZM22.4163 49.8298H15.404L13.2472 43.2253L11.0904 49.8298H4.078L9.75496 53.9199L7.59816 60.5244L13.2751 56.4343L16.7673 53.9255L22.4163 49.8354V49.8298ZM41.6264 56.4623L45.6103 55.4509L47.2754 60.5803L41.6264 56.4623ZM50.7955 49.8298H43.7831L41.6264 43.2253L39.4696 49.8298H32.4572L38.1341 53.9199L35.9773 60.5244L41.6543 56.4343L45.1465 53.9255L50.7955 49.8354V49.8298ZM69.9999 56.4623L73.9839 55.4509L75.649 60.5803L69.9999 56.4623ZM79.1691 49.8298H72.1567L69.9999 43.2253L67.8431 49.8298H60.8308L66.5077 53.9199L64.3509 60.5244L70.0279 56.4343L73.5201 53.9255L79.1691 49.8354V49.8298ZM98.3735 56.4623L102.357 55.4509L104.023 60.5803L98.3735 56.4623ZM107.543 49.8298H100.53L98.3735 43.2253L96.2167 49.8298H89.2044L94.8813 53.9199L92.7245 60.5244L98.4015 56.4343L101.894 53.9255L107.543 49.8354V49.8298ZM126.747 56.4623L130.731 55.4509L132.396 60.5803L126.747 56.4623ZM135.916 49.8298H128.904L126.747 43.2253L124.59 49.8298H117.578L123.255 53.9199L121.098 60.5244L126.775 56.4343L130.267 53.9255L135.916 49.8354V49.8298Z" fill="white"/>
<path d="M36.8714 12.1528H51.0024V14.7846H45.4372V29.6139H42.3864V14.7846H36.8435L36.8659 12.1528H36.8714ZM50.3989 16.9749H53.0083V19.4167H53.053C53.148 19.0702 53.31 18.7406 53.5447 18.4165C53.7794 18.0924 54.0588 17.7851 54.4052 17.5336C54.7293 17.2543 55.1036 17.0419 55.5227 16.8799C55.9194 16.7179 56.3385 16.6229 56.7575 16.6229C57.1766 16.6229 57.3163 16.6452 57.4336 16.6452C57.551 16.6676 57.6907 16.6899 57.808 16.6899V19.3664C57.6236 19.3217 57.4113 19.2993 57.2045 19.2714C56.9978 19.249 56.8078 19.2267 56.6011 19.2267C56.1373 19.2267 55.6959 19.3217 55.2713 19.5061C54.8466 19.6904 54.5002 19.9698 54.1761 20.3218C53.8744 20.6962 53.6173 21.1376 53.4329 21.674C53.2486 22.2104 53.1536 22.8362 53.1536 23.5347V29.5413H50.3598L50.4045 16.9693L50.3989 16.9749ZM70.6035 29.6139H67.8544V27.8427H67.8097C67.4633 28.4964 66.9492 28.9825 66.2731 29.3793C65.5971 29.776 64.8986 29.9604 64.2002 29.9604C62.5462 29.9604 61.3393 29.5636 60.5906 28.7255C59.8475 27.9097 59.4731 26.6525 59.4731 24.9986V16.9693H62.2669V24.7192C62.2669 25.8367 62.4736 26.6302 62.9206 27.0716C63.3397 27.5354 63.9431 27.77 64.7142 27.77C65.4853 27.77 65.787 27.6751 66.1782 27.4907C66.5749 27.3063 66.8989 27.0716 67.1336 26.7699C67.3906 26.4681 67.5527 26.0938 67.67 25.6747C67.7874 25.2556 67.8321 24.7919 67.8321 24.3002V16.9693H70.6258V29.6083H70.6035V29.6139ZM75.3529 25.563C75.4479 26.3787 75.7496 26.9375 76.286 27.2839C76.8224 27.608 77.4762 27.7756 78.2193 27.7756C78.9625 27.7756 78.7781 27.7533 79.1022 27.7086C79.4262 27.6639 79.7559 27.5912 80.0353 27.4739C80.337 27.3566 80.5717 27.1945 80.7561 26.9598C80.9405 26.7252 81.0355 26.4458 81.0131 26.0994C80.9908 25.7529 80.8734 25.4456 80.6164 25.2165C80.3594 24.9874 80.0576 24.8198 79.6833 24.6578C79.3089 24.5181 78.8675 24.4007 78.3814 24.3113C77.8897 24.2164 77.4035 24.1046 76.8895 23.9873C76.3754 23.8699 75.867 23.7302 75.3753 23.5682C74.8836 23.4062 74.4701 23.1938 74.0734 22.8921C73.699 22.6127 73.3749 22.2607 73.1682 21.8193C72.9335 21.3779 72.8218 20.8638 72.8218 20.2157C72.8218 19.5675 72.9838 18.9585 73.3358 18.4947C73.6599 18.0309 74.1013 17.6566 74.6154 17.3772C75.1294 17.0978 75.7105 16.8855 76.3363 16.7737C76.9621 16.6564 77.5712 16.6117 78.1299 16.6117C78.6887 16.6117 79.4095 16.6787 79.9906 16.8184C80.5717 16.9581 81.1304 17.1649 81.5942 17.4945C82.0859 17.7963 82.477 18.2153 82.7844 18.707C83.1084 19.1987 83.2984 19.8022 83.3878 20.5006H80.4767C80.337 19.8245 80.0353 19.3831 79.5715 19.1484C79.0798 18.9138 78.549 18.802 77.9176 18.802C77.2862 18.802 77.4762 18.8244 77.2192 18.8467C76.9398 18.8914 76.7051 18.9417 76.4537 19.0311C76.219 19.1261 76.0122 19.2658 75.8502 19.4278C75.6882 19.5899 75.5932 19.8245 75.5932 20.1039C75.5932 20.3833 75.7105 20.7074 75.9396 20.9197C76.1743 21.1264 76.476 21.2941 76.8727 21.4561C77.2471 21.5958 77.6885 21.7131 78.1746 21.8025C78.6607 21.8919 79.1748 22.0093 79.6889 22.1266C80.2029 22.244 80.689 22.3836 81.1807 22.5457C81.6724 22.7077 82.1139 22.92 82.4826 23.2218C82.857 23.5012 83.1811 23.8532 83.4157 24.2666C83.6504 24.6857 83.7622 25.2221 83.7622 25.8256C83.7622 26.429 83.6001 27.2001 83.2481 27.7365C82.9017 28.2506 82.4547 28.692 81.9183 29.0161C81.3819 29.3401 80.7561 29.5748 80.1023 29.7369C79.4262 29.8765 78.7725 29.9715 78.1243 29.9715C77.4762 29.9715 76.5878 29.8766 75.9117 29.6922C75.2356 29.5078 74.6321 29.2284 74.1404 28.8764C73.6487 28.502 73.2576 28.0606 72.9782 27.5018C72.6988 26.9654 72.5368 26.3117 72.5144 25.5462H75.3306V25.5685H75.3529V25.563ZM84.55 16.9749H86.6677V13.1586H89.4615V16.9525H91.9759V19.0255H89.4615V25.7753C89.4615 26.077 89.4838 26.3117 89.5062 26.5408C89.5285 26.7475 89.6012 26.9375 89.6682 27.0772C89.7632 27.2169 89.9029 27.3342 90.0649 27.4013C90.2493 27.4683 90.484 27.5186 90.8081 27.5186C91.1322 27.5186 91.2048 27.5186 91.3892 27.4963C91.5736 27.4739 91.7859 27.4516 91.9703 27.4013V29.5636C91.6686 29.6083 91.3668 29.6307 91.0651 29.6586C90.7634 29.7033 90.484 29.7033 90.1599 29.7033C89.4168 29.7033 88.8301 29.6363 88.3887 29.4966C87.9473 29.3569 87.5952 29.1502 87.3438 28.8931C87.0868 28.6138 86.9247 28.2897 86.8297 27.893C86.7348 27.4963 86.6901 27.0101 86.6677 26.4961V19.0479H84.55V16.9302V16.9749ZM93.9315 16.9749H96.5633V18.6959H96.608C97.0047 17.9527 97.5411 17.4387 98.2395 17.1146C98.938 16.7905 99.6811 16.6229 100.519 16.6229C101.357 16.6229 102.38 16.7849 103.129 17.1593C103.872 17.5057 104.481 17.9751 104.967 18.6009C105.459 19.2043 105.827 19.9307 106.062 20.7409C106.297 21.5511 106.436 22.4395 106.436 23.3503C106.436 24.2611 106.319 25.0266 106.112 25.82C105.878 26.6134 105.554 27.3342 105.112 27.9377C104.671 28.5411 104.112 29.0328 103.414 29.4016C102.715 29.776 101.922 29.9604 100.994 29.9604C100.067 29.9604 100.178 29.9157 99.7817 29.843C99.385 29.776 98.9883 29.6586 98.6195 29.4966C98.2451 29.3346 97.8987 29.1222 97.597 28.8652C97.2729 28.6082 97.0159 28.3064 96.8035 27.9824H96.7588V34.2907H93.965V16.9693H93.9427L93.9315 16.9749ZM103.687 23.3056C103.687 22.7468 103.62 22.1881 103.453 21.6517C103.313 21.1153 103.078 20.6515 102.777 20.2324C102.475 19.8134 102.101 19.4893 101.681 19.2323C101.24 18.9752 100.726 18.8579 100.167 18.8579C99.005 18.8579 98.1166 19.2546 97.5131 20.0704C96.932 20.8862 96.6303 21.9813 96.6303 23.3279C96.6303 24.6745 96.6974 24.5628 96.865 25.0992C97.0326 25.6356 97.2394 26.0994 97.5634 26.4961C97.8652 26.8928 98.2395 27.1945 98.6809 27.4292C99.1224 27.6639 99.6141 27.7756 100.195 27.7756C100.776 27.7756 101.357 27.6359 101.799 27.3789C102.24 27.1219 102.592 26.7755 102.894 26.3787C103.173 25.9597 103.386 25.4959 103.497 24.9595C103.615 24.4007 103.682 23.8643 103.682 23.3056H103.687ZM108.599 12.1528H111.393V14.7846H108.599V12.1528ZM108.599 16.9749H111.393V29.6139H108.599V16.9749ZM113.885 12.1528H116.678V29.6139H113.885V12.1528ZM125.199 29.9659C124.199 29.9659 123.289 29.8039 122.501 29.4519C121.707 29.1055 121.059 28.6585 120.5 28.0774C119.964 27.4963 119.545 26.7755 119.265 25.9597C118.986 25.1439 118.824 24.2387 118.824 23.2832C118.824 22.3278 118.964 21.4449 119.265 20.6291C119.545 19.8134 119.964 19.1149 120.5 18.5115C121.037 17.9304 121.713 17.4666 122.501 17.1369C123.294 16.8129 124.199 16.6229 125.199 16.6229C126.2 16.6229 127.11 16.7849 127.898 17.1369C128.692 17.461 129.34 17.9304 129.899 18.5115C130.435 19.0926 130.854 19.8134 131.133 20.6291C131.413 21.4449 131.575 22.3278 131.575 23.2832C131.575 24.2387 131.435 25.1439 131.133 25.9597C130.832 26.7755 130.435 27.4739 129.899 28.0774C129.362 28.6585 128.686 29.1222 127.898 29.4519C127.105 29.776 126.222 29.9659 125.199 29.9659ZM125.199 27.7533C125.803 27.7533 126.362 27.6136 126.809 27.3566C127.272 27.0995 127.624 26.7531 127.926 26.334C128.228 25.915 128.44 25.4289 128.58 24.9148C128.72 24.3784 128.792 23.842 128.792 23.2832C128.792 22.7245 128.725 22.2104 128.58 21.6796C128.44 21.1432 128.233 20.6794 127.926 20.2604C127.619 19.8413 127.25 19.5172 126.809 19.2602C126.345 19.0032 125.809 18.8635 125.199 18.8635C124.59 18.8635 124.037 19.0032 123.59 19.2602C123.126 19.5172 122.774 19.8637 122.473 20.2604C122.171 20.6794 121.959 21.1432 121.819 21.6796C121.679 22.216 121.607 22.7524 121.607 23.2832C121.607 23.8141 121.674 24.3784 121.819 24.9148C121.959 25.4512 122.165 25.915 122.473 26.334C122.774 26.7531 123.149 27.0995 123.59 27.3566C124.054 27.6359 124.59 27.7533 125.199 27.7533ZM132.419 16.9749H134.536V13.1586H137.33V16.9525H139.844V19.0255H137.33V25.7753C137.33 26.077 137.352 26.3117 137.375 26.5408C137.397 26.7475 137.47 26.9375 137.537 27.0772C137.632 27.2169 137.771 27.3342 137.933 27.4013C138.118 27.4683 138.353 27.5186 138.677 27.5186C139.001 27.5186 139.073 27.5186 139.258 27.4963C139.442 27.4739 139.654 27.4516 139.839 27.4013V29.5636C139.537 29.6083 139.235 29.6307 138.928 29.6586C138.626 29.7033 138.347 29.7033 138.017 29.7033C137.274 29.7033 136.687 29.6363 136.246 29.4966C135.805 29.3569 135.453 29.1502 135.201 28.8931C134.944 28.6138 134.782 28.2897 134.687 27.893C134.592 27.4963 134.547 27.0101 134.525 26.4961V19.0479H132.407V16.9302V16.9749H132.419Z" fill="white"/>
<path d="M33.6139 12.1529H20.8296L16.8959 0L12.94 12.1529L0.15564 12.1306L10.4926 19.6514L6.53662 31.8043L16.8736 24.2835L27.2106 31.8043L23.2769 19.6514L33.6139 12.1529Z" fill="#00B67A"/>
<path d="M24.1597 22.3948L23.2769 19.6458L16.8959 24.2778L24.1597 22.3892V22.3948Z" fill="#005128"/>
</g>
<defs>
<clipPath id="clip0_102_9798">
<rect width="139.725" height="65" fill="white" transform="translate(0.137573)"/>
</clipPath>
</defs>
</svg>
