<svg width="406" height="59" viewBox="0 0 406 59" fill="none" xmlns="http://www.w3.org/2000/svg">
<g clip-path="url(#clip0_585_15059)">
<path d="M25.0265 35.5561C26.7332 36.4807 28.1495 37.8799 29.1122 39.5923C30.0748 41.3047 30.5447 43.2605 30.4675 45.2342C30.5109 46.8954 30.1996 48.5463 29.5551 50.0718C28.9106 51.5973 27.9485 52.9606 26.7359 54.0668C24.2243 56.3675 20.9451 57.5945 17.5748 57.4947H0.0234375V15.2171H16.3572C19.6442 15.1309 22.8399 16.328 25.2949 18.565C26.475 19.6335 27.4115 20.9535 28.0389 22.4321C28.6662 23.9108 28.969 25.5121 28.9259 27.1234C28.9718 28.7438 28.6426 30.3524 27.9649 31.8179C27.2873 33.2834 26.2803 34.5643 25.0265 35.5561ZM16.3349 22.9871H8.16796V32.2996H16.3349C16.9237 32.3132 17.5089 32.2014 18.0532 31.9713C18.5975 31.7411 19.0889 31.3976 19.4964 30.9627C19.916 30.5242 20.245 30.0039 20.4638 29.4326C20.6827 28.8614 20.7869 28.2509 20.7702 27.6376C20.7899 27.0259 20.6892 26.4164 20.4742 25.8452C20.2593 25.274 19.9344 24.7528 19.5187 24.3125C19.1108 23.8718 18.616 23.5247 18.0671 23.2942C17.5182 23.0637 16.9279 22.9551 16.3349 22.9756V22.9871ZM17.5748 49.7134C18.2112 49.7327 18.8446 49.6167 19.435 49.3728C20.0254 49.1289 20.5599 48.7624 21.0047 48.2965C21.4561 47.8206 21.8095 47.2567 22.0437 46.6384C22.2778 46.0201 22.3879 45.3599 22.3677 44.6972C22.3836 44.0435 22.2712 43.3933 22.0371 42.7849C21.803 42.1765 21.4519 41.6223 21.0047 41.155C20.5599 40.6891 20.0254 40.3226 19.435 40.0787C18.8446 39.8348 18.2112 39.7188 17.5748 39.7381H8.16796V49.7134H17.5748Z" fill="white"/>
<path d="M58.4976 57.5041L50.1297 42.8098H43.9515V57.5041H35.7734V15.2265H52.3418C54.156 15.1945 55.9572 15.543 57.6346 16.2505C59.3121 16.958 60.8302 18.0094 62.095 19.34C63.3928 20.6241 64.4193 22.1668 65.1111 23.8727C65.8028 25.5786 66.1452 27.4115 66.117 29.2581C66.111 31.8634 65.3319 34.4055 63.8826 36.5481C62.4587 38.7613 60.4472 40.5133 58.0841 41.5986L67.2566 57.5955L58.4976 57.5041ZM43.9739 22.9736V35.4855H52.3753C53.1256 35.4905 53.8677 35.3286 54.5506 35.0109C55.2335 34.6933 55.8407 34.2275 56.33 33.6458C57.4251 32.4403 58.0181 30.8461 57.9835 29.201C58.0218 27.562 57.4279 25.9735 56.33 24.7789C55.8357 24.2059 55.2269 23.7482 54.5446 23.4367C53.8623 23.1253 53.1225 22.9673 52.3753 22.9736H43.9739Z" fill="white"/>
<path d="M99.3106 57.5079L96.6851 49.8865H79.6812L77.1897 57.5079H68.375L82.8988 15.2303H93.0206L107.623 57.5651L99.3106 57.5079ZM82.3402 42.0823H93.9926L88.0156 24.7828L82.3402 42.0823Z" fill="white"/>
<path d="M135.558 15.1719H143.725V57.5066H137.514L119.772 31.6259V57.5066H111.605V15.229H117.806L135.558 41.0183V15.1719Z" fill="white"/>
<path d="M167.846 15.1673C170.511 15.0931 173.161 15.5963 175.622 16.644C178.082 17.6917 180.299 19.2601 182.124 21.2462C183.999 23.2477 185.467 25.6089 186.445 28.1937C187.423 30.7784 187.891 33.5355 187.822 36.3061C187.893 39.0786 187.425 41.8379 186.447 44.4247C185.469 47.0115 184 49.3746 182.124 51.3775C180.306 53.3619 178.098 54.9311 175.645 55.9826C173.192 57.0341 170.55 57.5441 167.891 57.4792H151.457V15.2016L167.846 15.1673ZM167.846 49.5264C169.478 49.5881 171.103 49.2928 172.613 48.6603C174.124 48.0277 175.485 47.0725 176.606 45.8586C178.906 43.2571 180.11 39.8329 179.957 36.329C180.108 32.8288 178.904 29.4088 176.606 26.8108C175.485 25.5969 174.124 24.6416 172.613 24.0091C171.103 23.3765 169.478 23.0812 167.846 23.1429H159.568V49.5264H167.846Z" fill="white"/>
<path d="M206.295 58.35C202.651 58.4761 199.051 57.4982 195.949 55.5391C193.201 53.7359 191.121 51.0454 190.039 47.8948L197.01 43.7128C198.627 48.0319 201.803 50.1915 206.54 50.1915C208.306 50.3327 210.069 49.8879 211.568 48.9232C212.065 48.557 212.47 48.0745 212.747 47.516C213.025 46.9575 213.169 46.3391 213.165 45.7124C213.171 45.014 212.992 44.3271 212.648 43.7238C212.304 43.1206 211.807 42.6234 211.21 42.2845C209.002 41.0921 206.656 40.1862 204.228 39.5878C202.63 39.1164 201.059 38.5518 199.524 37.8967C198.168 37.2762 196.879 36.5102 195.681 35.6115C194.422 34.6858 193.414 33.447 192.754 32.0121C192.054 30.4184 191.711 28.6853 191.748 26.9388C191.683 25.2033 192.011 23.4757 192.704 21.8904C193.398 20.3051 194.439 18.9046 195.748 17.7977C198.438 15.5001 201.853 14.2817 205.356 14.3698C208.479 14.3069 211.551 15.1809 214.193 16.8836C216.775 18.6 218.834 21.0228 220.137 23.8766L213.277 27.9215C211.624 24.2993 208.976 22.4826 205.356 22.4826C203.935 22.3875 202.524 22.7905 201.356 23.6252C200.898 23.9816 200.529 24.4437 200.278 24.9739C200.028 25.5041 199.904 26.0873 199.915 26.676C199.903 27.3115 200.045 27.9402 200.328 28.5062C200.61 29.0723 201.025 29.5583 201.535 29.9211C203.474 31.13 205.579 32.0351 207.78 32.6063L210.652 33.5433C211.3 33.7718 212.182 34.1146 213.311 34.5717C214.213 34.9301 215.083 35.3659 215.914 35.8743C216.646 36.3744 217.347 36.9201 218.014 37.5082C218.723 38.107 219.331 38.8212 219.813 39.6221C220.289 40.4523 220.664 41.3386 220.93 42.2616C221.238 43.3494 221.388 44.4773 221.377 45.6095C221.446 47.389 221.104 49.1601 220.38 50.7797C219.657 52.3994 218.57 53.8223 217.21 54.9335C214.074 57.3436 210.212 58.5526 206.295 58.35Z" fill="white"/>
<path d="M252.511 15.1714V23.1699H241.339V57.529H233.172V23.147H222V15.1486L252.511 15.1714Z" fill="white"/>
<path d="M289.626 51.972C287.642 54.0403 285.266 55.6726 282.644 56.7689C280.022 57.8652 277.208 58.4026 274.376 58.348C271.545 58.4044 268.733 57.8678 266.112 56.7713C263.491 55.6749 261.118 54.0416 259.137 51.972C257.109 49.9381 255.509 47.5009 254.437 44.8106C253.365 42.1203 252.843 39.2339 252.903 36.3293C252.843 33.4265 253.365 30.5419 254.438 27.8535C255.51 25.1651 257.109 22.7298 259.137 20.698C261.117 18.6264 263.49 16.9911 266.111 15.8926C268.731 14.7941 271.544 14.2558 274.376 14.3107C277.209 14.2583 280.023 14.7977 282.645 15.896C285.267 16.9942 287.643 18.6283 289.626 20.698C291.666 22.7226 293.277 25.1555 294.357 27.8449C295.437 30.5343 295.964 33.4225 295.905 36.3293C295.964 39.2379 295.438 42.1279 294.357 44.8192C293.277 47.5105 291.667 49.9453 289.626 51.972ZM264.846 46.2589C266.092 47.5382 267.579 48.5445 269.218 49.2163C270.856 49.8882 272.611 50.2116 274.376 50.1667C276.139 50.2113 277.892 49.8878 279.529 49.2159C281.166 48.544 282.651 47.5378 283.895 46.2589C285.168 44.958 286.166 43.4033 286.828 41.6912C287.489 39.9791 287.799 38.1462 287.738 36.3065C287.795 34.4638 287.484 32.6285 286.823 30.9132C286.162 29.198 285.165 27.6388 283.895 26.3312C282.654 25.0471 281.169 24.0359 279.532 23.36C277.895 22.684 276.141 22.3575 274.376 22.4006C272.609 22.3573 270.853 22.6837 269.214 23.3596C267.576 24.0355 266.089 25.0467 264.846 26.3312C263.575 27.6388 262.579 29.198 261.918 30.9132C261.257 32.6285 260.946 34.4638 261.003 36.3065C260.933 38.1467 261.235 39.982 261.888 41.698C262.542 43.4141 263.533 44.9744 264.801 46.2817L264.846 46.2589Z" fill="white"/>
<path d="M324.344 57.5043L315.976 42.81H309.797V57.5043H301.664V15.2267H318.221C320.037 15.1932 321.841 15.5409 323.52 16.2484C325.2 16.9559 326.72 18.0082 327.986 19.3402C329.283 20.6243 330.31 22.167 331.002 23.8729C331.693 25.5788 332.036 27.4117 332.008 29.2583C331.996 31.8628 331.217 34.4032 329.773 36.5483C328.347 38.759 326.336 40.5103 323.975 41.5988L333.147 57.5957L324.344 57.5043ZM309.82 22.9738V35.4857H318.21C318.962 35.4916 319.706 35.3301 320.391 35.0125C321.076 34.6948 321.685 34.2285 322.176 33.646C323.271 32.4405 323.864 30.8463 323.83 29.2012C323.868 27.5622 323.274 25.9737 322.176 24.7791C321.68 24.2052 321.069 23.7471 320.385 23.4356C319.701 23.1241 318.959 22.9666 318.21 22.9738H309.82Z" fill="white"/>
<path d="M369.542 15.1719L355.342 40.9955V57.5066H347.242V40.9955L333.109 15.1719H342.326L351.264 32.7913L360.28 15.1719H369.542Z" fill="white"/>
</g>
<path d="M385.549 14.4648H383.041L383.018 12.9922H385.354C385.676 12.9846 385.975 12.927 386.251 12.8197C386.535 12.7123 386.761 12.5589 386.93 12.3595C387.106 12.1524 387.194 11.8993 387.194 11.6002C387.194 11.2168 387.129 10.9138 386.999 10.6914C386.868 10.469 386.65 10.3079 386.343 10.2082C386.044 10.1085 385.633 10.0587 385.112 10.0587H383.547V18.3532H381.925V8.59765H385.112C385.871 8.59765 386.527 8.70502 387.079 8.91976C387.631 9.13451 388.057 9.46046 388.356 9.89762C388.655 10.3271 388.805 10.8716 388.805 11.5312C388.805 11.9454 388.709 12.3173 388.517 12.6471C388.325 12.9769 388.046 13.2607 387.677 13.4984C387.309 13.7362 386.861 13.9279 386.331 14.0736C386.308 14.0736 386.282 14.1005 386.251 14.1542C386.228 14.2002 386.205 14.2232 386.182 14.2232C386.051 14.2999 385.967 14.3574 385.929 14.3957C385.898 14.4264 385.864 14.4456 385.825 14.4533C385.795 14.4609 385.702 14.4648 385.549 14.4648ZM385.434 14.4648L385.664 13.4294C386.853 13.4294 387.662 13.6825 388.092 14.1887C388.529 14.6872 388.747 15.3199 388.747 16.0869V16.7081C388.747 16.9919 388.763 17.2641 388.793 17.5249C388.824 17.778 388.874 17.9927 388.943 18.1691V18.3532H387.275C387.198 18.1538 387.152 17.87 387.137 17.5019C387.129 17.1337 387.125 16.8653 387.125 16.6966V16.0984C387.125 15.5385 386.995 15.1282 386.734 14.8674C386.481 14.599 386.048 14.4648 385.434 14.4648ZM378.405 13.6135C378.405 14.6335 378.581 15.5845 378.934 16.4665C379.287 17.3485 379.778 18.1193 380.407 18.7788C381.036 19.4384 381.764 19.9523 382.593 20.3204C383.421 20.6885 384.307 20.8726 385.25 20.8726C386.193 20.8726 387.075 20.6885 387.896 20.3204C388.724 19.9523 389.449 19.4384 390.07 18.7788C390.699 18.1193 391.19 17.3485 391.543 16.4665C391.896 15.5845 392.072 14.6335 392.072 13.6135C392.072 12.5858 391.896 11.6347 391.543 10.7604C391.19 9.88611 390.699 9.123 390.07 8.4711C389.449 7.81153 388.724 7.30151 387.896 6.94105C387.075 6.57291 386.193 6.38885 385.25 6.38885C384.307 6.38885 383.421 6.57291 382.593 6.94105C381.764 7.30151 381.036 7.81153 380.407 8.4711C379.778 9.123 379.287 9.88611 378.934 10.7604C378.581 11.6347 378.405 12.5858 378.405 13.6135ZM377.082 13.6135C377.082 12.394 377.293 11.2628 377.715 10.2197C378.137 9.17669 378.723 8.26786 379.475 7.49325C380.227 6.71096 381.093 6.10508 382.075 5.67559C383.064 5.23843 384.123 5.01985 385.25 5.01985C386.377 5.01985 387.432 5.23843 388.414 5.67559C389.403 6.10508 390.27 6.71096 391.014 7.49325C391.765 8.26786 392.352 9.17669 392.774 10.2197C393.196 11.2628 393.406 12.394 393.406 13.6135C393.406 14.8329 393.196 15.9641 392.774 17.0072C392.352 18.0502 391.765 18.9667 391.014 19.7567C390.27 20.539 389.403 21.1487 388.414 21.5859C387.432 22.023 386.377 22.2416 385.25 22.2416C384.123 22.2416 383.064 22.023 382.075 21.5859C381.093 21.1487 380.227 20.539 379.475 19.7567C378.723 18.9667 378.137 18.0502 377.715 17.0072C377.293 15.9641 377.082 14.8329 377.082 13.6135Z" fill="white"/>
<defs>
<clipPath id="clip0_585_15059">
<rect width="369.529" height="44.0373" fill="white" transform="translate(0 14.3127)"/>
</clipPath>
</defs>
</svg>
