<svg width="100" height="100" viewBox="0 0 100 100" fill="none" xmlns="http://www.w3.org/2000/svg">
<rect width="100" height="100" rx="20" fill="white"/>
<path d="M45.0033 33.1036L46.6344 37.6333C48.4463 42.6607 52.4052 46.6196 57.4325 48.4314L61.9622 50.0625C62.3705 50.2108 62.3705 50.7897 61.9622 50.936L57.4325 52.5671C52.4052 54.3789 48.4463 58.3379 46.6344 63.3652L45.0033 67.8949C44.855 68.3032 44.2761 68.3032 44.1299 67.8949L42.4988 63.3652C40.6869 58.3379 36.728 54.3789 31.7006 52.5671L27.171 50.936C26.7627 50.7877 26.7627 50.2088 27.171 50.0625L31.7006 48.4314C36.728 46.6196 40.6869 42.6607 42.4988 37.6333L44.1299 33.1036C44.2761 32.6933 44.855 32.6933 45.0033 33.1036Z" fill="black"/>
<path d="M65.3929 22.2184L66.2196 24.5117C67.1377 27.0569 69.1426 29.0617 71.6877 29.9798L73.981 30.8066C74.1882 30.8817 74.1882 31.1742 73.981 31.2494L71.6877 32.0761C69.1426 32.9942 67.1377 34.9991 66.2196 37.5442L65.3929 39.8375C65.3177 40.0447 65.0252 40.0447 64.9501 39.8375L64.1233 37.5442C63.2052 34.9991 61.2004 32.9942 58.6552 32.0761L56.3619 31.2494C56.1547 31.1742 56.1547 30.8817 56.3619 30.8066L58.6552 29.9798C61.2004 29.0617 63.2052 27.0569 64.1233 24.5117L64.9501 22.2184C65.0252 22.0092 65.3197 22.0092 65.3929 22.2184Z" fill="black"/>
<path d="M65.3929 61.1632L66.2196 63.4565C67.1377 66.0016 69.1426 68.0065 71.6877 68.9246L73.981 69.7513C74.1882 69.8265 74.1882 70.119 73.981 70.1941L71.6877 71.0209C69.1426 71.939 67.1377 73.9438 66.2196 76.489L65.3929 78.7823C65.3177 78.9895 65.0252 78.9895 64.9501 78.7823L64.1233 76.489C63.2052 73.9438 61.2004 71.939 58.6552 71.0209L56.3619 70.1941C56.1547 70.119 56.1547 69.8265 56.3619 69.7513L58.6552 68.9246C61.2004 68.0065 63.2052 66.0016 64.1233 63.4565L64.9501 61.1632C65.0252 60.956 65.3197 60.956 65.3929 61.1632Z" fill="black"/>
</svg>
