<svg width="64" height="65" viewBox="0 0 64 65" fill="none" xmlns="http://www.w3.org/2000/svg">
<g clip-path="url(#clip0_102_9792)">
<path d="M45.6583 45.0103C47.8995 48.8994 50.1156 52.7444 52.3302 56.5853C42.524 64.0928 27.2673 65.0001 15.9731 56.3545C2.97592 46.3975 0.839719 29.4079 7.7982 17.178C15.8015 3.11109 30.7782 0.000105619 40.4211 2.28127C40.1603 2.84782 34.3849 14.8294 34.3849 14.8294C34.3849 14.8294 33.9283 14.8594 33.6701 14.8644C30.8198 14.9852 28.697 15.6484 26.4216 16.8248C23.9253 18.1274 21.786 20.0216 20.1907 22.3419C18.5954 24.6622 17.5927 27.3379 17.2703 30.1352C16.9339 32.972 17.3261 35.8478 18.4101 38.4909C19.3265 40.7254 20.6229 42.71 22.3609 44.3854C25.0269 46.9582 28.1996 48.5512 31.8771 49.0786C35.3597 49.5785 38.709 49.0836 41.8475 47.5064C43.0247 46.9157 44.0261 46.2634 45.1967 45.3685C45.3459 45.2719 45.4783 45.1494 45.6583 45.0103Z" fill="#FF492C"/>
<path d="M45.68 10.9018C45.1109 10.3419 44.5835 9.82538 44.0586 9.30549C43.7454 8.99556 43.4438 8.67313 43.123 8.3707C43.008 8.26156 42.8731 8.11242 42.8731 8.11242C42.8731 8.11242 42.9822 7.8808 43.0289 7.78583C43.6429 6.55359 44.6052 5.65296 45.7466 4.93645C47.0088 4.13811 48.4793 3.73191 49.9724 3.7692C51.8828 3.80669 53.659 4.28242 55.1579 5.56381C56.2643 6.50944 56.8317 7.70918 56.9317 9.14136C57.0983 11.5575 56.0985 13.4079 54.1131 14.6993C52.9467 15.4592 51.6886 16.0465 50.4273 16.7422C49.7316 17.1263 49.1367 17.4637 48.4569 18.1586C47.8586 18.8559 47.8295 19.5133 47.8295 19.5133L56.8667 19.5016V23.5266H42.9172V23.1375C42.8639 21.1596 43.0947 19.2983 44.0003 17.502C44.8335 15.8541 46.1282 14.6477 47.6837 13.7187C48.8818 13.003 50.1432 12.394 51.3437 11.6816C52.0844 11.2426 52.6076 10.5985 52.6034 9.66458C52.6034 8.86309 52.0202 8.15075 51.1871 7.92829C49.2225 7.39841 47.223 8.24406 46.1832 10.042C46.0315 10.3044 45.8766 10.5652 45.68 10.9018ZM63.1603 40.732L55.5445 27.5798H40.4736L32.8086 40.8678H47.9903L55.482 53.9574L63.1603 40.732Z" fill="#FF492C"/>
</g>
<defs>
<clipPath id="clip0_102_9792">
<rect width="63.804" height="65" fill="white" transform="translate(0.0980225)"/>
</clipPath>
</defs>
</svg>
