<svg width="82" height="82" viewBox="0 0 82 82" fill="none" xmlns="http://www.w3.org/2000/svg">
<path d="M2.73334 27.3331C2.73334 31.2117 13.3933 35.5331 28.7 35.5331C29.4585 35.5331 30.2033 35.503 30.9468 35.4784C31.0552 35.2395 31.1964 35.0168 31.3664 34.817C32.4167 33.5687 33.5721 32.4129 34.8199 31.362C35.238 31.0066 35.748 30.7766 36.2912 30.6988C36.8343 30.6209 37.3884 30.6983 37.8895 30.922L41.6123 32.5114C43.2725 31.5749 45.039 30.8408 46.8739 30.3247L48.3773 26.5664C48.5791 26.0621 48.9149 25.6226 49.3485 25.2955C49.7822 24.9684 50.297 24.7661 50.8373 24.7105C52.1099 24.5997 53.3889 24.5832 54.6639 24.6613V15.7998C49.759 19.7672 38.9937 21.8664 28.7 21.8664C18.4063 21.8664 7.64104 19.7672 2.73334 15.7998V27.3331ZM12.3355 26.8138C12.4178 26.461 12.6367 26.1553 12.9443 25.9639C13.2518 25.7725 13.6227 25.711 13.9755 25.7929C14.4088 25.8926 14.8502 25.9897 15.3012 26.0799C15.6333 26.1473 15.9286 26.3358 16.1296 26.6086C16.3306 26.8815 16.4231 27.2194 16.389 27.5566C16.3549 27.8938 16.1968 28.2063 15.9453 28.4334C15.6937 28.6606 15.3668 28.7862 15.0279 28.7859C14.9361 28.7869 14.8445 28.7781 14.7545 28.7599C14.2762 28.6642 13.807 28.5622 13.3469 28.4538C12.9959 28.3694 12.6925 28.1496 12.503 27.8423C12.3136 27.535 12.2533 27.1653 12.3355 26.8138ZM5.59514 24.2936C5.67119 24.131 5.77855 23.9849 5.91107 23.8638C6.04359 23.7427 6.19868 23.6488 6.36748 23.5877C6.53628 23.5265 6.71548 23.4992 6.89485 23.5073C7.07421 23.5154 7.25021 23.5588 7.4128 23.6349C7.8228 23.8272 8.25239 24.0121 8.70157 24.1898C8.872 24.2531 9.02809 24.3497 9.1607 24.4741C9.29331 24.5985 9.39977 24.7481 9.47385 24.9141C9.54793 25.0801 9.58813 25.2592 9.59212 25.441C9.5961 25.6228 9.56377 25.8035 9.49704 25.9726C9.4303 26.1417 9.33049 26.2958 9.20346 26.4259C9.07643 26.5559 8.92472 26.6593 8.75722 26.73C8.58973 26.8007 8.40981 26.8373 8.22801 26.8376C8.0462 26.8379 7.86616 26.8019 7.69844 26.7318C7.1955 26.5322 6.7117 26.3218 6.25387 26.1113C6.09123 26.0353 5.94517 25.9279 5.82404 25.7954C5.7029 25.6629 5.60906 25.5078 5.54789 25.339C5.48672 25.1702 5.4594 24.991 5.46751 24.8116C5.47562 24.6322 5.51898 24.4562 5.59514 24.2936Z" fill="url(#paint0_linear_204_266)"/>
<path d="M2.73334 43.7335C2.73334 47.1625 11.4991 51.1135 24.6738 51.8105C24.6929 51.4811 24.6902 51.1504 24.723 50.8224C24.7797 50.2854 24.9815 49.774 25.3068 49.3431C25.632 48.9121 26.0685 48.5778 26.5694 48.3761L30.34 46.8768C30.8547 45.041 31.5889 43.2739 32.5267 41.6138L31.0753 38.2135C30.2826 38.2354 29.4981 38.2668 28.7 38.2668C18.4063 38.2668 7.64104 36.1676 2.73334 32.2002V43.7335Z" fill="url(#paint1_linear_204_266)"/>
<path d="M28.7 19.1334C43.041 19.1334 54.6667 15.4621 54.6667 10.9334C54.6667 6.40466 43.041 2.7334 28.7 2.7334C14.359 2.7334 2.73334 6.40466 2.73334 10.9334C2.73334 15.4621 14.359 19.1334 28.7 19.1334Z" fill="url(#paint2_linear_204_266)"/>
<path d="M53.3 61.4996C57.8287 61.4996 61.5 57.8283 61.5 53.2996C61.5 48.7709 57.8287 45.0996 53.3 45.0996C48.7712 45.0996 45.1 48.7709 45.1 53.2996C45.1 57.8283 48.7712 61.4996 53.3 61.4996Z" fill="url(#paint3_linear_204_266)"/>
<path d="M53.3 68.3333C56.2733 68.3333 59.1798 67.4516 61.6521 65.7997C64.1243 64.1478 66.0511 61.7999 67.189 59.0529C68.3268 56.306 68.6245 53.2833 68.0445 50.3671C67.4644 47.4509 66.0326 44.7722 63.9302 42.6698C61.8277 40.5673 59.149 39.1355 56.2329 38.5555C53.3167 37.9754 50.294 38.2731 47.547 39.411C44.8 40.5488 42.4521 42.4757 40.8002 44.9479C39.1484 47.4201 38.2667 50.3266 38.2667 53.2999C38.2714 57.2856 39.8567 61.1066 42.675 63.9249C45.4933 66.7432 49.3144 68.3286 53.3 68.3333ZM53.3 42.3666C55.4624 42.3666 57.5763 43.0078 59.3742 44.2092C61.1722 45.4106 62.5736 47.1181 63.4011 49.1159C64.2286 51.1137 64.4451 53.3121 64.0233 55.4329C63.6014 57.5538 62.5601 59.5019 61.031 61.031C59.502 62.56 57.5538 63.6013 55.433 64.0232C53.3121 64.4451 51.1138 64.2285 49.116 63.401C47.1182 62.5735 45.4106 61.1722 44.2093 59.3742C43.0079 57.5762 42.3667 55.4624 42.3667 53.2999C42.3699 50.4012 43.5229 47.6222 45.5726 45.5725C47.6222 43.5228 50.4013 42.3699 53.3 42.3666Z" fill="url(#paint4_linear_204_266)"/>
<path d="M27.444 55.521C27.4542 55.5594 27.4733 55.5948 27.5 55.6243C27.5266 55.6538 27.5599 55.6765 27.5971 55.6904L31.9882 57.4439C32.1899 57.5244 32.3694 57.6518 32.512 57.8156C32.6546 57.9793 32.7562 58.1747 32.8082 58.3855C33.3154 60.43 34.1272 62.3866 35.2163 64.1897C35.328 64.3752 35.3941 64.5845 35.409 64.8005C35.424 65.0165 35.3874 65.2329 35.3024 65.432L33.4423 69.7917C33.4235 69.8243 33.4136 69.8613 33.4136 69.899C33.4136 69.9367 33.4235 69.9737 33.4423 70.0063C34.3956 71.1422 35.445 72.1939 36.5788 73.1496C36.611 73.1754 36.6501 73.1912 36.6912 73.1948C36.7323 73.1985 36.7736 73.1899 36.8098 73.1701L41.1695 71.3087C41.3684 71.2239 41.5846 71.1874 41.8003 71.2024C42.016 71.2174 42.2251 71.2833 42.4104 71.3948C44.214 72.4833 46.1711 73.2941 48.216 73.8001C48.4268 73.8522 48.6222 73.9537 48.7859 74.0963C48.9497 74.2389 49.0771 74.4185 49.1576 74.6201L50.9138 79.0167C50.9269 79.0533 50.9489 79.086 50.9777 79.112C51.0066 79.138 51.0414 79.1564 51.0792 79.1657C52.5516 79.3011 54.0334 79.3011 55.5058 79.1657C55.5469 79.1585 55.5854 79.1405 55.6173 79.1136C55.6492 79.0868 55.6735 79.0519 55.6876 79.0126L57.4424 74.6201C57.5229 74.4185 57.6503 74.2389 57.8141 74.0963C57.9778 73.9537 58.1732 73.8522 58.384 73.8001C60.4286 73.2931 62.3852 72.4813 64.1882 71.3921C64.3735 71.2806 64.5826 71.2146 64.7983 71.1997C65.0141 71.1847 65.2303 71.2211 65.4292 71.306L69.7861 73.166C69.8189 73.185 69.8562 73.1949 69.8941 73.1949C69.932 73.1949 69.9692 73.185 70.002 73.166C71.1382 72.2105 72.1899 71.1588 73.1454 70.0227C73.1695 69.9901 73.1839 69.9514 73.1868 69.9109C73.1897 69.8705 73.181 69.8301 73.1618 69.7944L71.3004 65.4307C71.2153 65.2316 71.1787 65.0151 71.1937 64.7991C71.2087 64.5832 71.2747 64.3738 71.3865 64.1884C72.4756 62.3853 73.2873 60.4287 73.7945 58.3841C73.8466 58.1733 73.9481 57.978 74.0907 57.8142C74.2333 57.6505 74.4129 57.523 74.6145 57.4425L79.0125 55.6863C79.0482 55.672 79.0801 55.6495 79.1056 55.6205C79.131 55.5915 79.1492 55.557 79.1587 55.5196C79.3056 54.0477 79.3056 52.5649 79.1587 51.093C79.1508 51.0516 79.1325 51.013 79.1054 50.9807C79.0784 50.9484 79.0436 50.9235 79.0043 50.9085L74.6132 49.155C74.4115 49.0745 74.2319 48.9471 74.0893 48.7833C73.9467 48.6196 73.8452 48.4242 73.7932 48.2134C73.2859 46.1689 72.4742 44.2123 71.3851 42.4092C71.2734 42.2237 71.2073 42.0144 71.1923 41.7984C71.1774 41.5824 71.2139 41.366 71.299 41.1669L73.159 36.8072C73.1779 36.7746 73.1878 36.7376 73.1878 36.6999C73.1878 36.6623 73.1779 36.6253 73.159 36.5926C72.204 35.4561 71.1523 34.4044 70.0157 33.4493C69.9834 33.4236 69.9444 33.408 69.9033 33.4044C69.8622 33.4007 69.821 33.4092 69.7847 33.4288L65.4251 35.2902C65.2264 35.3759 65.01 35.4129 64.7941 35.3979C64.5783 35.3829 64.3691 35.3165 64.1841 35.2041C62.3822 34.1166 60.4269 33.3063 58.384 32.8001C58.1732 32.7481 57.9778 32.6466 57.8141 32.504C57.6503 32.3614 57.5229 32.1818 57.4424 31.9801L55.6862 27.5836C55.6731 27.547 55.6511 27.5143 55.6223 27.4883C55.5934 27.4623 55.5586 27.4438 55.5208 27.4346C54.0485 27.2978 52.5666 27.2978 51.0942 27.4346C51.0531 27.4418 51.0146 27.4598 50.9827 27.4866C50.9508 27.5135 50.9265 27.5484 50.9124 27.5877L49.1576 31.9801C49.0771 32.1818 48.9497 32.3614 48.7859 32.504C48.6222 32.6466 48.4268 32.7481 48.216 32.8001C46.1714 33.3072 44.2148 34.1189 42.4118 35.2082C42.2268 35.3206 42.0176 35.387 41.8018 35.402C41.5859 35.417 41.3695 35.38 41.1708 35.2943L36.8139 33.4343C36.781 33.4156 36.7438 33.4058 36.7059 33.4058C36.6681 33.4058 36.6309 33.4156 36.598 33.4343C35.4625 34.3905 34.4109 35.4421 33.4546 36.5776C33.4305 36.6102 33.4161 36.6489 33.4132 36.6893C33.4103 36.7298 33.419 36.7702 33.4382 36.8058L35.2996 41.1696C35.3847 41.3687 35.4213 41.5851 35.4063 41.8011C35.3913 42.0171 35.3253 42.2265 35.2135 42.4119C34.1244 44.215 33.3127 46.1716 32.8055 48.2161C32.7534 48.4269 32.6519 48.6223 32.5093 48.7861C32.3667 48.9498 32.1871 49.0772 31.9855 49.1578L27.5875 50.9139C27.5517 50.9282 27.5199 50.9508 27.4944 50.9798C27.469 51.0088 27.4508 51.0433 27.4413 51.0807C27.2944 52.5526 27.2944 54.0354 27.4413 55.5073L27.444 55.521ZM53.3 35.5335C56.8139 35.5335 60.2489 36.5755 63.1706 38.5277C66.0923 40.4799 68.3695 43.2547 69.7143 46.5011C71.059 49.7476 71.4108 53.3198 70.7253 56.7662C70.0398 60.2126 68.3476 63.3784 65.8629 65.8631C63.3782 68.3478 60.2125 70.0399 56.7661 70.7254C53.3197 71.411 49.7474 71.0591 46.501 69.7144C43.2546 68.3697 40.4798 66.0925 38.5276 63.1708C36.5753 60.2491 35.5333 56.8141 35.5333 53.3001C35.5388 48.5898 37.4123 44.0739 40.7431 40.7432C44.0738 37.4125 48.5897 35.5389 53.3 35.5335Z" fill="url(#paint5_linear_204_266)"/>
<path d="M28.7 68.3337C29.52 68.3337 30.3154 68.3077 31.1122 68.2858L32.5185 64.9908C31.5832 63.329 30.8518 61.5606 30.34 59.7237L26.5817 58.2203C26.0776 58.0185 25.6385 57.6826 25.3118 57.2489C24.9851 56.8153 24.7834 56.3005 24.7285 55.7603C24.6875 55.3503 24.6875 54.9403 24.667 54.5303C13.474 53.9973 6.30307 51.5004 2.73334 48.5088V60.1337C2.73334 64.0123 13.3933 68.3337 28.7 68.3337Z" fill="url(#paint6_linear_204_266)"/>
<defs>
<linearGradient id="paint0_linear_204_266" x1="28.6986" y1="15.7998" x2="28.6986" y2="35.5331" gradientUnits="userSpaceOnUse">
<stop offset="0.216346" stop-color="#AC5FEA"/>
<stop offset="1" stop-color="#E83E8C"/>
</linearGradient>
<linearGradient id="paint1_linear_204_266" x1="17.63" y1="32.2002" x2="17.63" y2="51.8105" gradientUnits="userSpaceOnUse">
<stop offset="0.216346" stop-color="#AC5FEA"/>
<stop offset="1" stop-color="#E83E8C"/>
</linearGradient>
<linearGradient id="paint2_linear_204_266" x1="28.7" y1="2.7334" x2="28.7" y2="19.1334" gradientUnits="userSpaceOnUse">
<stop offset="0.216346" stop-color="#AC5FEA"/>
<stop offset="1" stop-color="#E83E8C"/>
</linearGradient>
<linearGradient id="paint3_linear_204_266" x1="53.3" y1="45.0996" x2="53.3" y2="61.4996" gradientUnits="userSpaceOnUse">
<stop offset="0.216346" stop-color="#AC5FEA"/>
<stop offset="1" stop-color="#E83E8C"/>
</linearGradient>
<linearGradient id="paint4_linear_204_266" x1="53.3" y1="38.2666" x2="53.3" y2="68.3333" gradientUnits="userSpaceOnUse">
<stop offset="0.216346" stop-color="#AC5FEA"/>
<stop offset="1" stop-color="#E83E8C"/>
</linearGradient>
<linearGradient id="paint5_linear_204_266" x1="53.3" y1="27.332" x2="53.3" y2="79.2672" gradientUnits="userSpaceOnUse">
<stop offset="0.216346" stop-color="#AC5FEA"/>
<stop offset="1" stop-color="#E83E8C"/>
</linearGradient>
<linearGradient id="paint6_linear_204_266" x1="17.6259" y1="48.5088" x2="17.6259" y2="68.3337" gradientUnits="userSpaceOnUse">
<stop offset="0.216346" stop-color="#AC5FEA"/>
<stop offset="1" stop-color="#E83E8C"/>
</linearGradient>
</defs>
</svg>
