<svg width="82" height="82" viewBox="0 0 82 82" fill="none" xmlns="http://www.w3.org/2000/svg">
<path d="M43.5311 26.0601C43.3269 26.0518 43.1269 25.9996 42.9446 25.907C42.7623 25.8144 42.6019 25.6836 42.4744 25.5234L39.7876 22.1385C39.6611 21.9776 39.5702 21.7915 39.521 21.5926C39.4719 21.3937 39.4655 21.1865 39.5024 20.9849L40.2354 17.0275L37.2407 15.5791L34.6167 18.6205C34.4827 18.7756 34.3172 18.8999 34.1311 18.9851C33.9451 19.0703 33.743 19.1143 33.5386 19.1143H29.2161C29.0116 19.1143 28.8095 19.0703 28.6235 18.9851C28.4375 18.8999 28.2719 18.7756 28.138 18.6205L25.514 15.5791L22.5192 17.0275L23.2522 20.9849C23.2892 21.1865 23.2828 21.3937 23.2336 21.5926C23.1844 21.7915 23.0936 21.9776 22.967 22.1385L20.2774 25.5234C20.1499 25.6836 19.9895 25.8144 19.8072 25.907C19.6249 25.9996 19.4249 26.0518 19.2207 26.0601L15.212 26.2247L14.469 29.4836L18.0071 31.3757C18.1878 31.4723 18.3456 31.6068 18.4699 31.77C18.5941 31.9333 18.6819 32.1215 18.7273 32.3218L19.6557 36.4023C19.7591 36.8475 19.6844 37.3157 19.4474 37.7061L17.0759 40.9479L19.1508 43.5585L22.8301 41.9598C23.018 41.879 23.2209 41.8394 23.4253 41.8436C23.6296 41.8478 23.8307 41.8957 24.0152 41.9841L27.9013 43.8633C28.0857 43.9522 28.2489 44.0799 28.3798 44.2377C28.5107 44.3955 28.6062 44.5797 28.6599 44.7779L29.7095 48.6623H33.038L34.0876 44.7779C34.1413 44.5797 34.2368 44.3955 34.3677 44.2377C34.4986 44.0799 34.6618 43.9522 34.8463 43.8633L38.7323 41.9841C38.9168 41.8957 39.1179 41.8478 39.3223 41.8436C39.5266 41.8394 39.7295 41.879 39.9174 41.9598L43.5967 43.5585L45.6717 40.9479L43.3001 37.7018C43.1793 37.5362 43.0953 37.3465 43.054 37.1455C43.0126 36.9445 43.0149 36.7369 43.0605 36.5368L44.0203 32.3175C44.0648 32.1178 44.1515 31.93 44.2745 31.7668C44.3975 31.6036 44.554 31.4688 44.7333 31.3714L48.2785 29.4836L47.5398 26.229L43.5311 26.0601ZM31.3738 41.5061C29.3994 41.5061 27.4694 40.9185 25.8277 39.8176C24.1861 38.7167 22.9066 37.152 22.1511 35.3214C21.3955 33.4907 21.1978 31.4763 21.583 29.5328C21.9682 27.5894 22.9189 25.8042 24.315 24.4031C25.7111 23.0019 27.4898 22.0477 29.4263 21.6612C31.3627 21.2746 33.3699 21.473 35.1939 22.2313C37.018 22.9896 38.5771 24.2737 39.674 25.9213C40.7709 27.5688 41.3563 29.5059 41.3563 31.4874C41.3533 34.1436 40.3006 36.6901 38.4292 38.5683C36.5577 40.4465 34.0204 41.503 31.3738 41.5061Z" fill="url(#paint0_linear_204_2212)"/>
<path d="M31.3738 5.72461C26.2969 5.72461 21.334 7.23555 17.1126 10.0664C12.8913 12.8972 9.60119 16.9207 7.65833 21.6281C5.71547 26.3356 5.20713 31.5156 6.19759 36.513C7.18805 41.5104 9.63283 46.1008 13.2228 49.7037C16.8127 53.3067 21.3866 55.7603 26.366 56.7543C31.3454 57.7484 36.5066 57.2382 41.1971 55.2883C45.8876 53.3384 49.8966 50.0364 52.7172 45.7998C55.5378 41.5632 57.0433 36.5823 57.0433 31.487C57.0354 24.6568 54.3284 18.1087 49.5161 13.279C44.7039 8.44936 38.1794 5.73256 31.3738 5.72461ZM50.5832 31.487L46.6557 33.5909L45.9855 36.5364L48.618 40.1374C48.8032 40.391 48.9 40.6987 48.8936 41.013C48.8871 41.3273 48.7778 41.6307 48.5824 41.8764L45.1469 46.1987C44.9516 46.4444 44.6811 46.6188 44.3772 46.6948C44.0734 46.7709 43.753 46.7444 43.4656 46.6195L39.3827 44.8462L36.6731 46.1572L35.5095 50.4681C35.4275 50.7712 35.2485 51.0387 35.0001 51.2296C34.7517 51.4205 34.4476 51.524 34.1347 51.5244H28.6186C28.3058 51.524 28.0017 51.4205 27.7533 51.2296C27.5049 51.0387 27.3259 50.7712 27.2439 50.4681L26.0774 46.1572L23.3678 44.8462L19.2849 46.6195C18.9975 46.7444 18.6772 46.7709 18.3733 46.6948C18.0694 46.6188 17.7989 46.4444 17.6036 46.1987L14.1682 41.8764C13.9727 41.6307 13.8634 41.3273 13.8569 41.013C13.8505 40.6987 13.9473 40.391 14.1325 40.1374L16.765 36.5364L16.0948 33.5909L12.1645 31.487C11.8891 31.3381 11.6702 31.1025 11.5413 30.8165C11.4125 30.5305 11.3809 30.2098 11.4515 29.904L12.6779 24.5154C12.7474 24.2092 12.9153 23.9345 13.1557 23.7335C13.3962 23.5325 13.6958 23.4165 14.0084 23.4033L18.4564 23.223L20.3331 20.86L19.5202 16.4689C19.4632 16.1602 19.509 15.8411 19.6505 15.561C19.7919 15.2809 20.0213 15.0553 20.3032 14.9189L25.2659 12.5202C25.5478 12.3871 25.8653 12.3503 26.1699 12.4155C26.4746 12.4806 26.7496 12.644 26.953 12.8808L29.8665 16.2557H32.8783L35.7947 12.8808C35.9997 12.6436 36.2767 12.4806 36.5832 12.4169C36.8896 12.3533 37.2083 12.3926 37.4903 12.5287L42.4531 14.9275C42.7349 15.0639 42.9643 15.2895 43.1058 15.5696C43.2472 15.8497 43.293 16.1688 43.236 16.4775L42.4231 20.8686L44.2998 23.2316L48.7478 23.4119C49.0604 23.4251 49.36 23.5411 49.6005 23.7421C49.8409 23.943 50.0088 24.2178 50.0783 24.524L51.3047 29.9126C51.3725 30.2181 51.3387 30.5375 51.2083 30.8219C51.078 31.1062 50.8584 31.3398 50.5832 31.487Z" fill="url(#paint1_linear_204_2212)"/>
<path d="M31.3738 38.6435C35.3118 38.6435 38.5042 35.4395 38.5042 31.4873C38.5042 27.535 35.3118 24.3311 31.3738 24.3311C27.4358 24.3311 24.2434 27.535 24.2434 31.4873C24.2434 35.4395 27.4358 38.6435 31.3738 38.6435Z" fill="url(#paint2_linear_204_2212)"/>
<path d="M81.7046 74.0058L72.7303 64.999L64.7642 72.9939L73.7385 82.0008H81.9998L81.7046 74.0058Z" fill="url(#paint3_linear_204_2212)"/>
<path d="M63.5831 61.5436L56.668 54.6035C55.9493 55.3945 55.1953 56.1512 54.4062 56.8735L61.3213 63.8136L63.5831 61.5436Z" fill="url(#paint4_linear_204_2212)"/>
<path d="M69.46 61.7169C69.1926 61.4486 68.83 61.2979 68.4518 61.2979C68.0737 61.2979 67.711 61.4486 67.4436 61.7169L61.494 67.6866C61.2266 67.955 61.0764 68.319 61.0764 68.6985C61.0764 69.078 61.2266 69.442 61.494 69.7104L62.7475 70.9685L70.7136 62.975L69.46 61.7169Z" fill="url(#paint5_linear_204_2212)"/>
<path d="M31.3738 0C25.1687 0 19.1029 1.8467 13.9435 5.30657C8.78407 8.76645 4.76281 13.6841 2.3882 19.4377C0.0135939 25.1912 -0.607712 31.5223 0.602853 37.6302C1.81342 43.7382 4.80148 49.3487 9.18919 53.7523C13.5769 58.1558 19.1672 61.1547 25.2531 62.3697C31.339 63.5846 37.6472 62.9611 43.38 60.5779C49.1129 58.1946 54.0128 54.1588 57.4602 48.9808C60.9076 43.8027 62.7476 37.715 62.7476 31.4873C62.7382 23.1393 59.4297 15.1359 53.548 9.23289C47.6663 3.32992 39.6918 0.00947029 31.3738 0ZM31.3738 60.1122C25.7328 60.1122 20.2184 58.4334 15.528 55.288C10.8377 52.1427 7.18199 47.6721 5.02326 42.4416C2.86452 37.2111 2.2997 31.4556 3.40021 25.9029C4.50073 20.3502 7.21715 15.2498 11.206 11.2465C15.1948 7.24325 20.2769 4.517 25.8095 3.4125C31.3422 2.30801 37.0769 2.87488 42.2886 5.04142C47.5002 7.20797 51.9547 10.8769 55.0887 15.5842C58.2227 20.2916 59.8955 25.8259 59.8955 31.4873C59.8868 39.0765 56.879 46.3522 51.5321 51.7186C46.1851 57.0849 38.9356 60.1035 31.3738 60.1122Z" fill="url(#paint6_linear_204_2212)"/>
<defs>
<linearGradient id="paint0_linear_204_2212" x1="31.3738" y1="15.5791" x2="31.3738" y2="48.6623" gradientUnits="userSpaceOnUse">
<stop stop-color="#AC5FEA"/>
<stop offset="1" stop-color="#E83E8C"/>
</linearGradient>
<linearGradient id="paint1_linear_204_2212" x1="31.3738" y1="5.72461" x2="31.3738" y2="57.2494" gradientUnits="userSpaceOnUse">
<stop stop-color="#AC5FEA"/>
<stop offset="1" stop-color="#E83E8C"/>
</linearGradient>
<linearGradient id="paint2_linear_204_2212" x1="31.3738" y1="24.3311" x2="31.3738" y2="38.6435" gradientUnits="userSpaceOnUse">
<stop stop-color="#AC5FEA"/>
<stop offset="1" stop-color="#E83E8C"/>
</linearGradient>
<linearGradient id="paint3_linear_204_2212" x1="73.382" y1="64.999" x2="73.382" y2="82.0008" gradientUnits="userSpaceOnUse">
<stop stop-color="#AC5FEA"/>
<stop offset="1" stop-color="#E83E8C"/>
</linearGradient>
<linearGradient id="paint4_linear_204_2212" x1="58.9947" y1="54.6035" x2="58.9947" y2="63.8136" gradientUnits="userSpaceOnUse">
<stop stop-color="#AC5FEA"/>
<stop offset="1" stop-color="#E83E8C"/>
</linearGradient>
<linearGradient id="paint5_linear_204_2212" x1="65.895" y1="61.2979" x2="65.895" y2="70.9685" gradientUnits="userSpaceOnUse">
<stop stop-color="#AC5FEA"/>
<stop offset="1" stop-color="#E83E8C"/>
</linearGradient>
<linearGradient id="paint6_linear_204_2212" x1="31.3738" y1="0" x2="31.3738" y2="62.9747" gradientUnits="userSpaceOnUse">
<stop stop-color="#AC5FEA"/>
<stop offset="1" stop-color="#E83E8C"/>
</linearGradient>
</defs>
</svg>
