<svg width="82" height="82" viewBox="0 0 82 82" fill="none" xmlns="http://www.w3.org/2000/svg">
<path d="M76.875 57.6562V25.625C76.875 23.5861 76.0651 21.6308 74.6234 20.1891C73.1817 18.7474 71.2263 17.9375 69.1875 17.9375C68.5079 17.9375 67.8561 18.2075 67.3755 18.688C66.895 19.1686 66.625 19.8204 66.625 20.5C66.625 21.1796 66.895 21.8314 67.3755 22.312C67.8561 22.7925 68.5079 23.0625 69.1875 23.0625C69.8671 23.0625 70.5189 23.3325 70.9995 23.813C71.48 24.2936 71.75 24.9454 71.75 25.625V57.6562H55.0938C54.4141 57.6562 53.7623 57.9262 53.2818 58.4068C52.8012 58.8873 52.5312 59.5391 52.5312 60.2188V61.5H29.4688V60.2188C29.469 59.8806 29.4024 59.5458 29.2726 59.2335C29.1429 58.9213 28.9526 58.6378 28.7128 58.3994C28.2324 57.9229 27.5829 57.6557 26.9062 57.6562H10.25V25.625C10.25 24.9454 10.52 24.2936 11.0005 23.813C11.4811 23.3325 12.1329 23.0625 12.8125 23.0625H23.0625V25.625H20.5C19.8204 25.625 19.1686 25.895 18.688 26.3755C18.2075 26.8561 17.9375 27.5079 17.9375 28.1875C17.9375 28.8671 18.2075 29.5189 18.688 29.9995C19.1686 30.48 19.8204 30.75 20.5 30.75H23.0625V33.3125H20.5C19.8204 33.3125 19.1686 33.5825 18.688 34.063C18.2075 34.5436 17.9375 35.1954 17.9375 35.875C17.9375 36.5546 18.2075 37.2064 18.688 37.687C19.1686 38.1675 19.8204 38.4375 20.5 38.4375H23.165C23.4431 40.3503 24.3318 42.1221 25.6986 43.4889C27.0654 44.8557 28.8372 45.7444 30.75 46.0225V48.6875C30.75 49.3671 31.02 50.0189 31.5005 50.4995C31.9811 50.98 32.6329 51.25 33.3125 51.25C33.9921 51.25 34.6439 50.98 35.1245 50.4995C35.605 50.0189 35.875 49.3671 35.875 48.6875V46.125H38.4375V48.6875C38.4375 49.3671 38.7075 50.0189 39.188 50.4995C39.6686 50.98 40.3204 51.25 41 51.25C41.6796 51.25 42.3314 50.98 42.812 50.4995C43.2925 50.0189 43.5625 49.3671 43.5625 48.6875V46.125H46.125V48.6875C46.125 49.3671 46.395 50.0189 46.8755 50.4995C47.3561 50.98 48.0079 51.25 48.6875 51.25C49.3671 51.25 50.0189 50.98 50.4995 50.4995C50.98 50.0189 51.25 49.3671 51.25 48.6875V46.0225C53.1628 45.7444 54.9346 44.8557 56.3014 43.4889C57.6682 42.1221 58.5569 40.3503 58.835 38.4375H61.5C62.1796 38.4375 62.8314 38.1675 63.312 37.687C63.7925 37.2064 64.0625 36.5546 64.0625 35.875C64.0625 35.1954 63.7925 34.5436 63.312 34.063C62.8314 33.5825 62.1796 33.3125 61.5 33.3125H58.9375V30.75H61.5C62.1796 30.75 62.8314 30.48 63.312 29.9995C63.7925 29.5189 64.0625 28.8671 64.0625 28.1875C64.0625 27.5079 63.7925 26.8561 63.312 26.3755C62.8314 25.895 62.1796 25.625 61.5 25.625H58.9375V23.0625H61.5C62.1796 23.0625 62.8314 22.7925 63.312 22.312C63.7925 21.8314 64.0625 21.1796 64.0625 20.5C64.0625 19.8204 63.7925 19.1686 63.312 18.688C62.8314 18.2075 62.1796 17.9375 61.5 17.9375H58.835C58.5569 16.0247 57.6682 14.2529 56.3014 12.8861C54.9346 11.5193 53.1628 10.6306 51.25 10.3525V7.6875C51.25 7.00788 50.98 6.3561 50.4995 5.87554C50.0189 5.39498 49.3671 5.125 48.6875 5.125C48.0079 5.125 47.3561 5.39498 46.8755 5.87554C46.395 6.3561 46.125 7.00788 46.125 7.6875V10.25H43.5625V7.6875C43.5625 7.00788 43.2925 6.3561 42.812 5.87554C42.3314 5.39498 41.6796 5.125 41 5.125C40.3204 5.125 39.6686 5.39498 39.188 5.87554C38.7075 6.3561 38.4375 7.00788 38.4375 7.6875V10.25H35.875V7.6875C35.875 7.00788 35.605 6.3561 35.1245 5.87554C34.6439 5.39498 33.9921 5.125 33.3125 5.125C32.6329 5.125 31.9811 5.39498 31.5005 5.87554C31.02 6.3561 30.75 7.00788 30.75 7.6875V10.3525C28.8372 10.6306 27.0654 11.5193 25.6986 12.8861C24.3318 14.2529 23.4431 16.0247 23.165 17.9375H12.8125C10.7736 17.9375 8.8183 18.7474 7.37662 20.1891C5.93493 21.6308 5.125 23.5861 5.125 25.625V57.6562C4.09167 57.696 3.11396 58.1347 2.39722 58.8801C1.68048 59.6255 1.28049 60.6197 1.28125 61.6537V65.3438C1.28125 67.3826 2.09118 69.338 3.53287 70.7796C4.97455 72.2213 6.9299 73.0312 8.96875 73.0312H73.2106C75.2009 73.0279 77.1086 72.2357 78.5159 70.8284C79.9232 69.4211 80.7154 67.5134 80.7188 65.5231V61.5897C80.7307 61.0774 80.6401 60.5679 80.4523 60.0912C80.2645 59.6144 79.9833 59.1801 79.6252 58.8136C79.267 58.4471 78.8392 58.1559 78.367 57.9572C77.8947 57.7584 77.3874 57.6561 76.875 57.6562ZM44.6516 23.4084C44.6511 23.363 44.66 23.318 44.6777 23.2761C44.6953 23.2343 44.7213 23.1964 44.7541 23.165C44.8199 23.1022 44.9065 23.0657 44.9975 23.0625H46.9834C47.0786 23.0638 47.1699 23.1003 47.2397 23.165C47.2708 23.1971 47.2948 23.2353 47.3103 23.2772C47.3257 23.3192 47.3322 23.3638 47.3294 23.4084V32.3772C47.3322 32.4218 47.3257 32.4665 47.3103 32.5084C47.2948 32.5503 47.2708 32.5885 47.2397 32.6206C47.2068 32.655 47.1669 32.682 47.1227 32.6997C47.0785 32.7173 47.031 32.7253 46.9834 32.7231H44.9975C44.952 32.7243 44.9067 32.7158 44.8647 32.6981C44.8227 32.6805 44.785 32.654 44.7541 32.6206C44.7213 32.5892 44.6953 32.5514 44.6777 32.5095C44.66 32.4676 44.6511 32.4226 44.6516 32.3772V23.4084ZM33.8378 32.3772L37.0666 23.4084C37.1013 23.288 37.1761 23.1829 37.2786 23.1107C37.3811 23.0385 37.5052 23.0034 37.6303 23.0112H39.7956C39.9191 23.004 40.0413 23.0396 40.1417 23.1119C40.242 23.1843 40.3144 23.289 40.3466 23.4084L43.5881 32.3772C43.5881 32.3772 43.5881 32.3772 43.5881 32.5053C43.5831 32.5783 43.5512 32.6468 43.4984 32.6975C43.4727 32.7263 43.4411 32.7492 43.4057 32.7647C43.3703 32.7801 43.332 32.7878 43.2934 32.7872H41.4997C41.4 32.7926 41.301 32.7672 41.2162 32.7145C41.1314 32.6618 41.0649 32.5843 41.0256 32.4925L40.5259 31.1344H36.8872L36.3875 32.4925C36.3505 32.5833 36.2863 32.6604 36.2037 32.7131C36.1211 32.7659 36.0242 32.7918 35.9263 32.7872H34.1197C34.0811 32.7878 34.0428 32.7801 34.0074 32.7647C33.972 32.7492 33.9404 32.7263 33.9147 32.6975C33.8862 32.6743 33.8633 32.645 33.8478 32.6117C33.8323 32.5784 33.8245 32.542 33.825 32.5053C33.8187 32.458 33.8231 32.4098 33.8378 32.3644V32.3772ZM38.7066 25.5225L37.4253 29.0588H39.8981L38.7066 25.5225Z" fill="url(#paint0_linear_204_3159)"/>
<defs>
<linearGradient id="paint0_linear_204_3159" x1="41.0005" y1="5.125" x2="41.0005" y2="73.0312" gradientUnits="userSpaceOnUse">
<stop stop-color="#AC5FEA"/>
<stop offset="1" stop-color="#E83E8C"/>
</linearGradient>
</defs>
</svg>
