<svg width="96" height="64" viewBox="0 0 96 64" fill="none" xmlns="http://www.w3.org/2000/svg">
<path d="M79.7473 19.3818L83.9871 14.3345C84.4918 14.5364 85.0975 14.6374 85.7032 14.6374C88.5297 14.6374 90.8514 12.3156 90.8514 9.48909C90.8514 6.66259 88.5297 4.34082 85.7032 4.34082C82.8767 4.34082 80.5549 6.66259 80.5549 9.48909C80.5549 10.3976 80.7568 11.2052 81.1606 11.9118L77.4256 16.2525H69.5518V19.9875H78.2331C78.8388 19.9875 79.3436 19.7856 79.7473 19.3818Z" fill="url(#paint0_linear_19_3145)"/>
<path d="M90.7506 23.4194C88.5298 23.4194 86.7128 24.7317 86.0061 26.6497H69.6528V30.3847H86.0061C86.7128 32.3027 88.6308 33.716 90.7506 33.716C93.5771 33.716 95.8989 31.3942 95.8989 28.5677C95.8989 25.6403 93.5771 23.4194 90.7506 23.4194Z" fill="url(#paint1_linear_19_3145)"/>
<path d="M85.6022 42.3975C84.9966 42.3975 84.4918 42.4985 83.8861 42.7004L79.6464 37.653C79.2426 37.2493 78.7379 37.0474 78.2331 37.0474H69.5518V40.7824H77.4256L81.1606 45.1231C80.7568 45.8297 80.5549 46.7382 80.5549 47.5458C80.5549 50.3723 82.8767 52.6941 85.7032 52.6941C88.5297 52.6941 90.8514 50.3723 90.8514 47.5458C90.8514 44.7193 88.4287 42.3975 85.6022 42.3975Z" fill="url(#paint2_linear_19_3145)"/>
<path d="M59.4574 0H25.3375C21.8044 0 18.877 2.92745 18.877 6.46057V25.4385H19.2807C21.7035 25.4385 23.9243 27.1546 24.5299 29.4763C25.3375 28.9716 26.246 28.7697 27.2555 28.7697C28.6688 28.7697 30.082 29.3754 31.0915 30.3849L33.7161 33.0095C35.4322 34.7256 35.735 37.4511 34.6246 39.571C36.9464 40.1767 38.6624 42.3975 38.6624 44.8202V48.4543C38.6624 50.877 36.9464 53.0978 34.6246 53.7035C35.2303 54.7129 35.4322 55.9243 35.2303 57.1357H59.5583C63.0915 57.1357 66.0189 54.2082 66.0189 50.5741V6.56151C65.918 2.92745 62.9905 0 59.4574 0ZM54.7129 48.1514H44.4164C43.4069 48.1514 42.5994 47.3438 42.5994 46.3344C42.5994 45.3249 43.4069 44.5174 44.4164 44.5174H54.7129C55.7224 44.5174 56.53 45.3249 56.53 46.3344C56.53 47.3438 55.7224 48.1514 54.7129 48.1514ZM54.7129 36.3407H40.7823C39.7729 36.3407 38.9653 35.5331 38.9653 34.5237C38.9653 33.5142 39.7729 32.7066 40.7823 32.7066H54.7129C55.7224 32.7066 56.53 33.5142 56.53 34.5237C56.53 35.4322 55.7224 36.3407 54.7129 36.3407ZM54.7129 24.429H30.082C29.0725 24.429 28.265 23.6215 28.265 22.612C28.265 21.6025 29.0725 20.795 30.082 20.795H54.612C55.6214 20.795 56.429 21.6025 56.429 22.612C56.53 23.6215 55.7224 24.429 54.7129 24.429ZM54.7129 12.6183H30.082C29.0725 12.6183 28.265 11.8107 28.265 10.8013C28.265 9.7918 29.0725 8.98423 30.082 8.98423H54.612C55.6214 8.98423 56.429 9.7918 56.429 10.8013C56.53 11.8107 55.7224 12.6183 54.7129 12.6183Z" fill="url(#paint3_linear_19_3145)"/>
<path d="M34.8265 44.7191C34.8265 43.9115 34.2208 43.1039 33.3123 43.003L30.183 42.4983C29.7792 41.4888 29.6782 41.2869 29.2745 40.2774L31.1924 37.7538C31.6972 37.0472 31.5962 36.1386 30.9905 35.533L28.3659 33.0093C27.7603 32.4036 26.8517 32.3027 26.1451 32.8074L23.6215 34.7254C22.612 34.3216 22.4101 34.2207 21.4006 33.8169L20.8959 30.6875C20.795 29.88 20.0883 29.1733 19.1798 29.1733H15.5457C14.7382 29.1733 13.9306 29.779 13.8297 30.6875L13.3249 33.8169C12.3155 34.2207 12.1136 34.3216 11.1041 34.7254L8.58044 32.8074C7.87382 32.3027 6.9653 32.4036 6.35962 33.0093L3.73502 35.6339C3.12934 36.2396 3.02839 37.1481 3.53312 37.8547L5.55205 40.3784C5.14827 41.3878 5.04732 41.5897 4.64353 42.5992L1.5142 43.003C0.706625 43.1039 0 43.8106 0 44.7191V48.3531C0 49.1607 0.605678 49.9683 1.5142 50.0692L4.64353 50.574C5.04732 51.5834 5.14827 51.7853 5.55205 52.7948L3.63407 55.3184C3.12934 56.0251 3.23028 56.9336 3.83596 57.5393L6.46057 60.1639C7.06625 60.7696 7.97476 60.8705 8.68139 60.3658L11.306 58.4478C12.2145 58.8516 12.5174 58.9525 13.5268 59.3563L14.0315 62.4856C14.1325 63.2932 14.8391 63.9998 15.7476 63.9998H19.3817C20.1893 63.9998 20.9968 63.3942 21.0978 62.4856L21.6025 59.3563C22.612 58.9525 22.8139 58.8516 23.8233 58.4478L26.347 60.3658C27.0536 60.8705 27.9621 60.7696 28.5678 60.1639L31.1924 57.5393C31.7981 56.9336 31.8991 56.0251 31.3943 55.3184L29.4763 52.7948C29.8801 51.7853 29.9811 51.5834 30.3849 50.574L33.5142 50.0692C34.3218 49.9683 35.0284 49.2617 35.0284 48.3531V44.7191H34.8265ZM23.4196 48.0503L15.4448 52.6938C14.2334 53.4005 12.8202 52.492 12.8202 51.1796V41.8926C12.8202 40.5803 14.2334 39.6718 15.4448 40.3784L23.4196 45.0219C24.6309 45.7285 24.6309 47.4446 23.4196 48.0503Z" fill="url(#paint4_linear_19_3145)"/>
<defs>
<linearGradient id="paint0_linear_19_3145" x1="80.2016" y1="4.34082" x2="80.2016" y2="19.9875" gradientUnits="userSpaceOnUse">
<stop stop-color="#AC5FEA"/>
<stop offset="1" stop-color="#E83E8C"/>
</linearGradient>
<linearGradient id="paint1_linear_19_3145" x1="82.7759" y1="23.4194" x2="82.7759" y2="33.716" gradientUnits="userSpaceOnUse">
<stop stop-color="#AC5FEA"/>
<stop offset="1" stop-color="#E83E8C"/>
</linearGradient>
<linearGradient id="paint2_linear_19_3145" x1="80.2016" y1="37.0474" x2="80.2016" y2="52.6941" gradientUnits="userSpaceOnUse">
<stop stop-color="#AC5FEA"/>
<stop offset="1" stop-color="#E83E8C"/>
</linearGradient>
<linearGradient id="paint3_linear_19_3145" x1="42.4479" y1="0" x2="42.4479" y2="57.1357" gradientUnits="userSpaceOnUse">
<stop stop-color="#AC5FEA"/>
<stop offset="1" stop-color="#E83E8C"/>
</linearGradient>
<linearGradient id="paint4_linear_19_3145" x1="17.5142" y1="29.1733" x2="17.5142" y2="63.9998" gradientUnits="userSpaceOnUse">
<stop stop-color="#AC5FEA"/>
<stop offset="1" stop-color="#E83E8C"/>
</linearGradient>
</defs>
</svg>
