<svg width="64" height="64" viewBox="0 0 64 64" fill="none" xmlns="http://www.w3.org/2000/svg">
<g clip-path="url(#clip0_19_3112)">
<path d="M50.2856 20.5715H13.7142C11.823 20.5772 10.2913 22.1089 10.2856 24.0001V60.5715C10.2913 62.4627 11.823 63.9945 13.7142 64.0001H50.2856C52.1768 63.9945 53.7086 62.4627 53.7142 60.5715V24.0001C53.7086 22.1089 52.1768 20.5772 50.2856 20.5715ZM18.2856 56.0001C17.7501 56.0072 17.2814 55.6414 17.1582 55.1202C17.035 54.5989 17.2904 54.062 17.7725 53.8287C17.8594 53.7921 26.2856 49.4915 26.2856 43.4287C26.2856 42.7975 26.7973 42.2858 27.4285 42.2858C28.0597 42.2858 28.5714 42.7975 28.5714 43.4287C28.5714 50.9064 19.1999 55.6801 18.7965 55.8858C18.6374 55.9629 18.4625 56.002 18.2856 56.0001ZM21.7142 59.4287C21.1954 59.4305 20.7404 59.0825 20.6063 58.5813C20.4721 58.0801 20.6924 57.5515 21.1428 57.2938C21.2182 57.2504 28.7439 52.8721 30.3314 46.5784C30.4232 46.1741 30.7269 45.8513 31.1248 45.7348C31.5227 45.6183 31.9524 45.7265 32.2478 46.0174C32.5432 46.3084 32.6578 46.7365 32.5474 47.1361C30.7245 54.3818 22.6285 59.0858 22.2856 59.2778C22.1119 59.3779 21.9147 59.43 21.7142 59.4287ZM30.8571 42.2858V38.8572C30.8571 38.2261 31.3687 37.7144 31.9999 37.7144C32.6311 37.7144 33.1428 38.2261 33.1428 38.8572V42.2858C33.1428 42.917 32.6311 43.4287 31.9999 43.4287C31.3687 43.4287 30.8571 42.917 30.8571 42.2858ZM29.1428 60.4207C28.5949 60.7336 27.8971 60.5432 27.5839 59.9955C27.2724 59.4499 27.4598 58.7551 28.0034 58.4401C28.0856 58.3875 35.4285 53.8847 35.4285 38.8572C35.4285 36.9637 33.8935 35.4287 31.9999 35.4287C30.1064 35.4287 28.5714 36.9637 28.5714 38.8572C28.5714 39.4884 28.0597 40.0001 27.4285 40.0001C26.7973 40.0001 26.2856 39.4884 26.2856 38.8572C26.2856 35.7013 28.844 33.143 31.9999 33.143C35.1558 33.143 37.7142 35.7013 37.7142 38.8572C37.7142 55.3315 29.4856 60.2207 29.1428 60.4207ZM35.4285 60.5715C34.9859 60.5711 34.5833 60.315 34.3952 59.9144C34.2071 59.5137 34.2672 59.0404 34.5496 58.6995C34.6022 58.6287 39.9999 51.9361 39.9999 38.8572C39.9999 34.439 36.4182 30.8572 31.9999 30.8572C27.5817 30.8572 23.9999 34.439 23.9999 38.8572C23.9999 48.6607 17.8285 51.2424 17.5668 51.3475C17.1875 51.499 16.7562 51.4366 16.4353 51.1839C16.1145 50.9311 15.9528 50.5264 16.0113 50.1222C16.0698 49.7179 16.3395 49.3756 16.7188 49.2241C16.9142 49.143 21.7142 47.0401 21.7142 38.8572C21.7142 33.1766 26.3193 28.5715 31.9999 28.5715C37.6806 28.5715 42.2856 33.1766 42.2856 38.8572C42.2856 52.8252 36.5496 59.8675 36.3074 60.1612C36.0898 60.4217 35.7678 60.572 35.4285 60.5715ZM42.1359 60.0001C41.8188 60.5387 41.1277 60.7226 40.5848 60.4129C40.0418 60.1031 39.8485 59.4147 40.1508 58.8675C43.1767 52.6376 44.6912 45.7821 44.5714 38.8572C44.5714 31.9142 38.9429 26.2858 31.9999 26.2858C25.0569 26.2858 19.4285 31.9142 19.4285 38.8572C19.4582 40.9982 19.0296 43.1208 18.1714 45.0824C17.9888 45.4478 17.6252 45.6881 17.2175 45.7128C16.8098 45.7374 16.4199 45.5427 16.1947 45.2019C15.9694 44.8612 15.9431 44.4261 16.1256 44.0607C16.8205 42.4151 17.1668 40.6434 17.1428 38.8572C17.1428 30.6519 23.7946 24.0001 31.9999 24.0001C40.2053 24.0001 46.8571 30.6519 46.8571 38.8572C46.8571 51.5864 42.3291 59.6572 42.1359 60.0001Z" fill="url(#paint0_linear_19_3112)"/>
<path d="M60.5714 9.143H10.2857C9.65453 9.143 9.14286 8.63132 9.14286 8.00014C9.14286 7.36896 9.65453 6.85728 10.2857 6.85728H24.64L22.8914 2.22871C22.407 0.881094 21.1234 -0.0128479 19.6914 0.000139657H3.42857C1.53737 0.00578789 0.00564823 1.53751 0 3.42871V6.85728H5.71429C6.34547 6.85728 6.85714 7.36896 6.85714 8.00014C6.85714 8.63132 6.34547 9.143 5.71429 9.143H0V49.143C0.00564823 51.0342 1.53737 52.5659 3.42857 52.5716H8V24.0001C8 20.8442 10.5584 18.2859 13.7143 18.2859H50.2857C53.4416 18.2859 56 20.8442 56 24.0001V52.5716H60.5714C62.4626 52.5659 63.9944 51.0342 64 49.143V12.5716C63.9944 10.6804 62.4626 9.14865 60.5714 9.143Z" fill="url(#paint1_linear_19_3112)"/>
</g>
<defs>
<linearGradient id="paint0_linear_19_3112" x1="31.9999" y1="20.5715" x2="31.9999" y2="64.0001" gradientUnits="userSpaceOnUse">
<stop stop-color="#AC5FEA"/>
<stop offset="1" stop-color="#E83E8C"/>
</linearGradient>
<linearGradient id="paint1_linear_19_3112" x1="32" y1="0" x2="32" y2="52.5716" gradientUnits="userSpaceOnUse">
<stop stop-color="#AC5FEA"/>
<stop offset="1" stop-color="#E83E8C"/>
</linearGradient>
<clipPath id="clip0_19_3112">
<rect width="64" height="64" fill="white"/>
</clipPath>
</defs>
</svg>
