<svg width="48" height="48" viewBox="0 0 48 48" fill="none" xmlns="http://www.w3.org/2000/svg">
<path d="M8.65866 30.3568H6.1159C4.01283 30.3568 2.30176 28.6457 2.30176 26.5427C2.30176 24.4396 4.01283 22.7285 6.1159 22.7285H11.2014C11.6421 22.7285 12.0507 22.957 12.2828 23.3318C12.5149 23.7069 12.536 24.175 12.3387 24.5687L9.79596 29.6542C9.57975 30.085 9.1404 30.3568 8.65866 30.3568Z" fill="#559CFF"/>
<path d="M45.6982 26.5427C45.6982 28.6457 43.9872 30.3568 41.8841 30.3568H39.3413C38.8596 30.3568 38.4202 30.085 38.204 29.6542L35.6613 24.5687C35.4639 24.175 35.4851 23.7069 35.7172 23.3318C35.9493 22.957 36.3579 22.7285 36.7986 22.7285H41.8841C43.9872 22.7285 45.6982 24.4396 45.6982 26.5427Z" fill="#559CFF"/>
<path d="M40.4008 28.5268L36.0272 19.7542C35.366 18.4574 34.0694 17.6436 32.5944 17.6436H15.4056C13.9306 17.6436 12.6341 18.4574 11.9729 19.7542L7.5992 28.5268C7.42107 28.9079 7.42107 29.3913 7.65018 29.7472C7.90446 30.1286 8.31137 30.3574 8.74344 30.3574H39.2566C39.689 30.3574 40.0959 30.1286 40.3502 29.7472C40.579 29.3913 40.579 28.9079 40.4008 28.5268Z" fill="#B1D1FF"/>
<path d="M37.1968 27.8138H10.8031L14.2613 20.8722C14.4646 20.4398 14.897 20.1855 15.4056 20.1855H32.5944C33.1029 20.1855 33.5353 20.4398 33.7386 20.8722L37.1968 27.8138Z" fill="#EDF4FF"/>
<path d="M17.6431 41.8845C17.6431 43.9875 15.932 45.6986 13.829 45.6986H11.2862C9.18311 45.6986 7.47205 43.9875 7.47205 41.8845V39.3417C7.47205 38.6391 8.04086 38.0703 8.74343 38.0703H16.3717C17.0743 38.0703 17.6431 38.6391 17.6431 39.3417V41.8845Z" fill="#074BAA"/>
<path d="M40.528 41.8845C40.528 43.9875 38.8169 45.6986 36.7138 45.6986H34.1711C32.068 45.6986 30.3569 43.9875 30.3569 41.8845V39.3417C30.3569 38.6391 30.9257 38.0703 31.6283 38.0703H39.2566C39.9592 38.0703 40.528 38.6391 40.528 39.3417V41.8845Z" fill="#074BAA"/>
<path d="M40.528 8.65887C40.528 8.9893 40.4008 9.32006 40.1465 9.54884L37.6038 12.0916C37.375 12.3459 37.0442 12.473 36.7138 12.473H21.4572C20.7451 12.473 20.1859 11.9138 20.1859 11.2016V6.11611C20.1859 5.40394 20.7451 4.84473 21.4572 4.84473H36.7138C37.0442 4.84473 37.375 4.97186 37.6038 5.22614L40.1465 7.7689C40.4008 7.99769 40.528 8.32844 40.528 8.65887Z" fill="#559CFF"/>
<path d="M43.0707 32.9L41.2401 34.0442L43.0707 35.4427V36.7141C43.0707 38.8248 41.3672 40.5283 39.2566 40.5283H8.7434C6.63271 40.5283 4.92926 38.8248 4.92926 36.7141V35.4427L6.48041 34.5783L4.92926 32.9V31.6286C4.92926 29.5179 6.63271 27.8145 8.7434 27.8145H39.2566C41.3672 27.8145 43.0707 29.5179 43.0707 31.6286V32.9Z" fill="#B1D1FF"/>
<path d="M18.9145 2.30176H13.829C10.3201 2.30176 7.47205 5.14978 7.47205 8.65866V11.2014C7.47205 13.3121 9.1755 15.0156 11.2862 15.0156H18.9145C21.0252 15.0156 22.7286 13.3121 22.7286 11.2014V6.1159C22.7286 4.00521 21.0252 2.30176 18.9145 2.30176Z" fill="#074BAA"/>
<path d="M15.1003 8.65908C15.1003 9.37125 14.5411 9.93046 13.8289 9.93046C13.1168 9.93046 12.5576 9.37125 12.5576 8.65908C12.5576 7.9469 13.1168 7.3877 13.8289 7.3877C14.5411 7.3877 15.1003 7.9469 15.1003 8.65908Z" fill="#444444"/>
<path d="M12.5575 34.1708C12.5575 34.8734 11.9887 35.4422 11.2862 35.4422H4.92926V32.8994H11.2862C11.9887 32.8994 12.5575 33.4682 12.5575 34.1708Z" fill="#EDF4FF"/>
<path d="M43.0707 35.4422H36.7138C36.0113 35.4422 35.4424 34.8734 35.4424 34.1708C35.4424 33.4682 36.0113 32.8994 36.7138 32.8994H43.0707V35.4422Z" fill="#EDF4FF"/>
<path d="M17.6431 40.5277V34.1708C17.6431 33.4682 18.2119 32.8994 18.9144 32.8994C19.617 32.8994 20.1858 33.4682 20.1858 34.1708V40.5277H17.6431Z" fill="#559CFF"/>
<path d="M25.2714 34.1708V40.5277H22.7286V34.1708C22.7286 33.4586 23.2878 32.8994 24 32.8994C24.7122 32.8994 25.2714 33.4586 25.2714 34.1708Z" fill="#559CFF"/>
<path d="M27.8141 40.5277V34.1708C27.8141 33.4682 28.383 32.8994 29.0855 32.8994C29.7881 32.8994 30.3569 33.4682 30.3569 34.1708V40.5277H27.8141Z" fill="#559CFF"/>
</svg>
