<svg xmlns="http://www.w3.org/2000/svg" xmlns:xlink="http://www.w3.org/1999/xlink" width="48" height="48" viewBox="0 0 48 48">
  <defs>
    <clipPath id="clip-path">
      <rect id="Rectangle_28155" data-name="Rectangle 28155" width="36" height="36" transform="translate(397 591)" fill="#fff" stroke="#707070" stroke-width="1"/>
    </clipPath>
  </defs>
  <g id="Group_221746" data-name="Group 221746" transform="translate(-1445 -6502)">
    <rect id="Rectangle_7484" data-name="Rectangle 7484" width="48" height="48" rx="8" transform="translate(1445 6502)" fill="#eae6ff"/>
    <g id="Mask_Group_223567" data-name="Mask Group 223567" transform="translate(1054 5917)" clip-path="url(#clip-path)">
      <g id="tire-svgrepo-com" transform="translate(382.926 592)">
        <g id="Group_231824" data-name="Group 231824" transform="translate(17.074)">
          <g id="Group_231823" data-name="Group 231823">
            <path id="Path_175729" data-name="Path 175729" d="M48.806,16.9C48.767,7.915,43.826.5,37.557.025h0Q37.234,0,36.907,0H28.974A10.053,10.053,0,0,0,21.3,4.027l.175-.044,3.949-1.129a.569.569,0,0,1,.47.074l1.386.923,1.386-.923a.566.566,0,0,1,.568-.036L31.2,3.88c-.229.3-.452.609-.664.936l-1.524-.762L27.588,5a.566.566,0,0,1-.628,0l-1.482-.988L21.763,5.078l-1.515.379q-.306.472-.586.976l.6.494,1.341.891L22.993,6.9a.564.564,0,0,1,.628,0l1.386.923L26.393,6.9a.566.566,0,0,1,.568-.036l2,1c-.141.347-.273.7-.4,1.069l-1.82-.91-1.426.951a.566.566,0,0,1-.628,0l-1.385-.924-1.386.924a.566.566,0,0,1-.628,0l-1.7-1.133L19.13,7.46A21.146,21.146,0,0,0,17.4,13.076l.45-.446L19.5,10.937a.569.569,0,0,1,.4-.17.6.6,0,0,1,.4.166l1.3,1.3,1.3-1.3a.566.566,0,0,1,.8,0l1.3,1.3,1.3-1.3a.566.566,0,0,1,.8,0l.715.715c-.091.431-.172.868-.241,1.314a.562.562,0,0,1-.141-.094l-.733-.733-1.3,1.3a.567.567,0,0,1-.8,0l-1.3-1.3-1.3,1.3a.567.567,0,0,1-.8,0l-1.295-1.295-1.26,1.29L17.168,14.9c-.016.187-.031.375-.043.564l.807.485,1.863.93,1.412-1.411a.566.566,0,0,1,.8,0l1.3,1.3,1.3-1.3a.567.567,0,0,1,.692-.086l1.982,1.189c0,.143-.006.286-.006.431,0,.3.006.6.015.9L25.095,16.58l-1.387,1.388a.567.567,0,0,1-.8,0l-1.3-1.3-1.3,1.3a.566.566,0,0,1-.654.106L17.387,16.94l-.309-.185c0,.082,0,.163,0,.245a23.542,23.542,0,0,0,.671,5.621l1.69-2.535A.566.566,0,0,1,20.308,20l1.3,1.3,1.3-1.3a.566.566,0,0,1,.8,0l1.3,1.3,1.3-1.3a.566.566,0,0,1,.8,0l.38.379c.074.58.168,1.149.278,1.707a.553.553,0,0,1-.326-.151l-.733-.733-1.3,1.3a.567.567,0,0,1-.8,0l-1.3-1.3-1.3,1.3a.567.567,0,0,1-.8,0L20,21.289l-1.844,2.766a20.063,20.063,0,0,0,.8,2.086l.589-.5,1.1-1.1a.566.566,0,0,1,.8,0l1.3,1.3,1.3-1.3a.566.566,0,0,1,.8,0l1.211,1.211.75-1.125a.567.567,0,0,1,.725-.193l.983.491c.18.539.379,1.06.593,1.564l-1.635-.818-.856,1.284a.566.566,0,0,1-.872.087l-1.3-1.3-1.3,1.3a.567.567,0,0,1-.8,0l-1.3-1.3-.733.733-.85.729a15.832,15.832,0,0,0,2.271,3.276l.727-.364L24.126,29a.564.564,0,0,1,.628,0l1.386.923L27.526,29a.564.564,0,0,1,.628,0l1.386.923,1.022-.681c.211.322.432.628.659.923l-1.367.911a.566.566,0,0,1-.628,0l-1.385-.924-1.386.924a.566.566,0,0,1-.628,0l-1.386-.924-1.386.924a.5.5,0,0,1-.061.035l-.423.211A9.462,9.462,0,0,0,28.974,34h7.933c.2,0,.394-.008.6-.023h.044a8.613,8.613,0,0,0,.9-.122c5.027-.923,9.128-6.311,10.132-13.5A27.782,27.782,0,0,0,48.806,17S48.806,16.9,48.806,16.9Zm-1.353,3.3c-.951,6.808-4.791,11.865-9.439,12.569-.173.027-.348.057-.518.071l-.035,0q-.248-.025-.493-.07c-.057-.011-.113-.024-.171-.036-.12-.026-.239-.053-.356-.086-.062-.018-.125-.036-.186-.055-.114-.036-.228-.074-.342-.117-.058-.021-.116-.042-.173-.065-.13-.053-.259-.11-.387-.171-.037-.018-.075-.033-.112-.052-.167-.083-.333-.174-.5-.271l-.058-.037q-.213-.131-.422-.277c-.041-.029-.083-.06-.124-.09q-.178-.13-.353-.271l-.122-.1q-.184-.155-.364-.322l-.085-.078a11.359,11.359,0,0,1-1.3-1.482l-.041-.057c-.123-.169-.244-.343-.362-.522l-.035-.053a16.433,16.433,0,0,1-1.394-2.665c-.027-.065-.053-.129-.079-.194q-.19-.469-.358-.961a.03.03,0,0,1,0-.007q-.168-.49-.315-1l0-.008c-.1-.331-.183-.669-.265-1.013-.007-.031-.014-.062-.022-.093q-.115-.493-.211-1c0-.013-.005-.025-.007-.039-.063-.339-.118-.684-.167-1.032-.009-.062-.017-.124-.025-.185-.044-.33-.083-.662-.115-1,0-.019,0-.039-.006-.058-.032-.346-.054-.7-.072-1.049,0-.082-.007-.164-.011-.246-.015-.355-.024-.712-.024-1.073q0-.4.011-.786c0-.083.008-.165.011-.248.007-.177.013-.354.023-.529.007-.109.016-.217.024-.326.011-.146.02-.294.033-.439.012-.13.027-.259.041-.389s.024-.245.038-.365.034-.253.052-.38.031-.243.049-.363.041-.244.061-.366.039-.243.06-.363.049-.246.073-.369.044-.231.069-.345.058-.254.087-.381c.025-.106.048-.214.074-.318.032-.129.067-.256.1-.384.027-.1.052-.2.079-.3.036-.126.074-.25.112-.374.029-.1.057-.2.088-.292.039-.122.08-.241.121-.362.032-.1.063-.193.1-.287.045-.127.093-.25.139-.375.032-.084.062-.171.1-.254.052-.131.106-.258.159-.386.031-.074.061-.15.092-.223.055-.126.113-.249.169-.372.033-.072.065-.146.1-.218.057-.121.118-.237.177-.355.036-.071.07-.143.107-.213.061-.116.125-.229.188-.342.037-.067.074-.137.112-.2.063-.11.129-.216.195-.324.04-.066.079-.134.12-.2.067-.105.136-.207.2-.309.042-.063.083-.127.125-.189.071-.1.144-.2.216-.3.042-.058.084-.117.127-.174.074-.1.151-.191.227-.285.043-.054.086-.109.129-.161.078-.093.158-.181.238-.271.044-.049.087-.1.132-.149.08-.086.162-.168.244-.251.046-.046.091-.1.138-.141.082-.079.165-.154.249-.23.049-.044.1-.09.145-.133.085-.074.172-.143.258-.213.049-.04.1-.082.147-.121.088-.068.178-.131.267-.195.049-.036.1-.074.148-.108.088-.061.179-.116.269-.172.053-.033.1-.069.158-.1.09-.053.182-.1.273-.15.054-.029.108-.061.163-.088.092-.046.186-.087.28-.13.055-.025.11-.052.165-.075.093-.039.189-.073.283-.108.057-.021.113-.044.171-.063.094-.032.189-.057.284-.084.06-.017.118-.036.178-.052.094-.024.19-.041.284-.061.062-.013.124-.028.185-.039.095-.016.19-.027.286-.039.06-.007.119-.017.179-.022,5.661.471,10.116,7.371,10.151,15.728V17A26.728,26.728,0,0,1,47.453,20.2Z" transform="translate(-17.074)" fill="#6554c0"/>
            <path id="Path_175730" data-name="Path 175730" d="M231.894,147.391a.577.577,0,0,1-.052-.059l-.2-.267a21.829,21.829,0,0,0-.013,14.435l.25-.273c1.162-1.146,1.929-3.923,1.929-6.929S233.036,148.517,231.894,147.391Z" transform="translate(-216.237 -137.299)" fill="#6554c0"/>
            <path id="Path_175731" data-name="Path 175731" d="M261.312,68.262c-2.025,0-3.81,1.553-5.046,4.048l.561.733c1.349,1.36,2.218,4.368,2.218,7.686,0,3.341-.882,6.369-2.247,7.715l-.572.624c1.236,2.542,3.039,4.128,5.085,4.128,3.813,0,6.8-5.476,6.8-12.467S265.125,68.262,261.312,68.262Z" transform="translate(-240.346 -63.729)" fill="#6554c0"/>
          </g>
        </g>
      </g>
    </g>
  </g>
</svg>
