<svg width="48" height="48" viewBox="0 0 48 48" fill="none" xmlns="http://www.w3.org/2000/svg">
<path d="M24.7762 5.63281H6.85504C4.17824 5.63281 2.00055 7.81051 2.00055 10.4873V33.9183C2.00055 36.5951 4.17824 38.7728 6.85504 38.7728H24.7765C27.453 38.7728 29.631 36.5951 29.631 33.9183V10.4873C29.6307 7.81051 27.453 5.63281 24.7762 5.63281Z" fill="#B1D1FF"/>
<path d="M9.65095 15.3695H21.9804C22.5166 15.3695 22.9513 14.9349 22.9513 14.3986C22.9513 13.8626 22.5166 13.4277 21.9804 13.4277H9.65095C9.11468 13.4277 8.68005 13.8626 8.68005 14.3986C8.68005 14.9349 9.11468 15.3695 9.65095 15.3695Z" fill="#074BAA"/>
<path d="M21.9804 17.6484H9.65095C9.11468 17.6484 8.68005 18.0831 8.68005 18.6193C8.68005 19.1554 9.11468 19.5902 9.65095 19.5902H21.9804C22.5166 19.5902 22.9513 19.1554 22.9513 18.6193C22.9513 18.0831 22.5166 17.6484 21.9804 17.6484Z" fill="#074BAA"/>
<path d="M21.9804 21.8672H9.65095C9.11468 21.8672 8.68005 22.3018 8.68005 22.8381C8.68005 23.3744 9.11468 23.809 9.65095 23.809H21.9804C22.5166 23.809 22.9513 23.3744 22.9513 22.8381C22.9513 22.3018 22.5166 21.8672 21.9804 21.8672Z" fill="#074BAA"/>
<path d="M15.8157 28.9512H9.65095C9.11468 28.9512 8.68005 29.3858 8.68005 29.9221C8.68005 30.4583 9.11468 30.893 9.65095 30.893H15.8157C16.3519 30.893 16.7866 30.4583 16.7866 29.9221C16.7866 29.3858 16.3519 28.9512 15.8157 28.9512Z" fill="#074BAA"/>
<g clip-path="url(#clip0_674_2626)">
<path fill-rule="evenodd" clip-rule="evenodd" d="M36.9324 24.3489C37.6929 24.3203 38.2492 25.2235 38.9877 25.4049C39.7201 25.5864 40.5147 25.002 41.1737 25.3936C41.8608 25.7225 41.9342 26.7785 42.4965 27.2841C43.0642 27.7838 44.0409 27.6417 44.4438 28.2888C44.8921 28.8959 44.4665 29.8671 44.7333 30.5763C45.0061 31.2861 45.9368 31.6096 45.9881 32.3701C46.1075 33.1193 45.2783 33.7837 45.1876 34.5329C45.0969 35.2821 45.7666 36.0032 45.4658 36.7016C45.2157 37.4227 44.177 37.6269 43.7454 38.2459C43.3138 38.8703 43.5752 39.8243 42.9849 40.2953C42.4285 40.8176 41.4125 40.5167 40.7421 40.863C40.0723 41.2146 39.8622 42.1798 39.1184 42.3279C38.3859 42.532 37.6254 41.7882 36.8703 41.7882C36.1152 41.7882 35.4794 42.5434 34.7529 42.3279C34.0037 42.1691 33.6802 41.1584 33.0098 40.8062C32.34 40.454 31.4261 40.8289 30.8865 40.2953C30.2961 39.8129 30.4776 38.7683 30.0519 38.1439C29.6203 37.5194 28.6384 37.4287 28.4055 36.7016C28.1106 36.0032 28.7577 35.1633 28.667 34.4081C28.5763 33.659 27.7471 33.1193 27.8778 32.3701C27.9459 31.609 28.9052 31.1667 29.178 30.4569C29.4448 29.7531 28.9625 28.8899 29.4275 28.2882C29.8364 27.6465 30.8978 27.6978 31.4601 27.1982C32.0278 26.6985 32.0051 25.7106 32.6922 25.393C33.3566 25.0181 34.2706 25.5578 35.003 25.3757C35.7349 25.1948 36.1719 24.3095 36.9324 24.3489Z" fill="#559CFF"/>
<path d="M32.1425 31.3375V30.7955C32.1425 30.406 32.2275 30.0517 32.3975 29.7326C32.5675 29.4135 32.8226 29.1577 33.1626 28.9654C33.5027 28.773 33.9254 28.6768 34.4307 28.6768C34.9502 28.6768 35.38 28.773 35.7201 28.9654C36.0601 29.1577 36.3128 29.4135 36.4781 29.7326C36.6481 30.0517 36.7331 30.406 36.7331 30.7955V31.3375C36.7331 31.7176 36.6481 32.0672 36.4781 32.3862C36.3128 32.7053 36.0601 32.9611 35.7201 33.1535C35.3847 33.3459 34.9597 33.4421 34.4449 33.4421C33.9348 33.4421 33.5097 33.3459 33.1697 33.1535C32.8296 32.9611 32.5722 32.7053 32.3975 32.3862C32.2275 32.0672 32.1425 31.7176 32.1425 31.3375ZM33.6727 30.7955V31.3375C33.6727 31.4782 33.701 31.612 33.7577 31.7387C33.8144 31.8654 33.8994 31.9686 34.0127 32.0484C34.1308 32.1235 34.2748 32.161 34.4449 32.161C34.6196 32.161 34.7613 32.1235 34.8699 32.0484C34.9786 31.9686 35.0588 31.8654 35.1108 31.7387C35.1675 31.612 35.1958 31.4782 35.1958 31.3375V30.7955C35.1958 30.6453 35.1675 30.5069 35.1108 30.3802C35.0588 30.2535 34.9762 30.1526 34.8628 30.0775C34.7495 29.9977 34.6054 29.9578 34.4307 29.9578C34.2654 29.9578 34.1261 29.9977 34.0127 30.0775C33.8994 30.1526 33.8144 30.2535 33.7577 30.3802C33.701 30.5069 33.6727 30.6453 33.6727 30.7955ZM37.0377 37.1023V36.5603C37.0377 36.1755 37.1228 35.8236 37.2928 35.5045C37.4675 35.1854 37.7249 34.9296 38.065 34.7372C38.4097 34.5448 38.8348 34.4486 39.3402 34.4486C39.8597 34.4486 40.2871 34.5448 40.6224 34.7372C40.9625 34.9296 41.2151 35.1854 41.3805 35.5045C41.5505 35.8236 41.6355 36.1755 41.6355 36.5603V37.1023C41.6355 37.4871 41.5505 37.839 41.3805 38.1581C41.2151 38.4772 40.9648 38.733 40.6295 38.9254C40.2942 39.1178 39.8691 39.214 39.3543 39.214C38.8443 39.214 38.4168 39.1178 38.0721 38.9254C37.7273 38.733 37.4675 38.4772 37.2928 38.1581C37.1228 37.839 37.0377 37.4871 37.0377 37.1023ZM38.575 36.5603V37.1023C38.575 37.2478 38.6105 37.3839 38.6813 37.5106C38.7522 37.6373 38.8466 37.7405 38.9647 37.8203C39.0828 37.8953 39.2126 37.9329 39.3543 37.9329C39.5716 37.9329 39.7322 37.8953 39.8361 37.8203C39.9447 37.7405 40.0155 37.6373 40.0486 37.5106C40.0864 37.3839 40.1053 37.2478 40.1053 37.1023V36.5603C40.1053 36.4148 40.0769 36.2787 40.0203 36.152C39.9636 36.0253 39.8786 35.9245 39.7652 35.8494C39.6519 35.7696 39.5102 35.7297 39.3402 35.7297C39.1701 35.7297 39.0284 35.7696 38.9151 35.8494C38.8017 35.9245 38.7167 36.0253 38.6601 36.152C38.6034 36.2787 38.575 36.4148 38.575 36.5603ZM39.9352 30.2957L34.8983 38.3059L33.786 37.7499L38.823 29.7396L39.9352 30.2957Z" fill="#EDF4FF"/>
</g>
<defs>
<clipPath id="clip0_674_2626">
<rect width="18.1359" height="18.0195" fill="white" transform="translate(27.8635 24.3477)"/>
</clipPath>
</defs>
</svg>
