<svg xmlns="http://www.w3.org/2000/svg" width="48" height="48" viewBox="0 0 48 48">
  <g id="Group_221740" data-name="Group 221740" transform="translate(-569 -6501)">
    <rect id="Rectangle_7488" data-name="Rectangle 7488" width="48" height="48" rx="8" transform="translate(569 6501)" fill="#eae6ff"/>
    <g id="Group_221488" data-name="Group 221488" transform="translate(-204 -743)">
      <rect id="Rectangle_18121" data-name="Rectangle 18121" width="32" height="32" transform="translate(781 7252)" fill="none"/>
      <g id="Group_221487" data-name="Group 221487" transform="translate(-16.34 3837.942)">
        <path id="Path_156340" data-name="Path 156340" d="M993.85,3436.484l-1.013-.286.558-.893-.682-1.767-1.013-.286.558-.892-1.442-3.738a6.313,6.313,0,0,0-5.121-10.766,5.051,5.051,0,0,0-9.233,2.17l1.254.151a3.79,3.79,0,1,1,6.788,2.737c-.011-.024-.022-.049-.031-.074a1.249,1.249,0,0,1-.035-.8l-1.213-.351a2.524,2.524,0,0,0,3.336,3.059,2.525,2.525,0,0,0-.069-4.738,5.03,5.03,0,0,0-.2-.921,5.05,5.05,0,0,1,3.375,8.887l-.339.291,1.53,3.966-1.117,1.784,2.026.573.227.59-1.116,1.785,2.026.572,1.129,2.926-1.008,1.427-1,.386-5.053-13.1-.446.012a5.046,5.046,0,0,1-4.912-3.379,5.109,5.109,0,0,1,2.081-5.942l-.678-1.066a6.384,6.384,0,0,0-2.6,7.425,6.294,6.294,0,0,0,5.687,4.221l5.193,13.46,2.536-.979,1.618-2.293Zm-7.02-14.554a1.264,1.264,0,0,1-.724,1.633,1.25,1.25,0,0,1-.568.079,5.081,5.081,0,0,0,.931-2.221A1.259,1.259,0,0,1,986.831,3421.93Z" transform="translate(-168.179)" fill="#6554c0"/>
        <path id="Path_156341" data-name="Path 156341" d="M808.021,3550.821a2.148,2.148,0,0,1-2.776.979l-3.3-1.461a2.147,2.147,0,0,1-1.139-2.714l5.595-14.933a2.146,2.146,0,0,1,2.878-1.209l1.365.6.512-1.155-1.365-.6a3.408,3.408,0,0,0-4.573,1.92l-5.595,14.933a3.411,3.411,0,0,0,1.811,4.312l3.3,1.461a3.408,3.408,0,0,0,4.411-1.554l6.086-11.807-1.123-.578Z" transform="translate(0 -108.713)" fill="#6554c0"/>
        <path id="Path_156342" data-name="Path 156342" d="M882.084,3691.133a3.158,3.158,0,0,0-4.166,1.607l-1.536,3.464a3.158,3.158,0,1,0,5.774,2.56l1.536-3.464a3.158,3.158,0,0,0-1.607-4.167Zm-1.083,7.12a1.895,1.895,0,0,1-3.465-1.536l.512-1.155,3.465,1.536Zm1.536-3.465-.512,1.155-3.465-1.536.512-1.154a1.895,1.895,0,1,1,3.464,1.535Z" transform="translate(-72.857 -261.48)" fill="#6554c0"/>
      </g>
    </g>
  </g>
</svg>
