<svg width="48" height="48" viewBox="0 0 48 48" fill="none" xmlns="http://www.w3.org/2000/svg">
<path d="M33.5829 24.0198C32.5155 21.458 30.0122 19.7891 27.2372 19.7891H11.0232L8.1228 31.3907H36.6543L33.5829 24.0198Z" fill="#EDF4FF"/>
<path d="M36.6543 31.3907L33.5829 24.0198C32.5155 21.458 30.0121 19.7891 27.2372 19.7891H21.3358V31.3907H36.6543Z" fill="#EDF4FF"/>
<path d="M39.1251 28.8126H36.9766L34.7729 23.5241C33.5013 20.472 30.5434 18.5 27.2373 18.5H10.0168L7.43861 28.8126H7.15605C4.30831 28.8126 1.99975 31.1212 1.99975 33.9689V40.4143C1.99975 41.1262 2.57691 41.7033 3.28882 41.7033H44.7111C45.423 41.7033 46.0002 41.1262 46.0002 40.4143V35.6877C46.0002 31.8906 42.9221 28.8126 39.1251 28.8126ZM27.2373 21.0781C29.4992 21.0781 31.523 22.4274 32.393 24.5157L34.1836 28.8126H22.6249V21.0781H27.2373ZM12.0298 21.0781H20.0468V28.8126H10.0962L12.0298 21.0781Z" fill="#B1D1FF"/>
<path d="M13.6014 2C7.20426 2 1.99975 7.20451 1.99975 13.6017C1.99975 19.9988 7.20426 25.2033 13.6014 25.2033C19.9986 25.2033 25.2031 19.9988 25.2031 13.6017C25.2031 7.20451 19.9986 2 13.6014 2Z" fill="#559CFF"/>
<path d="M20.8314 9.527C20.3876 9.21634 19.776 9.32429 19.4654 9.76809L14.8881 16.307C14.5775 16.7508 14.6854 17.3623 15.1292 17.673C15.573 17.9837 16.1846 17.8757 16.4953 17.4319L21.0725 10.893C21.3831 10.4492 21.2752 9.83766 20.8314 9.527Z" fill="#EDF4FF"/>
<path d="M19.9421 17.8503C20.4838 17.8503 20.9229 17.4112 20.9229 16.8695C20.9229 16.3278 20.4838 15.8887 19.9421 15.8887C19.4004 15.8887 18.9613 16.3278 18.9613 16.8695C18.9613 17.4112 19.4004 17.8503 19.9421 17.8503Z" fill="#EDF4FF"/>
<path d="M16.0187 11.3113C16.5604 11.3113 16.9996 10.8721 16.9996 10.3304C16.9996 9.78874 16.5604 9.34961 16.0187 9.34961C15.477 9.34961 15.0379 9.78874 15.0379 10.3304C15.0379 10.8721 15.477 11.3113 16.0187 11.3113Z" fill="#EDF4FF"/>
<path d="M12.6371 12.7316V14.4646C12.6371 15.1783 12.5568 15.7961 12.3963 16.318C12.2401 16.8398 12.0126 17.2703 11.7138 17.6093C11.4194 17.9483 11.067 18.2003 10.6566 18.3654C10.2507 18.5259 9.8002 18.6062 9.30507 18.6062C8.90808 18.6062 8.53785 18.5549 8.19439 18.4523C7.85092 18.3498 7.54091 18.1914 7.26435 17.9773C6.99226 17.7587 6.75808 17.4866 6.56181 17.161C6.36555 16.8354 6.21389 16.4473 6.10683 15.9968C6.00424 15.5463 5.95294 15.0355 5.95294 14.4646V12.7316C5.95294 12.009 6.031 11.389 6.18712 10.8716C6.3477 10.3542 6.57742 9.92593 6.87628 9.58693C7.17514 9.24793 7.52753 8.99813 7.93344 8.83755C8.34382 8.67697 8.79657 8.59668 9.29169 8.59668C9.68868 8.59668 10.0567 8.64798 10.3957 8.75057C10.7392 8.85316 11.0492 9.01151 11.3257 9.22562C11.6023 9.43973 11.8365 9.7096 12.0283 10.0352C12.2245 10.3608 12.374 10.7489 12.4766 11.1994C12.5836 11.6455 12.6371 12.1562 12.6371 12.7316ZM10.5496 14.7255V12.4573C10.5496 12.1228 10.5295 11.8328 10.4894 11.5875C10.4537 11.3377 10.4001 11.1258 10.3288 10.9519C10.2619 10.7779 10.1771 10.6374 10.0745 10.5303C9.97193 10.4233 9.85373 10.3452 9.71991 10.2962C9.59055 10.2426 9.44781 10.2159 9.29169 10.2159C9.09543 10.2159 8.91923 10.256 8.76311 10.3363C8.60699 10.4166 8.4754 10.5437 8.36835 10.7177C8.2613 10.8872 8.17877 11.1169 8.12079 11.4068C8.06726 11.6923 8.0405 12.0425 8.0405 12.4573V14.7255C8.0405 15.0601 8.05834 15.3522 8.09402 15.602C8.13417 15.8518 8.1877 16.0659 8.2546 16.2444C8.32597 16.4183 8.41296 16.5611 8.51555 16.6726C8.61814 16.7796 8.73635 16.8577 8.87017 16.9068C9.00398 16.9558 9.14895 16.9804 9.30507 16.9804C9.50134 16.9804 9.6753 16.9424 9.82696 16.8666C9.97862 16.7863 10.108 16.6592 10.215 16.4852C10.3265 16.3068 10.4091 16.0726 10.4626 15.7827C10.5206 15.4927 10.5496 15.1404 10.5496 14.7255Z" fill="#EDF4FF"/>
<path d="M11.8826 34.8281C8.80252 34.8281 6.29665 37.334 6.29665 40.4141C6.29665 43.4942 8.80252 46.0001 11.8826 46.0001C14.9628 46.0001 17.4686 43.4942 17.4686 40.4141C17.4686 37.334 14.9628 34.8281 11.8826 34.8281Z" fill="#074BAA"/>
<path d="M36.1172 34.8281C33.0371 34.8281 30.5312 37.334 30.5312 40.4141C30.5312 43.4942 33.0371 46.0001 36.1172 46.0001C39.1973 46.0001 41.7032 43.4942 41.7032 40.4141C41.7032 37.334 39.1973 34.8281 36.1172 34.8281Z" fill="#074BAA"/>
<path d="M11.8826 43.4219C13.5438 43.4219 14.8905 42.0753 14.8905 40.4141C14.8905 38.7529 13.5438 37.4062 11.8826 37.4062C10.2215 37.4062 8.8748 38.7529 8.8748 40.4141C8.8748 42.0753 10.2215 43.4219 11.8826 43.4219Z" fill="#559CFF"/>
<path d="M36.1172 43.4219C37.7784 43.4219 39.1251 42.0753 39.1251 40.4141C39.1251 38.7529 37.7784 37.4062 36.1172 37.4062C34.456 37.4062 33.1094 38.7529 33.1094 40.4141C33.1094 42.0753 34.456 43.4219 36.1172 43.4219Z" fill="#559CFF"/>
</svg>
