<svg xmlns="http://www.w3.org/2000/svg" xmlns:xlink="http://www.w3.org/1999/xlink" width="32" height="32" viewBox="0 0 32 32"><defs><style>.a{fill:#ff7171;opacity:0.681;}.b{clip-path:url(#a);}.c{fill:#6554c0;}.d{fill:#eae6ff;stroke:#6554c0;stroke-width:1.2px;}.e{stroke:none;}.f{fill:none;}</style><clipPath id="a"><rect class="a" width="32" height="32" transform="translate(79 1346)"/></clipPath></defs><g class="b" transform="translate(-79 -1346)"><g transform="translate(-5)"><g transform="translate(43.782 1350)"><g transform="translate(40.218 0)"><g transform="translate(0)"><path class="c" d="M122.367,155.956h4.148a.648.648,0,0,0,0-1.3h-4.148a.648.648,0,1,0,0,1.3Z" transform="translate(-116.664 -145.067)"/><path class="c" d="M130.4,222.579h-8.037a.648.648,0,0,0,0,1.3H130.4a.648.648,0,1,0,0-1.3Z" transform="translate(-116.664 -208.773)"/><path class="c" d="M130.4,290.5h-8.037a.648.648,0,1,0,0,1.3H130.4a.648.648,0,1,0,0-1.3Z" transform="translate(-116.664 -272.478)"/><path class="c" d="M63.227,22.88V2.464A2.366,2.366,0,0,0,60.961,0c-.055,0-.11,0-.165,0H46.861a2.637,2.637,0,0,0-2.755,2.463v1.1H42.973a2.819,2.819,0,0,0-2.755,2.69V26.7a1.134,1.134,0,0,0,.648.907,1,1,0,0,0,1.1-.194l1.977-1.782,2.366,2.106a.972.972,0,0,0,.648.259,1.037,1.037,0,0,0,.648-.259l2.333-2.106,2.333,2.106a.972.972,0,0,0,1.3,0l2.366-2.106,1.944,1.782a.778.778,0,0,0,.972.194.972.972,0,0,0,.486-.907V22.1l.389-.292L61.7,23.593a.94.94,0,0,0,.68.259.583.583,0,0,0,.324-.065A.94.94,0,0,0,63.227,22.88Zm-5.185,3.111L56.518,24.5a.907.907,0,0,0-1.264-.032l-2.366,2.106-2.3-2.106a1.037,1.037,0,0,0-1.3,0l-2.333,2.106-2.366-2.106A1.069,1.069,0,0,0,43.2,24.5l-1.685,1.491V6.255a1.523,1.523,0,0,1,1.458-1.393H56.907a1.26,1.26,0,0,1,1.134,1.393ZM61.93,2.464v19.7l-1.62-1.491c-.259-.259-.324-.324-.972-.227V6.255a2.552,2.552,0,0,0-2.43-2.69H45.4v-1.1A1.346,1.346,0,0,1,46.861,1.3H60.8a1.069,1.069,0,0,1,1.137,1A1.059,1.059,0,0,1,61.93,2.464Z" transform="translate(-40.218 0)"/></g></g></g><g class="d" transform="translate(97 1346)"><circle class="e" cx="9.5" cy="9.5" r="9.5"/><circle class="f" cx="9.5" cy="9.5" r="8.9"/></g><path class="c" d="M19.866,16.089a3.793,3.793,0,0,1-.507,1.931,3.7,3.7,0,0,1-1.4,1.4,3.858,3.858,0,0,1-1.94.516.539.539,0,0,1-.427-.2.646.646,0,0,1-.178-.454.593.593,0,0,1,.614-.6,2.582,2.582,0,0,0,2.6-2.6,2.551,2.551,0,0,0-.712-1.8,2.221,2.221,0,0,0-1.673-.765l.294.285a.556.556,0,0,1,.187.436.615.615,0,0,1-.178.427.565.565,0,0,1-.436.187.618.618,0,0,1-.454-.187L14.314,13.34a.552.552,0,0,1-.178-.454.478.478,0,0,1,.178-.418l1.344-1.361a.565.565,0,0,1,.436-.187.638.638,0,0,1,.632.632.568.568,0,0,1-.2.454l-.267.249a3.787,3.787,0,0,1,2.571,1.2A3.719,3.719,0,0,1,19.866,16.089Z" transform="translate(89.537 1340.502)"/></g></g></svg>