<svg width="156" height="149" viewBox="0 0 156 149" fill="none" xmlns="http://www.w3.org/2000/svg">
<path d="M93.0103 17.3234C93.795 17.5338 94.5123 18.0034 95.2116 18.6614C95.9136 19.3219 96.5666 20.1423 97.2348 21.0193C97.892 21.8818 98.5704 22.8086 99.2878 23.6127C100.007 24.4187 100.806 25.1498 101.737 25.6096L101.74 25.6104C102.691 26.0759 103.771 26.2729 104.86 26.3583C105.946 26.4436 107.099 26.4209 108.185 26.4174C109.289 26.4138 110.332 26.4296 111.274 26.5776C112.212 26.7251 113.003 26.9977 113.625 27.4734C114.258 27.9594 114.733 28.6612 115.123 29.534C115.514 30.4096 115.8 31.416 116.081 32.4829C116.357 33.5324 116.629 34.6499 116.987 35.6717C117.345 36.6964 117.807 37.6828 118.495 38.471L118.496 38.4722C119.19 39.2647 120.11 39.8578 121.081 40.3518C122.049 40.8445 123.122 41.2636 124.126 41.6763C125.147 42.0958 126.105 42.5116 126.919 43.0122C127.731 43.5111 128.36 44.0715 128.754 44.7574L128.755 44.7598C129.152 45.4437 129.322 46.2684 129.348 47.2208C129.375 48.1764 129.255 49.2149 129.108 50.3088C128.964 51.3848 128.79 52.5233 128.733 53.6082C128.675 54.6962 128.73 55.79 129.069 56.7879L129.068 56.7888C129.407 57.7787 130.031 58.6715 130.739 59.4939C131.445 60.3143 132.276 61.1098 133.047 61.8737C133.831 62.6503 134.559 63.4014 135.122 64.1777C135.683 64.9511 136.052 65.7134 136.157 66.5043C136.346 67.9589 135.617 69.5241 134.602 71.3016C133.637 72.9924 132.407 74.8765 131.982 76.7444L131.982 76.7454C131.9 77.0795 131.852 77.396 131.829 77.7245L131.829 77.7275C131.762 78.7627 131.996 79.8198 132.334 80.8454C132.672 81.8682 133.135 82.9192 133.553 83.9198C133.978 84.9374 134.362 85.914 134.583 86.8527C134.803 87.788 134.851 88.645 134.64 89.43C134.43 90.2148 133.96 90.932 133.302 91.6314C132.642 92.3334 131.821 92.9872 130.944 93.6555C130.082 94.3127 129.156 94.9914 128.352 95.7088C127.546 96.4282 126.814 97.2276 126.355 98.1591L126.353 98.1598C125.617 99.6608 125.541 101.518 125.538 103.265C125.536 104.963 125.6 106.565 125.343 107.945L125.288 108.217C125.124 108.942 124.874 109.549 124.494 110.037L124.492 110.041C124.006 110.674 123.304 111.15 122.432 111.539C121.556 111.93 120.55 112.216 119.483 112.497C118.433 112.773 117.316 113.046 116.294 113.404C115.269 113.762 114.282 114.224 113.494 114.912L113.494 114.913C112.702 115.608 112.108 116.526 111.613 117.497C111.119 118.465 110.699 119.538 110.285 120.542C109.865 121.563 109.448 122.521 108.948 123.336C108.45 124.148 107.891 124.778 107.208 125.173L107.206 125.174C106.522 125.571 105.697 125.741 104.745 125.768C103.79 125.794 102.752 125.675 101.658 125.528C100.582 125.383 99.4435 125.21 98.3586 125.152C97.2708 125.095 96.1778 125.149 95.1801 125.488L95.1789 125.488C94.1889 125.827 93.2953 126.45 92.4728 127.158C91.6526 127.865 90.8578 128.696 90.094 129.467C89.3176 130.251 88.5661 130.979 87.79 131.542C87.0163 132.103 86.2534 132.473 85.4622 132.577C84.6881 132.679 83.868 132.519 82.9822 132.178C82.0936 131.835 81.1828 131.327 80.2288 130.772C79.29 130.225 78.3031 129.628 77.3186 129.159C76.3315 128.688 75.2959 128.319 74.2373 128.248L74.2354 128.248C73.1991 128.18 72.1416 128.414 71.1157 128.752C70.0924 129.09 69.0414 129.553 68.041 129.972C67.0239 130.397 66.0482 130.781 65.11 131.002C64.1754 131.222 63.3194 131.27 62.5346 131.06C61.7497 130.85 61.0313 130.38 60.3313 129.722C59.629 129.061 58.9758 128.241 58.3073 127.364C57.6498 126.501 56.9712 125.574 56.2542 124.77C55.5353 123.964 54.7367 123.233 53.8067 122.774L53.8048 122.773C52.8513 122.305 51.7701 122.107 50.6801 122.021C49.5929 121.935 48.44 121.959 47.3543 121.963C46.2513 121.967 45.2094 121.952 44.2687 121.804C43.3308 121.658 42.5396 121.386 41.9182 120.91L41.9192 120.91C41.2862 120.424 40.8104 119.722 40.421 118.849C40.0303 117.974 39.7437 116.967 39.4631 115.9C39.1871 114.851 38.9145 113.734 38.5574 112.712C38.1992 111.687 37.7377 110.701 37.0498 109.913L37.0491 109.911L36.7784 109.624C36.1241 108.972 35.314 108.463 34.4646 108.03C33.4966 107.536 32.4244 107.116 31.4202 106.703C30.3995 106.282 29.4409 105.866 28.6261 105.366C27.8139 104.867 27.1839 104.308 26.7895 103.625L26.7888 103.624L26.6511 103.36C26.3521 102.731 26.2185 101.996 26.1956 101.163C26.1692 100.207 26.2882 99.1693 26.4353 98.0756C26.5801 96.9995 26.7536 95.8603 26.8111 94.7752C26.8688 93.6875 26.8148 92.5945 26.4759 91.5968L26.4752 91.5956L26.335 91.2284C25.9793 90.383 25.4248 89.6092 24.8052 88.8895C24.0989 88.0691 23.2676 87.2737 22.4967 86.5098C21.7132 85.7332 20.9847 84.982 20.4218 84.2057C19.8608 83.4321 19.4916 82.6694 19.3874 81.8782L19.3869 81.8761L19.3629 81.6412C19.3322 81.1685 19.3963 80.6749 19.5345 80.1595L19.6102 79.8997C20.049 78.4899 20.9627 77.0529 21.8659 75.4845C22.7377 73.9708 23.6028 72.3266 23.7152 70.658L23.7145 70.6568L23.727 70.2669C23.723 69.3561 23.5071 68.4341 23.211 67.5364C22.8735 66.5132 22.4099 65.4621 21.9916 64.4617C21.5664 63.4445 21.1825 62.468 20.9615 61.5298C20.7414 60.5952 20.6932 59.7391 20.9034 58.9543C21.1138 58.1694 21.5837 57.4511 22.2419 56.7511C22.9026 56.0486 23.7233 55.3947 24.6003 54.7261C25.4628 54.0685 26.3899 53.3901 27.1937 52.673C27.9995 51.9541 28.7297 51.1552 29.1892 50.2252L29.1909 50.2227C29.3341 49.9297 29.4503 49.6289 29.5438 49.3092L29.5445 49.3104C30.1151 47.4781 29.9912 45.2252 30.0004 43.2735C30.0101 41.227 30.1616 39.5077 31.0527 38.3427C31.5386 37.7097 32.2397 37.2337 33.1123 36.8442C33.9879 36.4534 34.9943 36.1671 36.0612 35.8864C37.1108 35.6102 38.2283 35.337 39.2503 34.9797C40.2747 34.6215 41.2612 34.1602 42.0493 33.4721L42.0505 33.4714C42.8431 32.7768 43.4363 31.8565 43.9303 30.8855C44.4229 29.9172 44.8422 28.8445 45.2548 27.8403C45.6744 26.8194 46.0903 25.8604 46.591 25.046C47.0899 24.2343 47.6494 23.6051 48.3352 23.2113L48.3376 23.2099C49.0216 22.8128 49.8465 22.6421 50.7989 22.6158C51.7544 22.5894 52.7922 22.7084 53.886 22.8555C54.9621 23.0003 56.1013 23.1739 57.1863 23.2313C58.274 23.2889 59.3671 23.2352 60.3648 22.8961L60.366 22.8954C61.3557 22.5568 62.2488 21.9333 63.0711 21.2251C63.8913 20.5188 64.6861 19.6872 65.4499 18.9164C66.2264 18.1328 66.9778 17.4044 67.7539 16.8415C68.4311 16.3504 69.1001 16.0058 69.7868 15.8575L70.0817 15.8061C70.856 15.7044 71.6761 15.8635 72.562 16.2048C73.4509 16.5473 74.3624 17.0551 75.3166 17.6102C76.2553 18.1563 77.242 18.7523 78.2261 19.2218C79.2128 19.6926 80.2478 20.0631 81.3054 20.1359L81.3085 20.1357C82.3436 20.2028 83.4007 19.9691 84.4263 19.6305C85.4492 19.2929 86.5003 18.8294 87.501 18.4111C88.5184 17.9859 89.4944 17.6019 90.433 17.381C91.3683 17.1608 92.2254 17.1131 93.0103 17.3234Z" fill="white" stroke="#5BADCC" stroke-width="1.26612"/>
<path d="M64.9365 122.454C91.5844 129.594 118.975 113.78 126.115 87.1319C133.256 60.484 117.442 33.0933 90.7937 25.953C64.1458 18.8127 36.7551 34.6268 29.6148 61.2747C22.4745 87.9226 38.2886 115.313 64.9365 122.454Z" fill="#5BADCC"/>
<path d="M65.6711 119.541C40.6945 112.848 25.8195 87.0842 32.512 62.1076C39.2045 37.1309 64.9671 22.2618 89.9438 28.9542C114.92 35.6467 129.795 61.4109 123.103 86.3875C116.41 111.364 90.6462 126.239 65.6696 119.547L65.6711 119.541Z" fill="white"/>
<path d="M88.0947 50.7419C88.0043 51.0796 87.6574 51.2799 87.3197 51.1894L83.6956 50.2183C83.509 50.1683 83.3552 50.036 83.2783 49.8588L79.7507 41.7172C79.6944 41.5872 79.6838 41.4415 79.7197 41.3045L80.247 39.2913C80.2897 39.1284 80.3954 38.9886 80.5409 38.904C80.6866 38.8193 80.8603 38.7965 81.0231 38.8401L83.6199 39.5359C84.1414 39.6756 84.544 39.6674 84.8559 39.5678C85.0238 39.5142 85.1766 39.4406 85.3154 39.3472L80.8744 38.1572C80.6859 38.1067 80.5316 37.972 80.4556 37.7923C80.3796 37.6125 80.3901 37.4075 80.4851 37.237L81.6716 35.1103L81.7309 35.0211C81.8859 34.8285 82.1428 34.7413 82.3879 34.8069L85.9846 35.7706C85.9725 35.7572 85.9609 35.7427 85.9481 35.7295L85.9418 35.7227C85.7239 35.49 85.3583 35.2753 84.7799 35.1202L81.9066 34.3503C81.7197 34.3003 81.5654 34.1672 81.4887 33.9896C81.412 33.8121 81.4213 33.6093 81.5128 33.4391L82.9052 30.8499L82.9648 30.7597C83.119 30.5627 83.3783 30.4722 83.6266 30.5387L93.9706 33.3104C94.1591 33.361 94.3136 33.4956 94.3895 33.6753C94.4654 33.8552 94.4543 34.0599 94.3591 34.2303L93.1765 36.3459C93.0351 36.5989 92.7395 36.7232 92.4595 36.6482L91.0795 36.2784C91.1077 36.5603 91.114 36.8481 91.1019 37.1418L92.798 37.5962C92.986 37.6466 93.1399 37.7809 93.2161 37.96C93.2923 38.1391 93.2821 38.3432 93.1881 38.5136L92.0138 40.6436C91.8733 40.8984 91.577 41.0248 91.2959 40.9497L90.1517 40.6431C89.9833 40.9683 89.7956 41.2721 89.5875 41.5525C89.0239 42.3115 88.2978 42.8735 87.4199 43.2313L87.4154 43.2331C86.7969 43.4796 86.1033 43.6064 85.3433 43.6313L88.1103 50.1668C88.1653 50.2965 88.1753 50.4407 88.139 50.5768L88.0947 50.7419Z" stroke="#5BADCC" stroke-width="1.26612" stroke-linejoin="round"/>
<path d="M72.2027 94.9797C60.7387 91.9079 53.9112 80.0824 56.983 68.6183C60.0547 57.1543 71.8796 50.3295 83.3436 53.4013C94.8077 56.473 101.635 68.2986 98.5633 79.7626C95.4916 91.2267 83.666 98.0541 72.202 94.9824L72.2027 94.9797Z" fill="#5BADCC"/>
<path d="M45.1316 93.0159L41.5694 94.6613C41.336 94.5994 41.053 94.4679 40.7205 94.2669C40.3921 94.0641 40.0514 93.7645 39.6986 93.3682C39.3457 92.9718 39.0181 92.4465 38.7158 91.7921C38.4478 91.2118 38.2981 90.6392 38.2669 90.0743C38.2398 89.5075 38.3316 88.9657 38.5423 88.4489C38.755 87.9362 39.086 87.4636 39.5355 87.0313C39.9891 86.597 40.5616 86.2202 41.2531 85.9008L41.8149 85.6413C42.5063 85.3219 43.1625 85.1261 43.7834 85.054C44.4062 84.9861 44.9798 85.0332 45.5042 85.1955C46.0287 85.3578 46.494 85.6247 46.9004 85.9963C47.3068 86.3679 47.6402 86.8356 47.9007 87.3995C48.2619 88.1815 48.4309 88.8825 48.4077 89.5025C48.3885 90.1206 48.2155 90.6649 47.8886 91.1356C47.5677 91.6084 47.1333 92.0088 46.5857 92.3367L45.7558 90.5402C46.0395 90.3542 46.265 90.1452 46.4324 89.913C46.5998 89.6809 46.6922 89.4159 46.7095 89.1183C46.7288 88.8248 46.6519 88.4907 46.4789 88.1162C46.3363 87.8075 46.1451 87.5612 45.9053 87.3773C45.6716 87.1957 45.3953 87.0786 45.0764 87.0261C44.7575 86.9737 44.3991 86.9869 44.0011 87.0659C43.6031 87.1449 43.1675 87.2937 42.6942 87.5123L42.12 87.7775C41.6508 87.9943 41.2561 88.2316 40.9357 88.4894C40.6195 88.7454 40.3787 89.0189 40.2135 89.3099C40.0544 89.6032 39.9739 89.91 39.9721 90.2305C39.9703 90.5509 40.0502 90.886 40.2118 91.2359C40.3468 91.5281 40.4836 91.7595 40.6224 91.9301C40.763 92.1049 40.8959 92.2358 41.021 92.3228C41.1521 92.4121 41.2658 92.4744 41.3621 92.5098L42.9549 91.7741L42.1735 90.0825L43.4946 89.4722L45.1316 93.0159ZM45.7361 99.8272L50.158 96.3964L51.3585 97.9438L45.545 102.454L44.4153 100.998L45.7361 99.8272ZM47.0622 99.0737L47.4273 99.5221C47.0405 99.8222 46.6457 100.057 46.2431 100.226C45.8441 100.392 45.4534 100.48 45.0708 100.49C44.6919 100.497 44.3287 100.417 43.9814 100.25C43.6377 100.081 43.3227 99.8118 43.0364 99.4429C42.8169 99.1599 42.6534 98.8678 42.546 98.5667C42.445 98.2664 42.4137 97.9635 42.4523 97.6582C42.4972 97.3537 42.6182 97.0475 42.8154 96.7395C43.019 96.4324 43.3142 96.1288 43.701 95.8286L47.4567 92.9148L48.6573 94.4622L44.8908 97.3844C44.7189 97.5178 44.5891 97.65 44.5015 97.7811C44.4166 97.9158 44.3658 98.05 44.3489 98.1836C44.3321 98.3171 44.3464 98.4466 44.392 98.5719C44.4404 98.7008 44.5132 98.8279 44.6104 98.9533C44.8578 99.2721 45.1168 99.4728 45.3875 99.5554C45.6609 99.6416 45.9379 99.6362 46.2183 99.5391C46.5051 99.4428 46.7864 99.2877 47.0622 99.0737ZM51.339 105.729L53.4757 103.243C53.6294 103.064 53.7317 102.886 53.7826 102.709C53.8364 102.528 53.8325 102.348 53.7708 102.17C53.7125 101.994 53.5871 101.823 53.3946 101.658C53.2295 101.516 53.0617 101.423 52.8912 101.378C52.7236 101.329 52.5613 101.33 52.4044 101.381C52.2504 101.428 52.1128 101.522 51.9916 101.663L50.5064 100.386C50.7103 100.149 50.9589 99.9707 51.2521 99.8521C51.5454 99.7336 51.8663 99.6836 52.2149 99.7023C52.5665 99.7175 52.9266 99.8029 53.2952 99.9583C53.6672 100.117 54.0337 100.351 54.3947 100.661C54.8279 101.034 55.1509 101.437 55.3637 101.871C55.5765 102.305 55.655 102.749 55.5993 103.203C55.547 103.661 55.3347 104.106 54.9624 104.539L52.9099 106.927C52.6469 107.233 52.4501 107.5 52.3194 107.728C52.1918 107.953 52.102 108.169 52.05 108.376L51.9747 108.463L50.474 107.173C50.5318 106.96 50.6394 106.724 50.7966 106.464C50.9602 106.204 51.141 105.959 51.339 105.729ZM53.3747 103.757L52.6624 104.607L51.8321 103.893C51.6361 103.724 51.4468 103.6 51.2639 103.521C51.0811 103.442 50.9078 103.403 50.7441 103.406C50.5833 103.405 50.4347 103.439 50.2984 103.507C50.1656 103.578 50.0445 103.677 49.9351 103.805C49.8258 103.932 49.756 104.072 49.7258 104.225C49.6985 104.375 49.7148 104.527 49.7746 104.68C49.8373 104.83 49.9426 104.968 50.0904 105.095C50.3139 105.287 50.5465 105.409 50.7884 105.462C51.0303 105.514 51.252 105.514 51.4537 105.46C51.6589 105.409 51.8134 105.326 51.9173 105.213L51.7684 106.179C51.5922 106.272 51.391 106.353 51.1647 106.422C50.9418 106.493 50.7006 106.534 50.4409 106.544C50.1842 106.551 49.9175 106.51 49.6408 106.421C49.367 106.329 49.0909 106.164 48.8124 105.924C48.4583 105.62 48.1974 105.273 48.0298 104.884C47.8686 104.494 47.8116 104.102 47.8589 103.706C47.9125 103.31 48.0783 102.95 48.3561 102.627C48.6073 102.334 48.8854 102.122 49.1905 101.99C49.4955 101.857 49.8211 101.806 50.1673 101.834C50.5198 101.862 50.8917 101.975 51.2828 102.174C51.6769 102.369 52.0871 102.65 52.5134 103.017L53.3747 103.757ZM58.4472 105.945L55.4842 110.877L53.8054 109.868L57.595 103.561L59.1747 104.51L58.4472 105.945ZM61.1986 105.67L60.2343 107.209C60.1597 107.149 60.0664 107.079 59.9545 107.002C59.8488 106.922 59.7494 106.855 59.6561 106.798C59.419 106.656 59.1944 106.563 58.9822 106.521C58.7761 106.476 58.5798 106.477 58.3932 106.524C58.2105 106.573 58.0397 106.663 57.881 106.795C57.7262 106.929 57.5807 107.101 57.4445 107.31L57.1695 107.002C57.4147 106.594 57.6808 106.244 57.9679 105.951C58.2573 105.654 58.5568 105.424 58.8663 105.261C59.1797 105.1 59.4931 105.019 59.8065 105.017C60.1198 105.014 60.4241 105.102 60.7195 105.28C60.8128 105.336 60.9033 105.401 60.9911 105.474C61.0813 105.544 61.1504 105.61 61.1986 105.67ZM63.2886 112.721L64.4756 109.666C64.5609 109.446 64.5981 109.244 64.587 109.06C64.5775 108.871 64.514 108.703 64.3963 108.555C64.2829 108.409 64.1078 108.29 63.8712 108.198C63.6683 108.119 63.479 108.087 63.3032 108.102C63.129 108.112 62.9763 108.167 62.8451 108.266C62.7156 108.362 62.6172 108.497 62.5499 108.67L60.7243 107.961C60.8375 107.669 61.0127 107.418 61.2497 107.209C61.4867 106.999 61.7727 106.846 62.1076 106.747C62.4442 106.644 62.8122 106.605 63.2115 106.629C63.615 106.654 64.0386 106.753 64.4823 106.925C65.0148 107.132 65.4536 107.405 65.7988 107.743C66.144 108.082 66.366 108.474 66.4647 108.921C66.5677 109.37 66.5158 109.86 66.3089 110.393L65.1688 113.328C65.0227 113.704 64.9261 114.021 64.879 114.28C64.8335 114.535 64.8207 114.768 64.8405 114.98L64.7986 115.088L62.954 114.371C62.9375 114.151 62.9602 113.892 63.0221 113.595C63.0898 113.296 63.1787 113.004 63.2886 112.721ZM64.5515 110.184L64.1628 111.222L63.1422 110.826C62.9013 110.732 62.6815 110.679 62.4826 110.665C62.2838 110.65 62.1076 110.672 61.9541 110.729C61.8023 110.782 61.6734 110.863 61.5676 110.973C61.466 111.084 61.3848 111.218 61.3241 111.374C61.2633 111.531 61.2443 111.686 61.2668 111.841C61.2911 111.991 61.3569 112.129 61.4642 112.253C61.5731 112.373 61.7185 112.469 61.9002 112.539C62.1749 112.646 62.435 112.684 62.6805 112.653C62.926 112.622 63.1349 112.547 63.3072 112.429C63.4837 112.313 63.6019 112.184 63.662 112.042L63.8433 113.002C63.7084 113.149 63.5457 113.293 63.3551 113.433C63.1688 113.574 62.9548 113.693 62.7133 113.789C62.4734 113.881 62.2083 113.931 61.918 113.94C61.6292 113.944 61.3137 113.88 60.9714 113.747C60.5361 113.578 60.1747 113.338 59.887 113.027C59.6052 112.713 59.4207 112.362 59.3334 111.973C59.2521 111.581 59.2886 111.187 59.4429 110.79C59.5824 110.43 59.774 110.138 60.0176 109.911C60.2611 109.685 60.5509 109.527 60.8868 109.439C61.2285 109.348 61.6169 109.331 62.0519 109.388C62.4885 109.441 62.9689 109.569 63.4929 109.773L64.5515 110.184ZM69.8646 110.398L68.8886 116.103L66.9581 115.772L68.199 108.52L70.0088 108.829L69.8646 110.398ZM69.2711 112.174L68.7483 112.084C68.84 111.548 68.9919 111.077 69.2038 110.672C69.4165 110.262 69.6739 109.927 69.9762 109.666C70.2792 109.4 70.6165 109.216 70.9881 109.114C71.3649 109.009 71.7679 108.992 72.1969 109.066C72.5365 109.124 72.8386 109.226 73.1034 109.373C73.3681 109.519 73.5826 109.717 73.747 109.966C73.9159 110.215 74.0237 110.526 74.0706 110.897C74.1219 111.269 74.104 111.71 74.0168 112.22L73.2255 116.845L71.2816 116.512L72.0741 111.88C72.1291 111.559 72.1272 111.301 72.0685 111.107C72.0097 110.913 71.8992 110.765 71.7372 110.664C71.5804 110.559 71.3769 110.485 71.1266 110.442C70.8674 110.398 70.633 110.41 70.4232 110.48C70.218 110.551 70.0371 110.667 69.8806 110.829C69.7294 110.987 69.6018 111.181 69.498 111.412C69.3941 111.643 69.3185 111.896 69.2711 112.174ZM79.3461 109.771L79.3533 111.158L75.0691 111.18L75.0619 109.793L79.3461 109.771ZM76.1133 107.972L78.0718 107.962L78.1081 114.918C78.1092 115.132 78.1372 115.295 78.1922 115.408C78.2517 115.521 78.3383 115.6 78.4519 115.644C78.5654 115.685 78.7083 115.704 78.8806 115.703C79.003 115.703 79.1118 115.698 79.207 115.688C79.3066 115.674 79.3904 115.66 79.4584 115.646L79.4727 117.088C79.3052 117.143 79.1241 117.187 78.9293 117.22C78.7345 117.252 78.5193 117.269 78.2835 117.271C77.8529 117.273 77.4762 117.204 77.1536 117.066C76.8355 116.922 76.5895 116.692 76.4155 116.376C76.2416 116.059 76.1533 115.643 76.1506 115.126L76.1133 107.972ZM84.9569 116.542C84.3942 116.64 83.874 116.639 83.3962 116.538C82.9176 116.433 82.4939 116.247 82.1252 115.98C81.7608 115.712 81.459 115.381 81.2197 114.985C80.9796 114.585 80.8174 114.144 80.7332 113.662L80.6864 113.394C80.5905 112.844 80.5809 112.328 80.6577 111.846C80.7345 111.363 80.8888 110.928 81.1206 110.543C81.3568 110.156 81.6693 109.837 82.0579 109.585C82.4457 109.329 82.9032 109.155 83.4302 109.063C83.9437 108.973 84.4141 108.978 84.8412 109.079C85.2683 109.179 85.6432 109.362 85.9657 109.628C86.2927 109.893 86.5637 110.232 86.7785 110.646C86.9926 111.055 87.1461 111.525 87.2389 112.056L87.3792 112.86L81.618 113.866L81.3934 112.58L85.2588 111.905L85.2331 111.758C85.1863 111.49 85.0954 111.259 84.9605 111.067C84.8293 110.869 84.6568 110.724 84.4429 110.632C84.229 110.541 83.9725 110.521 83.6732 110.573C83.4187 110.618 83.2096 110.712 83.046 110.856C82.8824 110.999 82.76 111.182 82.679 111.403C82.6025 111.623 82.5589 111.875 82.5484 112.157C82.5416 112.435 82.5663 112.734 82.6225 113.056L82.6692 113.324C82.7199 113.614 82.8069 113.875 82.9302 114.107C83.0579 114.337 83.2133 114.529 83.3964 114.681C83.5839 114.832 83.7956 114.938 84.0316 114.998C84.2721 115.057 84.533 115.062 84.8143 115.013C85.1627 114.952 85.4748 114.829 85.7506 114.643C86.0301 114.451 86.2551 114.198 86.4256 113.883L87.5413 114.737C87.4277 114.983 87.2566 115.229 87.0282 115.476C86.8043 115.722 86.5205 115.942 86.1769 116.135C85.8325 116.324 85.4259 116.46 84.9569 116.542ZM93.251 114.254C92.719 114.462 92.2089 114.564 91.7206 114.56C91.2307 114.552 90.7785 114.454 90.364 114.266C89.9538 114.076 89.5921 113.811 89.2789 113.471C88.9641 113.127 88.7175 112.727 88.5391 112.271L88.44 112.017C88.2368 111.498 88.1249 110.994 88.1042 110.506C88.0834 110.017 88.1483 109.561 88.2989 109.137C88.4536 108.711 88.6964 108.337 89.0272 108.012C89.3563 107.684 89.77 107.422 90.2682 107.227C90.7537 107.037 91.2157 106.949 91.6542 106.963C92.0928 106.976 92.4965 107.081 92.8655 107.277C93.2386 107.472 93.5716 107.751 93.8644 108.113C94.1555 108.472 94.3993 108.902 94.5959 109.404L94.8933 110.164L89.4469 112.295L88.9712 111.079L92.6253 109.65L92.5708 109.51C92.4717 109.257 92.3368 109.049 92.1663 108.887C91.9984 108.719 91.8005 108.612 91.5727 108.564C91.3449 108.517 91.0896 108.549 90.8067 108.66C90.566 108.754 90.3798 108.888 90.248 109.061C90.1162 109.234 90.0326 109.437 89.9972 109.67C89.9659 109.902 89.9733 110.157 90.0192 110.436C90.0676 110.709 90.1513 110.997 90.2702 111.301L90.3694 111.555C90.4767 111.829 90.6138 112.068 90.7807 112.27C90.9518 112.471 91.1421 112.628 91.3517 112.74C91.5656 112.851 91.7941 112.913 92.0373 112.925C92.2848 112.935 92.5415 112.888 92.8075 112.784C93.1368 112.655 93.4181 112.472 93.6514 112.235C93.8873 111.992 94.0574 111.699 94.1619 111.356L95.4252 111.972C95.3625 112.235 95.2439 112.51 95.0691 112.797C94.8986 113.083 94.6642 113.355 94.3659 113.613C94.0659 113.867 93.6943 114.08 93.251 114.254ZM100.823 108.409L96.0928 100.94L97.7589 99.8851L103.347 108.71L101.848 109.659L100.823 108.409ZM95.8304 109.22L95.754 109.099C95.4532 108.624 95.234 108.16 95.0962 107.705C94.9561 107.246 94.9009 106.812 94.9307 106.401C94.9604 105.99 95.0781 105.613 95.2836 105.268C95.4892 104.923 95.7854 104.628 96.1723 104.383C96.5361 104.153 96.9026 104.028 97.2715 104.009C97.6443 103.988 98.0162 104.058 98.3872 104.22C98.7596 104.376 99.1265 104.608 99.4878 104.916C99.8466 105.22 100.196 105.581 100.536 105.999L100.703 106.263C100.924 106.73 101.092 107.187 101.209 107.633C101.325 108.08 101.374 108.505 101.356 108.908C101.339 109.305 101.241 109.668 101.063 109.996C100.884 110.324 100.611 110.604 100.243 110.837C99.8561 111.082 99.4617 111.222 99.0596 111.256C98.6614 111.288 98.2692 111.228 97.8829 111.076C97.5004 110.921 97.1342 110.686 96.7844 110.371C96.4346 110.056 96.1166 109.672 95.8304 109.22ZM97.4086 108.052L97.485 108.172C97.6476 108.429 97.8183 108.656 97.9973 108.854C98.1801 109.049 98.372 109.204 98.5731 109.318C98.7756 109.426 98.9818 109.481 99.1919 109.482C99.4033 109.477 99.6182 109.405 99.8365 109.267C100.12 109.087 100.314 108.876 100.417 108.634C100.519 108.387 100.546 108.12 100.498 107.834C100.455 107.545 100.347 107.248 100.176 106.943L99.6993 106.19C99.535 105.956 99.3635 105.762 99.1848 105.607C99.0074 105.445 98.8215 105.33 98.6269 105.26C98.4362 105.187 98.2381 105.163 98.0325 105.185C97.8308 105.206 97.6246 105.283 97.4139 105.416C97.1994 105.552 97.0471 105.718 96.957 105.915C96.8644 106.108 96.8236 106.318 96.8346 106.548C96.8494 106.774 96.9066 107.017 97.0061 107.276C97.1071 107.529 97.2413 107.787 97.4086 108.052Z" fill="#5BADCC"/>
<path d="M70.9517 35.6622L71.4538 38.1879L73.823 39.2082L71.5738 40.4716L71.3381 43.0399L69.4433 41.2918L66.923 41.8568L68.0031 39.5148L66.6869 37.2961L69.2488 37.5971L70.9517 35.6622Z" fill="#5BADCC"/>
<path d="M58.8743 41.6015L59.3764 44.1272L61.7508 45.1489L59.4964 46.4109L59.2607 48.9791L57.3659 47.2311L54.8456 47.7961L55.9257 45.4541L54.6095 43.2354L57.1715 43.5364L58.8743 41.6015Z" fill="#5BADCC"/>
<path d="M102.744 44.1809L101.046 46.1172L98.4841 45.8162L99.8004 48.0349L98.7203 50.3769L101.235 49.8105L103.135 51.5599L103.371 48.9917L105.62 47.7283L103.251 46.708L102.744 44.1809Z" fill="#5BADCC"/>
<path d="M110.235 55.3633L108.537 57.2996L105.97 56.9972L107.291 59.2173L106.211 61.5593L108.726 60.9929L110.626 62.7423L110.862 60.174L113.111 58.9107L110.742 57.8904L110.235 55.3633Z" fill="#5BADCC"/>
<path d="M141.561 75.5544L21.8505 43.4779C20.2136 43.0393 18.6098 44.2353 18.5814 45.9147L18.3867 58.2791L12.3731 69.0844C11.5596 70.5473 12.3489 72.3907 13.9858 72.8293L133.697 104.906C135.334 105.344 136.937 104.148 136.966 102.469L137.161 90.1045L143.174 79.2992C143.988 77.8363 143.198 75.993 141.561 75.5544Z" fill="#5BADCC"/>
<path d="M32.9144 67.1167L32.3723 69.1399L27.3144 67.7846L27.8565 65.7615L32.9144 67.1167ZM31.3284 55.8138L28.0668 67.9863L25.6173 67.3299L28.8789 55.1575L31.3284 55.8138ZM43.6949 64.6381L43.1505 66.6696C42.9205 67.5279 42.613 68.252 42.228 68.8417C41.8501 69.4274 41.4106 69.8861 40.9095 70.2178C40.4155 70.5454 39.8691 70.7454 39.2702 70.8179C38.6769 70.8919 38.0542 70.8416 37.4021 70.6669C36.75 70.4921 36.1828 70.2236 35.7004 69.8614C35.2236 69.5007 34.8476 69.0535 34.5725 68.5198C34.3044 67.982 34.1503 67.3643 34.1103 66.6666C34.0717 65.9633 34.1674 65.1825 34.3974 64.3242L34.9418 62.2927C35.1777 61.4121 35.4869 60.6706 35.8694 60.0682C36.2533 59.4602 36.6993 58.9883 37.2074 58.6525C37.7171 58.3112 38.2693 58.1008 38.864 58.0212C39.4603 57.936 40.0845 57.9808 40.7366 58.1556C41.3887 58.3303 41.9517 58.6036 42.4255 58.9755C42.9008 59.3418 43.2738 59.8001 43.5445 60.3505C43.8166 60.8954 43.967 61.5271 43.9955 62.2455C44.031 62.96 43.9308 63.7575 43.6949 64.6381ZM40.7177 66.0177L41.2665 63.9695C41.4219 63.3899 41.5122 62.8854 41.5376 62.4561C41.5645 62.0213 41.5295 61.6505 41.4325 61.3438C41.3355 61.037 41.1836 60.7902 40.9768 60.6034C40.77 60.4165 40.5077 60.2806 40.19 60.1954C39.8723 60.1103 39.5745 60.0962 39.2964 60.1531C39.0239 60.2115 38.7689 60.3493 38.5315 60.5664C38.2997 60.7851 38.0867 61.0894 37.8926 61.4795C37.7056 61.8654 37.5344 62.3482 37.3791 62.9278L36.8302 64.9761C36.6809 65.5334 36.595 66.0212 36.5726 66.4393C36.5502 66.8574 36.5889 67.2143 36.6889 67.5099C36.7889 67.8055 36.9423 68.0467 37.1491 68.2335C37.363 68.4163 37.6288 68.5502 37.9465 68.6353C38.2586 68.719 38.5502 68.7344 38.8212 68.6815C39.0993 68.6246 39.3527 68.4924 39.5816 68.2849C39.8104 68.0774 40.0196 67.787 40.2093 67.4137C40.3989 67.0404 40.5684 66.5751 40.7177 66.0177ZM46.563 70.9889L51.2841 61.161L52.5716 61.5059L52.5261 63.2141L47.6045 73.2214L46.2084 72.8473L46.563 70.9889ZM48.6674 60.4598L47.4592 71.2559L46.71 72.9817L45.1717 72.5695L46.2513 59.8124L48.6674 60.4598ZM51.6003 72.3207L55.9324 62.4065L58.3401 63.0516L52.9133 74.6438L51.3666 74.2294L51.6003 72.3207ZM53.3157 61.7053L52.4914 72.6401L51.8599 74.3616L50.4637 73.9875L51.218 62.8457L52.0366 61.3626L53.3157 61.7053ZM63.9557 75.4342L63.4136 77.4574L58.1216 76.0394L58.6637 74.0163L63.9557 75.4342ZM62.144 64.0709L58.8824 76.2433L56.4329 75.5869L59.6945 63.4145L62.144 64.0709ZM64.6429 70.0271L64.1165 71.9917L59.5351 70.7642L60.0616 68.7995L64.6429 70.0271ZM66.6585 65.2805L66.1141 67.312L60.8389 65.8985L61.3832 63.867L66.6585 65.2805ZM70.851 76.0184C70.9093 75.8011 70.9428 75.598 70.9516 75.4092C70.9603 75.2204 70.9208 75.0335 70.8329 74.8487C70.7506 74.6654 70.6098 74.4664 70.4105 74.2517C70.2167 74.0385 69.952 73.8003 69.6163 73.5371C69.2156 73.2266 68.8319 72.9087 68.4651 72.5834C68.0997 72.2526 67.7851 71.8995 67.5213 71.5241C67.2575 71.1488 67.0768 70.742 66.9792 70.3036C66.8887 69.8612 66.9136 69.3781 67.054 68.8542C67.1914 68.3414 67.408 67.9007 67.7039 67.5319C68.0054 67.1647 68.3686 66.8797 68.7933 66.6769C69.2195 66.4685 69.6855 66.3455 70.1914 66.3078C70.7029 66.2716 71.2457 66.3304 71.8197 66.4843C72.6 66.6933 73.2311 67.0357 73.713 67.5112C74.2004 67.9883 74.5248 68.5501 74.686 69.1967C74.8529 69.8447 74.8385 70.5338 74.6429 71.2639L72.2017 70.6098C72.2943 70.2643 72.3255 69.9471 72.2954 69.6582C72.2723 69.3653 72.1751 69.1153 72.0036 68.908C71.8321 68.7008 71.5792 68.5524 71.2448 68.4628C70.9327 68.3791 70.6563 68.3738 70.4158 68.4467C70.1823 68.5156 69.9862 68.6453 69.8277 68.8357C69.6762 69.0221 69.5646 69.2491 69.4929 69.5166C69.4391 69.7173 69.438 69.9111 69.4894 70.0981C69.5479 70.2811 69.6464 70.4598 69.7848 70.6343C69.9247 70.8032 70.0961 70.9775 70.2988 71.1573C70.5071 71.3385 70.7384 71.523 70.9928 71.7106C71.4863 72.0758 71.9098 72.4461 72.2632 72.8216C72.6181 73.1915 72.8943 73.5761 73.0919 73.9755C73.2911 74.3694 73.4093 74.7864 73.4467 75.2265C73.4841 75.6666 73.4341 76.143 73.2967 76.6558C73.1608 77.163 72.9477 77.6017 72.6573 77.9719C72.374 78.3381 72.0249 78.6268 71.6098 78.8382C71.1962 79.044 70.7309 79.1642 70.2139 79.1989C69.7024 79.2351 69.1569 79.1755 68.5772 79.0202C68.0143 78.8694 67.5029 78.6487 67.0431 78.3582C66.5848 78.0622 66.2067 77.701 65.9088 77.2747C65.6179 76.8444 65.431 76.3492 65.348 75.7894C65.2665 75.224 65.3184 74.5957 65.5036 73.9046L67.9531 74.5609C67.8545 74.9288 67.8064 75.2534 67.8087 75.5347C67.8124 75.8105 67.8686 76.0466 67.9773 76.243C68.0875 76.4338 68.2408 76.5973 68.4372 76.7336C68.6407 76.8658 68.8846 76.97 69.1689 77.0461C69.4921 77.1328 69.7649 77.1402 69.9873 77.0683C70.2152 76.998 70.3986 76.8709 70.5375 76.6871C70.6763 76.5033 70.7809 76.2804 70.851 76.0184ZM82.2 69.4449L78.9385 81.6173L76.5057 80.9654L79.7672 68.793L82.2 69.4449ZM85.2264 70.2558L84.6821 72.2873L76.255 70.0293L76.7994 67.9978L85.2264 70.2558ZM92.1263 80.5542L89.6349 79.8867L90.1793 77.8552L92.6706 78.5227C93.0218 78.6168 93.3269 78.6149 93.5861 78.5171C93.8453 78.4193 94.0616 78.2473 94.2351 78.0011C94.4101 77.7493 94.5439 77.4506 94.6365 77.1051C94.7306 76.7539 94.7685 76.4117 94.7503 76.0782C94.7321 75.7448 94.639 75.457 94.4709 75.2149C94.3043 74.9671 94.0455 74.7962 93.6943 74.7021L91.9972 74.2474L89.28 84.3883L86.8305 83.7319L90.092 71.5595L94.2387 72.6706C95.058 72.8901 95.7139 73.2511 96.2066 73.7534C96.7048 74.2573 97.0313 74.8555 97.1862 75.5482C97.3426 76.2352 97.3163 76.9689 97.1072 77.7492C96.8966 78.535 96.5549 79.1752 96.0819 79.6697C95.6103 80.1587 95.0366 80.4828 94.3607 80.6422C93.6904 80.8031 92.9456 80.7738 92.1263 80.5542ZM99.8316 74.1692L103.736 75.2154C104.55 75.4334 105.206 75.7587 105.706 76.1912C106.205 76.6236 106.535 77.1541 106.695 77.7824C106.855 78.4107 106.828 79.1262 106.613 79.9288C106.436 80.5864 106.196 81.1255 105.893 81.5458C105.59 81.9606 105.233 82.28 104.82 82.504C104.409 82.7225 103.951 82.8624 103.445 82.9239L102.582 83.1676L99.4132 82.3186L99.9492 80.2849L102.148 80.874C102.482 80.9636 102.778 80.9651 103.034 80.8784C103.297 80.7877 103.518 80.6227 103.695 80.3836C103.88 80.1403 104.021 79.8376 104.118 79.4753C104.221 79.0907 104.259 78.7485 104.232 78.4485C104.211 78.1444 104.115 77.8916 103.942 77.6899C103.776 77.4842 103.526 77.3365 103.192 77.2469L101.737 76.8571L99.0196 86.998L96.5701 86.3416L99.8316 74.1692ZM102.096 87.8223L101.318 81.7985L103.887 82.4778L104.744 88.4065L104.713 88.5235L102.096 87.8223ZM111.845 77.3883L108.584 89.5607L106.151 88.9088L109.412 76.7364L111.845 77.3883ZM117.562 87.6206L119.995 88.2725C119.717 89.1776 119.326 89.9002 118.823 90.4404C118.321 90.9751 117.717 91.3211 117.012 91.4786C116.313 91.6376 115.528 91.6006 114.658 91.3676C113.984 91.1869 113.415 90.9149 112.951 90.5516C112.488 90.1827 112.132 89.7288 111.882 89.19C111.632 88.6511 111.499 88.033 111.483 87.3357C111.473 86.6343 111.582 85.8601 111.809 85.0129L112.363 82.9479C112.59 82.1008 112.888 81.3773 113.258 80.7775C113.633 80.1791 114.064 79.7091 114.55 79.3674C115.043 79.0215 115.581 78.8074 116.164 78.7248C116.755 78.6382 117.382 78.6837 118.045 78.8614C118.932 79.0989 119.628 79.4647 120.135 79.9589C120.641 80.4531 120.971 81.064 121.122 81.7915C121.281 82.515 121.27 83.3455 121.091 84.2831L118.641 83.6267C118.785 83.0441 118.843 82.5727 118.814 82.2125C118.792 81.8482 118.677 81.5663 118.467 81.3669C118.259 81.1618 117.938 81.0011 117.503 80.8846C117.18 80.798 116.886 80.7818 116.62 80.8361C116.356 80.8849 116.115 81.0145 115.898 81.225C115.68 81.4355 115.48 81.7344 115.299 82.1219C115.123 82.5108 114.957 82.9979 114.8 83.5831L114.242 85.6648C114.088 86.2388 113.988 86.7375 113.94 87.1608C113.894 87.5785 113.903 87.9335 113.968 88.2257C114.033 88.5179 114.164 88.7532 114.361 88.9315C114.564 89.1112 114.844 89.2489 115.201 89.3445C115.613 89.455 115.961 89.4825 116.245 89.4271C116.534 89.3732 116.782 89.2038 116.99 88.919C117.198 88.6342 117.389 88.2014 117.562 87.6206ZM127.961 92.5845L127.419 94.6076L122.127 93.1896L122.669 91.1665L127.961 92.5845ZM126.149 81.2211L122.888 93.3935L120.438 92.7371L123.7 80.5647L126.149 81.2211ZM128.648 87.1773L128.122 89.1419L123.541 87.9144L124.067 85.9497L128.648 87.1773ZM130.664 82.4307L130.12 84.4622L124.844 83.0487L125.389 81.0172L130.664 82.4307Z" fill="white"/>
</svg>
