<svg width="48" height="48" viewBox="0 0 48 48" fill="none" xmlns="http://www.w3.org/2000/svg">
<path d="M31.9643 3.78125H5.81571C5.17006 3.78125 4.64661 4.3047 4.64661 4.95036V40.0429C4.64661 40.6886 5.17006 41.2121 5.81571 41.2121H31.9643C32.61 41.2121 33.1334 40.6886 33.1334 40.0429V4.95036C33.1334 4.3047 32.61 3.78125 31.9643 3.78125Z" fill="#B1D1FF"/>
<path d="M24.3575 8.74707H25.3059L26.4615 11.9229L27.621 8.74707H28.5654L26.844 13.3893H26.0829L24.3575 8.74707ZM23.7917 8.74707H24.76L24.9433 12.3851V13.3893H23.7917V8.74707ZM28.1669 8.74707H29.1432V13.3893H27.9876V12.3851L28.1669 8.74707Z" fill="#074BAA"/>
<path d="M22.9151 8.74707V13.3893H21.7635V8.74707H22.9151Z" fill="#074BAA"/>
<path d="M18.9103 9.95445L17.6751 13.3893H16.5155L18.3485 8.74707H19.1375L18.9103 9.95445ZM20.1297 13.3893L18.8705 9.95445L18.6394 8.74707H19.4403L21.2852 13.3893H20.1297ZM20.1058 11.6639V12.4808H17.5396V11.6639H20.1058Z" fill="#074BAA"/>
<path d="M16.388 12.4927V13.3893H13.8617V12.4927H16.388ZM14.2682 8.74707V13.3893H13.1205V8.74707H14.2682Z" fill="#074BAA"/>
<path d="M11.3673 11.8058H12.5189C12.5003 12.1352 12.4059 12.4234 12.2359 12.6705C12.0659 12.9175 11.8308 13.1101 11.5306 13.2482C11.2304 13.3837 10.8771 13.4515 10.4707 13.4515C10.1386 13.4515 9.84243 13.3997 9.58209 13.2961C9.32441 13.1925 9.10525 13.0424 8.92461 12.8458C8.74397 12.6492 8.60583 12.4114 8.51019 12.1325C8.41722 11.8536 8.37073 11.5375 8.37073 11.1841V10.953C8.37073 10.5997 8.41987 10.2836 8.51816 10.0047C8.61645 9.72307 8.75725 9.48398 8.94055 9.2874C9.12384 9.09082 9.34301 8.94073 9.59803 8.83712C9.85305 8.73086 10.1386 8.67773 10.4548 8.67773C10.8851 8.67773 11.2477 8.75079 11.5426 8.8969C11.8401 9.043 12.0699 9.24357 12.2319 9.49859C12.3967 9.75096 12.4936 10.0392 12.5228 10.3633H11.3752C11.3673 10.2145 11.3327 10.0817 11.2716 9.96481C11.2105 9.84527 11.1136 9.75096 10.9807 9.68189C10.8506 9.61282 10.6752 9.57829 10.4548 9.57829C10.3007 9.57829 10.1652 9.60618 10.0483 9.66197C9.93142 9.71775 9.83313 9.80276 9.75344 9.91699C9.6764 10.0312 9.61795 10.1747 9.57811 10.3473C9.53826 10.5174 9.51834 10.7179 9.51834 10.949V11.1841C9.51834 11.4179 9.5356 11.6211 9.57014 11.7938C9.60733 11.9665 9.66444 12.1099 9.74148 12.2242C9.81852 12.3357 9.91681 12.4194 10.0364 12.4752C10.1586 12.531 10.3033 12.5589 10.4707 12.5589C10.662 12.5589 10.8227 12.5323 10.9528 12.4792C11.083 12.4234 11.1826 12.3397 11.2517 12.2281C11.3208 12.1166 11.3593 11.9758 11.3673 11.8058Z" fill="#074BAA"/>
<path d="M9.53984 22.0033H27.9741C28.6198 22.0033 29.1432 21.4798 29.1432 20.8341C29.1432 20.1885 28.6198 19.665 27.9741 19.665H9.53984C8.89418 19.665 8.37073 20.1885 8.37073 20.8341C8.37073 21.4798 8.8941 22.0033 9.53984 22.0033Z" fill="#559CFF"/>
<path d="M9.53984 28.2152H27.9741C28.6198 28.2152 29.1432 27.6917 29.1432 27.0461C29.1432 26.4004 28.6198 25.877 27.9741 25.877H9.53984C8.89418 25.877 8.37073 26.4004 8.37073 27.0461C8.37073 27.6917 8.8941 28.2152 9.53984 28.2152Z" fill="#559CFF"/>
<path d="M9.53984 34.4271H27.9741C28.6198 34.4271 29.1432 33.9036 29.1432 33.258C29.1432 32.6123 28.6198 32.0889 27.9741 32.0889H9.53984C8.89418 32.0889 8.37073 32.6123 8.37073 33.258C8.37073 33.9036 8.8941 34.4271 9.53984 34.4271Z" fill="#559CFF"/>
<path d="M43.3534 34.4267C43.3534 39.8261 38.9656 44.2188 33.5723 44.2188H33.561C28.1731 44.2126 23.7917 39.822 23.7917 34.4267C23.7917 29.0306 28.1731 24.6397 33.561 24.6338H33.5723C38.9656 24.6338 43.3534 29.0265 43.3534 34.4267Z" fill="#559CFF"/>
<path d="M38.459 34.0892C38.3372 34.1391 38.2108 34.1627 38.087 34.1627C37.6999 34.1627 37.3333 33.9327 37.1772 33.553L37.1419 33.4665L36.1872 35.1174C35.6637 36.0326 34.4902 36.3718 33.5607 35.8793C33.5549 35.8768 33.5482 35.8734 33.5423 35.8701L31.6714 34.8542L29.8964 38.0826C29.7176 38.408 29.3817 38.5919 29.0345 38.5919C28.8746 38.5919 28.7121 38.5528 28.5622 38.4702C28.0869 38.209 27.9132 37.6116 28.1746 37.136L29.9481 33.9086C30.4674 32.9636 31.6609 32.6131 32.6085 33.1278L33.5607 33.6446L34.4797 34.143L34.4848 34.1358L35.4437 32.4787L35.2636 32.5064C34.7266 32.5875 34.2269 32.218 34.1451 31.6818C34.0637 31.1453 34.4331 30.6449 34.9696 30.563L36.8618 30.277C37.4694 30.1847 38.0571 30.5173 38.2901 31.0865L38.9955 32.8075C39.2012 33.3092 38.9607 33.883 38.459 34.0892Z" fill="#EDF4FF"/>
</svg>
