<svg width="48" height="48" viewBox="0 0 48 48" fill="none" xmlns="http://www.w3.org/2000/svg">
<g clip-path="url(#clip0_674_1108)">
<path d="M31.1408 16.7471H10.0938C9.57413 16.7471 9.1528 17.1684 9.1528 17.6881V45.9341C9.1528 46.4538 9.57413 46.8751 10.0938 46.8751H31.1408C31.6605 46.8751 32.0818 46.4538 32.0818 45.9341V17.6881C32.0818 17.1684 31.6605 16.7471 31.1408 16.7471Z" fill="#B1D1FF"/>
<path d="M15.0914 22.4729H25.9291C26.4488 22.4729 26.8701 22.0515 26.8701 21.5318C26.8701 21.0121 26.4488 20.5908 25.9291 20.5908H15.0914C14.5717 20.5908 14.1504 21.0121 14.1504 21.5318C14.1504 22.0515 14.5716 22.4729 15.0914 22.4729Z" fill="#559CFF"/>
<path d="M21.3337 28.4117C21.3337 28.9314 21.755 29.3527 22.2747 29.3527H27.7176C28.2373 29.3527 28.6586 28.9314 28.6586 28.4117C28.6586 27.892 28.2373 27.4707 27.7176 27.4707H22.2747C21.755 27.4707 21.3337 27.892 21.3337 28.4117Z" fill="#074BAA"/>
<path d="M15.9172 25.8879L14.8061 26.999L14.6768 27.0315L14.2783 26.633C13.9108 26.2655 13.315 26.2656 12.9475 26.633C12.5801 27.0005 12.5801 27.5963 12.9475 27.9638L14.0598 29.076C14.2435 29.2598 14.4844 29.3517 14.7251 29.3517C14.9659 29.3517 15.2068 29.2598 15.3905 29.076L17.2479 27.2187C17.6154 26.8512 17.6154 26.2554 17.2479 25.8879C16.8805 25.5204 16.2847 25.5204 15.9172 25.8879Z" fill="#EDF4FF"/>
<path d="M27.7175 33.3135H22.2746C21.755 33.3135 21.3336 33.7348 21.3336 34.2545C21.3336 34.7742 21.755 35.1955 22.2746 35.1955H27.7175C28.2372 35.1955 28.6585 34.7742 28.6585 34.2545C28.6585 33.7348 28.2372 33.3135 27.7175 33.3135Z" fill="#074BAA"/>
<path d="M15.9172 31.7317L14.8061 32.8428L14.6768 32.8753L14.2783 32.4768C13.9108 32.1093 13.315 32.1094 12.9475 32.4768C12.5801 32.8443 12.5801 33.4401 12.9475 33.8076L14.0598 34.9198C14.2435 35.1036 14.4844 35.1955 14.7251 35.1955C14.9659 35.1955 15.2068 35.1036 15.3905 34.9198L17.2479 33.0625C17.6154 32.695 17.6154 32.0992 17.2479 31.7317C16.8805 31.3642 16.2847 31.3642 15.9172 31.7317Z" fill="#EDF4FF"/>
<path d="M27.7175 39.1562H22.2746C21.755 39.1562 21.3336 39.5776 21.3336 40.0973C21.3336 40.617 21.755 41.0383 22.2746 41.0383H27.7175C28.2372 41.0383 28.6585 40.617 28.6585 40.0973C28.6585 39.5776 28.2372 39.1562 27.7175 39.1562Z" fill="#074BAA"/>
<path d="M15.9173 37.5734L14.8061 38.6846L14.6768 38.717L14.2783 38.3186C13.9108 37.951 13.315 37.9512 12.9475 38.3186C12.5801 38.6861 12.5801 39.2819 12.9475 39.6494L14.0598 40.7616C14.2436 40.9453 14.4844 41.0372 14.7252 41.0372C14.966 41.0372 15.2069 40.9453 15.3905 40.7616L17.2479 38.9042C17.6154 38.5368 17.6154 37.9409 17.2479 37.5734C16.8806 37.206 16.2847 37.206 15.9173 37.5734Z" fill="#EDF4FF"/>
<path d="M26.405 0.982545C25.8687 0.834163 25.3137 1.14864 25.1653 1.68492L22.1293 12.6575C21.9809 13.1937 22.2954 13.7488 22.8317 13.8972C23.368 14.0456 23.923 13.7311 24.0714 13.1948L27.1074 2.22228C27.2558 1.686 26.9413 1.13093 26.405 0.982545Z" fill="#EBEBFF"/>
<path d="M25.8745 2.52457C17.6944 0.316775 9.2791 5.11912 7.01905 13.2874C6.78526 14.1323 7.67291 14.8543 8.45278 14.451C10.446 13.4206 12.9319 14.1082 14.112 16.0169C14.2505 16.2409 14.4636 16.3927 14.7006 16.4582C17.6595 5.80483 24.8841 2.87978 25.8745 2.52457Z" fill="#B1D1FF"/>
<path d="M26.067 2.57715C26.734 3.39095 31.4276 9.61361 28.4896 20.2727C28.7266 20.3383 28.9873 20.3177 29.2213 20.1967C31.2147 19.1663 33.7005 19.8542 34.8805 21.7626C35.3387 22.5035 36.4735 22.3509 36.7085 21.5014C38.9679 13.3357 34.2209 4.88876 26.067 2.57715Z" fill="#074BAA"/>
<path d="M26.0671 2.57797C26.035 2.56889 25.9067 2.53339 25.8746 2.5247C24.8841 2.87992 17.6595 5.80496 14.7006 16.4583C14.9373 16.5237 15.1979 16.503 15.4316 16.3822C17.4149 15.3572 19.8257 15.9957 21.0393 17.8673C21.3168 18.2952 21.8701 18.4483 22.328 18.2239C24.3312 17.2423 26.7274 17.9338 27.9016 19.8325C28.04 20.0563 28.2529 20.2079 28.4895 20.2735C31.4276 9.61441 26.7341 3.39177 26.0671 2.57797Z" fill="#559CFF"/>
<path d="M28.4898 20.2723C28.2528 20.2067 28.0404 20.0553 27.9016 19.8315C26.7277 17.933 24.3314 17.2414 22.3279 18.2231C22.0989 18.3354 21.8467 18.3527 21.6163 18.2889L25.9713 2.54883C26.0037 2.55778 26.0351 2.56786 26.0674 2.57681C26.7343 3.39066 31.4279 9.6131 28.4898 20.2723Z" fill="#2876E3"/>
</g>
<defs>
<clipPath id="clip0_674_1108">
<rect width="48" height="48" fill="white"/>
</clipPath>
</defs>
</svg>
