<svg width="24" height="24" viewBox="0 0 24 24" fill="none" xmlns="http://www.w3.org/2000/svg">
<path d="M12.5871 3.60001C14.9229 5.66658 17.9715 6.74257 21.0871 6.60001C21.5406 8.14302 21.6794 9.76147 21.4952 11.3592C21.3109 12.9569 20.8074 14.5013 20.0145 15.9005C19.2215 17.2998 18.1554 18.5254 16.8795 19.5045C15.6036 20.4836 14.1438 21.1962 12.5871 21.6C11.0303 21.1962 9.57053 20.4836 8.2946 19.5045C7.01866 18.5254 5.95256 17.2998 5.15965 15.9005C4.36673 14.5013 3.86319 12.9569 3.67893 11.3592C3.49467 9.76147 3.63346 8.14302 4.08705 6.60001C7.20258 6.74257 10.2512 5.66658 12.5871 3.60001Z" fill="url(#paint0_linear_1987_5005)"/>
<path d="M15.308 8.70237H10.4167C9.36749 8.70237 9.33081 10.1763 10.3083 10.2783L10.4167 10.2838H11.2319C11.5181 10.2838 11.7993 10.3569 12.0471 10.4957C12.295 10.6345 12.5008 10.8341 12.6439 11.0745H10.4167C10.2005 11.0745 9.99312 11.1578 9.84024 11.3061C9.68735 11.4544 9.60146 11.6555 9.60146 11.8652C9.60146 12.0749 9.68735 12.276 9.84024 12.4243C9.99312 12.5726 10.2005 12.6559 10.4167 12.6559L12.6439 12.6567C12.5007 12.897 12.2948 13.0964 12.047 13.2351C11.7991 13.3737 11.518 13.4467 11.2319 13.4466H10.4167C9.69114 13.4466 9.32673 14.2982 9.84032 14.7964L12.286 17.1685C12.4389 17.3167 12.6462 17.4 12.8624 17.4C13.0785 17.4 13.2858 17.3167 13.4387 17.1685L13.5064 17.0942C13.6281 16.942 13.6883 16.7521 13.6759 16.5599C13.6634 16.3677 13.5791 16.1866 13.4387 16.0504L12.2289 14.8762L12.3211 14.847C12.8241 14.6736 13.2758 14.3833 13.6365 14.0015C13.9971 13.6196 14.2559 13.1579 14.3901 12.6567L15.308 12.6559C15.5242 12.6559 15.7316 12.5726 15.8845 12.4243C16.0374 12.276 16.1233 12.0749 16.1233 11.8652C16.1233 11.6555 16.0374 11.4544 15.8845 11.3061C15.7316 11.1578 15.5242 11.0745 15.308 11.0745H14.3901C14.3276 10.8398 14.2373 10.613 14.1211 10.3984L14.0567 10.2838H15.308C15.5242 10.2838 15.7316 10.2005 15.8845 10.0522C16.0374 9.90391 16.1233 9.70279 16.1233 9.49308L16.1176 9.40056C16.0942 9.20822 15.9989 9.03089 15.8496 8.90219C15.7004 8.7735 15.5077 8.70239 15.308 8.70237Z" fill="white"/>
<defs>
<linearGradient id="paint0_linear_1987_5005" x1="12.5871" y1="3.60001" x2="12.5871" y2="21.6" gradientUnits="userSpaceOnUse">
<stop stop-color="#3DCB9C"/>
<stop offset="1" stop-color="#178862"/>
</linearGradient>
</defs>
</svg>
