<svg width="24" height="24" viewBox="0 0 24 24" fill="none" xmlns="http://www.w3.org/2000/svg">
<path d="M23.351 11.3449C24.6212 10.1555 23.9214 8.08225 22.1671 7.83637L17.5805 7.19366C16.8838 7.09618 16.282 6.67499 15.9707 6.06792L13.9214 2.07019C13.1376 0.541073 10.8708 0.540346 10.0856 2.06837L8.03247 6.06429C7.7208 6.67135 7.11825 7.09182 6.42152 7.18857L1.83454 7.82728C0.0802399 8.0717 -0.621405 10.1446 0.647608 11.3351L3.9652 14.4479C4.46902 14.9207 4.69862 15.6016 4.57947 16.2687L3.79385 20.6614C3.49353 22.3415 5.3265 23.6236 6.89622 22.8311L10.9998 20.7589C11.6232 20.4443 12.3675 20.4446 12.9905 20.7596L17.0922 22.8354C18.6608 23.6295 20.4953 22.3488 20.1965 20.6687L19.415 16.2756C19.2962 15.6082 19.5266 14.9276 20.0308 14.4555L23.3514 11.3456L23.351 11.3449Z" fill="#FFC400"/>
</svg>
