<svg width="40" height="41" viewBox="0 0 40 41" fill="none" xmlns="http://www.w3.org/2000/svg">
<path d="M35.2146 21.1825C34.9302 19.57 33.5329 18.4014 31.8955 18.4014C26.2474 18.4014 13.7685 18.4014 8.10481 18.4014C6.47089 18.4014 5.06942 19.5734 4.78571 21.1825L3.23434 29.9798C3.06123 30.9616 3.33172 31.9696 3.9729 32.7331C4.61408 33.4965 5.56055 33.9361 6.55751 33.9361C13.2835 33.9361 26.717 33.9361 33.4428 33.9361C34.439 33.9361 35.3839 33.495 36.0247 32.7322C36.6654 31.9694 36.939 30.961 36.7659 29.9798L35.2146 21.1825Z" fill="#B1D1FF"/>
<path d="M22.6602 20.6092H21.1825V18.7959C21.1825 18.1427 20.653 17.6133 20 17.6133C19.3468 17.6133 18.8174 18.1428 18.8174 18.7959V20.6092H17.4568C16.8036 20.6092 16.2742 21.1387 16.2742 21.7918C16.2742 22.4449 16.8037 22.9744 17.4568 22.9744H22.6602C23.3134 22.9744 23.8428 22.4449 23.8428 21.7918C23.8428 21.1387 23.3134 20.6092 22.6602 20.6092Z" fill="#559CFF"/>
<g opacity="0.5">
<path d="M20.7093 20.2578C13.0882 20.2578 6.80796 25.9948 5.9491 33.3856H11.2212C13.7951 31.2476 17.1018 29.9615 20.7093 29.9615C21.8765 29.9615 23.0117 30.0968 24.1012 30.3512C26.984 29.0289 29.8834 27.7423 32.7776 26.4459C30.0796 22.6984 25.6797 20.2578 20.7093 20.2578Z" fill="#EDF4FF"/>
</g>
<path d="M16.8149 32.8966L17.9409 34.9766L29.4517 28.7448L28.3256 26.6648L16.8149 32.8966Z" fill="#074BAA"/>
<path d="M21.8907 29.9613C21.3185 29.9613 20.8155 29.5453 20.7239 28.9623C20.6224 28.317 21.0632 27.7118 21.7085 27.6103L32.8565 25.8573C33.5018 25.7559 34.107 26.1966 34.2085 26.8419C34.3099 27.4871 33.8692 28.0924 33.2239 28.1938L22.0759 29.9469C22.0136 29.9566 21.9517 29.9613 21.8907 29.9613Z" fill="#074BAA"/>
<path d="M33.4428 35.1187H6.55752C5.20689 35.1187 3.9348 34.5264 3.06728 33.4936C2.19886 32.4597 1.83513 31.104 2.06969 29.7744L3.62106 20.9771C4.00511 18.7994 5.89082 17.2188 8.10481 17.2188H31.8955C34.1095 17.2188 35.9952 18.7994 36.3792 20.9771L37.9306 29.7744C38.1647 31.1019 37.8 32.4571 36.9303 33.4928C36.0623 34.5261 34.7912 35.1187 33.4428 35.1187ZM8.10481 19.5839C7.04078 19.5839 6.13466 20.3426 5.9503 21.3878L4.399 30.1851C4.28636 30.8241 4.46102 31.4755 4.87853 31.9724C5.29541 32.4688 5.90748 32.7535 6.55759 32.7535H33.4429C34.0908 32.7535 34.7018 32.4685 35.1192 31.9715C35.5379 31.473 35.7137 30.8219 35.6014 30.1851L34.05 21.3879C33.8656 20.3427 32.9595 19.5841 31.8955 19.5841L8.10481 19.5839Z" fill="#074BAA"/>
<path d="M10.68 22.4746C10.5919 22.4746 10.5039 22.4573 10.4211 22.4228C6.62835 20.8413 4.17773 17.1577 4.17773 13.0383V8.44966C4.17773 8.15912 4.36428 7.90141 4.64029 7.81065C6.068 7.34128 7.32539 6.4781 8.27651 5.31438C8.40427 5.15806 8.59543 5.06738 8.79732 5.06738H12.5625C12.7644 5.06738 12.9557 5.15806 13.0834 5.31438C14.0345 6.47827 15.2919 7.34159 16.7196 7.81109C16.9956 7.90186 17.1821 8.15957 17.1821 8.45011V13.0383C17.1821 17.1577 14.7315 20.8413 10.9388 22.4227C10.856 22.4573 10.768 22.4746 10.68 22.4746Z" fill="#559CFF"/>
<path d="M9.4415 17.089C9.23775 17.089 9.03399 17.0113 8.87858 16.8558L6.40169 14.3789C6.09077 14.068 6.09077 13.5639 6.40169 13.253C6.71256 12.9421 7.21667 12.9421 7.52759 13.253L9.44156 15.1669L13.8324 10.7762C14.1432 10.4652 14.6473 10.4652 14.9583 10.7762C15.2692 11.0871 15.2692 11.5911 14.9583 11.9021L10.0045 16.8558C9.84902 17.0113 9.64526 17.089 9.4415 17.089Z" fill="#EDF4FF"/>
</svg>
