<svg width="48" height="48" viewBox="0 0 48 48" fill="none" xmlns="http://www.w3.org/2000/svg">
<g clip-path="url(#clip0_16_149)">
<circle cx="12.75" cy="35.3437" r="12.655" fill="#DBEAFF"/>
<path d="M10.3253 31.2727V40H8.74435V32.8111H8.69321L6.65202 34.1151V32.6662L8.82105 31.2727H10.3253ZM12.5412 40V38.858L15.5711 35.8878C15.8608 35.5952 16.1023 35.3352 16.2955 35.108C16.4887 34.8807 16.6336 34.6605 16.7301 34.4474C16.8267 34.2344 16.875 34.0071 16.875 33.7656C16.875 33.4901 16.8125 33.2543 16.6875 33.0582C16.5625 32.8594 16.3907 32.706 16.1719 32.598C15.9532 32.4901 15.7046 32.4361 15.4262 32.4361C15.1392 32.4361 14.8878 32.4957 14.6719 32.6151C14.456 32.7315 14.2884 32.8977 14.1691 33.1136C14.0526 33.3295 13.9943 33.5866 13.9943 33.8849H12.4901C12.4901 33.331 12.6165 32.8494 12.8693 32.4403C13.1222 32.0312 13.4702 31.7145 13.9134 31.4901C14.3594 31.2656 14.8708 31.1534 15.4475 31.1534C16.0327 31.1534 16.5469 31.2628 16.9901 31.4815C17.4333 31.7003 17.777 32 18.0213 32.3807C18.2685 32.7614 18.3921 33.196 18.3921 33.6847C18.3921 34.0114 18.3296 34.3324 18.2046 34.6477C18.0796 34.9631 17.8594 35.3125 17.5441 35.696C17.2316 36.0795 16.7926 36.544 16.2273 37.0895L14.723 38.6193V38.679H18.5242V40H12.5412Z" fill="#006DB7"/>
<path d="M37.125 12.1875C36.3484 12.1875 35.7188 11.5579 35.7188 10.7812V0H15.5625C13.2363 0 11.3438 1.89253 11.3438 4.21875V19.9396C11.8071 19.8976 12.2759 19.875 12.75 19.875C17.5433 19.875 21.8341 22.0665 24.6737 25.5H39.9375C40.7141 25.5 41.3438 26.1296 41.3438 26.9062C41.3438 27.6829 40.7141 28.3125 39.9375 28.3125H26.5264C27.4054 30.0278 27.9722 31.928 28.1542 33.9375H39.9375C40.7141 33.9375 41.3438 34.5671 41.3438 35.3438C41.3438 36.1204 40.7141 36.75 39.9375 36.75H28.1542C27.7336 41.3943 25.2522 45.4524 21.6336 48H43.6875C46.0137 48 47.9062 46.1075 47.9062 43.7812V12.1875H37.125ZM39.9375 19.875H19.3125C18.5359 19.875 17.9062 19.2454 17.9062 18.4688C17.9062 17.6921 18.5359 17.0625 19.3125 17.0625H39.9375C40.7141 17.0625 41.3438 17.6921 41.3438 18.4688C41.3438 19.2454 40.7141 19.875 39.9375 19.875Z" fill="#006DB7"/>
<path d="M38.5312 0.823364V9.37496H47.0823L38.5312 0.823364Z" fill="#006DB7"/>
</g>
<defs>
<clipPath id="clip0_16_149">
<rect width="48" height="48" fill="white"/>
</clipPath>
</defs>
</svg>
