<svg width="48" height="48" viewBox="0 0 48 48" fill="none" xmlns="http://www.w3.org/2000/svg">
<g clip-path="url(#clip0_16_128)">
<circle cx="12.75" cy="35.3437" r="12.655" fill="#DBEAFF"/>
<path d="M12.8054 31.1534C13.223 31.1562 13.6293 31.2301 14.0241 31.375C14.4219 31.517 14.7798 31.75 15.098 32.0739C15.4162 32.3949 15.669 32.8253 15.8565 33.3651C16.044 33.9048 16.1378 34.5724 16.1378 35.3679C16.1406 36.1179 16.0611 36.7884 15.8991 37.3793C15.7401 37.9673 15.5114 38.4645 15.2131 38.8707C14.9148 39.277 14.5554 39.5866 14.1349 39.7997C13.7145 40.0128 13.2415 40.1193 12.7159 40.1193C12.1648 40.1193 11.6761 40.0114 11.25 39.7955C10.8267 39.5795 10.4844 39.2841 10.223 38.9091C9.96165 38.5341 9.80114 38.1051 9.74148 37.6222H11.2969C11.3764 37.9687 11.5384 38.2443 11.7827 38.4489C12.0298 38.6506 12.3409 38.7514 12.7159 38.7514C13.321 38.7514 13.7869 38.4886 14.1136 37.9631C14.4403 37.4375 14.6037 36.7074 14.6037 35.7727H14.544C14.4048 36.0227 14.2244 36.2386 14.0028 36.4205C13.7813 36.5994 13.5298 36.7372 13.2486 36.8338C12.9702 36.9304 12.6747 36.9787 12.3622 36.9787C11.8509 36.9787 11.3906 36.8565 10.9815 36.6122C10.5753 36.3679 10.2528 36.0327 10.0142 35.6065C9.77841 35.1804 9.65909 34.6932 9.65625 34.1449C9.65625 33.5767 9.78693 33.0668 10.0483 32.6151C10.3125 32.1605 10.6804 31.8026 11.152 31.5412C11.6236 31.277 12.1747 31.1477 12.8054 31.1534ZM12.8097 32.4318C12.5028 32.4318 12.2259 32.5071 11.9787 32.6577C11.7344 32.8054 11.5412 33.0071 11.3991 33.2628C11.2599 33.5156 11.1903 33.7983 11.1903 34.1108C11.1932 34.4205 11.2628 34.7017 11.3991 34.9545C11.5384 35.2074 11.7273 35.4077 11.9659 35.5554C12.2074 35.7031 12.483 35.777 12.7926 35.777C13.0227 35.777 13.2372 35.733 13.4361 35.6449C13.6349 35.5568 13.8082 35.4347 13.956 35.2784C14.1065 35.1193 14.223 34.9389 14.3054 34.7372C14.3906 34.5355 14.4318 34.3224 14.429 34.098C14.429 33.7997 14.358 33.5241 14.2159 33.2713C14.0767 33.0185 13.8849 32.8153 13.6406 32.6619C13.3991 32.5085 13.1222 32.4318 12.8097 32.4318Z" fill="#006DB7"/>
<path d="M37.125 12.1875C36.3484 12.1875 35.7188 11.5579 35.7188 10.7812V0H15.5625C13.2363 0 11.3438 1.89253 11.3438 4.21875V19.9396C11.8071 19.8976 12.2759 19.875 12.75 19.875C17.5433 19.875 21.8341 22.0665 24.6737 25.5H39.9375C40.7141 25.5 41.3438 26.1296 41.3438 26.9062C41.3438 27.6829 40.7141 28.3125 39.9375 28.3125H26.5264C27.4054 30.0278 27.9722 31.928 28.1542 33.9375H39.9375C40.7141 33.9375 41.3438 34.5671 41.3438 35.3438C41.3438 36.1204 40.7141 36.75 39.9375 36.75H28.1542C27.7336 41.3943 25.2522 45.4524 21.6336 48H43.6875C46.0137 48 47.9062 46.1075 47.9062 43.7812V12.1875H37.125ZM39.9375 19.875H19.3125C18.5359 19.875 17.9062 19.2454 17.9062 18.4688C17.9062 17.6921 18.5359 17.0625 19.3125 17.0625H39.9375C40.7141 17.0625 41.3438 17.6921 41.3438 18.4688C41.3438 19.2454 40.7141 19.875 39.9375 19.875Z" fill="#006DB7"/>
<path d="M38.5312 0.823364V9.37496H47.0823L38.5312 0.823364Z" fill="#006DB7"/>
</g>
<defs>
<clipPath id="clip0_16_128">
<rect width="48" height="48" fill="white"/>
</clipPath>
</defs>
</svg>
