<svg width="48" height="48" viewBox="0 0 48 48" fill="none" xmlns="http://www.w3.org/2000/svg">
<g clip-path="url(#clip0_16_100)">
<circle cx="12.75" cy="35.3437" r="12.655" fill="#DBEAFF"/>
<path d="M12.8097 40.1193C12.2415 40.1193 11.733 40.0128 11.2841 39.7997C10.8353 39.5838 10.4787 39.2884 10.2145 38.9134C9.95316 38.5384 9.81395 38.1094 9.79691 37.6264H11.331C11.3594 37.9844 11.5142 38.277 11.7955 38.5043C12.0767 38.7287 12.4148 38.8409 12.8097 38.8409C13.1193 38.8409 13.3949 38.7699 13.6364 38.6278C13.8779 38.4858 14.0682 38.2884 14.2074 38.0355C14.3466 37.7827 14.4148 37.4943 14.412 37.1705C14.4148 36.8409 14.3452 36.5483 14.2032 36.2926C14.0611 36.0369 13.8665 35.8366 13.6193 35.6918C13.3722 35.544 13.0881 35.4702 12.7671 35.4702C12.5057 35.4673 12.2486 35.5156 11.9958 35.6151C11.7429 35.7145 11.5426 35.8452 11.3949 36.0071L9.96736 35.7727L10.4233 31.2727H15.4858V32.5938H11.7316L11.4801 34.9077H11.5313C11.6932 34.7173 11.9219 34.5597 12.2174 34.4347C12.5128 34.3068 12.8367 34.2429 13.189 34.2429C13.7174 34.2429 14.189 34.3679 14.6037 34.6179C15.0185 34.8651 15.3452 35.206 15.5838 35.6406C15.8225 36.0753 15.9418 36.5724 15.9418 37.1321C15.9418 37.7088 15.8083 38.223 15.5412 38.6747C15.277 39.1236 14.9091 39.4773 14.4375 39.7358C13.9688 39.9915 13.4262 40.1193 12.8097 40.1193Z" fill="#006DB7"/>
<path d="M37.125 12.1875C36.3484 12.1875 35.7188 11.5579 35.7188 10.7812V0H15.5625C13.2363 0 11.3438 1.89253 11.3438 4.21875V19.9396C11.8071 19.8976 12.2759 19.875 12.75 19.875C17.5433 19.875 21.8341 22.0665 24.6737 25.5H39.9375C40.7141 25.5 41.3438 26.1296 41.3438 26.9062C41.3438 27.6829 40.7141 28.3125 39.9375 28.3125H26.5264C27.4054 30.0278 27.9722 31.928 28.1542 33.9375H39.9375C40.7141 33.9375 41.3438 34.5671 41.3438 35.3438C41.3438 36.1204 40.7141 36.75 39.9375 36.75H28.1542C27.7336 41.3943 25.2522 45.4524 21.6336 48H43.6875C46.0137 48 47.9062 46.1075 47.9062 43.7812V12.1875H37.125ZM39.9375 19.875H19.3125C18.5359 19.875 17.9062 19.2454 17.9062 18.4688C17.9062 17.6921 18.5359 17.0625 19.3125 17.0625H39.9375C40.7141 17.0625 41.3438 17.6921 41.3438 18.4688C41.3438 19.2454 40.7141 19.875 39.9375 19.875Z" fill="#006DB7"/>
<path d="M38.5312 0.823364V9.37496H47.0823L38.5312 0.823364Z" fill="#006DB7"/>
</g>
<defs>
<clipPath id="clip0_16_100">
<rect width="48" height="48" fill="white"/>
</clipPath>
</defs>
</svg>
