<svg width="48" height="48" viewBox="0 0 48 48" fill="none" xmlns="http://www.w3.org/2000/svg">
<g clip-path="url(#clip0_16_121)">
<circle cx="12.75" cy="35.3437" r="12.655" fill="#DBEAFF"/>
<path d="M13.8778 40.1193C13.2443 40.1193 12.6818 40.0128 12.1903 39.7997C11.7017 39.5866 11.3182 39.2955 11.0398 38.9261C10.7642 38.554 10.6278 38.1321 10.6307 37.6605C10.6278 37.294 10.7074 36.9574 10.8693 36.6506C11.0313 36.3438 11.25 36.0881 11.5256 35.8835C11.804 35.6761 12.1136 35.544 12.4545 35.4872V35.4276C12.0057 35.3281 11.642 35.0994 11.3636 34.7415C11.0881 34.3807 10.9517 33.9645 10.9545 33.4929C10.9517 33.044 11.0767 32.6435 11.3295 32.2912C11.5824 31.9389 11.929 31.6619 12.3693 31.4602C12.8097 31.2557 13.3125 31.1534 13.8778 31.1534C14.4375 31.1534 14.9361 31.2557 15.3736 31.4602C15.8139 31.6619 16.1605 31.9389 16.4134 32.2912C16.669 32.6435 16.7969 33.044 16.7969 33.4929C16.7969 33.9645 16.6562 34.3807 16.375 34.7415C16.0966 35.0994 15.7372 35.3281 15.2969 35.4276V35.4872C15.6378 35.544 15.9446 35.6761 16.2173 35.8835C16.4929 36.0881 16.7116 36.3438 16.8736 36.6506C17.0384 36.9574 17.1207 37.294 17.1207 37.6605C17.1207 38.1321 16.9815 38.554 16.7031 38.9261C16.4247 39.2955 16.0412 39.5866 15.5526 39.7997C15.0668 40.0128 14.5085 40.1193 13.8778 40.1193ZM13.8778 38.9006C14.2045 38.9006 14.4886 38.8452 14.7301 38.7344C14.9716 38.6207 15.1591 38.4616 15.2926 38.2571C15.4261 38.0526 15.4943 37.8168 15.4972 37.5497C15.4943 37.2713 15.4219 37.0256 15.2798 36.8125C15.1406 36.5966 14.9489 36.4276 14.7045 36.3054C14.4631 36.1832 14.1875 36.1222 13.8778 36.1222C13.5653 36.1222 13.2869 36.1832 13.0426 36.3054C12.7983 36.4276 12.6051 36.5966 12.4631 36.8125C12.3239 37.0256 12.2557 37.2713 12.2585 37.5497C12.2557 37.8168 12.321 38.0526 12.4545 38.2571C12.5881 38.4588 12.7756 38.6165 13.017 38.7301C13.2614 38.8437 13.5483 38.9006 13.8778 38.9006ZM13.8778 34.9247C14.1449 34.9247 14.3807 34.8707 14.5852 34.7628C14.7926 34.6548 14.956 34.5043 15.0753 34.3111C15.1946 34.1179 15.2557 33.8949 15.2585 33.642C15.2557 33.392 15.196 33.1733 15.0795 32.9858C14.9631 32.7955 14.8011 32.6491 14.5938 32.5469C14.3864 32.4418 14.1477 32.3892 13.8778 32.3892C13.6023 32.3892 13.3594 32.4418 13.1491 32.5469C12.9418 32.6491 12.7798 32.7955 12.6634 32.9858C12.5497 33.1733 12.4943 33.392 12.4972 33.642C12.4943 33.8949 12.5511 34.1179 12.6676 34.3111C12.7869 34.5014 12.9503 34.652 13.1577 34.7628C13.3679 34.8707 13.608 34.9247 13.8778 34.9247Z" fill="#006DB7"/>
<path d="M37.125 12.1875C36.3484 12.1875 35.7188 11.5579 35.7188 10.7812V0H15.5625C13.2363 0 11.3438 1.89253 11.3438 4.21875V19.9396C11.8071 19.8976 12.2759 19.875 12.75 19.875C17.5433 19.875 21.8341 22.0665 24.6737 25.5H39.9375C40.7141 25.5 41.3438 26.1296 41.3438 26.9062C41.3438 27.6829 40.7141 28.3125 39.9375 28.3125H26.5264C27.4054 30.0278 27.9722 31.928 28.1542 33.9375H39.9375C40.7141 33.9375 41.3438 34.5671 41.3438 35.3438C41.3438 36.1204 40.7141 36.75 39.9375 36.75H28.1542C27.7336 41.3943 25.2522 45.4524 21.6336 48H43.6875C46.0137 48 47.9062 46.1075 47.9062 43.7812V12.1875H37.125ZM39.9375 19.875H19.3125C18.5359 19.875 17.9062 19.2454 17.9062 18.4688C17.9062 17.6921 18.5359 17.0625 19.3125 17.0625H39.9375C40.7141 17.0625 41.3438 17.6921 41.3438 18.4688C41.3438 19.2454 40.7141 19.875 39.9375 19.875Z" fill="#006DB7"/>
<path d="M38.5312 0.823364V9.37496H47.0823L38.5312 0.823364Z" fill="#006DB7"/>
</g>
<defs>
<clipPath id="clip0_16_121">
<rect width="48" height="48" fill="white"/>
</clipPath>
</defs>
</svg>
