<svg width="48" height="48" viewBox="0 0 48 48" fill="none" xmlns="http://www.w3.org/2000/svg">
<g clip-path="url(#clip0_16_107)">
<circle cx="12.75" cy="35.3437" r="12.655" fill="#DBEAFF"/>
<path d="M12.9716 40.1193C12.554 40.1165 12.1463 40.044 11.7486 39.902C11.3509 39.7571 10.9929 39.5227 10.6747 39.1989C10.3566 38.8722 10.1037 38.4389 9.91622 37.8991C9.72872 37.3565 9.63639 36.6847 9.63924 35.8835C9.63924 35.1364 9.71878 34.4702 9.87787 33.8849C10.037 33.2997 10.2657 32.8054 10.564 32.402C10.8622 31.9957 11.2216 31.6861 11.6421 31.473C12.0654 31.2599 12.5384 31.1534 13.0611 31.1534C13.6094 31.1534 14.0952 31.2614 14.5185 31.4773C14.9446 31.6932 15.2884 31.9886 15.5497 32.3636C15.8111 32.7358 15.973 33.1562 16.0355 33.625H14.4801C14.4006 33.2898 14.2372 33.0227 13.9901 32.8239C13.7458 32.6222 13.4361 32.5213 13.0611 32.5213C12.456 32.5213 11.9901 32.7841 11.6634 33.3097C11.3395 33.8352 11.1762 34.5568 11.1733 35.4744H11.233C11.3722 35.2244 11.5526 35.0099 11.7742 34.831C11.9958 34.652 12.2458 34.5142 12.5242 34.4176C12.8054 34.3182 13.1023 34.2685 13.4148 34.2685C13.9262 34.2685 14.385 34.3906 14.7912 34.6349C15.2003 34.8793 15.5242 35.2159 15.7628 35.6449C16.0015 36.071 16.1193 36.5597 16.1165 37.1108C16.1193 37.6847 15.9887 38.2003 15.7245 38.6577C15.4603 39.1122 15.0924 39.4702 14.6208 39.7315C14.1492 39.9929 13.5995 40.1222 12.9716 40.1193ZM12.9631 38.8409C13.2728 38.8409 13.5497 38.7656 13.7941 38.6151C14.0384 38.4645 14.2316 38.2614 14.3736 38.0057C14.5157 37.75 14.5853 37.4631 14.5824 37.1449C14.5853 36.8324 14.5171 36.5497 14.3779 36.2969C14.2415 36.044 14.0526 35.8437 13.8111 35.696C13.5696 35.5483 13.2941 35.4744 12.9844 35.4744C12.7543 35.4744 12.5398 35.5185 12.3409 35.6065C12.1421 35.6946 11.9688 35.8168 11.8211 35.973C11.6733 36.1264 11.5568 36.3054 11.4716 36.5099C11.3892 36.7116 11.3466 36.9276 11.3438 37.1577C11.3466 37.4616 11.4176 37.7415 11.5568 37.9972C11.6961 38.2528 11.8878 38.4574 12.1321 38.6108C12.3765 38.7642 12.6534 38.8409 12.9631 38.8409Z" fill="#006DB7"/>
<path d="M37.125 12.1875C36.3484 12.1875 35.7188 11.5579 35.7188 10.7812V0H15.5625C13.2363 0 11.3438 1.89253 11.3438 4.21875V19.9396C11.8071 19.8976 12.2759 19.875 12.75 19.875C17.5433 19.875 21.8341 22.0665 24.6737 25.5H39.9375C40.7141 25.5 41.3438 26.1296 41.3438 26.9062C41.3438 27.6829 40.7141 28.3125 39.9375 28.3125H26.5264C27.4054 30.0278 27.9722 31.928 28.1542 33.9375H39.9375C40.7141 33.9375 41.3438 34.5671 41.3438 35.3438C41.3438 36.1204 40.7141 36.75 39.9375 36.75H28.1542C27.7336 41.3943 25.2522 45.4524 21.6336 48H43.6875C46.0137 48 47.9062 46.1075 47.9062 43.7812V12.1875H37.125ZM39.9375 19.875H19.3125C18.5359 19.875 17.9062 19.2454 17.9062 18.4688C17.9062 17.6921 18.5359 17.0625 19.3125 17.0625H39.9375C40.7141 17.0625 41.3438 17.6921 41.3438 18.4688C41.3438 19.2454 40.7141 19.875 39.9375 19.875Z" fill="#006DB7"/>
<path d="M38.5312 0.823364V9.37496H47.0823L38.5312 0.823364Z" fill="#006DB7"/>
</g>
<defs>
<clipPath id="clip0_16_107">
<rect width="48" height="48" fill="white"/>
</clipPath>
</defs>
</svg>
