<svg width="48" height="48" viewBox="0 0 48 48" fill="none" xmlns="http://www.w3.org/2000/svg">
<g clip-path="url(#clip0_16_86)">
<circle cx="12.75" cy="35.3437" r="12.655" fill="#DBEAFF"/>
<path d="M12.9077 40.1193C12.294 40.1193 11.7486 40.0142 11.2713 39.804C10.7969 39.5937 10.4219 39.3011 10.1463 38.9261C9.87074 38.5511 9.72443 38.1179 9.70739 37.6264H11.3097C11.3239 37.8622 11.402 38.0682 11.544 38.2443C11.6861 38.4176 11.875 38.5526 12.1108 38.6491C12.3466 38.7457 12.6108 38.794 12.9034 38.794C13.2159 38.794 13.4929 38.7401 13.7344 38.6321C13.9759 38.5213 14.1648 38.3679 14.3011 38.1719C14.4375 37.9759 14.5043 37.75 14.5014 37.4943C14.5043 37.2301 14.4361 36.9972 14.2969 36.7955C14.1577 36.5937 13.956 36.4361 13.6918 36.3224C13.4304 36.2088 13.1151 36.152 12.7457 36.152H11.9744V34.9332H12.7457C13.0497 34.9332 13.3153 34.8807 13.5426 34.7756C13.7727 34.6705 13.9531 34.5227 14.0838 34.3324C14.2145 34.1392 14.2784 33.9162 14.2756 33.6634C14.2784 33.4162 14.223 33.2017 14.1094 33.0199C13.9986 32.8352 13.8409 32.6918 13.6364 32.5895C13.4347 32.4872 13.1974 32.4361 12.9247 32.4361C12.6577 32.4361 12.4105 32.4844 12.1832 32.581C11.956 32.6776 11.7727 32.8153 11.6335 32.9943C11.4943 33.1705 11.4205 33.3807 11.4119 33.625H9.89062C9.90199 33.1364 10.0426 32.7074 10.3125 32.3381C10.5852 31.9659 10.9489 31.6761 11.4034 31.4688C11.858 31.2585 12.3679 31.1534 12.9332 31.1534C13.5156 31.1534 14.0213 31.2628 14.4503 31.4815C14.8821 31.6974 15.2159 31.9886 15.4517 32.3551C15.6875 32.7216 15.8054 33.1264 15.8054 33.5696C15.8082 34.0611 15.6634 34.473 15.3707 34.8054C15.081 35.1378 14.7003 35.3551 14.2287 35.4574V35.5256C14.8423 35.6108 15.3125 35.8381 15.6392 36.2074C15.9688 36.5739 16.1321 37.0298 16.1293 37.5753C16.1293 38.0639 15.9901 38.5014 15.7116 38.8878C15.4361 39.2713 15.0554 39.5724 14.5696 39.7912C14.0866 40.0099 13.5327 40.1193 12.9077 40.1193Z" fill="#006DB7"/>
<path d="M37.125 12.1875C36.3484 12.1875 35.7188 11.5579 35.7188 10.7812V0H15.5625C13.2363 0 11.3438 1.89253 11.3438 4.21875V19.9396C11.8071 19.8976 12.2759 19.875 12.75 19.875C17.5433 19.875 21.8341 22.0665 24.6737 25.5H39.9375C40.7141 25.5 41.3438 26.1296 41.3438 26.9062C41.3438 27.6829 40.7141 28.3125 39.9375 28.3125H26.5264C27.4054 30.0278 27.9722 31.928 28.1542 33.9375H39.9375C40.7141 33.9375 41.3438 34.5671 41.3438 35.3438C41.3438 36.1204 40.7141 36.75 39.9375 36.75H28.1542C27.7336 41.3943 25.2522 45.4524 21.6336 48H43.6875C46.0137 48 47.9062 46.1075 47.9062 43.7812V12.1875H37.125ZM39.9375 19.875H19.3125C18.5359 19.875 17.9062 19.2454 17.9062 18.4688C17.9062 17.6921 18.5359 17.0625 19.3125 17.0625H39.9375C40.7141 17.0625 41.3438 17.6921 41.3438 18.4688C41.3438 19.2454 40.7141 19.875 39.9375 19.875Z" fill="#006DB7"/>
<path d="M38.5312 0.823364V9.37496H47.0823L38.5312 0.823364Z" fill="#006DB7"/>
</g>
<defs>
<clipPath id="clip0_16_86">
<rect width="48" height="48" fill="white"/>
</clipPath>
</defs>
</svg>
