<svg width="48" height="48" viewBox="0 0 48 48" fill="none" xmlns="http://www.w3.org/2000/svg">
<g clip-path="url(#clip0_16_135)">
<circle cx="12.75" cy="35.3437" r="12.655" fill="#DBEAFF"/>
<path d="M10.3253 31.2727V40H8.74432V32.8111H8.69318L6.65199 34.1151V32.6662L8.82102 31.2727H10.3253ZM15.767 40.1662C15.0653 40.1662 14.4631 39.9886 13.9602 39.6335C13.4602 39.2756 13.0753 38.7599 12.8054 38.0866C12.5384 37.4105 12.4048 36.5966 12.4048 35.6449C12.4077 34.6932 12.5426 33.8835 12.8097 33.2159C13.0795 32.5455 13.4645 32.0341 13.9645 31.6818C14.4673 31.3295 15.0682 31.1534 15.767 31.1534C16.4659 31.1534 17.0668 31.3295 17.5696 31.6818C18.0724 32.0341 18.4574 32.5455 18.7244 33.2159C18.9943 33.8864 19.1293 34.696 19.1293 35.6449C19.1293 36.5994 18.9943 37.4148 18.7244 38.0909C18.4574 38.7642 18.0724 39.2784 17.5696 39.6335C17.0696 39.9886 16.4688 40.1662 15.767 40.1662ZM15.767 38.8324C16.3125 38.8324 16.7429 38.5639 17.0582 38.027C17.3764 37.4872 17.5355 36.6932 17.5355 35.6449C17.5355 34.9517 17.4631 34.3693 17.3182 33.8977C17.1733 33.4261 16.9688 33.071 16.7045 32.8324C16.4403 32.5909 16.1278 32.4702 15.767 32.4702C15.2244 32.4702 14.7955 32.7401 14.4801 33.2798C14.1648 33.8168 14.0057 34.6051 14.0028 35.6449C14 36.3409 14.0696 36.9261 14.2116 37.4006C14.3565 37.875 14.5611 38.233 14.8253 38.4744C15.0895 38.7131 15.4034 38.8324 15.767 38.8324Z" fill="#006DB7"/>
<path d="M37.125 12.1875C36.3484 12.1875 35.7188 11.5579 35.7188 10.7812V0H15.5625C13.2363 0 11.3438 1.89253 11.3438 4.21875V19.9396C11.8071 19.8976 12.2759 19.875 12.75 19.875C17.5433 19.875 21.8341 22.0665 24.6737 25.5H39.9375C40.7141 25.5 41.3438 26.1296 41.3438 26.9062C41.3438 27.6829 40.7141 28.3125 39.9375 28.3125H26.5264C27.4054 30.0278 27.9722 31.928 28.1542 33.9375H39.9375C40.7141 33.9375 41.3438 34.5671 41.3438 35.3438C41.3438 36.1204 40.7141 36.75 39.9375 36.75H28.1542C27.7336 41.3943 25.2522 45.4524 21.6336 48H43.6875C46.0137 48 47.9062 46.1075 47.9062 43.7812V12.1875H37.125ZM39.9375 19.875H19.3125C18.5359 19.875 17.9062 19.2454 17.9062 18.4688C17.9062 17.6921 18.5359 17.0625 19.3125 17.0625H39.9375C40.7141 17.0625 41.3438 17.6921 41.3438 18.4688C41.3438 19.2454 40.7141 19.875 39.9375 19.875Z" fill="#006DB7"/>
<path d="M38.5312 0.823364V9.37496H47.0823L38.5312 0.823364Z" fill="#006DB7"/>
</g>
<defs>
<clipPath id="clip0_16_135">
<rect width="48" height="48" fill="white"/>
</clipPath>
</defs>
</svg>
