<svg xmlns="http://www.w3.org/2000/svg" xmlns:xlink="http://www.w3.org/1999/xlink" width="32" height="32" viewBox="0 0 32 32"><defs><style>.a,.c{fill:#00875a;}.a{opacity:0.574;}.b{clip-path:url(#a);}</style><clipPath id="a"><rect class="a" width="32" height="32" transform="translate(788 1372)"/></clipPath></defs><g class="b" transform="translate(-788 -1372)"><g transform="translate(788 1287)"><g transform="translate(0 91)"><path class="c" d="M27.313,96.625a.938.938,0,0,0-.937.938V98.5H24.5v-.937a.938.938,0,0,0-.937-.937H22.076l-1.6-1.6a.937.937,0,0,0-.663-.275h-.937V92.875h.938a.938.938,0,0,0,0-1.875h-9.5a.938.938,0,0,0,0,1.875h.938V94.75h-.937a.937.937,0,0,0-.663.275l-1.6,1.6H4.688a.938.938,0,0,0-.937.938v3.75H1.875v-3.75a.938.938,0,0,0-1.875,0v9.375a.938.938,0,0,0,1.875,0v-3.75H3.75v3.75a.938.938,0,0,0,.938.938H8.049l3.475,3.475a.937.937,0,0,0,.663.275h9.5a.938.938,0,0,0,.839-.518l1.616-3.232h2.233v.938a.938.938,0,0,0,.938.938A4.693,4.693,0,0,0,32,105.063v-3.75A4.693,4.693,0,0,0,27.313,96.625ZM7.5,106H5.625V98.5H7.5Zm5.625-13.125H17V94.75H13.125Zm9.5,13.841-1.517,3.034H12.576l-3.2-3.2v-8.6L10.7,96.625h8.723l1.6,1.6a.938.938,0,0,0,.663.275h.938Zm3.75-.716H24.5v-5.625h1.875Zm3.75-.937a2.817,2.817,0,0,1-1.875,2.652V98.661a2.817,2.817,0,0,1,1.875,2.652Z" transform="translate(0 -91)"/></g><g transform="translate(13.249 98.5)"><path class="c" d="M216.674,214.746h-2.233l1.2-2.393a.938.938,0,0,0-1.677-.839l-1.875,3.75a.938.938,0,0,0,.839,1.357h2.233l-1.2,2.393a.938.938,0,1,0,1.677.839l1.875-3.75A.938.938,0,0,0,216.674,214.746Z" transform="translate(-211.986 -210.996)"/></g></g></g></svg>