<svg width="48" height="49" viewBox="0 0 48 49" fill="none" xmlns="http://www.w3.org/2000/svg">
<path d="M22.0081 25.5078H10.5937C10.3037 25.5078 10.017 25.5222 9.73437 25.5504C9.21076 25.6024 8.36848 26.6932 8.36848 26.6932C8.36848 26.6932 7.49622 26.0752 7.15625 26.2238C4.12377 27.5494 2 30.573 2 34.0821V41.5959C2 42.3078 2.57716 42.885 3.28906 42.885H7.15625L16.3086 40.3958L25.4609 42.8849H29.3126C29.6545 42.8849 29.9824 42.749 30.224 42.5073C30.4658 42.2655 30.6016 41.9377 30.6016 41.5958V34.0821C30.6016 30.5789 28.4851 27.5597 25.4608 26.2305C25.0384 26.0449 24 26.9235 24 26.9235C24 26.9235 23.3626 25.6044 22.9585 25.5599C22.6464 25.5254 22.3292 25.5078 22.0081 25.5078Z" fill="#B1D1FF"/>
<path d="M25.4609 34.2904C25.4609 34.286 25.4609 34.2816 25.4608 34.2771V26.2299C24.6579 25.8771 23.791 25.6433 22.8827 25.5513V33.0014H9.73437V25.5498C8.82627 25.6401 7.95942 25.8721 7.15625 26.2232V42.8843H25.4609V34.2904Z" fill="#559CFF"/>
<path fill-rule="evenodd" clip-rule="evenodd" d="M42.9219 22.0439C42.9219 21.5883 43.4534 21.3467 43.8021 21.6398C45.1459 22.7691 46 24.4622 46 26.3548C46 28.6335 44.762 30.6228 42.9219 31.6872V41.585C42.9219 42.2969 42.3448 42.8741 41.6329 42.8741H38.0547C37.3428 42.8741 36.7656 42.2969 36.7656 41.585V31.6873C34.9255 30.6228 33.6875 28.6335 33.6875 26.3549C33.6875 24.4622 34.5416 22.7692 35.8854 21.6399C36.2342 21.3468 36.7656 21.5884 36.7656 22.0439V24.8639C36.7656 25.0896 36.8785 25.3003 37.0664 25.4253L39.5705 27.092C39.736 27.2022 39.9515 27.2022 40.117 27.092L42.6211 25.4253C42.809 25.3003 42.9219 25.0896 42.9219 24.8639V22.0439Z" fill="#074BAA"/>
<path d="M16.3086 11.2637L6.82715 13.4349V18.8566C6.82715 24.0601 11.0805 28.2935 16.3086 28.2935C21.5367 28.2935 25.79 24.0601 25.79 18.8566V13.4349L16.3086 11.2637Z" fill="#EDF4FF"/>
<path fill-rule="evenodd" clip-rule="evenodd" d="M6.82739 13.4346H25.7901L22.2596 17.828C22.0301 18.1138 21.6836 18.2799 21.3174 18.2799H11.2985C10.9322 18.2799 10.5857 18.1137 10.3561 17.8279L6.82739 13.4346Z" fill="#559CFF"/>
<path d="M20.1486 5.20801H12.4686C9.35307 5.20801 6.82745 7.73362 6.82745 10.8492V13.4385H25.7899V10.8492C25.7898 7.73371 23.2642 5.20801 20.1486 5.20801Z" fill="#074BAA"/>
</svg>
