<svg xmlns="http://www.w3.org/2000/svg" xmlns:xlink="http://www.w3.org/1999/xlink" width="32" height="32" viewBox="0 0 32 32"><defs><style>.a,.c{fill:#00a3bf;stroke:#00a3bf;}.b{clip-path:url(#a);}.c{stroke-width:0.4px;}</style><clipPath id="a"><rect class="a" width="32" height="32" transform="translate(-377 1551)"/></clipPath></defs><g class="b" transform="translate(377 -1551)"><g transform="translate(-379.197 1532.971)"><g transform="translate(3.197 22.024)"><g transform="translate(0 0)"><path class="c" d="M72.34,61.231,66.69,55.582a.555.555,0,0,0-.785,0l-4.054,4.05L58.139,55.92a5.007,5.007,0,0,0,4.267-4.946v-.095a1.667,1.667,0,0,0-3.333,0,1.764,1.764,0,0,1-1.762,1.762,8.374,8.374,0,0,0-2.86.509,3.333,3.333,0,1,0-3.374,2.258l-.17.174a6.055,6.055,0,0,0,0,8.563l.211.211A1.733,1.733,0,0,0,53.566,61.9l-.211-.211A2.592,2.592,0,0,1,53,58.469l7.726,7.723H56.3a.556.556,0,1,0,0,1.111H61.84l.567.567v4.988a2.219,2.219,0,0,0,.3,1.111H59.073a.556.556,0,0,0,0,1.111h5.555a2.222,2.222,0,0,0,2.222-2.222V65.97a.555.555,0,0,0-.163-.393L64.3,63.192,66.295,61.2l3.038,3.035a2.127,2.127,0,1,0,3.007-3.007ZM49.074,52.085A2.222,2.222,0,1,1,51.3,54.307,2.222,2.222,0,0,1,49.074,52.085ZM71.546,63.453a1.009,1.009,0,0,1-1.427,0L66.69,60.026a.555.555,0,0,0-.785,0L63.128,62.8a.556.556,0,0,0,0,.785L65.739,66.2v6.655a1.111,1.111,0,0,1-2.222,0V67.636a.555.555,0,0,0-.163-.393l-10-10a.556.556,0,0,0-.785,0,3.7,3.7,0,0,0,0,5.23l.211.211a.623.623,0,0,1-.881.881l-.211-.211a4.944,4.944,0,0,1,0-6.992l.488-.488a7.213,7.213,0,0,1,5.134-2.127,2.876,2.876,0,0,0,2.873-2.87.556.556,0,0,1,1.111,0v.095a3.893,3.893,0,0,1-3.889,3.889.556.556,0,0,0-.556.556v.556a.555.555,0,0,0,.163.393l4.444,4.444a.556.556,0,0,0,.785,0l4.051-4.051,5.258,5.257A1.016,1.016,0,0,1,71.546,63.453Z" transform="translate(-47.96 -48.747)"/></g></g><g transform="translate(10.422 47.246)"><path class="c" d="M153.667,411.97h-1.111a.556.556,0,1,0,0,1.111h1.111a.556.556,0,0,0,0-1.111Z" transform="translate(-152 -411.97)"/></g><g transform="translate(7.644 39.468)"><g transform="translate(0 0)"><path class="c" d="M113.667,299.97h-1.111a.556.556,0,1,0,0,1.111h1.111a.556.556,0,0,0,0-1.111Z" transform="translate(-112 -299.97)"/></g></g><g transform="translate(24.309 20.03)"><g transform="translate(0 0)"><path class="c" d="M360.333,20.807a.554.554,0,0,0-.111.011h0a4.539,4.539,0,0,1-3.248-.566l-.244-.147-.047-.021-.049-.021a.552.552,0,0,0-.382,0l-.049.021-.047.021-.244.147a4.537,4.537,0,0,1-3.249.566.556.556,0,0,0-.667.544v5.594a4.37,4.37,0,0,0,.617,2.238,4.312,4.312,0,0,0,2.009,1.762l1.6.689a.552.552,0,0,0,.437,0l1.6-.689a4.312,4.312,0,0,0,2.009-1.762,4.37,4.37,0,0,0,.619-2.238V21.363A.556.556,0,0,0,360.333,20.807Zm-4.442,9.484-.824-.355a3.208,3.208,0,0,1-1.494-1.31,3.259,3.259,0,0,1-.459-1.667V22a5.632,5.632,0,0,0,2.777-.487Zm3.429-1.665a3.208,3.208,0,0,1-1.494,1.311l-.826.355V21.514a5.633,5.633,0,0,0,2.777.487l0,4.958A3.26,3.26,0,0,1,359.32,28.626Z" transform="translate(-352 -20.03)"/></g></g></g></g></svg>