<svg xmlns="http://www.w3.org/2000/svg" width="48" height="48" viewBox="0 0 48 48">
  <g id="Group_231822" data-name="Group 231822" transform="translate(-1445 -6502)">
    <rect id="Rectangle_7484" data-name="Rectangle 7484" width="48" height="48" rx="8" transform="translate(1445 6502)" fill="#ffebe6"/>
    <g id="Group_221499" data-name="Group 221499" transform="translate(381.861 5587.55)">
      <path id="Path_156364" data-name="Path 156364" d="M1087.139,922.45a16,16,0,1,0,16,16A16.018,16.018,0,0,0,1087.139,922.45Zm0,30.553a14.553,14.553,0,1,1,14.553-14.553A14.569,14.569,0,0,1,1087.139,953Z" transform="translate(0 0)" fill="#ff5630"/>
      <path id="Path_156365" data-name="Path 156365" d="M1094.9,935a11.212,11.212,0,1,0,11.212,11.212A11.225,11.225,0,0,0,1094.9,935Zm8.8,15.457-3.071-1.773a6.184,6.184,0,0,0,.469-1.749h3.545A9.7,9.7,0,0,1,1103.693,950.453Zm-9.518,1.949v3.545a9.684,9.684,0,0,1-3.522-.942l1.773-3.071A6.194,6.194,0,0,0,1094.175,952.4Zm1.444,0a6.194,6.194,0,0,0,1.749-.469l1.773,3.071a9.687,9.687,0,0,1-3.522.942Zm-.722-1.4a4.792,4.792,0,1,1,4.792-4.792A4.8,4.8,0,0,1,1094.9,951Zm-9.738-4.07h3.545a6.2,6.2,0,0,0,.469,1.749l-3.071,1.773A9.7,9.7,0,0,1,1085.159,946.93Zm.942-4.966,3.071,1.773a6.189,6.189,0,0,0-.469,1.749h-3.545A9.693,9.693,0,0,1,1086.1,941.964Zm9.518-1.949V936.47a9.7,9.7,0,0,1,3.522.942l-1.773,3.071A6.17,6.17,0,0,0,1095.619,940.015Zm-1.444,0a6.17,6.17,0,0,0-1.749.469l-1.773-3.071a9.7,9.7,0,0,1,3.522-.942Zm6.916,5.471a6.178,6.178,0,0,0-.469-1.749l3.071-1.773a9.693,9.693,0,0,1,.942,3.522Zm1.878-4.772-3.07,1.772a6.3,6.3,0,0,0-1.28-1.28l1.772-3.07A9.854,9.854,0,0,1,1102.969,940.714Zm-13.565-2.578,1.772,3.07a6.3,6.3,0,0,0-1.28,1.28l-3.07-1.772A9.845,9.845,0,0,1,1089.4,938.137Zm-2.578,13.565,3.07-1.772a6.284,6.284,0,0,0,1.28,1.28l-1.772,3.07A9.837,9.837,0,0,1,1086.826,951.7Zm13.565,2.577-1.772-3.07a6.29,6.29,0,0,0,1.28-1.28l3.07,1.772A9.846,9.846,0,0,1,1100.391,954.279Z" transform="translate(-7.758 -7.758)" fill="#ff5630"/>
      <path id="Path_156366" data-name="Path 156366" d="M1109.207,958.014a2.5,2.5,0,1,0,2.5,2.5A2.507,2.507,0,0,0,1109.207,958.014Zm0,3.555a1.05,1.05,0,1,1,1.05-1.05A1.052,1.052,0,0,1,1109.207,961.569Z" transform="translate(-22.068 -22.068)" fill="#ff5630"/>
    </g>
  </g>
</svg>
