<svg width="36" height="36" viewBox="0 0 36 36" fill="none" xmlns="http://www.w3.org/2000/svg">
<path fill-rule="evenodd" clip-rule="evenodd" d="M3.26885 6.45353C3.0203 6.20498 2.59856 6.36313 2.56817 6.71328C2.45114 8.06259 2.9089 9.45235 3.94148 10.4849C5.18468 11.7281 6.94551 12.1381 8.53018 11.7149L13.9303 17.115C14.3187 17.5034 14.9485 17.5034 15.3369 17.115L17.2891 15.1628C17.6775 14.7744 17.6775 14.1446 17.2891 13.7562L11.889 8.3561C12.3122 6.77138 11.9023 5.01059 10.6591 3.76739C9.62649 2.73476 8.23677 2.27706 6.88746 2.39409C6.53731 2.42447 6.37916 2.84621 6.62771 3.09476L8.16625 4.6333C8.28937 4.75642 8.34273 4.933 8.30846 5.10371L7.85155 7.37926C7.82135 7.52967 7.70381 7.64722 7.5534 7.67741L5.27785 8.13432C5.10713 8.1686 4.93056 8.11524 4.80743 7.99212L3.26885 6.45353Z" fill="url(#paint0_linear_1986_4375)"/>
<path d="M24.8123 18.5911C24.0118 16.6697 22.1343 15.418 20.0531 15.418H7.8926L5.71729 24.1193H27.1159L24.8123 18.5911Z" fill="#EDF4FF"/>
<path d="M27.116 24.1193L24.8124 18.5911C24.0119 16.6697 22.1343 15.418 20.0531 15.418H15.6271V24.1193H27.116Z" fill="white"/>
<path d="M28.969 22.1857H27.3577L25.7049 18.2193C24.7512 15.9303 22.5327 14.4512 20.0531 14.4512H7.13776L5.20415 22.1857H4.99222C2.85642 22.1857 1.125 23.9171 1.125 26.0529V30.8869C1.125 31.4209 1.55787 31.8537 2.09181 31.8537H33.1585C33.6924 31.8537 34.1253 31.4209 34.1253 30.8869V27.342C34.1253 24.4942 31.8168 22.1857 28.969 22.1857ZM20.0531 16.3848C21.7496 16.3848 23.2674 17.3968 23.92 18.963L25.2629 22.1857H16.5939V16.3848H20.0531ZM8.64752 16.3848H14.6603V22.1857H7.19731L8.64752 16.3848Z" fill="url(#paint1_linear_1986_4375)"/>
<path d="M8.53715 26.6973C6.22706 26.6973 4.34766 28.5767 4.34766 30.8868C4.34766 33.1968 6.22706 35.0763 8.53715 35.0763C10.8472 35.0763 12.7266 33.1968 12.7266 30.8868C12.7266 28.5767 10.8472 26.6973 8.53715 26.6973Z" fill="url(#paint2_linear_1986_4375)"/>
<path d="M26.7131 26.6973C24.403 26.6973 22.5236 28.5767 22.5236 30.8868C22.5236 33.1968 24.403 35.0763 26.7131 35.0763C29.0231 35.0763 30.9025 33.1968 30.9025 30.8868C30.9025 28.5767 29.0231 26.6973 26.7131 26.6973Z" fill="url(#paint3_linear_1986_4375)"/>
<path d="M8.53713 33.1426C9.78302 33.1426 10.793 32.1326 10.793 30.8867C10.793 29.6409 9.78302 28.6309 8.53713 28.6309C7.29124 28.6309 6.28125 29.6409 6.28125 30.8867C6.28125 32.1326 7.29124 33.1426 8.53713 33.1426Z" fill="white"/>
<path d="M26.7132 33.1426C27.959 33.1426 28.969 32.1326 28.969 30.8867C28.969 29.6409 27.959 28.6309 26.7132 28.6309C25.4673 28.6309 24.4573 29.6409 24.4573 30.8867C24.4573 32.1326 25.4673 33.1426 26.7132 33.1426Z" fill="white"/>
<defs>
<linearGradient id="paint0_linear_1986_4375" x1="4.65793" y1="4.48379" x2="16.313" y2="16.1389" gradientUnits="userSpaceOnUse">
<stop stop-color="#4C70A1"/>
<stop offset="1" stop-color="#143460"/>
</linearGradient>
<linearGradient id="paint1_linear_1986_4375" x1="17.6252" y1="14.4512" x2="17.6252" y2="31.8537" gradientUnits="userSpaceOnUse">
<stop stop-color="#C8DFFF"/>
<stop offset="1" stop-color="#88B3F0"/>
</linearGradient>
<linearGradient id="paint2_linear_1986_4375" x1="8.53715" y1="26.6973" x2="8.53715" y2="35.0763" gradientUnits="userSpaceOnUse">
<stop stop-color="#4C70A1"/>
<stop offset="1" stop-color="#143460"/>
</linearGradient>
<linearGradient id="paint3_linear_1986_4375" x1="26.7131" y1="26.6973" x2="26.7131" y2="35.0763" gradientUnits="userSpaceOnUse">
<stop stop-color="#4C70A1"/>
<stop offset="1" stop-color="#143460"/>
</linearGradient>
</defs>
</svg>
