<svg width="36" height="36" viewBox="0 0 36 36" fill="none" xmlns="http://www.w3.org/2000/svg">
<path d="M16.506 19.0958H7.94525C7.72778 19.0958 7.51277 19.1067 7.30078 19.1277C6.90807 19.1668 6.27636 19.9849 6.27636 19.9849C6.27636 19.9849 5.62216 19.5213 5.36719 19.6328C3.09283 20.627 1.5 22.8947 1.5 25.5266V31.1619C1.5 31.6958 1.93287 32.1287 2.4668 32.1287H5.36719L12.2314 30.2618L19.0957 32.1286H21.9844C22.2409 32.1286 22.4868 32.0267 22.668 31.8454C22.8493 31.6641 22.9512 31.4182 22.9512 31.1618V25.5265C22.9512 22.8991 21.3638 20.6347 19.0956 19.6379C18.7788 19.4987 18 20.1576 18 20.1576C18 20.1576 17.522 19.1683 17.2189 19.1349C16.9848 19.109 16.7469 19.0958 16.506 19.0958Z" fill="url(#paint0_linear_1986_4363)"/>
<path d="M19.0957 25.6828C19.0957 25.6794 19.0957 25.6761 19.0956 25.6728V19.6374C18.4935 19.3728 17.8432 19.1974 17.162 19.1284V24.7161H7.30078V19.1273C6.6197 19.1951 5.96957 19.369 5.36719 19.6324V32.1282H19.0957V25.6828Z" fill="url(#paint1_linear_1986_4363)"/>
<path fill-rule="evenodd" clip-rule="evenodd" d="M32.1914 16.4979C32.1914 16.1562 32.59 15.975 32.8516 16.1948C33.8594 17.0418 34.5 18.3116 34.5 19.7311C34.5 21.4401 33.5715 22.9321 32.1914 23.7304V31.1537C32.1914 31.6877 31.7586 32.1205 31.2246 32.1205H28.541C28.0071 32.1205 27.5742 31.6877 27.5742 31.1537V23.7305C26.1941 22.9321 25.2656 21.4401 25.2656 19.7311C25.2656 18.3116 25.9062 17.0418 26.9141 16.1949C27.1756 15.9751 27.5742 16.1563 27.5742 16.4979V18.6129C27.5742 18.7821 27.6589 18.9402 27.7998 19.034L29.6779 20.284C29.802 20.3666 29.9636 20.3666 30.0877 20.284L31.9658 19.034C32.1067 18.9402 32.1914 18.7821 32.1914 18.6129V16.4979Z" fill="url(#paint2_linear_1986_4363)"/>
<path d="M12.2315 8.41272L5.12036 10.0411V14.1074C5.12036 18.01 8.3104 21.1851 12.2315 21.1851C16.1525 21.1851 19.3425 18.01 19.3425 14.1074V10.0411L12.2315 8.41272Z" fill="url(#paint3_linear_1986_4363)"/>
<path fill-rule="evenodd" clip-rule="evenodd" d="M5.12048 10.0409H19.3425L16.6947 13.336C16.5225 13.5503 16.2626 13.6749 15.988 13.6749H8.47379C8.19909 13.6749 7.93921 13.5502 7.76699 13.3359L5.12048 10.0409Z" fill="url(#paint4_linear_1986_4363)"/>
<path d="M15.1115 3.87097H9.3515C7.01482 3.87097 5.12061 5.76518 5.12061 8.10187V10.0438H19.3424V8.10187C19.3424 5.76525 17.4482 3.87097 15.1115 3.87097Z" fill="url(#paint5_linear_1986_4363)"/>
<defs>
<linearGradient id="paint0_linear_1986_4363" x1="12.2256" y1="19.0958" x2="12.2256" y2="32.1287" gradientUnits="userSpaceOnUse">
<stop stop-color="#C8DFFF"/>
<stop offset="1" stop-color="#88B3F0"/>
</linearGradient>
<linearGradient id="paint1_linear_1986_4363" x1="12.2314" y1="19.1273" x2="12.2314" y2="32.1282" gradientUnits="userSpaceOnUse">
<stop stop-color="#4C70A1"/>
<stop offset="1" stop-color="#143460"/>
</linearGradient>
<linearGradient id="paint2_linear_1986_4363" x1="29.8828" y1="16.0988" x2="29.8828" y2="32.1205" gradientUnits="userSpaceOnUse">
<stop stop-color="#4C70A1"/>
<stop offset="1" stop-color="#143460"/>
</linearGradient>
<linearGradient id="paint3_linear_1986_4363" x1="12.3752" y1="13.5" x2="12.2314" y2="21.1851" gradientUnits="userSpaceOnUse">
<stop stop-color="#C8DFFF"/>
<stop offset="1" stop-color="#88B3F0"/>
</linearGradient>
<linearGradient id="paint4_linear_1986_4363" x1="12.2315" y1="10.0409" x2="12.2315" y2="13.6749" gradientUnits="userSpaceOnUse">
<stop stop-color="#4C70A1"/>
<stop offset="1" stop-color="#143460"/>
</linearGradient>
<linearGradient id="paint5_linear_1986_4363" x1="12.2315" y1="3.87097" x2="12.2315" y2="10.0438" gradientUnits="userSpaceOnUse">
<stop stop-color="#4C70A1"/>
<stop offset="1" stop-color="#143460"/>
</linearGradient>
</defs>
</svg>
