<svg width="36" height="36" viewBox="0 0 36 36" fill="none" xmlns="http://www.w3.org/2000/svg">
<path d="M17.2383 10.5318C14.9509 10.5318 13.2823 10.5318 13.2823 10.5318H7.11798C5.85109 10.5318 4.68214 11.2135 4.05826 12.3161L1.73218 16.4267H25.6929C25.6929 16.4268 22.5712 10.5318 17.2383 10.5318Z" fill="white"/>
<path d="M34.7526 19.7509L35.5877 18.6962C35.0177 17.5446 33.906 16.6929 32.5683 16.5041L26.3539 15.4678C25.9905 14.8777 25.2682 13.8101 24.2179 12.7404C22.1217 10.6056 19.7082 9.47711 17.2383 9.47711H7.11795C5.47404 9.47711 3.94987 10.3659 3.14023 11.7967L0.351422 16.7253C0.346922 16.7332 0.343547 16.7415 0.339258 16.7495C0.123539 17.1356 0 17.5799 0 18.0527V23.2461C0 23.8286 0.472219 24.3008 1.05469 24.3008H34.9453C35.5278 24.3008 36 23.8286 36 23.2461V20.8057L34.7526 19.7509ZM6.96867 15.3721H3.54073L4.97609 12.8355C5.38741 12.1086 6.1413 11.642 6.96867 11.5916V15.3721ZM14.0081 15.3721H9.07805V11.5865H14.0081V15.3721ZM16.1175 15.3721V11.5865H17.2383C20.2278 11.5865 22.4854 13.7966 23.7151 15.3721H16.1175Z" fill="url(#paint0_linear_1986_4303)"/>
<path d="M32.7134 19.7509C32.7134 20.3334 33.1857 20.8056 33.7681 20.8056H36V20.454C36 19.8276 35.8518 19.2298 35.5877 18.6962H33.7681C33.1857 18.6962 32.7134 19.1684 32.7134 19.7509Z" fill="#FFC74E"/>
<path d="M27.2424 25.4681C28.5716 25.4681 29.6491 24.4007 29.6491 23.084C29.6491 21.7673 28.5716 20.6998 27.2424 20.6998C25.9132 20.6998 24.8357 21.7673 24.8357 23.084C24.8357 24.4007 25.9132 25.4681 27.2424 25.4681Z" fill="white"/>
<path d="M27.2424 26.5228C25.3337 26.5228 23.781 24.9802 23.781 23.084C23.781 21.1878 25.3338 19.6451 27.2424 19.6451C29.1511 19.6451 30.7038 21.1878 30.7038 23.084C30.7038 24.9802 29.1511 26.5228 27.2424 26.5228ZM27.2424 21.7545C26.4968 21.7545 25.8904 22.3509 25.8904 23.084C25.8904 23.8171 26.4969 24.4135 27.2424 24.4135C27.9879 24.4135 28.5945 23.8171 28.5945 23.084C28.5945 22.3509 27.9879 21.7545 27.2424 21.7545Z" fill="url(#paint1_linear_1986_4303)"/>
<path d="M7.66948 25.4681C8.99868 25.4681 10.0762 24.4007 10.0762 23.084C10.0762 21.7673 8.99868 20.6998 7.66948 20.6998C6.34028 20.6998 5.26276 21.7673 5.26276 23.084C5.26276 24.4007 6.34028 25.4681 7.66948 25.4681Z" fill="white"/>
<path d="M7.66948 26.5228C5.76085 26.5228 4.20807 24.9802 4.20807 23.084C4.20807 21.1878 5.76085 19.6451 7.66948 19.6451C9.57812 19.6451 11.1309 21.1878 11.1309 23.084C11.1309 24.9802 9.57812 26.5228 7.66948 26.5228ZM7.66948 21.7545C6.92396 21.7545 6.31744 22.3509 6.31744 23.084C6.31744 23.8171 6.92396 24.4135 7.66948 24.4135C8.41501 24.4135 9.02152 23.8171 9.02152 23.084C9.02152 22.3509 8.41501 21.7545 7.66948 21.7545Z" fill="url(#paint2_linear_1986_4303)"/>
<defs>
<linearGradient id="paint0_linear_1986_4303" x1="13.3163" y1="9.43238" x2="14.9809" y2="23.8584" gradientUnits="userSpaceOnUse">
<stop stop-color="#ADC7EC"/>
<stop offset="1" stop-color="#5F8BCA"/>
</linearGradient>
<linearGradient id="paint1_linear_1986_4303" x1="27.2424" y1="19.6451" x2="27.2424" y2="26.5228" gradientUnits="userSpaceOnUse">
<stop stop-color="#4C70A1"/>
<stop offset="1" stop-color="#143460"/>
</linearGradient>
<linearGradient id="paint2_linear_1986_4303" x1="7.66948" y1="19.6451" x2="7.66948" y2="26.5228" gradientUnits="userSpaceOnUse">
<stop stop-color="#4C70A1"/>
<stop offset="1" stop-color="#143460"/>
</linearGradient>
</defs>
</svg>
