<svg width="328" height="179" viewBox="0 0 328 179" fill="none" xmlns="http://www.w3.org/2000/svg">
<g opacity="0.6" clip-path="url(#clip0_2152_1084)">
<path d="M284.308 69.1174H260.133V146.282H284.308V69.1174Z" fill="white" stroke="#C3E3F7"/>
<path d="M296.019 78.0932L284.303 69.1174V146.276H296.019V78.0932Z" fill="#C3E3F7" stroke="#C3E3F7"/>
<path d="M276.805 76.8546H264.452V79.3498H276.805V76.8546Z" fill="#C3E3F7"/>
<path d="M276.805 83.265H264.452V85.7602H276.805V83.265Z" fill="#C3E3F7"/>
<path d="M276.805 89.6812H264.452V92.1764H276.805V89.6812Z" fill="#C3E3F7"/>
<path d="M276.805 96.0624H264.452V98.5577H276.805V96.0624Z" fill="#C3E3F7"/>
<path d="M276.805 102.479H264.451V104.974H276.805V102.479Z" fill="#C3E3F7"/>
<path d="M276.805 108.889H264.451V111.384H276.805V108.889Z" fill="#C3E3F7"/>
<path d="M276.805 115.3H264.451V117.795H276.805V115.3Z" fill="#C3E3F7"/>
<path d="M276.805 121.64H264.452V124.135H276.805V121.64Z" fill="#293B6D"/>
<path d="M276.805 128.056H264.452V130.551H276.805V128.056Z" fill="#293B6D"/>
<path d="M276.805 134.466H264.452V136.962H276.805V134.466Z" fill="#293B6D"/>
<path d="M2.68885 90.5831L-8.25861 100.973V145.603H2.68885H13.6305V100.973L2.68885 90.5831Z" fill="white" stroke="#C3E3F7"/>
<path d="M37.4187 100.973H13.6311V145.598H37.4187V100.973Z" fill="#C3E3F7" stroke="#C3E3F7"/>
<path d="M26.4711 90.5831H2.68927L13.631 100.973H37.4185L26.4711 90.5831Z" fill="white" stroke="#C3E3F7"/>
<path d="M3.67864 97.4232H0.428345V106.052H3.67864V97.4232Z" fill="#C3E3F7"/>
<path d="M8.83843 113.117H5.04163V117.149H8.83843V113.117Z" fill="#C3E3F7"/>
<path d="M342.426 66.9665V55.7585L329.266 42.5983L316.106 55.7585V146.257H335.191H354.208V66.9665H342.426Z" fill="#C3E3F7" stroke="#C3E3F7"/>
<path d="M291.433 146.257H316.106V55.7585H291.433V146.257Z" fill="white" stroke="#C3E3F7"/>
<path d="M304.592 42.5983L291.432 55.7585H316.106L329.266 42.5983H304.592Z" fill="white" stroke="#C3E3F7"/>
<path d="M298.042 60.8888H295.7V63.2304H298.042V60.8888Z" fill="#C3E3F7"/>
<path d="M304.567 60.8888H302.225V63.2304H304.567V60.8888Z" fill="#C3E3F7"/>
<path d="M311.091 60.8888H308.75V63.2304H311.091V60.8888Z" fill="#C3E3F7"/>
<path d="M298.042 69.1173H295.701V71.4589H298.042V69.1173Z" fill="#C3E3F7"/>
<path d="M304.567 69.1173H302.225V71.4589H304.567V69.1173Z" fill="#C3E3F7"/>
<path d="M311.092 69.1173H308.75V71.4589H311.092V69.1173Z" fill="#C3E3F7"/>
<path d="M298.042 77.3458H295.701V79.6874H298.042V77.3458Z" fill="#C3E3F7"/>
<path d="M304.567 77.3458H302.225V79.6874H304.567V77.3458Z" fill="#C3E3F7"/>
<path d="M311.092 77.3458H308.75V79.6874H311.092V77.3458Z" fill="#C3E3F7"/>
<path d="M298.042 85.5743H295.701V87.9159H298.042V85.5743Z" fill="#C3E3F7"/>
<path d="M304.567 85.5743H302.225V87.9159H304.567V85.5743Z" fill="#C3E3F7"/>
<path d="M311.092 85.5743H308.75V87.9159H311.092V85.5743Z" fill="#C3E3F7"/>
<path d="M298.042 93.8026H295.701V96.1441H298.042V93.8026Z" fill="#C3E3F7"/>
<path d="M304.567 93.8026H302.225V96.1441H304.567V93.8026Z" fill="#C3E3F7"/>
<path d="M311.092 93.8026H308.75V96.1441H311.092V93.8026Z" fill="#C3E3F7"/>
<path d="M298.042 102.031H295.701V104.373H298.042V102.031Z" fill="#C3E3F7"/>
<path d="M304.567 102.031H302.225V104.373H304.567V102.031Z" fill="#C3E3F7"/>
<path d="M311.092 102.031H308.75V104.373H311.092V102.031Z" fill="#C3E3F7"/>
<path d="M298.042 110.26H295.701V112.601H298.042V110.26Z" fill="#C3E3F7"/>
<path d="M304.567 110.26H302.225V112.601H304.567V110.26Z" fill="#C3E3F7"/>
<path d="M311.092 110.26H308.75V112.601H311.092V110.26Z" fill="#C3E3F7"/>
<path d="M298.042 118.488H295.701V120.83H298.042V118.488Z" fill="#C3E3F7"/>
<path d="M304.567 118.488H302.225V120.83H304.567V118.488Z" fill="#C3E3F7"/>
<path d="M311.092 118.488H308.75V120.83H311.092V118.488Z" fill="#C3E3F7"/>
<path d="M298.042 126.717H295.701V129.058H298.042V126.717Z" fill="#C3E3F7"/>
<path d="M304.567 126.717H302.225V129.058H304.567V126.717Z" fill="#C3E3F7"/>
<path d="M311.092 126.717H308.75V129.058H311.092V126.717Z" fill="#C3E3F7"/>
<path d="M340.292 132.215H326.785C319.725 132.215 312.962 129.932 307.967 125.862L295.841 115.981C289.723 110.996 281.431 108.198 272.783 108.198H177.133C168.853 108.198 155.75 109.265 151.432 120.509C146.343 129.449 133.779 134.276 125.157 134.276H15.2611C11.7247 134.276 8.3302 135.422 5.8263 137.458L0.870127 141.501C-1.17558 143.163 -3.93762 144.099 -6.82872 144.099H-12.3463C-16.5733 144.099 -20 146.892 -20 150.336V152.324H163.516H359V147.454C359 139.035 350.624 132.209 340.292 132.209V132.215Z" fill="#B4D5E9"/>
<path d="M211.612 152.74H362L333.718 142.964C328.337 140.37 321.455 138.945 314.359 138.945H296.481C291.999 138.945 287.706 139.941 284.537 141.704L280.48 143.974C277.394 145.691 273.231 146.654 268.879 146.654H230.877C225.52 146.654 220.387 147.836 216.614 149.948L211.624 152.734L211.612 152.74Z" fill="#D6F4FF"/>
<path d="M242.669 83.4187L241.411 75.5983L240.152 83.4187C240.072 83.9196 240.136 84.4364 240.335 84.8948L241.408 87.3514L242.481 84.8948C242.683 84.4364 242.746 83.9196 242.664 83.4187H242.669Z" fill="#B4D5E9"/>
<path d="M237.33 88.0538L231.187 93.0518L238.588 90.2321C239.063 90.0519 239.479 89.7366 239.776 89.3337L241.366 87.1766L238.702 87.476C238.204 87.5317 237.725 87.7357 237.332 88.0564L237.33 88.0538Z" fill="#B4D5E9"/>
<path d="M244.013 90.3619L251.414 93.1816L245.271 88.1835C244.877 87.8629 244.397 87.6588 243.901 87.6032L241.238 87.3037L242.828 89.4609C243.125 89.8637 243.541 90.1791 244.015 90.3593L244.013 90.3619Z" fill="#B4D5E9"/>
<path d="M241.629 87.6934H240.974V124.598H241.629V87.6934Z" fill="#B4D5E9"/>
<path d="M242.355 87.3515C242.355 87.9346 241.883 88.4063 241.3 88.4063C240.717 88.4063 240.245 87.9346 240.245 87.3515C240.245 86.7685 240.717 86.2968 241.3 86.2968C241.883 86.2968 242.355 86.7685 242.355 87.3515Z" fill="#B4D5E9"/>
<path d="M265.696 130.681H264.674V150.295H265.696V130.681Z" fill="#D6F4FF"/>
<path d="M272.915 138.539L269.046 134.67H271.415C272.626 134.67 273.236 133.203 272.379 132.346L268.461 128.428H270.237C271.221 128.428 271.712 127.237 271.015 126.545L265.96 121.489C265.527 121.056 264.831 121.056 264.398 121.489L259.342 126.545C258.646 127.241 259.14 128.428 260.121 128.428H261.897L257.978 132.346C257.121 133.203 257.727 134.67 258.942 134.67H261.312L257.443 138.539C256.52 139.462 257.175 141.036 258.477 141.036H271.877C273.179 141.036 273.834 139.462 272.911 138.539H272.915Z" fill="#D6F4FF"/>
<path d="M13.8578 145.981H13.218V158.261H13.8578V145.981Z" fill="#D6F4FF"/>
<path d="M18.3779 150.901L15.9553 148.478H17.4388C18.1973 148.478 18.5791 147.56 18.0425 147.023L15.589 144.569H16.7009C17.3175 144.569 17.6246 143.824 17.1885 143.39L14.023 140.225C13.7521 139.954 13.3161 139.954 13.0452 140.225L9.87963 143.39C9.44363 143.826 9.75322 144.569 10.3672 144.569H11.4792L9.02568 147.023C8.48906 147.56 8.86831 148.478 9.62938 148.478H11.1128L8.69029 150.901C8.11239 151.478 8.5226 152.464 9.33785 152.464H17.7277C18.543 152.464 18.9532 151.478 18.3753 150.901H18.3779Z" fill="#D6F4FF"/>
</g>
<path d="M232.035 13.6827C232.655 13.8488 233.221 14.2202 233.773 14.7401C234.328 15.2617 234.844 15.9092 235.371 16.6019C235.89 17.2831 236.427 18.0149 236.993 18.65C237.561 19.2867 238.193 19.8639 238.928 20.227L238.929 20.2282C239.68 20.596 240.534 20.7516 241.394 20.819C242.252 20.8864 243.163 20.8684 244.021 20.8656C244.892 20.8628 245.716 20.8755 246.459 20.9924C247.201 21.1089 247.826 21.3236 248.316 21.6992C248.816 22.083 249.192 22.6373 249.5 23.3266C249.809 24.0182 250.035 24.8129 250.257 25.6556C250.475 26.4846 250.69 27.3674 250.972 28.1746C251.255 28.9838 251.62 29.7628 252.163 30.3853L252.164 30.3865C252.712 31.0123 253.438 31.4805 254.205 31.8706C254.97 32.2598 255.817 32.5916 256.61 32.9176C257.417 33.2489 258.174 33.5774 258.817 33.9728C259.458 34.3669 259.954 34.8091 260.265 35.3508L260.267 35.3522C260.581 35.8925 260.715 36.5443 260.736 37.2966C260.757 38.0513 260.663 38.8711 260.547 39.735C260.432 40.585 260.295 41.4847 260.249 42.3417C260.204 43.2009 260.246 44.0641 260.514 44.8521L260.515 44.8533C260.782 45.6351 261.274 46.3406 261.834 46.9902C262.392 47.6381 263.049 48.2658 263.658 48.869C264.276 49.4822 264.851 50.0759 265.295 50.6889C265.683 51.2236 265.955 51.7519 266.072 52.2943L266.113 52.5276C266.262 53.6762 265.687 54.912 264.885 56.3156C264.123 57.6509 263.151 59.1387 262.816 60.6138L262.815 60.6148C262.751 60.8787 262.713 61.129 262.695 61.3883L262.695 61.3902C262.642 62.2076 262.826 63.0428 263.093 63.8527C263.36 64.6605 263.726 65.491 264.056 66.2813C264.392 67.085 264.695 67.8566 264.869 68.598C265.043 69.3368 265.081 70.0133 264.915 70.6334C264.749 71.2534 264.378 71.8196 263.858 72.3721C263.336 72.9266 262.688 73.4432 261.996 73.971C261.315 74.49 260.583 75.0254 259.948 75.5919C259.311 76.1601 258.734 76.7922 258.371 77.528L258.37 77.5289C257.788 78.7144 257.729 80.1809 257.727 81.5612C257.724 82.9915 257.782 84.3356 257.528 85.4722C257.398 86.0443 257.202 86.5242 256.902 86.9099L256.899 86.9123C256.516 87.4123 255.961 87.7882 255.272 88.0958C254.581 88.4044 253.786 88.6314 252.944 88.8531C252.115 89.0712 251.232 89.2861 250.425 89.5683C249.616 89.8512 248.837 90.216 248.214 90.7593L248.213 90.76C247.587 91.3085 247.119 92.0349 246.728 92.8016C246.338 93.5664 246.005 94.4135 245.679 95.2068C245.347 96.013 245.018 96.7703 244.622 97.4139C244.229 98.0553 243.788 98.5529 243.248 98.8644L243.247 98.8642C242.707 99.1778 242.056 99.3124 241.304 99.3332C240.549 99.354 239.729 99.2601 238.865 99.1439C238.015 99.0296 237.115 98.8931 236.258 98.8477C235.399 98.8023 234.537 98.8448 233.749 99.1125L233.748 99.1132C232.966 99.3806 232.26 99.8729 231.611 100.432C230.963 100.99 230.335 101.647 229.732 102.256C229.119 102.875 228.525 103.45 227.912 103.895C227.377 104.283 226.849 104.554 226.306 104.672L226.073 104.712C225.462 104.792 224.814 104.667 224.114 104.397C223.413 104.126 222.694 103.724 221.94 103.285C221.199 102.854 220.419 102.383 219.642 102.012C218.862 101.641 218.044 101.349 217.208 101.292L217.207 101.293C216.388 101.24 215.553 101.424 214.742 101.691C213.934 101.958 213.104 102.324 212.314 102.654C211.51 102.99 210.74 103.293 209.999 103.468C209.261 103.641 208.584 103.68 207.964 103.514C207.345 103.348 206.778 102.976 206.225 102.456C205.67 101.934 205.154 101.287 204.626 100.594C204.107 99.913 203.57 99.181 203.004 98.5461C202.436 97.9095 201.805 97.3324 201.071 96.9695L201.07 96.9683C200.317 96.5987 199.463 96.4425 198.602 96.3746C197.743 96.3069 196.833 96.3248 195.975 96.3281C195.104 96.3314 194.281 96.32 193.538 96.2037C192.797 96.0878 192.173 95.8729 191.683 95.4974C191.183 95.1136 190.807 94.5593 190.499 93.87C190.191 93.1783 189.964 92.3837 189.742 91.541C189.524 90.712 189.309 89.8291 189.027 89.022C188.744 88.2127 188.379 87.4338 187.836 86.8112L187.835 86.81C187.287 86.1843 186.561 85.715 185.795 85.3241C185.03 84.9341 184.183 84.6028 183.389 84.2761C182.583 83.9442 181.827 83.615 181.183 83.22C180.542 82.8261 180.044 82.3851 179.733 81.8455L179.732 81.8444L179.623 81.6362C179.387 81.1393 179.281 80.5582 179.263 79.8999C179.243 79.1452 179.336 78.3254 179.453 77.4615C179.567 76.6116 179.704 75.7119 179.75 74.8549C179.795 73.9957 179.753 73.1325 179.485 72.3444L179.484 72.3432C179.217 71.5615 178.725 70.8559 178.165 70.2064C177.608 69.5585 176.95 68.9308 176.341 68.3275C175.723 67.7143 175.148 67.1207 174.704 66.5077C174.261 65.8966 173.969 65.294 173.886 64.669L173.886 64.6678L173.868 64.482C173.839 64.0464 173.913 63.5883 174.062 63.1066C174.409 61.9931 175.131 60.8577 175.844 59.6189C176.533 58.4234 177.215 57.1251 177.304 55.8073L177.304 55.8064L177.313 55.4983C177.31 54.7788 177.14 54.0502 176.907 53.341C176.64 52.533 176.274 51.7033 175.943 50.9134C175.608 50.1099 175.305 49.3387 175.13 48.5976C174.956 47.8593 174.918 47.1832 175.084 46.5632C175.25 45.9432 175.622 45.3765 176.142 44.8235C176.663 44.2687 177.311 43.7518 178.004 43.2237C178.685 42.7044 179.417 42.1681 180.052 41.6018C180.688 41.034 181.266 40.403 181.629 39.6686L181.629 39.6667C181.744 39.4328 181.836 39.1921 181.911 38.9364C182.358 37.4909 182.261 35.7165 182.269 34.1784C182.276 32.5622 182.396 31.2044 183.1 30.2843C183.484 29.7843 184.038 29.4084 184.727 29.1007C185.419 28.7921 186.213 28.5652 187.055 28.3435C187.884 28.1254 188.767 27.9105 189.574 27.6283C190.383 27.3454 191.162 26.9806 191.785 26.4372L191.786 26.4366C192.412 25.888 192.88 25.1616 193.27 24.3947C193.66 23.6298 193.99 22.782 194.316 21.9887C194.648 21.1825 194.976 20.4256 195.372 19.7824C195.766 19.1412 196.208 18.6439 196.75 18.3328L196.752 18.3324C197.292 18.0188 197.943 17.8842 198.696 17.8634C199.45 17.8425 200.27 17.9365 201.134 18.0527C201.984 18.167 202.884 18.3034 203.741 18.3488C204.6 18.3943 205.462 18.3517 206.25 18.084L206.252 18.0833C207.033 17.8159 207.739 17.3237 208.388 16.7643C209.036 16.2064 209.664 15.5493 210.267 14.9404C210.881 14.3214 211.474 13.7466 212.087 13.3019C212.698 12.8587 213.301 12.5667 213.926 12.4843L213.925 12.4831C214.537 12.4028 215.185 12.5302 215.885 12.7999C216.587 13.0704 217.306 13.471 218.059 13.9093C218.801 14.3407 219.581 14.8115 220.358 15.1824C221.137 15.5542 221.955 15.8464 222.79 15.9039L222.792 15.9035C223.61 15.9564 224.445 15.7721 225.255 15.5047C226.063 15.238 226.893 14.8722 227.684 14.5419C228.487 14.2061 229.258 13.9033 229.999 13.7288C230.738 13.5549 231.415 13.5166 232.035 13.6827Z" fill="white" stroke="#5BADCC"/>
<path d="M209.861 96.7162C230.908 102.356 252.542 89.8656 258.181 68.8186C263.821 47.7716 251.331 26.1379 230.284 20.4984C209.237 14.8588 187.603 27.3491 181.963 48.396C176.324 69.443 188.814 91.0767 209.861 96.7162Z" fill="#5BADCC"/>
<path d="M210.442 94.4157C190.715 89.1299 178.966 68.7809 184.252 49.0539C189.538 29.3269 209.886 17.583 229.613 22.8688C249.34 28.1546 261.088 48.5036 255.802 68.2306C250.516 87.9576 230.167 99.7061 210.44 94.4203L210.442 94.4157Z" fill="white"/>
<path d="M228.153 40.0772C228.081 40.3439 227.807 40.5022 227.54 40.4308L224.678 39.6636C224.53 39.6241 224.409 39.5192 224.348 39.3793L221.562 32.9489C221.518 32.8463 221.509 32.7318 221.537 32.6237L221.954 31.0329C221.988 30.9042 222.072 30.7941 222.187 30.7272C222.302 30.6604 222.439 30.6421 222.567 30.6765L224.619 31.2263C225.031 31.3365 225.349 31.3299 225.595 31.2512C225.728 31.2089 225.848 31.1509 225.957 31.0773L222.45 30.1375C222.301 30.0976 222.179 29.9915 222.119 29.8496C222.059 29.7076 222.068 29.5459 222.143 29.4113L223.08 27.7312L223.127 27.6609C223.249 27.5088 223.452 27.4397 223.645 27.4915L226.484 28.252C226.475 28.2421 226.467 28.2306 226.458 28.2208L226.452 28.2153C226.28 28.0313 225.991 27.8613 225.534 27.7388L223.265 27.1307C223.117 27.0912 222.996 26.9864 222.936 26.8464C222.875 26.7061 222.882 26.5451 222.954 26.4106L224.054 24.3658L224.101 24.2943C224.222 24.1389 224.428 24.0676 224.624 24.12L232.793 26.3091L232.899 26.3507C233 26.4041 233.079 26.4914 233.124 26.598C233.184 26.74 233.175 26.9018 233.1 27.0363L232.166 28.707C232.054 28.9067 231.822 29.0049 231.601 28.9457L230.509 28.6533C230.531 28.8761 230.538 29.1036 230.529 29.3358L231.867 29.6945C232.016 29.7343 232.138 29.84 232.199 29.9815C232.259 30.1229 232.251 30.2848 232.176 30.4193L231.248 32.1017C231.137 32.3029 230.903 32.4023 230.681 32.343L229.778 32.1009C229.645 32.3577 229.497 32.5974 229.332 32.8188C228.887 33.4184 228.314 33.8628 227.62 34.1454L227.617 34.1465C227.128 34.3413 226.579 34.4412 225.979 34.4608L228.165 39.6226C228.209 39.7251 228.217 39.8395 228.188 39.947L228.153 40.0772Z" stroke="#5BADCC" stroke-linejoin="round"/>
<path d="M215.601 75.017C206.546 72.5908 201.154 63.2508 203.58 54.1963C206.006 45.1418 215.345 39.7514 224.4 42.1776C233.454 44.6037 238.847 53.9437 236.421 62.9982C233.995 72.0527 224.655 77.4452 215.6 75.0191L215.601 75.017Z" fill="#5BADCC"/>
<path d="M194.219 73.4659L191.405 74.7655C191.221 74.7165 190.997 74.6127 190.735 74.454C190.475 74.2937 190.206 74.0571 189.928 73.7441C189.649 73.4311 189.39 73.0161 189.151 72.4993C188.94 72.0409 188.822 71.5887 188.797 71.1425C188.776 70.6949 188.848 70.2669 189.014 69.8587C189.182 69.4538 189.444 69.0806 189.799 68.7391C190.157 68.3961 190.609 68.0985 191.155 67.8462L191.599 67.6412C192.145 67.389 192.664 67.2344 193.154 67.1775C193.646 67.1238 194.099 67.161 194.513 67.2892C194.927 67.4173 195.295 67.6282 195.616 67.9217C195.937 68.2152 196.2 68.5846 196.406 69.0299C196.691 69.6476 196.825 70.2012 196.806 70.6909C196.791 71.1791 196.654 71.609 196.396 71.9807C196.143 72.3542 195.8 72.6704 195.367 72.9294L194.712 71.5105C194.936 71.3636 195.114 71.1985 195.246 71.0151C195.378 70.8318 195.451 70.6226 195.465 70.3875C195.48 70.1556 195.419 69.8918 195.283 69.596C195.17 69.3522 195.019 69.1577 194.83 69.0124C194.645 68.869 194.427 68.7765 194.175 68.7351C193.923 68.6936 193.64 68.7041 193.326 68.7665C193.012 68.8288 192.667 68.9464 192.294 69.1191L191.84 69.3285C191.47 69.4997 191.158 69.6871 190.905 69.8908C190.655 70.0929 190.465 70.3089 190.334 70.5388C190.209 70.7704 190.145 71.0128 190.144 71.2659C190.142 71.519 190.205 71.7837 190.333 72.06C190.44 72.2908 190.548 72.4736 190.657 72.6083C190.768 72.7463 190.873 72.8497 190.972 72.9185C191.076 72.9889 191.165 73.0382 191.242 73.0662L192.5 72.4851L191.882 71.149L192.926 70.667L194.219 73.4659ZM194.696 78.8456L198.189 76.1359L199.137 77.358L194.545 80.9205L193.653 79.7704L194.696 78.8456ZM195.744 78.2504L196.032 78.6046C195.726 78.8416 195.415 79.0268 195.097 79.1602C194.782 79.2915 194.473 79.361 194.171 79.3688C193.871 79.3744 193.585 79.3114 193.31 79.1798C193.039 79.046 192.79 78.8334 192.564 78.542C192.391 78.3185 192.261 78.0878 192.177 77.85C192.097 77.6128 192.072 77.3736 192.103 77.1324C192.138 76.8919 192.234 76.6501 192.389 76.4069C192.55 76.1643 192.783 75.9245 193.089 75.6874L196.055 73.386L197.003 74.6082L194.029 76.9162C193.893 77.0215 193.79 77.126 193.721 77.2295C193.654 77.3359 193.614 77.4419 193.601 77.5474C193.587 77.6529 193.599 77.7551 193.635 77.8541C193.673 77.9559 193.73 78.0563 193.807 78.1553C194.002 78.4071 194.207 78.5656 194.421 78.6309C194.637 78.699 194.856 78.6947 195.077 78.618C195.304 78.542 195.526 78.4194 195.744 78.2504ZM199.121 83.5067L200.809 81.5435C200.93 81.4023 201.011 81.2616 201.051 81.1215C201.094 80.9786 201.091 80.8367 201.042 80.6956C200.996 80.5569 200.897 80.4222 200.745 80.2915C200.615 80.1794 200.482 80.1056 200.347 80.0701C200.215 80.0319 200.087 80.0326 199.963 80.0725C199.841 80.1096 199.733 80.1838 199.637 80.2951L198.464 79.2868C198.625 79.0994 198.821 78.9589 199.053 78.8653C199.284 78.7716 199.538 78.7321 199.813 78.7469C200.091 78.7589 200.375 78.8263 200.666 78.9491C200.96 79.0742 201.25 79.2593 201.535 79.5043C201.877 79.7984 202.132 80.1169 202.3 80.4597C202.468 80.8025 202.53 81.1533 202.486 81.5121C202.445 81.8732 202.277 82.2249 201.983 82.567L200.362 84.4529C200.154 84.6945 199.999 84.9056 199.896 85.086C199.795 85.2638 199.724 85.4342 199.683 85.5972L199.624 85.6665L198.438 84.6476C198.484 84.4791 198.569 84.2925 198.693 84.0876C198.822 83.8823 198.965 83.6887 199.121 83.5067ZM200.729 81.9495L200.167 82.6204L199.511 82.0567C199.356 81.9236 199.207 81.8257 199.062 81.763C198.918 81.7003 198.781 81.67 198.652 81.6721C198.525 81.6716 198.407 81.6982 198.3 81.752C198.195 81.8082 198.099 81.8865 198.013 81.987C197.926 82.0875 197.871 82.1983 197.847 82.3194C197.826 82.4378 197.839 82.5575 197.886 82.6783C197.935 82.7965 198.019 82.9057 198.135 83.0061C198.312 83.1578 198.496 83.2544 198.687 83.2958C198.878 83.3373 199.053 83.3367 199.212 83.2942C199.374 83.2541 199.496 83.189 199.578 83.099L199.461 83.862C199.321 83.936 199.163 84.0001 198.984 84.0542C198.808 84.1106 198.617 84.1428 198.412 84.1507C198.209 84.1558 197.999 84.1235 197.78 84.0536C197.564 83.9811 197.346 83.8503 197.126 83.6612C196.846 83.4208 196.64 83.1469 196.508 82.8395C196.38 82.5317 196.335 82.2215 196.373 81.9089C196.415 81.596 196.546 81.3119 196.765 81.0566C196.964 80.8258 197.184 80.6581 197.425 80.5536C197.665 80.4491 197.923 80.4081 198.196 80.4306C198.474 80.4527 198.768 80.5423 199.077 80.6992C199.388 80.8535 199.712 81.0753 200.049 81.3648L200.729 81.9495ZM204.736 83.6777L202.395 87.5726L201.069 86.776L204.062 81.7944L205.31 82.5441L204.736 83.6777ZM206.909 83.4607L206.147 84.6761C206.088 84.6282 206.015 84.5735 205.926 84.512C205.843 84.4493 205.764 84.3958 205.69 84.3516C205.503 84.2391 205.326 84.1659 205.158 84.132C204.995 84.0969 204.84 84.0978 204.693 84.1345C204.549 84.1731 204.414 84.2446 204.288 84.3489C204.166 84.455 204.051 84.5907 203.944 84.7558L203.726 84.5125C203.92 84.1902 204.13 83.9134 204.357 83.682C204.586 83.4476 204.822 83.266 205.067 83.1371C205.314 83.0102 205.562 82.9459 205.809 82.9442C206.057 82.9425 206.297 83.0117 206.53 83.1519C206.604 83.1961 206.675 83.2474 206.745 83.3058C206.816 83.3611 206.871 83.4128 206.909 83.4607ZM208.559 89.0295L209.497 86.6163C209.564 86.4428 209.594 86.2832 209.585 86.1377C209.577 85.9888 209.527 85.856 209.434 85.7392C209.345 85.6237 209.206 85.5297 209.02 85.4571C208.859 85.3948 208.71 85.3694 208.571 85.3808C208.433 85.3888 208.313 85.4322 208.209 85.511C208.107 85.5865 208.029 85.6927 207.976 85.8296L206.534 85.2694C206.624 85.0391 206.762 84.8412 206.949 84.6758C207.136 84.5103 207.362 84.3887 207.627 84.311C207.893 84.2298 208.183 84.1987 208.499 84.2175C208.817 84.2376 209.152 84.3157 209.502 84.4518C209.923 84.6152 210.269 84.8305 210.542 85.0978C210.815 85.365 210.99 85.6752 211.068 86.0281C211.149 86.3824 211.108 86.7698 210.945 87.1904L210.044 89.5084C209.929 89.8055 209.853 90.0563 209.816 90.2608C209.78 90.462 209.77 90.6462 209.785 90.8137L209.752 90.8988L208.295 90.3328C208.282 90.1587 208.3 89.9544 208.349 89.7198C208.402 89.4832 208.473 89.2531 208.559 89.0295ZM209.557 87.0257L209.25 87.8456L208.444 87.5325C208.254 87.4586 208.08 87.4161 207.923 87.405C207.766 87.394 207.627 87.411 207.505 87.4561C207.386 87.4978 207.284 87.562 207.2 87.6486C207.12 87.7365 207.056 87.8423 207.008 87.9657C206.96 88.0892 206.945 88.2121 206.963 88.3343C206.982 88.4531 207.034 88.5616 207.118 88.6599C207.205 88.7548 207.319 88.8301 207.463 88.8858C207.68 88.9701 207.885 89 208.079 88.9754C208.273 88.9509 208.438 88.8921 208.574 88.7989C208.714 88.7071 208.807 88.6051 208.854 88.4929L208.998 89.2516C208.891 89.3677 208.762 89.481 208.612 89.5915C208.465 89.7034 208.296 89.7972 208.105 89.8729C207.916 89.9453 207.706 89.9849 207.477 89.9919C207.249 89.9955 207 89.9447 206.729 89.8397C206.385 89.7062 206.1 89.5165 205.873 89.2707C205.65 89.0229 205.504 88.7454 205.436 88.4383C205.371 88.129 205.4 87.8175 205.522 87.5038C205.632 87.2201 205.784 86.9888 205.976 86.81C206.168 86.6312 206.397 86.5069 206.662 86.4371C206.932 86.3653 207.239 86.3519 207.583 86.397C207.928 86.4388 208.307 86.5401 208.721 86.7009L209.557 87.0257ZM213.753 87.1949L212.982 91.7003L211.458 91.4394L212.438 85.7111L213.867 85.9557L213.753 87.1949ZM213.285 88.5969L212.872 88.5262C212.944 88.1027 213.064 87.7309 213.231 87.4108C213.399 87.0871 213.603 86.8222 213.841 86.6161C214.081 86.4063 214.347 86.2612 214.641 86.1806C214.938 86.0971 215.257 86.0844 215.595 86.1424C215.864 86.1883 216.102 86.269 216.311 86.3847C216.52 86.5004 216.69 86.6566 216.82 86.8532C216.953 87.0503 217.038 87.2956 217.075 87.5889C217.116 87.8828 217.102 88.231 217.033 88.6333L216.408 92.2863L214.873 92.0236L215.498 88.3654C215.542 88.1112 215.54 87.9076 215.494 87.7543C215.448 87.601 215.36 87.4844 215.232 87.4044C215.108 87.3214 214.948 87.2631 214.75 87.2292C214.545 87.1942 214.36 87.2043 214.195 87.2595C214.032 87.3153 213.89 87.4071 213.766 87.5349C213.647 87.6598 213.546 87.8133 213.464 87.9955C213.382 88.1776 213.322 88.3781 213.285 88.5969ZM221.242 86.6992L221.248 87.7949L217.864 87.8125L217.858 86.7168L221.242 86.6992ZM218.689 85.2784L220.235 85.2703L220.264 90.7649C220.265 90.9332 220.287 91.062 220.331 91.1513C220.378 91.2405 220.446 91.3028 220.536 91.3382C220.625 91.3699 220.738 91.3855 220.874 91.3848C220.971 91.3843 221.057 91.3802 221.132 91.3727C221.211 91.3615 221.277 91.3504 221.331 91.3394L221.342 92.478C221.21 92.5217 221.067 92.5565 220.913 92.5823C220.759 92.6082 220.589 92.6216 220.403 92.6226C220.063 92.6244 219.765 92.5704 219.51 92.4607C219.259 92.3475 219.065 92.1659 218.927 91.9159C218.79 91.666 218.72 91.3369 218.718 90.9287L218.689 85.2784ZM225.674 92.0469C225.229 92.1245 224.818 92.1235 224.441 92.044C224.063 91.961 223.728 91.814 223.437 91.6032C223.149 91.3917 222.911 91.1298 222.722 90.8175C222.532 90.5017 222.404 90.1533 222.338 89.7723L222.301 89.5607C222.225 89.1268 222.217 88.7192 222.278 88.3379C222.339 87.9565 222.46 87.6135 222.643 87.309C222.83 87.0038 223.077 86.7517 223.384 86.5527C223.69 86.3502 224.051 86.2126 224.468 86.1399C224.873 86.0691 225.245 86.0732 225.582 86.1525C225.919 86.2317 226.216 86.3763 226.47 86.5862C226.729 86.7956 226.943 87.0636 227.112 87.3901C227.281 87.7132 227.403 88.0846 227.476 88.5044L227.587 89.1393L223.036 89.9338L222.859 88.9179L225.912 88.3849L225.892 88.2685C225.855 88.0568 225.783 87.8749 225.676 87.7227C225.573 87.5663 225.436 87.4519 225.268 87.3797C225.099 87.3074 224.896 87.2919 224.66 87.3331C224.459 87.3682 224.293 87.4425 224.164 87.556C224.035 87.6694 223.938 87.8135 223.874 87.9882C223.814 88.1624 223.78 88.361 223.771 88.5842C223.766 88.8032 223.785 89.0397 223.83 89.2937L223.867 89.5053C223.907 89.7346 223.975 89.9407 224.073 90.1236C224.174 90.3059 224.296 90.4572 224.441 90.5773C224.589 90.6968 224.756 90.7803 224.943 90.8277C225.133 90.8746 225.339 90.8786 225.561 90.8398C225.836 90.7917 226.083 90.6941 226.3 90.5471C226.521 90.3958 226.699 90.1958 226.834 89.9469L227.715 90.6218C227.625 90.8156 227.49 91.01 227.309 91.2051C227.133 91.3995 226.908 91.5732 226.637 91.726C226.365 91.8752 226.044 91.9822 225.674 92.0469ZM232.224 90.2398C231.804 90.4042 231.401 90.4849 231.016 90.482C230.629 90.4758 230.271 90.3983 229.944 90.2495C229.62 90.0995 229.334 89.8902 229.087 89.6217C228.838 89.3498 228.644 89.0338 228.503 88.6737L228.425 88.4736C228.264 88.0635 228.176 87.6655 228.159 87.2797C228.143 86.8939 228.194 86.5336 228.313 86.1987C228.435 85.8625 228.627 85.5664 228.888 85.3103C229.148 85.051 229.475 84.8443 229.868 84.6904C230.252 84.5403 230.617 84.4706 230.963 84.4812C231.31 84.4918 231.628 84.5746 231.92 84.7298C232.215 84.8836 232.478 85.1037 232.709 85.39C232.939 85.6731 233.131 86.013 233.287 86.4098L233.521 87.01L229.22 88.6931L228.844 87.7327L231.73 86.6035L231.687 86.4935C231.609 86.2934 231.502 86.1293 231.368 86.0013C231.235 85.8686 231.079 85.7837 230.899 85.7464C230.719 85.7092 230.517 85.7342 230.294 85.8216C230.104 85.896 229.957 86.0016 229.852 86.1385C229.748 86.2753 229.682 86.4358 229.654 86.6197C229.63 86.8024 229.635 87.0039 229.672 87.2243C229.71 87.44 229.776 87.6679 229.87 87.908L229.948 88.1081C230.033 88.3249 230.141 88.5132 230.273 88.6731C230.408 88.8317 230.559 88.9555 230.724 89.0446C230.893 89.1323 231.074 89.1808 231.266 89.1903C231.461 89.1984 231.664 89.1614 231.874 89.0792C232.134 88.9774 232.356 88.8328 232.541 88.6453C232.727 88.4532 232.861 88.2219 232.944 87.9512L233.941 88.4375C233.892 88.6452 233.798 88.8626 233.66 89.0897C233.526 89.3154 233.34 89.5301 233.105 89.7338C232.868 89.9341 232.574 90.1028 232.224 90.2398ZM238.204 85.6237L234.469 79.7246L235.785 78.8913L240.199 85.8612L239.014 86.6112L238.204 85.6237ZM234.262 86.2642L234.201 86.1689C233.964 85.7938 233.79 85.4266 233.682 85.0674C233.571 84.7052 233.527 84.362 233.551 84.0377C233.574 83.7134 233.667 83.4151 233.83 83.1428C233.992 82.8704 234.226 82.6375 234.532 82.444C234.819 82.262 235.108 82.1635 235.4 82.1485C235.694 82.1316 235.988 82.1871 236.281 82.3152C236.575 82.4383 236.865 82.6215 237.15 82.8646C237.434 83.1047 237.71 83.3898 237.978 83.72L238.11 83.9287C238.284 84.2974 238.417 84.6581 238.509 85.011C238.601 85.3638 238.64 85.6995 238.626 86.018C238.613 86.3316 238.535 86.6179 238.394 86.8768C238.253 87.1358 238.037 87.3572 237.747 87.5411C237.441 87.7346 237.13 87.845 236.812 87.8723C236.498 87.8977 236.188 87.8502 235.883 87.7298C235.581 87.6074 235.291 87.4218 235.015 87.173C234.739 86.9241 234.488 86.6212 234.262 86.2642ZM235.508 85.3413L235.568 85.4366C235.697 85.6393 235.832 85.8188 235.973 85.9751C236.117 86.1295 236.269 86.2517 236.428 86.3419C236.588 86.4271 236.751 86.4702 236.916 86.4711C237.083 86.4671 237.253 86.4104 237.426 86.3012C237.649 86.1595 237.802 85.9927 237.884 85.8009C237.964 85.6061 237.986 85.3955 237.948 85.1691C237.914 84.9408 237.829 84.7064 237.694 84.4658L237.317 83.8714C237.188 83.6865 237.052 83.5328 236.911 83.4103C236.771 83.2829 236.624 83.1915 236.47 83.1362C236.32 83.079 236.163 83.0595 236.001 83.0775C235.841 83.0936 235.679 83.1544 235.512 83.2598C235.343 83.367 235.223 83.4983 235.151 83.6536C235.078 83.8059 235.046 83.9725 235.055 84.1535C235.066 84.3326 235.112 84.5244 235.19 84.7289C235.27 84.9284 235.376 85.1326 235.508 85.3413Z" fill="#5BADCC"/>
<path d="M214.612 28.1669L215.008 30.1618L216.88 30.9676L215.103 31.9655L214.917 33.9939L213.421 32.6133L211.43 33.0596L212.283 31.2098L211.244 29.4574L213.267 29.6951L214.612 28.1669Z" fill="#5BADCC"/>
<path d="M205.073 32.8578L205.469 34.8527L207.345 35.6597L205.564 36.6564L205.378 38.6848L203.881 37.3042L201.891 37.7505L202.744 35.9007L201.704 34.1483L203.728 34.3861L205.073 32.8578Z" fill="#5BADCC"/>
<path d="M239.722 34.8951L238.381 36.4244L236.358 36.1867L237.397 37.9391L236.544 39.7888L238.53 39.3415L240.031 40.7232L240.217 38.6947L241.994 37.6969L240.123 36.8911L239.722 34.8951Z" fill="#5BADCC"/>
<path d="M245.638 43.7271L244.297 45.2564L242.269 45.0176L243.313 46.7711L242.46 48.6209L244.446 48.1735L245.947 49.5552L246.133 47.5268L247.909 46.529L246.038 45.7231L245.638 43.7271Z" fill="#5BADCC"/>
<path d="M270.381 59.6744L175.831 34.3399C174.538 33.9935 173.271 34.9381 173.249 36.2645L173.095 46.0301L168.346 54.5643C167.703 55.7198 168.326 57.1757 169.619 57.5221L264.169 82.8566C265.462 83.2031 266.729 82.2585 266.751 80.932L266.905 71.1664L271.654 62.6322C272.297 61.4767 271.674 60.0208 270.381 59.6744Z" fill="#5BADCC"/>
<path d="M184.68 52.5979L184.251 54.1958L180.257 53.1254L180.685 51.5275L184.68 52.5979ZM183.427 43.6707L180.851 53.2846L178.916 52.7662L181.492 43.1523L183.427 43.6707ZM193.194 50.6402L192.764 52.2447C192.583 52.9226 192.34 53.4945 192.036 53.9603C191.737 54.4229 191.39 54.7852 190.994 55.0471C190.604 55.3059 190.172 55.4639 189.699 55.5212C189.231 55.5796 188.739 55.5398 188.224 55.4018C187.709 55.2638 187.261 55.0518 186.88 54.7657C186.503 54.4808 186.206 54.1275 185.989 53.706C185.777 53.2813 185.656 52.7934 185.624 52.2423C185.594 51.6869 185.669 51.0702 185.851 50.3923L186.281 48.7878C186.467 48.0922 186.711 47.5066 187.013 47.0308C187.317 46.5506 187.669 46.1779 188.07 45.9127C188.473 45.6431 188.909 45.4769 189.379 45.414C189.85 45.3468 190.343 45.3822 190.858 45.5202C191.373 45.6582 191.817 45.874 192.192 46.1678C192.567 46.4571 192.862 46.8191 193.075 47.2538C193.29 47.6841 193.409 48.183 193.432 48.7505C193.46 49.3148 193.381 49.9447 193.194 50.6402ZM190.843 51.7299L191.276 50.1121C191.399 49.6543 191.47 49.2559 191.49 48.9168C191.512 48.5734 191.484 48.2805 191.407 48.0383C191.331 47.796 191.211 47.6011 191.047 47.4535C190.884 47.3059 190.677 47.1985 190.426 47.1313C190.175 47.0641 189.94 47.0529 189.72 47.0979C189.505 47.144 189.304 47.2528 189.116 47.4243C188.933 47.597 188.765 47.8374 188.611 48.1454C188.464 48.4503 188.328 48.8316 188.206 49.2894L187.772 50.9071C187.654 51.3473 187.587 51.7326 187.569 52.0628C187.551 52.393 187.582 52.6749 187.661 52.9084C187.74 53.1418 187.861 53.3324 188.024 53.4799C188.193 53.6243 188.403 53.7301 188.654 53.7973C188.9 53.8633 189.131 53.8755 189.345 53.8338C189.564 53.7888 189.765 53.6844 189.945 53.5205C190.126 53.3566 190.291 53.1273 190.441 52.8324C190.591 52.5376 190.725 52.1701 190.843 51.7299ZM195.459 55.6562L199.188 47.8939L200.205 48.1664L200.169 49.5155L196.282 57.4194L195.179 57.124L195.459 55.6562ZM197.122 47.3401L196.167 55.8671L195.576 57.2301L194.361 56.9046L195.213 46.8288L197.122 47.3401ZM199.438 56.7081L202.86 48.8776L204.761 49.3872L200.475 58.5429L199.253 58.2156L199.438 56.7081ZM200.793 48.3238L200.142 56.9604L199.643 58.32L198.54 58.0245L199.136 49.2246L199.783 48.0531L200.793 48.3238ZM209.197 59.1672L208.768 60.7651L204.589 59.6452L205.017 58.0472L209.197 59.1672ZM207.766 50.1922L205.19 59.8062L203.255 59.2878L205.831 49.6738L207.766 50.1922ZM209.739 54.8965L209.324 56.4482L205.705 55.4787L206.121 53.927L209.739 54.8965ZM211.331 51.1476L210.901 52.7521L206.735 51.6357L207.165 50.0312L211.331 51.1476ZM214.643 59.6286C214.689 59.4569 214.715 59.2965 214.722 59.1474C214.729 58.9983 214.698 58.8507 214.628 58.7047C214.563 58.5599 214.452 58.4027 214.295 58.2332C214.142 58.0648 213.932 57.8766 213.667 57.6688C213.351 57.4236 213.048 57.1725 212.758 56.9156C212.47 56.6543 212.221 56.3754 212.013 56.0789C211.804 55.7825 211.662 55.4611 211.585 55.1149C211.513 54.7655 211.533 54.3839 211.644 53.9701C211.752 53.5651 211.923 53.217 212.157 52.9258C212.395 52.6358 212.682 52.4106 213.017 52.2505C213.354 52.0859 213.722 51.9887 214.122 51.959C214.526 51.9304 214.954 51.9768 215.408 52.0983C216.024 52.2635 216.522 52.5338 216.903 52.9095C217.288 53.2863 217.544 53.73 217.672 54.2407C217.803 54.7525 217.792 55.2967 217.637 55.8734L215.709 55.3568C215.782 55.0839 215.807 54.8333 215.783 54.6052C215.765 54.3739 215.688 54.1763 215.553 54.0127C215.417 53.849 215.218 53.7318 214.954 53.661C214.707 53.5949 214.489 53.5907 214.299 53.6483C214.114 53.7027 213.96 53.8051 213.834 53.9556C213.715 54.1028 213.626 54.282 213.57 54.4933C213.527 54.6518 213.526 54.8049 213.567 54.9526C213.613 55.0971 213.691 55.2383 213.8 55.3761C213.911 55.5095 214.046 55.6472 214.206 55.7892C214.371 55.9323 214.554 56.078 214.755 56.2262C215.144 56.5146 215.479 56.8071 215.758 57.1037C216.038 57.3958 216.256 57.6996 216.412 58.0151C216.57 58.3261 216.663 58.6555 216.693 59.0031C216.722 59.3507 216.683 59.727 216.574 60.132C216.467 60.5326 216.299 60.8791 216.069 61.1715C215.845 61.4607 215.57 61.6887 215.242 61.8557C214.915 62.0182 214.548 62.1132 214.139 62.1406C213.735 62.1691 213.304 62.1221 212.847 61.9994C212.402 61.8803 211.998 61.706 211.635 61.4766C211.273 61.2428 210.974 60.9575 210.739 60.6208C210.509 60.2809 210.362 59.8899 210.296 59.4477C210.232 59.0011 210.273 58.5049 210.419 57.959L212.354 58.4774C212.276 58.768 212.238 59.0243 212.24 59.2466C212.243 59.4644 212.287 59.6509 212.373 59.806C212.46 59.9567 212.581 60.0858 212.736 60.1935C212.897 60.2979 213.089 60.3801 213.314 60.4403C213.569 60.5087 213.785 60.5145 213.96 60.4578C214.14 60.4022 214.285 60.3019 214.395 60.1567C214.505 60.0115 214.587 59.8355 214.643 59.6286ZM223.606 54.4367L221.03 64.0506L219.109 63.5358L221.685 53.9218L223.606 54.4367ZM225.996 55.0771L225.567 56.6817L218.911 54.8982L219.341 53.2937L225.996 55.0771ZM231.446 63.2111L229.478 62.6838L229.908 61.0793L231.876 61.6065C232.153 61.6808 232.394 61.6794 232.599 61.6021C232.804 61.5248 232.975 61.389 233.112 61.1945C233.25 60.9957 233.356 60.7598 233.429 60.4868C233.503 60.2095 233.533 59.9392 233.519 59.6758C233.504 59.4125 233.431 59.1852 233.298 58.9939C233.166 58.7982 232.962 58.6633 232.685 58.5889L231.344 58.2298L229.198 66.2392L227.263 65.7208L229.839 56.1069L233.115 56.9844C233.762 57.1578 234.28 57.4429 234.669 57.8397C235.062 58.2376 235.32 58.7101 235.443 59.2572C235.566 59.7998 235.545 60.3793 235.38 60.9956C235.214 61.6162 234.944 62.1219 234.57 62.5124C234.198 62.8986 233.745 63.1547 233.211 63.2805C232.681 63.4076 232.093 63.3844 231.446 63.2111ZM237.532 58.1681L240.616 58.9943C241.258 59.1665 241.777 59.4234 242.171 59.765C242.566 60.1066 242.826 60.5255 242.953 61.0218C243.079 61.5181 243.058 62.0831 242.888 62.717C242.748 63.2365 242.559 63.6622 242.319 63.9942C242.08 64.3218 241.798 64.5741 241.472 64.751C241.148 64.9236 240.785 65.0341 240.385 65.0826L239.704 65.2751L237.201 64.6046L237.625 62.9983L239.361 63.4636C239.626 63.5344 239.859 63.5355 240.061 63.4671C240.269 63.3954 240.443 63.2651 240.583 63.0762C240.729 62.8841 240.84 62.645 240.917 62.3589C240.999 62.0551 241.028 61.7848 241.007 61.5479C240.991 61.3077 240.915 61.108 240.778 60.9487C240.647 60.7862 240.45 60.6696 240.186 60.5988L239.037 60.291L236.891 68.3004L234.956 67.782L237.532 58.1681ZM239.32 68.9515L238.706 64.1938L240.735 64.7303L241.412 69.4129L241.387 69.5053L239.32 68.9515ZM247.02 60.7105L244.444 70.3245L242.523 69.8096L245.099 60.1956L247.02 60.7105ZM251.536 68.7922L253.457 69.3071C253.237 70.0219 252.929 70.5927 252.531 71.0193C252.135 71.4416 251.658 71.7149 251.101 71.8393C250.549 71.9649 249.929 71.9357 249.242 71.7516C248.71 71.6089 248.26 71.3941 247.894 71.1071C247.528 70.8158 247.247 70.4573 247.049 70.0317C246.852 69.6061 246.747 69.1179 246.734 68.5672C246.727 68.0132 246.813 67.4017 246.992 66.7326L247.429 65.1016C247.608 64.4325 247.844 63.8611 248.136 63.3874C248.433 62.9148 248.773 62.5435 249.156 62.2736C249.546 62.0005 249.971 61.8313 250.432 61.7661C250.898 61.6977 251.394 61.7337 251.917 61.874C252.617 62.0616 253.167 62.3505 253.568 62.7408C253.968 63.1312 254.228 63.6136 254.348 64.1883C254.473 64.7597 254.465 65.4157 254.323 66.1561L252.388 65.6377C252.502 65.1776 252.547 64.8052 252.525 64.5208C252.507 64.233 252.416 64.0104 252.251 63.8529C252.086 63.6909 251.833 63.564 251.489 63.4719C251.234 63.4035 251.001 63.3908 250.792 63.4337C250.583 63.4722 250.393 63.5746 250.221 63.7408C250.049 63.907 249.892 64.1432 249.748 64.4492C249.609 64.7564 249.478 65.1411 249.354 65.6033L248.914 67.2474C248.792 67.7008 248.713 68.0947 248.675 68.429C248.638 68.7589 248.646 69.0393 248.697 69.2701C248.749 69.5009 248.852 69.6867 249.008 69.8275C249.168 69.9695 249.389 70.0782 249.671 70.1537C249.996 70.241 250.271 70.2628 250.495 70.219C250.724 70.1764 250.92 70.0426 251.084 69.8177C251.248 69.5927 251.399 69.2509 251.536 68.7922ZM259.749 72.7127L259.321 74.3106L255.141 73.1907L255.569 71.5928L259.749 72.7127ZM258.318 63.7377L255.742 73.3517L253.807 72.8333L256.384 63.2193L258.318 63.7377ZM260.292 68.4421L259.876 69.9938L256.258 69.0242L256.673 67.4725L260.292 68.4421ZM261.884 64.6931L261.454 66.2977L257.287 65.1812L257.717 63.5767L261.884 64.6931Z" fill="white"/>
<g filter="url(#filter0_f_2152_1084)">
<path d="M41.8048 156.834C41.4728 156.875 41.0583 157.158 43.2104 157.734C54.7728 160.84 85.8777 168.11 97.7267 170.764C112.147 173.995 122.474 174.299 134.381 174.299C146.289 174.299 184.392 171.609 189.803 170.693C195.213 169.776 182.077 165.065 167.847 163.728C153.618 162.39 90.9998 153.171 90.9998 153.171C90.9998 153.171 43.6655 156.603 41.8048 156.832V156.834Z" fill="#0D1728" fill-opacity="0.2"/>
</g>
<path d="M178.897 166.737C185.336 166.737 190.555 159.605 190.555 150.809C190.555 142.012 185.336 134.88 178.897 134.88C172.459 134.88 167.239 142.012 167.239 150.809C167.239 159.605 172.459 166.737 178.897 166.737Z" fill="#3D5670"/>
<path d="M179.022 134.882H172.023L172.823 167.24L179.022 166.737V134.882Z" fill="#3D5670"/>
<path d="M172.641 167.234C178.839 167.234 183.864 160.015 183.864 151.11C183.864 142.205 178.839 134.986 172.641 134.986C166.443 134.986 161.419 142.205 161.419 151.11C161.419 160.015 166.443 167.234 172.641 167.234Z" fill="#333D47"/>
<path d="M171.919 163.454C176.487 163.454 180.189 157.927 180.189 151.11C180.189 144.292 176.487 138.765 171.919 138.765C167.352 138.765 163.649 144.292 163.649 151.11C163.649 157.927 167.352 163.454 171.919 163.454Z" fill="#F0F2F8"/>
<path d="M171.741 162.224C175.762 162.224 179.022 157.248 179.022 151.11C179.022 144.972 175.762 139.996 171.741 139.996C167.72 139.996 164.46 144.972 164.46 151.11C164.46 157.248 167.72 162.224 171.741 162.224Z" fill="#264C78"/>
<path d="M170.737 139.154L171.579 149.21L164.724 145.568L164.151 147.698L171.294 151.526L165.649 158.361L166.609 160.228L172.506 153.199L175.668 161.82L177.046 160.267L174.02 151.502L179.893 149.018L179.459 146.501L173.717 149.043L172.897 139.024L170.737 139.154Z" fill="#F0F2F8"/>
<path d="M172.609 154.682C173.931 154.682 175.002 153.083 175.002 151.11C175.002 149.137 173.931 147.537 172.609 147.537C171.287 147.537 170.216 149.137 170.216 151.11C170.216 153.083 171.287 154.682 172.609 154.682Z" fill="#A6B3C6"/>
<path d="M174.196 151.11C174.196 152.051 173.686 152.813 173.056 152.813C172.426 152.813 171.916 152.051 171.916 151.11C171.916 150.169 172.426 149.406 173.056 149.406C173.686 149.406 174.196 150.169 174.196 151.11Z" fill="#F0F2F8"/>
<path d="M170.586 110.978C169.534 111.642 169.628 114.167 168.915 115.632C168.915 115.632 167.7 116.554 168.194 117.253C168.466 117.639 168.909 117.929 169.419 117.831C169.744 117.77 170.279 117.237 170.594 116.847C172.165 116.622 173.844 116.154 174.605 115.896C176.291 115.326 177.101 111.966 176.499 110.458C176.003 109.218 172.193 109.966 170.585 110.98L170.586 110.978Z" fill="white"/>
<mask id="mask0_2152_1084" style="mask-type:luminance" maskUnits="userSpaceOnUse" x="168" y="109" width="9" height="9">
<path d="M170.586 110.978C169.534 111.642 169.628 114.167 168.915 115.632C168.915 115.632 167.7 116.554 168.194 117.253C168.466 117.639 168.909 117.929 169.419 117.831C169.744 117.77 170.279 117.237 170.594 116.847C172.165 116.622 173.844 116.154 174.605 115.896C176.291 115.326 177.101 111.966 176.499 110.458C176.003 109.218 172.193 109.966 170.585 110.98L170.586 110.978Z" fill="white"/>
</mask>
<g mask="url(#mask0_2152_1084)">
<path opacity="0.08" d="M170.404 110.509C169.821 113.347 168.578 116.215 172.481 114.988C174.581 114.327 175.365 113.687 176.462 111.663C177.334 110.052 177.618 107.76 177.618 107.76L178 116.048L169.121 118.265L168.193 117.614L168.975 116.193L168.923 114.988L170.402 110.509H170.404Z" fill="#002E36"/>
</g>
<path d="M47.9241 144.172L62.4289 151.145L95.6714 157.456L119.246 156.666L157.306 154.766L146.22 126.173L49.4334 128.677C49.4334 128.677 49.0172 131.77 48.0683 135.455C47.1193 139.141 47.9241 144.174 47.9241 144.174V144.172Z" fill="#3D5670"/>
<path d="M112.439 170.573C119.147 170.573 124.586 162.712 124.586 153.014C124.586 143.317 119.147 135.455 112.439 135.455C105.73 135.455 100.292 143.317 100.292 153.014C100.292 162.712 105.73 170.573 112.439 170.573Z" fill="#3D5670"/>
<path d="M112.439 135.455H104.158L105.103 171.128L112.439 170.573V135.455Z" fill="#3D5670"/>
<path d="M65.5013 146.109C65.5013 153.443 63.1322 159.39 60.2125 159.39C57.2927 159.39 54.9236 153.443 54.9236 146.109C54.9236 138.775 57.2927 132.829 60.2125 132.829C63.1322 132.829 65.5013 138.773 65.5013 146.109Z" fill="#3D5670"/>
<path d="M60.212 132.829H53.5661L53.4398 159.717L60.212 159.39V132.829Z" fill="#3D5670"/>
<path d="M58.9363 146.273C58.9363 153.697 56.4764 159.717 53.4417 159.717C50.407 159.717 47.9456 153.697 47.9456 146.273C47.9456 138.848 50.4054 132.829 53.4417 132.829C56.478 132.829 58.9363 138.848 58.9363 146.273Z" fill="#333D47"/>
<path d="M57.1371 146.273C57.1371 151.957 55.3234 156.565 53.087 156.565C50.8507 156.565 49.037 151.957 49.037 146.273C49.037 140.589 50.8507 135.978 53.087 135.978C55.3234 135.978 57.1371 140.587 57.1371 146.273Z" fill="#F0F2F8"/>
<path d="M56.5639 146.273C56.5639 151.39 54.9672 155.539 52.9996 155.539C51.0321 155.539 49.4338 151.39 49.4338 146.273C49.4338 141.155 51.0305 137.007 52.9996 137.007C54.9688 137.007 56.5639 141.155 56.5639 146.273Z" fill="#333D47"/>
<path d="M52.5079 136.304L53.2269 144.689L49.5638 141.651L49.2837 143.427L53.0876 146.619L50.0156 152.319L50.4869 153.876L53.6787 148.015L54.9224 155.203L55.5976 153.908L54.4204 146.6L56.9919 144.527L56.7798 142.43L54.273 144.55L53.5669 136.195L52.5079 136.304Z" fill="#F0F2F8"/>
<path d="M54.8507 146.273C54.8507 147.918 54.3261 149.251 53.6783 149.251C53.0306 149.251 52.5075 147.916 52.5075 146.273C52.5075 144.629 53.0322 143.295 53.6783 143.295C54.3244 143.295 54.8507 144.629 54.8507 146.273Z" fill="#A6B3C6"/>
<path d="M54.6838 146.273C54.6838 147.056 54.4344 147.693 54.1251 147.693C53.8158 147.693 53.5664 147.058 53.5664 146.273C53.5664 145.487 53.8158 144.852 54.1251 144.852C54.4344 144.852 54.6838 145.489 54.6838 146.273Z" fill="#F0F2F8"/>
<path d="M47.9246 144.172L47.8938 141.073C47.8938 141.073 48.1853 129.522 52.8945 129.77C56.7631 129.974 58.3906 134.757 59.5873 140.051C60.593 144.503 61.2634 151.205 63.7103 151.579C68.9716 152.383 75.326 153.479 80.785 154.301C86.1791 155.116 94.9334 157.458 94.9334 157.458C94.1335 148.264 95.748 129.669 103.688 130.076C111.028 130.451 113.637 144.174 114.986 159.718C116.622 160.641 131.365 161.427 138.093 161.427C145.268 161.427 179.437 160.313 183.695 159.798C187.952 159.283 190.993 159.054 193.132 154.403C196.645 146.77 196.347 139.727 195.706 136.997C194.535 132.009 193.262 123.103 174.94 116.232C174.325 116 171.136 116.181 170.461 116.028C156.719 103.508 141.656 93.787 129.287 92.1077C117.235 90.4706 97.7074 89.6576 83.227 89.0536C73.4557 88.6471 63.8074 93.9393 55.5632 103.711C52.6629 106 50.5528 107.527 50.5528 107.527C50.5528 107.527 46.7619 123.635 46.0736 124.856C45.2008 126.408 46.1757 142.389 47.923 144.171L47.9246 144.172Z" fill="white"/>
<mask id="mask1_2152_1084" style="mask-type:luminance" maskUnits="userSpaceOnUse" x="45" y="89" width="152" height="73">
<path d="M47.9246 144.172L47.8938 141.073C47.8938 141.073 48.1853 129.522 52.8945 129.77C56.7631 129.974 58.3906 134.757 59.5873 140.051C60.593 144.503 61.2634 151.205 63.7103 151.579C68.9716 152.383 75.326 153.479 80.785 154.301C86.1791 155.116 94.9334 157.458 94.9334 157.458C94.1335 148.264 95.748 129.669 103.688 130.076C111.028 130.451 113.637 144.174 114.986 159.718C116.622 160.641 131.365 161.427 138.093 161.427C145.268 161.427 179.437 160.313 183.695 159.798C187.952 159.283 190.993 159.054 193.132 154.403C196.645 146.77 196.347 139.727 195.706 136.997C194.535 132.009 193.262 123.103 174.94 116.232C174.325 116 171.136 116.181 170.461 116.028C156.719 103.508 141.656 93.787 129.287 92.1077C117.235 90.4706 97.7074 89.6576 83.227 89.0536C73.4557 88.6471 63.8074 93.9393 55.5632 103.711C52.6629 106 50.5528 107.527 50.5528 107.527C50.5528 107.527 46.7619 123.635 46.0736 124.856C45.2008 126.408 46.1757 142.389 47.923 144.171L47.9246 144.172Z" fill="white"/>
</mask>
<g mask="url(#mask1_2152_1084)">
<path opacity="0.2" d="M178.095 115.111C195.602 120.201 184.932 125.229 173.005 125.697C149.971 126.602 111.219 114.296 111.219 114.296L178.095 115.111Z" fill="white"/>
<path d="M115.9 163.054C115.9 163.054 116.206 147.785 113.356 138.522C111.243 131.653 108.095 127.205 102.974 127.122C96.6637 127.02 91.472 142.9 95.0346 157.761C96.1941 162.594 115.902 163.054 115.902 163.054H115.9Z" fill="#EBEEEF"/>
<path d="M62.508 153.354C62.508 153.354 61.5445 140.888 59.8052 135.565C58.2798 130.897 55.7471 127.742 52.4096 127.682C48.2963 127.609 45.89 139.274 48.2105 149.923C48.9651 153.387 62.508 153.354 62.508 153.354Z" fill="#EBEEEF"/>
<path opacity="0.2" d="M105.185 115.315L58.4415 105.772L55.3874 103.863L50.3495 107.375C50.7057 108.033 53.2174 109.884 54.853 110.353C65.2348 113.331 88.9926 116.975 97.6045 118.217L99.6028 116.193L102.519 116.541L100.38 118.591C108.653 119.623 118.435 120.105 105.183 115.317L105.185 115.315Z" fill="white"/>
</g>
<path opacity="0.2" d="M76.3976 147.452C83.152 148.601 92.5654 150.511 90.5525 151.23C88.5397 151.949 80.3294 150.059 74.9806 148.948C62.2151 146.299 56.272 144.027 76.396 147.452H76.3976Z" fill="white"/>
<path d="M116.716 162.415C115.723 161.804 115.176 160.938 114.985 159.717C114.985 159.717 130.868 161.668 132.264 160.752C136.724 157.827 142.929 152.214 153.563 151.871C158.956 151.698 187.561 150.648 190.919 150.801C194.278 150.953 190.85 161.932 187.633 162.329C179.574 163.322 151.091 164.67 143.965 164.466C136.939 164.266 116.715 162.415 116.715 162.415H116.716Z" fill="#333D47"/>
<path fill-rule="evenodd" clip-rule="evenodd" d="M55.7499 112.771L59.7967 113.908L59.5408 112.865L55.494 111.728L55.7499 112.771Z" fill="#575D5F"/>
<path fill-rule="evenodd" clip-rule="evenodd" d="M55.7841 112.603L59.831 113.741L59.5767 112.698L55.5299 111.56L55.7841 112.603Z" fill="#A9AFB1"/>
<path fill-rule="evenodd" clip-rule="evenodd" d="M72.9754 117.075L78.5931 118.113L78.2109 116.946L72.5933 115.906L72.9754 117.075Z" fill="#575D5F"/>
<path fill-rule="evenodd" clip-rule="evenodd" d="M72.9995 116.881L78.6171 117.919L78.2349 116.751L72.6173 115.712L72.9995 116.881Z" fill="#A9AFB1"/>
<path d="M172.696 129.407C173.421 130.114 174.438 130.249 174.968 129.708C175.497 129.167 175.34 128.155 174.615 127.449C173.889 126.741 172.872 126.607 172.343 127.148C171.813 127.689 171.97 128.701 172.696 129.407Z" fill="#A9AFB1"/>
<path opacity="0.08" d="M95.0546 127.093C93.2539 134.859 92.1673 148.932 89.335 148.554C85.9003 148.096 68.5438 144.861 66.3059 144.249C64.0679 143.636 61.2793 132.058 59.409 127.326C57.6778 122.949 51.6732 113.382 47.8045 136.283C47.3284 139.101 47.1568 130.498 47.398 127.426C47.9065 120.912 49.6668 117.956 66.9925 119.555C73.2789 120.134 96.1024 122.572 95.0546 127.091V127.093Z" fill="#002E36"/>
<path opacity="0.08" d="M116.081 133.473C114.655 130.375 119.033 130.399 129.134 137.455C135.33 141.782 142.544 146.475 138.944 149.404C136.044 151.764 130.242 155.059 126.113 154.862C121.983 154.664 121.373 152.506 120.95 150.585C120.409 148.127 117.509 136.573 116.082 133.475L116.081 133.473Z" fill="#002E36"/>
<path opacity="0.08" d="M184.914 134.312C179.736 134.155 169.545 134.427 163.437 134.529C155.646 134.658 149.568 136.777 144.096 141.437C141.348 143.779 152.339 145.296 163.997 145.332C171.576 145.354 180.639 145.102 185.831 144.797C191.016 144.493 196.922 144.788 195.704 141.743C194.686 139.199 191.633 134.516 184.914 134.312Z" fill="#002E36"/>
<path d="M172.955 116.232C158.094 116.486 122.366 115.519 111.22 114.298C104.196 103.1 96.4606 90.7329 83.2271 89.0536C102.567 89.3597 119.239 90.2617 129.439 91.3434C139.517 92.4122 158.755 103.1 172.953 116.23L172.955 116.232Z" fill="#333D47"/>
<mask id="mask2_2152_1084" style="mask-type:luminance" maskUnits="userSpaceOnUse" x="83" y="89" width="90" height="28">
<path d="M172.955 116.232C158.094 116.486 122.366 115.519 111.22 114.298C104.196 103.1 96.4606 90.7329 83.2271 89.0536C102.567 89.3597 119.239 90.2617 129.439 91.3434C139.517 92.4122 158.755 103.1 172.953 116.23L172.955 116.232Z" fill="white"/>
</mask>
<g mask="url(#mask2_2152_1084)">
<path opacity="0.4" d="M172.038 116.69C143.487 96.2307 95.1874 91.3434 83.1765 88.9014C102.517 89.2075 112.968 89.7516 123.18 90.7329C138.528 92.2082 157.839 103.558 172.038 116.69Z" fill="url(#paint0_linear_2152_1084)"/>
</g>
<path d="M61.1905 147.989C61.1905 147.989 69.6825 149.968 77.5284 151.602C84.8577 153.129 88.7247 154.198 94.8071 155.725C95.0614 156.335 95.6476 157.302 95.6476 157.302L95.7463 157.939C95.7463 157.939 79.9461 154.489 75.0572 153.791C65.7944 152.468 63.1872 152.292 62.4633 151.552C61.7411 150.812 61.1905 147.989 61.1905 147.989Z" fill="#333D47"/>
<path d="M105.186 115.315C84.5226 113.484 60.7696 108.258 57.6782 107.375C56.4313 107.019 56.3778 106.307 55.8677 104.169C63.5031 95.0082 75.1869 91.1913 80.8871 91.8018C96.7667 93.5038 105.186 115.315 105.186 115.315Z" fill="#333D47"/>
<mask id="mask3_2152_1084" style="mask-type:luminance" maskUnits="userSpaceOnUse" x="55" y="91" width="51" height="25">
<path d="M105.186 115.315C84.5226 113.484 60.7696 108.258 57.6782 107.375C56.4313 107.019 56.3778 106.307 55.8677 104.169C63.5031 95.0082 75.1869 91.1913 80.8871 91.8018C96.7667 93.5038 105.186 115.315 105.186 115.315Z" fill="white"/>
</mask>
<g mask="url(#mask3_2152_1084)">
<path opacity="0.4" d="M104.807 114.094C104.807 114.094 93.5997 100.255 77.223 99.8436C64.4007 99.5213 55.8699 103.528 55.8699 103.528C55.8699 103.528 56.5597 88.4432 71.8288 88.4432C87.0979 88.4432 97.8862 91.9038 100.534 96.7894C103.18 101.675 104.809 114.094 104.809 114.094H104.807Z" fill="url(#paint1_linear_2152_1084)"/>
</g>
<path d="M55.8688 104.169C56.3773 106.306 56.4323 107.019 57.6792 107.375C60.769 108.258 84.5236 113.482 105.187 115.315C105.187 115.315 96.7677 93.5036 80.8881 91.8017C80.4979 91.7596 80.0801 91.7385 79.6364 91.7385C73.6074 91.7385 62.9827 95.6347 55.8704 104.169H55.8688ZM57.1983 104.489C61.054 100.039 65.5445 97.3448 68.6813 95.8566C72.5597 94.0154 76.5514 92.9595 79.6347 92.9595C80.0331 92.9595 80.4104 92.979 80.757 93.0162C84.156 93.3806 87.4838 94.7765 90.6465 97.1683C93.2229 99.1164 95.6973 101.72 98.0017 104.912C100.538 108.426 102.301 111.874 103.244 113.908C92.9136 112.892 82.3245 111.131 75.0665 109.79C66.1891 108.149 59.48 106.621 58.0161 106.203C57.71 106.115 57.676 106.055 57.6307 105.973C57.4898 105.719 57.3602 105.178 57.2015 104.491L57.1983 104.489Z" fill="#333D47"/>
<path d="M79.5884 91.8017L74.9019 110.999L71.5757 113.987C71.0413 125.592 71.085 137.397 72.7174 145.163C73.0963 146.962 71.1903 148.294 71.1903 148.294C71.1903 148.294 71.3425 152.721 74.2444 153.561" stroke="#A9AFB1" stroke-width="0.5" stroke-linejoin="round"/>
<path d="M60.2579 99.8305L57.6782 107.375L54.8541 110.353C54.8541 110.353 54.4427 117.809 54.7391 120.013C55.0354 122.217 54.1561 123.901 54.0136 125.229C53.6784 128.344 53.9132 129.946 53.9132 129.946" stroke="#A9AFB1" stroke-width="0.5" stroke-linejoin="round"/>
<path d="M100.859 114.889L97.6054 118.217C93.6364 128.981 92.0834 145.515 91.5749 148.499C91.2526 150.391 90.5061 151.808 90.5061 151.808C90.5061 151.808 90.0818 156.105 92.872 157.38" stroke="#A9AFB1" stroke-width="0.5" stroke-linejoin="round"/>
<path d="M124.434 120.886C124.434 120.886 111.365 116.842 105.186 115.317" stroke="#A9AFB1" stroke-width="0.5" stroke-linejoin="round"/>
<path d="M111.22 114.298C109.897 115.519 109.795 116.538 109.795 116.538" stroke="#A9AFB1" stroke-width="0.5" stroke-linejoin="round"/>
<path d="M148.943 130.822C148.943 130.822 167.598 131.69 174.215 131.588C180.832 131.486 189.878 130.605 189.878 130.605" stroke="#A9AFB1" stroke-width="0.5" stroke-linejoin="round"/>
<path d="M125.838 126.406C125.838 126.406 119.109 126.171 115.343 127.988C111.977 129.611 110.033 131.23 110.033 131.23L108.494 132.829" stroke="#A9AFB1" stroke-width="0.5" stroke-linejoin="round"/>
<path d="M96.8569 110.068C98.4698 110.786 100.326 113.203 101.415 114.787C101.415 114.787 103.275 115.783 102.52 116.539C102.104 116.955 101.425 117.268 100.645 117.164C100.146 117.098 99.3281 116.521 98.8439 116.1C96.4391 115.858 93.8692 115.351 92.7016 115.072C90.1203 114.457 88.9576 110.867 88.9754 109.071C88.9868 107.785 94.3939 108.974 96.8569 110.07V110.068Z" fill="white"/>
<mask id="mask4_2152_1084" style="mask-type:luminance" maskUnits="userSpaceOnUse" x="88" y="108" width="15" height="10">
<path d="M96.8569 110.068C98.4698 110.786 100.326 113.203 101.415 114.787C101.415 114.787 103.275 115.783 102.52 116.539C102.104 116.955 101.425 117.268 100.645 117.164C100.146 117.098 99.3281 116.521 98.8439 116.1C96.4391 115.858 93.8692 115.351 92.7016 115.072C90.1203 114.457 88.9576 110.867 88.9754 109.071C88.9868 107.785 94.3939 108.974 96.8569 110.07V110.068Z" fill="white"/>
</mask>
<g mask="url(#mask4_2152_1084)">
<path opacity="0.08" d="M97.5694 109.958C99.8787 113.174 101.934 115.419 95.9565 114.091C92.7404 113.377 91.5405 112.684 89.8612 110.496C88.5236 108.753 88.0896 106.276 88.0896 106.276L87.505 115.236L101.1 117.632L102.52 116.93L101.322 115.393L101.399 114.091L97.5678 109.958H97.5694Z" fill="#002E36"/>
</g>
<path d="M148.942 130.822C150.521 130.902 151.096 128.775 149.692 128.05C147.995 127.174 145.822 126.267 143.179 125.584C138.042 124.254 129.186 122.058 124.432 120.886C123.11 120.559 122.093 122.05 122.88 123.161C124.498 125.451 127.414 128.324 132.18 129.19C137.202 130.103 144.199 130.584 148.942 130.822Z" fill="#FF9736"/>
<path d="M187.936 128.911C187.85 129.982 188.83 130.835 189.877 130.605C191.17 130.322 192.52 129.714 192.358 128.408C192.052 125.964 187.777 123.216 187.777 123.216C187.777 123.216 188.169 125.992 187.936 128.911Z" fill="#FF9736"/>
<mask id="mask5_2152_1084" style="mask-type:luminance" maskUnits="userSpaceOnUse" x="88" y="133" width="29" height="41">
<path d="M109.958 137.159C109.958 137.159 113.082 143.497 113.768 149.126C114.455 154.756 114.282 160.609 114.282 160.609L114.985 162.414L116.29 163.736L110.505 173.054L93.6898 171.533L88.9742 143.186L99.7252 134.263L108.099 133.845L109.956 137.159H109.958Z" fill="white"/>
</mask>
<g mask="url(#mask5_2152_1084)">
<path d="M104.837 171.122C111.669 171.122 117.208 163.163 117.208 153.346C117.208 143.529 111.669 135.57 104.837 135.57C98.0052 135.57 92.4667 143.529 92.4667 153.346C92.4667 163.163 98.0052 171.122 104.837 171.122Z" fill="#333D47"/>
<path d="M104.042 166.955C109.077 166.955 113.159 160.862 113.159 153.346C113.159 145.83 109.077 139.737 104.042 139.737C99.0067 139.737 94.9248 145.83 94.9248 153.346C94.9248 160.862 99.0067 166.955 104.042 166.955Z" fill="#F0F2F8"/>
<path d="M103.845 165.598C108.278 165.598 111.871 160.113 111.871 153.346C111.871 146.579 108.278 141.094 103.845 141.094C99.4128 141.094 95.8196 146.579 95.8196 153.346C95.8196 160.113 99.4128 165.598 103.845 165.598Z" fill="#333D47"/>
<path d="M102.737 140.166L103.667 151.252L96.1108 147.236L95.4776 149.584L103.353 153.804L97.1294 161.339L98.1884 163.399L104.687 155.649L108.175 165.153L109.692 163.441L106.357 153.778L112.832 151.038L112.353 148.266L106.023 151.068L105.121 140.022L102.737 140.166Z" fill="#F0F2F8"/>
<path d="M104.801 157.284C106.258 157.284 107.439 155.521 107.439 153.346C107.439 151.171 106.258 149.408 104.801 149.408C103.344 149.408 102.163 151.171 102.163 153.346C102.163 155.521 103.344 157.284 104.801 157.284Z" fill="#A6B3C6"/>
<path d="M106.552 153.346C106.552 154.382 105.989 155.223 105.294 155.223C104.599 155.223 104.037 154.382 104.037 153.346C104.037 152.31 104.601 151.469 105.294 151.469C105.987 151.469 106.552 152.31 106.552 153.346Z" fill="#F0F2F8"/>
</g>
<path fill-rule="evenodd" clip-rule="evenodd" d="M50.9016 76.1763C47.074 78.7089 42.5246 80.2623 37.9914 80.9581C37.5819 81.0187 37.2858 81.3789 37.2937 81.7915C37.5128 90.5984 39.2199 100.449 45.8695 106.707C47.463 108.204 49.2592 109.426 51.2056 110.401C51.3191 110.462 51.4448 110.49 51.5706 110.49H54.0966C56.8821 108.115 65.3729 100.756 65.8473 81.7915C65.8554 81.3789 65.5593 81.0187 65.1498 80.9581C62.324 80.5251 54.0972 79.4693 54.0968 75.8974H51.7333C51.3166 75.8997 51.2803 75.9297 50.9016 76.1763Z" fill="#065F39"/>
<path fill-rule="evenodd" clip-rule="evenodd" d="M37.9915 80.9581C37.582 81.0188 37.2859 81.3789 37.2939 81.7915H39.8201L40.5174 80.9581H37.9915Z" fill="#065F39"/>
<path fill-rule="evenodd" clip-rule="evenodd" d="M37.2937 81.7915C37.5127 90.5984 39.2198 100.449 45.8695 106.707C47.463 108.204 49.2592 109.426 51.2056 110.401C51.319 110.462 51.4448 110.49 51.5705 110.49H54.0966C54.6277 110.033 55.3698 109.397 56.2253 108.532C54.8592 102.629 46.9726 85.8287 41.6934 81.7915H37.2937Z" fill="#065F39"/>
<path fill-rule="evenodd" clip-rule="evenodd" d="M53.639 76.039C49.7667 78.6524 45.1361 80.2503 40.5178 80.9583C40.1042 81.0189 39.8082 81.379 39.8204 81.7916C40.0393 90.5986 41.7424 100.449 48.3963 106.708C49.9897 108.204 51.782 109.426 53.7323 110.401C53.9594 110.518 54.231 110.518 54.4623 110.401C56.4086 109.426 58.2007 108.204 59.7943 106.708C66.4483 100.449 68.1513 90.5987 68.3702 81.7916C68.3824 81.379 68.0865 81.0189 67.6768 80.9583C63.0585 80.2503 58.4239 78.6524 54.5516 76.039C54.2761 75.8528 53.9151 75.8528 53.6394 76.039H53.639Z" fill="#17A368"/>
<path fill-rule="evenodd" clip-rule="evenodd" d="M54.0951 78.0942C50.3972 80.4454 46.1307 81.9638 41.8205 82.7378C42.1236 90.6761 43.7555 99.6399 49.7452 105.272C51.053 106.502 52.518 107.528 54.0969 108.372C55.6744 107.529 57.1378 106.501 58.4448 105.272C64.4348 99.6399 66.0665 90.6755 66.3694 82.7371C62.0603 81.9626 57.7922 80.4449 54.0951 78.0942Z" fill="#46CF96"/>
<path fill-rule="evenodd" clip-rule="evenodd" d="M51.6305 100.809L46.5451 93.5467C46.2894 93.1816 46.378 92.6786 46.7432 92.4231L48.5123 91.1842C48.8771 90.9287 49.3805 91.0173 49.636 91.3824L52.5153 95.4945L59.7084 86.9221C59.9947 86.5808 60.5038 86.5364 60.845 86.8227L62.4996 88.211C62.841 88.4974 62.8855 89.0065 62.599 89.3479L52.9337 100.867C52.5862 101.281 51.9405 101.252 51.6303 100.81L51.6305 100.809Z" fill="#17A368"/>
<path fill-rule="evenodd" clip-rule="evenodd" d="M52.3239 100.809L47.2384 93.5467C46.9828 93.1816 47.0713 92.6786 47.4365 92.4231L49.2057 91.1842C49.5705 90.9287 50.0739 91.0173 50.3293 91.3824L53.2086 95.4945L60.4017 86.9221C60.688 86.5808 61.1972 86.5364 61.5383 86.8227L63.193 88.211C63.5343 88.4974 63.5789 89.0065 63.2924 89.3479L53.627 100.867C53.2795 101.281 52.6338 101.252 52.3237 100.81L52.3239 100.809Z" fill="white"/>
<defs>
<filter id="filter0_f_2152_1084" x="37.5358" y="149.171" width="157.511" height="29.128" filterUnits="userSpaceOnUse" color-interpolation-filters="sRGB">
<feFlood flood-opacity="0" result="BackgroundImageFix"/>
<feBlend mode="normal" in="SourceGraphic" in2="BackgroundImageFix" result="shape"/>
<feGaussianBlur stdDeviation="2" result="effect1_foregroundBlur_2152_1084"/>
</filter>
<linearGradient id="paint0_linear_2152_1084" x1="127.607" y1="88.9014" x2="127.607" y2="116.69" gradientUnits="userSpaceOnUse">
<stop stop-color="#FEFFFF"/>
<stop offset="1" stop-color="#FEFFFF" stop-opacity="0"/>
</linearGradient>
<linearGradient id="paint1_linear_2152_1084" x1="80.3394" y1="88.4432" x2="80.3394" y2="114.094" gradientUnits="userSpaceOnUse">
<stop stop-color="#FEFFFF"/>
<stop offset="1" stop-color="#FEFFFF" stop-opacity="0"/>
</linearGradient>
<clipPath id="clip0_2152_1084">
<rect width="328" height="133" fill="white" transform="translate(0 25.5983)"/>
</clipPath>
</defs>
</svg>
