<svg width="110" height="80" viewBox="0 0 110 80" fill="none" xmlns="http://www.w3.org/2000/svg">
<rect width="110" height="80" fill="#DBEAFF"/>
<path d="M55.7469 16.761L75.8375 27.6266C76.9031 28.2 76.9391 29.7094 75.9078 30.336L55.8172 42.6313C55.3156 42.9407 54.6781 42.9407 54.1781 42.6313L34.0859 30.336C33.0563 29.7063 33.1 28.1953 34.1672 27.6266L54.2578 16.761C54.7891 16.4157 55.2234 16.5407 55.7469 16.761ZM37.5297 36.1063L34.1672 37.9282C33.1016 38.4969 33.0547 40.0063 34.0844 40.6375L54.1766 52.9328C54.6766 53.2407 55.3141 53.2407 55.8156 52.9328L75.9078 40.6375C76.9375 40.011 76.9 38.5016 75.8359 37.9282L72.4688 36.1063L57.4547 45.2985C55.9531 46.2219 54.0422 46.2235 52.5406 45.2985L37.5297 36.1063ZM37.5297 46.4078L34.1672 48.2297C33.1156 48.8016 33.0703 50.2938 34.0844 50.9282L54.1766 63.2235C54.6766 63.5313 55.3141 63.5313 55.8156 63.2235L75.9078 50.9282C76.9234 50.3 76.8875 48.8078 75.8359 48.2297L72.4688 46.4078L57.4547 55.6C55.9531 56.5235 54.0422 56.525 52.5406 55.6L37.5297 46.4078Z" fill="#006DB7"/>
</svg>
