<svg width="48" height="48" viewBox="0 0 48 48" fill="none" xmlns="http://www.w3.org/2000/svg">
<circle cx="24" cy="24" r="24" fill="white"/>
<path d="M16.8097 34V31.3352L23.8793 24.4048C24.5554 23.7221 25.1188 23.1155 25.5696 22.5852C26.0204 22.0549 26.3584 21.5412 26.5838 21.044C26.8092 20.5469 26.9219 20.0166 26.9219 19.4531C26.9219 18.8101 26.776 18.2599 26.4844 17.8026C26.1927 17.3385 25.7917 16.9806 25.2812 16.7287C24.7708 16.4768 24.1908 16.3509 23.5412 16.3509C22.8717 16.3509 22.285 16.4901 21.7812 16.7685C21.2775 17.0402 20.8864 17.428 20.608 17.9318C20.3362 18.4356 20.2003 19.0355 20.2003 19.7315H16.6903C16.6903 18.4389 16.9853 17.3153 17.5753 16.3608C18.1652 15.4062 18.9773 14.6671 20.0114 14.1435C21.0521 13.6198 22.2453 13.358 23.5909 13.358C24.9564 13.358 26.1563 13.6132 27.1903 14.1236C28.2244 14.634 29.0265 15.3333 29.5966 16.2216C30.1733 17.1098 30.4616 18.1241 30.4616 19.2642C30.4616 20.0265 30.3158 20.7756 30.0241 21.5114C29.7325 22.2472 29.2188 23.0625 28.483 23.9574C27.7538 24.8523 26.7296 25.9361 25.4105 27.2088L21.9006 30.7784V30.9176H30.7699V34H16.8097Z" fill="#006DB7"/>
</svg>
