<svg width="48" height="48" viewBox="0 0 48 48" fill="none" xmlns="http://www.w3.org/2000/svg">
<circle cx="24" cy="24" r="24" fill="white"/>
<path d="M23.8892 34.2784C22.5634 34.2784 21.3769 34.0298 20.3295 33.5327C19.2822 33.0289 18.4503 32.3395 17.8338 31.4645C17.224 30.5895 16.8991 29.5885 16.8594 28.4616H20.4389C20.5052 29.2969 20.8665 29.9796 21.5227 30.5099C22.179 31.0336 22.9678 31.2955 23.8892 31.2955C24.6117 31.2955 25.2547 31.1297 25.8182 30.7983C26.3816 30.4669 26.8258 30.0062 27.1506 29.4162C27.4754 28.8262 27.6345 28.1534 27.6278 27.3977C27.6345 26.6288 27.4721 25.946 27.1406 25.3494C26.8092 24.7528 26.3551 24.2855 25.7784 23.9474C25.2017 23.6027 24.5388 23.4304 23.7898 23.4304C23.1799 23.4238 22.58 23.5365 21.9901 23.7685C21.4001 24.0005 20.9328 24.3054 20.5881 24.6832L17.2571 24.1364L18.321 13.6364H30.1335V16.7188H21.3736L20.7869 22.1179H20.9062C21.2841 21.6738 21.8177 21.3059 22.5071 21.0142C23.1965 20.7159 23.9522 20.5668 24.7741 20.5668C26.0071 20.5668 27.1075 20.8584 28.0753 21.4418C29.0431 22.0185 29.8054 22.8139 30.3622 23.8281C30.919 24.8423 31.1974 26.0024 31.1974 27.3082C31.1974 28.6539 30.8859 29.8537 30.2628 30.9077C29.6463 31.955 28.7879 32.7803 27.6875 33.3835C26.5938 33.9801 25.3277 34.2784 23.8892 34.2784Z" fill="#006DB7"/>
</svg>
