<svg width="48" height="48" viewBox="0 0 48 48" fill="none" xmlns="http://www.w3.org/2000/svg">
<circle cx="24" cy="24" r="24" fill="white"/>
<path d="M23.1179 34.2784C21.6861 34.2784 20.4134 34.0331 19.2997 33.5426C18.1927 33.0521 17.3177 32.3693 16.6747 31.4943C16.0317 30.6193 15.6903 29.6084 15.6506 28.4616H19.3892C19.4223 29.0118 19.6046 29.4924 19.9361 29.9034C20.2675 30.3078 20.7083 30.6226 21.2585 30.848C21.8087 31.0734 22.4252 31.1861 23.108 31.1861C23.8371 31.1861 24.4834 31.0601 25.0469 30.8082C25.6103 30.5497 26.0511 30.1918 26.3693 29.7344C26.6875 29.277 26.8433 28.75 26.8366 28.1534C26.8433 27.5369 26.6842 26.9934 26.3594 26.5227C26.0346 26.0521 25.5639 25.6842 24.9474 25.419C24.3376 25.1539 23.6018 25.0213 22.7401 25.0213H20.9403V22.1776H22.7401C23.4493 22.1776 24.0691 22.0549 24.5994 21.8097C25.1364 21.5644 25.5573 21.2197 25.8622 20.7756C26.1671 20.3248 26.3163 19.8045 26.3097 19.2145C26.3163 18.6378 26.187 18.1373 25.9219 17.7131C25.6634 17.2822 25.2955 16.9474 24.8182 16.7088C24.3475 16.4702 23.794 16.3509 23.1577 16.3509C22.5346 16.3509 21.9579 16.4635 21.4276 16.6889C20.8973 16.9143 20.4697 17.2358 20.1449 17.6534C19.8201 18.0644 19.6477 18.5549 19.6278 19.125H16.0781C16.1046 17.9848 16.4328 16.9839 17.0625 16.1222C17.6989 15.2538 18.5473 14.5777 19.608 14.0938C20.6686 13.6032 21.8584 13.358 23.1776 13.358C24.5365 13.358 25.7164 13.6132 26.7173 14.1236C27.7249 14.6274 28.5038 15.3068 29.054 16.1619C29.6042 17.017 29.8793 17.9616 29.8793 18.9957C29.8859 20.1425 29.5478 21.1037 28.8651 21.8793C28.1889 22.6548 27.3007 23.1619 26.2003 23.4006V23.5597C27.6321 23.7585 28.7292 24.2888 29.4915 25.1506C30.2604 26.0057 30.6416 27.0696 30.6349 28.3423C30.6349 29.4825 30.3101 30.5033 29.6605 31.4048C29.0175 32.2997 28.1293 33.0024 26.9957 33.5128C25.8688 34.0232 24.5762 34.2784 23.1179 34.2784Z" fill="#006DB7"/>
</svg>
