<svg width="16" height="14" viewBox="0 0 16 14" fill="none" xmlns="http://www.w3.org/2000/svg">
<g id="Group 24041449">
<path id="Vector" d="M16 2.93257V5.79119C16 5.86687 15.9606 5.93696 15.896 5.97619L15.6331 6.13607C15.5684 6.1753 15.529 6.24554 15.529 6.32107V13.4617C15.529 13.5814 15.4321 13.6783 15.3125 13.6783H13.9427C13.8225 13.6783 13.7249 13.5809 13.7249 13.4606V4.9977C13.7249 4.89778 13.6439 4.81682 13.544 4.81682H2.456C2.35608 4.81682 2.27511 4.89778 2.27511 4.9977V13.4606C2.27511 13.5808 2.17769 13.6783 2.05734 13.6783H0.687545C0.567933 13.6783 0.470951 13.5814 0.470951 13.4617V6.32122C0.470951 6.24554 0.431571 6.17545 0.366916 6.13622L0.104035 5.97634C0.0393806 5.93711 0 5.86687 0 5.79134V2.93433C0 2.73875 0.12931 2.56668 0.317102 2.51246L7.77885 0.353139C7.92565 0.310672 8.08111 0.310672 8.22791 0.353139L15.6829 2.5107C15.8708 2.56507 16 2.73699 16 2.93257Z" fill="#FFAB00"/>
<g id="Group">
<g id="Group_2">
<path id="Vector_2" d="M8.00673 8.71757C7.99512 8.71757 7.98366 8.71757 7.97205 8.71757C5.78069 8.71757 4.76311 8.41296 4.76223 8.41296C4.97515 8.09086 5.36338 7.5432 5.71663 7.25608C5.78363 7.20171 5.85049 7.15307 5.9247 7.1109H8.00673V6.41895H6.62223C6.19595 6.41895 5.77952 6.55707 5.44405 6.8201C5.43288 6.82892 5.42157 6.83788 5.41025 6.84714C4.93842 7.23051 4.44645 7.96728 4.25749 8.26469L3.94024 7.8246C3.88616 7.75759 3.80549 7.71469 3.71468 7.70837C3.58081 7.69867 3.51763 7.6947 3.38332 7.6947C3.16144 7.6947 3.05373 7.75304 3.06093 7.98815C3.06945 8.24985 3.22859 8.47482 3.9276 8.47982L3.91584 8.54741C3.91041 8.57871 3.8941 8.60722 3.86985 8.62764C3.83826 8.65438 3.80284 8.68524 3.77845 8.71037C3.58934 8.90404 3.43637 9.17192 3.29295 9.54589C3.20831 9.76439 3.1175 9.97878 3.06181 10.4414C4.29422 10.7123 5.55249 10.8479 6.81532 10.8479H8.00687V8.71757H8.00673Z" fill="#FFAB00"/>
<path id="Vector_3" d="M8.00674 12.0083C8.0013 12.0083 7.99586 12.0083 7.99043 12.0083H7.96486C6.82473 12.0076 5.94454 11.9892 5.53795 11.9788C5.38249 11.9748 5.23731 11.8999 5.14488 11.7754L5.05642 11.6558C4.90727 11.4549 4.69053 11.3137 4.44485 11.2595C3.98168 11.159 3.5144 11.0195 3.02802 10.8154C3.01451 11.0307 3.00642 11.2874 3.00642 11.5967C3.00642 11.961 3.11252 12.1278 3.20333 12.2042V12.8021C3.20333 13.1226 3.4521 13.3818 3.7598 13.3818H4.5937C4.90066 13.3818 5.15017 13.1227 5.15017 12.8021V12.5207C5.59908 12.5682 6.80577 12.5917 8.00644 12.5912V12.008L8.00674 12.0083Z" fill="#FFAB00"/>
</g>
<g id="Group_3">
<path id="Vector_4" d="M7.99277 8.71757C8.00438 8.71757 8.01584 8.71757 8.02745 8.71757C10.2188 8.71757 11.2364 8.41296 11.2373 8.41296C11.0243 8.09086 10.6361 7.5432 10.2829 7.25608C10.2159 7.20171 10.149 7.15307 10.0748 7.1109H7.99277V6.41895H9.37726C9.80354 6.41895 10.22 6.55707 10.5554 6.8201C10.5666 6.82892 10.5779 6.83788 10.5892 6.84714C11.0611 7.23051 11.553 7.96728 11.742 8.26469L12.0593 7.8246C12.1133 7.75759 12.194 7.71469 12.2848 7.70837C12.4187 7.69867 12.4819 7.6947 12.6162 7.6947C12.8381 7.6947 12.9458 7.75304 12.9386 7.98815C12.93 8.24985 12.7709 8.47482 12.0719 8.47982L12.0837 8.54741C12.0891 8.57871 12.1054 8.60722 12.1296 8.62764C12.1612 8.65438 12.1967 8.68524 12.221 8.71037C12.4102 8.90404 12.5631 9.17192 12.7065 9.54589C12.7912 9.76439 12.882 9.97878 12.9377 10.4414C11.7053 10.7123 10.447 10.8479 9.18418 10.8479H7.99262V8.71757H7.99277Z" fill="#FFAB00"/>
<path id="Vector_5" d="M7.99291 12.0083C7.99835 12.0083 8.00379 12.0083 8.00922 12.0083H8.03479C9.17492 12.0076 10.0551 11.9892 10.4617 11.9788C10.6172 11.9748 10.7623 11.8999 10.8548 11.7754L10.9432 11.6558C11.0924 11.4549 11.3091 11.3137 11.5548 11.2595C12.018 11.159 12.4852 11.0195 12.9716 10.8154C12.9851 11.0307 12.9932 11.2874 12.9932 11.5967C12.9932 11.961 12.8871 12.1278 12.7963 12.2042V12.8021C12.7963 13.1226 12.5475 13.3818 12.2398 13.3818H11.4059C11.099 13.3818 10.8495 13.1227 10.8495 12.8021V12.5207C10.4006 12.5682 9.19387 12.5917 7.99321 12.5912V12.008L7.99291 12.0083Z" fill="#FFAB00"/>
</g>
</g>
</g>
</svg>
