<svg width="48" height="48" viewBox="0 0 48 48" fill="none" xmlns="http://www.w3.org/2000/svg">
<path d="M38.237 36.4111H6.65533V15.1117H38.237V36.4111Z" fill="#EDF4FF"/>
<path d="M38.237 36.4111H22.2719V15.1117H38.237V36.4111Z" fill="#EDF4FF"/>
<path d="M22.6872 14.4992C22.5577 14.4463 22.4183 14.4159 22.2719 14.4159C21.6203 14.4159 21.0913 14.9902 21.0913 15.6977V17.5844C21.0913 18.2929 21.6203 18.8662 22.2719 18.8662L22.6872 17.4423V14.4992Z" fill="#B5DBFF"/>
<path d="M23.4523 15.6977V17.5844C23.4523 18.2928 22.9236 18.8662 22.2719 18.8662V14.4159C22.9236 14.4159 23.4523 14.9902 23.4523 15.6977Z" fill="#B5DBFF"/>
<path d="M4.66895 10.2183V15.271C4.66895 15.9785 5.19703 16.5527 5.84937 16.5527H39.8346C40.4863 16.5527 41.0151 15.9785 41.0151 15.271V10.2183H4.66895Z" fill="#B5DBFF"/>
<path d="M22.2718 35.621H7.63346V13.5618C7.63346 12.8543 7.10468 12.2801 6.45303 12.2801H3.30502L2.12451 13.9891V36.9028C2.12451 37.6103 2.65337 38.1846 3.30502 38.1846H22.2718L24.4399 36.6788L22.2718 35.621Z" fill="#B1D1FF"/>
<path d="M42.4192 13.9891V36.9028C42.4192 37.6103 41.8904 38.1846 41.2387 38.1846H22.2719V35.621H36.9101V13.5618C36.9101 12.8543 37.439 12.2801 38.0907 12.2801H41.2387L42.4192 13.9891Z" fill="#B5DBFF"/>
<path d="M23.1714 5.07851L22.2719 2.12438C22.1522 2.12438 22.0318 2.14489 21.9162 2.18419L2.94937 8.69642C2.45828 8.86476 2.12451 9.35952 2.12451 9.91837V13.9893H22.2719L23.1714 11.4535V5.07851Z" fill="#559CFF"/>
<path d="M42.4192 9.91837V13.9893H22.2719V2.12438C22.3915 2.12438 22.5119 2.14489 22.6276 2.18419L41.5944 8.69642C42.0855 8.86476 42.4192 9.35952 42.4192 9.91837Z" fill="#559CFF"/>
<path d="M24.958 40.7936V43.669C24.958 44.8851 23.9672 45.875 22.7493 45.875H21.0627C19.8447 45.875 18.8546 44.8851 18.8546 43.669V40.7936C18.8546 40.2326 19.3096 39.7773 19.8719 39.7773H23.9408C24.5023 39.7773 24.958 40.2326 24.958 40.7936Z" fill="#074BAA"/>
<path d="M37.1841 40.7936V43.669C37.1841 44.8851 38.1749 45.875 39.3928 45.875H41.0795C42.2974 45.875 43.2875 44.8851 43.2875 43.669V40.7936C43.2875 40.2326 42.8325 39.7773 42.2702 39.7773H38.2013C37.6398 39.7773 37.1841 40.2326 37.1841 40.7936Z" fill="#074BAA"/>
<path d="M41.2184 30.8135H20.9238L23.9573 22.5487H38.5592L41.2184 30.8135Z" fill="#EDF4FF"/>
<path d="M31.0711 20.9224H25.3203C23.6805 20.9224 22.2594 21.9758 21.7843 23.5441L19.6967 30.4421C19.4917 31.1191 19.8752 31.8345 20.553 32.0385C21.2306 32.2434 21.9458 31.8609 22.1509 31.184L24.2385 24.286C24.3837 23.8053 24.8187 23.4835 25.3203 23.4835H31.0711L32.3986 21.7955L31.0711 20.9224Z" fill="#559CFF"/>
<path d="M42.4455 30.4418C42.6505 31.1188 42.2668 31.8342 41.5892 32.0383C41.4653 32.0758 41.3405 32.0938 41.2176 32.0938C40.6672 32.0938 40.1587 31.7369 39.9913 31.1837L37.9038 24.2857C37.7584 23.8051 37.3236 23.4833 36.8219 23.4833H31.0711V20.9221H36.8219C38.4618 20.9221 39.8828 21.9756 40.3571 23.5439L42.4455 30.4418Z" fill="#559CFF"/>
<path d="M33.4352 31.5977L31.0711 29.5323H20.9237C18.3559 29.5323 16.2667 31.6195 16.2667 34.1849V41.0573C16.2667 41.7642 16.84 42.3379 17.5484 42.3379H31.0711L33.4352 39.5269V31.5977Z" fill="#559CFF"/>
<path d="M45.8754 34.185V41.0573C45.8754 41.7642 45.3021 42.3379 44.5937 42.3379H31.071V29.5323H41.2184C43.7862 29.5323 45.8754 31.6196 45.8754 34.185Z" fill="#559CFF"/>
<path d="M23.957 35.9353C23.957 36.6425 23.3832 37.2158 22.6753 37.2158C21.9674 37.2158 21.3935 36.6425 21.3935 35.9353C21.3935 35.2281 21.9674 34.6547 22.6753 34.6547C23.3832 34.6547 23.957 35.2281 23.957 35.9353Z" fill="#EDF4FF"/>
<path d="M38.1851 35.9353C38.1851 36.6425 38.7589 37.2158 39.4668 37.2158C40.1747 37.2158 40.7486 36.6425 40.7486 35.9353C40.7486 35.2281 40.1747 34.6547 39.4668 34.6547C38.7589 34.6547 38.1851 35.2281 38.1851 35.9353Z" fill="#EDF4FF"/>
<path d="M31.0711 34.6557H27.8026C27.0942 34.6557 26.5208 35.2285 26.5208 35.9362C26.5208 36.6431 27.0942 37.2168 27.8026 37.2168H31.0711L31.9224 35.8452L31.0711 34.6557Z" fill="#B1D1FF"/>
<path d="M35.6213 35.9362C35.6213 36.6431 35.0479 37.2168 34.3395 37.2168H31.071V34.6557H34.3395C35.0479 34.6557 35.6213 35.2285 35.6213 35.9362Z" fill="#B1D1FF"/>
</svg>
