<svg width="48" height="48" viewBox="0 0 48 48" fill="none" xmlns="http://www.w3.org/2000/svg">
<path d="M26.7615 34.9536H4.66985C4.07198 34.9536 3.55266 34.5426 3.41525 33.9607C3.27783 33.3788 3.55859 32.779 4.09329 32.5115L12.669 28.2236C14.463 27.3267 16.4714 26.8525 18.4771 26.8525C20.6021 26.8525 22.5998 27.68 24.1024 29.1826L27.6729 32.753C28.0416 33.1217 28.1519 33.6761 27.9524 34.1578C27.7528 34.6395 27.2828 34.9536 26.7615 34.9536Z" fill="#EDF4FF"/>
<path d="M4.66982 34.9547C3.95791 34.9547 3.38076 34.3775 3.38076 33.6656V30.8125H3.28906C2.57716 30.8125 2 30.2353 2 29.5234C2 28.8115 2.57716 28.2344 3.28906 28.2344H4.66982C5.38173 28.2344 5.95888 28.8115 5.95888 29.5234V33.6656C5.95888 34.3775 5.38173 34.9547 4.66982 34.9547Z" fill="#559CFF"/>
<path d="M36.4265 43.2382H4.6698C3.95789 43.2382 3.38074 42.6611 3.38074 41.9492V33.6648C3.38074 32.9529 3.95789 32.3757 4.6698 32.3757H26.2275L28.6114 29.9918C29.1147 29.4884 29.931 29.4884 30.4344 29.9918L32.2844 31.8417L33.444 30.6822C33.9473 30.1787 34.7636 30.1787 35.267 30.6822L37.3381 32.7533C37.5798 32.995 37.7157 33.3228 37.7157 33.6647V41.9491C37.7156 42.6611 37.1385 43.2382 36.4265 43.2382Z" fill="#B1D1FF"/>
<path d="M12.9542 45.9994C15.1912 45.9994 17.0047 44.186 17.0047 41.9489C17.0047 39.7119 15.1912 37.8984 12.9542 37.8984C10.7172 37.8984 8.90369 39.7119 8.90369 41.9489C8.90369 44.186 10.7172 45.9994 12.9542 45.9994Z" fill="#074BAA"/>
<path d="M29.523 45.9994C31.76 45.9994 33.5735 44.186 33.5735 41.9489C33.5735 39.7119 31.76 37.8984 29.523 37.8984C27.2859 37.8984 25.4725 39.7119 25.4725 41.9489C25.4725 44.186 27.2859 45.9994 29.523 45.9994Z" fill="#074BAA"/>
<path d="M44.7109 46H36.4266C35.7147 46 35.1375 45.4228 35.1375 44.7109V3.28906C35.1375 2.57716 35.7147 2 36.4266 2H44.7109C45.4229 2 46 2.57716 46 3.28906V44.7109C46 45.4228 45.4229 46 44.7109 46Z" fill="#559CFF"/>
<path d="M28.6115 23.5309C26.979 21.8988 26.9486 19.2281 28.6115 17.5656C29.2457 16.9314 29.2574 15.8923 28.6115 15.2465C28.108 14.7432 28.1079 13.9271 28.6113 13.4236C29.1146 12.92 29.9308 12.92 30.4343 13.4234C32.0666 15.0553 32.0973 17.726 30.4343 19.3887C29.8001 20.0229 29.7884 21.0619 30.4343 21.7078C30.9377 22.2111 30.9378 23.0272 30.4344 23.5307C29.9319 24.0333 29.1157 24.0351 28.6115 23.5309Z" fill="#B1D1FF"/>
<path d="M21.7079 23.5309C20.0754 21.8988 20.045 19.2281 21.7079 17.5656C22.3421 16.9314 22.3539 15.8924 21.7079 15.2465C21.2045 14.7432 21.2044 13.927 21.7077 13.4236C22.2111 12.9201 23.0273 12.92 23.5307 13.4234C25.1608 15.0531 25.1953 17.7246 23.5307 19.3888C22.8952 20.0242 22.8859 21.0631 23.5307 21.7078C24.0341 22.2111 24.0342 23.0272 23.5309 23.5307C23.0283 24.0333 22.2122 24.0351 21.7079 23.5309Z" fill="#B1D1FF"/>
</svg>
