<svg width="48" height="48" viewBox="0 0 48 48" fill="none" xmlns="http://www.w3.org/2000/svg">
<path d="M17.7639 28.8698C17.6199 28.8698 17.4745 28.842 17.3361 28.7847C16.9181 28.6115 16.6456 28.2037 16.6456 27.7512V9.94713C16.6456 6.66782 19.3135 4 22.5927 4H39.8936C43.1729 4 45.8408 6.66782 45.8408 9.94713V18.4297C45.8408 21.709 43.1729 24.3768 39.8936 24.3768H22.7205L18.5551 28.5421C18.3411 28.7562 18.055 28.8698 17.7639 28.8698Z" fill="#B1D1FF"/>
<path d="M39.1563 15.4216H40.7158C40.6845 15.9328 40.5437 16.3865 40.2934 16.7829C40.0465 17.1793 39.7005 17.4888 39.2554 17.7113C38.8139 17.9338 38.2819 18.0451 37.6595 18.0451C37.1727 18.0451 36.7363 17.9616 36.3503 17.7947C35.9644 17.6244 35.634 17.381 35.3593 17.0646C35.0881 16.7481 34.8812 16.3657 34.7387 15.9171C34.5961 15.4686 34.5248 14.9661 34.5248 14.4098V13.883C34.5248 13.3267 34.5979 12.8243 34.7439 12.3757C34.8934 11.9237 35.1055 11.5395 35.3802 11.2231C35.6584 10.9066 35.9904 10.6632 36.3764 10.4929C36.7624 10.3225 37.1935 10.2373 37.6699 10.2373C38.3027 10.2373 38.8365 10.352 39.2711 10.5815C39.7092 10.811 40.0482 11.1274 40.2881 11.5308C40.5315 11.9341 40.6776 12.3931 40.7263 12.9077H39.1616C39.1442 12.6017 39.0833 12.3427 38.979 12.1306C38.8747 11.915 38.7165 11.7533 38.5044 11.6455C38.2958 11.5343 38.0176 11.4786 37.6699 11.4786C37.4091 11.4786 37.1814 11.5273 36.9866 11.6247C36.7919 11.722 36.6285 11.8698 36.4964 12.068C36.3642 12.2662 36.2651 12.5165 36.1991 12.819C36.1365 13.1181 36.1052 13.4693 36.1052 13.8726V14.4098C36.1052 14.8027 36.1347 15.1487 36.1939 15.4477C36.253 15.7433 36.3434 15.9936 36.4651 16.1988C36.5902 16.4004 36.7502 16.5534 36.9449 16.6577C37.1431 16.7586 37.3813 16.809 37.6595 16.809C37.9863 16.809 38.2558 16.7568 38.4679 16.6525C38.68 16.5482 38.8417 16.3935 38.9529 16.1883C39.0677 15.9832 39.1355 15.7276 39.1563 15.4216Z" fill="#074BAA"/>
<path d="M28.8241 13.8778L30.2844 12.9338C30.5 12.7912 30.6443 12.6539 30.7173 12.5217C30.7904 12.3896 30.8269 12.2418 30.8269 12.0784C30.8269 11.915 30.766 11.7637 30.6443 11.6247C30.5226 11.4821 30.3522 11.4108 30.1332 11.4108C29.9767 11.4108 29.8446 11.4473 29.7368 11.5203C29.629 11.5899 29.5473 11.6838 29.4917 11.802C29.4395 11.9202 29.4134 12.0523 29.4134 12.1984C29.4134 12.3548 29.4552 12.5148 29.5386 12.6782C29.6221 12.8382 29.7351 13.0085 29.8776 13.1893C30.0202 13.3667 30.1784 13.5597 30.3522 13.7683L33.9354 17.9408H32.2299L29.3091 14.5611C29.0622 14.2551 28.8467 13.9752 28.6624 13.7213C28.4781 13.464 28.3338 13.2137 28.2295 12.9703C28.1252 12.7269 28.073 12.4765 28.073 12.2192C28.073 11.8229 28.1582 11.4769 28.3286 11.1813C28.499 10.8823 28.7389 10.6511 29.0483 10.4877C29.3578 10.3208 29.7212 10.2373 30.1384 10.2373C30.5313 10.2373 30.8721 10.319 31.1607 10.4824C31.4493 10.6424 31.6718 10.8545 31.8283 11.1187C31.9882 11.383 32.0682 11.6733 32.0682 11.9898C32.0682 12.2262 32.0247 12.4453 31.9378 12.6469C31.8509 12.8451 31.7309 13.0294 31.5779 13.1998C31.4249 13.3667 31.2493 13.5214 31.0511 13.664L29.3874 14.8479C29.2587 14.9661 29.1613 15.0826 29.0953 15.1974C29.0292 15.3121 28.984 15.4216 28.9597 15.5259C28.9353 15.6268 28.9232 15.7241 28.9232 15.818C28.9232 16.0197 28.9666 16.2005 29.0536 16.3604C29.1405 16.5204 29.2622 16.6456 29.4186 16.736C29.5751 16.8264 29.7577 16.8716 29.9663 16.8716C30.2514 16.8716 30.5278 16.809 30.7956 16.6838C31.0633 16.5586 31.3032 16.3796 31.5153 16.1466C31.7274 15.9102 31.8961 15.6303 32.0213 15.3069C32.1464 14.9835 32.209 14.6271 32.209 14.2377H33.4816C33.4816 14.6271 33.4434 14.9974 33.3669 15.3486C33.2904 15.6963 33.167 16.0197 32.9966 16.3187C32.8262 16.6143 32.6002 16.8768 32.3186 17.1063C32.2977 17.1237 32.2681 17.1497 32.2299 17.1845C32.1951 17.2158 32.1656 17.2401 32.1412 17.2575C31.8074 17.5253 31.4597 17.7252 31.0981 17.8573C30.7365 17.986 30.3331 18.0503 29.8881 18.0503C29.3804 18.0503 28.9405 17.9582 28.5685 17.7739C28.1999 17.5896 27.9148 17.3358 27.7131 17.0124C27.5149 16.689 27.4158 16.3187 27.4158 15.9015C27.4158 15.5955 27.4749 15.3295 27.5932 15.1035C27.7149 14.874 27.8818 14.6619 28.0939 14.4672C28.306 14.2725 28.5494 14.076 28.8241 13.8778Z" fill="#074BAA"/>
<path d="M24.4951 10.3457V17.9397H22.9356V10.3457H24.4951ZM26.8317 10.3457V11.5714H20.6355V10.3457H26.8317Z" fill="#074BAA"/>
<path d="M4.34518 41.2563L9.40867 35.1891L2.15918 33.1816L3.60908 28.9658L10.7024 31.8878L10.1671 24.0361H14.9183L14.3383 32.044L21.2755 29.1888L22.7031 33.4493L15.3421 35.4568L20.2271 41.3679L16.3905 44L12.2862 37.442L8.18184 43.7769L4.34518 41.2563Z" fill="#559CFF"/>
</svg>
