<svg width="40" height="40" viewBox="0 0 40 40" fill="none" xmlns="http://www.w3.org/2000/svg">
<circle cx="20" cy="20" r="20" fill="white"/>
<path d="M19.8153 29.2386C18.5881 29.2386 17.4972 29.0284 16.5426 28.608C15.5938 28.1875 14.8438 27.6023 14.2926 26.8523C13.7415 26.1023 13.4489 25.2358 13.4148 24.2528H16.6193C16.6477 24.7244 16.804 25.1364 17.0881 25.4886C17.3722 25.8352 17.75 26.1051 18.2216 26.2983C18.6932 26.4915 19.2216 26.5881 19.8068 26.5881C20.4318 26.5881 20.9858 26.4801 21.4688 26.2642C21.9517 26.0426 22.3295 25.7358 22.6023 25.3438C22.875 24.9517 23.0085 24.5 23.0028 23.9886C23.0085 23.4602 22.8722 22.9943 22.5938 22.5909C22.3153 22.1875 21.9119 21.8722 21.3835 21.6449C20.8608 21.4176 20.2301 21.304 19.4915 21.304H17.9489V18.8665H19.4915C20.0994 18.8665 20.6307 18.7614 21.0852 18.5511C21.5455 18.3409 21.9063 18.0455 22.1676 17.6648C22.429 17.2784 22.5568 16.8324 22.5511 16.3267C22.5568 15.8324 22.446 15.4034 22.2188 15.0398C21.9972 14.6705 21.6818 14.3835 21.2727 14.179C20.8693 13.9744 20.3949 13.8722 19.8494 13.8722C19.3153 13.8722 18.821 13.9687 18.3665 14.1619C17.9119 14.3551 17.5455 14.6307 17.267 14.9886C16.9886 15.3409 16.8409 15.7614 16.8239 16.25H13.7812C13.804 15.2727 14.0852 14.4148 14.625 13.6761C15.1705 12.9318 15.8977 12.3523 16.8068 11.9375C17.7159 11.517 18.7358 11.3068 19.8665 11.3068C21.0313 11.3068 22.0426 11.5256 22.9006 11.9631C23.7642 12.3949 24.4318 12.9773 24.9034 13.7102C25.375 14.4432 25.6108 15.2528 25.6108 16.1392C25.6165 17.1222 25.3267 17.946 24.7415 18.6108C24.1619 19.2756 23.4006 19.7102 22.4574 19.9148V20.0511C23.6847 20.2216 24.625 20.6761 25.2784 21.4148C25.9375 22.1477 26.2642 23.0597 26.2585 24.1506C26.2585 25.1278 25.9801 26.0028 25.4233 26.7756C24.8722 27.5426 24.1108 28.1449 23.1392 28.5824C22.1733 29.0199 21.0653 29.2386 19.8153 29.2386Z" fill="#006DB7"/>
</svg>
