<svg width="34" height="34" viewBox="0 0 34 34" fill="none" xmlns="http://www.w3.org/2000/svg">
<path d="M31.7149 8.84113L32.9299 7.62613C33.1713 7.42549 33.3681 7.17656 33.5076 6.89533C33.647 6.6141 33.7261 6.3068 33.7397 5.99318C33.7533 5.67956 33.7011 5.36657 33.5865 5.07432C33.4719 4.78207 33.2975 4.51704 33.0743 4.29625C32.8512 4.07547 32.5843 3.90382 32.2908 3.79235C31.9974 3.68087 31.6838 3.63204 31.3704 3.64898C31.0569 3.66592 30.7505 3.74826 30.4708 3.89072C30.191 4.03317 29.9442 4.23258 29.7462 4.47613L16.8649 17.3236L11.7012 12.1599C11.279 11.7377 10.7064 11.5005 10.1093 11.5005C9.51222 11.5005 8.9396 11.7377 8.51741 12.1599C8.09522 12.5821 7.85803 13.1547 7.85803 13.7518C7.85803 14.3488 8.09522 14.9214 8.51741 15.3436L15.2674 22.0936C15.689 22.5127 16.2592 22.7479 16.8537 22.7479C17.4481 22.7479 18.0183 22.5127 18.4399 22.0936L28.3287 12.2161C29.4098 14.9181 29.5041 17.9147 28.5949 20.6794C27.6857 23.444 25.8313 25.7997 23.3574 27.3326C20.8836 28.8655 17.9486 29.4775 15.0683 29.061C12.188 28.6445 9.54658 27.2262 7.60829 25.0553C5.67 22.8844 4.55882 20.0999 4.47003 17.1909C4.38123 14.282 5.3205 11.4349 7.12276 9.14979C8.92503 6.86473 11.475 5.28796 14.3245 4.69656C17.1741 4.10516 20.1409 4.53698 22.7037 5.91613C23.2182 6.10117 23.7825 6.09252 24.2911 5.8918C24.7997 5.69108 25.2178 5.31203 25.4672 4.82549C25.7167 4.33894 25.7805 3.7782 25.6466 3.24807C25.5128 2.71793 25.1905 2.25468 24.7399 1.94488C21.1602 0.0591874 17.0222 -0.477606 13.0799 0.432322C9.13756 1.34225 5.65338 3.63832 3.26227 6.90214C0.871158 10.1659 -0.267715 14.1802 0.0531867 18.2134C0.374088 22.2467 2.1334 26.0304 5.01053 28.875C7.88766 31.7197 11.6911 33.4359 15.7277 33.711C19.7643 33.9861 23.7654 32.8017 27.0018 30.3737C30.2383 27.9457 32.4947 24.4356 33.3598 20.4832C34.2249 16.5308 33.6411 12.3992 31.7149 8.84113Z" fill="#006DB7"/>
</svg>
