<svg width="40" height="40" viewBox="0 0 40 40" fill="none" xmlns="http://www.w3.org/2000/svg">
<circle cx="20" cy="20" r="20" fill="white"/>
<path d="M13.5511 29V26.7159L19.6108 20.7756C20.1903 20.1903 20.6733 19.6705 21.0597 19.2159C21.446 18.7614 21.7358 18.321 21.929 17.8949C22.1222 17.4687 22.2188 17.0142 22.2188 16.5312C22.2188 15.9801 22.0938 15.5085 21.8438 15.1165C21.5938 14.7188 21.25 14.4119 20.8125 14.196C20.375 13.9801 19.8778 13.8722 19.321 13.8722C18.7472 13.8722 18.2443 13.9915 17.8125 14.2301C17.3807 14.4631 17.0455 14.7955 16.8068 15.2273C16.5739 15.6591 16.4574 16.1733 16.4574 16.7699H13.4489C13.4489 15.6619 13.7017 14.6989 14.2074 13.8807C14.7131 13.0625 15.4091 12.429 16.2955 11.9801C17.1875 11.5312 18.2102 11.3068 19.3636 11.3068C20.5341 11.3068 21.5625 11.5256 22.4489 11.9631C23.3352 12.4006 24.0227 13 24.5114 13.7614C25.0057 14.5227 25.2528 15.392 25.2528 16.3693C25.2528 17.0227 25.1278 17.6648 24.8778 18.2955C24.6278 18.9261 24.1875 19.625 23.5568 20.392C22.9318 21.1591 22.054 22.0881 20.9233 23.179L17.9148 26.2386V26.358H25.517V29H13.5511Z" fill="#006DB7"/>
</svg>
