<svg width="48" height="48" viewBox="0 0 48 48" fill="none" xmlns="http://www.w3.org/2000/svg">
<g clip-path="url(#clip0_16_23)">
<path d="M4.21875 48C1.89258 48 0 46.1074 0 43.7812C0 41.4551 1.89258 39.5625 4.21875 39.5625C6.54492 39.5625 8.4375 41.4551 8.4375 43.7812C8.4375 46.1074 6.54492 48 4.21875 48Z" fill="#006DB7"/>
<path d="M44.9553 16.0426C44.1189 15.3505 43.6794 14.2892 43.7812 13.2056C44.0105 10.7377 43.1455 8.32617 41.4097 6.59033C39.6738 4.85449 37.2594 4.00195 34.7944 4.21875C33.6932 4.31909 32.6481 3.88074 31.9574 3.04468C30.356 1.10962 28.002 0 25.5 0C22.998 0 20.644 1.10962 19.0426 3.04468C18.3505 3.88367 17.2947 4.32458 16.2056 4.21875C13.7311 3.99646 11.3247 4.85449 9.59033 6.59033C7.85449 8.32617 6.9895 10.7377 7.21875 13.2056C7.32056 14.2903 6.8822 15.3505 6.04468 16.0426C4.10962 17.644 3 19.998 3 22.5C3 25.002 4.10962 27.356 6.04468 28.9574C6.8811 29.6495 7.32056 30.7108 7.21875 31.7944C6.9895 34.2623 7.85449 36.6738 9.59033 38.4097C11.3276 40.1481 13.7556 41.0215 16.2041 40.7798C17.2917 40.6754 18.3494 41.1178 19.0426 41.9553C20.644 43.8904 22.998 45 25.5 45C28.002 45 30.356 43.8904 31.9574 41.9553C32.6495 41.1178 33.7013 40.6794 34.7944 40.7798C37.2473 40.99 39.6724 40.1455 41.4097 38.4097C43.1455 36.6738 44.0105 34.2623 43.7812 31.7944C43.6798 30.7094 44.1178 29.6492 44.9553 28.957C46.8904 27.356 48 25.002 48 22.5C48 19.998 46.8904 17.644 44.9553 16.0426ZM15.6562 25.3125C14.1057 25.3125 12.8438 24.0505 12.8438 22.5C12.8438 20.9495 14.1057 19.6875 15.6562 19.6875C17.2068 19.6875 18.4688 20.9495 18.4688 22.5C18.4688 24.0505 17.2068 25.3125 15.6562 25.3125ZM25.5 25.3125C23.9495 25.3125 22.6875 24.0505 22.6875 22.5C22.6875 20.9495 23.9495 19.6875 25.5 19.6875C27.0505 19.6875 28.3125 20.9495 28.3125 22.5C28.3125 24.0505 27.0505 25.3125 25.5 25.3125ZM35.3438 25.3125C33.7932 25.3125 32.5312 24.0505 32.5312 22.5C32.5312 20.9495 33.7932 19.6875 35.3438 19.6875C36.8943 19.6875 38.1562 20.9495 38.1562 22.5C38.1562 24.0505 36.8943 25.3125 35.3438 25.3125Z" fill="#006DB7"/>
</g>
<defs>
<clipPath id="clip0_16_23">
<rect width="48" height="48" fill="white"/>
</clipPath>
</defs>
</svg>
