<svg width="40" height="40" viewBox="0 0 40 40" fill="none" xmlns="http://www.w3.org/2000/svg">
<path d="M20.0119 32.2344H11.4099C9.74274 32.2344 8.26836 31.1717 7.74116 29.5901L4.47395 19.7883C4.232 19.0625 4.10938 18.3067 4.10938 17.5417C4.10938 13.6244 7.29629 10.4375 11.2135 10.4375H20.2083C24.1256 10.4375 27.3125 13.6244 27.3125 17.5417C27.3125 18.3067 27.1899 19.0625 26.9479 19.7883L23.6806 29.5901C23.1535 31.1717 21.6791 32.2344 20.0119 32.2344Z" fill="#B1D1FF"/>
<path d="M17.8199 9.73438C17.5734 9.73438 17.3259 9.64845 17.1258 9.47345C16.6875 9.08989 16.643 8.42354 17.0266 7.98521L21.9485 2.36021C22.1488 2.13127 22.4381 2 22.7422 2H28.3672C28.9497 2 29.4219 2.47222 29.4219 3.05469C29.4219 3.63716 28.9497 4.10938 28.3672 4.10938H23.2208L18.6141 9.37416C18.4055 9.61252 18.1135 9.73438 17.8199 9.73438Z" fill="#559CFF"/>
<path d="M13.602 9.73438C13.3084 9.73438 13.0164 9.61252 12.8078 9.37416L8.20107 4.10938H3.05469C2.47222 4.10938 2 3.63716 2 3.05469C2 2.47222 2.47222 2 3.05469 2H8.67969C8.98379 2 9.27313 2.13127 9.47345 2.36021L14.3953 7.98521C14.7789 8.42354 14.7344 9.08989 14.2961 9.47345C14.096 9.64845 13.8485 9.73438 13.602 9.73438Z" fill="#559CFF"/>
<path d="M17.8203 9.75034H13.6016C13.0191 9.75034 12.5469 9.27812 12.5469 8.69565V5.16406C12.5469 3.4194 13.9663 2 15.7109 2C17.4556 2 18.875 3.4194 18.875 5.16406V8.69565C18.875 9.27812 18.4028 9.75034 17.8203 9.75034Z" fill="#B1D1FF"/>
<path d="M15.7109 16.0625C18.2351 16.0625 20.2812 14.0163 20.2812 11.4922C20.2812 8.96807 18.2351 6.92188 15.7109 6.92188C13.1868 6.92188 11.1406 8.96807 11.1406 11.4922C11.1406 14.0163 13.1868 16.0625 15.7109 16.0625Z" fill="#559CFF"/>
<path d="M15.7109 13.9531C17.0701 13.9531 18.1719 12.8513 18.1719 11.4922C18.1719 10.133 17.0701 9.03125 15.7109 9.03125C14.3518 9.03125 13.25 10.133 13.25 11.4922C13.25 12.8513 14.3518 13.9531 15.7109 13.9531Z" fill="#FFFA8C"/>
<path d="M15.7109 38C13.9635 38 12.5469 36.5834 12.5469 34.8359V27.5234C12.5469 25.776 13.9635 24.3594 15.7109 24.3594C17.4584 24.3594 18.875 25.776 18.875 27.5234V34.8359C18.875 36.5834 17.4584 38 15.7109 38Z" fill="#074BAA"/>
<path d="M29.9141 31.8828C29.812 31.8828 29.7099 31.868 29.611 31.8383C27.3445 31.1584 25.3998 29.7954 23.9873 27.897C22.5748 25.9985 21.8281 23.7442 21.8281 21.3779V15.3594C21.8281 14.7769 22.3003 14.3047 22.8828 14.3047C24.2156 14.3047 25.4138 13.5642 26.0097 12.3721L26.1582 12.0753C26.3368 11.7179 26.702 11.4922 27.1016 11.4922H32.7266C33.1261 11.4922 33.4913 11.7179 33.6699 12.0752L33.8184 12.3721C34.4143 13.5642 35.6125 14.3047 36.9453 14.3047C37.5278 14.3047 38 14.7769 38 15.3594V21.3779C38 23.7442 37.2534 25.9985 35.8408 27.897C34.4283 29.7954 32.4836 31.1584 30.2171 31.8383C30.1182 31.868 30.0162 31.8828 29.9141 31.8828Z" fill="#559CFF"/>
<path d="M23.9375 16.3158V21.378C23.9375 25.1929 26.3261 28.5066 29.9141 29.7213C33.502 28.5066 35.8906 25.1929 35.8906 21.378V16.3158C34.2945 16.0145 32.9068 15.0361 32.085 13.6016H27.7432C26.9214 15.0361 25.5337 16.0145 23.9375 16.3158Z" fill="#EDF4FF"/>
<path d="M28.9197 24.7309C28.6498 24.7309 28.3799 24.628 28.174 24.4219L26.1853 22.4332C25.7734 22.0213 25.7734 21.3536 26.1853 20.9417C26.5971 20.5298 27.2649 20.5298 27.6768 20.9417L28.9198 22.1846L32.1515 18.953C32.5633 18.5411 33.2312 18.5411 33.6431 18.953C34.0549 19.3649 34.0549 20.0326 33.6431 20.4445L29.6656 24.4219C29.4596 24.628 29.1897 24.7309 28.9197 24.7309Z" fill="#074BAA"/>
</svg>
