<svg width="40" height="41" viewBox="0 0 40 41" fill="none" xmlns="http://www.w3.org/2000/svg">
<path d="M13.109 19.5057C12.7014 19.9093 12.0346 19.9149 11.6202 19.5006L4.13996 12.0204C3.67932 11.5597 3.76335 10.862 4.22251 10.4232L5.70002 9.00973C6.88444 7.82734 8.92113 7.83664 10.1356 9.04586L14.6144 13.5268C15.8536 14.7659 15.8536 16.782 14.6144 18.0211C14.6124 18.0232 14.6113 18.0242 14.6093 18.0263L13.109 19.5057Z" fill="#559CFF"/>
<path d="M28.0808 35.9621L20.6006 28.4819C20.19 28.0713 20.1879 27.4068 20.5954 26.993L22.075 25.4929C23.3193 24.2475 25.3343 24.2486 26.5745 25.4877L31.0544 29.9666C32.2626 31.1769 32.275 33.2073 31.0844 34.4093L29.676 35.8816C29.2403 36.3376 28.542 36.4232 28.0808 35.9621Z" fill="#559CFF"/>
<path d="M21.348 26.2341L20.6083 26.9948C20.1857 27.3962 19.5095 27.3962 19.087 26.9948L13.107 21.0148C12.7056 20.5922 12.7056 19.9159 13.107 19.4935L13.8677 18.7538L4.88732 9.77344L4.14783 10.5341C1.25297 13.4291 1.23184 18.0989 4.14783 20.9725L11.6279 28.4739H11.649L19.1291 35.954C22.0451 38.8911 26.715 38.8065 29.5675 35.954L30.3283 35.2145L21.348 26.2341Z" fill="#B1D1FF"/>
<path d="M37.9244 25.8975C38.1779 26.4046 37.9666 27.0386 37.4383 27.3133L33.2122 29.4263C32.515 29.7644 31.6909 29.2572 31.6909 28.4755V24.2494C31.6909 23.6577 32.1557 23.1929 32.7474 23.1929C33.3392 23.1929 33.804 23.6577 33.804 24.2494V25.158C35.1775 22.9815 35.917 20.4881 35.917 17.9103C35.917 14.1279 34.3746 10.6836 31.8812 8.21137C29.4088 5.71799 25.9645 4.17554 22.1823 4.17554C18.8437 4.17554 15.6107 5.42216 13.0751 7.66198C12.6525 8.04233 11.9762 8.00014 11.5959 7.57753C11.1945 7.13372 11.2368 6.45755 11.6805 6.0772C14.5964 3.47816 18.3153 2.0625 22.1823 2.0625C26.5562 2.0625 30.5076 3.83738 33.3814 6.71118C36.2551 9.58491 38.03 13.5362 38.03 17.9103C38.03 20.6572 37.2905 23.3197 35.9593 25.6863L36.5087 25.4116C37.0158 25.158 37.6497 25.3692 37.9244 25.8975Z" fill="#559CFF"/>
<path d="M24.3838 20.0009C24.3838 20.5925 23.919 21.0574 23.3273 21.0574H19.1012C18.8054 21.0574 18.5518 20.9307 18.3617 20.7404C18.0235 20.3813 17.9179 19.8107 18.256 19.367L22.0595 14.2957C22.5878 13.5983 22.0805 12.6052 21.2142 12.6052C20.6225 12.6052 20.1577 13.07 20.1577 13.6617C20.1577 15.0563 18.0447 15.0563 18.0447 13.6617C18.0447 11.9079 19.4603 10.4922 21.2142 10.4922C22.9681 10.4922 24.3838 11.9079 24.3838 13.6617C24.3838 14.1477 24.2781 14.6126 24.0668 15.0351C23.9823 15.2254 23.8767 15.3944 23.7499 15.5634C23.6442 15.6902 23.5808 15.7959 23.5174 15.8592V15.8804C23.4963 15.9015 23.4963 15.9015 23.4963 15.9015C23.3484 16.0916 22.7989 16.8312 21.2142 18.9443H23.3272C23.919 18.9444 24.3838 19.4092 24.3838 20.0009Z" fill="#074BAA"/>
<path d="M30.723 15.775V20.0011C30.723 20.5926 30.2582 21.0576 29.6665 21.0576C29.0747 21.0576 28.6099 20.5926 28.6099 20.0011V18.9445H25.4404C24.7219 18.9445 24.2147 18.226 24.4473 17.5499L25.9052 13.2181L26.5604 11.2107C26.7293 10.6614 27.3211 10.3656 27.8914 10.5557C28.0605 10.598 28.1873 10.6825 28.2929 10.8093C28.5676 11.084 28.6734 11.5066 28.5465 11.8869L26.8984 16.8315H28.6099V15.775C28.6099 15.1833 29.0747 14.7185 29.6665 14.7185C30.2582 14.7185 30.723 15.1833 30.723 15.775Z" fill="#074BAA"/>
</svg>
