<svg width="40" height="41" viewBox="0 0 40 41" fill="none" xmlns="http://www.w3.org/2000/svg">
<path d="M26.3808 27.5518V30.4864C26.3808 32.0293 25.1257 33.2844 23.5828 33.2844H21.984C20.4411 33.2844 19.186 32.0293 19.186 30.4864V28.0882H24.3822C25.1097 28.0882 25.7924 27.8923 26.3808 27.5518Z" fill="#074BAA"/>
<path d="M9.59301 28.0883V30.4866C9.59301 32.0295 8.33793 33.2846 6.79505 33.2846H5.19622C3.65334 33.2846 2.39825 32.0295 2.39825 30.4866V27.6087C2.39825 27.5895 2.39905 27.5711 2.39985 27.5527C2.98823 27.8933 3.67013 28.0883 4.3968 28.0883H9.59301Z" fill="#074BAA"/>
<path d="M26.2187 16.8998L24.4009 9.62814C23.9997 8.02386 22.5647 6.90332 20.9109 6.90332H7.86811C6.21435 6.90332 4.77932 8.02386 4.37825 9.62822L2.56038 16.8998C1.05067 17.5968 0 19.1241 0 20.8931V24.0908C0 26.5152 1.9724 28.4876 4.3968 28.4876H24.3822C26.8066 28.4876 28.779 26.5152 28.779 24.0908V20.8931C28.779 19.1241 27.7284 17.5968 26.2187 16.8998Z" fill="#559CFF"/>
<path d="M6.70474 10.2101C6.83849 9.67525 7.31678 9.30176 7.86806 9.30176H20.9109C21.4622 9.30176 21.9404 9.67525 22.0742 10.21L23.6458 16.4965H5.13309L6.70474 10.2101Z" fill="#EDF4FF"/>
<path d="M5.99564 23.6912C6.65789 23.6912 7.19476 23.1544 7.19476 22.4921C7.19476 21.8298 6.65789 21.293 5.99564 21.293C5.33338 21.293 4.79651 21.8298 4.79651 22.4921C4.79651 23.1544 5.33338 23.6912 5.99564 23.6912Z" fill="#EDF4FF"/>
<path d="M22.7834 23.6912C23.4457 23.6912 23.9825 23.1544 23.9825 22.4921C23.9825 21.8298 23.4457 21.293 22.7834 21.293C22.1211 21.293 21.5843 21.8298 21.5843 22.4921C21.5843 23.1544 22.1211 23.6912 22.7834 23.6912Z" fill="#EDF4FF"/>
<path d="M17.9869 21.293H10.7921C10.1299 21.293 9.59302 21.8299 9.59302 22.4921C9.59302 23.1543 10.1299 23.6912 10.7921 23.6912H17.9869C18.6491 23.6912 19.186 23.1543 19.186 22.4921C19.186 21.8299 18.6491 21.293 17.9869 21.293Z" fill="#B1D1FF"/>
<path d="M37.5576 33.2842H32.6726C32.2229 33.2842 31.8584 32.9197 31.8584 32.47V23.8399C31.8584 23.3902 32.2229 23.0257 32.6726 23.0257H37.5576C38.0072 23.0257 38.3717 23.3902 38.3717 23.8399V32.47C38.3717 32.9197 38.0072 33.2842 37.5576 33.2842Z" fill="#074BAA"/>
<path d="M37.5576 25.7393H32.6726C31.3258 25.7393 30.2301 24.6436 30.2301 23.2968V17.9233C30.2301 16.5765 31.3258 15.4808 32.6726 15.4808H34.3009L35.1151 16.6206L35.9293 15.4808H37.5576C38.9044 15.4808 40.0001 16.5765 40.0001 17.9233V23.2968C40.0001 24.6436 38.9044 25.7393 37.5576 25.7393Z" fill="#B1D1FF"/>
<path d="M34.3009 15.4819V16.2864V18.033V19.3669C34.3009 19.8053 34.6378 20.1825 35.0757 20.2032C35.5433 20.2252 35.9292 19.8526 35.9292 19.3899V18.033V16.2961V15.4819H34.3009Z" fill="#EDF4FF"/>
<path d="M35.1151 15.5898C33.3194 15.5898 31.8584 14.1289 31.8584 12.3332C31.8584 10.5375 33.3194 9.07653 35.1151 9.07653C36.9108 9.07653 38.3717 10.5375 38.3717 12.3332C38.3717 14.1289 36.9108 15.5898 35.1151 15.5898Z" fill="#559CFF"/>
</svg>
