<svg width="40" height="41" viewBox="0 0 40 41" fill="none" xmlns="http://www.w3.org/2000/svg">
<path d="M2.03125 12.2555V13.4347L16.8423 14.8386L17.5443 10.8261L16.8423 8.23438H6.05239C3.83514 8.2343 2.03125 10.0383 2.03125 12.2555Z" fill="#074BAA"/>
<path d="M27.6323 8.23438H16.8423V14.8387L31.6534 13.4348V12.2556C31.6535 10.0383 29.8496 8.23438 27.6323 8.23438Z" fill="#074BAA"/>
<path d="M2.03125 13.4346V33.0367C2.03125 33.6181 2.50265 34.0895 3.08411 34.0895H16.8423L17.5443 22.6404L16.8423 13.4346H2.03125Z" fill="#B1D1FF"/>
<path d="M16.8423 34.0895H28.1978L31.6535 33.0367V13.4346H16.8423V34.0895Z" fill="#B1D1FF"/>
<path d="M15.2998 21.9707H16.6533C17.0869 21.9707 17.4443 21.8975 17.7256 21.751C18.0068 21.5986 18.2148 21.3877 18.3496 21.1182C18.4902 20.8428 18.5605 20.5234 18.5605 20.1602C18.5605 19.832 18.4961 19.542 18.3672 19.29C18.2441 19.0322 18.0537 18.833 17.7959 18.6924C17.5381 18.5459 17.2129 18.4727 16.8203 18.4727C16.5098 18.4727 16.2227 18.5342 15.959 18.6572C15.6953 18.7803 15.4844 18.9531 15.3262 19.1758C15.168 19.3984 15.0889 19.668 15.0889 19.9844H12.5488C12.5488 19.2812 12.7363 18.6689 13.1113 18.1475C13.4922 17.626 14.002 17.2188 14.6406 16.9258C15.2793 16.6328 15.9824 16.4863 16.75 16.4863C17.6172 16.4863 18.376 16.627 19.0264 16.9082C19.6768 17.1836 20.1836 17.5908 20.5469 18.1299C20.9102 18.6689 21.0918 19.3369 21.0918 20.1338C21.0918 20.5381 20.998 20.9307 20.8105 21.3115C20.623 21.6865 20.3535 22.0264 20.002 22.3311C19.6562 22.6299 19.2344 22.8701 18.7363 23.0518C18.2383 23.2275 17.6787 23.3154 17.0576 23.3154H15.2998V21.9707ZM15.2998 23.8955V22.5859H17.0576C17.7549 22.5859 18.3672 22.665 18.8945 22.8232C19.4219 22.9814 19.8643 23.21 20.2217 23.5088C20.5791 23.8018 20.8486 24.1504 21.0303 24.5547C21.2119 24.9531 21.3027 25.3955 21.3027 25.8818C21.3027 26.4795 21.1885 27.0127 20.96 27.4814C20.7314 27.9443 20.4092 28.3369 19.9932 28.6592C19.583 28.9814 19.1025 29.2275 18.5518 29.3975C18.001 29.5615 17.4004 29.6436 16.75 29.6436C16.2109 29.6436 15.6807 29.5703 15.1592 29.4238C14.6436 29.2715 14.1748 29.0459 13.7529 28.7471C13.3369 28.4424 13.0029 28.0615 12.751 27.6045C12.5049 27.1416 12.3818 26.5938 12.3818 25.9609H14.9219C14.9219 26.2891 15.0039 26.582 15.168 26.8398C15.332 27.0977 15.5576 27.2998 15.8447 27.4463C16.1377 27.5928 16.4629 27.666 16.8203 27.666C17.2246 27.666 17.5703 27.5928 17.8574 27.4463C18.1504 27.2939 18.373 27.083 18.5254 26.8135C18.6836 26.5381 18.7627 26.2188 18.7627 25.8555C18.7627 25.3867 18.6777 25.0117 18.5078 24.7305C18.3379 24.4434 18.0947 24.2324 17.7783 24.0977C17.4619 23.9629 17.0869 23.8955 16.6533 23.8955H15.2998Z" fill="#EDF4FF"/>
<path d="M9.10147 10.3722C8.52001 10.3722 8.04861 9.90079 8.04861 9.31933V7.14954C8.04861 6.56808 8.52001 6.09668 9.10147 6.09668C9.68293 6.09668 10.1543 6.56808 10.1543 7.14954V9.31933C10.1543 9.90079 9.68293 10.3722 9.10147 10.3722Z" fill="#B1D1FF"/>
<path d="M14.2621 10.3722C13.6806 10.3722 13.2092 9.90079 13.2092 9.31933V7.14954C13.2092 6.56808 13.6806 6.09668 14.2621 6.09668C14.8436 6.09668 15.315 6.56808 15.315 7.14954V9.31933C15.315 9.90079 14.8436 10.3722 14.2621 10.3722Z" fill="#B1D1FF"/>
<path d="M19.4226 10.3722C18.8411 10.3722 18.3697 9.90079 18.3697 9.31933V7.14954C18.3697 6.56808 18.8411 6.09668 19.4226 6.09668C20.004 6.09668 20.4754 6.56808 20.4754 7.14954V9.31933C20.4754 9.90079 20.004 10.3722 19.4226 10.3722Z" fill="#B1D1FF"/>
<path d="M24.5832 10.3722C24.0018 10.3722 23.5304 9.90079 23.5304 9.31933V7.14954C23.5304 6.56808 24.0018 6.09668 24.5832 6.09668C25.1647 6.09668 25.6361 6.56808 25.6361 7.14954V9.31933C25.6361 9.90079 25.1647 10.3722 24.5832 10.3722Z" fill="#B1D1FF"/>
<path d="M35.0827 15.4544C34.8555 15.3075 34.5074 15.1101 34.1354 14.9078C33.5975 14.6153 32.9423 15.0047 32.9423 15.617V19.2986C32.9423 19.7444 32.5809 20.1058 32.1351 20.1058H29.9528C29.507 20.1058 29.1456 19.7444 29.1456 19.2986V15.617C29.1456 15.0047 28.4904 14.6153 27.9525 14.9078C27.5805 15.1101 27.2323 15.3075 27.0052 15.4544C24.8852 16.8255 23.8545 18.8649 24.1774 21.0495L24.1819 21.0754C24.436 22.3507 25.0498 23.4485 26.0065 24.3382C27.3991 25.6337 28.1979 27.4986 28.1979 29.4548V34.0896H33.89V29.4548C33.89 27.4986 34.6888 25.6337 36.0814 24.3382C37.0381 23.4484 37.652 22.3507 37.906 21.0754L37.9105 21.0495C38.2334 18.8649 37.2027 16.8256 35.0827 15.4544Z" fill="#559CFF"/>
</svg>
