<svg width="40" height="40" viewBox="0 0 40 40" fill="none" xmlns="http://www.w3.org/2000/svg">
<rect width="40" height="40" rx="2" fill="#DBEAFF"/>
<path d="M19.125 29.2187C18.4115 29.2083 17.7083 29.0781 17.0156 28.8281C16.3281 28.5781 15.7031 28.1615 15.1406 27.5781C14.5781 26.9948 14.1276 26.2109 13.7891 25.2266C13.4557 24.2422 13.2891 23.013 13.2891 21.5391C13.2891 20.1432 13.4271 18.9036 13.7031 17.8203C13.9844 16.737 14.388 15.8229 14.9141 15.0781C15.4401 14.3281 16.0755 13.7578 16.8203 13.3672C17.5651 12.9766 18.401 12.7812 19.3281 12.7812C20.2813 12.7812 21.1276 12.9687 21.8672 13.3437C22.6068 13.7187 23.2057 14.237 23.6641 14.8984C24.1276 15.5599 24.4219 16.3125 24.5469 17.1562H22.1641C22.0026 16.4896 21.6823 15.9453 21.2031 15.5234C20.724 15.1016 20.099 14.8906 19.3281 14.8906C18.1563 14.8906 17.2422 15.401 16.5859 16.4219C15.9349 17.4427 15.6068 18.862 15.6016 20.6797H15.7188C15.9948 20.2266 16.3333 19.8411 16.7344 19.5234C17.1406 19.2005 17.5938 18.9531 18.0938 18.7812C18.599 18.6042 19.1302 18.5156 19.6875 18.5156C20.6146 18.5156 21.4531 18.7422 22.2031 19.1953C22.9583 19.6432 23.5599 20.263 24.0078 21.0547C24.4557 21.8464 24.6797 22.7526 24.6797 23.7734C24.6797 24.7943 24.4479 25.7187 23.9844 26.5469C23.526 27.375 22.8802 28.0312 22.0469 28.5156C21.2135 28.9948 20.2396 29.2292 19.125 29.2187ZM19.1172 27.1875C19.7318 27.1875 20.2813 27.0365 20.7656 26.7344C21.25 26.4323 21.6328 26.026 21.9141 25.5156C22.1953 25.0052 22.3359 24.4349 22.3359 23.8047C22.3359 23.1901 22.1979 22.6302 21.9219 22.125C21.651 21.6198 21.276 21.2187 20.7969 20.9219C20.3229 20.625 19.7813 20.4766 19.1719 20.4766C18.7083 20.4766 18.2786 20.5651 17.8828 20.7422C17.4922 20.9193 17.1484 21.1641 16.8516 21.4766C16.5547 21.7891 16.3203 22.1484 16.1484 22.5547C15.9818 22.9557 15.8984 23.3802 15.8984 23.8281C15.8984 24.4271 16.0365 24.9818 16.3125 25.4922C16.5938 26.0026 16.9766 26.4141 17.4609 26.7266C17.9505 27.0339 18.5026 27.1875 19.1172 27.1875Z" fill="#006DB7"/>
</svg>
