<svg width="40" height="41" viewBox="0 0 40 41" fill="none" xmlns="http://www.w3.org/2000/svg">
<path d="M2.00047 20.0938C2.00047 24.7801 3.83858 29.2803 7.08216 32.6265L2.41391 36.2016C1.61551 36.8131 2.04969 38.0937 3.05516 38.0937C17.1876 38.0935 19.5904 38.094 20.0003 38.0935L20.7034 37.039V3.21875L20.0003 2.09375C10.0522 2.09375 2.00047 10.1443 2.00047 20.0938Z" fill="#B1D1FF"/>
<path d="M20.0002 2.09375V38.0935C20.1058 38.0934 20.0792 38.0932 20.0867 38.0929C29.9606 38.0465 38 30.0444 38 20.0938C38 10.1457 29.9495 2.09375 20.0002 2.09375Z" fill="#B1D1FF"/>
<path d="M15.625 26.125L13.0625 30.875" stroke="#074BAA" stroke-width="2" stroke-linecap="round"/>
<path d="M18.0625 26.125L20.625 30.875" stroke="#074BAA" stroke-width="2" stroke-linecap="round"/>
<path d="M30.9505 12.7913C30.5563 12.628 30.1026 12.7182 29.8011 13.0199L25.2734 17.5476L24.2734 13.7657C24.2734 13.1832 23.8012 12.711 23.2188 12.711H19V27.4766H23.2188C23.8012 27.4766 24.2734 27.0044 24.2734 26.4219L25.2734 22.64L29.8011 27.1677C30.0029 27.3695 30.2727 27.4767 30.5472 27.4767C30.683 27.4767 30.82 27.4504 30.9505 27.3964C31.3446 27.2331 31.6016 26.8486 31.6016 26.422V13.7657C31.6016 13.3391 31.3446 12.9545 30.9505 12.7913Z" fill="#074BAA"/>
<path d="M9.84286 12.7109C9.04515 12.7109 8.39844 13.1832 8.39844 13.7656V26.4219C8.39844 27.0043 9.04515 27.4766 9.84286 27.4766H24.2496C24.8021 27.4766 25.2498 27.0286 25.2496 26.4762L25.2448 13.7106C25.2446 13.1584 24.797 12.7109 24.2448 12.7109H9.84286Z" fill="#559CFF"/>
<path d="M21.4766 17.6328C22.0591 17.6328 22.5312 17.1606 22.5312 16.5781C22.5312 15.9956 22.0591 15.5234 21.4766 15.5234C20.8941 15.5234 20.4219 15.9956 20.4219 16.5781C20.4219 17.1606 20.8941 17.6328 21.4766 17.6328Z" fill="#EDF4FF"/>
</svg>
