<svg width="40" height="40" viewBox="0 0 40 40" fill="none" xmlns="http://www.w3.org/2000/svg">
<rect width="40" height="40" rx="2" fill="#DBEAFF"/>
<path d="M14.5391 29V27.25L19.9531 21.6406C20.5313 21.0312 21.0078 20.4974 21.3828 20.0391C21.763 19.5755 22.0469 19.1354 22.2344 18.7187C22.4219 18.3021 22.5156 17.8594 22.5156 17.3906C22.5156 16.8594 22.3906 16.401 22.1406 16.0156C21.8906 15.625 21.5495 15.3255 21.1172 15.1172C20.6849 14.9036 20.1979 14.7969 19.6562 14.7969C19.0833 14.7969 18.5833 14.9141 18.1562 15.1484C17.7292 15.3828 17.401 15.7135 17.1719 16.1406C16.9427 16.5677 16.8281 17.0677 16.8281 17.6406H14.5234C14.5234 16.6667 14.7474 15.8151 15.1953 15.0859C15.6432 14.3568 16.2578 13.7917 17.0391 13.3906C17.8203 12.9844 18.7083 12.7812 19.7031 12.7812C20.7083 12.7812 21.5938 12.9818 22.3594 13.3828C23.1302 13.7786 23.7318 14.3203 24.1641 15.0078C24.5964 15.6901 24.8125 16.4609 24.8125 17.3203C24.8125 17.9141 24.7005 18.4948 24.4766 19.0625C24.2578 19.6302 23.875 20.263 23.3281 20.9609C22.7813 21.6536 22.0208 22.4948 21.0469 23.4844L17.8672 26.8125V26.9297H25.0703V29H14.5391Z" fill="#006DB7"/>
</svg>
