<svg width="38" height="39" viewBox="0 0 38 39" fill="none" xmlns="http://www.w3.org/2000/svg">
<circle cx="19" cy="19" r="19" transform="matrix(-1 0 0 1 38 0.5)" fill="#AC5FEA"/>
<g clip-path="url(#clip0_1167_363)">
<path fill-rule="evenodd" clip-rule="evenodd" d="M18.2917 23.2083C18.4792 23.3958 18.7335 23.5011 18.9987 23.5011C19.2638 23.5011 19.5182 23.3958 19.7057 23.2083L25.3627 17.5513C25.4582 17.4591 25.5344 17.3487 25.5868 17.2267C25.6392 17.1047 25.6668 16.9735 25.6679 16.8407C25.6691 16.7079 25.6438 16.5763 25.5935 16.4534C25.5432 16.3305 25.469 16.2188 25.3751 16.1249C25.2812 16.031 25.1695 15.9568 25.0466 15.9065C24.9237 15.8562 24.7921 15.8309 24.6593 15.8321C24.5265 15.8332 24.3953 15.8608 24.2733 15.9132C24.1513 15.9656 24.0409 16.0418 23.9487 16.1373L18.9987 21.0873L14.0487 16.1373C13.8601 15.9552 13.6075 15.8544 13.3453 15.8566C13.0831 15.8589 12.8323 15.9641 12.6469 16.1495C12.4615 16.3349 12.3563 16.5857 12.354 16.8479C12.3517 17.1101 12.4525 17.3627 12.6347 17.5513L18.2917 23.2083Z" fill="white"/>
</g>
<defs>
<clipPath id="clip0_1167_363">
<rect width="24" height="24" fill="white" transform="matrix(-1 0 0 1 31 7.5)"/>
</clipPath>
</defs>
</svg>
