<svg width="37" height="38" viewBox="0 0 37 38" fill="none" xmlns="http://www.w3.org/2000/svg">
<circle cx="18.5" cy="19" r="18.5" fill="#0A0B0F"/>
<path d="M27.25 15.9941C27.2483 16.0921 27.2272 16.1888 27.1875 16.2783C27.1489 16.3655 27.0922 16.4429 27.0234 16.5088L27.0244 16.5098L19.0117 24.5332L18.9014 24.625C18.8618 24.6518 18.8197 24.6748 18.7754 24.6934C18.6865 24.7306 18.5905 24.75 18.4941 24.75C18.3979 24.75 18.3027 24.7305 18.2139 24.6934C18.1254 24.6563 18.046 24.6014 17.9785 24.5332L17.9775 24.5342L9.96973 16.5127C9.89956 16.4451 9.84335 16.3643 9.80566 16.2744C9.76808 16.1848 9.75016 16.0884 9.75098 15.9912C9.75215 15.7981 9.82924 15.614 9.96582 15.4775L9.96484 15.4766C10.0325 15.4084 10.1135 15.3544 10.2021 15.3174C10.2909 15.2804 10.3863 15.2608 10.4824 15.2607C10.5786 15.2607 10.6739 15.2804 10.7627 15.3174C10.8514 15.3544 10.9323 15.4083 11 15.4766L18.4951 22.9824L25.9912 15.4756L25.9922 15.4766C26.0579 15.4078 26.1357 15.3512 26.2227 15.3125C26.3122 15.2727 26.4089 15.2517 26.5068 15.25C26.6048 15.2484 26.7021 15.267 26.793 15.3037C26.8839 15.3405 26.9668 15.3954 27.0361 15.4648C27.1052 15.5341 27.1596 15.6164 27.1963 15.707C27.233 15.798 27.2516 15.8961 27.25 15.9941Z" fill="white" stroke="white" stroke-width="0.5"/>
</svg>
