<svg width="170" height="72" viewBox="0 0 170 72" fill="none" xmlns="http://www.w3.org/2000/svg">
<g clip-path="url(#clip0_699_5080)">
<rect width="170" height="72" rx="6" fill="#845EF7" fill-opacity="0.08"/>
<g clip-path="url(#clip1_699_5080)">
<path d="M101.5 55.2551H101.255V55.1182H101.914V55.2551H101.671V55.9386H101.5V55.2551ZM102.814 55.2908H102.811L102.568 55.9388H102.457L102.216 55.2908H102.213V55.9388H102.051V55.1184H102.289L102.512 55.6993L102.735 55.1184H102.972V55.9388H102.814L102.814 55.2908Z" fill="#E76F00"/>
<path d="M79.5808 38.4793C79.5808 38.4793 77.8773 39.4699 80.7932 39.8051C84.3257 40.2081 86.1311 40.1503 90.024 39.4136C90.024 39.4136 91.0474 40.0553 92.4768 40.6111C83.75 44.3512 72.7265 40.3945 79.5808 38.4793ZM78.5145 33.5986C78.5145 33.5986 76.6038 35.013 79.5219 35.3148C83.2954 35.7041 86.2754 35.7359 91.432 34.743C91.432 34.743 92.1454 35.4661 93.2669 35.8615C82.7156 38.9468 70.9636 36.1048 78.5145 33.5986Z" fill="#5382A1"/>
<path d="M87.5045 25.3195C89.6547 27.7951 86.9396 30.023 86.9396 30.023C86.9396 30.023 92.3993 27.2044 89.8919 23.6749C87.55 20.3833 85.7541 18.748 95.4765 13.1094C95.4766 13.1093 80.2155 16.9207 87.5045 25.3195Z" fill="#E76F00"/>
<path d="M99.0464 42.0895C99.0464 42.0895 100.307 43.1283 97.658 43.9318C92.6209 45.4578 76.6928 45.9185 72.268 43.9927C70.6774 43.3006 73.6602 42.3404 74.5985 42.1389C75.577 41.9267 76.1362 41.9662 76.1362 41.9662C74.3673 40.7201 64.7028 44.4129 71.2271 45.4706C89.0199 48.3561 103.662 44.1713 99.0464 42.0895ZM80.4005 28.542C80.4005 28.542 72.2984 30.4664 77.5313 31.1652C79.7408 31.461 84.1454 31.3941 88.248 31.0503C91.601 30.7675 94.9679 30.1662 94.9679 30.1662C94.9679 30.1662 93.7856 30.6726 92.9303 31.2565C84.7028 33.4205 68.8088 32.4137 73.3845 30.2004C77.2541 28.3298 80.4005 28.542 80.4005 28.542ZM94.9345 36.666C103.298 32.32 99.4313 28.1433 96.732 28.7061C96.0705 28.8438 95.7755 28.9631 95.7755 28.9631C95.7755 28.9631 96.0212 28.5784 96.49 28.4119C101.83 26.5346 105.936 33.9487 94.7663 36.8852C94.7663 36.8852 94.896 36.7696 94.9345 36.666Z" fill="#5382A1"/>
<path d="M89.892 4.00391C89.892 4.00391 94.5239 8.63725 85.4988 15.7623C78.2617 21.4776 83.8485 24.7364 85.4958 28.4599C81.2715 24.6482 78.1713 21.2931 80.2512 18.1703C83.3038 13.5864 91.7609 11.3639 89.892 4.00391Z" fill="#E76F00"/>
<path d="M81.2219 48.442C89.25 48.9559 101.578 48.1569 101.87 44.3584C101.87 44.3584 101.309 45.7983 95.235 46.942C88.3831 48.2314 79.9319 48.081 74.9194 47.2546C74.9197 47.2543 75.9457 48.1037 81.2219 48.442Z" fill="#5382A1"/>
<path d="M79.9064 62.9574C79.1491 63.6143 78.3492 63.9831 77.6314 63.9831C76.6069 63.9831 76.0533 63.3687 76.0533 62.3833C76.0533 61.3175 76.6465 60.5381 79.0258 60.5381H79.9063L79.9064 62.9574ZM81.9961 65.3152V58.0169C81.9961 56.1523 80.9328 54.9222 78.3689 54.9222C76.8722 54.9222 75.5611 55.2918 74.4954 55.7631L74.803 57.055C75.6421 56.7471 76.7281 56.4604 77.7941 56.4604C79.271 56.4604 79.9064 57.055 79.9064 58.2844V59.207H79.1693C75.5809 59.207 73.9622 60.5999 73.9622 62.6906C73.9622 64.495 75.0289 65.5207 77.0374 65.5207C78.3284 65.5207 79.2922 64.9875 80.1931 64.2075L80.3566 65.3154L81.9961 65.3152ZM88.9702 65.3152H86.3639L83.2272 55.107H85.5034L87.4496 61.3789L87.8823 63.2651C88.8669 60.5379 89.5635 57.771 89.9118 55.107H92.1259C91.5325 58.4684 90.4651 62.158 88.9702 65.3152ZM98.9686 62.9574C98.2098 63.6143 97.4086 63.9831 96.6907 63.9831C95.668 63.9831 95.113 63.3687 95.113 62.3833C95.113 61.3175 95.7074 60.5381 98.0865 60.5381H98.9686V62.9574ZM101.058 65.3152V58.0169C101.058 56.1523 99.9922 54.9222 97.4311 54.9222C95.9334 54.9222 94.6218 55.2918 93.5566 55.7631L93.8639 57.055C94.7031 56.7471 95.7912 56.4604 96.8564 56.4604C98.3322 56.4604 98.9686 57.055 98.9686 58.2844V59.207H98.2301C94.6408 59.207 93.0227 60.5999 93.0227 62.6906C93.0227 64.495 94.0886 65.5207 96.0967 65.5207C97.3886 65.5207 98.3519 64.9875 99.2543 64.2075L99.4184 65.3154L101.058 65.3152ZM71.6709 67.0486C71.0752 67.9184 70.113 68.6065 69.0596 68.9958L68.0278 67.7817C68.8296 67.3703 69.5172 66.7058 69.8367 66.0871C70.1131 65.5366 70.2275 64.8273 70.2275 63.1308V51.4766H72.4477V62.9711C72.4475 65.239 72.2662 66.1552 71.6709 67.0486Z" fill="#E76F00"/>
</g>
</g>
<defs>
<clipPath id="clip0_699_5080">
<rect width="170" height="72" rx="6" fill="white"/>
</clipPath>
<clipPath id="clip1_699_5080">
<rect width="34.944" height="65" fill="white" transform="translate(68.0278 4)"/>
</clipPath>
</defs>
</svg>
