<svg width="170" height="72" viewBox="0 0 170 72" fill="none" xmlns="http://www.w3.org/2000/svg">
<g clip-path="url(#clip0_699_5065)">
<rect width="170" height="72" rx="6" fill="#845EF7" fill-opacity="0.08"/>
<g clip-path="url(#clip1_699_5065)">
<path d="M144.823 30.2373C144.48 30.2373 144.146 30.3082 143.851 30.4754L134.502 35.874C133.898 36.2227 133.53 36.8809 133.53 37.5813V48.359C133.53 49.0588 133.898 49.7162 134.502 50.0657L136.944 51.4751C138.13 52.0597 138.567 52.0505 139.107 52.0505C140.863 52.0505 141.866 50.9849 141.866 49.133V38.4941C141.866 38.3438 141.736 38.2362 141.588 38.2362H140.417C140.267 38.2362 140.139 38.3438 140.139 38.4941V49.133C140.139 49.9537 139.284 50.7794 137.897 50.0856L135.356 48.597C135.266 48.5482 135.197 48.4619 135.197 48.359V37.581C135.197 37.479 135.265 37.375 135.356 37.3231L144.685 31.9446C144.727 31.92 144.775 31.907 144.823 31.907C144.872 31.907 144.92 31.92 144.962 31.9446L154.291 37.3234C154.38 37.3769 154.45 37.4759 154.45 37.5816V48.3592C154.45 48.4621 154.398 48.5675 154.311 48.6172L144.962 53.9959C144.882 54.0436 144.772 54.0436 144.685 53.9959L142.283 52.567C142.246 52.5471 142.205 52.5368 142.164 52.5368C142.122 52.5368 142.081 52.5471 142.045 52.567C141.382 52.9427 141.257 52.9863 140.635 53.202C140.482 53.2555 140.25 53.3385 140.715 53.5992L143.851 55.4448C144.147 55.6153 144.482 55.7044 144.824 55.703C145.165 55.7051 145.501 55.616 145.796 55.445L155.145 50.066C155.75 49.7143 156.117 49.0591 156.117 48.3592V37.5813C156.117 36.8812 155.75 36.2241 155.145 35.8745L145.796 30.4759C145.503 30.3085 145.167 30.2376 144.824 30.2376L144.823 30.2373Z" fill="#83CD29"/>
<path d="M147.324 37.9385C144.662 37.9385 143.077 39.0714 143.077 40.9556C143.077 42.9992 144.65 43.5608 147.205 43.8135C150.262 44.1128 150.5 44.5617 150.5 45.1633C150.5 46.2069 149.668 46.6519 147.702 46.6519C145.231 46.6519 144.688 46.035 144.506 44.8061C144.485 44.6742 144.383 44.5677 144.248 44.5677H143.037C142.888 44.5677 142.759 44.6963 142.759 44.8458C142.759 46.419 143.615 48.2794 147.702 48.2794C150.66 48.2794 152.366 47.1183 152.366 45.0839C152.366 43.0673 150.988 42.5258 148.118 42.1465C145.219 41.7628 144.942 41.5749 144.942 40.896C144.942 40.3354 145.177 39.5856 147.324 39.5856C149.243 39.5856 149.952 39.9994 150.242 41.293C150.267 41.4143 150.374 41.5112 150.5 41.5112H151.711C151.785 41.5112 151.858 41.4654 151.909 41.4119C151.96 41.3548 151.996 41.2905 151.989 41.2135C151.801 38.9862 150.316 37.9385 147.324 37.9385Z" fill="#83CD29"/>
<path d="M89.8634 16.1056C89.7589 16.1057 89.6563 16.133 89.5655 16.1848C89.4753 16.2375 89.4005 16.3129 89.3483 16.4034C89.2961 16.4939 89.2684 16.5964 89.2679 16.7009V31.8849C89.2679 32.0339 89.1986 32.1674 89.0695 32.2421C89.0062 32.279 88.9343 32.2984 88.8611 32.2984C88.7879 32.2984 88.716 32.279 88.6527 32.2421L86.1716 30.8132C85.9906 30.7085 85.7852 30.6533 85.5761 30.6533C85.3671 30.6533 85.1617 30.7085 84.9807 30.8132L75.0764 36.5293C74.7062 36.7431 74.4811 37.1539 74.4811 37.5815V49.014C74.4811 49.441 74.7065 49.8322 75.0764 50.046L84.9807 55.7624C85.1616 55.8674 85.367 55.9227 85.5761 55.9227C85.7853 55.9227 85.9907 55.8674 86.1716 55.7624L96.0759 50.046C96.2572 49.9416 96.4078 49.7913 96.5123 49.61C96.6169 49.4288 96.6718 49.2232 96.6714 49.014V20.5119C96.6712 20.2978 96.6141 20.0876 96.506 19.9028C96.3979 19.7179 96.2427 19.5651 96.0563 19.4598L90.1611 16.1649C90.0687 16.1133 89.9661 16.1042 89.8634 16.1056ZM26.1503 30.3765C25.9616 30.3839 25.784 30.417 25.6146 30.5153L15.7101 36.2317C15.5286 36.3359 15.378 36.4863 15.2734 36.6675C15.1689 36.8488 15.1141 37.0544 15.1148 37.2637L15.1346 52.6068C15.1346 52.8201 15.2447 53.0184 15.4323 53.1227C15.5222 53.1767 15.6251 53.2053 15.7301 53.2053C15.835 53.2053 15.9379 53.1767 16.0279 53.1227L21.9029 49.7486C22.275 49.5274 22.5181 49.1428 22.5181 48.7164V41.5511C22.5181 41.1235 22.7429 40.7313 23.1136 40.5188L25.6143 39.07C25.7951 38.9649 26.0008 38.91 26.2099 38.9111C26.4141 38.9111 26.6237 38.9621 26.8052 39.07L29.3062 40.5188C29.4878 40.623 29.6386 40.7733 29.7432 40.9547C29.8478 41.136 29.9025 41.3418 29.9018 41.5511V48.7161C29.9018 49.1426 30.1473 49.5299 30.517 49.7484L36.392 53.1227C36.4819 53.1767 36.5849 53.2053 36.6898 53.2053C36.7947 53.2053 36.8976 53.1767 36.9876 53.1227C37.0781 53.0703 37.1533 52.9951 37.2056 52.9045C37.2578 52.8139 37.2854 52.7112 37.2855 52.6066L37.3048 37.2637C37.306 37.0543 37.2515 36.8484 37.1469 36.6671C37.0423 36.4857 36.8913 36.3355 36.7095 36.2317L26.8052 30.5153C26.6378 30.417 26.4596 30.3842 26.2695 30.3765H26.1503ZM115.15 30.5153C114.943 30.5153 114.74 30.5677 114.555 30.6741L104.65 36.3906C104.469 36.4949 104.319 36.6453 104.214 36.8265C104.109 37.0077 104.054 37.2133 104.055 37.4226V48.8551C104.055 49.2852 104.297 49.6747 104.67 49.8874L114.495 55.4846C114.858 55.6915 115.301 55.7072 115.666 55.5039L121.621 52.1895C121.81 52.0846 121.937 51.8888 121.938 51.6736C121.939 51.5688 121.912 51.4657 121.86 51.3749C121.807 51.2841 121.732 51.2091 121.641 51.1575L111.677 45.441C111.49 45.3346 111.359 45.1191 111.359 44.905V41.3326C111.359 41.1188 111.492 40.923 111.677 40.8165L114.773 39.03C114.863 38.9776 114.966 38.95 115.071 38.95C115.175 38.95 115.278 38.9776 115.369 39.03L118.465 40.8165C118.555 40.8686 118.631 40.9438 118.683 41.0343C118.735 41.1249 118.763 41.2277 118.762 41.3324V44.1508C118.762 44.2554 118.79 44.3582 118.842 44.4488C118.894 44.5394 118.969 44.6146 119.06 44.6667C119.246 44.774 119.47 44.7743 119.655 44.6667L125.59 41.2137C125.771 41.109 125.922 40.9585 126.026 40.7773C126.131 40.5961 126.186 40.3906 126.186 40.1815V37.4228C126.186 36.9966 125.96 36.6046 125.59 36.3906L115.746 30.6741C115.565 30.5695 115.359 30.5144 115.15 30.5153ZM85.5363 39.0501C85.5881 39.0501 85.6488 39.0628 85.6952 39.0896L89.0894 41.0546C89.1815 41.1078 89.2483 41.2063 89.2483 41.3125V45.2424C89.2483 45.3492 89.1821 45.4474 89.0894 45.5006L85.6952 47.4656C85.6498 47.4915 85.5985 47.5051 85.5463 47.5051C85.4941 47.5051 85.4428 47.4915 85.3975 47.4656L82.0036 45.5006C81.9112 45.4471 81.8447 45.3492 81.8447 45.2424V41.3125C81.8447 41.206 81.9114 41.1084 82.0036 41.0546L85.3975 39.0899C85.4392 39.0639 85.4874 39.0503 85.5365 39.0504L85.5363 39.0501Z" fill="#404137"/>
<path d="M55.9028 30.4561C55.6964 30.4561 55.4923 30.5085 55.3075 30.615L45.4032 36.3115C45.0327 36.5247 44.8076 36.9363 44.8076 37.3634V48.7959C44.8076 49.2235 45.033 49.6141 45.4032 49.8282L55.3075 55.5443C55.4883 55.6494 55.6938 55.7047 55.9029 55.7047C56.1121 55.7047 56.3175 55.6494 56.4984 55.5443L66.4027 49.8282C66.584 49.7238 66.7345 49.5733 66.839 49.3921C66.9436 49.2108 66.9984 49.0052 66.998 48.7959V37.3634C66.998 36.9358 66.7729 36.5247 66.4027 36.3115L56.4984 30.615C56.3173 30.5104 56.1119 30.4556 55.9028 30.4561ZM115.13 40.6583C115.091 40.6583 115.047 40.6583 115.011 40.6781L113.106 41.7896C113.07 41.8093 113.041 41.8381 113.02 41.8729C112.999 41.9078 112.987 41.9475 112.987 41.9882V44.1714C112.987 44.2536 113.034 44.3289 113.106 44.37L115.011 45.4616C115.083 45.503 115.159 45.503 115.229 45.4616L117.135 44.3697C117.17 44.3499 117.2 44.3211 117.221 44.2864C117.242 44.2516 117.253 44.2119 117.254 44.1714V41.9879C117.253 41.9474 117.242 41.9077 117.221 41.8729C117.2 41.8382 117.17 41.8094 117.135 41.7896L115.229 40.6779C115.194 40.6572 115.17 40.6583 115.13 40.6583Z" fill="#83CD29"/>
</g>
</g>
<defs>
<clipPath id="clip0_699_5065">
<rect width="170" height="72" rx="6" fill="white"/>
</clipPath>
<clipPath id="clip1_699_5065">
<rect width="141.243" height="40" fill="white" transform="translate(14.8784 16)"/>
</clipPath>
</defs>
</svg>
