<svg width="170" height="72" viewBox="0 0 170 72" fill="none" xmlns="http://www.w3.org/2000/svg">
<g clip-path="url(#clip0_699_5073)">
<rect width="170" height="72" rx="6" fill="#845EF7" fill-opacity="0.08"/>
<path fill-rule="evenodd" clip-rule="evenodd" d="M85.4655 56C107.262 56 124.931 47.0454 124.931 36C124.931 24.9546 107.262 16 85.4655 16C63.6697 16 46 24.9546 46 36C46 47.0454 63.6697 56 85.4655 56Z" fill="#6E81B6"/>
<path fill-rule="evenodd" clip-rule="evenodd" d="M93.4602 42.4646L95.4178 32.3894C95.8597 30.1154 95.4923 28.4194 94.3264 27.3475C93.1968 26.3105 91.2793 25.8061 88.4647 25.8061H85.0744L86.0442 20.8143C86.0623 20.7214 86.0597 20.6256 86.0365 20.5339C86.0133 20.4421 85.97 20.3566 85.9099 20.2835C85.8497 20.2104 85.7741 20.1516 85.6885 20.1112C85.6029 20.0708 85.5094 20.0498 85.4147 20.0498H80.7355C80.4282 20.0498 80.1643 20.2679 80.1056 20.5695L78.0263 31.2655C77.8373 30.062 77.3716 29.0273 76.6261 28.1736C75.2536 26.6026 73.0828 25.8061 70.1731 25.8061H61.1039C60.7966 25.8061 60.5327 26.0242 60.474 26.3253L56.2663 47.976C56.2296 48.1645 56.2787 48.3583 56.4009 48.5062C56.5226 48.6546 56.7039 48.7401 56.8962 48.7401H61.6122C61.9195 48.7401 62.1834 48.522 62.2421 48.2199L63.26 42.9833H66.7705C68.6126 42.9833 70.1607 42.7838 71.369 42.3906C72.6046 41.9888 73.7418 41.3073 74.744 40.3691C75.5538 39.6251 76.2229 38.7918 76.7378 37.8932L75.8974 42.2188C75.8607 42.4073 75.9098 42.602 76.032 42.749C76.1537 42.8974 76.3355 42.9828 76.5274 42.9828H81.2065C81.5139 42.9828 81.7778 42.7647 81.8365 42.4636L84.1458 30.5793H87.3565C88.7247 30.5793 89.1256 30.8518 89.2349 30.9687C89.3337 31.0756 89.5389 31.4521 89.3084 32.639L87.4472 42.2183C87.4294 42.3112 87.4323 42.4069 87.4556 42.4985C87.479 42.5901 87.5224 42.6755 87.5825 42.7485C87.6427 42.8214 87.7182 42.8802 87.8037 42.9207C87.8892 42.9611 87.9826 42.9822 88.0771 42.9823H92.8308C92.9795 42.9826 93.1237 42.9311 93.2386 42.8366C93.3535 42.7421 93.4318 42.6106 93.4602 42.4646ZM71.7666 34.1399C71.4726 35.6503 70.919 36.7274 70.1201 37.3416C69.3089 37.9672 68.0113 38.2841 66.2632 38.2841H64.173L65.6843 30.5063H68.3869C70.3721 30.5063 71.1719 30.9305 71.4931 31.2861C71.9384 31.7795 72.0329 32.7669 71.7666 34.1399ZM113.17 28.1736C111.798 26.6026 109.627 25.8061 106.718 25.8061H97.6484C97.3405 25.8061 97.0771 26.0242 97.0184 26.3253L92.8112 47.976C92.774 48.1645 92.8231 48.3583 92.9453 48.5062C93.0675 48.6542 93.2493 48.7401 93.4402 48.7401H98.1566C98.4644 48.7401 98.7278 48.522 98.7865 48.2199L99.8045 42.9833H103.315C105.158 42.9833 106.705 42.7838 107.913 42.3906C109.149 41.9888 110.287 41.3073 111.288 40.3691C112.124 39.6012 112.812 38.7379 113.333 37.8059C113.854 36.8739 114.228 35.8345 114.446 34.7159C114.982 31.957 114.553 29.7561 113.17 28.1736ZM108.579 34.1399C108.284 35.6503 107.731 36.7274 106.933 37.3416C106.121 37.9672 104.823 38.2841 103.076 38.2841H100.985L102.496 30.5063H105.199C107.184 30.5063 107.984 30.9305 108.306 31.2861C108.75 31.7795 108.845 32.7669 108.579 34.1399Z" fill="white"/>
<path fill-rule="evenodd" clip-rule="evenodd" d="M68.3866 29.8641C70.1781 29.8641 71.3726 30.1949 71.9696 30.8563C72.5661 31.5177 72.7083 32.6535 72.3962 34.2622C72.0698 35.9378 71.4418 37.1337 70.5112 37.8505C69.5806 38.5673 68.1642 38.9252 66.2629 38.9252H63.3939L65.1548 29.8641H68.3866ZM56.8955 48.0979H61.6114L62.7305 42.3421H66.7702C68.5527 42.3421 70.0192 42.1546 71.1702 41.78C72.3213 41.4053 73.3679 40.7778 74.3094 39.8964C75.0997 39.1705 75.7392 38.3688 76.2288 37.4926C76.718 36.6164 77.0654 35.65 77.2711 34.593C77.7703 32.0264 77.3937 30.0273 76.1424 28.5957C74.8916 27.1635 72.9011 26.4477 70.1728 26.4477H61.1037L56.8955 48.0979ZM80.7348 20.6914H85.414L84.2954 26.4477H88.4644C91.0863 26.4477 92.8964 26.9049 93.8919 27.8197C94.8873 28.7345 95.1856 30.2173 94.7876 32.267L92.83 42.3421H88.0764L89.9376 32.7623C90.149 31.6723 90.0717 30.9293 89.7037 30.5327C89.3358 30.1366 88.5527 29.9381 87.3558 29.9381H83.6163L81.2058 42.3421H76.5266L80.7348 20.6914ZM105.199 29.8641C106.99 29.8641 108.184 30.1949 108.782 30.8563C109.378 31.5177 109.52 32.6535 109.208 34.2622C108.882 35.9378 108.254 37.1337 107.323 37.8505C106.393 38.5673 104.976 38.9252 103.076 38.9252H100.207L101.967 29.8641H105.199ZM93.7067 48.0979H98.4231L99.5417 42.3421H103.581C105.364 42.3421 106.831 42.1546 107.982 41.78C109.133 41.4053 110.18 40.7778 111.121 39.8964C111.911 39.1705 112.551 38.3688 113.04 37.4926C113.529 36.6164 113.877 35.65 114.083 34.593C114.582 32.0264 114.205 30.0273 112.955 28.5957C111.703 27.1635 109.713 26.4477 106.985 26.4477H97.9153L93.7067 48.0979Z" fill="black"/>
</g>
<defs>
<clipPath id="clip0_699_5073">
<rect width="170" height="72" rx="6" fill="white"/>
</clipPath>
</defs>
</svg>
