<svg width="170" height="72" viewBox="0 0 170 72" fill="none" xmlns="http://www.w3.org/2000/svg">
<g clip-path="url(#clip0_116_8432)">
<rect width="170" height="72" rx="6" fill="#EC696A" fill-opacity="0.08"/>
<g clip-path="url(#clip1_116_8432)">
<path d="M46.2638 27.1522C46.2749 27.1943 46.2804 27.2377 46.2803 27.2812V34.0411C46.2804 34.1279 46.2578 34.2131 46.2148 34.2883C46.1718 34.3634 46.1099 34.4258 46.0354 34.4691L40.4184 37.7351V44.2097C40.4185 44.2963 40.396 44.3814 40.3533 44.4565C40.3106 44.5316 40.2491 44.5941 40.175 44.6376L28.4541 51.4551C28.4267 51.4698 28.3981 51.482 28.3685 51.4916C28.358 51.4916 28.3475 51.5022 28.3354 51.5052C28.2537 51.5269 28.1678 51.5269 28.086 51.5052C28.0725 51.5052 28.0604 51.4946 28.0469 51.4885C28.019 51.4798 27.9918 51.4686 27.9658 51.4551L16.2449 44.6376C16.1704 44.5944 16.1086 44.532 16.0656 44.4569C16.0225 44.3817 15.9999 44.2964 16 44.2097V23.9362C16 23.8927 16.0055 23.8493 16.0165 23.8072C16.0165 23.7936 16.0286 23.7799 16.0331 23.7662C16.0414 23.7401 16.052 23.7147 16.0646 23.6904C16.0747 23.675 16.0858 23.6603 16.0977 23.6464C16.1108 23.6261 16.1254 23.6068 16.1413 23.5887C16.1565 23.5755 16.1726 23.5634 16.1893 23.5523C16.2061 23.5365 16.2242 23.5223 16.2434 23.5098L22.1039 20.101C22.1781 20.0579 22.2623 20.0352 22.348 20.0352C22.4337 20.0352 22.5179 20.0579 22.5922 20.101L28.4526 23.5098C28.4715 23.5229 28.4895 23.5371 28.5067 23.5523C28.5234 23.5635 28.5394 23.5757 28.5548 23.5887C28.5705 23.607 28.5851 23.6262 28.5984 23.6464C28.6103 23.6603 28.6213 23.675 28.6315 23.6904C28.644 23.7148 28.6545 23.7401 28.663 23.7662C28.663 23.7799 28.6765 23.7936 28.6795 23.8087C28.6906 23.8508 28.6962 23.8942 28.6961 23.9377V36.6045L33.5813 33.7633V27.2752C33.5813 27.2321 33.5869 27.1893 33.5978 27.1477C33.5978 27.1325 33.6098 27.1204 33.6143 27.1052C33.623 27.0791 33.6335 27.0538 33.6459 27.0293C33.6549 27.0126 33.6684 27.0005 33.6789 26.9853C33.6921 26.965 33.7066 26.9458 33.7225 26.9276C33.7378 26.9144 33.7538 26.9023 33.7706 26.8912C33.7876 26.8758 33.8057 26.8616 33.8247 26.8487L39.6851 23.4399C39.7594 23.3967 39.8436 23.3739 39.9293 23.3739C40.015 23.3739 40.0992 23.3967 40.1735 23.4399L46.0339 26.8487C46.0533 26.8616 46.0719 26.8758 46.0895 26.8912C46.1045 26.9033 46.1226 26.914 46.1361 26.9276C46.1518 26.9459 46.1664 26.9652 46.1797 26.9853C46.1918 26.9991 46.2028 27.0138 46.2127 27.0293C46.2253 27.0537 46.2359 27.079 46.2443 27.1052C46.2519 27.1204 46.2584 27.1361 46.2638 27.1522ZM45.3036 33.7557V28.1403L43.2525 29.3332L40.4184 30.9814V36.5969L45.3051 33.7557H45.3036ZM39.4432 43.9243V38.2997L36.6557 39.907L28.6916 44.495V50.1727L39.4432 43.9243ZM16.9692 24.7831V43.9243L27.7163 50.1727V44.4965L22.1024 41.2866C22.0694 41.2612 22.0363 41.2359 22.0032 41.2107C21.9885 41.1945 21.9749 41.1772 21.9626 41.1591C21.9497 41.1436 21.9376 41.1274 21.9265 41.1105C21.9163 41.0905 21.9077 41.0697 21.901 41.0483C21.8919 41.0302 21.8844 41.0114 21.8785 40.9921C21.8737 40.9686 21.8706 40.9448 21.8694 40.9208C21.8682 40.9021 21.8682 40.8833 21.8694 40.8646V27.6242L19.0354 25.976L16.9843 24.7846L16.9692 24.7831ZM22.3428 21.0905L17.4621 23.9362L22.3458 26.7758L27.2295 23.9362L22.3458 21.0966L22.3428 21.0905ZM24.8838 38.8097L27.7178 37.163V24.7831L25.6667 25.976L22.8311 27.6242V40.0056L24.8838 38.8097ZM39.9301 24.4401L35.0434 27.2752L39.927 30.1148L44.8107 27.2752L39.9301 24.4401ZM39.4417 30.9662L36.6076 29.318L34.5565 28.1251V33.7406L37.3905 35.3873L39.4432 36.5802L39.4417 30.9662ZM28.2047 43.6329L35.3679 39.5033L38.9503 37.4438L34.0711 34.6057L28.4526 37.8733L23.3225 40.8555L28.2047 43.6329Z" fill="#FF2D20"/>
</g>
<g clip-path="url(#clip2_116_8432)">
<path d="M56.706 26.1797V46.7981H64.1542V50.3493H52.7407V26.1797H56.706ZM78.1398 36.4307V34.2571H81.9086V50.3582H78.1577V48.1756C77.6397 48.9807 76.9252 49.6068 75.9964 50.0541C75.0676 50.5282 74.121 50.7518 73.1832 50.7518C71.9597 50.7518 70.8434 50.5282 69.8342 50.0809C68.8477 49.6527 67.96 49.0254 67.2264 48.2382C66.4991 47.4572 65.9236 46.5471 65.5296 45.5547C65.1237 44.5178 64.9206 43.4124 64.9312 42.2987C64.9312 41.1716 65.1366 40.0893 65.5385 39.0785C65.9279 38.073 66.5036 37.1503 67.2353 36.3592C67.9622 35.5677 68.8438 34.9344 69.8253 34.4986C70.8434 34.0513 71.9686 33.8277 73.1743 33.8277C74.112 33.8277 75.0497 34.0603 75.9785 34.5165C76.9073 34.9816 77.6218 35.6078 78.1219 36.4128L78.1398 36.4307ZM77.8004 44.2756C78.0357 43.6462 78.1567 42.9797 78.1577 42.3076C78.1577 41.6099 78.0326 40.9659 77.8004 40.3397C77.5866 39.7372 77.2591 39.1815 76.8359 38.7028C76.4136 38.2422 75.9034 37.8712 75.3355 37.6115C74.7249 37.3309 74.0604 37.1874 73.3886 37.1911C72.6742 37.1911 72.0312 37.3431 71.4596 37.6204C70.8997 37.8809 70.396 38.2486 69.9771 38.7028C69.5549 39.1792 69.233 39.7359 69.0304 40.3397C68.8089 40.972 68.6971 41.6376 68.7 42.3076C68.7 42.9964 68.8072 43.6494 69.0304 44.2756C69.2448 44.9017 69.5663 45.4384 69.9771 45.8857C70.3924 46.3531 70.8963 46.7331 71.4596 47.0038C72.0312 47.2722 72.6742 47.4153 73.3886 47.4153C74.1031 47.4153 74.755 47.2811 75.3355 47.0038C75.9051 46.7391 76.4155 46.3618 76.8359 45.8946C77.2562 45.4239 77.5835 44.8775 77.8004 44.2845V44.2756ZM84.8736 50.3582V34.2571H95.0725V37.9603H88.6245V50.3493H84.8736V50.3582ZM108.692 36.4307V34.2571H112.443V50.3582H108.692V48.1756C108.192 48.9807 107.468 49.6068 106.549 50.0541C105.611 50.5282 104.673 50.7518 103.726 50.7518C102.503 50.7518 101.387 50.5282 100.377 50.0809C99.3909 49.6527 98.5032 49.0254 97.7696 48.2382C97.0423 47.4572 96.4668 46.5471 96.0727 45.5547C95.67 44.5172 95.4699 43.4118 95.4833 42.2987C95.4833 41.1716 95.6798 40.0893 96.0817 39.0785C96.471 38.073 97.0468 37.1503 97.7785 36.3592C98.5054 35.5677 99.3869 34.9344 100.368 34.4986C101.387 34.0513 102.512 33.8277 103.717 33.8277C104.655 33.8277 105.593 34.0603 106.522 34.5165C107.451 34.9816 108.174 35.6078 108.665 36.4128L108.692 36.4307ZM108.353 44.2756C108.582 43.6451 108.697 42.9786 108.692 42.3076C108.692 41.6099 108.576 40.9659 108.353 40.3397C108.141 39.7379 107.817 39.1823 107.397 38.7028C106.969 38.2403 106.453 37.8691 105.879 37.6115C105.298 37.3431 104.646 37.1911 103.941 37.1911C103.226 37.1911 102.583 37.3431 102.003 37.6204C101.443 37.8809 100.939 38.2486 100.52 38.7028C100.098 39.1792 99.7762 39.7359 99.5736 40.3397C99.3551 40.9725 99.2464 41.6381 99.2521 42.3076C99.2521 42.9964 99.3593 43.6494 99.5736 44.2756C99.7969 44.9017 100.109 45.4384 100.52 45.8857C100.936 46.3531 101.44 46.7331 102.003 47.0038C102.583 47.2722 103.226 47.4153 103.941 47.4153C104.655 47.4153 105.298 47.2811 105.888 47.0038C106.464 46.7411 106.98 46.3637 107.406 45.8946C107.823 45.4231 108.147 44.8768 108.361 44.2845L108.353 44.2756ZM127.518 34.2571H131.331L125.169 50.3582H120.436L114.274 34.2571H118.069L122.802 46.5834L127.518 34.266V34.2571ZM139.521 33.8456C144.638 33.8456 148.13 38.3897 147.469 43.7031H134.993C134.993 45.0806 136.404 47.7641 139.726 47.7641C142.584 47.7641 144.504 45.2595 144.504 45.2595L147.041 47.2274C144.763 49.6426 142.906 50.7607 139.985 50.7607C134.788 50.7607 131.269 47.4511 131.269 42.2898C131.269 37.6115 134.913 33.8277 139.512 33.8277L139.521 33.8456ZM135.011 40.9122H144.031C143.995 40.5991 143.495 36.8333 139.494 36.8333C135.475 36.8333 135.047 40.6081 135.011 40.9122ZM149.925 50.3314V26.1797H153.676V50.3493H149.925V50.3314Z" fill="#FF2D20"/>
</g>
</g>
<defs>
<clipPath id="clip0_116_8432">
<rect width="170" height="72" rx="6" fill="white"/>
</clipPath>
<clipPath id="clip1_116_8432">
<rect width="30.432" height="31.3862" fill="white" transform="translate(16 20)"/>
</clipPath>
<clipPath id="clip2_116_8432">
<rect width="101.016" height="25.2137" fill="white" transform="translate(52.7407 26.1719)"/>
</clipPath>
</defs>
</svg>
