<svg width="170" height="72" viewBox="0 0 170 72" fill="none" xmlns="http://www.w3.org/2000/svg">
<g clip-path="url(#clip0_699_5057)">
<rect width="170" height="72" rx="6" fill="#845EF7" fill-opacity="0.08"/>
<g clip-path="url(#clip1_699_5057)">
<path d="M68.0647 33.0312C68.0647 28.8067 66.8602 26.6379 64.4508 26.5192C63.4921 26.474 62.5565 26.6266 61.6458 26.9802C60.9191 27.2401 60.43 27.4978 60.1727 27.758V37.8414C61.7137 38.8086 63.0821 39.2582 64.2756 39.1874C66.8004 39.0201 68.0647 36.9702 68.0647 33.0312ZM71.0365 33.2064C71.0365 35.3526 70.5331 37.1341 69.5207 38.5507C68.3925 40.1541 66.8288 40.9797 64.8297 41.025C63.3226 41.0728 61.77 40.6008 60.1724 39.611V48.7756L57.5879 47.8537V27.5117C58.012 26.9915 58.558 26.5448 59.2194 26.1656C60.7578 25.2692 62.6267 24.8085 64.8268 24.7859L64.8634 24.8224C66.8741 24.7972 68.4232 25.6228 69.512 27.2967C70.5273 28.8322 71.0365 30.8003 71.0365 33.2064ZM86.8317 39.2211C86.8317 42.0998 86.5433 44.0931 85.9666 45.2016C85.387 46.3097 84.284 47.1949 82.6554 47.854C81.3348 48.3741 79.9066 48.657 78.3743 48.7051L77.947 47.0765C79.5051 46.8647 80.6023 46.6524 81.2385 46.4403C82.4912 46.0162 83.3507 45.366 83.823 44.4949C84.2019 43.7853 84.3884 42.4308 84.3884 40.4262V39.7531C82.6211 40.5564 80.7691 40.955 78.8324 40.955C77.5597 40.955 76.4373 40.5564 75.4701 39.7531C74.3843 38.8794 73.8415 37.7712 73.8415 36.428V25.671L76.426 24.7859V35.6128C76.426 36.7691 76.7991 37.66 77.5455 38.2849C78.2919 38.9098 79.2591 39.2098 80.4439 39.1869C81.6287 39.1613 82.8982 38.7033 84.2469 37.8068V25.1758H86.8314L86.8317 39.2211ZM96.9206 40.8837C96.6375 40.9076 96.3535 40.9198 96.0694 40.9202C94.6076 40.9202 93.4678 40.5727 92.6538 39.8741C91.842 39.1758 91.435 38.2118 91.435 36.9815V26.8018H89.6648V25.1761H91.435V20.8582L94.0167 19.9391V25.1761H96.9206V26.8018H94.0167V36.9107C94.0167 37.8808 94.2766 38.5678 94.7967 38.9696C95.2435 39.3003 95.9534 39.4897 96.9203 39.5379V40.8837H96.9206ZM112.569 40.6716H109.984V30.6956C109.984 29.6805 109.747 28.8067 109.275 28.0774C108.729 27.2515 107.971 26.8386 106.998 26.8386C105.814 26.8386 104.332 27.4635 102.554 28.7133V40.6716H99.9693V16.826L102.554 16.0117V26.8726C104.205 25.6707 106.009 25.0684 107.969 25.0684C109.337 25.0684 110.445 25.5294 111.294 26.4485C112.145 27.3672 112.569 28.5125 112.569 29.8812L112.569 40.6716ZM126.306 32.6242C126.306 31.001 125.998 29.6608 125.384 28.6004C124.654 27.3083 123.52 26.6266 121.988 26.5561C119.154 26.72 117.74 28.7501 117.74 32.6413C117.74 34.4254 118.035 35.9157 118.628 37.1118C119.386 38.636 120.523 39.3882 122.039 39.3627C124.883 39.3397 126.306 37.0946 126.306 32.6242ZM129.136 32.641C129.136 34.9514 128.545 36.8742 127.366 38.4094C126.068 40.1288 124.276 40.991 121.988 40.991C119.72 40.991 117.953 40.1285 116.677 38.4094C115.521 36.8742 114.944 34.9514 114.944 32.641C114.944 30.4696 115.569 28.6428 116.819 27.1554C118.139 25.5776 119.875 24.7859 122.022 24.7859C124.168 24.7859 125.915 25.5776 127.261 27.1554C128.511 28.6428 129.136 30.4696 129.136 32.641ZM143.953 40.6716H141.368V30.1301C141.368 28.9738 141.021 28.0716 140.325 27.4212C139.63 26.7737 138.702 26.4598 137.545 26.485C136.319 26.5076 135.15 26.9091 134.042 27.6869V40.6716H131.458V27.3675C132.945 26.2848 134.314 25.5776 135.563 25.2468C136.742 24.9388 137.783 24.7859 138.679 24.7859C139.293 24.7859 139.87 24.8451 140.413 24.964C141.428 25.1987 142.254 25.6341 142.89 26.2732C143.6 26.9802 143.953 27.8282 143.953 28.8209V40.6716Z" fill="#646464"/>
<path d="M32.0614 16.9212C30.7316 16.9273 29.4618 17.0407 28.3446 17.2386C25.0531 17.8202 24.4555 19.0372 24.4555 21.282V24.2466H32.2337V25.2347H21.5362C19.2757 25.2347 17.2961 26.5935 16.677 29.1783C15.9628 32.1411 15.9311 33.99 16.677 37.0836C17.2299 39.3864 18.5505 41.0273 20.811 41.0273H23.4854V37.4735C23.4854 34.9061 25.7067 32.6416 28.3446 32.6416H36.1139C38.2766 32.6416 40.003 30.8609 40.003 28.6889V21.2817C40.003 19.1738 38.2247 17.5902 36.1139 17.2383C34.7774 17.016 33.3913 16.9148 32.0614 16.9212ZM27.8549 19.3052C28.6585 19.3052 29.3144 19.9722 29.3144 20.792C29.3144 21.609 28.6582 22.2698 27.8549 22.2698C27.0487 22.2698 26.3954 21.6092 26.3954 20.792C26.3954 19.9722 27.0487 19.3052 27.8549 19.3052Z" fill="url(#paint0_linear_699_5057)"/>
<path d="M40.9731 25.2344V28.6883C40.9731 31.3663 38.7028 33.6201 36.1139 33.6201H28.3447C26.2165 33.6201 24.4556 35.4413 24.4556 37.5727V44.9793C24.4556 47.0875 26.2884 48.3274 28.3447 48.932C30.8068 49.6561 33.1679 49.7869 36.1139 48.932C38.0721 48.3651 40.003 47.2239 40.003 44.9793V42.0151H32.2338V41.027H43.8922C46.1529 41.027 46.9951 39.45 47.7813 37.0833C48.5936 34.647 48.559 32.3036 47.7813 29.178C47.2225 26.9277 46.1555 25.2344 43.8922 25.2344H40.9731ZM36.6033 43.9913C37.4095 43.9913 38.0628 44.6518 38.0628 45.469C38.0628 46.2889 37.4095 46.9558 36.6033 46.9558C35.7997 46.9558 35.1438 46.2889 35.1438 45.469C35.1438 44.6521 35.8 43.9913 36.6033 43.9913Z" fill="url(#paint1_linear_699_5057)"/>
<path d="M148.986 22.8711H149.439V20.0293H150.512V19.6904H147.912V20.0293H148.985L148.986 22.8711ZM150.914 22.8711H151.301V20.2756L152.141 22.8708H152.572L153.448 20.2843V22.8711H153.87V19.6907H153.312L152.354 22.4157L151.539 19.6907H150.914V22.8711Z" fill="#646464"/>
<path opacity="0.444" d="M42.7456 53.9677C42.7456 55.084 38.0787 55.9889 32.3216 55.9889C26.5648 55.9889 21.8979 55.084 21.8979 53.9677C21.8979 52.8514 26.5648 51.9463 32.3216 51.9463C38.0787 51.9463 42.7456 52.8514 42.7456 53.9677Z" fill="url(#paint2_radial_699_5057)"/>
</g>
</g>
<defs>
<linearGradient id="paint0_linear_699_5057" x1="15.3622" y1="17.8469" x2="33.2988" y2="33.1294" gradientUnits="userSpaceOnUse">
<stop stop-color="#5A9FD4"/>
<stop offset="1" stop-color="#306998"/>
</linearGradient>
<linearGradient id="paint1_linear_699_5057" x1="40.0292" y1="42.6564" x2="33.5939" y2="33.6396" gradientUnits="userSpaceOnUse">
<stop stop-color="#FFD43B"/>
<stop offset="1" stop-color="#FFE873"/>
</linearGradient>
<radialGradient id="paint2_radial_699_5057" cx="0" cy="0" r="1" gradientUnits="userSpaceOnUse" gradientTransform="translate(32.3183 53.9212) rotate(-90) scale(2.02085 8.88449)">
<stop stop-color="#B8B8B8" stop-opacity="0.498"/>
<stop offset="1" stop-color="#7F7F7F" stop-opacity="0"/>
</radialGradient>
<clipPath id="clip0_699_5057">
<rect width="170" height="72" rx="6" fill="white"/>
</clipPath>
<clipPath id="clip1_699_5057">
<rect width="137.741" height="40" fill="white" transform="translate(16.1294 16)"/>
</clipPath>
</defs>
</svg>
