<svg width="170" height="72" viewBox="0 0 170 72" fill="none" xmlns="http://www.w3.org/2000/svg">
<g clip-path="url(#clip0_116_8418)">
<rect width="170" height="72" rx="6" fill="#EC696A" fill-opacity="0.08"/>
<g clip-path="url(#clip1_116_8418)">
<path d="M15.6747 44.5052V32.9365H30.0808V32.2598H15.6747V21.7058H30.9916V21.0293H15V45.1817H31.1264V44.5052H15.6747ZM44.1157 27.7946L38.1442 35.6763L32.3074 27.7948H31.4302L37.7392 36.1839L30.8227 45.1814H31.6325L38.1438 36.6908L44.6889 45.1814H45.5323L38.5824 36.1835L44.925 27.7944H44.1154L44.1157 27.7946ZM47.5568 51.1352V40.3108H47.6242C48.0292 41.8894 48.8276 43.1579 50.0197 44.1164C51.2118 45.0747 52.7298 45.554 54.5741 45.554C55.7662 45.554 56.8234 45.3116 57.7456 44.8268C58.6677 44.3419 59.438 43.6823 60.0566 42.8479C60.675 42.0134 61.1474 41.0437 61.4736 39.9387C61.7996 38.8338 61.9628 37.6723 61.9628 36.4547C61.9628 35.1466 61.794 33.94 61.4566 32.8351C61.1193 31.7301 60.6301 30.7716 59.9892 29.9599C59.3481 29.148 58.5721 28.5163 57.6611 28.0656C56.7503 27.6145 55.7213 27.3889 54.5741 27.3889C53.6969 27.3889 52.8817 27.5187 52.1282 27.7779C51.3748 28.0374 50.7057 28.4037 50.1209 28.8773C49.5327 29.3546 49.0207 29.9193 48.6027 30.5517C48.1754 31.1945 47.8492 31.8992 47.6242 32.666H47.5568V27.7946H46.8821V51.1352H47.5568ZM54.5741 44.911C52.4601 44.911 50.7618 44.1838 49.4799 42.7293C48.1979 41.2748 47.5568 39.183 47.5568 36.4543C47.5568 35.3267 47.7143 34.2555 48.0292 33.2408C48.3441 32.2261 48.7995 31.3352 49.3954 30.5685C49.9915 29.8017 50.7282 29.1928 51.6052 28.7419C52.4824 28.2908 53.4722 28.0652 54.5741 28.0652C55.6988 28.0652 56.6829 28.2908 57.5263 28.7419C58.3696 29.1928 59.067 29.8074 59.618 30.5854C60.169 31.3634 60.5851 32.2543 60.8664 33.2576C61.1474 34.2612 61.2879 35.3267 61.2879 36.4543C61.2879 37.4692 61.1588 38.4785 60.9 39.4819C60.6414 40.4854 60.2421 41.3875 59.7022 42.1882C59.1626 42.9886 58.4711 43.6425 57.6275 44.1501C56.7839 44.6574 55.7662 44.911 54.5741 44.911ZM65.6739 45.1817V35.3381C65.6739 34.3909 65.8088 33.4662 66.0789 32.5643C66.3486 31.6623 66.7647 30.8672 67.327 30.1795C67.8894 29.4917 68.6034 28.9504 69.4694 28.5557C70.3353 28.161 71.3643 27.9976 72.5564 28.0652V27.3887C71.5217 27.3664 70.6165 27.4789 69.8406 27.727C69.0644 27.9751 68.3954 28.3133 67.8331 28.7419C67.2708 29.1703 66.821 29.672 66.4837 30.2472C66.1466 30.8214 65.8964 31.4427 65.7413 32.0906H65.6739V27.7946H64.9992V45.1819L65.6739 45.1817ZM73.3998 36.6234H87.9069C87.952 35.4282 87.834 34.2783 87.5527 33.1732C87.2717 32.0681 86.8217 31.0871 86.2033 30.2303C85.5847 29.3733 84.7863 28.6855 83.8078 28.1667C82.8294 27.648 81.6655 27.3887 80.3161 27.3887C79.3488 27.3887 78.4042 27.5918 77.482 27.9978C76.5599 28.4037 75.7501 28.9955 75.0529 29.7735C74.3557 30.5515 73.7934 31.5043 73.3662 32.6321C72.9389 33.7595 72.7251 35.0449 72.7251 36.4882C72.7251 37.7736 72.8713 38.9745 73.1637 40.0907C73.4561 41.207 73.9058 42.1768 74.5131 42.9999C75.1205 43.823 75.9022 44.4601 76.8579 44.911C77.8137 45.3621 78.9665 45.5763 80.3161 45.5538C82.2952 45.5538 83.9597 44.9955 85.3091 43.8794C86.6587 42.763 87.4571 41.1901 87.7046 39.1605H87.0299C86.7375 41.0775 85.9895 42.5151 84.7863 43.4734C83.5829 44.4319 82.0705 44.911 80.2484 44.911C79.0114 44.911 77.9656 44.6968 77.1108 44.2684C76.2563 43.84 75.5589 43.2535 75.0191 42.5094C74.4795 41.7651 74.0801 40.8913 73.8216 39.8877C73.5628 38.8843 73.4223 37.7961 73.3998 36.6234ZM87.2322 35.9469H73.4C73.4672 34.7292 73.6922 33.6355 74.0745 32.6658C74.457 31.696 74.9573 30.8672 75.576 30.1795C76.1944 29.4917 76.9142 28.9675 77.7351 28.6065C78.556 28.2457 79.4389 28.0652 80.3835 28.0652C81.5081 28.0652 82.4975 28.2739 83.3524 28.6911C84.207 29.1084 84.9211 29.6779 85.4948 30.3994C86.0683 31.121 86.5012 31.9611 86.7936 32.9194C87.086 33.8779 87.2322 34.8871 87.2322 35.9469ZM101.908 32.9365H102.583C102.583 30.9969 102.021 29.5875 100.896 28.708C99.7713 27.8285 98.2418 27.3887 96.3076 27.3887C95.228 27.3887 94.3172 27.5241 93.5748 27.7948C92.8327 28.0652 92.2254 28.4148 91.753 28.8432C91.2808 29.2716 90.9434 29.7453 90.741 30.264C90.5385 30.7827 90.4372 31.2789 90.4372 31.7524C90.4372 32.6995 90.6059 33.455 90.9434 34.0188C91.2808 34.5826 91.8093 35.0224 92.5289 35.3381C93.0238 35.5634 93.586 35.7665 94.2159 35.9471C94.8456 36.1274 95.5767 36.3191 96.4089 36.5219C97.151 36.7026 97.882 36.8829 98.6019 37.0632C99.3215 37.2437 99.9569 37.4861 100.508 37.7904C101.059 38.095 101.509 38.484 101.858 38.9576C102.206 39.4311 102.38 40.0514 102.38 40.818C102.38 41.5623 102.206 42.1937 101.858 42.7122C101.512 43.2283 101.057 43.6615 100.525 43.9809C99.9851 44.3078 99.3833 44.5446 98.7199 44.6911C98.0564 44.8377 97.4098 44.911 96.7801 44.911C94.7333 44.911 93.1644 44.4544 92.0735 43.5412C90.9827 42.6278 90.4374 41.1901 90.4374 39.2281H89.7625C89.7625 41.4157 90.353 43.0168 91.5337 44.0317C92.7146 45.0464 94.4633 45.5538 96.7801 45.5538C97.5222 45.5538 98.27 45.4691 99.0237 45.3C99.7769 45.1309 100.452 44.8548 101.048 44.4713C101.639 44.0932 102.135 43.584 102.498 42.9831C102.87 42.374 103.055 41.6299 103.055 40.7504C103.055 39.9159 102.892 39.2394 102.566 38.7207C102.24 38.2022 101.813 37.7736 101.284 37.4353C100.755 37.0971 100.159 36.8321 99.4959 36.6405C98.8286 36.4477 98.1594 36.2616 97.4884 36.0822C96.6626 35.8649 95.836 35.6507 95.0087 35.4396C94.3003 35.2591 93.6424 35.0449 93.0352 34.7968C92.4504 34.5487 91.9836 34.1936 91.6349 33.7313C91.2863 33.269 91.1121 32.6094 91.1121 31.7524C91.1121 31.5946 91.1571 31.3126 91.247 30.9068C91.3369 30.5007 91.5507 30.0892 91.8881 29.672C92.2254 29.255 92.7426 28.8828 93.44 28.5557C94.1371 28.2289 95.0931 28.0652 96.3076 28.0652C97.1399 28.0652 97.8988 28.1556 98.5849 28.3359C99.2709 28.5163 99.8614 28.8038 100.356 29.1985C100.851 29.5932 101.233 30.0949 101.503 30.7038C101.773 31.3128 101.908 32.0569 101.908 32.9365ZM117.529 32.9365H118.203C118.203 30.9969 117.641 29.5875 116.517 28.708C115.392 27.8285 113.862 27.3887 111.928 27.3887C110.849 27.3887 109.938 27.5241 109.195 27.7948C108.453 28.0652 107.846 28.4148 107.374 28.8432C106.901 29.2716 106.564 29.7453 106.361 30.264C106.159 30.7827 106.058 31.2789 106.058 31.7524C106.058 32.6995 106.226 33.455 106.564 34.0188C106.901 34.5826 107.43 35.0224 108.15 35.3381C108.644 35.5634 109.207 35.7665 109.836 35.9471C110.466 36.1274 111.197 36.3191 112.029 36.5219C112.772 36.7026 113.503 36.8829 114.222 37.0632C114.942 37.2437 115.577 37.4861 116.129 37.7904C116.68 38.095 117.129 38.484 117.478 38.9576C117.827 39.4311 118.001 40.0514 118.001 40.818C118.001 41.5623 117.827 42.1937 117.478 42.7122C117.132 43.2282 116.677 43.6614 116.146 43.9809C115.605 44.3078 115.004 44.5446 114.34 44.6911C113.677 44.8377 113.03 44.911 112.4 44.911C110.354 44.911 108.785 44.4544 107.694 43.5412C106.603 42.6278 106.058 41.1901 106.058 39.2281H105.383C105.383 41.4157 105.973 43.0168 107.154 44.0317C108.335 45.0464 110.084 45.5538 112.4 45.5538C113.143 45.5538 113.891 45.4691 114.644 45.3C115.397 45.1309 116.072 44.8548 116.668 44.4713C117.259 44.0932 117.756 43.584 118.119 42.9831C118.49 42.374 118.676 41.6299 118.676 40.7504C118.676 39.9159 118.513 39.2394 118.186 38.7207C117.86 38.2022 117.433 37.7736 116.904 37.4353C116.376 37.0971 115.78 36.8321 115.116 36.6405C114.449 36.4477 113.78 36.2616 113.109 36.0822C112.283 35.8649 111.457 35.6507 110.629 35.4396C109.921 35.2591 109.263 35.0449 108.656 34.7968C108.071 34.5487 107.604 34.1936 107.256 33.7313C106.907 33.269 106.733 32.6094 106.733 31.7524C106.733 31.5946 106.777 31.3126 106.868 30.9068C106.957 30.5007 107.171 30.0892 107.508 29.672C107.846 29.255 108.363 28.8828 109.06 28.5557C109.758 28.2289 110.714 28.0652 111.928 28.0652C112.76 28.0652 113.519 28.1556 114.205 28.3359C114.892 28.5163 115.482 28.8038 115.977 29.1985C116.472 29.5932 116.854 30.0949 117.124 30.7038C117.394 31.3128 117.529 32.0569 117.529 32.9365H117.529Z" fill="#222222"/>
</g>
<g clip-path="url(#clip2_116_8418)">
<path d="M124.867 21H155.137V51.2703H124.867V21Z" fill="#F7DF1E"/>
<path d="M145.201 44.6486C145.81 45.6442 146.604 46.376 148.007 46.376C149.185 46.376 149.938 45.7869 149.938 44.973C149.938 43.9976 149.165 43.6521 147.867 43.0847L147.156 42.7796C145.104 41.9051 143.74 40.8096 143.74 38.4937C143.74 36.3604 145.365 34.7363 147.906 34.7363C149.714 34.7363 151.014 35.3658 151.951 37.0138L149.736 38.436C149.249 37.5616 148.723 37.217 147.906 37.217C147.073 37.217 146.545 37.7456 146.545 38.436C146.545 39.2894 147.073 39.6348 148.293 40.1634L149.005 40.468C151.421 41.5044 152.786 42.561 152.786 44.9364C152.786 47.4974 150.774 48.9004 148.072 48.9004C145.431 48.9004 143.724 47.6416 142.889 45.9916L145.201 44.6486ZM135.152 44.8951C135.599 45.6879 136.006 46.3582 136.983 46.3582C137.918 46.3582 138.507 45.9925 138.507 44.5708V34.8987H141.352V44.6092C141.352 47.5546 139.625 48.8951 137.104 48.8951C134.827 48.8951 133.508 47.7165 132.837 46.2969L135.152 44.8951Z" fill="black"/>
</g>
</g>
<defs>
<clipPath id="clip0_116_8418">
<rect width="170" height="72" rx="6" fill="white"/>
</clipPath>
<clipPath id="clip1_116_8418">
<rect width="103.813" height="30.2303" fill="white" transform="translate(15 21.0195)"/>
</clipPath>
<clipPath id="clip2_116_8418">
<rect width="30.2703" height="30.2703" fill="white" transform="translate(124.867 21)"/>
</clipPath>
</defs>
</svg>
