<svg width="34" height="34" viewBox="0 0 34 34" fill="none" xmlns="http://www.w3.org/2000/svg">
<g clip-path="url(#clip0_202_17209)">
<g clip-path="url(#clip1_202_17209)">
<path d="M44.0417 -11.0709L34.1422 -11.0709C33.88 -11.0664 33.6301 -10.959 33.4463 -10.772C33.2625 -10.585 33.1595 -10.3333 33.1595 -10.0711C33.1595 -9.80887 33.2625 -9.55715 33.4463 -9.37014C33.6301 -9.18312 33.88 -9.07578 34.1422 -9.07122L41.6276 -9.07122L29.1924 3.36396C29.0049 3.55149 28.8995 3.80585 28.8995 4.07106C28.8995 4.33628 29.0049 4.59063 29.1924 4.77817C29.38 4.96571 29.6343 5.07106 29.8995 5.07106C30.1647 5.07106 30.4191 4.96571 30.6066 4.77817L43.0418 -7.65701L43.0418 -0.171578C43.0395 -0.0388134 43.0637 0.0930819 43.1129 0.21641C43.1621 0.339739 43.2354 0.452032 43.3284 0.546737C43.4215 0.641442 43.5325 0.716661 43.655 0.768008C43.7774 0.819355 43.9089 0.8458 44.0417 0.8458C44.1744 0.8458 44.3059 0.819356 44.4284 0.768009C44.5508 0.716662 44.6618 0.641441 44.7549 0.546737C44.848 0.452032 44.9212 0.339738 44.9704 0.21641C45.0197 0.0930813 45.0438 -0.0388121 45.0415 -0.171577V-10.0711C45.0415 -10.3362 44.9361 -10.5905 44.7486 -10.778C44.5611 -10.9655 44.3068 -11.0709 44.0417 -11.0709Z" fill="white" fill-opacity="0.5"/>
</g>
<path d="M28.707 18.2807L21.707 11.2807C21.5184 11.0986 21.2658 10.9978 21.0036 11C20.7414 11.0023 20.4906 11.1075 20.3052 11.2929C20.1198 11.4783 20.0146 11.7291 20.0123 11.9913C20.01 12.2535 20.1108 12.5061 20.293 12.6947L25.586 17.9877H8C7.73478 17.9877 7.48043 18.0931 7.29289 18.2806C7.10536 18.4681 7 18.7225 7 18.9877C7 19.2529 7.10536 19.5073 7.29289 19.6948C7.48043 19.8824 7.73478 19.9877 8 19.9877H25.586L20.293 25.2807C20.1975 25.373 20.1213 25.4833 20.0689 25.6053C20.0165 25.7273 19.9889 25.8585 19.9877 25.9913C19.9866 26.1241 20.0119 26.2558 20.0622 26.3787C20.1125 26.5016 20.1867 26.6132 20.2806 26.7071C20.3745 26.801 20.4861 26.8753 20.609 26.9255C20.7319 26.9758 20.8636 27.0011 20.9964 27C21.1292 26.9988 21.2604 26.9712 21.3824 26.9188C21.5044 26.8664 21.6148 26.7902 21.707 26.6947L28.707 19.6947C28.8945 19.5072 28.9998 19.2529 28.9998 18.9877C28.9998 18.7225 28.8945 18.4682 28.707 18.2807Z" fill="white"/>
</g>
<defs>
<clipPath id="clip0_202_17209">
<rect width="24" height="24" fill="white" transform="translate(0 16.9706) rotate(-45)"/>
</clipPath>
<clipPath id="clip1_202_17209">
<rect width="24" height="24" fill="white" transform="translate(0 17) rotate(-45)"/>
</clipPath>
</defs>
</svg>
