<svg width="170" height="72" viewBox="0 0 170 72" fill="none" xmlns="http://www.w3.org/2000/svg">
<g clip-path="url(#clip0_116_8602)">
<rect width="170" height="72" rx="6" fill="#1BC6AF" fill-opacity="0.08"/>
<path d="M32.6818 16L50.3636 26V46L32.6818 56L15 46V26L32.6818 16Z" fill="white"/>
<path d="M47.2046 45.3186L33.2728 53.205V47.0686L41.9546 42.2959L47.2046 45.3186ZM48.1591 44.455V27.9777L43.0682 30.9323V41.5232L48.1591 44.455ZM18.1137 45.3186L32.0455 53.205V47.0686L23.3637 42.2959L18.1137 45.3186ZM17.1592 44.455V27.9777L22.2501 30.9323V41.5232L17.1592 44.455ZM17.7501 26.8868L32.0455 18.7959V24.7277L22.8864 29.7732L22.8183 29.8186L17.7501 26.8868ZM47.5682 26.8868L33.2728 18.7959V24.7277L42.4319 29.7732L42.5001 29.8186L47.5682 26.8868Z" fill="#8ED6FB"/>
<path d="M32.0457 45.6595L23.4775 40.955V31.6141L32.0457 36.5686V45.6595ZM33.273 45.6595L41.8412 40.955V31.6141L33.273 36.5686V45.6595ZM24.0457 30.5232L32.6593 25.7959L41.273 30.5232L32.6593 35.5004L24.0457 30.5232Z" fill="#1C78C0"/>
<path d="M68.2047 42.3178H71.9774L75.8183 29.5224H72.1365L69.8638 38.6133L67.4319 29.5224H64.2501L61.7956 38.6133L59.5456 29.5224H55.8638L59.682 42.3178H63.4547L65.841 34.1133L68.2047 42.3178ZM76.0001 35.9542C76.0001 39.7951 78.6138 42.636 82.7274 42.636C85.9092 42.636 87.6137 40.7269 88.1137 39.8178L85.8865 38.136C85.5228 38.6815 84.5228 39.7042 82.7728 39.7042C80.8865 39.7042 79.5228 38.4769 79.4319 36.7724H88.4547C88.4774 36.5224 88.4774 36.2724 88.4774 36.0451C88.4774 31.8633 86.2274 29.2042 82.2501 29.2042C78.6137 29.2042 76.0001 32.0906 76.0001 35.9542ZM79.5456 34.5678C79.6819 33.0906 80.7274 31.9769 82.3183 31.9769C83.8637 31.9769 84.9774 32.9996 85.0683 34.5678H79.5456ZM89.7728 42.3178H92.9546V40.9996C93.2956 41.4087 94.5683 42.636 96.7501 42.636C100.432 42.636 103.023 39.8633 103.023 35.9315C103.023 31.9769 100.614 29.2042 96.9546 29.2042C94.7501 29.2042 93.4774 30.4315 93.1592 30.8633V24.6133H89.7728V42.3178ZM93.0456 35.9542C93.0456 33.5451 94.4774 32.1815 96.3183 32.1815C98.2728 32.1815 99.591 33.7269 99.591 35.9542C99.591 38.2269 98.2274 39.6587 96.3183 39.6587C94.2728 39.6587 93.0456 37.9769 93.0456 35.9542ZM104.318 46.9087H107.705V40.9996C108.023 41.4087 109.296 42.636 111.5 42.636C115.182 42.636 117.568 39.8633 117.568 35.9087C117.568 31.9996 114.977 29.2042 111.296 29.2042C109.114 29.2042 107.841 30.4315 107.5 30.8633V29.5224H104.318V46.9087ZM107.614 35.886C107.614 33.8633 108.841 32.1815 110.886 32.1815C112.796 32.1815 114.159 33.6133 114.159 35.886C114.159 38.1133 112.841 39.6587 110.886 39.6587C109.023 39.6587 107.614 38.2724 107.614 35.886ZM118.182 38.3633C118.182 41.0451 120.386 42.6587 122.977 42.6587C124.455 42.6587 125.432 42.2269 126.091 41.4996L126.318 42.3406H129.296V34.2269C129.296 31.3633 128.068 29.2042 123.955 29.2042C122 29.2042 120.068 29.9315 118.909 30.7269L120.182 33.0224C121.227 32.4542 122.386 32.136 123.591 32.1133C125.091 32.1133 125.909 32.8633 125.909 33.9996V34.8406C125.432 34.5224 124.432 34.136 123.136 34.136C120.159 34.1133 118.182 35.8406 118.182 38.3633ZM121.568 38.2496C121.568 37.2042 122.477 36.4542 123.773 36.4542C125.068 36.4542 126 37.1133 126 38.2496C126 39.3178 125.068 40.0224 123.796 40.0224C122.523 40.0224 121.568 39.3178 121.568 38.2496ZM137.5 39.6587C135.364 39.6587 133.864 38.1133 133.864 35.9315C133.864 33.886 135.205 32.1815 137.386 32.1815C138.5 32.1815 139.568 32.636 140.364 33.4087L141.318 30.5678C140.159 29.6815 138.75 29.1815 137.273 29.2042C133.386 29.2042 130.455 32.0678 130.455 35.9542C130.455 39.8406 133.296 42.636 137.296 42.636C138.75 42.636 140.136 42.1587 141.273 41.2724L140.364 38.4996C139.818 38.9769 138.796 39.6587 137.5 39.6587ZM142.568 42.3178H145.955V35.7042L150.25 42.3178H154.205L149.341 35.3178L153.841 29.5224H150.046L145.932 34.9087V24.636H142.546V42.3178H142.568Z" fill="#3A3B3A"/>
</g>
<defs>
<clipPath id="clip0_116_8602">
<rect width="170" height="72" rx="6" fill="white"/>
</clipPath>
</defs>
</svg>
