<svg width="170" height="72" viewBox="0 0 170 72" fill="none" xmlns="http://www.w3.org/2000/svg">
<g clip-path="url(#clip0_116_8621)">
<rect width="170" height="72" rx="6" fill="#75BAF9" fill-opacity="0.08"/>
<g clip-path="url(#clip1_116_8621)">
<path d="M57.4499 30.9173C57.1624 28.8366 56.0124 27.0299 53.9374 25.3977L52.7374 24.5879L51.9374 25.7964C50.9124 27.3539 50.3999 29.5218 50.5624 31.6026C50.6374 32.3252 50.8749 33.646 51.6124 34.7798C50.8749 35.1909 49.4124 35.7392 47.4624 35.7018H10.2124L10.1374 36.1379C9.78743 38.2186 9.78743 44.735 13.9749 49.7312C17.1624 53.5314 21.9249 55.4626 28.1499 55.4626C41.6499 55.4626 51.6249 49.1955 56.3124 37.7825C58.1499 37.8199 62.1124 37.795 64.1499 33.8702C64.1999 33.783 64.3249 33.5463 64.6749 32.7987L64.8749 32.3875L63.7374 31.615C62.4874 30.8052 59.6499 30.4937 57.4499 30.9173ZM39.9999 17H34.3374V22.1956H39.9999V17ZM39.9999 23.2422H34.3374V28.4379H39.9999V23.2422ZM33.2999 23.2422H27.6374V28.4379H33.2999V23.2422ZM26.6124 23.2422H20.9499V28.4379H26.6124V23.2422ZM19.9124 29.4845H14.2499V34.6801H19.9124V29.4845ZM26.6124 29.4845H20.9499V34.6801H26.6124V29.4845ZM33.2999 29.4845H27.6374V34.6801H33.2999V29.4845ZM39.9999 29.4845H34.3374V34.6801H39.9999V29.4845ZM46.6999 29.4845H41.0374V34.6801H46.6999V29.4845ZM81.1249 28.3133C80.7124 28.3133 80.3624 28.4503 80.0999 28.7244C79.8249 28.9985 79.6874 29.3599 79.6874 29.771V36.8107C78.2874 35.6519 76.6749 35.0788 74.8249 35.0788C72.6874 35.0788 70.8624 35.8513 69.3499 37.3963C67.8374 38.9413 67.0874 40.7977 67.0874 42.9782C67.0874 45.1586 67.8499 47.015 69.3499 48.56C70.8624 50.105 72.6874 50.8775 74.8249 50.8775C76.9624 50.8775 78.7749 50.105 80.2999 48.56C81.8124 47.04 82.5624 45.171 82.5624 42.9782V29.7835C82.5624 29.3599 82.4249 29.011 82.1374 28.7369C81.8749 28.4503 81.5374 28.3133 81.1249 28.3133ZM79.3124 44.8969C79.0624 45.495 78.7124 46.0183 78.2749 46.4668C77.8374 46.9154 77.3249 47.2767 76.7374 47.5384C76.1499 47.8 75.5124 47.9371 74.8374 47.9371C74.1624 47.9371 73.5249 47.8125 72.9249 47.5384C72.3374 47.2767 71.8249 46.9154 71.3874 46.4668C70.9499 46.0183 70.6124 45.495 70.3624 44.8969C70.1124 44.2989 69.9874 43.651 69.9874 42.9782C69.9874 42.3053 70.1124 41.6574 70.3624 41.0594C70.6124 40.4613 70.9624 39.938 71.3874 39.4895C71.8249 39.0409 72.3374 38.6921 72.9249 38.418C73.5124 38.1563 74.1499 38.0193 74.8374 38.0193C75.5249 38.0193 76.1374 38.1439 76.7374 38.418C77.3249 38.6796 77.8374 39.0409 78.2749 39.4895C78.7124 39.938 79.0624 40.4613 79.3124 41.0594C79.5624 41.6574 79.6874 42.2929 79.6874 42.9657C79.6874 43.651 79.5624 44.2864 79.3124 44.8969ZM144.45 37.3963C142.925 35.8513 141.087 35.0788 138.975 35.0788C136.85 35.0788 135.012 35.8513 133.5 37.3963C131.987 38.9413 131.237 40.7977 131.237 42.9782C131.237 45.1586 132 47.015 133.5 48.56C135.012 50.105 136.837 50.8775 138.975 50.8775C140.925 50.8775 142.6 50.2421 144.037 48.9587C144.312 48.6722 144.45 48.3108 144.45 47.8997C144.45 47.4885 144.312 47.1272 144.037 46.8531C143.762 46.579 143.425 46.4419 143.012 46.4419C142.65 46.4544 142.337 46.5665 142.062 46.8157C141.625 47.1895 141.162 47.4761 140.65 47.6629C140.137 47.8498 139.587 47.9495 138.975 47.9495C138.437 47.9495 137.925 47.8623 137.437 47.7003C136.95 47.5259 136.487 47.2892 136.087 46.9901C135.675 46.6786 135.325 46.3173 135.012 45.8937C134.712 45.4701 134.475 44.9966 134.325 44.4733H145.275C145.675 44.4733 146.025 44.3362 146.3 44.0621C146.587 43.788 146.725 43.4267 146.725 43.0155C146.725 41.9191 146.537 40.9099 146.162 39.9754C145.775 39.016 145.212 38.1688 144.45 37.3963ZM134.3 41.5204C134.45 41.0095 134.675 40.5361 134.975 40.1C135.275 39.6764 135.637 39.3026 136.05 39.0036C136.462 38.6921 136.925 38.4678 137.425 38.2934C137.925 38.1189 138.437 38.0442 138.962 38.0442C139.487 38.0442 140 38.1314 140.487 38.2934C140.987 38.4678 141.437 38.7045 141.837 39.0036C142.25 39.3151 142.612 39.6764 142.912 40.1C143.225 40.5236 143.45 40.9971 143.612 41.5204H134.3ZM159.612 36.0756C159.35 35.8264 159.025 35.627 158.637 35.4775C158.25 35.328 157.812 35.2283 157.35 35.1785C156.887 35.1162 156.45 35.0913 156.037 35.0913C155.112 35.0913 154.25 35.2408 153.437 35.5398C152.625 35.8388 151.875 36.2749 151.187 36.8356V36.5615C151.187 36.1503 151.05 35.8139 150.762 35.5273C150.475 35.2408 150.15 35.0913 149.75 35.0913C149.35 35.0913 149 35.2408 148.725 35.5273C148.437 35.8139 148.3 36.1628 148.3 36.5615V49.4197C148.3 49.8309 148.437 50.1673 148.725 50.4539C149.012 50.7405 149.35 50.89 149.75 50.89C150.15 50.89 150.487 50.7405 150.762 50.4539C151.05 50.1673 151.187 49.8184 151.187 49.4197V42.9906C151.187 42.3053 151.312 41.6574 151.562 41.0594C151.812 40.4613 152.162 39.938 152.6 39.4895C153.037 39.0409 153.55 38.6921 154.137 38.4304C154.725 38.1688 155.362 38.0442 156.037 38.0442C156.712 38.0442 157.35 38.1688 157.937 38.393C158.162 38.4927 158.375 38.555 158.55 38.555C158.75 38.555 158.937 38.5176 159.112 38.4429C159.287 38.3681 159.437 38.256 159.575 38.1314C159.7 37.9943 159.812 37.8448 159.887 37.6579C159.962 37.4835 160 37.2841 160 37.0848C160 36.6612 159.875 36.3248 159.612 36.0756ZM97.4499 37.3963C95.9249 35.8513 94.0874 35.0788 91.9749 35.0788C89.8624 35.0788 88.0124 35.8513 86.4999 37.3963C84.9874 38.9413 84.2374 40.7977 84.2374 42.9782C84.2374 45.1586 84.9999 47.015 86.4999 48.56C88.0124 50.105 89.8374 50.8775 91.9749 50.8775C94.1124 50.8775 95.9249 50.105 97.4499 48.56C98.9624 47.04 99.7124 45.171 99.7124 42.9782C99.6999 41.8817 99.5124 40.8725 99.1374 39.9505C98.7624 39.0285 98.1999 38.1688 97.4499 37.3963ZM96.4499 44.8969C96.1999 45.495 95.8499 46.0183 95.4124 46.4668C94.9749 46.9154 94.4624 47.2767 93.8749 47.5384C93.2874 47.8 92.6499 47.9371 91.9749 47.9371C91.2999 47.9371 90.6624 47.8125 90.0624 47.5384C89.4749 47.2767 88.9624 46.9154 88.5249 46.4668C88.0874 46.0183 87.7499 45.495 87.4999 44.8969C87.2499 44.2989 87.1249 43.651 87.1249 42.9782C87.1249 42.3053 87.2499 41.6574 87.4999 41.0594C87.7499 40.4613 88.0999 39.938 88.5249 39.4895C88.9624 39.0409 89.4749 38.6921 90.0624 38.418C90.6499 38.1563 91.2874 38.0193 91.9749 38.0193C92.6624 38.0193 93.2749 38.1439 93.8749 38.418C94.4624 38.6796 94.9749 39.0409 95.4124 39.4895C95.8499 39.938 96.1999 40.4613 96.4499 41.0594C96.6999 41.6574 96.8249 42.2929 96.8249 42.9657C96.8249 43.651 96.6999 44.2864 96.4499 44.8969ZM129.65 36.549C129.65 36.3497 129.612 36.1628 129.537 35.9883C129.462 35.8139 129.362 35.6519 129.225 35.5149C129.1 35.3778 128.937 35.2657 128.762 35.2034C128.587 35.1286 128.4 35.0913 128.2 35.0913C127.912 35.0913 127.65 35.166 127.425 35.3155L119.15 40.7977V29.796C119.15 29.3848 119.012 29.0359 118.725 28.7494C118.437 28.4628 118.112 28.3133 117.712 28.3133C117.312 28.3133 116.962 28.4628 116.687 28.7494C116.4 29.0359 116.262 29.3848 116.262 29.796V49.3948C116.262 49.806 116.4 50.1549 116.687 50.4414C116.975 50.728 117.312 50.8775 117.712 50.8775C118.112 50.8775 118.45 50.728 118.725 50.4414C119.012 50.1549 119.15 49.806 119.15 49.3948V44.2989L120.837 43.165L127.225 50.4788C127.487 50.728 127.812 50.8526 128.187 50.8526C128.387 50.8526 128.575 50.8152 128.75 50.7405C128.925 50.6657 129.075 50.5536 129.212 50.429C129.337 50.2919 129.45 50.1424 129.525 49.9555C129.6 49.7811 129.637 49.5817 129.637 49.3948C129.637 49.0086 129.5 48.6722 129.237 48.3607L123.312 41.5453L129.112 37.7078C129.475 37.4586 129.65 37.0723 129.65 36.549ZM105.637 39.477C106.075 39.0285 106.6 38.6796 107.187 38.418C107.775 38.1563 108.412 38.0317 109.087 38.0317C109.7 38.0317 110.262 38.1314 110.775 38.3432C111.287 38.555 111.787 38.854 112.25 39.2528C112.525 39.477 112.837 39.5892 113.187 39.5892C113.6 39.5892 113.95 39.4521 114.212 39.1655C114.487 38.879 114.625 38.5301 114.625 38.1065C114.625 37.6828 114.462 37.2966 114.125 36.9976C112.7 35.7142 111.025 35.0788 109.075 35.0788C106.937 35.0788 105.112 35.8513 103.6 37.3963C102.087 38.9413 101.337 40.7977 101.337 42.9782C101.337 45.1586 102.1 47.015 103.6 48.56C105.112 50.105 106.937 50.8775 109.075 50.8775C111.012 50.8775 112.7 50.2421 114.125 48.9587C114.425 48.6472 114.587 48.2859 114.587 47.8748C114.587 47.4636 114.45 47.1023 114.175 46.8282C113.9 46.554 113.562 46.417 113.15 46.417C112.8 46.4295 112.5 46.5291 112.237 46.7285C111.775 47.1396 111.287 47.4387 110.775 47.638C110.262 47.8374 109.7 47.9371 109.087 47.9371C108.412 47.9371 107.787 47.8125 107.187 47.5508C106.6 47.2892 106.075 46.9403 105.637 46.4917C105.2 46.0557 104.85 45.5199 104.587 44.9218C104.337 44.3238 104.212 43.6759 104.212 42.9906C104.212 42.3053 104.337 41.6574 104.587 41.0594C104.85 40.4489 105.2 39.938 105.637 39.477Z" fill="#1D63ED"/>
</g>
</g>
<defs>
<clipPath id="clip0_116_8621">
<rect width="170" height="72" rx="6" fill="white"/>
</clipPath>
<clipPath id="clip1_116_8621">
<rect width="150" height="38.5" fill="white" transform="translate(10 17)"/>
</clipPath>
</defs>
</svg>
