<svg width="303" height="110" viewBox="0 0 303 110" fill="none" xmlns="http://www.w3.org/2000/svg">
<rect x="0.5" y="0.5" width="302" height="109" rx="14.5" stroke="#BABCBE"/>
<g clip-path="url(#clip0_96_5908)">
<g clip-path="url(#clip1_96_5908)">
<path d="M104.405 61.0911C104.926 61.1158 105.595 61.1655 106.438 61.2275C107.405 61.1655 108.099 61.1158 108.496 61.0911C108.806 62.1322 109.103 63.0495 109.388 63.8304C109.673 64.6112 110.008 65.5161 110.392 66.5448C110.776 67.5736 111.148 68.528 111.495 69.4081C111.842 70.288 112.227 71.3292 112.66 72.5068C113.565 70.3253 114.383 68.3173 115.115 66.458C115.846 64.6112 116.49 62.814 117.061 61.0787C117.234 61.0911 117.383 61.1035 117.532 61.1158C117.668 61.1158 117.866 61.1407 118.114 61.1778C118.362 61.153 118.56 61.1283 118.697 61.1158C118.833 61.1158 119.007 61.0911 119.193 61.0787C118.089 63.6568 116.937 66.3465 115.734 69.1601C114.544 71.9738 113.516 74.5519 112.648 76.9193C112.276 76.8326 111.942 76.783 111.644 76.783C111.347 76.783 111.062 76.8326 110.69 76.9193C110.169 75.5064 109.71 74.2545 109.289 73.1513C108.868 72.0482 108.31 70.6475 107.628 68.9246C106.946 67.2018 106.413 65.9003 106.042 64.9955C105.67 64.103 105.124 62.7892 104.393 61.0663" fill="#AD2121"/>
<path d="M127.979 70.6601L125.872 65.3179L123.666 70.6601H127.979ZM119.191 76.8823L125.872 60.8805C126.009 60.8929 126.17 60.9054 126.343 60.9177C126.517 60.9301 126.653 60.9425 126.74 60.9549C127.273 60.9301 127.57 60.9054 127.657 60.8805L134.189 76.8823C133.656 76.8575 133.26 76.8328 132.987 76.8203C132.714 76.8203 132.404 76.7955 132.057 76.7832C131.772 76.7955 131.524 76.808 131.301 76.8203C131.078 76.8203 130.694 76.8451 130.161 76.8823C129.69 75.3206 129.144 73.7341 128.525 72.1103H123.046C122.724 72.9903 122.476 73.6224 122.327 74.0315C122.179 74.4405 122.005 74.9363 121.794 75.5313C121.596 76.1262 121.447 76.5725 121.373 76.8823C121.125 76.8575 120.914 76.8328 120.753 76.8203C120.592 76.8203 120.406 76.7955 120.208 76.7832C120.047 76.7955 119.91 76.808 119.799 76.8203C119.687 76.8203 119.476 76.8451 119.204 76.8823" fill="#AD2121"/>
<path d="M140.758 68.5279C143.175 68.7139 144.414 67.6355 144.464 65.2805C144.464 64.0658 144.216 63.2725 143.72 62.9131C143.224 62.5413 142.505 62.3553 141.588 62.3553H140.77V68.5279H140.758ZM137.225 76.9317V61.0911H143.125C144.228 61.0911 145.059 61.1902 145.604 61.3761C146.15 61.562 146.645 61.8967 147.104 62.3553C147.749 62.9379 148.058 63.7559 148.058 64.8219C148.058 65.8878 147.687 67.0406 146.943 67.6975C146.199 68.3544 145.356 68.8006 144.402 69.0114C145.009 69.9905 145.567 70.883 146.088 71.6887C146.608 72.4943 147.141 73.3372 147.711 74.1924C148.281 75.06 148.876 75.9649 149.484 76.9193C148.69 76.8325 147.984 76.7829 147.377 76.7829C146.769 76.7829 146.05 76.8325 145.22 76.9193C144.513 75.6798 143.695 74.242 142.741 72.6059C141.787 70.9697 141.179 69.941 140.919 69.5072H140.758V76.9193C140.051 76.8325 139.469 76.7829 138.998 76.7829C138.527 76.7829 137.957 76.8325 137.213 76.9193" fill="#AD2121"/>
<path d="M152.41 73.2877H152.881C153.29 74.9115 154.368 75.7543 156.141 75.7915C156.909 75.8163 157.541 75.6056 158.062 75.147C158.583 74.6884 158.83 74.1058 158.83 73.4241C158.83 72.7424 158.595 72.1969 158.136 71.726C157.678 71.255 156.884 70.7964 155.757 70.3501C154.43 69.78 153.451 69.1355 152.819 68.4041C152.187 67.6728 151.865 66.7184 151.865 65.541C151.865 64.3634 152.063 63.8552 152.447 63.1115C152.844 62.3678 153.439 61.7729 154.257 61.3391C155.075 60.9052 156.104 60.6821 157.343 60.6821C158.583 60.6821 158.657 60.7813 159.339 60.9672C160.008 61.1532 160.553 61.4259 160.975 61.7605C160.876 62.0332 160.752 62.3926 160.603 62.8389C160.442 63.285 160.318 63.6817 160.231 64.0411H159.884C159.71 63.4834 159.401 63.0247 158.942 62.6406C158.483 62.2563 157.913 62.0703 157.207 62.0703C156.314 62.058 155.657 62.2439 155.236 62.6406C154.815 63.0372 154.604 63.6197 154.604 64.3634C154.604 65.1071 155.286 66.012 156.661 66.6689L158.397 67.5241C160.69 68.6024 161.805 70.1766 161.743 72.2466C161.694 73.8083 161.049 75.0354 159.785 75.9154C158.533 76.7955 157.083 77.2293 155.459 77.1921C153.996 77.1425 152.745 76.8203 151.716 76.2005C152.026 75.1842 152.249 74.2174 152.397 73.2753" fill="#AD2121"/>
<path d="M165.474 76.8821V61.0911C166.119 61.1778 166.689 61.2274 167.209 61.2274C167.73 61.2274 168.362 61.1778 168.994 61.0911V67.3504C169.49 67.3629 170.023 67.3877 170.581 67.4124C171.139 67.4372 171.882 67.462 172.787 67.4992C174.386 67.4372 175.514 67.3877 176.183 67.3629V61.1034C176.803 61.153 177.386 61.1902 177.919 61.2398C178.241 61.2149 178.526 61.1902 178.774 61.1654C179.022 61.1531 179.319 61.1282 179.703 61.0911V76.8821C179.232 76.8573 178.885 76.8325 178.65 76.8202C178.414 76.8202 178.154 76.7954 177.881 76.7829C177.633 76.7954 177.41 76.8077 177.2 76.8202C177.001 76.8202 176.667 76.8449 176.196 76.8821V69.1972C174.225 69.1353 173.01 69.1105 172.539 69.1105C172.068 69.1105 170.717 69.1353 169.007 69.1972V76.8821C168.66 76.8573 168.35 76.8325 168.077 76.8202C167.804 76.8202 167.507 76.7954 167.172 76.7829C166.875 76.7954 166.602 76.8077 166.342 76.8202C166.081 76.8202 165.796 76.8449 165.486 76.8821" fill="#AD2121"/>
<path d="M191.739 70.6601L189.632 65.3179L187.426 70.6601H191.739ZM182.963 76.8823L189.644 60.8805C189.781 60.8929 189.942 60.9054 190.115 60.9177C190.289 60.9301 190.425 60.9425 190.512 60.9549C191.045 60.9301 191.342 60.9054 191.429 60.8805L197.961 76.8823C197.428 76.8575 197.031 76.8328 196.759 76.8203C196.486 76.8203 196.177 76.7955 195.829 76.7832C195.544 76.7955 195.296 76.808 195.073 76.8203C194.85 76.8203 194.466 76.8451 193.933 76.8823C193.461 75.3206 192.916 73.7341 192.296 72.1103H186.818C186.496 72.9903 186.248 73.6224 186.099 74.0315C185.951 74.4405 185.777 74.9363 185.566 75.5313C185.368 76.1262 185.219 76.5725 185.145 76.8823C184.897 76.8575 184.686 76.8328 184.525 76.8203C184.364 76.8203 184.178 76.7955 183.98 76.7832C183.819 76.7955 183.682 76.808 183.571 76.8203C183.459 76.8203 183.248 76.8451 182.976 76.8823" fill="#AD2121"/>
<path fill-rule="evenodd" clip-rule="evenodd" d="M156.229 55.3523L156.031 55.5383C153.118 57.8065 151.147 58.0049 148.185 55.7861C147.962 55.6003 147.726 55.4266 147.503 55.2408C148.99 55.5878 150.54 55.7861 152.151 55.7861C153.762 55.7861 154.928 55.6374 156.241 55.3648M152.139 29.5957C159.39 29.5957 165.277 34.2686 165.277 40.0198C165.277 45.7711 159.39 50.4439 152.139 50.4439C144.888 50.4439 139 45.7711 139 40.0198C139 34.2686 144.888 29.5957 152.139 29.5957ZM152.139 34.3926C156.663 34.3926 160.332 37.3054 160.332 40.8875C160.332 44.4696 156.663 47.3825 152.139 47.3825C147.615 47.3825 143.946 44.4696 143.946 40.8875C143.946 37.3054 147.615 34.3926 152.139 34.3926ZM169.987 26.0384C171.958 25.8773 173.929 25.6666 175.912 25.4311C178.341 25.3691 179.197 26.683 178.589 28.7158C177.35 30.5873 176.098 32.4094 174.821 34.1943C173.743 31.1576 172.094 28.3935 169.987 26.0384ZM138.839 25.9269C147.776 26.621 156.39 26.8441 165.066 26.3731C168.549 29.2859 171.066 33.3266 172.07 37.9251C170.595 39.8835 169.082 41.7675 167.558 43.602C168.128 42.2881 168.45 40.8875 168.45 39.4249C168.45 32.3475 161.15 26.5962 152.151 26.5962C143.152 26.5962 135.852 32.335 135.852 39.4249C135.852 46.5148 143.152 52.2536 152.151 52.2536C161.15 52.2536 159.588 51.1877 162.389 49.4028C161.001 50.8654 159.588 52.266 158.138 53.6171C156.241 54.0261 154.233 54.2492 152.151 54.2492C150.069 54.2492 147.503 53.9641 145.383 53.4311C140.178 48.845 135.591 43.478 131.365 37.6772C132.456 32.9424 135.158 28.8273 138.864 25.9269M127.919 24.8857C129.927 25.1088 131.91 25.3196 133.881 25.5054C131.613 27.8977 129.828 30.7361 128.663 33.8844C127.25 31.8145 125.861 29.7074 124.498 27.563C124.498 25.9392 126.295 24.8857 127.919 24.8857ZM152.077 37.1194C155.101 37.1194 157.568 39.0654 157.568 41.47C157.568 43.8746 155.113 45.8206 152.077 45.8206C149.04 45.8206 146.586 43.8746 146.586 41.47C146.586 39.0654 149.04 37.1194 152.077 37.1194Z" fill="#AD2121"/>
<path d="M183.433 25.4311C183.433 25.3568 183.383 25.2205 183.259 24.9354C183.086 24.5387 182.974 24.4271 182.751 24.4271H182.206V25.1089C182.206 25.2576 182.206 25.332 182.218 25.4435H181.945C181.958 25.332 181.958 25.27 181.958 25.1213V23.5595C181.958 23.4356 181.958 23.3364 181.945 23.2249H182.9C183.309 23.2249 183.557 23.4108 183.557 23.7826C183.557 24.1545 183.507 24.1049 183.383 24.2164C183.309 24.2908 183.222 24.328 183.061 24.3652C183.172 24.4024 183.247 24.4767 183.358 24.6874C183.42 24.8362 183.507 24.9725 183.581 25.1832C183.631 25.2948 183.681 25.394 183.705 25.456H183.408H183.42L183.433 25.4311ZM182.912 24.2288C183.036 24.2288 183.172 24.1793 183.247 24.1049C183.321 24.0305 183.358 23.9314 183.358 23.8198C183.358 23.5843 183.21 23.4356 182.949 23.4356H182.243V24.2288H182.924H182.912Z" fill="#AD2121" stroke="#AD2121" stroke-width="0.161134" stroke-miterlimit="10"/>
<path d="M105.629 79.7455V83.811H108.183V84.4679H104.861V79.7455H105.629Z" fill="#AD2121"/>
<path d="M112.597 80.3531C112.994 80.7993 113.192 81.3819 113.192 82.1132C113.192 82.8444 112.994 83.427 112.597 83.8732C112.176 84.3318 111.605 84.5673 110.887 84.5673C110.168 84.5673 109.585 84.3318 109.176 83.8608C108.779 83.4146 108.581 82.8321 108.581 82.1132C108.581 81.3942 108.767 80.8117 109.176 80.3531C109.585 79.882 110.155 79.6466 110.887 79.6466C111.618 79.6466 112.176 79.882 112.597 80.3531ZM109.746 80.8241C109.486 81.1464 109.362 81.5677 109.362 82.1132C109.362 82.6585 109.486 83.0676 109.746 83.3899C110.006 83.7121 110.391 83.8857 110.887 83.8857C111.382 83.8857 111.754 83.7245 112.014 83.4146C112.275 83.1047 112.411 82.6709 112.411 82.1132C112.411 81.5554 112.275 81.1216 112.014 80.7993C111.754 80.477 111.37 80.3283 110.887 80.3283C110.403 80.3283 110.019 80.4895 109.746 80.8241Z" fill="#AD2121"/>
<path d="M117.406 80.0553C117.74 80.3156 117.951 80.7123 118.038 81.2452H117.257C117.195 80.9354 117.046 80.7123 116.835 80.5635C116.612 80.4148 116.327 80.3404 115.968 80.3404C115.608 80.3404 115.174 80.4891 114.914 80.7866C114.629 81.1089 114.493 81.5427 114.493 82.1253C114.493 82.7078 114.617 83.1169 114.865 83.4144C115.137 83.7366 115.559 83.8853 116.141 83.8853C116.724 83.8853 116.575 83.8605 116.773 83.811C116.959 83.7614 117.12 83.687 117.282 83.5879V82.6086H116.03V81.9517H118.05V83.9473C117.802 84.1456 117.517 84.2943 117.195 84.3935C116.848 84.5051 116.476 84.5546 116.055 84.5546C115.298 84.5546 114.716 84.3191 114.294 83.8358C113.898 83.3896 113.712 82.8194 113.712 82.1128C113.712 81.4064 113.898 80.8238 114.294 80.3652C114.703 79.8694 115.261 79.6339 115.968 79.6339C116.674 79.6339 117.058 79.7702 117.406 80.043V80.0553Z" fill="#AD2121"/>
<path d="M119.697 79.7455V84.4679H118.929V79.7455H119.697Z" fill="#AD2121"/>
<path d="M123.59 79.9934C123.925 80.2413 124.111 80.6255 124.161 81.1337H123.392C123.33 80.8486 123.206 80.6255 123.033 80.5015C122.859 80.3652 122.599 80.3156 122.252 80.3156C121.905 80.3156 121.731 80.3528 121.57 80.4396C121.372 80.5387 121.273 80.6998 121.273 80.9354C121.273 81.1709 121.384 81.2948 121.607 81.4187C121.706 81.4684 121.979 81.5675 122.413 81.7039C123.057 81.9022 123.466 82.0633 123.652 82.1625C124.061 82.4103 124.272 82.745 124.272 83.1789C124.272 83.6127 124.111 83.9349 123.776 84.1828C123.442 84.4183 122.971 84.5423 122.376 84.5423C121.781 84.5423 121.335 84.4308 121.012 84.2076C120.616 83.9349 120.392 83.4887 120.368 82.8938H121.136C121.186 83.2532 121.31 83.5135 121.52 83.6622C121.706 83.7985 121.991 83.873 122.376 83.873C122.76 83.873 122.995 83.811 123.194 83.6994C123.392 83.5755 123.504 83.4267 123.504 83.2284C123.504 83.0301 123.355 82.7822 123.057 82.6335C122.971 82.5839 122.661 82.4848 122.14 82.3236C121.558 82.1377 121.198 82.0013 121.049 81.927C120.69 81.7039 120.504 81.394 120.504 80.9726C120.504 80.5511 120.678 80.2288 121.037 79.981C121.372 79.7455 121.781 79.6339 122.289 79.6339C122.797 79.6339 123.281 79.7455 123.59 79.981V79.9934Z" fill="#AD2121"/>
<path d="M128.437 79.7455V80.4024H126.888V84.4679H126.119V80.4024H124.57V79.7455H128.437Z" fill="#AD2121"/>
<path d="M129.775 79.7455V84.4679H129.006V79.7455H129.775Z" fill="#AD2121"/>
<path d="M134.127 80.0802C134.474 80.3528 134.673 80.7371 134.747 81.2205H133.991C133.916 80.9106 133.768 80.6875 133.545 80.5388C133.334 80.39 133.061 80.328 132.727 80.328C132.231 80.328 131.859 80.4892 131.611 80.8363C131.376 81.1461 131.264 81.5676 131.264 82.1129C131.264 82.6583 131.376 83.1045 131.599 83.4019C131.846 83.7242 132.231 83.8854 132.739 83.8854C133.247 83.8854 133.359 83.7986 133.569 83.6375C133.792 83.4639 133.954 83.1913 134.04 82.8318H134.797C134.685 83.3896 134.449 83.8234 134.053 84.1333C133.693 84.4183 133.247 84.5671 132.739 84.5671C131.946 84.5671 131.363 84.3192 130.979 83.8234C130.644 83.4019 130.471 82.8318 130.471 82.1129C130.471 81.3941 130.644 80.8363 130.991 80.4024C131.388 79.8942 131.97 79.6587 132.714 79.6587C133.458 79.6587 133.73 79.8074 134.09 80.0925H134.127V80.0802Z" fill="#AD2121"/>
<path d="M138.514 79.9934C138.849 80.2413 139.035 80.6255 139.084 81.1337H138.316C138.254 80.8486 138.13 80.6255 137.956 80.5015C137.783 80.3652 137.523 80.3156 137.176 80.3156C136.829 80.3156 136.655 80.3528 136.494 80.4396C136.296 80.5387 136.196 80.6998 136.196 80.9354C136.196 81.1709 136.308 81.2948 136.531 81.4187C136.63 81.4684 136.903 81.5675 137.337 81.7039C137.981 81.9022 138.39 82.0633 138.576 82.1625C138.985 82.4103 139.196 82.745 139.196 83.1789C139.196 83.6127 139.035 83.9349 138.7 84.1828C138.366 84.4183 137.894 84.5423 137.299 84.5423C136.705 84.5423 136.258 84.4308 135.936 84.2076C135.539 83.9349 135.316 83.4887 135.292 82.8938H136.06C136.11 83.2532 136.234 83.5135 136.444 83.6622C136.63 83.7985 136.915 83.873 137.299 83.873C137.684 83.873 137.919 83.811 138.118 83.6994C138.316 83.5755 138.427 83.4267 138.427 83.2284C138.427 83.0301 138.279 82.7822 137.981 82.6335C137.894 82.5839 137.585 82.4848 137.064 82.3236C136.481 82.1377 136.122 82.0013 135.973 81.927C135.614 81.7039 135.428 81.394 135.428 80.9726C135.428 80.5511 135.601 80.2288 135.961 79.981C136.296 79.7455 136.705 79.6339 137.213 79.6339C137.721 79.6339 138.204 79.7455 138.514 79.981V79.9934Z" fill="#AD2121"/>
<path d="M144.018 79.7455C145.158 79.7455 145.728 80.2289 145.728 81.1957C145.728 82.1624 145.158 82.6582 144.005 82.6582H142.828V84.4679H142.059V79.7455H144.018ZM142.828 81.9889H143.956C144.303 81.9889 144.55 81.927 144.712 81.803C144.873 81.6791 144.947 81.4683 144.947 81.1833C144.947 80.8982 144.86 80.6999 144.699 80.5759C144.538 80.4519 144.29 80.39 143.956 80.39H142.828V81.9766V81.9889Z" fill="#AD2121"/>
<path d="M148.489 79.7453C148.973 79.7453 149.357 79.8569 149.63 80.0676C149.927 80.303 150.076 80.6501 150.076 81.0963C150.076 81.5426 150.014 81.5549 149.877 81.7532C149.729 81.964 149.53 82.1004 149.27 82.1747C149.679 82.2863 149.915 82.5465 149.964 83.0176L150.038 83.7737C150.063 84.0587 150.162 84.2942 150.324 84.4678H149.481C149.369 84.319 149.307 84.1207 149.27 83.848L149.208 83.2654C149.183 83.0051 149.096 82.8193 148.973 82.7077C148.836 82.5837 148.625 82.5342 148.365 82.5342H147.138V84.4553H146.37V79.7329H148.489V79.7453ZM147.163 81.8772H148.39C148.7 81.8772 148.923 81.8152 149.084 81.6913C149.233 81.5549 149.307 81.3691 149.307 81.1336C149.307 80.898 149.233 80.6873 149.084 80.5758C148.935 80.4518 148.712 80.4022 148.39 80.4022H147.163V81.8772Z" fill="#AD2121"/>
<path d="M151.775 79.7455V84.4679H151.007V79.7455H151.775Z" fill="#AD2121"/>
<path d="M153.115 79.7455L154.416 83.6003H154.441L155.742 79.7455H156.585L154.9 84.4679H153.97L152.284 79.7455H153.127H153.115Z" fill="#AD2121"/>
<path d="M159.286 79.7455L161.096 84.4679H160.265L159.831 83.278H157.848L157.414 84.4679H156.584L158.394 79.7455H159.286ZM159.608 82.6459L158.865 80.5759H158.84L158.096 82.6459H159.608Z" fill="#AD2121"/>
<path d="M165.074 79.7455V80.4024H163.525V84.4679H162.756V80.4024H161.207V79.7455H165.074Z" fill="#AD2121"/>
<path d="M169.041 79.7453V80.4022H166.401V81.7161H168.88V82.373H166.401V83.7984H169.152V84.4553H165.632V79.7329H169.041V79.7453Z" fill="#AD2121"/>
<path d="M172.859 79.7455V83.811H175.413V84.4679H172.091V79.7455H172.859Z" fill="#AD2121"/>
<path d="M176.777 79.7455V84.4679H176.009V79.7455H176.777Z" fill="#AD2121"/>
<path d="M178.61 79.7455L180.222 83.4515H180.246L181.845 79.7455H182.75V84.4679H181.982V81.208H181.957L180.569 84.4679H179.899L178.511 81.208H178.486V84.4679H177.718V79.7455H178.623H178.61Z" fill="#AD2121"/>
<path d="M184.462 79.7455V84.4679H183.694V79.7455H184.462Z" fill="#AD2121"/>
<path d="M188.885 79.7455V80.4024H187.335V84.4679H186.567V80.4024H185.018V79.7455H188.885Z" fill="#AD2121"/>
<path d="M192.866 79.7453V80.4022H190.226V81.7161H192.705V82.373H190.226V83.7984H192.978V84.4553H189.458V79.7329H192.866V79.7453Z" fill="#AD2121"/>
<path d="M195.43 79.7453C196.198 79.7453 196.768 79.956 197.165 80.3775C197.537 80.7741 197.735 81.3566 197.735 82.1004C197.735 82.844 197.549 83.4266 197.165 83.8232C196.768 84.2447 196.186 84.4553 195.43 84.4553H193.707V79.7329H195.43V79.7453ZM194.476 83.8109H195.281C195.876 83.8109 196.297 83.6745 196.57 83.4018C196.83 83.1291 196.966 82.6953 196.966 82.1127C196.966 81.5302 196.83 81.084 196.57 80.8113C196.297 80.5386 195.864 80.4022 195.281 80.4022H194.476V83.8109Z" fill="#AD2121"/>
<path d="M182.803 26.7324C184.117 26.7324 185.183 25.667 185.183 24.3526C185.183 23.0383 184.117 21.9728 182.803 21.9728C181.489 21.9728 180.423 23.0383 180.423 24.3526C180.423 25.667 181.489 26.7324 182.803 26.7324Z" stroke="#AD2121" stroke-width="0.322267" stroke-miterlimit="10"/>
</g>
</g>
<defs>
<clipPath id="clip0_96_5908">
<rect width="105" height="79.2" fill="white" transform="translate(99 15)"/>
</clipPath>
<clipPath id="clip1_96_5908">
<rect width="105" height="79.2" fill="white" transform="translate(99 15)"/>
</clipPath>
</defs>
</svg>
