<svg width="303" height="110" viewBox="0 0 303 110" fill="none" xmlns="http://www.w3.org/2000/svg">
<rect x="0.5" y="0.5" width="302" height="109" rx="14.5" stroke="#BABCBE"/>
<path d="M56.1665 40.2366V46.0146H63.947V69.5814H70.5513V46.0146H78.1509V40.2366H56.1665Z" fill="#1C73BA"/>
<path d="M84.2126 40.2366L75.1655 69.5814H82.0413L88.4647 47.061L94.8429 69.5814H101.764L92.5359 40.2366H84.2126Z" fill="#1C73BA"/>
<path d="M119.315 40.2366L110.675 50.7916V40.2366H104.207V69.5814H110.539V60.2093L115.561 54.9317L120.31 69.5814H127.05L120.175 49.7907L127.05 40.2366H119.315Z" fill="#1C73BA"/>
<path d="M146.909 40.2366H128.95V45.7416H146.909V40.2366Z" fill="#1C73BA"/>
<path d="M146.909 52.1565H128.95V57.6615H146.909V52.1565Z" fill="#1C73BA"/>
<path d="M146.909 64.1219H128.95V69.627H146.909V64.1219Z" fill="#1C73BA"/>
<path d="M149.804 40.2366V69.5814H167.762V64.1219H156.408V40.2366H149.804Z" fill="#103C6B"/>
<path d="M232.765 49.6542C233.037 43.8763 224.894 45.4231 224.894 45.4231V53.8854C224.894 53.8854 232.494 55.4322 232.765 49.6542ZM228.875 40.2366C228.875 40.2366 239.234 39.6906 239.234 49.4723C239.234 61.3467 224.849 59.0264 224.849 59.0264V69.5814H218.516V41.101C218.516 41.101 221.275 40.2366 228.875 40.2366Z" fill="#103C6B"/>
<path d="M187.937 40.4641H169.979V45.9691H187.937V40.4641Z" fill="#103C6B"/>
<path d="M187.937 52.384H169.979V57.889H187.937V52.384Z" fill="#103C6B"/>
<path d="M187.937 64.304H169.979V69.809H187.937V64.304Z" fill="#103C6B"/>
<path d="M198.748 40.4641L189.701 69.809H196.622L203 47.243L209.424 69.809H216.3L207.117 40.4641H198.748Z" fill="#103C6B"/>
<path d="M243.938 42.9663H244.255C244.481 42.9663 244.617 42.9663 244.662 42.9208C244.707 42.9208 244.752 42.8753 244.798 42.8298C244.843 42.7843 244.843 42.7388 244.843 42.6478C244.843 42.5568 244.843 42.5113 244.798 42.4658C244.752 42.4203 244.707 42.3748 244.617 42.3748C244.571 42.3748 244.481 42.3748 244.3 42.3748H243.938V42.9663ZM243.486 44.2857V42.0109H244.391C244.617 42.0109 244.798 42.0564 244.888 42.0564C244.979 42.1019 245.069 42.1928 245.114 42.2838C245.16 42.3748 245.205 42.5113 245.205 42.6478C245.205 42.8298 245.16 42.9663 245.069 43.0573C244.979 43.1938 244.843 43.2393 244.662 43.2848C244.752 43.3302 244.843 43.4212 244.888 43.4667C244.933 43.5122 245.024 43.6487 245.114 43.8307L245.386 44.2857H244.888L244.571 43.7852C244.436 43.6032 244.391 43.5122 244.345 43.4667C244.3 43.4212 244.255 43.3757 244.21 43.3757C244.164 43.3757 244.074 43.3302 243.983 43.3302H243.893V44.2857H243.486Z" fill="#103C6B"/>
<path d="M244.3 40.919C243.034 40.919 242.038 41.9199 242.038 43.1938C242.038 44.4677 243.034 45.4686 244.3 45.4686C245.567 45.4686 246.562 44.4677 246.562 43.1938C246.562 41.9654 245.567 40.919 244.3 40.919ZM244.3 45.878C242.807 45.878 241.631 44.6496 241.631 43.1938C241.631 41.6924 242.853 40.5095 244.3 40.5095C245.748 40.5095 246.969 41.7379 246.969 43.1938C247.014 44.6951 245.793 45.878 244.3 45.878Z" fill="#103C6B"/>
</svg>
