<svg width="170" height="72" viewBox="0 0 170 72" fill="none" xmlns="http://www.w3.org/2000/svg">
<g clip-path="url(#clip0_116_8702)">
<rect width="170" height="72" rx="6" fill="#EC696A" fill-opacity="0.08"/>
<path d="M88.4139 18.6121H89.1872L91.391 16.4108L91.4993 15.4762C90.2368 14.3632 88.7111 13.59 87.0662 13.2297C85.4214 12.8694 83.7118 12.9339 82.0988 13.417C80.4859 13.9002 79.0228 14.7861 77.848 15.9911C76.6731 17.1961 75.8252 18.6803 75.3843 20.3037C75.6298 20.2031 75.9018 20.1868 76.1576 20.2573L80.5652 19.5313C80.5652 19.5313 80.7895 19.1605 80.9054 19.1837C81.8499 18.1477 83.155 17.5114 84.5538 17.4051C85.9525 17.2989 87.339 17.7307 88.4294 18.6121H88.4139Z" fill="#EA4335"/>
<path d="M94.5303 20.3041C94.0238 18.4408 92.9837 16.7657 91.5378 15.4844L88.4447 18.5739C89.0893 19.1001 89.6059 19.7655 89.9555 20.5202C90.3052 21.2748 90.4786 22.0989 90.4629 22.9302V23.4786C90.8244 23.4786 91.1824 23.5497 91.5164 23.6879C91.8504 23.8261 92.1539 24.0287 92.4095 24.284C92.6651 24.5393 92.8679 24.8424 93.0062 25.1761C93.1446 25.5097 93.2158 25.8672 93.2158 26.2283C93.2158 26.5894 93.1446 26.947 93.0062 27.2806C92.8679 27.6142 92.6651 27.9173 92.4095 28.1727C92.1539 28.428 91.8504 28.6305 91.5164 28.7687C91.1824 28.9069 90.8244 28.978 90.4629 28.978H84.9572L84.4082 29.5342V32.8323L84.9572 33.3807H90.4629C92.0004 33.3926 93.5009 32.91 94.7424 32.0041C95.9839 31.0982 96.9006 29.8172 97.3568 28.3506C97.8129 26.8841 97.7844 25.3098 97.2754 23.8606C96.7664 22.4115 95.8039 21.1645 94.5303 20.3041Z" fill="#4285F4"/>
<path d="M79.4442 33.349H84.9499V28.9464H79.4442C79.0519 28.9463 78.6643 28.862 78.3075 28.6992L77.5342 28.9387L75.3149 31.14L75.1216 31.9124C76.3661 32.8511 77.8847 33.3558 79.4442 33.349Z" fill="#34A853"/>
<path d="M79.4439 19.0684C77.9521 19.0773 76.5004 19.5514 75.2914 20.4244C74.0825 21.2975 73.1767 22.5258 72.7006 23.938C72.2245 25.3502 72.2019 26.8757 72.6359 28.3013C73.0699 29.727 73.9388 30.9817 75.1213 31.8901L78.3149 28.7001C77.9091 28.517 77.5538 28.2382 77.2795 27.8877C77.0052 27.5373 76.8202 27.1256 76.7402 26.688C76.6603 26.2504 76.6878 25.7999 76.8204 25.3753C76.9531 24.9506 77.1869 24.5645 77.5018 24.2499C77.8167 23.9354 78.2033 23.7019 78.6284 23.5694C79.0535 23.4369 79.5045 23.4094 79.9426 23.4893C80.3807 23.5691 80.7929 23.754 81.1437 24.0279C81.4946 24.3019 81.7737 24.6568 81.957 25.0622L85.1507 21.8722C84.4804 20.9969 83.6164 20.2883 82.6264 19.8019C81.6364 19.3155 80.5472 19.0645 79.4439 19.0684Z" fill="#FBBC05"/>
<path d="M40.2461 53.8737C39.2982 53.8858 38.3576 53.7066 37.4806 53.3469C36.6037 52.9873 35.8084 52.4545 35.1425 51.7805C34.4556 51.1352 33.9105 50.3543 33.5418 49.4873C33.1731 48.6204 32.9887 47.6864 33.0005 46.7446C32.9892 45.8028 33.1737 44.8689 33.5424 44.002C33.9111 43.1352 34.456 42.3542 35.1425 41.7086C35.8052 41.0276 36.5989 40.4877 37.476 40.1213C38.3531 39.755 39.2954 39.5697 40.2461 39.5768C41.1519 39.5647 42.0512 39.7326 42.8915 40.0708C43.7318 40.4089 44.4964 40.9105 45.1409 41.5464L43.7645 42.9444C42.8219 42.0345 41.5568 41.5346 40.2461 41.5541C39.5662 41.5458 38.892 41.6788 38.2663 41.9447C37.6406 42.2107 37.0771 42.6037 36.6117 43.0989C36.128 43.5782 35.7464 44.1504 35.4899 44.7809C35.2335 45.4114 35.1074 46.0873 35.1193 46.7677C35.1136 47.4404 35.2427 48.1075 35.499 48.7296C35.7554 49.3517 36.1337 49.9164 36.6117 50.3902C37.5693 51.3434 38.8615 51.8857 40.2134 51.9016C41.5652 51.9174 42.8698 51.4057 43.8496 50.4752C44.4561 49.8117 44.8282 48.9679 44.9089 48.0731H40.2693V46.0958H46.8344C46.8989 46.494 46.9248 46.8975 46.9117 47.3007C46.9525 48.1352 46.8235 48.9693 46.5325 49.7526C46.2414 50.5358 45.7943 51.252 45.2183 51.8578C44.5778 52.5239 43.804 53.0476 42.9472 53.395C42.0905 53.7423 41.1702 53.9055 40.2461 53.8737ZM55.5105 52.5607C54.6295 53.4043 53.4562 53.8752 52.2357 53.8752C51.0152 53.8752 49.8419 53.4043 48.9609 52.5607C48.5224 52.1359 48.177 51.6248 47.9467 51.0597C47.7164 50.4946 47.6062 49.8879 47.6231 49.278C47.6067 48.6682 47.7171 48.0616 47.9474 47.4965C48.1776 46.9315 48.5227 46.4203 48.9609 45.9953C49.8429 45.1535 51.0158 44.6837 52.2357 44.6837C53.4556 44.6837 54.6285 45.1535 55.5105 45.9953C55.9487 46.4203 56.2938 46.9315 56.524 47.4965C56.7543 48.0616 56.8647 48.6682 56.8483 49.278C56.8642 49.8885 56.7528 50.4955 56.5211 51.0607C56.2895 51.6258 55.9427 52.1366 55.5028 52.5607H55.5105ZM50.4069 51.2708C50.6413 51.5208 50.9245 51.72 51.2391 51.8563C51.5536 51.9925 51.8928 52.0628 52.2357 52.0628C52.5786 52.0628 52.9178 51.9925 53.2324 51.8563C53.5469 51.72 53.8301 51.5208 54.0645 51.2708C54.32 51.007 54.5201 50.6947 54.6529 50.3525C54.7857 50.0102 54.8486 49.6449 54.8378 49.278C54.8492 48.9099 54.7866 48.5432 54.6538 48.1996C54.521 47.856 54.3206 47.5425 54.0645 47.2775C53.827 47.0301 53.5419 46.8332 53.2263 46.6987C52.9107 46.5642 52.5711 46.4949 52.228 46.4949C51.8848 46.4949 51.5452 46.5642 51.2296 46.6987C50.914 46.8332 50.6289 47.0301 50.3914 47.2775C50.1353 47.5425 49.935 47.856 49.8021 48.1996C49.6693 48.5432 49.6068 48.9099 49.6182 49.278C49.6084 49.6454 49.6725 50.0111 49.8066 50.3534C49.9408 50.6957 50.1423 51.0076 50.3992 51.2708H50.4069ZM65.5785 52.5607C64.6975 53.4043 63.5242 53.8752 62.3037 53.8752C61.0833 53.8752 59.91 53.4043 59.0289 52.5607C58.5904 52.1359 58.245 51.6248 58.0147 51.0597C57.7844 50.4946 57.6742 49.8879 57.6911 49.278C57.6747 48.6682 57.7851 48.0616 58.0154 47.4965C58.2456 46.9315 58.5908 46.4203 59.0289 45.9953C59.91 45.1518 61.0833 44.6808 62.3037 44.6808C63.5242 44.6808 64.6975 45.1518 65.5785 45.9953C66.0167 46.4203 66.3618 46.9315 66.5921 47.4965C66.8223 48.0616 66.9327 48.6682 66.9163 49.278C66.9332 49.8879 66.823 50.4946 66.5927 51.0597C66.3624 51.6248 66.0171 52.1359 65.5785 52.5607ZM60.4749 51.2708C60.7093 51.5208 60.9925 51.72 61.3071 51.8563C61.6216 51.9925 61.9609 52.0628 62.3037 52.0628C62.6466 52.0628 62.9858 51.9925 63.3004 51.8563C63.6149 51.72 63.8982 51.5208 64.1325 51.2708C64.388 51.007 64.5881 50.6947 64.7209 50.3525C64.8537 50.0102 64.9166 49.6449 64.9058 49.278C64.9172 48.9099 64.8546 48.5432 64.7218 48.1996C64.589 47.856 64.3886 47.5425 64.1325 47.2775C63.8951 47.0301 63.6099 46.8332 63.2943 46.6987C62.9787 46.5642 62.6391 46.4949 62.296 46.4949C61.9528 46.4949 61.6133 46.5642 61.2976 46.6987C60.982 46.8332 60.6969 47.0301 60.4595 47.2775C60.2033 47.5425 60.003 47.856 59.8702 48.1996C59.7373 48.5432 59.6748 48.9099 59.6862 49.278C59.6764 49.6454 59.7405 50.0111 59.8746 50.3534C60.0088 50.6957 60.2103 51.0076 60.4672 51.2708H60.4749ZM72.1977 57.9983C71.2709 58.0277 70.362 57.7387 69.6227 57.1796C68.9664 56.6867 68.4494 56.0319 68.1226 55.2795L69.8857 54.5457C70.0775 54.9954 70.3777 55.3907 70.7595 55.6966C71.1681 56.0256 71.6808 56.1981 72.2055 56.1832C72.5382 56.2034 72.8713 56.1518 73.1822 56.0318C73.4931 55.9118 73.7745 55.7264 74.0072 55.488C74.4731 54.9267 74.7031 54.2069 74.649 53.4798V52.8155H74.5794C74.2848 53.1651 73.9126 53.4414 73.4925 53.6224C73.0724 53.8033 72.6159 53.8841 72.1591 53.8583C71.5785 53.86 71.0039 53.7415 70.4715 53.5102C69.9391 53.2789 69.4605 52.9398 69.066 52.5143C68.6379 52.0923 68.3 51.5878 68.0727 51.0316C67.8454 50.4753 67.7335 49.8787 67.7437 49.278C67.733 48.6738 67.8446 48.0736 68.0719 47.5135C68.2991 46.9534 68.6372 46.4449 69.066 46.0185C69.4595 45.5913 69.9378 45.2505 70.4702 45.0178C71.0027 44.7851 71.5779 44.6656 72.1591 44.6668C72.651 44.666 73.1369 44.7741 73.5819 44.9835C73.9669 45.1514 74.3101 45.4019 74.5872 45.7173H74.6568V44.9835H76.5745V53.2095C76.625 53.8602 76.542 54.5144 76.3305 55.1319C76.1191 55.7495 75.7838 56.3175 75.345 56.8011C74.927 57.2005 74.4332 57.5122 73.8926 57.7178C73.3521 57.9234 72.7758 58.0188 72.1977 57.9983ZM72.3369 52.0663C72.6671 52.0736 72.9949 52.0081 73.2969 51.8746C73.5989 51.7412 73.8678 51.5429 74.0845 51.2939C74.5616 50.7478 74.8132 50.041 74.7882 49.3166C74.8169 48.58 74.5655 47.8598 74.0845 47.3007C73.8682 47.0513 73.5993 46.8528 73.2972 46.7192C72.9951 46.5857 72.6672 46.5205 72.3369 46.5283C71.9977 46.5213 71.6609 46.5866 71.3489 46.7198C71.0369 46.853 70.7569 47.051 70.5275 47.3007C70.016 47.8397 69.7381 48.5586 69.7542 49.3012C69.7463 49.6654 69.8106 50.0276 69.9433 50.3669C70.076 50.7062 70.2745 51.016 70.5275 51.2785C70.7558 51.5306 71.0353 51.7312 71.3473 51.8671C71.6592 52.0029 71.9966 52.0708 72.3369 52.0663ZM79.9846 40.0943V53.5957H77.9664V40.0943H79.9846ZM85.5212 53.8737C84.9168 53.8892 84.3157 53.7799 83.7555 53.5527C83.1953 53.3254 82.6882 52.9851 82.2658 52.5529C81.8371 52.124 81.5003 51.6125 81.2756 51.0495C81.051 50.4866 80.9432 49.8838 80.9589 49.278C80.9361 48.6707 81.0359 48.065 81.2524 47.497C81.469 46.929 81.7978 46.4104 82.2194 45.9722C82.6166 45.5539 83.0969 45.2231 83.6295 45.001C84.1622 44.7789 84.7354 44.6703 85.3125 44.6823C85.8431 44.6767 86.3693 44.7792 86.859 44.9835C87.3001 45.1613 87.702 45.4237 88.0421 45.7559C88.3341 46.0375 88.5935 46.351 88.8154 46.6905C88.9948 46.9771 89.1476 47.2796 89.2716 47.5942L89.4804 48.1194L83.2942 50.6606C83.4813 51.09 83.7943 51.4526 84.1918 51.7008C84.5894 51.949 85.0529 52.0711 85.5212 52.0509C85.977 52.0521 86.4252 51.9354 86.8223 51.712C87.2194 51.4887 87.5517 51.1663 87.7869 50.7764L89.3335 51.8192C88.9388 52.3832 88.4337 52.8614 87.8488 53.2249C87.1532 53.6639 86.3439 53.8895 85.5212 53.8737ZM82.9385 49.139L87.0523 47.432C86.9256 47.131 86.6989 46.8828 86.4105 46.7291C86.0875 46.5469 85.722 46.4537 85.3511 46.4588C84.7218 46.4751 84.1244 46.7387 83.6886 47.1925C83.4278 47.4418 83.2253 47.7455 83.0957 48.082C82.966 48.4185 82.9124 48.7794 82.9385 49.139ZM100.051 53.8737C99.1927 53.8885 98.3402 53.7299 97.5448 53.4075C96.7494 53.085 96.0274 52.6053 95.4222 51.9971C94.817 51.389 94.341 50.665 94.0229 49.8686C93.7048 49.0721 93.5511 48.2197 93.571 47.3625C93.5511 46.5052 93.7048 45.6528 94.0229 44.8564C94.341 44.0599 94.817 43.3359 95.4222 42.7278C96.0274 42.1197 96.7494 41.64 97.5448 41.3175C98.3402 40.995 99.1927 40.8364 100.051 40.8512C100.92 40.8241 101.783 40.9934 102.577 41.3465C103.372 41.6996 104.075 42.2273 104.637 42.8903L103.523 43.9717C103.111 43.4541 102.583 43.0409 101.981 42.7658C101.379 42.4907 100.72 42.3613 100.059 42.3883C99.422 42.374 98.789 42.4884 98.1977 42.7246C97.6063 42.9609 97.0689 43.3141 96.6177 43.7631C96.1486 44.2343 95.7821 44.7973 95.5413 45.4167C95.3004 46.0361 95.1904 46.6986 95.2181 47.3625C95.1904 48.0264 95.3004 48.6889 95.5413 49.3083C95.7821 49.9277 96.1486 50.4906 96.6177 50.9618C97.0689 51.4108 97.6063 51.7641 98.1977 52.0003C98.789 52.2366 99.422 52.351 100.059 52.3367C100.798 52.3449 101.529 52.1867 102.199 51.8738C102.868 51.5609 103.458 51.1014 103.925 50.5293L105.039 51.6415C104.456 52.3379 103.724 52.8948 102.897 53.2713C102.005 53.6823 101.033 53.8882 100.051 53.8737ZM108.031 53.5957H106.431V41.1216H108.031V53.5957ZM110.645 46.088C111.484 45.256 112.618 44.7891 113.8 44.7891C114.982 44.7891 116.116 45.256 116.955 46.088C117.365 46.5206 117.685 47.0299 117.898 47.5866C118.11 48.1434 118.21 48.7366 118.192 49.3321C118.21 49.9276 118.11 50.5208 117.898 51.0775C117.685 51.6342 117.365 52.1436 116.955 52.5761C116.116 53.4081 114.982 53.8751 113.8 53.8751C112.618 53.8751 111.484 53.4081 110.645 52.5761C110.235 52.1436 109.914 51.6342 109.702 51.0775C109.49 50.5208 109.39 49.9276 109.408 49.3321C109.39 48.7366 109.49 48.1434 109.702 47.5866C109.914 47.0299 110.235 46.5206 110.645 46.088ZM111.836 51.572C112.088 51.8382 112.392 52.0503 112.729 52.1952C113.066 52.3401 113.429 52.4149 113.796 52.4149C114.163 52.4149 114.526 52.3401 114.863 52.1952C115.2 52.0503 115.504 51.8382 115.756 51.572C116.036 51.2721 116.253 50.9197 116.395 50.5351C116.537 50.1505 116.601 49.7416 116.584 49.3321C116.601 48.9226 116.537 48.5136 116.395 48.129C116.253 47.7445 116.036 47.392 115.756 47.0921C115.504 46.8259 115.2 46.6138 114.863 46.4689C114.526 46.324 114.163 46.2492 113.796 46.2492C113.429 46.2492 113.066 46.324 112.729 46.4689C112.392 46.6138 112.088 46.8259 111.836 47.0921C111.556 47.392 111.339 47.7445 111.197 48.129C111.055 48.5136 110.991 48.9226 111.008 49.3321C110.993 49.7408 111.058 50.1486 111.202 50.5318C111.345 50.915 111.563 51.266 111.843 51.5643L111.836 51.572ZM127.061 53.5957H125.515V52.4139H125.469C125.193 52.8627 124.804 53.2306 124.34 53.4798C123.858 53.7586 123.311 53.9052 122.754 53.9046C122.302 53.9355 121.849 53.864 121.429 53.6955C121.008 53.527 120.632 53.2658 120.326 52.9314C119.74 52.1913 119.446 51.2627 119.499 50.3207V45.0685H121.1V50.0272C121.1 51.6183 121.803 52.4139 123.211 52.4139C123.523 52.4236 123.834 52.3586 124.116 52.2243C124.399 52.0899 124.645 51.8901 124.834 51.6415C125.249 51.1163 125.471 50.4644 125.461 49.7955V45.0685H127.061V53.5957ZM132.498 53.8737C131.955 53.8755 131.418 53.7598 130.924 53.5344C130.43 53.3091 129.991 52.9795 129.636 52.5684C128.835 51.6839 128.405 50.5247 128.438 49.3321C128.405 48.1394 128.835 46.9802 129.636 46.0958C129.991 45.6846 130.43 45.3551 130.924 45.1297C131.418 44.9044 131.955 44.7886 132.498 44.7904C133.106 44.7808 133.707 44.9243 134.245 45.2075C134.718 45.4453 135.119 45.8053 135.405 46.2502H135.475L135.405 45.0685V41.1216H137.006V53.5957H135.459V52.4139H135.39C135.103 52.8588 134.703 53.2189 134.23 53.4566C133.696 53.7374 133.101 53.8807 132.498 53.8737ZM132.76 52.4139C133.122 52.4192 133.481 52.3475 133.813 52.2037C134.145 52.0599 134.443 51.8472 134.686 51.5797C135.23 50.9613 135.508 50.1537 135.459 49.3321C135.508 48.5104 135.23 47.7028 134.686 47.0844C134.441 46.8155 134.143 46.6007 133.81 46.4537C133.477 46.3066 133.117 46.2307 132.753 46.2307C132.389 46.2307 132.029 46.3066 131.696 46.4537C131.363 46.6007 131.065 46.8155 130.82 47.0844C130.549 47.3886 130.342 47.743 130.209 48.1274C130.077 48.5118 130.021 48.9185 130.046 49.3243C130.021 49.7302 130.077 50.1369 130.209 50.5213C130.342 50.9057 130.549 51.2601 130.82 51.5643C131.063 51.8365 131.363 52.0533 131.698 52.1999C132.032 52.3464 132.395 52.4194 132.76 52.4139Z" fill="#5F6368"/>
</g>
<defs>
<clipPath id="clip0_116_8702">
<rect width="170" height="72" rx="6" fill="white"/>
</clipPath>
</defs>
</svg>
