<svg width="170" height="72" viewBox="0 0 170 72" fill="none" xmlns="http://www.w3.org/2000/svg">
<g clip-path="url(#clip0_216_21009)">
<rect width="170" height="72" rx="6" fill="#EC696A" fill-opacity="0.08"/>
<g clip-path="url(#clip1_216_21009)">
<path d="M55.2304 58.5771V47.2879L55.4652 47.0524H57.812L58.0468 47.2879V58.5771L57.812 58.8127H55.4652L55.2304 58.5771ZM55.2304 25.524V14.2354L55.4652 14H57.812L58.0468 14.2354V25.524L57.812 25.7594H55.4652L55.2304 25.524ZM45.0292 50.4388H44.6973L43.0382 48.7753V48.4427L46.9125 44.5608L48.6694 44.5617L48.9051 44.7962V46.557L45.0292 50.4388ZM45.0275 22.3738H44.6957L43.0365 24.0374V24.3699L46.9109 28.2519L48.6678 28.251L48.9035 28.0164V26.2558L45.0275 22.3738ZM30.2349 34.9951H46.193L46.4279 35.2305V37.5822L46.193 37.8177H30.2349L30 37.5822V35.2305L30.2349 34.9951ZM124.746 34.9951H139.766L140.001 35.2305V37.5822L139.766 37.8177H123.808L123.573 37.5822L124.511 35.2305L124.746 34.9951Z" fill="#05BDBA"/>
<path d="M75.5589 37.4103L75.324 37.6458H68.0443L67.8095 37.8812C67.8095 38.352 68.2793 39.7636 70.1577 39.7636C70.8624 39.7636 71.5662 39.5283 71.8013 39.0574L72.0361 38.8221H74.8542L75.089 39.0574L75.0738 39.1429C74.8063 40.5531 73.61 42.5879 70.1577 42.5879C66.1659 42.5879 64.2867 39.7636 64.2867 36.4694C64.2867 33.1752 66.165 30.351 69.9227 30.351C73.6805 30.351 75.5589 33.1752 75.5589 36.4694V37.4103ZM71.8013 35.2924L72.0361 35.0569L72.0347 35.0191C72.0129 34.6834 71.7207 33.1744 69.9227 33.1744C68.0443 33.1744 67.8095 34.8215 67.8095 35.0569L68.0443 35.2924H71.8013ZM82.1339 38.8221C82.1339 39.2927 82.3688 39.5283 82.8386 39.5283H84.9518L85.1869 39.7636V42.117L84.9518 42.3525H82.8386C80.7252 42.3525 78.8468 41.4108 78.8468 38.8221V33.6444L78.6118 33.409H76.9685L76.7334 33.1736V30.8202L76.9685 30.5848H78.6118L78.8468 30.3494V28.2315L79.0817 27.996H81.8998L82.1346 28.2315V30.3494L82.3696 30.5848H84.9527L85.1877 30.8202V33.1736L84.9527 33.409H82.3696L82.1346 33.6444V38.8221H82.1339ZM90.8222 42.3525H88.0041L87.7691 42.117V26.1143L88.0041 25.8789H90.8222L91.057 26.1143V42.117L90.8222 42.3525ZM97.1623 28.7031H94.3442L94.1091 28.4677V26.1143L94.3442 25.8789H97.1623L97.3971 26.1143V28.4677L97.1623 28.7031ZM97.1623 42.3525H94.3442L94.1091 42.117V30.821L94.3442 30.5856H97.1623L97.3971 30.821V42.117L97.1623 42.3525ZM108.199 26.1143V28.4677L107.964 28.7031H105.851C105.381 28.7031 105.146 28.9385 105.146 29.4094V30.351L105.381 30.5865H107.729L107.964 30.8219V33.1752L107.729 33.4107H105.381L105.146 33.6461V42.1178L104.911 42.3532H102.093L101.858 42.1178V33.6461L101.623 33.4107H99.9795L99.7445 33.1752V30.8219L99.9795 30.5865H101.623L101.858 30.351V29.4094C101.858 26.8484 103.696 25.8993 105.782 25.8792L107.963 25.8789L108.198 26.1143H108.199ZM116.888 42.587L116.798 42.808C115.886 45.029 114.905 46.353 111.721 46.353H110.546L110.311 46.1175V43.7641L110.546 43.5288H111.721L111.857 43.5276C112.913 43.5092 113.139 43.265 113.364 42.587V42.3517L109.607 33.1736V30.8202L109.842 30.5848H111.956L112.191 30.8202L115.009 38.8221H115.244L118.062 30.8202L118.296 30.5848H120.41L120.645 30.8202V33.1736L116.888 42.587ZM59.1014 42.3525L58.8666 42.117L58.8681 35.2981C58.8681 34.1219 58.4066 33.2098 56.9897 33.1802C56.2612 33.1612 55.4276 33.1785 54.5371 33.2164L54.4041 33.353L54.4058 42.117L54.1707 42.3525H51.3536L51.1187 42.117V30.6951L51.3536 30.4597L57.6935 30.4021C60.8698 30.4021 62.1552 32.5892 62.1552 35.0578V42.117L61.9204 42.3525H59.1014Z" fill="#014847"/>
</g>
</g>
<defs>
<clipPath id="clip0_216_21009">
<rect width="170" height="72" rx="6" fill="white"/>
</clipPath>
<clipPath id="clip1_216_21009">
<rect width="110" height="45" fill="white" transform="translate(30 14)"/>
</clipPath>
</defs>
</svg>
