<svg width="170" height="72" viewBox="0 0 170 72" fill="none" xmlns="http://www.w3.org/2000/svg">
<g clip-path="url(#clip0_699_2481)">
<rect width="170" height="72" rx="6" fill="#845EF7" fill-opacity="0.08"/>
<g clip-path="url(#clip1_699_2481)">
<path d="M85.4763 63.8608L69.6048 59.4545L66.0679 19.7812H104.932L101.392 59.4482L85.4763 63.8608Z" fill="#264DE4"/>
<path d="M98.3604 56.9227L101.386 23.0254H85.5V60.4883L98.3604 56.9227Z" fill="#2965F1"/>
<path d="M74.176 37.7393L74.6121 42.605H85.5V37.7393H74.176Z" fill="#EBEBEB"/>
<path d="M73.2998 27.8916L73.7421 32.7574H85.4999V27.8916H73.2998Z" fill="#EBEBEB"/>
<path d="M85.5001 50.3763L85.4787 50.382L80.0601 48.9188L79.7137 45.0381H74.8296L75.5112 52.678L85.4777 55.445L85.5001 55.4388V50.3763Z" fill="#EBEBEB"/>
<path d="M75.2144 9H81.1072V11.4645H77.6786V13.9289H81.1072V16.3934H75.2144V9Z" fill="black"/>
<path d="M82.2856 9H88.1785V11.143H84.7499V11.5716H88.1785V16.5005H82.2856V14.2504H85.7142V13.8218H82.2856V9Z" fill="black"/>
<path d="M89.3572 9H95.25V11.143H91.8215V11.5716H95.25V16.5005H89.3572V14.2504H92.7857V13.8218H89.3572V9Z" fill="black"/>
<path d="M96.7927 37.74L97.6711 27.8916H85.4832V32.7574H92.339L91.8963 37.74H85.4832V42.6057H91.4744L90.9096 48.9162L85.4832 50.381V55.4432L95.4575 52.6786L95.5307 51.8566L96.674 39.0466L96.7927 37.74Z" fill="white"/>
</g>
</g>
<defs>
<clipPath id="clip0_699_2481">
<rect width="170" height="72" rx="6" fill="white"/>
</clipPath>
<clipPath id="clip1_699_2481">
<rect width="39" height="55" fill="white" transform="translate(66 9)"/>
</clipPath>
</defs>
</svg>
