<svg width="170" height="72" viewBox="0 0 170 72" fill="none" xmlns="http://www.w3.org/2000/svg">
<g clip-path="url(#clip0_216_20908)">
<rect width="170" height="72" rx="6" fill="#845EF7" fill-opacity="0.08"/>
<path d="M85.229 10.5703L86.3714 12.7158C86.6282 13.1118 86.9065 13.4622 87.2329 13.7886C88.1929 14.7365 89.0881 15.7493 89.9112 16.8197C91.8455 19.3588 93.1511 22.181 94.0823 25.2337C94.6414 27.0961 94.9438 29.0112 94.9678 30.9431C95.0614 36.7245 93.0791 41.6875 89.0857 45.8129C88.4377 46.4657 87.7345 47.0681 86.9857 47.6056C86.5898 47.6056 86.4026 47.3032 86.2394 47.0225C85.9418 46.5041 85.745 45.9353 85.6562 45.3449C85.5146 44.6441 85.4234 43.9458 85.469 43.2258V42.8994C85.4378 42.825 85.0898 10.7359 85.229 10.5703Z" fill="#599636"/>
<path d="M85.2292 10.5013C85.1836 10.4077 85.1356 10.4773 85.0876 10.5253C85.1116 10.9933 84.946 11.4109 84.6917 11.8093C84.4109 12.2053 84.0389 12.5101 83.6645 12.8364C81.5934 14.6292 79.9614 16.7987 78.6559 19.2226C76.916 22.4841 76.0208 25.9807 75.7688 29.6646C75.6536 30.9917 76.1888 35.6763 76.6088 37.0275C77.7511 40.6177 79.8006 43.6248 82.4597 46.2335C83.1125 46.8623 83.8109 47.4455 84.5309 48.007C84.7421 48.007 84.7636 47.8198 84.8116 47.6806C84.9052 47.3831 84.9748 47.0807 85.0228 46.7735L85.4908 43.2792L85.2292 10.5013Z" fill="#6CAC48"/>
<path d="M86.3714 49.0216C86.417 48.4864 86.6738 48.0448 86.9546 47.6008C86.6738 47.4856 86.465 47.2528 86.3018 46.996C86.1603 46.7512 86.0451 46.4945 85.9539 46.2257C85.6275 45.2489 85.5579 44.2193 85.4643 43.221V42.6162C85.3491 42.7098 85.3227 43.5018 85.3227 43.6194C85.2555 44.6777 85.1139 45.7265 84.9027 46.7656C84.8331 47.1856 84.7875 47.6056 84.5283 47.9776C84.5283 48.0232 84.5283 48.0712 84.5523 48.1408C84.9723 49.3767 85.0875 50.6343 85.1571 51.9182V52.3862C85.1571 52.9454 85.1331 52.8278 85.5987 53.015C85.7859 53.0846 85.9947 53.1086 86.1819 53.2478C86.3234 53.2478 86.345 53.1326 86.345 53.0366L86.2754 52.2662V50.1207C86.2538 49.7463 86.3234 49.3743 86.3714 49.0216Z" fill="#C2BFBF"/>
<path d="M66.5035 59.4338V60.4704C66.5035 60.512 66.5035 60.5537 66.5108 60.5929C66.5231 60.7155 66.5991 60.7914 66.7093 60.8257C66.8123 60.8527 66.9176 60.8723 67.023 60.887C67.0843 60.8943 67.1039 60.9213 67.1112 60.9875C67.1186 61.2203 67.099 61.2472 66.8735 61.2325C66.3491 61.2056 65.8222 61.1982 65.2978 61.2325H65.2488C65.0846 61.2399 65.0723 61.2252 65.0723 61.061C65.0723 61.034 65.0797 60.9997 65.0797 60.9728C65.0797 60.9237 65.114 60.8968 65.1605 60.8968C65.2708 60.8846 65.3713 60.8551 65.4742 60.8355C65.6163 60.8012 65.6997 60.713 65.7119 60.5684C65.7315 60.4116 65.7315 60.2474 65.7315 60.0905L65.7389 58.2624C65.7438 58.1546 65.685 58.0541 65.5894 58.0026C65.4669 57.934 65.3345 57.8801 65.1997 57.8385C65.1581 57.8262 65.1189 57.8188 65.0846 57.7968C64.9841 57.7478 64.9816 57.6595 65.0772 57.6056C65.1115 57.586 65.1532 57.5713 65.1924 57.564C65.606 57.5028 66.0124 57.4001 66.4055 57.2577C66.4863 57.2307 66.5084 57.238 66.5157 57.3189C66.5231 57.3679 66.5157 57.4292 66.5084 57.4758C66.4961 57.564 66.4961 57.6522 66.4961 57.7355C66.4961 57.7698 66.5035 57.8042 66.5378 57.8237C66.5721 57.8433 66.6064 57.8237 66.6382 57.8041C66.7804 57.6939 66.925 57.5934 67.0818 57.5052C67.3073 57.3826 67.545 57.2724 67.8047 57.238C68.1184 57.1964 68.3904 57.2797 68.6306 57.4831C68.7286 57.5713 68.8168 57.6718 68.8904 57.7821C68.959 57.8826 68.9663 57.885 69.0545 57.8164C69.3143 57.6252 69.5863 57.4562 69.8804 57.3312C70.1867 57.2013 70.5004 57.1817 70.8141 57.2895C71.1351 57.4047 71.3532 57.6301 71.4831 57.9365C71.5934 58.1815 71.6399 58.4364 71.6399 58.7011V60.5292C71.6399 60.6517 71.6889 60.7277 71.8115 60.789C71.9414 60.838 72.0835 60.8649 72.2207 60.8919C72.3089 60.9115 72.3089 60.9115 72.3089 61.0022C72.2967 61.2276 72.2746 61.2399 72.0565 61.2276C71.5097 61.1958 70.9615 61.1958 70.4146 61.2276C70.3044 61.235 70.3044 61.235 70.2994 61.1247V61.0904C70.2921 60.9066 70.2921 60.9066 70.471 60.8649L70.6474 60.8159C70.77 60.7865 70.8582 60.6762 70.8582 60.5488L70.8778 60.0366L70.8656 58.7011C70.8606 58.581 70.8361 58.4633 70.7896 58.3531C70.618 57.9365 70.2431 57.787 69.8828 57.8286C69.6108 57.8556 69.3707 57.9659 69.1452 58.1227C69.0962 58.157 69.0643 58.1987 69.0692 58.2648C69.1305 58.7011 69.0889 59.1373 69.0962 59.5735V60.5219C69.0962 60.6934 69.1648 60.7743 69.329 60.8159L69.6427 60.8846C69.6917 60.8919 69.7187 60.9115 69.7187 60.9654V61.0144C69.7113 61.2056 69.6991 61.2129 69.5079 61.2129C68.9614 61.186 68.4174 61.1933 67.8782 61.2129C67.6945 61.2203 67.6798 61.2007 67.6871 61.0144C67.6945 60.9041 67.7067 60.8992 67.8096 60.8772L68.0351 60.8355C68.2336 60.7939 68.3071 60.7203 68.3218 60.5072L68.3414 60.0489L68.3292 58.679C68.3169 58.5075 68.2802 58.3457 68.187 58.1889C68.0498 57.9365 67.8366 57.8066 67.545 57.7943C67.2509 57.7747 66.9936 57.8826 66.7461 58.0198C66.5745 58.1203 66.501 58.2379 66.5133 58.4364V59.4313L66.5035 59.4338ZM79.352 59.4755V60.4361C79.352 60.5047 79.3569 60.5733 79.3642 60.6395C79.3691 60.7326 79.4377 60.811 79.5284 60.8306C79.646 60.865 79.7661 60.8845 79.8886 60.8919C79.9573 60.8992 79.9695 60.9262 79.9769 60.9801V61.0291C79.9695 61.2668 79.9425 61.2962 79.7098 61.2816C79.1902 61.2472 78.6731 61.2546 78.1561 61.2816L77.9576 61.2889C77.9159 61.2889 77.9086 61.2693 77.8963 61.2399C77.8767 61.1453 77.8767 61.0477 77.8963 60.9532C77.9037 60.9115 77.9306 60.9041 77.9723 60.8919C78.0728 60.8797 78.1561 60.8576 78.2516 60.8429C78.4232 60.8012 78.4844 60.7326 78.4894 60.5562L78.509 59.9827V58.3041C78.509 58.1815 78.46 58.1056 78.3521 58.0516C78.2296 57.983 78.0997 57.9365 77.9625 57.8875C77.9208 57.8752 77.8816 57.8605 77.8473 57.8385C77.7591 57.7772 77.7468 57.6889 77.835 57.6204C77.8743 57.5885 77.9208 57.5689 77.9723 57.5664C78.4085 57.4978 78.8324 57.4023 79.2417 57.238C79.2907 57.2184 79.3103 57.2307 79.3299 57.2724C79.3495 57.314 79.3569 57.3606 79.3495 57.4096L79.3299 57.7306C79.3299 57.7723 79.3103 57.8311 79.3422 57.8458C79.3838 57.8728 79.4108 57.8115 79.4451 57.7968C79.646 57.6277 79.8685 57.4859 80.1067 57.3753C80.3175 57.2748 80.5356 57.2111 80.7807 57.2258C81.2389 57.2528 81.5649 57.4856 81.7756 57.8875C81.8859 58.0982 81.9324 58.331 81.9521 58.5687L81.9717 59.0686L81.979 60.5758C81.9864 60.691 82.028 60.7669 82.1432 60.8086C82.2632 60.8478 82.3861 60.8773 82.5108 60.8968C82.6211 60.909 82.626 60.9311 82.6333 61.034V61.0683C82.6211 61.3011 82.6064 61.3061 82.3736 61.2938C81.865 61.2668 81.3554 61.2668 80.8468 61.2938C80.7782 61.3011 80.7096 61.2938 80.6483 61.3011C80.6067 61.3011 80.5797 61.2938 80.5724 61.2521C80.5601 61.1639 80.5454 61.0757 80.565 60.9801C80.5723 60.9385 80.592 60.9189 80.641 60.9115L80.9547 60.8625C81.0649 60.8355 81.1262 60.762 81.1384 60.664L81.1507 60.4729L81.1434 59.0466C81.1434 58.8824 81.136 58.7182 81.1017 58.5565C81.0208 58.2061 80.7537 57.9585 80.3935 57.9218C80.0798 57.8874 79.7955 57.9708 79.5333 58.1399C79.4034 58.2207 79.3495 58.3384 79.3495 58.4805V59.5097C79.3495 59.4901 79.3495 59.4901 79.3569 59.4901L79.352 59.4755Z" fill="#47474A"/>
<path d="M99.3221 57.5468C99.2461 57.0493 99.0623 56.6058 98.7413 56.2161C98.4619 55.873 98.1017 55.6059 97.69 55.4392C97.2611 55.2628 96.8029 55.2064 96.3397 55.1942C96.1485 55.1868 93.5436 55.2285 93.3524 55.1942C93.3034 55.1868 93.2715 55.2015 93.2421 55.2432C93.2078 55.2922 93.1735 55.3461 93.1539 55.4C93.073 55.5838 93.073 55.5716 93.2691 55.5985C93.4333 55.6255 93.5901 55.6402 93.747 55.6868C93.8891 55.7358 93.992 55.8166 94.0263 55.9735C94.0386 56.0495 94.0533 58.4486 94.0533 59.5661L94.0263 60.365C94.019 60.4262 94.0141 60.4875 93.992 60.5414C93.9651 60.6223 93.916 60.6909 93.8352 60.7252C93.7445 60.7668 93.6489 60.7938 93.5485 60.8012C93.3647 60.8208 93.3377 60.8281 93.2764 61.034L93.2568 61.1099C93.2446 61.1982 93.2495 61.2128 93.3377 61.2128L95.3766 61.2325L96.1755 61.2202L96.7269 61.1516C97.3542 61.0364 97.913 60.7766 98.3908 60.36C98.6628 60.1199 98.8858 59.8283 99.0452 59.4999C99.2363 59.1176 99.3172 58.701 99.3392 58.2795C99.376 58.0369 99.3637 57.7918 99.3221 57.5468ZM98.3345 58.5148C98.3075 58.951 98.2193 59.3749 97.9939 59.7548C97.7071 60.2522 97.2979 60.6002 96.7318 60.7227C96.4867 60.7717 96.2417 60.7987 95.9843 60.7644C95.8006 60.7448 95.6241 60.7227 95.4526 60.6615C95.1462 60.5512 95.0359 60.3625 95.0311 60.0635L95.0237 55.9514C95.0237 55.7064 95.134 55.6524 95.3104 55.6451C95.5775 55.6255 95.8496 55.6329 96.1142 55.6573C96.3985 55.6843 96.6754 55.7529 96.9401 55.8559C97.1362 55.9367 97.3175 56.0495 97.4792 56.1891C97.8468 56.5028 98.0919 56.8973 98.2266 57.3605C98.3369 57.7355 98.3565 58.1177 98.3369 58.5L98.3345 58.5148ZM104.99 59.1838C104.99 59.1421 104.99 59.1078 104.983 59.0686C104.922 58.6936 104.723 58.4069 104.417 58.1888C104.218 58.0467 103.995 57.9511 103.763 57.8825C103.721 57.8703 103.687 57.8555 103.647 57.8482C103.655 57.8139 103.674 57.8065 103.696 57.7992C103.834 57.7305 103.963 57.657 104.079 57.5541C104.289 57.3777 104.429 57.1596 104.5 56.8925C104.542 56.7503 104.542 56.6057 104.527 56.4562C104.505 56.1009 104.321 55.775 104.03 55.5691C103.716 55.3363 103.348 55.2408 102.966 55.2358C102.228 55.2236 101.486 55.2358 100.751 55.2358C100.54 55.2358 100.329 55.2481 100.109 55.2162C100.067 55.2089 100.008 55.1967 99.9788 55.2432C99.9298 55.3314 99.8685 55.4196 99.849 55.5226C99.8416 55.5716 99.8563 55.5985 99.9102 55.6034L100.381 55.6721C100.565 55.699 100.694 55.8019 100.709 55.9661C100.721 56.0789 100.729 56.194 100.729 56.3068L100.716 57.5811L100.709 60.1027C100.709 60.2522 100.689 60.3968 100.66 60.5463C100.645 60.6443 100.577 60.7227 100.484 60.7497C100.346 60.7914 100.217 60.8306 100.074 60.8306C99.996 60.8232 99.9225 60.8722 99.898 60.9458C99.871 61.007 99.849 61.0756 99.8367 61.1369C99.8244 61.2178 99.844 61.2472 99.9249 61.2374C99.9862 61.23 102.236 61.2864 102.66 61.2447C102.912 61.2178 103.16 61.1835 103.41 61.1075C103.839 60.9702 104.236 60.7742 104.549 60.4385C104.809 60.1664 104.958 59.8381 104.971 59.4558C104.99 59.3676 104.99 59.2793 104.99 59.1838ZM101.682 56.3876L101.702 55.8412C101.702 55.7382 101.743 55.6917 101.844 55.6696C102.008 55.6353 102.172 55.65 102.334 55.6574C102.498 55.6696 102.655 55.6917 102.819 55.7382C103.118 55.8264 103.351 55.998 103.488 56.2847C103.549 56.4146 103.584 56.5567 103.584 56.7013C103.591 56.8924 103.576 57.0763 103.503 57.26C103.388 57.5125 103.204 57.6767 102.937 57.7232C102.67 57.7722 101.915 57.7502 101.797 57.7502C101.694 57.7502 101.687 57.7379 101.687 57.635V56.9929C101.67 56.7944 101.67 56.5935 101.68 56.3925L101.682 56.3876ZM103.897 60.0562C103.782 60.3625 103.569 60.5757 103.27 60.6909C103.106 60.7521 102.942 60.7914 102.77 60.7791C102.559 60.7717 102.349 60.7791 102.135 60.7374C101.849 60.6762 101.719 60.4042 101.699 60.2057C101.665 59.8577 101.687 59.5023 101.68 59.245V58.3457C101.68 58.2354 101.692 58.2035 101.809 58.2035L102.451 58.2109L102.888 58.2599C103.194 58.3285 103.473 58.4437 103.691 58.6814C103.868 58.8725 103.963 59.1029 103.986 59.3553C104.005 59.593 103.993 59.8258 103.905 60.0513L103.897 60.0562Z" fill="#C2BFBF"/>
<path d="M86.5716 58.0031L86.748 58.03C86.9392 58.0374 87.1646 57.9688 87.2332 57.7016C87.27 57.5744 87.27 57.4393 87.2332 57.312C87.1916 57.312 87.172 57.3463 87.1524 57.361C87.0495 57.4419 86.9343 57.4909 86.8117 57.5031C86.5667 57.5301 86.3216 57.5154 86.0815 57.4272L85.7482 57.312C85.5154 57.236 85.2703 57.2042 85.0253 57.2164C84.6773 57.2434 84.3513 57.3586 84.0426 57.5227C83.7142 57.6992 83.4838 57.9663 83.3735 58.3265C83.3123 58.5373 83.3049 58.7554 83.3319 58.9735C83.4005 59.471 83.6603 59.8189 84.1234 60.0028C84.1504 60.0101 84.1725 60.0224 84.1994 60.0297C84.2607 60.064 84.268 60.0983 84.2116 60.1449L84.0401 60.2601L83.6309 60.5125C83.5279 60.5737 83.5157 60.6227 83.55 60.7306C83.5917 60.858 83.6652 60.9707 83.7681 61.0589C83.8612 61.1398 83.9666 61.2035 84.0818 61.2501C84.1577 61.2844 84.1577 61.2991 84.0891 61.3604L83.6995 61.6398C83.5696 61.7402 83.4397 61.8382 83.3319 61.9681C83.2561 62.0487 83.2014 62.1469 83.1727 62.2538C83.1441 62.3607 83.1423 62.473 83.1677 62.5808C83.2192 62.8185 83.3417 63.0317 83.523 63.1934C83.7 63.3582 83.9158 63.4754 84.1504 63.5341C84.5327 63.6443 84.9272 63.6493 85.3169 63.5757C85.8756 63.4728 86.3657 63.2253 86.748 62.8062C87.0151 62.5269 87.1695 62.1985 87.1842 61.8088C87.2161 61.3408 86.9024 60.9217 86.4466 60.8139L86.079 60.7453L84.9542 60.6448C84.8317 60.6375 84.7091 60.6178 84.6062 60.5566C84.4763 60.4757 84.442 60.3189 84.5253 60.216C84.5866 60.14 84.6626 60.0934 84.7581 60.0861L84.9762 60.0665C85.4073 60.0226 85.812 59.8384 86.128 59.542C86.2968 59.3854 86.4175 59.184 86.476 58.9613C86.5569 58.6672 86.5569 58.3633 86.4882 58.0643C86.4687 57.9884 86.476 57.9834 86.5691 57.9957L86.5716 58.0031ZM84.9003 61.3996C84.9419 61.4069 84.9812 61.3996 85.0228 61.3996C85.3095 61.4118 85.6036 61.4339 85.883 61.5099C85.9736 61.5368 86.0643 61.5711 86.1501 61.6128C86.4221 61.7623 86.525 62.0221 86.4907 62.3014C86.4491 62.6077 86.28 62.8258 86.0128 62.9704C85.8364 63.0709 85.6379 63.1126 85.4321 63.1346C85.3561 63.142 85.2899 63.1346 85.2139 63.1346C84.9762 63.142 84.7434 63.115 84.518 63.0194C84.3611 62.9582 84.2313 62.8699 84.1161 62.7474C83.8784 62.5097 83.7656 62.0735 84.1234 61.7182C84.3415 61.5148 84.5866 61.3726 84.9003 61.3996ZM85.6796 59.2725C85.5374 59.6327 85.2213 59.743 84.9101 59.694C84.6233 59.6523 84.4126 59.4955 84.2754 59.2357C84.0989 58.8877 84.0499 58.5275 84.1528 58.1525C84.2288 57.8732 84.3979 57.6624 84.6993 57.6134C85.0816 57.5448 85.4468 57.682 85.6404 58.0643C85.7408 58.2481 85.7825 58.4736 85.7825 58.7946C85.7751 58.9245 85.7482 59.1009 85.6796 59.2725ZM77.0878 58.8069C77.0265 58.4393 76.8893 58.1035 76.6368 57.8242C76.2619 57.4075 75.784 57.2262 75.2449 57.2238C74.7744 57.2164 74.3308 57.3536 73.9363 57.5987C73.5466 57.8315 73.2624 58.204 73.1374 58.6427C73.0222 59.0372 73.0271 59.4416 73.1178 59.8435C73.3555 60.9217 74.1887 61.3849 75.1836 61.3163C75.4777 61.2967 75.7571 61.2011 76.0218 61.0712C76.4163 60.8874 76.703 60.5933 76.9015 60.2061C77.0583 59.8851 77.127 59.5445 77.1196 59.1548L77.0878 58.8069ZM76.1198 60.3213C76.0193 60.635 75.7448 60.8605 75.4165 60.8948C75.1175 60.9364 74.8357 60.8605 74.5857 60.684C74.4044 60.5492 74.2573 60.3752 74.1568 60.1718C73.8775 59.5984 73.8285 59.0005 73.9731 58.3854C74.0196 58.1942 74.1176 58.0227 74.2598 57.8879C74.5122 57.6551 74.8063 57.6012 75.1322 57.6698C75.4458 57.7384 75.6836 57.9075 75.8796 58.1673C76.0757 58.427 76.1663 58.726 76.2203 59.0397C76.2472 59.1965 76.2472 59.3607 76.2546 59.4612C76.2546 59.7895 76.2276 60.0591 76.1247 60.3213H76.1198ZM91.9874 58.8632C91.9384 58.4687 91.7889 58.106 91.5095 57.807C91.1419 57.4051 90.6641 57.2336 90.1323 57.2262C89.674 57.2189 89.2525 57.3487 88.8629 57.5742C88.4267 57.834 88.1253 58.2016 88.0101 58.6991C87.8728 59.2431 87.9292 59.8165 88.1743 60.3213C88.3997 60.7992 88.782 61.1055 89.2869 61.2428C89.8456 61.3922 90.3774 61.3236 90.8969 61.0712C91.3478 60.8531 91.6664 60.5125 91.8526 60.0493C91.9629 59.7773 92.0021 59.4832 92.0095 59.1426C92.0144 59.0813 91.9997 58.9711 91.9874 58.8632ZM91.0464 60.2331C90.9361 60.6007 90.7057 60.8408 90.3161 60.8947C90.0294 60.9364 89.7574 60.8678 89.5123 60.7036C89.3016 60.5615 89.1521 60.3703 89.0418 60.1449C88.9192 59.9072 88.8506 59.6548 88.8237 59.395C88.782 59.074 88.782 58.7603 88.858 58.4393C88.8727 58.3755 88.8923 58.3143 88.9192 58.2555C89.1104 57.7776 89.5319 57.5595 90.0318 57.6698C90.3651 57.7457 90.6175 57.9295 90.8087 58.2089C90.9925 58.4809 91.0807 58.7824 91.1223 59.1058C91.1419 59.2357 91.1493 59.3729 91.1419 59.4881C91.1419 59.7552 91.1223 60.0003 91.0415 60.238L91.0464 60.2331Z" fill="#47474A"/>
</g>
<defs>
<clipPath id="clip0_216_20908">
<rect width="170" height="72" rx="6" fill="white"/>
</clipPath>
</defs>
</svg>
