<svg width="170" height="72" viewBox="0 0 170 72" fill="none" xmlns="http://www.w3.org/2000/svg">
<g clip-path="url(#clip0_116_8466)">
<rect width="170" height="72" rx="6" fill="#75BAF9" fill-opacity="0.08"/>
<path d="M153.51 48.7097C152.032 48.7097 150.695 48.3654 149.501 47.6769C148.327 46.9885 147.405 46.0368 146.737 44.822C146.069 43.5869 145.735 42.2102 145.735 40.6916C145.735 39.2338 146.049 37.8973 146.676 36.6825C147.324 35.4474 148.225 34.4757 149.379 33.7669C150.533 33.0381 151.85 32.6736 153.328 32.6736C154.846 32.6736 156.162 33.0077 157.276 33.6758C158.41 34.3439 159.27 35.2756 159.858 36.47C160.445 37.6444 160.738 39.0008 160.738 40.5397C160.738 40.722 160.728 40.9042 160.708 41.0865C160.688 41.2685 160.677 41.3699 160.677 41.3901H149.076C149.177 42.767 149.673 43.83 150.564 44.579C151.455 45.3283 152.467 45.7028 153.601 45.7028C155.342 45.7028 156.679 44.8929 157.61 43.2731L160.465 44.6399C159.797 45.875 158.865 46.867 157.671 47.6162C156.496 48.3452 155.109 48.7097 153.51 48.7097ZM157.337 38.839C157.296 38.353 157.134 37.8569 156.851 37.3508C156.567 36.8445 156.122 36.4193 155.514 36.0751C154.927 35.7108 154.188 35.5285 153.297 35.5285C152.305 35.5285 151.445 35.8321 150.716 36.4396C150.007 37.047 149.521 37.8469 149.258 38.839H157.337ZM138.403 48.7097C136.682 48.7097 135.254 48.3147 134.12 47.5251C133.007 46.7152 132.217 45.7028 131.751 44.4879L134.728 43.2124C135.072 44.0425 135.568 44.6702 136.216 45.0954C136.884 45.5205 137.613 45.7332 138.403 45.7332C139.233 45.7332 139.911 45.5814 140.437 45.2776C140.964 44.9538 141.227 44.5386 141.227 44.0325C141.227 43.5464 141.015 43.1517 140.589 42.8479C140.164 42.524 139.466 42.2405 138.494 41.9975L136.428 41.5117C135.295 41.2483 134.313 40.7624 133.483 40.0539C132.673 39.3249 132.268 38.3834 132.268 37.2292C132.268 35.8321 132.845 34.7286 133.999 33.9187C135.153 33.0886 136.57 32.6736 138.251 32.6736C139.648 32.6736 140.883 32.9672 141.956 33.5542C143.049 34.1414 143.839 34.992 144.325 36.1055L141.379 37.3508C141.096 36.7231 140.66 36.2573 140.073 35.9537C139.486 35.6499 138.848 35.4981 138.16 35.4981C137.491 35.4981 136.904 35.6499 136.398 35.9537C135.892 36.2371 135.639 36.6218 135.639 37.1079C135.639 37.533 135.811 37.8771 136.155 38.1405C136.519 38.4036 137.086 38.6263 137.856 38.8086L140.103 39.3553C141.622 39.7399 142.756 40.3271 143.505 41.1167C144.254 41.8862 144.629 42.8177 144.629 43.9109C144.629 44.8018 144.355 45.6117 143.809 46.3407C143.282 47.0694 142.543 47.6466 141.592 48.0718C140.66 48.497 139.597 48.7097 138.403 48.7097ZM122.42 48.7097C121.347 48.7097 120.375 48.497 119.504 48.0718C118.654 47.6264 117.976 47.019 117.469 46.2495C116.984 45.4599 116.741 44.569 116.741 43.5769C116.741 41.9975 117.328 40.7522 118.502 39.8412C119.697 38.9299 121.205 38.4745 123.027 38.4745C124.627 38.4745 125.994 38.7479 127.128 39.2944V38.6568C127.128 37.7455 126.763 36.9965 126.034 36.4093C125.326 35.8019 124.465 35.4981 123.453 35.4981C121.914 35.4981 120.679 36.1257 119.747 37.381L117.196 35.6196C117.905 34.6679 118.786 33.9392 119.838 33.4329C120.911 32.9268 122.116 32.6736 123.453 32.6736C125.66 32.6736 127.36 33.2304 128.555 34.3441C129.77 35.4372 130.377 36.9863 130.377 38.9908V48.2236H127.128V46.3711H126.945C126.459 47.0594 125.842 47.6264 125.093 48.0718C124.344 48.497 123.453 48.7097 122.42 48.7097ZM122.967 45.9457C123.716 45.9457 124.404 45.7637 125.032 45.3992C125.68 45.0144 126.186 44.5184 126.55 43.9109C126.935 43.2833 127.128 42.6152 127.128 41.9064C126.054 41.3192 124.91 41.0256 123.695 41.0256C122.582 41.0256 121.711 41.2685 121.084 41.7546C120.456 42.2405 120.142 42.8581 120.142 43.6071C120.142 44.2957 120.415 44.8626 120.962 45.308C121.529 45.7332 122.197 45.9457 122.967 45.9457ZM108.403 48.7095C107.309 48.7095 106.327 48.4768 105.457 48.0109C104.607 47.5453 103.969 46.9581 103.544 46.2495H103.361V48.2236H100.203V26.4778H103.544V33.0077L103.361 35.1031H103.544C103.969 34.4148 104.607 33.8378 105.457 33.372C106.327 32.9063 107.309 32.6734 108.403 32.6734C109.699 32.6734 110.893 33.0177 111.987 33.7062C113.1 34.3946 113.981 35.3563 114.629 36.5914C115.297 37.8062 115.631 39.1729 115.631 40.6916C115.631 42.21 115.297 43.5769 114.629 44.7915C113.981 46.0064 113.1 46.9683 111.987 47.6769C110.893 48.3654 109.699 48.7095 108.403 48.7095ZM107.826 45.6421C108.615 45.6421 109.344 45.4396 110.013 45.0347C110.701 44.6297 111.248 44.0525 111.653 43.3035C112.078 42.5341 112.29 41.6635 112.29 40.6916C112.29 39.7196 112.078 38.859 111.653 38.11C111.248 37.3406 110.701 36.7534 110.013 36.3484C109.344 35.9435 108.615 35.741 107.826 35.741C107.036 35.741 106.297 35.9435 105.609 36.3484C104.941 36.7534 104.394 37.3304 103.969 38.0796C103.564 38.8288 103.361 39.6994 103.361 40.6916C103.361 41.6837 103.564 42.5543 103.969 43.3035C104.394 44.0525 104.941 44.6297 105.609 45.0347C106.297 45.4396 107.036 45.6421 107.826 45.6421ZM90.9845 48.7097C89.5063 48.7097 88.17 48.3654 86.9754 47.6769C85.801 46.9885 84.8798 46.0368 84.2116 44.822C83.5435 43.5869 83.2095 42.2102 83.2095 40.6916C83.2095 39.2338 83.5233 37.8973 84.151 36.6825C84.7988 35.4474 85.6999 34.4757 86.8538 33.7669C88.008 33.0381 89.3242 32.6736 90.8022 32.6736C92.3207 32.6736 93.6369 33.0077 94.7504 33.6758C95.8843 34.3439 96.7449 35.2756 97.3319 36.47C97.9191 37.6444 98.2127 39.0008 98.2127 40.5397C98.2127 40.722 98.2027 40.9042 98.1825 41.0865C98.1621 41.2685 98.152 41.3699 98.152 41.3901H86.5502C86.6514 42.767 87.1474 43.83 88.0385 44.579C88.9293 45.3283 89.9417 45.7028 91.0756 45.7028C92.8168 45.7028 94.1532 44.8929 95.0845 43.2731L97.9394 44.6399C97.2712 45.875 96.34 46.867 95.1453 47.6162C93.9709 48.3452 92.5841 48.7097 90.9845 48.7097ZM94.8113 38.839C94.7706 38.353 94.6088 37.8569 94.3252 37.3508C94.0418 36.8445 93.5964 36.4193 92.989 36.0751C92.4018 35.7108 91.6628 35.5285 90.7718 35.5285C89.7796 35.5285 88.9193 35.8321 88.1903 36.4396C87.4817 37.047 86.9956 37.8469 86.7325 38.839H94.8113ZM73.9375 33.1595H77.096V35.4069H77.2782C77.6023 34.6375 78.1895 33.9998 79.0398 33.4935C79.8902 32.9672 80.7608 32.7039 81.6518 32.7039C82.3806 32.7039 82.978 32.8052 83.4436 33.0077V36.5004C82.7551 36.1562 81.9858 35.9841 81.1355 35.9841C80.042 35.9841 79.1207 36.4093 78.3715 37.2597C77.6427 38.0898 77.2782 39.1122 77.2782 40.3271V48.2236H73.9375V33.1595ZM69.1696 30.6082C68.5419 30.6082 68.0054 30.3957 67.5598 29.9705C67.1346 29.5251 66.9221 28.9884 66.9221 28.3607C66.9221 27.7331 67.1346 27.2068 67.5598 26.7814C68.0054 26.336 68.5419 26.1133 69.1696 26.1133C69.7972 26.1133 70.3236 26.336 70.7489 26.7814C71.1943 27.2068 71.417 27.7331 71.417 28.3607C71.417 28.9884 71.1943 29.5251 70.7489 29.9705C70.3236 30.3955 69.7972 30.6082 69.1696 30.6082ZM67.4991 33.1595H70.8399V48.2236H67.4991V33.1595ZM52.2817 26.4778H65.4931V29.7276H55.6832V35.9839H64.5212V39.2033H55.6832V48.2236H52.2817V26.4778Z" fill="#5E5E5E"/>
<path d="M19.4463 54.7743C21.1615 55.4641 22.9841 55.8491 24.8318 55.9119C27.317 56.0007 29.7882 55.5026 32.045 54.458C29.447 53.436 27.0623 51.9388 25.013 50.043C23.6977 52.149 21.752 53.8124 19.4463 54.7743Z" fill="#FF9100"/>
<path d="M25.0125 50.042C20.3806 45.7581 17.5707 39.5578 17.8081 32.757C17.8159 32.5363 17.8275 32.3157 17.8412 32.095C15.7841 31.5616 13.6222 31.5842 11.5767 32.1604C10.3007 34.3931 9.58824 36.9033 9.50108 39.4734C9.26121 46.3433 13.4184 52.3459 19.4459 54.7733C21.747 53.8114 23.6923 52.158 25.0125 50.042Z" fill="#FFC400"/>
<path d="M25.0127 50.0427C26.0895 48.3193 26.7427 46.2989 26.8187 44.1221C27.0185 38.396 23.1692 33.4701 17.8413 32.0957C17.8278 32.3164 17.8161 32.537 17.8084 32.7577C17.571 39.5585 20.3807 45.7588 25.0127 50.0427Z" fill="#FF9100"/>
<path d="M26.2227 16C23.1886 18.4309 20.7924 21.6362 19.3426 25.3288C18.4932 27.4932 17.9859 29.7767 17.8389 32.0971C23.1666 33.4716 27.0161 38.3974 26.816 44.1235C26.7447 46.2214 26.1219 48.2635 25.0103 50.0442C27.0591 51.9406 29.4439 53.4379 32.0422 54.4592C37.3115 52.0236 41.05 46.7823 41.2666 40.583C41.4068 36.5663 39.8636 32.9865 37.6829 29.9649C35.3801 26.7694 26.2227 16 26.2227 16Z" fill="#DD2C00"/>
</g>
<defs>
<clipPath id="clip0_116_8466">
<rect width="170" height="72" rx="6" fill="white"/>
</clipPath>
</defs>
</svg>
