<svg width="170" height="72" viewBox="0 0 170 72" fill="none" xmlns="http://www.w3.org/2000/svg">
<g clip-path="url(#clip0_116_8474)">
<rect width="170" height="72" rx="6" fill="#75BAF9" fill-opacity="0.08"/>
<g clip-path="url(#clip1_116_8474)">
<path d="M73.3659 36.1133C72.0197 36.1133 70.9249 36.512 70.0857 37.3083C69.2467 38.1057 68.8209 39.1508 68.8209 40.4315C68.8209 41.0951 68.9265 41.7002 69.1348 42.2546C69.3432 42.8102 69.6675 43.3249 70.1032 43.7901C70.539 44.2555 71.4114 44.8877 72.7115 45.6918C74.307 46.6656 75.3509 47.456 75.852 48.0732C76.3533 48.6898 76.6022 49.336 76.6022 50.0098C76.6022 50.9118 76.3053 51.632 75.6949 52.1732C75.0836 52.7147 74.2659 52.9843 73.2525 52.9843C72.1833 52.9843 71.2519 52.6076 70.4522 51.8593C69.6525 51.1097 69.2486 50.1183 69.2396 48.8757H68.7422V53.3858H69.2396C69.3915 52.9587 69.6015 52.7404 69.8765 52.7404C70.0087 52.7404 70.3186 52.8314 70.8011 53.0019C71.9753 53.4197 72.9394 53.6212 73.6973 53.6212C75.0033 53.6212 76.1182 53.1639 77.0471 52.2343C77.9747 51.3051 78.4428 50.1843 78.4428 48.8757C78.4428 47.8612 78.1338 46.9583 77.5271 46.1716C76.9201 45.3837 75.7401 44.4673 73.9764 43.4149C72.4588 42.5031 71.4738 41.7606 71.0192 41.1817C70.5639 40.6036 70.33 39.9641 70.33 39.2625C70.33 38.5036 70.6089 37.8939 71.1588 37.4392C71.7086 36.9843 72.4292 36.7589 73.331 36.7589C74.3455 36.7589 75.1914 37.0601 75.8607 37.6662C76.5294 38.2733 76.916 39.1147 77.0297 40.1958H77.5271V36.288H77.0646C77.008 36.4871 76.9557 36.6144 76.9075 36.6716C76.8607 36.7285 76.7707 36.7589 76.6371 36.7589C76.4763 36.7589 76.1895 36.6912 75.7821 36.5581C74.9098 36.2645 74.1055 36.1133 73.3657 36.1133H73.3659ZM89.6176 36.1133C87.9773 36.1133 86.488 36.5001 85.1425 37.2736C83.7949 38.0457 82.7281 39.118 81.941 40.4838C81.1541 41.8496 80.7633 43.2999 80.7633 44.8456C80.7633 46.922 81.443 48.7721 82.8134 50.3937C84.1843 52.0141 85.8272 53.0238 87.7334 53.412C88.1692 53.639 88.7926 54.2252 89.609 55.1741C90.5287 56.2449 91.3069 57.0172 91.9468 57.477C92.5723 57.928 93.2678 58.2728 94.0053 58.4978C94.7356 58.7201 95.5249 58.8294 96.3783 58.8294C97.4119 58.8294 98.3372 58.6496 99.1523 58.2797L98.9692 57.826C98.4961 57.9967 97.9914 58.079 97.4601 58.079C96.7387 58.079 96.0098 57.8412 95.2792 57.3637C94.5495 56.8849 93.6371 55.9717 92.5488 54.6245C92.0372 53.9791 91.6841 53.5717 91.4844 53.412C93.5702 53.0047 95.2851 51.9939 96.6227 50.3761C97.9596 48.7593 98.6289 46.9139 98.6289 44.8455C98.6289 42.3898 97.7551 40.3257 96.0207 38.6431C94.2846 36.9602 92.1499 36.1133 89.6176 36.1133ZM99.763 36.1133L99.7892 36.6454C100.881 36.6454 101.493 36.9671 101.63 37.6137C101.681 37.8452 101.704 38.2723 101.708 38.8873L101.7 50.6554C101.69 51.5343 101.565 52.0954 101.325 52.3389C101.083 52.5807 100.676 52.7323 100.086 52.7925L100.06 53.3248H110.946L111.226 50.6554H110.728C110.586 51.3825 110.261 51.9035 109.743 52.1994C109.223 52.4974 108.304 52.6443 106.977 52.6443H105.948C104.754 52.6443 104.063 52.2126 103.88 51.3444C103.843 51.1727 103.83 50.9885 103.828 50.7862L103.872 38.8873C103.872 38.0098 103.982 37.4218 104.212 37.1339C104.444 36.8471 104.862 36.6866 105.468 36.6454L105.442 36.1133H99.763ZM89.7919 36.7587C91.6423 36.7587 93.1527 37.4876 94.3196 38.9572C95.486 40.4274 96.0643 42.4423 96.0643 44.9939C96.0643 47.4116 95.4777 49.3474 94.3022 50.8036C93.1265 52.2594 91.5619 52.9845 89.6176 52.9845C87.7498 52.9845 86.235 52.2367 85.0726 50.7339C83.9113 49.231 83.3368 47.2798 83.3368 44.8804C83.3368 42.4149 83.9184 40.4412 85.0902 38.9658C86.2612 37.4923 87.8293 36.7589 89.7921 36.7589L89.7919 36.7587ZM114.829 39.2887C114.563 39.2887 114.361 39.3783 114.209 39.5591C114.054 39.7391 114.007 39.9572 114.061 40.2221C114.113 40.4791 114.258 40.7041 114.488 40.8937C114.717 41.0832 114.964 41.1817 115.23 41.1817C115.487 41.1817 115.682 41.0832 115.823 40.8937C115.964 40.7043 116.006 40.4791 115.954 40.2221C115.9 39.9572 115.76 39.7391 115.544 39.5589C115.325 39.3783 115.085 39.2887 114.829 39.2887ZM122.008 41.0945C121.557 42.8301 120.579 43.7694 119.077 43.9208L119.094 44.4181H120.848L120.813 50.2978C120.815 51.303 120.846 51.9722 120.917 52.3129C121.09 53.1282 121.623 53.5429 122.514 53.5429C123.803 53.5429 125.156 52.7574 126.57 51.1875L126.143 50.8212C125.121 51.855 124.219 52.3739 123.43 52.3739C122.945 52.3739 122.645 52.0952 122.531 51.5451C122.5 51.4115 122.488 51.2554 122.488 51.074L122.505 44.4181H125.183L125.157 43.6241H122.514V41.0945H122.008ZM132.363 43.3101C130.865 43.3101 129.646 44.0374 128.699 45.4824C127.756 46.9297 127.465 48.5333 127.835 50.2978C128.053 51.3312 128.488 52.1321 129.152 52.6966C129.816 53.261 130.658 53.5429 131.665 53.5429C132.602 53.5429 133.907 53.3055 134.456 52.8274C135.007 52.3498 135.514 51.5757 135.983 50.5158L135.608 50.1231C134.86 51.4983 133.352 52.1907 132.214 52.1907C130.65 52.1907 129.693 51.3326 129.335 49.6259C129.287 49.3954 129.253 49.1624 129.231 48.928C131.091 48.6335 132.501 48.1119 133.453 47.358C134.404 46.6034 135.359 45.8037 135.18 44.9589C135.074 44.4568 134.814 44.0621 134.413 43.7639C134.006 43.4657 132.952 43.3101 132.363 43.3101ZM115.989 43.3713L112.761 44.1128V44.6885L113.878 44.549C114.418 44.549 114.737 44.7937 114.837 45.2816C114.871 45.4449 114.892 45.6744 114.898 45.9622L114.863 51.2398C114.854 51.9701 114.773 52.3946 114.61 52.5221C114.446 52.6498 114.013 52.7141 113.311 52.7141L113.293 53.2113H118.414L118.405 52.7139C117.694 52.7139 117.232 52.6579 117.027 52.5481C116.825 52.4396 116.685 52.2412 116.626 51.9377C116.579 51.719 116.559 51.342 116.556 50.8212L116.573 43.3713H115.989H115.989ZM131.543 44.3483C131.854 44.3483 132.155 44.4687 132.458 44.7059C132.758 44.9424 132.94 45.2053 132.999 45.491C133.292 46.8943 132.048 47.8642 129.248 48.4046C129.169 47.3816 129.346 46.4526 129.798 45.6132C130.247 44.7744 130.831 44.3483 131.543 44.3483Z" fill="#003B57"/>
<path d="M66.1357 15.9648H38.3585C36.4967 15.9648 34.9736 17.4881 34.9736 19.3497V49.9829C34.9736 51.8445 36.4967 53.3677 38.3585 53.3677H56.6532C56.4455 44.2647 59.5541 26.5987 66.1357 15.9648Z" fill="#0F80CC"/>
<path d="M65.1267 16.9512H38.3586C37.0366 16.9512 35.9609 18.0266 35.9609 19.3488V47.7468C42.0233 45.4202 51.1222 43.4126 57.4135 43.5037C58.6778 36.8931 62.3935 23.9378 65.1267 16.9512Z" fill="url(#paint0_linear_116_8474)"/>
<path d="M72.6149 14.9616C70.7124 13.2652 68.4089 13.9465 66.1358 15.9642C65.7983 16.2638 65.4616 16.5964 65.1267 16.9517C61.2378 21.0773 57.6279 28.7188 56.5064 34.5549C56.9434 35.4409 57.2847 36.5715 57.5093 37.4351C57.5669 37.6566 57.6188 37.8646 57.6605 38.0415C57.7591 38.4603 57.8122 38.7317 57.8122 38.7317C57.8122 38.7317 57.7773 38.5998 57.6342 38.1849C57.607 38.1054 57.5766 38.0186 57.5406 37.9163C57.5219 37.8664 57.5019 37.8169 57.4806 37.7679C57.227 37.1782 56.5254 35.9336 56.2165 35.3916C55.9717 36.1097 55.7407 36.8324 55.5235 37.5593C56.4151 39.1905 56.9584 41.9861 56.9584 41.9861C56.9584 41.9861 56.9112 41.8049 56.6872 41.1725C56.4883 40.6134 55.4977 38.8775 55.263 38.4717C54.8616 39.9538 54.7021 40.9542 54.846 41.1978C55.1253 41.6697 55.3911 42.4842 55.6248 43.3848C56.1524 45.4138 56.5189 47.884 56.5189 47.884C56.5189 47.884 56.5307 48.0478 56.5508 48.2997C56.4774 50.0036 56.5214 51.7702 56.6535 53.3669C56.8281 55.4807 57.1572 57.2965 57.5766 58.2684L57.8614 58.1132C57.2456 56.1986 56.9953 53.6894 57.1049 50.7956C57.2706 46.3726 58.2885 41.0383 60.1692 35.4786C63.3468 27.0859 67.7553 20.3521 71.7901 17.1362C68.1125 20.4575 63.1353 31.208 61.6453 35.1889C59.977 39.6471 58.7947 43.8305 58.0822 47.8386C59.3116 44.0809 63.2864 42.4659 63.2864 42.4659C63.2864 42.4659 65.2358 40.0615 67.5141 36.6265C66.1495 36.9378 63.9085 37.4707 63.158 37.7861C62.0507 38.2505 61.7525 38.409 61.7525 38.409C61.7525 38.409 65.3387 36.2249 68.4156 35.2361C72.6472 28.5713 77.2576 19.1032 72.6149 14.9616Z" fill="#003B57"/>
</g>
</g>
<defs>
<linearGradient id="paint0_linear_116_8474" x1="1717.71" y1="79.959" x2="1717.71" y2="2925.26" gradientUnits="userSpaceOnUse">
<stop stop-color="#97D9F6"/>
<stop offset="0.92024" stop-color="#0F80CC"/>
<stop offset="1" stop-color="#0F80CC"/>
</linearGradient>
<clipPath id="clip0_116_8474">
<rect width="170" height="72" rx="6" fill="white"/>
</clipPath>
<clipPath id="clip1_116_8474">
<rect width="101.078" height="45" fill="white" transform="translate(34.9609 14)"/>
</clipPath>
</defs>
</svg>
