<svg width="170" height="72" viewBox="0 0 170 72" fill="none" xmlns="http://www.w3.org/2000/svg">
<g clip-path="url(#clip0_216_20854)">
<rect width="170" height="72" rx="6" fill="#845EF7" fill-opacity="0.08"/>
<path fill-rule="evenodd" clip-rule="evenodd" d="M42 54.9978H44.8816V43.6473L49.3251 53.5459C49.8526 54.733 50.5571 55.1511 51.9646 55.1511C53.3726 55.1511 54.0767 54.733 54.6042 53.5459L59.0476 43.6473V54.9978H61.9071V43.669C61.9071 42.5696 61.4668 42.0406 60.5651 41.7547C58.3875 41.0728 56.9134 41.6669 56.2538 43.141L51.8986 52.8857L47.6755 43.141C47.0375 41.6669 45.5418 41.0728 43.3641 41.7547C42.4403 42.0406 42.0005 42.5691 42.0005 43.669V54.9978H42ZM64.3045 45.7584H67.164V52.0057C67.1423 52.3572 67.2739 53.1495 68.8579 53.1717C69.6497 53.1929 75.0388 53.1717 75.0826 53.1717V45.7362H77.9642C77.9859 45.7362 77.9642 55.8763 77.9642 55.9207C77.9859 58.4281 74.8628 58.9556 73.433 59H64.3706V57.0645C64.3706 57.0645 73.4113 57.0866 73.433 57.0645C75.2808 56.8885 75.0609 55.9651 75.0609 55.6569V54.9086H68.9679C66.1301 54.8652 64.3262 53.6326 64.3045 52.2029C64.3045 52.0713 64.3706 45.8249 64.3045 45.7584ZM126.093 38.5654C124.334 38.5215 122.991 38.6754 121.825 39.1812C121.496 39.3133 120.99 39.3133 120.924 39.7314C121.1 39.9064 121.144 40.1928 121.276 40.4354C121.562 40.8756 122.024 41.4687 122.442 41.7769C122.882 42.1294 123.344 42.4809 123.828 42.789C124.708 43.3165 125.675 43.6025 126.489 44.1314C126.995 44.4386 127.479 44.8355 127.963 45.187C128.182 45.363 128.359 45.6272 128.645 45.7367V45.6933C128.491 45.4951 128.447 45.2092 128.314 44.9883L127.655 44.3287C127.017 43.493 126.203 42.7446 125.345 42.1294C124.663 41.6452 123.123 40.9634 122.837 40.1716C122.815 40.1494 122.793 40.1494 122.793 40.1273C123.277 40.0607 123.849 39.8857 124.289 39.7748C125.037 39.5776 125.719 39.6209 126.488 39.4233C126.841 39.3128 127.192 39.2251 127.545 39.1151V38.9169C127.149 38.5211 126.885 37.9713 126.445 37.6193C125.324 36.6516 124.091 35.7055 122.838 34.9137C122.134 34.4518 121.276 34.1658 120.528 33.7921C120.286 33.6822 119.846 33.6161 119.671 33.3963C119.274 32.9121 119.076 32.2742 118.768 31.7023C118.123 30.4477 117.521 29.171 116.965 27.8746C116.591 27.0168 116.326 26.1589 115.866 25.3667C113.577 21.6272 111.136 19.3619 107.331 17.1399C106.517 16.678 105.549 16.4803 104.515 16.2382C103.965 16.1938 103.416 16.1721 102.865 16.1278C102.535 15.9956 102.184 15.5781 101.853 15.3799C100.6 14.5881 97.366 12.8503 96.4416 15.1378C95.8475 16.5675 97.3216 17.9755 97.8491 18.7017C98.2238 19.2076 98.6848 19.7799 98.9495 20.3513C99.1245 20.725 99.1467 21.0992 99.301 21.4951C99.6747 22.4851 99.9828 23.5628 100.445 24.4645C100.686 24.9264 100.95 25.4106 101.258 25.8286C101.434 26.0707 101.765 26.1806 101.808 26.5765C101.5 27.0163 101.479 27.6764 101.303 28.2261C100.533 30.7118 100.818 33.7695 101.962 35.6168C102.315 36.1665 103.128 37.3763 104.272 36.9148C105.262 36.4968 105.042 35.2648 105.328 34.1432C105.395 33.9011 105.35 33.7251 105.482 33.5491V33.593C105.768 34.2087 106.076 34.8028 106.384 35.3964C107.044 36.4746 108.232 37.6184 109.244 38.3658C109.749 38.7616 110.167 39.444 110.849 39.6633V39.619H110.784C110.651 39.4218 110.453 39.3335 110.299 39.1792C109.904 38.7833 109.464 38.2992 109.134 37.8594C108.232 36.6274 107.418 35.2638 106.67 33.8557C106.318 33.1739 106.01 32.426 105.725 31.7442C105.614 31.4804 105.614 31.0846 105.372 30.9302C105.042 31.4361 104.581 31.8541 104.316 32.4482C103.92 33.3943 103.854 34.5598 103.723 35.7479C103.634 35.7918 103.656 35.7696 103.612 35.814C102.909 35.638 102.666 34.9118 102.403 34.296C101.765 32.7342 101.632 30.2267 102.204 28.4228C102.358 27.9609 103.041 26.509 102.755 26.0692C102.622 25.6511 102.204 25.3874 101.963 25.0576C101.655 24.6617 101.369 24.1337 101.149 23.6717C100.622 22.4397 100.379 21.0761 99.8068 19.8445C99.5209 19.2505 99.0816 18.6564 98.7074 18.1506C98.2894 17.5565 97.8274 17.1389 97.4981 16.4349C97.3882 16.1928 97.2343 15.797 97.3882 15.5327C97.4537 15.3567 97.5203 15.2906 97.6953 15.2246C97.9812 15.0047 98.7957 15.3128 99.1028 15.4223C99.8951 15.7743 100.577 16.0824 101.259 16.5444C101.589 16.7642 101.919 17.1818 102.315 17.2922H102.756C103.46 17.4461 104.251 17.3361 104.91 17.5343C106.076 17.8858 107.132 18.436 108.078 19.0523C110.982 20.8779 113.336 23.4735 114.963 26.575C115.227 27.0809 115.337 27.5428 115.557 28.0708C116.02 29.149 116.613 30.2484 117.075 31.2823C117.515 32.3383 117.977 33.3943 118.615 34.2516C118.967 34.7136 120.286 34.9556 120.88 35.1972C121.298 35.3732 121.98 35.5709 122.377 35.8135C123.146 36.2532 123.872 36.8034 124.598 37.3092C124.949 37.5538 126.049 38.1035 126.093 38.5654Z" fill="#00678C"/>
<path fill-rule="evenodd" clip-rule="evenodd" d="M80.1865 54.9987H88.435C89.4028 54.9987 90.3483 54.8005 91.0962 54.448C92.3278 53.8771 92.944 53.1065 92.944 52.0949V49.9833C92.944 49.1699 92.24 48.3781 90.899 47.8718C90.1728 47.5859 89.2928 47.4537 88.435 47.4537H84.9598C83.7938 47.4537 83.2441 47.1012 83.112 46.3321C83.0898 46.2444 83.0898 46.1561 83.0898 46.0684V44.7703C83.0898 44.6825 83.0898 44.6165 83.112 44.5287C83.2441 43.9347 83.5518 43.7587 84.5639 43.6709C84.6517 43.6709 84.7616 43.6487 84.8499 43.6487H93.0545V41.7354H84.982C83.816 41.7354 83.222 41.8231 82.6723 41.9769C80.9566 42.5266 80.2087 43.3628 80.2087 44.8369V46.5086C80.2087 47.8067 81.6823 48.9061 84.1242 49.1699C84.4101 49.1699 84.6739 49.1921 84.9598 49.1921H87.9297C88.0396 49.1921 88.1491 49.1921 88.2368 49.2143C89.1612 49.302 89.5349 49.4558 89.8208 49.7852C89.9747 49.9612 90.0412 50.1155 90.0412 50.3137V51.9854C90.0412 52.1836 89.9091 52.4479 89.6231 52.6673C89.3806 52.8876 88.9625 53.0198 88.4128 53.0631C88.3029 53.0631 88.2156 53.0853 88.1047 53.0853H80.1865V54.9987ZM110.849 51.6541C110.849 53.634 112.301 54.7334 115.271 54.9538C115.535 54.976 115.821 54.9982 116.085 54.9982H123.564V53.0839H116.04C114.346 53.0839 113.709 52.6658 113.709 51.6541V41.7344H110.849V51.6541H110.849ZM94.7701 51.7641V44.9458C94.7701 43.208 95.9795 42.1524 98.3991 41.8221C98.6417 41.7778 98.9276 41.7778 99.1692 41.7778H104.624C104.888 41.7778 105.13 41.7778 105.416 41.8221C107.814 42.1524 109.045 43.208 109.045 44.9458V51.7641C109.045 53.1726 108.518 53.92 107.329 54.4041L110.167 56.9559H106.824L104.536 54.9099L102.226 55.0421H99.1687C98.6412 55.0421 98.091 54.9765 97.4747 54.8005C95.6501 54.3159 94.7701 53.3481 94.7701 51.7641ZM97.8716 51.5891C97.8716 51.699 97.8938 51.7863 97.916 51.8972C98.092 52.6885 98.8394 53.1287 99.961 53.1287H102.579L100.182 50.9728H103.525L105.614 52.8428C105.989 52.6446 106.253 52.3365 106.34 51.9406C106.363 51.8306 106.363 51.7434 106.363 51.6546V45.1001C106.363 45.0336 106.363 44.9463 106.34 44.8576C106.164 44.1102 105.417 43.6926 104.317 43.6926H99.9615C98.6856 43.6926 97.8721 44.2423 97.8721 45.1001L97.8716 51.5891ZM124.884 54.9987H125.302V53.4147H125.874V53.0843H124.312V53.4147H124.884V54.9987ZM128.095 54.9987H128.469V53.0843H127.897L127.392 54.4046L126.886 53.0843H126.292V54.9987H126.688V53.5468L127.238 54.9987H127.524L128.074 53.5468H128.096V54.9987H128.095Z" fill="#CE8B2C"/>
<path fill-rule="evenodd" clip-rule="evenodd" d="M43.738 37.2012L42.1318 29.7662H42.9458L43.8697 34.6494C43.9796 35.1552 44.0679 35.6611 44.1339 36.1669L44.4199 34.781L45.5858 29.7657H46.5314L47.4114 33.5273C47.6313 34.4512 47.7851 35.3307 47.8951 36.1669C47.9611 35.6832 48.0711 35.133 48.2032 34.5395L49.1488 29.7662H49.9849L48.2914 37.2012H47.5214L46.2238 31.5479L46.0256 30.6679C45.9817 30.9977 45.9157 31.2842 45.8496 31.5479L44.5515 37.2012H43.738ZM50.4912 33.5939C50.4912 32.318 50.7772 31.3502 51.3269 30.6679C51.8771 29.9861 52.5806 29.6562 53.4167 29.6562C53.9442 29.6562 54.4506 29.7884 54.8903 30.096C55.3301 30.4036 55.6821 30.8439 55.9463 31.4158C56.1884 32.0094 56.3205 32.6912 56.3205 33.5051C56.3205 34.605 56.0785 35.4851 55.5721 36.1886C55.0224 36.9586 54.2967 37.3323 53.4167 37.3323C52.5145 37.3323 51.7888 36.9365 51.2391 36.1664C50.7328 35.4417 50.4912 34.5838 50.4912 33.5939ZM51.3269 33.5939C51.3269 34.5178 51.5246 35.2218 51.9209 35.7276C52.339 36.2334 52.8227 36.4977 53.3945 36.4977C53.9886 36.4977 54.4944 36.2334 54.8903 35.7276C55.2862 35.2218 55.4844 34.4739 55.4844 33.4839C55.4844 32.8243 55.3966 32.2741 55.1763 31.7688C55.0224 31.3729 54.7804 31.0648 54.4723 30.8449C54.1683 30.6151 53.7973 30.4914 53.4162 30.4929C52.8 30.4929 52.2942 30.7345 51.9205 31.2408C51.5246 31.7461 51.3269 32.5379 51.3269 33.5939ZM57.3317 37.2012V29.7662H60.0373C60.587 29.7662 61.0051 29.8323 61.2693 29.9861C61.5553 30.1182 61.7751 30.3381 61.929 30.6679C62.105 30.9977 62.1932 31.3719 62.1932 31.7895C62.1932 32.3619 62.0611 32.8016 61.7534 33.1536C61.467 33.5056 61.0494 33.7255 60.4776 33.8355C60.7196 33.9676 60.8734 34.0997 61.0056 34.2313C61.2476 34.5173 61.4458 34.8254 61.6435 35.1769L62.699 37.2007H61.6874L60.8734 35.6606C60.5436 35.0665 60.3237 34.6489 60.1477 34.4507C59.9939 34.2308 59.8396 34.0765 59.6858 34.0105C59.532 33.9444 59.3338 33.9005 59.07 33.9005H58.1461V37.2002H57.3317V37.2012ZM58.1456 33.0437H59.8613C60.235 33.0437 60.5209 32.9998 60.7191 32.9116C60.9168 32.8238 61.0706 32.6695 61.2028 32.4935C61.3127 32.2953 61.3566 32.0532 61.3566 31.7895C61.3566 31.4158 61.2466 31.1298 61.0268 30.91C60.8069 30.6901 60.4987 30.5801 60.059 30.5801H58.1451L58.1456 33.0437ZM63.4469 37.2012V29.7662H64.2609V33.4618L67.2746 29.7662H68.374L65.8005 32.7799L68.484 37.2012H67.4062L65.2508 33.4618L64.2609 34.6277V37.2012H63.4469ZM68.8581 34.8037L69.6282 34.7377C69.6721 35.1335 69.7603 35.4634 69.9142 35.6832C70.0463 35.9253 70.2662 36.1013 70.5299 36.2329C70.7942 36.3868 71.1018 36.4528 71.4321 36.4528C71.9158 36.4528 72.2678 36.3207 72.532 36.1013C72.7958 35.8592 72.9279 35.5511 72.9279 35.1774C72.9279 34.9575 72.884 34.7815 72.7958 34.6055C72.708 34.4517 72.5537 34.3196 72.3555 34.2096C72.1578 34.0997 71.7398 33.9459 71.1018 33.7699C70.5299 33.5939 70.1119 33.4179 69.8698 33.2419C69.6249 33.085 69.4272 32.8645 69.2979 32.6039C69.1658 32.3397 69.0997 32.032 69.0997 31.7022C69.0997 31.086 69.2979 30.6023 69.6716 30.2281C70.0675 29.8323 70.5955 29.6562 71.2551 29.6562C71.6949 29.6562 72.0908 29.744 72.4428 29.92C72.7726 30.096 73.0369 30.3598 73.2346 30.6901C73.4268 31.0561 73.5251 31.4643 73.5205 31.8777L72.7504 31.9438C72.7282 31.4602 72.5744 31.1082 72.3324 30.8661C72.0681 30.624 71.7383 30.5141 71.2768 30.5141C70.8144 30.5141 70.4629 30.624 70.2425 30.8222C70.1232 30.9162 70.0273 31.0367 69.9624 31.1741C69.8976 31.3115 69.8655 31.4621 69.8688 31.614C69.8688 31.9221 69.9571 32.142 70.1331 32.318C70.3086 32.4718 70.7049 32.6478 71.3207 32.8238C71.9365 32.9776 72.3545 33.1319 72.5966 33.2419C72.9708 33.4396 73.2563 33.6816 73.4323 33.9898C73.6304 34.2979 73.7182 34.6716 73.7182 35.0897C73.7208 35.4986 73.6145 35.9009 73.4101 36.2551C73.2119 36.6071 72.9481 36.8714 72.5961 37.0469C72.2663 37.2446 71.8482 37.3328 71.3641 37.3328C70.6162 37.3328 70.0004 37.113 69.5607 36.651C69.1209 36.1891 68.8798 35.5733 68.8581 34.8037ZM78.4925 37.2012L76.8867 29.7662H77.7007L78.6246 34.6494C78.7345 35.1552 78.8223 35.6611 78.8888 36.1669L79.1748 34.781L80.3402 29.7657H81.2863L82.1658 33.5273C82.3725 34.3983 82.5341 35.2793 82.65 36.1669C82.716 35.6832 82.826 35.133 82.9359 34.5395L83.9037 29.7662H84.7393L83.0459 37.2012H82.2758L80.9777 31.5479L80.78 30.6679C80.7361 30.9977 80.6701 31.2842 80.604 31.5479L79.3064 37.2012H78.4925ZM85.6193 37.2012V29.7662H86.4333V37.2012H85.6193ZM89.4027 37.2012V30.6462H87.4011V29.7662H92.2182V30.6462H90.1954V37.2012H89.4027ZM93.011 37.2012V29.7662H93.8244V32.8238H96.9915V29.7662H97.8059V37.2012H96.9915V33.7038H93.8244V37.2012H93.011Z" fill="#00678C"/>
</g>
<defs>
<clipPath id="clip0_216_20854">
<rect width="170" height="72" rx="6" fill="white"/>
</clipPath>
</defs>
</svg>
