<svg width="170" height="72" viewBox="0 0 170 72" fill="none" xmlns="http://www.w3.org/2000/svg">
<g clip-path="url(#clip0_116_8572)">
<rect width="170" height="72" rx="6" fill="#EC696A" fill-opacity="0.08"/>
<path fill-rule="evenodd" clip-rule="evenodd" d="M68.4829 17.9521H76.965L55.5474 54.86L33.9888 17.9521H42.6638L55.5474 40.1714L68.4829 17.9521Z" fill="#41B883"/>
<path fill-rule="evenodd" clip-rule="evenodd" d="M60.4666 17.9453H68.5338L55.5358 40.2108L42.6421 17.9453H50.5832L55.5358 26.5172L60.4666 17.9453Z" fill="#35495E"/>
<path fill-rule="evenodd" clip-rule="evenodd" d="M82.0259 25.2313C82.0259 24.959 82.177 24.7321 82.4793 24.5506C82.7816 24.3691 83.0976 24.2783 83.4274 24.2783C83.8854 24.2783 84.1694 24.4508 84.2793 24.7957L89.1159 40.9688L93.925 24.7957C94.0532 24.4508 94.328 24.2783 94.7494 24.2783C95.0975 24.2783 95.4227 24.3782 95.725 24.5778C96.0273 24.7775 96.1784 25.0044 96.1784 25.2585C96.1784 25.2767 96.1739 25.3039 96.1646 25.3402C96.1554 25.3765 96.1509 25.4128 96.1509 25.4491L90.5724 43.5554C90.3708 44.0818 89.8854 44.345 89.1159 44.345C88.3464 44.345 87.8793 44.0818 87.7144 43.5554L82.0811 25.4491C82.0445 25.3402 82.0259 25.2676 82.0259 25.2313ZM96.3949 39.1716V32.0926C96.3949 31.8748 96.5094 31.6842 96.7384 31.5208C96.9674 31.3575 97.2377 31.2758 97.5491 31.2758C97.8423 31.2758 98.1033 31.362 98.3323 31.5344C98.5613 31.7069 98.6758 31.8929 98.6758 32.0926V39.1716C98.6758 39.9884 98.9873 40.7235 99.6102 41.377C100.233 42.0304 100.975 42.3572 101.836 42.3572C102.679 42.3572 103.412 42.035 104.035 41.3906C104.657 40.7462 104.969 40.0065 104.969 39.1716V32.065C104.969 31.8653 105.083 31.6838 105.312 31.5204C105.541 31.3571 105.812 31.2754 106.123 31.2754C106.453 31.2754 106.723 31.3525 106.934 31.5068C107.144 31.6611 107.25 31.8472 107.25 32.065V39.1716C107.25 40.5693 106.714 41.7899 105.642 42.8337C104.57 43.8774 103.302 44.3992 101.836 44.3992C100.352 44.3992 99.0744 43.8774 98.0026 42.8337C96.9309 41.7899 96.3949 40.5693 96.3949 39.1716ZM109.115 39.1171V36.2582C109.115 34.8605 109.651 33.6535 110.722 32.637C111.794 31.6205 113.081 31.1123 114.583 31.1123C116.012 31.1123 117.249 31.5887 118.293 32.5417C119.338 33.4947 119.86 34.6881 119.86 36.1221C119.86 36.6485 119.796 37.0705 119.667 37.3882C119.539 37.7059 119.342 37.9327 119.076 38.0689C118.811 38.2051 118.564 38.2913 118.334 38.3276C118.105 38.3639 117.799 38.382 117.414 38.382H111.396V39.1989C111.396 40.1972 111.757 40.9959 112.481 41.5949C113.205 42.1939 114.144 42.4934 115.298 42.4934C115.902 42.4934 116.429 42.4026 116.878 42.2211C117.327 42.0396 117.689 41.8626 117.963 41.6902C118.238 41.5178 118.458 41.4316 118.623 41.4316C118.879 41.4316 119.099 41.545 119.282 41.7719C119.466 41.9988 119.557 42.2302 119.557 42.4662C119.557 42.8837 119.14 43.3102 118.307 43.7458C117.473 44.1815 116.443 44.3993 115.215 44.3993C113.42 44.3993 111.954 43.9138 110.818 42.9426C109.683 41.9715 109.115 40.6963 109.115 39.1171ZM111.396 36.8573H116.48C116.956 36.8573 117.276 36.7983 117.441 36.6803C117.606 36.5623 117.689 36.3309 117.689 35.986C117.689 35.1692 117.386 34.4522 116.782 33.835C116.177 33.2179 115.435 32.9093 114.556 32.9093C113.695 32.9093 112.953 33.1952 112.33 33.7669C111.707 34.3387 111.396 35.0421 111.396 35.877L111.396 36.8573ZM121.011 42.9289C121.011 42.5296 121.148 42.1892 121.423 41.9079C121.698 41.6265 122.036 41.4859 122.439 41.4859C122.824 41.4859 123.154 41.6265 123.429 41.9079C123.704 42.1892 123.841 42.5296 123.841 42.9289C123.841 43.3101 123.704 43.6414 123.429 43.9227C123.154 44.2041 122.824 44.3447 122.439 44.3447C122.036 44.3447 121.698 44.2041 121.423 43.9227C121.148 43.6414 121.011 43.3101 121.011 42.9289ZM123.041 49.4363C123.041 49.1459 123.132 48.9054 123.315 48.7148C123.499 48.5242 123.718 48.4289 123.975 48.4289C124.689 48.4289 125.157 48.1657 125.377 47.6393C125.596 47.113 125.706 46.3234 125.706 45.2706V32.0652C125.706 31.8292 125.812 31.6386 126.022 31.4934C126.233 31.3482 126.503 31.2756 126.833 31.2756C127.163 31.2756 127.438 31.3482 127.657 31.4934C127.877 31.6386 127.987 31.8292 127.987 32.0652V45.2706C127.987 46.8498 127.676 48.1022 127.053 49.028C126.43 49.9537 125.486 50.4165 124.222 50.4165C123.435 50.4165 123.041 50.0898 123.041 49.4363ZM125.404 26.4291C125.404 26.0842 125.541 25.7847 125.816 25.5306C126.091 25.2764 126.43 25.1494 126.833 25.1494C127.218 25.1494 127.547 25.2764 127.822 25.5306C128.097 25.7847 128.234 26.0842 128.234 26.4291C128.234 26.7739 128.097 27.078 127.822 27.3412C127.547 27.6044 127.218 27.736 126.833 27.736C126.448 27.736 126.114 27.6044 125.83 27.3412C125.546 27.078 125.404 26.7739 125.404 26.4291ZM129.687 42.3297C129.687 42.0937 129.765 41.8623 129.921 41.6354C130.077 41.4086 130.265 41.2951 130.484 41.2951C130.631 41.2951 130.842 41.404 131.116 41.6218C131.391 41.8397 131.785 42.0529 132.298 42.2617C132.811 42.4704 133.416 42.5748 134.112 42.5748C135.028 42.5748 135.692 42.4114 136.104 42.0847C136.516 41.758 136.722 41.3496 136.722 40.8595C136.722 40.2604 136.493 39.784 136.035 39.43C135.577 39.076 135.019 38.8083 134.359 38.6268C133.7 38.4453 133.04 38.2456 132.38 38.0278C131.721 37.81 131.162 37.4469 130.704 36.9387C130.246 36.4304 130.017 35.7588 130.017 34.9238C130.017 33.8892 130.388 32.9952 131.13 32.242C131.872 31.4887 133.003 31.112 134.524 31.112C135.495 31.112 136.383 31.2618 137.19 31.5613C137.996 31.8608 138.399 32.2011 138.399 32.5823C138.399 32.8001 138.312 33.0451 138.138 33.3174C137.964 33.5897 137.748 33.7258 137.492 33.7258C137.418 33.7258 137.066 33.5942 136.434 33.331C135.802 33.0678 135.174 32.9362 134.551 32.9362C133.709 32.9362 133.081 33.1314 132.669 33.5216C132.257 33.9119 132.051 34.3521 132.051 34.8422C132.051 35.3504 132.28 35.7498 132.738 36.0402C133.196 36.3306 133.759 36.5575 134.428 36.7209C135.096 36.8842 135.761 37.0839 136.42 37.3199C137.08 37.5559 137.638 37.9597 138.096 38.5315C138.554 39.1033 138.783 39.8429 138.783 40.7505C138.783 41.8759 138.38 42.7654 137.574 43.4188C136.768 44.0723 135.642 44.399 134.194 44.399C132.948 44.399 131.886 44.1766 131.006 43.7319C130.127 43.2872 129.687 42.8198 129.687 42.3297Z" fill="#010101"/>
</g>
<defs>
<clipPath id="clip0_116_8572">
<rect width="170" height="72" rx="6" fill="white"/>
</clipPath>
</defs>
</svg>
