<svg width="176" height="55" viewBox="0 0 176 55" fill="none" xmlns="http://www.w3.org/2000/svg">
<g clip-path="url(#clip0_518_75)">
<path d="M21.9572 19.625V25.5H36.1352C35.7588 28.75 34.6296 31.25 32.873 32.875C30.8655 34.875 27.6033 37.125 21.9572 37.125C13.2998 37.125 6.52442 30.125 6.52442 21.5C6.52442 12.875 13.1743 5.875 21.9572 5.875C26.5996 5.875 30.1127 7.75 32.6221 10.125L36.7626 6C33.2494 2.625 28.4816 0 21.9572 0C10.0376 0 0 9.625 0 21.5C0 33.375 10.0376 43 21.9572 43C28.3561 43 33.2494 40.875 37.0135 37C40.9031 33.125 42.1578 27.625 42.1578 23.25C42.1578 21.875 42.0323 20.625 41.9068 19.625H21.9572Z" fill="#4285F4"/>
<path d="M59.7235 14.75C52.0699 14.75 45.6709 20.625 45.6709 28.625C45.6709 36.625 51.9444 42.5 59.7235 42.5C67.5026 42.5 73.7761 36.75 73.7761 28.75C73.7761 20.625 67.5026 14.75 59.7235 14.75ZM59.7235 37.125C55.4576 37.125 51.8189 33.625 51.8189 28.75C51.8189 23.75 55.4576 20.375 59.7235 20.375C63.9895 20.375 67.6281 23.75 67.6281 28.75C67.6281 33.625 63.9895 37.125 59.7235 37.125Z" fill="#EA4335"/>
<path d="M128.355 17.875H128.104C126.724 16.25 124.089 14.75 120.702 14.75C113.675 14.75 107.653 20.75 107.653 28.625C107.653 36.375 113.675 42.5 120.702 42.5C124.089 42.5 126.724 41 128.104 39.375H128.355V41.375C128.355 46.625 125.47 49.5 120.953 49.5C117.189 49.5 114.93 46.875 113.926 44.5L108.657 46.75C110.162 50.375 114.303 55 121.078 55C128.23 55 134.378 50.75 134.378 40.5V15.5H128.606V17.875H128.355ZM121.329 37.125C117.063 37.125 113.926 33.5 113.926 28.75C113.926 23.875 117.189 20.375 121.329 20.375C125.47 20.375 128.732 24 128.732 28.875C128.857 33.625 125.595 37.125 121.329 37.125Z" fill="#4285F4"/>
<path d="M90.9654 14.75C83.3118 14.75 76.9128 20.625 76.9128 28.625C76.9128 36.625 83.1863 42.5 90.9654 42.5C98.7445 42.5 105.018 36.75 105.018 28.75C105.018 20.625 98.7445 14.75 90.9654 14.75ZM90.9654 37.125C86.6995 37.125 83.0608 33.625 83.0608 28.75C83.0608 23.75 86.6995 20.375 90.9654 20.375C95.2314 20.375 98.87 23.75 98.87 28.75C98.87 33.625 95.2314 37.125 90.9654 37.125Z" fill="#FBBC05"/>
<path d="M139.02 0.625H145.043V42.625H139.02V0.625Z" fill="#34A853"/>
<path d="M163.612 37.125C160.476 37.125 158.343 35.75 156.837 32.875L175.532 25.25L174.905 23.625C173.775 20.5 170.137 14.75 162.985 14.75C155.833 14.75 149.811 20.375 149.811 28.625C149.811 36.375 155.708 42.5 163.612 42.5C170.011 42.5 173.65 38.625 175.281 36.375L170.513 33.25C168.882 35.625 166.749 37.125 163.612 37.125ZM163.236 20C165.745 20 167.878 21.25 168.506 23L155.959 28.25C155.833 22.5 160.099 20 163.236 20Z" fill="#EA4335"/>
</g>
<defs>
<clipPath id="clip0_518_75">
<rect width="175.532" height="55" fill="white"/>
</clipPath>
</defs>
</svg>
