<svg width="170" height="72" viewBox="0 0 170 72" fill="none" xmlns="http://www.w3.org/2000/svg">
<g clip-path="url(#clip0_699_2463)">
<rect width="170" height="72" rx="6" fill="#845EF7" fill-opacity="0.08"/>
<g clip-path="url(#clip1_699_2463)">
<path d="M69.6426 9H72.1216V11.4492H74.3892V9H76.8683V16.4168H74.3893V13.9332H72.1217V16.4168H69.6427L69.6426 9Z" fill="black"/>
<path d="M80.1282 11.4595H77.9458V9H84.7907V11.4595H82.6074V16.4168H80.1283L80.1282 11.4595Z" fill="black"/>
<path d="M85.8772 9H88.4621L90.0522 11.6061L91.6406 9H94.2265V16.4168H91.7577V12.7406L90.0522 15.3777H90.0095L88.3028 12.7406V16.4168H85.8772V9Z" fill="black"/>
<path d="M95.4602 9H97.9399V13.9653H101.426V16.4168H95.4602V9Z" fill="black"/>
<path d="M69.5075 59.5667L65.9504 19.667H105.019L101.457 59.5697L85.4751 64.0003L69.5075 59.5667Z" fill="#E34E26"/>
<path d="M85.4846 22.9287V60.6114L98.4082 57.0291L101.453 22.9287H85.4846Z" fill="#EF662A"/>
<path d="M73.2283 27.8223L74.5474 42.6208H91.5088L90.9396 48.9682L85.4784 50.4447L80.0276 48.9702L79.6632 44.8947H74.7511L75.4535 52.7511L85.4772 55.5352L95.5138 52.7511L96.8593 37.7279H79.0231L78.5754 32.7164H97.2877H97.3028L97.7411 27.8223H73.2283Z" fill="white"/>
<path d="M85.4847 27.8223H73.2283L74.5474 42.6208H85.4847V37.7279H79.0231L78.5754 32.7164H85.4847V27.8223Z" fill="#EBEBEB"/>
<path d="M85.4846 50.4423L85.4783 50.4445L80.0275 48.97L79.6631 44.8945H74.751L75.4534 52.7509L85.4771 55.535L85.4846 55.5328V50.4423Z" fill="#EBEBEB"/>
</g>
</g>
<defs>
<clipPath id="clip0_699_2463">
<rect width="170" height="72" rx="6" fill="white"/>
</clipPath>
<clipPath id="clip1_699_2463">
<rect width="55" height="55" fill="white" transform="translate(58 9)"/>
</clipPath>
</defs>
</svg>
