<svg width="170" height="72" viewBox="0 0 170 72" fill="none" xmlns="http://www.w3.org/2000/svg">
<g clip-path="url(#clip0_699_2494)">
<rect width="170" height="72" rx="6" fill="#845EF7" fill-opacity="0.08"/>
<g clip-path="url(#clip1_699_2494)">
<path d="M60 11H110V61H60V11Z" fill="#F7DF1E"/>
<path d="M93.5873 50.0625C94.5944 51.7069 95.9047 52.9156 98.2222 52.9156C100.169 52.9156 101.413 51.9426 101.413 50.5982C101.413 48.9871 100.135 48.4164 97.992 47.4791L96.8174 46.9752C93.4269 45.5307 91.1746 43.7212 91.1746 39.8958C91.1746 36.372 93.8595 33.6895 98.0555 33.6895C101.043 33.6895 103.19 34.7291 104.738 37.4514L101.079 39.8006C100.274 38.3561 99.4047 37.7871 98.0555 37.7871C96.6793 37.7871 95.8071 38.6601 95.8071 39.8006C95.8071 41.2101 96.6801 41.7807 98.696 42.6537L99.8706 43.1569C103.863 44.8688 106.117 46.6141 106.117 50.5379C106.117 54.768 102.794 57.0855 98.3309 57.0855C93.9674 57.0855 91.1484 55.0061 89.769 52.2807L93.5873 50.0625ZM76.9896 50.4696C77.7277 51.7791 78.3992 52.8863 80.0135 52.8863C81.5571 52.8863 82.5309 52.2823 82.5309 49.9339V33.9577H87.2293V49.9974C87.2293 54.8625 84.3769 57.0768 80.2135 57.0768C76.4515 57.0768 74.273 55.1299 73.165 52.7851L76.9896 50.4696Z" fill="black"/>
</g>
</g>
<defs>
<clipPath id="clip0_699_2494">
<rect width="170" height="72" rx="6" fill="white"/>
</clipPath>
<clipPath id="clip1_699_2494">
<rect width="50" height="50" fill="white" transform="translate(60 11)"/>
</clipPath>
</defs>
</svg>
