<svg width="64" height="64" viewBox="0 0 64 64" fill="none" xmlns="http://www.w3.org/2000/svg">
<g clip-path="url(#clip0_116_6441)">
<path d="M45.4385 16.6867L26.8769 16.6867C26.3854 16.6953 25.9168 16.8966 25.5722 17.2472C25.2276 17.5979 25.0345 18.0698 25.0345 18.5615C25.0345 19.0531 25.2276 19.5251 25.5722 19.8757C25.9168 20.2264 26.3854 20.4276 26.8769 20.4362L40.9121 20.4362L17.5962 43.7521C17.2445 44.1038 17.047 44.5807 17.047 45.078C17.047 45.5752 17.2445 46.0522 17.5962 46.4038C17.9478 46.7554 18.4247 46.953 18.922 46.953C19.4193 46.953 19.8962 46.7554 20.2478 46.4038L43.5638 23.0878L43.5638 37.123C43.5595 37.3719 43.6047 37.6192 43.697 37.8505C43.7893 38.0817 43.9267 38.2923 44.1012 38.4699C44.2757 38.6474 44.4838 38.7885 44.7134 38.8847C44.943 38.981 45.1895 39.0306 45.4385 39.0306C45.6875 39.0306 45.9339 38.981 46.1636 38.8847C46.3932 38.7885 46.6013 38.6474 46.7758 38.4699C46.9503 38.2923 47.0877 38.0817 47.18 37.8505C47.2722 37.6192 47.3175 37.3719 47.3132 37.123L47.3132 18.5615C47.3131 18.0643 47.1156 17.5875 46.764 17.2359C46.4125 16.8844 45.9357 16.6868 45.4385 16.6867Z" fill="white" fill-opacity="0.25"/>
<g clip-path="url(#clip1_116_6441)">
<path d="M45.7199 15.9541L26.2597 15.9541C25.7443 15.963 25.2531 16.174 24.8918 16.5417C24.5305 16.9093 24.328 17.4041 24.328 17.9196C24.328 18.435 24.5305 18.9298 24.8918 19.2974C25.2531 19.6651 25.7443 19.8761 26.2597 19.885L40.9744 19.885L16.5296 44.3298C16.1609 44.6985 15.9538 45.1985 15.9538 45.7199C15.9538 46.2412 16.1609 46.7412 16.5296 47.1099C16.8982 47.4785 17.3982 47.6856 17.9196 47.6856C18.4409 47.6856 18.9409 47.4785 19.3096 47.1099L43.7544 22.6651L43.7544 37.3798C43.7499 37.6408 43.7973 37.9 43.8941 38.1425C43.9908 38.3849 44.1349 38.6056 44.3178 38.7918C44.5008 38.978 44.719 39.1258 44.9597 39.2268C45.2004 39.3277 45.4589 39.3797 45.7199 39.3797C45.9809 39.3797 46.2393 39.3277 46.48 39.2268C46.7208 39.1259 46.939 38.978 47.1219 38.7918C47.3049 38.6057 47.4489 38.3849 47.5457 38.1425C47.6424 37.9 47.6899 37.6408 47.6854 37.3798V17.9196C47.6853 17.3983 47.4782 16.8984 47.1096 16.5298C46.741 16.1613 46.2411 15.9542 45.7199 15.9541Z" fill="white"/>
</g>
</g>
<defs>
<clipPath id="clip0_116_6441">
<rect width="45" height="45" fill="white" transform="translate(0.360352 31.8193) rotate(-45)"/>
</clipPath>
<clipPath id="clip1_116_6441">
<rect width="47.1787" height="47.1787" fill="white" transform="translate(-1.54053 31.8193) rotate(-45)"/>
</clipPath>
</defs>
</svg>
