<svg width="139" height="158" viewBox="0 0 139 158" fill="none" xmlns="http://www.w3.org/2000/svg">
<path d="M139 79.0146C139 69.8289 127.469 61.1238 109.789 55.7254C113.869 37.7498 112.056 23.4485 104.066 18.8698C102.224 17.7958 100.071 17.2871 97.7193 17.2871V23.5898C99.0226 23.5898 100.071 23.8442 100.949 24.3247C104.802 26.5292 106.474 34.9235 105.171 45.7201C104.859 48.3769 104.349 51.175 103.726 54.0296C98.1726 52.673 92.1095 51.6272 85.7346 50.9489C81.9097 45.7201 77.9431 40.9719 73.9482 36.8171C83.1847 28.2533 91.8545 23.5616 97.7477 23.5616V17.2588C89.9562 17.2588 79.7564 22.7984 69.4433 32.408C59.1303 22.855 48.9305 17.3718 41.139 17.3718V23.6746C47.0039 23.6746 55.702 28.3381 64.9384 36.8454C60.9719 41.0001 57.0053 45.7201 53.2371 50.9489C46.8339 51.6272 40.7707 52.673 35.2175 54.0579C34.5658 51.2315 34.0842 48.49 33.7442 45.8615C32.4126 35.0648 34.0559 26.6705 37.8808 24.4377C38.7307 23.929 39.8357 23.7029 41.139 23.7029V17.4001C38.7591 17.4001 36.6058 17.9088 34.7358 18.9829C26.7744 23.5616 24.9894 37.8346 29.0976 55.7537C11.4747 61.1803 0 69.8572 0 79.0146C0 88.2002 11.5314 96.9054 29.211 102.304C25.1311 120.279 26.9444 134.581 34.9342 139.159C36.7758 140.233 38.9291 140.742 41.309 140.742C49.1005 140.742 59.3002 135.202 69.6133 125.593C79.9264 135.146 90.1262 140.629 97.9177 140.629C100.298 140.629 102.451 140.12 104.321 139.046C112.282 134.468 114.067 120.194 109.959 102.275C127.525 96.8771 139 88.1719 139 79.0146ZM102.111 60.1628C101.063 63.8088 99.7593 67.5678 98.286 71.3269C97.1243 69.0658 95.906 66.8047 94.5744 64.5436C93.2711 62.2826 91.8828 60.078 90.4945 57.93C94.5177 58.5235 98.3993 59.2584 102.111 60.1628ZM89.1345 90.2634C86.9246 94.079 84.658 97.6967 82.3064 101.06C78.0848 101.428 73.8066 101.625 69.5 101.625C65.2218 101.625 60.9435 101.428 56.7503 101.088C54.3987 97.725 52.1038 94.1355 49.8938 90.3482C47.7405 86.6457 45.7856 82.8867 44.0006 79.0993C45.7572 75.312 47.7405 71.5247 49.8655 67.8222C52.0754 64.0066 54.342 60.3889 56.6936 57.0256C60.9152 56.6581 65.1934 56.4603 69.5 56.4603C73.7782 56.4603 78.0565 56.6581 82.2497 56.9973C84.6013 60.3606 86.8963 63.9501 89.1062 67.7374C91.2595 71.4399 93.2144 75.199 94.9994 78.9863C93.2144 82.7736 91.2595 86.5609 89.1345 90.2634ZM98.286 86.5892C99.8159 90.3765 101.119 94.1638 102.196 97.8381C98.4843 98.7425 94.5744 99.5056 90.5228 100.099C91.9111 97.9229 93.2994 95.69 94.6027 93.4007C95.9061 91.1396 97.1243 88.8503 98.286 86.5892ZM69.5567 116.746C66.9217 114.033 64.2868 111.009 61.6802 107.702C64.2301 107.815 66.8367 107.9 69.4717 107.9C72.1349 107.9 74.7699 107.843 77.3482 107.702C74.7982 111.009 72.1633 114.033 69.5567 116.746ZM48.4772 100.099C44.4539 99.5056 40.5724 98.7708 36.8608 97.8663C37.9091 94.2203 39.2124 90.4613 40.6857 86.7022C41.8473 88.9633 43.0656 91.2244 44.3973 93.4855C45.7289 95.7466 47.0889 97.9511 48.4772 100.099ZM69.415 41.2828C72.0499 43.9961 74.6849 47.0203 77.2915 50.3271C74.7415 50.214 72.1349 50.1293 69.5 50.1293C66.8367 50.1293 64.2018 50.1858 61.6235 50.3271C64.1735 47.0203 66.8084 43.9961 69.415 41.2828ZM48.4488 57.93C47.0605 60.1063 45.6722 62.3391 44.3689 64.6284C43.0656 66.8895 41.8473 69.1506 40.6857 71.4117C39.1557 67.6244 37.8524 63.8371 36.7758 60.1628C40.4874 59.2866 44.3973 58.5235 48.4488 57.93ZM22.8078 93.3159C12.778 89.0481 6.28985 83.4519 6.28985 79.0146C6.28985 74.5772 12.778 68.9528 22.8078 64.7132C25.2444 63.6675 27.9077 62.7348 30.6559 61.8586C32.2709 67.3983 34.3958 73.164 37.0308 79.0711C34.4242 84.9499 32.3276 90.6874 30.7409 96.1988C27.936 95.3226 25.2727 94.3616 22.8078 93.3159ZM38.0508 133.704C34.1975 131.5 32.5259 123.106 33.8292 112.309C34.1409 109.652 34.6508 106.854 35.2742 104C40.8274 105.356 46.8906 106.402 53.2654 107.08C57.0903 112.309 61.0569 117.057 65.0518 121.212C55.8153 129.776 47.1455 134.468 41.2523 134.468C39.9774 134.439 38.9007 134.185 38.0508 133.704ZM105.256 112.168C106.587 122.964 104.944 131.359 101.119 133.591C100.269 134.1 99.1643 134.326 97.861 134.326C91.9961 134.326 83.298 129.663 74.0616 121.155C78.0281 117.001 81.9947 112.281 85.763 107.052C92.1661 106.374 98.2293 105.328 103.783 103.943C104.434 106.798 104.944 109.539 105.256 112.168ZM116.164 93.3159C113.727 94.3616 111.064 95.2943 108.316 96.1705C106.701 90.6309 104.576 84.8651 101.941 78.958C104.548 73.0792 106.644 67.3417 108.231 61.8303C111.036 62.7065 113.699 63.6675 116.192 64.7132C126.222 68.981 132.71 74.5772 132.71 79.0146C132.682 83.4519 126.194 89.0764 116.164 93.3159Z" fill="#61DAFB"/>
<path d="M69.4715 91.9305C76.6224 91.9305 82.4195 86.1476 82.4195 79.0141C82.4195 71.8805 76.6224 66.0977 69.4715 66.0977C62.3205 66.0977 56.5234 71.8805 56.5234 79.0141C56.5234 86.1476 62.3205 91.9305 69.4715 91.9305Z" fill="#61DAFB"/>
</svg>
