<svg width="127" height="92" viewBox="0 0 127 92" fill="none" xmlns="http://www.w3.org/2000/svg">
<path d="M127 27.4991C126.953 22.1488 117.075 19.7206 91.5063 19.7206C31.5102 19.7206 16.2895 17.1557 0 0C6.85195 10.3011 10.6011 29.6219 74.0151 28.6607C140.178 27.6405 99.815 45.7355 88.0711 66.1793C109.249 47.2597 126.936 34.7891 127 27.5769V27.4991ZM42.6931 82.4397C42.6931 87.4435 38.6357 91.5057 33.6341 91.5057C28.614 91.5057 24.5555 87.4435 24.5555 82.4397C24.5555 77.4151 28.614 73.3517 33.6341 73.3517C38.6357 73.3517 42.6931 77.4151 42.6931 82.4397ZM84.0091 82.4397C84.0091 87.4435 79.9517 91.5057 74.9501 91.5057C69.9346 91.5057 65.8727 87.4435 65.8727 82.4397C65.8727 77.4151 69.9346 73.3517 74.9501 73.3517C79.9517 73.3517 84.0091 77.4151 84.0091 82.4397Z" fill="url(#paint0_linear_116_6541)"/>
<defs>
<linearGradient id="paint0_linear_116_6541" x1="29086.2" y1="9096.88" x2="29086.2" y2="0" gradientUnits="userSpaceOnUse">
<stop stop-color="#04B6F0"/>
<stop offset="1" stop-color="#3ECAF0"/>
</linearGradient>
</defs>
</svg>
