<svg width="170" height="72" viewBox="0 0 170 72" fill="none" xmlns="http://www.w3.org/2000/svg">
<g clip-path="url(#clip0_116_8367)">
<rect width="170" height="72" rx="6" fill="#845EF7" fill-opacity="0.08"/>
<g clip-path="url(#clip1_116_8367)">
<path d="M68.0644 33.0312C68.0644 28.8067 66.8599 26.6379 64.4506 26.5192C63.4918 26.474 62.5562 26.6266 61.6456 26.9802C60.9189 27.2401 60.4298 27.4978 60.1725 27.758V37.8414C61.7135 38.8086 63.0819 39.2582 64.2754 39.1874C66.8001 39.0201 68.0644 36.9702 68.0644 33.0312ZM71.0362 33.2064C71.0362 35.3526 70.5329 37.1341 69.5204 38.5507C68.3922 40.1541 66.8286 40.9797 64.8295 41.025C63.3224 41.0728 61.7698 40.6008 60.1722 39.611V48.7756L57.5876 47.8537V27.5117C58.0118 26.9915 58.5577 26.5448 59.2192 26.1656C60.7576 25.2692 62.6264 24.8085 64.8266 24.7859L64.8631 24.8224C66.8738 24.7972 68.423 25.6228 69.5117 27.2967C70.5271 28.8322 71.0362 30.8003 71.0362 33.2064ZM86.8314 39.2211C86.8314 42.0998 86.5431 44.0931 85.9664 45.2016C85.3867 46.3097 84.2838 47.1949 82.6551 47.854C81.3346 48.3741 79.9064 48.657 78.3741 48.7051L77.9468 47.0765C79.5049 46.8647 80.6021 46.6524 81.2383 46.4403C82.4909 46.0162 83.3505 45.366 83.8228 44.4949C84.2017 43.7853 84.3882 42.4308 84.3882 40.4262V39.7531C82.6209 40.5564 80.7689 40.955 78.8322 40.955C77.5595 40.955 76.4371 40.5564 75.4699 39.7531C74.384 38.8794 73.8412 37.7712 73.8412 36.428V25.671L76.4258 24.7859V35.6128C76.4258 36.7691 76.7988 37.66 77.5453 38.2849C78.2917 38.9098 79.2589 39.2098 80.4437 39.1869C81.6285 39.1613 82.8979 38.7033 84.2466 37.8068V25.1758H86.8312L86.8314 39.2211ZM96.9203 40.8837C96.6372 40.9076 96.3533 40.9198 96.0692 40.9202C94.6074 40.9202 93.4675 40.5727 92.6535 39.8741C91.8418 39.1758 91.4348 38.2118 91.4348 36.9815V26.8018H89.6646V25.1761H91.4348V20.8582L94.0164 19.9391V25.1761H96.9203V26.8018H94.0164V36.9107C94.0164 37.8808 94.2763 38.5678 94.7965 38.9696C95.2433 39.3003 95.9531 39.4897 96.9201 39.5379V40.8837H96.9203ZM112.569 40.6716H109.984V30.6956C109.984 29.6805 109.747 28.8067 109.275 28.0774C108.729 27.2515 107.971 26.8386 106.998 26.8386C105.813 26.8386 104.332 27.4635 102.553 28.7133V40.6716H99.969V16.826L102.553 16.0117V26.8726C104.205 25.6707 106.009 25.0684 107.968 25.0684C109.337 25.0684 110.445 25.5294 111.294 26.4485C112.145 27.3672 112.569 28.5125 112.569 29.8812L112.569 40.6716ZM126.305 32.6242C126.305 31.001 125.997 29.6608 125.383 28.6004C124.654 27.3083 123.52 26.6266 121.988 26.5561C119.154 26.72 117.74 28.7501 117.74 32.6413C117.74 34.4254 118.034 35.9157 118.628 37.1118C119.386 38.636 120.523 39.3882 122.039 39.3627C124.883 39.3397 126.305 37.0946 126.305 32.6242ZM129.136 32.641C129.136 34.9514 128.545 36.8742 127.366 38.4094C126.068 40.1288 124.275 40.991 121.988 40.991C119.72 40.991 117.952 40.1285 116.677 38.4094C115.521 36.8742 114.944 34.9514 114.944 32.641C114.944 30.4696 115.568 28.6428 116.818 27.1554C118.139 25.5776 119.875 24.7859 122.021 24.7859C124.167 24.7859 125.915 25.5776 127.261 27.1554C128.511 28.6428 129.136 30.4696 129.136 32.641ZM143.953 40.6716H141.368V30.1301C141.368 28.9738 141.021 28.0716 140.325 27.4212C139.629 26.7737 138.702 26.4598 137.545 26.485C136.318 26.5076 135.15 26.9091 134.042 27.6869V40.6716H131.457V27.3675C132.945 26.2848 134.313 25.5776 135.563 25.2468C136.742 24.9388 137.783 24.7859 138.679 24.7859C139.292 24.7859 139.87 24.8451 140.413 24.964C141.428 25.1987 142.254 25.6341 142.889 26.2732C143.599 26.9802 143.953 27.8282 143.953 28.8209V40.6716Z" fill="#646464"/>
<path d="M32.0614 16.9222C30.7316 16.9283 29.4618 17.0417 28.3446 17.2395C25.0531 17.8212 24.4555 19.0382 24.4555 21.283V24.2475H32.2337V25.2356H21.5362C19.2757 25.2356 17.2961 26.5945 16.677 29.1793C15.9628 32.1421 15.9311 33.9909 16.677 37.0846C17.2299 39.3874 18.5505 41.0282 20.811 41.0282H23.4854V37.4745C23.4854 34.9071 25.7067 32.6425 28.3446 32.6425H36.1139C38.2766 32.6425 40.003 30.8619 40.003 28.6899V21.2827C40.003 19.1748 38.2247 17.5911 36.1139 17.2392C34.7774 17.017 33.3913 16.9158 32.0614 16.9222ZM27.8549 19.3062C28.6585 19.3062 29.3144 19.9732 29.3144 20.793C29.3144 21.6099 28.6582 22.2708 27.8549 22.2708C27.0487 22.2708 26.3954 21.6102 26.3954 20.793C26.3954 19.9732 27.0487 19.3062 27.8549 19.3062Z" fill="url(#paint0_linear_116_8367)"/>
<path d="M40.9731 25.2344V28.6883C40.9731 31.3663 38.7028 33.6201 36.1139 33.6201H28.3447C26.2165 33.6201 24.4556 35.4413 24.4556 37.5727V44.9793C24.4556 47.0875 26.2884 48.3274 28.3447 48.932C30.8068 49.6561 33.1679 49.7869 36.1139 48.932C38.0721 48.3651 40.003 47.2239 40.003 44.9793V42.0151H32.2338V41.027H43.8922C46.1529 41.027 46.9951 39.45 47.7813 37.0833C48.5936 34.647 48.559 32.3036 47.7813 29.178C47.2225 26.9277 46.1555 25.2344 43.8922 25.2344H40.9731ZM36.6033 43.9913C37.4095 43.9913 38.0628 44.6518 38.0628 45.469C38.0628 46.2889 37.4095 46.9558 36.6033 46.9558C35.7997 46.9558 35.1438 46.2889 35.1438 45.469C35.1438 44.6521 35.8 43.9913 36.6033 43.9913Z" fill="url(#paint1_linear_116_8367)"/>
<path d="M148.986 22.8721H149.439V20.0302H150.512V19.6914H147.912V20.0302H148.985L148.986 22.8721ZM150.914 22.8721H151.301V20.2765L152.141 22.8718H152.572L153.448 20.2852V22.8721H153.87V19.6917H153.312L152.354 22.4166L151.539 19.6917H150.914V22.8721Z" fill="#646464"/>
<path opacity="0.444" d="M42.7458 53.9668C42.7458 55.0831 38.079 55.9879 32.3219 55.9879C26.5651 55.9879 21.8982 55.0831 21.8982 53.9668C21.8982 52.8504 26.5651 51.9453 32.3219 51.9453C38.079 51.9453 42.7458 52.8504 42.7458 53.9668Z" fill="url(#paint2_radial_116_8367)"/>
</g>
</g>
<defs>
<linearGradient id="paint0_linear_116_8367" x1="15.3622" y1="17.8479" x2="33.2988" y2="33.1304" gradientUnits="userSpaceOnUse">
<stop stop-color="#5A9FD4"/>
<stop offset="1" stop-color="#306998"/>
</linearGradient>
<linearGradient id="paint1_linear_116_8367" x1="40.0292" y1="42.6564" x2="33.5939" y2="33.6396" gradientUnits="userSpaceOnUse">
<stop stop-color="#FFD43B"/>
<stop offset="1" stop-color="#FFE873"/>
</linearGradient>
<radialGradient id="paint2_radial_116_8367" cx="0" cy="0" r="1" gradientUnits="userSpaceOnUse" gradientTransform="translate(32.3185 53.9203) rotate(-90) scale(2.02085 8.88449)">
<stop stop-color="#B8B8B8" stop-opacity="0.498"/>
<stop offset="1" stop-color="#7F7F7F" stop-opacity="0"/>
</radialGradient>
<clipPath id="clip0_116_8367">
<rect width="170" height="72" rx="6" fill="white"/>
</clipPath>
<clipPath id="clip1_116_8367">
<rect width="137.741" height="40" fill="white" transform="translate(16.1294 16)"/>
</clipPath>
</defs>
</svg>
