<svg width="170" height="72" viewBox="0 0 170 72" fill="none" xmlns="http://www.w3.org/2000/svg">
<g clip-path="url(#clip0_116_8403)">
<rect width="170" height="72" rx="6" fill="#845EF7" fill-opacity="0.08"/>
<g clip-path="url(#clip1_116_8403)">
<path d="M107.023 46.1987C107.022 47.0311 106.844 47.7667 106.484 48.3978C106.13 49.0188 105.601 49.5391 104.89 49.9505C99.0262 53.3319 93.1563 56.7028 87.294 60.0876C85.7136 61 84.1812 60.9666 82.6125 60.0411C80.2784 58.6647 68.5922 51.9694 65.1099 49.9524C63.6758 49.1221 62.9779 47.8515 62.9776 46.2002C62.9753 39.4002 62.9776 32.6001 62.9753 25.8C62.9753 24.9859 63.1461 24.2644 63.4903 23.6427C63.8442 23.0032 64.3812 22.4685 65.108 22.0478C68.5905 20.0308 80.2782 13.3361 82.6118 11.9592C84.1812 11.0331 85.7136 11 87.2946 11.9126C93.157 15.2976 99.0273 18.6686 104.892 22.0499C105.619 22.4704 106.156 23.0054 106.51 23.6445C106.854 24.2663 107.025 24.9876 107.025 25.8019C107.025 25.8019 107.025 39.3984 107.023 46.1987Z" fill="#A179DC"/>
<path d="M85.0676 36.0664L63.4905 23.6428C63.8443 23.0032 64.3814 22.4685 65.1082 22.0478C68.5906 20.0308 80.2784 13.3361 82.612 11.9592C84.1814 11.0331 85.7138 11 87.2947 11.9126C93.1572 15.2976 99.0274 18.6686 104.892 22.0499C105.619 22.4704 106.156 23.0054 106.51 23.6445L85.0676 36.0664Z" fill="#280068"/>
<path d="M107.023 46.1993C107.022 47.0317 106.844 47.7673 106.484 48.3984L85.0676 36.0668L106.51 23.6451C106.854 24.2669 107.025 24.9882 107.025 25.8025C107.025 25.8025 107.025 39.399 107.023 46.1993Z" fill="#390091"/>
<path d="M97.7715 40.7109V38.3887H100.094V40.7109H101.255V38.3887H103.577V37.2276H101.255V34.9055H103.577V33.7444H101.255V31.4222H100.094V33.7444H97.7715V31.4222H96.6104V33.7444H94.2883V34.9055H96.6104V37.2276H94.2883V38.3887H96.6104V40.7109H97.7715ZM100.094 37.2278H97.7715V34.9055H100.094V37.2278Z" fill="white"/>
<path d="M85.1148 52.3729C91.1719 52.3729 96.4601 49.0834 99.2927 44.1939L99.2651 44.2409L92.1384 40.1376C90.7345 42.5148 88.1606 44.1192 85.2077 44.1523L85.1147 44.1528C80.612 44.1528 76.9617 40.5025 76.9617 35.9998C76.9602 34.5807 77.331 33.1859 78.037 31.9548C79.4423 29.5014 82.0842 27.8467 85.1148 27.8467C88.1642 27.8467 90.8212 29.5224 92.2193 32.002L92.1853 31.9426L99.3011 27.8203C96.4996 22.9721 91.2838 19.6928 85.2972 19.6275L85.1148 19.6264C79.0387 19.6264 73.7355 22.9363 70.91 27.8517C69.5306 30.2513 68.7415 33.0332 68.7415 35.9998C68.7415 45.0423 76.0718 52.373 85.1147 52.373L85.1148 52.3729Z" fill="white"/>
</g>
</g>
<defs>
<clipPath id="clip0_116_8403">
<rect width="170" height="72" rx="6" fill="white"/>
</clipPath>
<clipPath id="clip1_116_8403">
<rect width="44.44" height="50" fill="white" transform="matrix(1 0 0 -1 62.78 61)"/>
</clipPath>
</defs>
</svg>
