<svg width="170" height="72" viewBox="0 0 170 72" fill="none" xmlns="http://www.w3.org/2000/svg">
<g clip-path="url(#clip0_116_8375)">
<rect width="170" height="72" rx="6" fill="#845EF7" fill-opacity="0.08"/>
<g clip-path="url(#clip1_116_8375)">
<path d="M144.823 30.2383C144.48 30.2383 144.146 30.3092 143.851 30.4763L134.502 35.875C133.898 36.2237 133.53 36.8819 133.53 37.5823V48.3599C133.53 49.0598 133.898 49.7172 134.502 50.0667L136.944 51.4761C138.13 52.0606 138.567 52.0515 139.107 52.0515C140.863 52.0515 141.866 50.9859 141.866 49.134V38.4951C141.866 38.3448 141.736 38.2372 141.588 38.2372H140.417C140.267 38.2372 140.139 38.3448 140.139 38.4951V49.134C140.139 49.9547 139.284 50.7803 137.897 50.0866L135.356 48.598C135.266 48.5492 135.197 48.4628 135.197 48.3599V37.582C135.197 37.4799 135.265 37.3759 135.356 37.3241L144.685 31.9456C144.727 31.921 144.775 31.908 144.823 31.908C144.872 31.908 144.92 31.921 144.962 31.9456L154.291 37.3243C154.38 37.3779 154.45 37.4769 154.45 37.5826V48.3602C154.45 48.4631 154.398 48.5685 154.311 48.6181L144.962 53.9969C144.882 54.0446 144.772 54.0446 144.685 53.9969L142.283 52.5679C142.246 52.5481 142.205 52.5377 142.164 52.5377C142.122 52.5377 142.081 52.5481 142.045 52.5679C141.382 52.9437 141.257 52.9872 140.635 53.203C140.482 53.2565 140.25 53.3395 140.715 53.6002L143.851 55.4457C144.147 55.6163 144.482 55.7054 144.824 55.7039C145.165 55.7061 145.501 55.617 145.796 55.446L155.145 50.067C155.75 49.7152 156.117 49.0601 156.117 48.3602V37.5823C156.117 36.8821 155.75 36.225 155.145 35.8755L145.796 30.4769C145.503 30.3095 145.167 30.2386 144.824 30.2386L144.823 30.2383Z" fill="#83CD29"/>
<path d="M147.324 37.9395C144.662 37.9395 143.077 39.0724 143.077 40.9566C143.077 43.0001 144.65 43.5618 147.205 43.8145C150.262 44.1138 150.5 44.5626 150.5 45.1643C150.5 46.2079 149.668 46.6528 147.702 46.6528C145.231 46.6528 144.688 46.036 144.506 44.807C144.485 44.6752 144.383 44.5687 144.248 44.5687H143.037C142.888 44.5687 142.759 44.6972 142.759 44.8468C142.759 46.42 143.615 48.2804 147.702 48.2804C150.66 48.2804 152.366 47.1193 152.366 45.0848C152.366 43.0683 150.988 42.5268 148.118 42.1475C145.219 41.7637 144.942 41.5759 144.942 40.897C144.942 40.3364 145.177 39.5866 147.324 39.5866C149.243 39.5866 149.952 40.0004 150.242 41.2939C150.267 41.4153 150.374 41.5121 150.5 41.5121H151.711C151.785 41.5121 151.858 41.4664 151.909 41.4128C151.96 41.3557 151.996 41.2915 151.989 41.2145C151.801 38.9872 150.316 37.9395 147.324 37.9395Z" fill="#83CD29"/>
<path d="M89.8634 16.1056C89.7589 16.1057 89.6563 16.133 89.5655 16.1848C89.4753 16.2375 89.4005 16.3129 89.3483 16.4034C89.2961 16.4939 89.2684 16.5964 89.2679 16.7009V31.8849C89.2679 32.0339 89.1986 32.1674 89.0695 32.2421C89.0062 32.279 88.9343 32.2984 88.8611 32.2984C88.7879 32.2984 88.716 32.279 88.6527 32.2421L86.1716 30.8132C85.9906 30.7085 85.7852 30.6533 85.5761 30.6533C85.3671 30.6533 85.1617 30.7085 84.9807 30.8132L75.0764 36.5293C74.7062 36.7431 74.4811 37.1539 74.4811 37.5815V49.014C74.4811 49.441 74.7065 49.8322 75.0764 50.046L84.9807 55.7624C85.1616 55.8674 85.367 55.9227 85.5761 55.9227C85.7853 55.9227 85.9907 55.8674 86.1716 55.7624L96.0759 50.046C96.2572 49.9416 96.4078 49.7913 96.5123 49.61C96.6169 49.4288 96.6718 49.2232 96.6714 49.014V20.5119C96.6712 20.2978 96.6141 20.0876 96.506 19.9028C96.3979 19.7179 96.2427 19.5651 96.0563 19.4598L90.1611 16.1649C90.0687 16.1133 89.9661 16.1042 89.8634 16.1056ZM26.1503 30.3765C25.9616 30.3839 25.784 30.417 25.6146 30.5153L15.7101 36.2317C15.5286 36.3359 15.378 36.4863 15.2734 36.6675C15.1689 36.8488 15.1141 37.0544 15.1148 37.2637L15.1346 52.6068C15.1346 52.8201 15.2447 53.0184 15.4323 53.1227C15.5222 53.1767 15.6251 53.2053 15.7301 53.2053C15.835 53.2053 15.9379 53.1767 16.0279 53.1227L21.9029 49.7486C22.275 49.5274 22.5181 49.1428 22.5181 48.7164V41.5511C22.5181 41.1235 22.7429 40.7313 23.1136 40.5188L25.6143 39.07C25.7951 38.9649 26.0008 38.91 26.2099 38.9111C26.4141 38.9111 26.6237 38.9621 26.8052 39.07L29.3062 40.5188C29.4878 40.623 29.6386 40.7733 29.7432 40.9547C29.8478 41.136 29.9025 41.3418 29.9018 41.5511V48.7161C29.9018 49.1426 30.1473 49.5299 30.517 49.7484L36.392 53.1227C36.4819 53.1767 36.5849 53.2053 36.6898 53.2053C36.7947 53.2053 36.8976 53.1767 36.9876 53.1227C37.0781 53.0703 37.1533 52.9951 37.2056 52.9045C37.2578 52.8139 37.2854 52.7112 37.2855 52.6066L37.3048 37.2637C37.306 37.0543 37.2515 36.8484 37.1469 36.6671C37.0423 36.4857 36.8913 36.3355 36.7095 36.2317L26.8052 30.5153C26.6378 30.417 26.4596 30.3842 26.2695 30.3765H26.1503ZM115.15 30.5153C114.943 30.5153 114.74 30.5677 114.555 30.6741L104.65 36.3906C104.469 36.4949 104.319 36.6453 104.214 36.8265C104.109 37.0077 104.054 37.2133 104.055 37.4226V48.8551C104.055 49.2852 104.297 49.6747 104.67 49.8874L114.495 55.4846C114.858 55.6915 115.301 55.7072 115.666 55.5039L121.621 52.1895C121.81 52.0846 121.937 51.8888 121.938 51.6736C121.939 51.5688 121.912 51.4657 121.86 51.3749C121.807 51.2841 121.732 51.2091 121.641 51.1575L111.677 45.441C111.49 45.3346 111.359 45.1191 111.359 44.905V41.3326C111.359 41.1188 111.492 40.923 111.677 40.8165L114.773 39.03C114.863 38.9776 114.966 38.95 115.071 38.95C115.175 38.95 115.278 38.9776 115.369 39.03L118.465 40.8165C118.555 40.8686 118.631 40.9438 118.683 41.0343C118.735 41.1249 118.763 41.2277 118.762 41.3324V44.1508C118.762 44.2554 118.79 44.3582 118.842 44.4488C118.894 44.5394 118.969 44.6146 119.06 44.6667C119.246 44.774 119.47 44.7743 119.655 44.6667L125.59 41.2137C125.771 41.109 125.922 40.9585 126.026 40.7773C126.131 40.5961 126.186 40.3906 126.186 40.1815V37.4228C126.186 36.9966 125.96 36.6046 125.59 36.3906L115.746 30.6741C115.565 30.5695 115.359 30.5144 115.15 30.5153ZM85.5363 39.0501C85.5881 39.0501 85.6488 39.0628 85.6952 39.0896L89.0894 41.0546C89.1815 41.1078 89.2483 41.2063 89.2483 41.3125V45.2424C89.2483 45.3492 89.1821 45.4474 89.0894 45.5006L85.6952 47.4656C85.6498 47.4915 85.5985 47.5051 85.5463 47.5051C85.4941 47.5051 85.4428 47.4915 85.3975 47.4656L82.0036 45.5006C81.9112 45.4471 81.8447 45.3492 81.8447 45.2424V41.3125C81.8447 41.206 81.9114 41.1084 82.0036 41.0546L85.3975 39.0899C85.4392 39.0639 85.4874 39.0503 85.5365 39.0504L85.5363 39.0501Z" fill="#404137"/>
<path d="M55.903 30.4551C55.6967 30.4551 55.4925 30.5075 55.3077 30.614L45.4034 36.3105C45.033 36.5238 44.8079 36.9354 44.8079 37.3624V48.7949C44.8079 49.2225 45.0332 49.6132 45.4034 49.8272L55.3077 55.5434C55.4886 55.6484 55.694 55.7038 55.9032 55.7038C56.1123 55.7038 56.3178 55.6484 56.4986 55.5434L66.4029 49.8272C66.5842 49.7228 66.7347 49.5723 66.8393 49.3911C66.9438 49.2098 66.9986 49.0042 66.9982 48.7949V37.3624C66.9982 36.9348 66.7731 36.5238 66.4029 36.3105L56.4986 30.614C56.3176 30.5094 56.1121 30.4546 55.903 30.4551ZM115.13 40.6573C115.091 40.6573 115.047 40.6573 115.011 40.6772L113.106 41.7886C113.071 41.8083 113.041 41.8371 113.02 41.8719C112.999 41.9068 112.988 41.9466 112.987 41.9872V44.1704C112.987 44.2526 113.034 44.3279 113.106 44.369L115.011 45.4606C115.083 45.502 115.159 45.502 115.23 45.4606L117.135 44.3687C117.17 44.3489 117.2 44.3202 117.221 44.2854C117.242 44.2506 117.253 44.211 117.254 44.1704V41.9869C117.253 41.9464 117.242 41.9067 117.221 41.872C117.2 41.8372 117.17 41.8084 117.135 41.7886L115.23 40.6769C115.194 40.6562 115.17 40.6573 115.13 40.6573Z" fill="#83CD29"/>
</g>
</g>
<defs>
<clipPath id="clip0_116_8375">
<rect width="170" height="72" rx="6" fill="white"/>
</clipPath>
<clipPath id="clip1_116_8375">
<rect width="141.243" height="40" fill="white" transform="translate(14.8784 16)"/>
</clipPath>
</defs>
</svg>
