<svg width="170" height="72" viewBox="0 0 170 72" fill="none" xmlns="http://www.w3.org/2000/svg">
<g clip-path="url(#clip0_116_8390)">
<rect width="170" height="72" rx="6" fill="#845EF7" fill-opacity="0.08"/>
<g clip-path="url(#clip1_116_8390)">
<path d="M101.5 55.2542H101.255V55.1172H101.914V55.2542H101.671V55.9376H101.5V55.2542ZM102.815 55.2898H102.811L102.568 55.9378H102.457L102.216 55.2898H102.213V55.9378H102.052V55.1174H102.289L102.513 55.6984L102.735 55.1174H102.972V55.9378H102.814L102.815 55.2898Z" fill="#E76F00"/>
<path d="M79.5813 38.4783C79.5813 38.4783 77.8778 39.4689 80.7937 39.8042C84.3262 40.2072 86.1316 40.1494 90.0244 39.4126C90.0244 39.4126 91.0479 40.0543 92.4772 40.6101C83.7505 44.3503 72.727 40.3935 79.5813 38.4783ZM78.515 33.5977C78.515 33.5977 76.6043 35.012 79.5223 35.3138C83.2959 35.7031 86.2759 35.7349 91.4325 34.742C91.4325 34.742 92.1459 35.4651 93.2674 35.8605C82.7161 38.9458 70.9641 36.1038 78.515 33.5977Z" fill="#5382A1"/>
<path d="M87.5047 25.3195C89.655 27.7951 86.9399 30.023 86.9399 30.023C86.9399 30.023 92.3995 27.2044 89.8921 23.6749C87.5502 20.3833 85.7543 18.748 95.4767 13.1094C95.4769 13.1093 80.2157 16.9207 87.5047 25.3195Z" fill="#E76F00"/>
<path d="M99.0464 42.0895C99.0464 42.0895 100.307 43.1283 97.658 43.9318C92.6209 45.4578 76.6928 45.9185 72.268 43.9927C70.6774 43.3006 73.6602 42.3404 74.5985 42.1389C75.577 41.9267 76.1362 41.9662 76.1362 41.9662C74.3673 40.7201 64.7028 44.4129 71.2271 45.4706C89.0199 48.3561 103.662 44.1713 99.0464 42.0895ZM80.4005 28.542C80.4005 28.542 72.2984 30.4664 77.5313 31.1652C79.7408 31.461 84.1454 31.3941 88.248 31.0503C91.601 30.7675 94.9679 30.1662 94.9679 30.1662C94.9679 30.1662 93.7856 30.6726 92.9303 31.2565C84.7028 33.4205 68.8088 32.4137 73.3845 30.2004C77.2541 28.3298 80.4005 28.542 80.4005 28.542ZM94.9345 36.666C103.298 32.32 99.4313 28.1433 96.732 28.7061C96.0705 28.8438 95.7755 28.9631 95.7755 28.9631C95.7755 28.9631 96.0212 28.5784 96.49 28.4119C101.83 26.5346 105.936 33.9487 94.7663 36.8852C94.7663 36.8852 94.896 36.7696 94.9345 36.666Z" fill="#5382A1"/>
<path d="M89.892 4.00391C89.892 4.00391 94.5239 8.63725 85.4988 15.7623C78.2617 21.4776 83.8485 24.7364 85.4958 28.4599C81.2715 24.6482 78.1713 21.2931 80.2512 18.1703C83.3038 13.5864 91.7609 11.3639 89.892 4.00391Z" fill="#E76F00"/>
<path d="M81.2224 48.443C89.2505 48.9569 101.578 48.1579 101.87 44.3594C101.87 44.3594 101.309 45.7993 95.2355 46.943C88.3836 48.2324 79.9323 48.082 74.9199 47.2555C74.9202 47.2553 75.9461 48.1047 81.2224 48.443Z" fill="#5382A1"/>
<path d="M79.9066 62.9574C79.1493 63.6143 78.3495 63.9831 77.6317 63.9831C76.6071 63.9831 76.0536 63.3687 76.0536 62.3833C76.0536 61.3175 76.6468 60.5381 79.026 60.5381H79.9065L79.9066 62.9574ZM81.9964 65.3152V58.0169C81.9964 56.1523 80.933 54.9222 78.3692 54.9222C76.8724 54.9222 75.5613 55.2918 74.4957 55.7631L74.8033 57.055C75.6423 56.7471 76.7284 56.4604 77.7944 56.4604C79.2713 56.4604 79.9066 57.055 79.9066 58.2844V59.207H79.1695C75.5811 59.207 73.9624 60.5999 73.9624 62.6906C73.9624 64.495 75.0292 65.5207 77.0376 65.5207C78.3287 65.5207 79.2924 64.9875 80.1933 64.2075L80.3569 65.3154L81.9964 65.3152ZM88.9704 65.3152H86.3642L83.2274 55.107H85.5036L87.4499 61.3789L87.8825 63.2651C88.8672 60.5379 89.5637 57.771 89.912 55.107H92.1261C91.5328 58.4684 90.4653 62.158 88.9704 65.3152ZM98.9688 62.9574C98.21 63.6143 97.4089 63.9831 96.691 63.9831C95.6682 63.9831 95.1132 63.3687 95.1132 62.3833C95.1132 61.3175 95.7076 60.5381 98.0868 60.5381H98.9688V62.9574ZM101.058 65.3152V58.0169C101.058 56.1523 99.9924 54.9222 97.4313 54.9222C95.9336 54.9222 94.622 55.2918 93.5569 55.7631L93.8641 57.055C94.7034 56.7471 95.7915 56.4604 96.8566 56.4604C98.3325 56.4604 98.9688 57.055 98.9688 58.2844V59.207H98.2304C94.641 59.207 93.0229 60.5999 93.0229 62.6906C93.0229 64.495 94.0888 65.5207 96.0969 65.5207C97.3888 65.5207 98.3522 64.9875 99.2545 64.2075L99.4187 65.3154L101.058 65.3152ZM71.6711 67.0486C71.0754 67.9184 70.1132 68.6065 69.0598 68.9958L68.0281 67.7817C68.8299 67.3703 69.5175 66.7058 69.837 66.0871C70.1133 65.5366 70.2277 64.8273 70.2277 63.1308V51.4766H72.4479V62.9711C72.4478 65.239 72.2665 66.1552 71.6711 67.0486Z" fill="#E76F00"/>
</g>
</g>
<defs>
<clipPath id="clip0_116_8390">
<rect width="170" height="72" rx="6" fill="white"/>
</clipPath>
<clipPath id="clip1_116_8390">
<rect width="34.944" height="65" fill="white" transform="translate(68.0281 4)"/>
</clipPath>
</defs>
</svg>
