<svg width="30" height="30" viewBox="0 0 30 30" fill="none" xmlns="http://www.w3.org/2000/svg">
<g clip-path="url(#clip0_172_8893)">
<path d="M29.6563 14.4361C29.6559 14.4358 29.6556 14.4353 29.6552 14.435L23.532 8.34125C23.0732 7.88474 22.3312 7.88644 21.8746 8.34523C21.4181 8.80396 21.4198 9.54593 21.8786 10.0025L25.9897 14.0937H1.17188C0.524648 14.0937 0 14.6184 0 15.2656C0 15.9128 0.524648 16.4375 1.17188 16.4375H25.9897L21.8786 20.5287C21.4199 20.9853 21.4181 21.7273 21.8747 22.186C22.3313 22.6449 23.0733 22.6464 23.532 22.19L29.6553 16.0962C29.6556 16.0959 29.6559 16.0955 29.6563 16.0951C30.1153 15.637 30.1138 14.8927 29.6563 14.4361Z" fill="#EC696A"/>
</g>
<defs>
<clipPath id="clip0_172_8893">
<rect width="30" height="30" fill="white"/>
</clipPath>
</defs>
</svg>
