<svg width="25" height="24" viewBox="0 0 25 24" fill="none" xmlns="http://www.w3.org/2000/svg">
<path d="M3.4775 15.4688H1.71875V6.00004C1.71875 5.32129 2.0975 4.73254 2.65625 4.43254V13.6875C2.65625 14.4 2.975 15.0413 3.4775 15.4688ZM1.71875 17.25C1.71875 18.2325 2.5175 19.0313 3.5 19.0313H19.25C20.2325 19.0313 21.0312 18.2325 21.0312 17.25V16.0313H1.71875V17.25ZM8.43665 19.5938L7.92103 21.6563H14.8289L14.3133 19.5938H8.43665ZM16.25 22.2188H6.5C6.34471 22.2188 6.21875 22.3448 6.21875 22.5C6.21875 22.6553 6.34471 22.7813 6.5 22.7813H16.25C16.4053 22.7813 16.5312 22.6553 16.5312 22.5C16.5312 22.3448 16.4053 22.2188 16.25 22.2188ZM6.03125 9.09375V3.09375C6.03125 3.04211 6.07336 3 6.125 3H15.875C15.9266 3 15.9688 3.04211 15.9688 3.09375V9.09375C15.9688 9.14539 15.9266 9.1875 15.875 9.1875H6.125C6.07336 9.1875 6.03125 9.14539 6.03125 9.09375ZM13.6162 6.16005L12.7564 7.01993C12.6465 7.1298 12.6465 7.30778 12.7564 7.41761C12.8113 7.47255 12.8831 7.5 12.9552 7.5C13.0274 7.5 13.0991 7.47255 13.1541 7.41761L14.014 6.55774C14.2699 6.30176 14.2699 5.88574 14.014 5.62976L13.1541 4.76989C13.0442 4.66001 12.8662 4.66001 12.7564 4.76989C12.6466 4.87976 12.6465 5.05774 12.7564 5.16758L13.6163 6.02745C13.6529 6.06409 13.6529 6.12345 13.6162 6.16005ZM10.387 8.23901C10.4128 8.2467 10.4388 8.25 10.4644 8.25C10.5868 8.25 10.6994 8.16945 10.7347 8.04604L11.8062 4.29604C11.8489 4.14664 11.7625 3.99098 11.6131 3.94849C11.4642 3.90454 11.308 3.99244 11.2654 4.14146L10.1938 7.89146C10.1512 8.04086 10.2376 8.19653 10.387 8.23901ZM7.98594 6.55774L8.84581 7.41761C8.90075 7.47255 8.97271 7.5 9.04468 7.5C9.11664 7.5 9.1886 7.47255 9.24354 7.41761C9.35341 7.30774 9.35341 7.12976 9.24354 7.01993L8.38385 6.16005C8.34721 6.12341 8.34721 6.06409 8.38366 6.02749L9.24354 5.16761C9.35341 5.05774 9.35341 4.87976 9.24354 4.76993C9.13366 4.66009 8.95569 4.66005 8.84585 4.76993L7.98579 5.6298C7.73034 5.88578 7.7303 6.30176 7.98594 6.55774ZM20.375 11.25H14.75C14.6984 11.25 14.6563 11.2921 14.6563 11.3438V13.5938C14.6563 13.6454 14.6984 13.6875 14.75 13.6875H20.375C20.4267 13.6875 20.4688 13.6454 20.4688 13.5938V11.3438C20.4688 11.2921 20.4267 11.25 20.375 11.25ZM11.75 11.25H6.12504C6.0734 11.25 6.03129 11.2921 6.03129 11.3438V13.5938C6.03129 13.6454 6.0734 13.6875 6.12504 13.6875H11.75C11.8017 13.6875 11.8438 13.6454 11.8438 13.5938V11.3438C11.8438 11.2921 11.8017 11.25 11.75 11.25ZM23.2812 3V13.6875C23.2812 14.6697 22.4822 15.4688 21.5 15.4688H5C4.01784 15.4688 3.21875 14.6697 3.21875 13.6875V3C3.21875 2.01784 4.01784 1.21875 5 1.21875H21.5C22.4822 1.21875 23.2812 2.01784 23.2812 3ZM5.46875 9.09375C5.46875 9.45555 5.7632 9.75 6.125 9.75H15.875C16.2368 9.75 16.5312 9.45555 16.5312 9.09375V3.09375C16.5312 2.73195 16.2368 2.4375 15.875 2.4375H6.125C5.7632 2.4375 5.46875 2.73195 5.46875 3.09375V9.09375ZM12.4062 11.3438C12.4062 10.982 12.1118 10.6875 11.75 10.6875H6.125C5.7632 10.6875 5.46875 10.982 5.46875 11.3438V13.5938C5.46875 13.9556 5.7632 14.25 6.125 14.25H11.75C12.1118 14.25 12.4062 13.9556 12.4062 13.5938V11.3438ZM21.0312 11.3438C21.0312 10.982 20.7368 10.6875 20.375 10.6875H14.75C14.3882 10.6875 14.0938 10.982 14.0938 11.3438V13.5938C14.0938 13.9556 14.3882 14.25 14.75 14.25H20.375C20.7368 14.25 21.0312 13.9556 21.0312 13.5938V11.3438ZM21.0312 7.96875C21.0312 7.81346 20.9053 7.6875 20.75 7.6875H18.5C18.3447 7.6875 18.2188 7.81346 18.2188 7.96875C18.2188 8.12404 18.3447 8.25 18.5 8.25H20.75C20.9053 8.25 21.0312 8.12404 21.0312 7.96875ZM21.0312 5.71875C21.0312 5.56346 20.9053 5.4375 20.75 5.4375H18.5C18.3447 5.4375 18.2188 5.56346 18.2188 5.71875C18.2188 5.87404 18.3447 6 18.5 6H20.75C20.9053 6 21.0312 5.87404 21.0312 5.71875ZM21.0312 3.46875C21.0312 3.31346 20.9053 3.1875 20.75 3.1875H18.5C18.3447 3.1875 18.2188 3.31346 18.2188 3.46875C18.2188 3.62404 18.3447 3.75 18.5 3.75H20.75C20.9053 3.75 21.0312 3.62404 21.0312 3.46875Z" fill="white"/>
</svg>
