<svg width="25" height="24" viewBox="0 0 25 24" fill="none" xmlns="http://www.w3.org/2000/svg">
<path fill-rule="evenodd" clip-rule="evenodd" d="M22.3571 2.37988C22.7394 2.37988 23.0492 2.73019 23.0492 3.16204V13.5236V13.5672H1.97607V13.5236V3.16204C1.97607 2.73006 2.28598 2.37988 2.66819 2.37988H22.3571ZM20.3474 10.477C20.2406 10.3649 20.0633 10.3604 19.9511 10.4671C19.839 10.5738 19.8346 10.7512 19.9413 10.8633L20.5371 11.488L19.9413 12.1127C19.8346 12.2249 19.839 12.4022 19.9511 12.509C20.0632 12.6157 20.2406 12.6112 20.3474 12.4991L21.1133 11.6961L21.1183 11.6914C21.2306 11.5843 21.2348 11.4064 21.1277 11.2941L21.1272 11.2946L20.3474 10.477ZM17.1918 10.8633C17.2985 10.7512 17.294 10.5738 17.1819 10.4671C17.0698 10.3604 16.8924 10.3649 16.7857 10.477L16.0058 11.2946L16.0053 11.2941C15.8981 11.4064 15.9023 11.5842 16.0146 11.6913L16.0196 11.6961L16.7857 12.4991C16.8924 12.6113 17.0698 12.6157 17.1819 12.509C17.294 12.4022 17.2985 12.2249 17.1918 12.1127L16.5959 11.488L17.1918 10.8633ZM19.1753 10.5838C19.2256 10.4377 19.148 10.2785 19.0019 10.2282C18.8559 10.1779 18.6966 10.2556 18.6463 10.4016L17.9576 12.3922C17.9073 12.5383 17.985 12.6975 18.131 12.7478C18.2771 12.7981 18.4363 12.7204 18.4866 12.5744L19.1753 10.5838ZM11.0534 4.32102C10.8983 4.32102 10.7725 4.44682 10.7725 4.60199C10.7725 4.75715 10.8983 4.88295 11.0534 4.88295H21.372C21.5272 4.88295 21.653 4.75715 21.653 4.60199C21.653 4.44682 21.5272 4.32102 21.372 4.32102H11.0534ZM11.0534 6.15874C10.8983 6.15874 10.7725 6.28453 10.7725 6.4397C10.7725 6.59487 10.8983 6.72066 11.0534 6.72066H21.372C21.5272 6.72066 21.653 6.59487 21.653 6.4397C21.653 6.28453 21.5272 6.15874 21.372 6.15874H11.0534ZM11.0534 7.99646C10.8983 7.99646 10.7725 8.12225 10.7725 8.27742C10.7725 8.43259 10.8983 8.55838 11.0534 8.55838H21.372C21.5272 8.55838 21.653 8.43259 21.653 8.27742C21.653 8.12225 21.5272 7.99646 21.372 7.99646H11.0534ZM8.23959 10.477C8.13288 10.3649 7.95553 10.3604 7.84337 10.4671C7.73127 10.5738 7.72681 10.7512 7.83352 10.8633L8.4294 11.488L7.83352 12.1127C7.72681 12.2249 7.73127 12.4022 7.84337 12.509C7.95547 12.6157 8.13288 12.6112 8.23959 12.4991L9.00564 11.6961L9.01066 11.6913C9.12294 11.5842 9.12716 11.4064 9.02002 11.2941L9.01952 11.2946L8.23959 10.477ZM5.08401 10.8633C5.19072 10.7512 5.18625 10.5738 5.07415 10.4671C4.96205 10.3604 4.78464 10.3649 4.67793 10.477L3.89813 11.2946L3.89757 11.2941C3.79049 11.4064 3.7947 11.5842 3.90699 11.6913L3.91201 11.696L4.67793 12.499C4.78464 12.6112 4.96199 12.6156 5.07415 12.5089C5.18625 12.4022 5.19072 12.2248 5.08401 12.1127L4.48819 11.488L5.08401 10.8633ZM7.06772 10.5838C7.11804 10.4377 7.04039 10.2785 6.89433 10.2282C6.74828 10.1779 6.58902 10.2556 6.5387 10.4016L5.84999 12.3922C5.79967 12.5383 5.87732 12.6975 6.02338 12.7478C6.16943 12.7981 6.32869 12.7204 6.37895 12.5744L7.06772 10.5838ZM6.49824 9.13245C6.68104 9.13245 6.84358 9.02283 6.91379 8.85211L7.12027 8.34118C7.1225 8.33592 7.12591 8.33257 7.13117 8.33028C7.13607 8.32805 7.14134 8.32805 7.14654 8.33028L7.65406 8.54462C7.82298 8.61595 8.01595 8.5784 8.14546 8.44888L8.35646 8.23751C8.4856 8.10837 8.52316 7.9154 8.45183 7.74611L8.23786 7.23822C8.23556 7.23295 8.23556 7.22731 8.23786 7.22211C8.23972 7.21684 8.2435 7.21312 8.24721 7.21157L8.76 7.00398C8.92892 6.93451 9.03854 6.77197 9.03854 6.58917V6.29036C9.03854 6.10867 8.92595 5.94198 8.75851 5.8748L8.24833 5.66758C8.24343 5.66572 8.23972 5.66194 8.23742 5.65668C8.23519 5.65178 8.23519 5.64689 8.23742 5.64162L8.45177 5.13262C8.5231 4.96369 8.48554 4.77072 8.3564 4.64121L8.14429 4.42872C8.0144 4.30033 7.82181 4.26358 7.654 4.3341L7.14648 4.54845C7.14121 4.55068 7.13595 4.55068 7.13074 4.54845C7.12547 4.54659 7.12176 4.54281 7.12021 4.53903L6.91299 4.02587C6.84352 3.85658 6.68098 3.74695 6.49817 3.74695L6.19936 3.74689C6.01693 3.74689 5.85402 3.85651 5.78455 4.02655L5.57696 4.53785C5.5751 4.54312 5.57132 4.54646 5.56605 4.54876C5.55893 4.55173 5.55366 4.54987 5.55143 4.54876L5.0428 4.33441C4.87499 4.26383 4.68277 4.30064 4.55139 4.43015L4.33928 4.64264C4.21125 4.77289 4.17451 4.96549 4.24502 5.13293L4.45937 5.64274C4.46123 5.64726 4.46123 5.65209 4.45937 5.65699C4.45714 5.66225 4.45336 5.6656 4.44921 5.66752L3.93915 5.87524C3.77134 5.94204 3.65838 6.10948 3.65838 6.29117V6.58997C3.65838 6.77241 3.768 6.93532 3.93804 7.00516L4.44859 7.21164C4.45386 7.21349 4.4572 7.21727 4.45949 7.22254C4.46173 7.22818 4.46173 7.23345 4.45949 7.23865L4.24515 7.74654C4.1742 7.91435 4.21138 8.10651 4.34052 8.23795L4.55146 8.44932C4.68097 8.57883 4.87394 8.61638 5.04286 8.54506L5.55224 8.33034C5.55409 8.3296 5.55899 8.3273 5.56612 8.33034C5.57138 8.33257 5.57473 8.33635 5.57665 8.3405L5.78387 8.85143C5.85067 9.01961 6.01774 9.13257 6.19943 9.13257H6.49824V9.13245ZM5.55899 7.9001C5.61643 7.9001 5.67388 7.91138 5.72903 7.93387C5.84088 7.97966 5.92801 8.06642 5.9738 8.17827L6.18214 8.69143C6.1848 8.69818 6.19156 8.70345 6.1998 8.70345H6.49861C6.50611 8.70345 6.5136 8.69818 6.51658 8.69105L6.72305 8.17976C6.76959 8.06679 6.85629 7.98004 6.96783 7.93424C7.07931 7.88845 7.20207 7.88882 7.31317 7.93579L7.82106 8.15014C7.82856 8.15311 7.8368 8.152 7.84244 8.14636L8.05338 7.93498C8.05902 7.92935 8.06051 7.92073 8.05716 7.91323L7.84281 7.40535C7.7959 7.29387 7.79553 7.17111 7.84132 7.05963C7.88712 6.94815 7.97381 6.86139 8.08535 6.8156L8.59851 6.60801C8.60489 6.60534 8.61016 6.59784 8.61016 6.59035V6.29154C8.61016 6.2833 8.60489 6.27617 8.59963 6.27431C8.59925 6.27394 8.59851 6.27394 8.59814 6.27357L8.08647 6.0656C7.97387 6.01907 7.88712 5.93237 7.84132 5.82046C7.79553 5.70898 7.79627 5.58659 7.84318 5.47586L8.05716 4.9676C8.06057 4.95973 8.05902 4.95105 8.05338 4.94584L7.8417 4.73379C7.8368 4.7289 7.82782 4.72704 7.82032 4.73001L7.3128 4.94436C7.20132 4.99127 7.07894 4.99201 6.96708 4.94584C6.8556 4.90005 6.76885 4.81336 6.72305 4.70182L6.51583 4.18829C6.51323 4.18191 6.50573 4.17664 6.49824 4.17664H6.19943C6.19193 4.17664 6.18443 4.18191 6.18139 4.18903L5.9738 4.7007C5.92726 4.81367 5.84057 4.90042 5.72866 4.94622C5.61718 4.99201 5.49479 4.99127 5.38443 4.94399L4.87654 4.72964C4.86904 4.7266 4.86005 4.72852 4.85398 4.73453L4.64416 4.94436C4.63926 4.94925 4.6374 4.95861 4.64038 4.96611L4.85473 5.47511C4.90126 5.5851 4.90201 5.70749 4.85665 5.81897C4.81085 5.93082 4.7241 6.01752 4.61262 6.06374L4.09983 6.27208C4.09308 6.27474 4.08781 6.28187 4.08781 6.29011V6.58892C4.08781 6.59642 4.09308 6.60392 4.10021 6.60695L4.61113 6.8138C4.72373 6.86034 4.81048 6.94709 4.85627 7.05857C4.90207 7.17005 4.9017 7.29281 4.85479 7.40429L4.64044 7.91255C4.63747 7.92005 4.63933 7.92941 4.64534 7.93548L4.85516 8.14568C4.8608 8.15131 4.86867 8.15243 4.87654 8.14946L5.38517 7.93511C5.44075 7.91212 5.49969 7.9001 5.55899 7.9001ZM6.34846 7.48454C6.92395 7.48454 7.39243 7.01606 7.39243 6.43983C7.39243 5.86433 6.92395 5.39623 6.34846 5.39623C5.7734 5.39623 5.30567 5.86433 5.30567 6.43983C5.3056 7.01606 5.77334 7.48454 6.34846 7.48454ZM6.34846 5.82529C6.00987 5.82529 5.73467 6.10123 5.73467 6.4402C5.73467 6.77953 6.01018 7.05585 6.34846 7.05585C6.68742 7.05585 6.96337 6.77953 6.96337 6.4402C6.9633 6.10123 6.68742 5.82529 6.34846 5.82529ZM21.54 15.5164C21.6952 15.5164 21.821 15.3906 21.821 15.2354C21.821 15.0802 21.6952 14.9544 21.54 14.9544H20.7937C20.6385 14.9544 20.5127 15.0802 20.5127 15.2354C20.5127 15.3906 20.6385 15.5164 20.7937 15.5164H21.54ZM18.9883 15.5164C19.1434 15.5164 19.2692 15.3906 19.2692 15.2354C19.2692 15.0802 19.1434 14.9544 18.9883 14.9544H18.2419C18.0868 14.9544 17.961 15.0802 17.961 15.2354C17.961 15.3906 18.0868 15.5164 18.2419 15.5164H18.9883ZM16.4364 15.5164C16.5916 15.5164 16.7174 15.3906 16.7174 15.2354C16.7174 15.0802 16.5916 14.9544 16.4364 14.9544H15.6901C15.5349 14.9544 15.4091 15.0802 15.4091 15.2354C15.4091 15.3906 15.5349 15.5164 15.6901 15.5164H16.4364ZM23.0492 14.1291V15.5596C23.0492 15.9916 22.7393 16.3418 22.3571 16.3418H13.8705H11.1547H2.66819C2.28591 16.3418 1.97607 15.9915 1.97607 15.5596V14.1291H23.0492Z" fill="white"/>
<path fill-rule="evenodd" clip-rule="evenodd" d="M11.1548 16.9033H13.8706V18.9555H11.1548V16.9033Z" fill="white"/>
<path fill-rule="evenodd" clip-rule="evenodd" d="M16.8006 20.8973C16.8006 20.1353 16.1829 19.5176 15.4209 19.5176H13.8705H11.1546H9.60408C8.84206 19.5176 8.22437 20.1353 8.22437 20.8973V21.6922H16.8006V20.8973Z" fill="white"/>
</svg>
