<svg width="170" height="72" viewBox="0 0 170 72" fill="none" xmlns="http://www.w3.org/2000/svg">
<g clip-path="url(#clip0_116_8588)">
<rect width="170" height="72" rx="6" fill="#75BAF9" fill-opacity="0.08"/>
<g clip-path="url(#clip1_116_8588)">
<path d="M149.592 47.3936L146.536 47.8009C146.536 47.8009 146.332 46.5792 145.313 45.7647C144.295 44.9502 140.831 45.1539 140.831 47.19C140.831 49.0226 142.257 48.819 145.11 49.4298C147.759 50.0407 150 50.8551 150 54.5202C150 56.5564 148.574 58.9998 144.091 58.9998C136.755 58.9998 137.367 53.5022 137.367 53.5022H140.627C140.627 53.5022 140.831 55.3347 142.053 55.7419C143.48 56.3528 145.925 56.1492 146.332 54.9275C146.74 53.7058 146.74 52.2805 142.868 51.8732C138.997 51.2624 137.367 49.6334 137.367 46.9864C137.571 44.543 138.997 42.5068 144.091 42.5068C149.185 42.7105 149.592 47.3936 149.592 47.3936ZM135.533 47.3936L132.477 47.8009C132.477 47.8009 132.273 46.5792 131.254 45.7647C130.235 44.9502 126.771 45.1539 126.771 47.19C126.771 49.0226 128.198 48.819 131.05 49.4298C133.699 50.0407 135.94 50.8551 135.94 54.5202C135.94 56.5564 134.514 58.9998 130.031 58.9998C122.696 58.9998 123.307 53.5022 123.307 53.5022H126.771C126.771 53.5022 126.975 55.3347 128.197 55.7419C129.624 56.3528 132.069 56.1492 132.477 54.9275C132.884 53.7058 132.884 52.2805 129.013 51.8732C125.549 51.466 123.715 50.0407 123.715 47.8009V46.9864C123.919 44.543 125.345 42.5068 130.235 42.5068C134.922 42.7105 135.533 47.3936 135.533 47.3936ZM118.213 53.0949H121.677V53.2985C121.473 54.5202 120.862 58.7962 114.953 58.7962C109.655 58.7962 107.821 54.7239 107.821 50.4479C107.821 45.9683 110.47 42.7105 115.361 42.7105C120.862 42.7105 121.27 48.0045 121.27 48.0045L118.009 48.4117C118.009 48.4117 117.806 45.5611 114.953 45.5611C112.1 45.5611 111.082 47.8009 111.082 50.4479C111.082 53.0949 111.897 56.1492 114.749 56.1492C117.602 56.1492 118.213 53.0949 118.213 53.0949ZM100.893 43.1177V58.5926H98.0408V57.1673C98.0408 57.1673 97.0219 58.9998 94.5768 58.9998C91.9279 58.9998 90.094 57.7781 89.8903 53.0949C89.8903 48.2081 92.9467 46.9864 94.9843 46.9864C96.8182 46.9864 98.0408 48.4117 98.0408 48.4117V43.1177H100.893ZM98.0408 52.8913C98.0408 51.2624 97.837 49.4298 95.3919 49.4298C92.9467 49.4298 92.9467 52.2805 92.9467 53.0949C92.9467 54.113 93.1505 56.3528 95.3919 56.3528C97.6332 56.3528 98.0408 54.5202 98.0408 52.8913ZM87.6489 50.8551V58.389H84.5925V51.0587C84.5925 50.0407 83.9812 49.2262 82.7586 49.2262C81.5361 49.2262 80.3135 50.2443 80.3135 51.2624V58.389H77.2571V46.9864H80.3135V48.6153C80.3135 48.6153 81.3323 46.5792 84.3887 46.7828C87.8527 47.19 87.6489 50.4479 87.6489 50.8551ZM71.7555 47.19H74.8119V58.5926H71.7555V47.19ZM71.7555 43.1177H74.8119V45.7647H71.7555V43.1177ZM70.5329 47.19L67.2727 58.5926H64.2163L62.1787 51.0587L60.1411 58.5926H57.2884L54.0282 47.19H57.2884L58.9185 54.5202L61.1599 47.19H63.8088L65.6426 54.7239L67.2727 47.19H70.5329ZM49.5455 42.9141H52.6019V58.389H49.5455V42.9141ZM44.0439 47.19H47.1003V58.5926H44.0439V47.19ZM44.0439 43.1177H47.1003V45.7647H44.0439V43.1177ZM41.5987 51.2624V58.389H38.7461V56.9636C38.7461 56.9636 37.931 57.9817 36.7085 58.389C34.8746 58.9998 32.2257 58.5926 31.4107 56.5564C30.7994 54.9275 31.4107 53.0949 33.0408 52.2804C35.0784 51.2624 38.5423 51.466 38.5423 51.466C38.5423 51.466 38.7461 50.6515 38.3386 50.0407C38.1348 49.4298 37.5235 49.2262 36.7085 49.2262C34.6708 49.2262 34.6708 50.6515 34.6708 50.6515L31.8182 50.4479C31.8182 50.4479 31.8182 49.0226 33.2445 48.0045C34.0596 47.3936 35.0784 47.19 36.9122 47.19C39.1536 47.19 41.5987 48.0045 41.5987 51.2624ZM36.9122 56.3528C38.9498 55.9456 38.7461 53.5022 38.7461 53.5022H37.931C37.3197 53.5022 36.5047 53.5022 35.8934 53.7058C34.8746 53.9094 34.4671 54.3166 34.2633 54.7239C34.0596 55.3347 34.2633 55.9456 34.8746 56.3528C35.2821 56.5564 35.8934 56.5564 36.9122 56.3528ZM32.6332 42.9141V45.9683H27.9467V58.5926H24.4828V45.7647H20V42.9141H32.6332Z" fill="#252A2F"/>
<path d="M107.821 18.6832C107.821 18.6832 104.969 22.9591 100.078 22.1447C95.1881 21.3302 94.3731 14 85.6113 14C74.8119 14 73.5894 23.1628 73.5894 23.1628C73.5894 23.1628 76.6458 18.6832 81.3323 19.4977C86.0188 20.3121 87.8527 27.6423 97.4295 27.6423C107.006 27.6423 107.821 18.6832 107.821 18.6832Z" fill="url(#paint0_linear_116_8588)"/>
<path d="M96.4107 32.3258C96.4107 32.3258 93.558 36.6017 88.6677 35.7873C83.7775 34.9728 82.9624 27.6426 74.2007 27.6426C63.4013 27.6426 62.1787 36.8053 62.1787 36.8053C62.1787 36.8053 65.2351 32.3258 69.9217 33.1402C74.4044 33.9547 76.442 41.2849 86.0188 41.2849C95.5956 41.2849 96.4107 32.3258 96.4107 32.3258Z" fill="url(#paint1_linear_116_8588)"/>
</g>
</g>
<defs>
<linearGradient id="paint0_linear_116_8588" x1="73.4936" y1="20.8212" x2="107.803" y2="20.8212" gradientUnits="userSpaceOnUse">
<stop stop-color="#45A9B3"/>
<stop offset="0.389" stop-color="#3FAEB0"/>
<stop offset="1" stop-color="#2CBBAB"/>
</linearGradient>
<linearGradient id="paint1_linear_116_8588" x1="62.0198" y1="34.4637" x2="96.3271" y2="34.4637" gradientUnits="userSpaceOnUse">
<stop stop-color="#45A9B3"/>
<stop offset="0.389" stop-color="#3FAEB0"/>
<stop offset="1" stop-color="#2CBBAB"/>
</linearGradient>
<clipPath id="clip0_116_8588">
<rect width="170" height="72" rx="6" fill="white"/>
</clipPath>
<clipPath id="clip1_116_8588">
<rect width="130" height="45" fill="white" transform="translate(20 14)"/>
</clipPath>
</defs>
</svg>
