<svg width="82" height="82" viewBox="0 0 82 82" fill="none" xmlns="http://www.w3.org/2000/svg">
<rect width="82" height="82" rx="6.83333" fill="#845EF7"/>
<path fill-rule="evenodd" clip-rule="evenodd" d="M58.121 22.6372H23.879C22.5855 22.6388 21.3454 23.1533 20.4307 24.068C19.516 24.9827 19.0015 26.2228 19 27.5163V33.9034H63V27.5163C62.9982 26.2229 62.4836 24.9829 61.569 24.0683C60.6544 23.1537 59.4144 22.6391 58.121 22.6374V22.6372ZM19 36.2099V54.4835C19.0015 55.777 19.5161 57.0171 20.4307 57.9318C21.3454 58.8464 22.5855 59.361 23.879 59.3625H58.121C59.4144 59.3607 60.6544 58.8461 61.569 57.9315C62.4836 57.0169 62.9982 55.7769 63 54.4835V36.2099H19ZM51.2451 43.7178L48.3305 46.6329L51.2449 49.5481C51.352 49.6551 51.4369 49.7822 51.4949 49.9221C51.5529 50.062 51.5828 50.2119 51.5828 50.3633C51.5828 50.5148 51.5531 50.6647 51.4951 50.8046C51.4372 50.9445 51.3523 51.0717 51.2453 51.1788C51.1383 51.2859 51.0112 51.3708 50.8713 51.4288C50.7314 51.4868 50.5815 51.5167 50.4301 51.5167C50.2786 51.5167 50.1287 51.487 49.9888 51.4291C49.8489 51.3711 49.7217 51.2862 49.6146 51.1792L46.6995 48.264L43.7835 51.1791C43.5673 51.3954 43.2739 51.517 42.968 51.517C42.6622 51.517 42.3688 51.3955 42.1525 51.1793C41.9362 50.963 41.8147 50.6697 41.8146 50.3638C41.8146 50.0579 41.9361 49.7646 42.1523 49.5483L45.0685 46.6329L42.1523 43.7176C42.0453 43.6105 41.9603 43.4833 41.9024 43.3434C41.8444 43.2035 41.8146 43.0535 41.8146 42.9021C41.8146 42.7506 41.8445 42.6006 41.9025 42.4607C41.9604 42.3208 42.0454 42.1937 42.1525 42.0866C42.2596 41.9795 42.3868 41.8946 42.5267 41.8366C42.6666 41.7787 42.8166 41.7489 42.968 41.7489C43.1195 41.7489 43.2695 41.7787 43.4094 41.8367C43.5493 41.8947 43.6764 41.9797 43.7835 42.0868L46.6995 45.0018L49.6146 42.0867C49.7217 41.9796 49.8489 41.8947 49.9888 41.8368C50.1287 41.7789 50.2786 41.7491 50.4301 41.7492C50.5815 41.7492 50.7314 41.7791 50.8713 41.837C51.0112 41.895 51.1383 41.98 51.2453 42.0871C51.3523 42.1942 51.4372 42.3213 51.4951 42.4612C51.5531 42.6012 51.5828 42.7511 51.5828 42.9025C51.5828 43.0539 51.5529 43.2039 51.4949 43.3438C51.4369 43.4836 51.352 43.6107 51.2449 43.7178H51.2451ZM39.1901 42.8981V47.133C39.1926 47.7107 39.081 48.2833 38.8617 48.8178C38.6424 49.3523 38.3197 49.8382 37.9121 50.2476C37.5044 50.657 37.02 50.9819 36.4865 51.2036C35.953 51.4252 35.3809 51.5394 34.8032 51.5394C34.2254 51.5394 33.6534 51.4252 33.1199 51.2036C32.5864 50.9819 32.1019 50.657 31.6943 50.2476C31.2867 49.8382 30.9639 49.3523 30.7446 48.8178C30.5253 48.2833 30.4137 47.7107 30.4163 47.133V42.8981C30.4163 42.5923 30.5378 42.299 30.754 42.0828C30.9702 41.8665 31.2635 41.7451 31.5693 41.7451C31.8751 41.7451 32.1684 41.8665 32.3846 42.0828C32.6008 42.299 32.7223 42.5923 32.7223 42.8981V47.133C32.7223 47.6848 32.9415 48.214 33.3317 48.6042C33.7219 48.9944 34.2511 49.2135 34.8029 49.2135C35.3547 49.2135 35.8839 48.9944 36.274 48.6042C36.6642 48.214 36.8834 47.6848 36.8834 47.133V42.8981C36.886 42.5939 37.0087 42.3031 37.2247 42.089C37.4407 41.8748 37.7326 41.7547 38.0367 41.7547C38.3409 41.7547 38.6328 41.8748 38.8488 42.089C39.0648 42.3031 39.1874 42.5939 39.1901 42.8981ZM43.5609 29.4233C43.5609 29.2718 43.5907 29.1219 43.6487 28.982C43.7066 28.8421 43.7915 28.715 43.8986 28.6079C44.0057 28.5008 44.1328 28.4159 44.2727 28.358C44.4126 28.3 44.5625 28.2702 44.714 28.2702H55.9845C56.2886 28.2729 56.5795 28.3955 56.7936 28.6115C57.0078 28.8275 57.1279 29.1194 57.1279 29.4236C57.1279 29.7277 57.0078 30.0196 56.7936 30.2356C56.5795 30.4516 56.2886 30.5743 55.9845 30.5769H44.714C44.5625 30.5769 44.4125 30.547 44.2726 30.4891C44.1327 30.4311 44.0055 30.3461 43.8984 30.239C43.7914 30.1318 43.7064 30.0046 43.6485 29.8647C43.5906 29.7247 43.5609 29.5747 43.5609 29.4233ZM24.8631 29.4233C24.8629 29.2718 24.8926 29.1219 24.9504 28.9819C25.0082 28.842 25.0931 28.7148 25.2002 28.6077C25.3072 28.5006 25.4343 28.4157 25.5742 28.3578C25.7141 28.2999 25.8641 28.2701 26.0155 28.2702H26.0168C26.2449 28.2703 26.4679 28.338 26.6575 28.4648C26.8471 28.5916 26.9949 28.7718 27.0822 28.9825C27.1694 29.1933 27.1922 29.4252 27.1476 29.649C27.103 29.8727 26.9931 30.0781 26.8318 30.2394C26.6704 30.4007 26.4649 30.5104 26.2411 30.5549C26.0174 30.5993 25.7855 30.5764 25.5748 30.489C25.364 30.4017 25.1839 30.2538 25.0573 30.0641C24.9306 29.8744 24.863 29.6514 24.8631 29.4233ZM29.8555 29.4233C29.8553 29.2718 29.8849 29.1219 29.9428 28.982C30.0006 28.842 30.0855 28.7149 30.1925 28.6078C30.2995 28.5007 30.4266 28.4157 30.5665 28.3578C30.7064 28.2999 30.8564 28.2701 31.0078 28.2702H31.0097C31.2378 28.2704 31.4607 28.3382 31.6503 28.4651C31.8398 28.5919 31.9875 28.7721 32.0747 28.9829C32.1618 29.1937 32.1845 29.4256 32.1399 29.6493C32.0953 29.873 31.9853 30.0784 31.8239 30.2396C31.6626 30.4008 31.457 30.5105 31.2333 30.5549C31.0096 30.5993 30.7777 30.5764 30.567 30.489C30.3563 30.4016 30.1763 30.2537 30.0496 30.064C29.9229 29.8743 29.8554 29.6514 29.8555 29.4233ZM34.847 29.4233C34.847 29.1175 34.9684 28.8243 35.1845 28.6081C35.4006 28.3919 35.6938 28.2703 35.9995 28.2702H36.002C36.23 28.2706 36.4529 28.3385 36.6423 28.4655C36.8318 28.5924 36.9793 28.7727 37.0663 28.9835C37.1534 29.1943 37.1759 29.4262 37.1312 29.6498C37.0865 29.8734 36.9765 30.0788 36.8151 30.2399C36.6537 30.401 36.4481 30.5107 36.2244 30.555C36.0007 30.5993 35.7689 30.5763 35.5582 30.4889C35.3476 30.4015 35.1676 30.2536 35.041 30.064C34.9144 29.8743 34.8468 29.6513 34.8469 29.4233H34.847Z" fill="white"/>
</svg>
