<svg width="82" height="82" viewBox="0 0 82 82" fill="none" xmlns="http://www.w3.org/2000/svg">
<rect width="82" height="82" rx="6.83333" fill="#EC696A"/>
<path d="M22.6667 52.0001C22.6667 48.5431 22.6667 46.8147 23.7407 45.7407C24.8146 44.6667 26.5431 44.6667 30.0001 44.6667C33.4571 44.6667 35.1855 44.6667 36.2595 45.7407C37.3334 46.8147 37.3334 48.5431 37.3334 52.0001C37.3334 55.457 37.3334 57.1855 36.2595 58.2594C35.1855 59.3334 33.4571 59.3334 30.0001 59.3334C26.5431 59.3334 24.8146 59.3334 23.7407 58.2594C22.6667 57.1855 22.6667 55.457 22.6667 52.0001Z" fill="white"/>
<path fill-rule="evenodd" clip-rule="evenodd" d="M25.3516 25.3516C22.6667 28.0365 22.6667 32.3577 22.6667 41.0001C22.6667 41.7253 22.6667 42.4202 22.6683 43.086C23.5998 42.4754 24.6263 42.2079 25.6103 42.0755C26.794 41.9164 28.249 41.9166 29.836 41.9167H30.1642C31.7512 41.9166 33.2062 41.9164 34.3899 42.0755C35.6933 42.2508 37.071 42.6631 38.2041 43.7961C39.3371 44.9293 39.7494 46.3068 39.9246 47.6103C40.0838 48.7939 40.0836 50.2491 40.0834 51.836V52.1642C40.0836 53.7513 40.0838 55.2062 39.9246 56.3898C39.7923 57.3739 39.525 58.4002 38.9141 59.3318C39.5802 59.3334 40.2748 59.3334 41.0001 59.3334C49.6424 59.3334 53.9638 59.3334 56.6485 56.6485C59.3334 53.9638 59.3334 49.6424 59.3334 41.0001C59.3334 32.3577 59.3334 28.0365 56.6485 25.3516C53.9638 22.6667 49.6424 22.6667 41.0001 22.6667C32.3577 22.6667 28.0365 22.6667 25.3516 25.3516ZM43.2917 30.4584C42.5324 30.4584 41.9167 31.074 41.9167 31.8334C41.9167 32.5928 42.5324 33.2084 43.2917 33.2084H46.8471L40.0279 40.0279C39.4909 40.5648 39.4909 41.4353 40.0279 41.9723C40.5648 42.5093 41.4353 42.5093 41.9723 41.9723L48.7917 35.153V38.7084C48.7917 39.4678 49.4074 40.0834 50.1667 40.0834C50.9261 40.0834 51.5417 39.4678 51.5417 38.7084V31.8334C51.5417 31.074 50.9261 30.4584 50.1667 30.4584H43.2917Z" fill="white"/>
</svg>
