<svg width="82" height="82" viewBox="0 0 82 82" fill="none" xmlns="http://www.w3.org/2000/svg">
<rect width="82" height="82" rx="6.83333" fill="#FF7D19"/>
<path fill-rule="evenodd" clip-rule="evenodd" d="M43.3878 47.6029L48.7341 38.702C48.7517 38.6727 48.7521 38.6387 48.7353 38.609C48.7185 38.5792 48.6891 38.5621 48.6549 38.5621H45.0907C45.0462 38.5621 45.0089 38.5927 45.0002 38.6363L43.2181 47.5372C43.2092 47.5816 43.2331 47.6251 43.2754 47.6415C43.3176 47.6578 43.3645 47.6417 43.3878 47.6029ZM55.7117 37.5628L56.2228 39.1461C56.3825 39.6407 56.8244 39.9618 57.3442 39.9608L59.0079 39.9576C59.4508 39.9567 59.6357 40.5257 59.2769 40.7854L57.929 41.7608C57.508 42.0654 57.3392 42.585 57.5007 43.079L58.0179 44.6603C58.1551 45.0797 57.6702 45.4319 57.3137 45.1719L55.9696 44.1914C55.5497 43.8851 55.0034 43.8851 54.5835 44.1914L53.2394 45.1719C52.8829 45.4319 52.398 45.0797 52.5352 44.6603L53.0524 43.079C53.2139 42.585 53.0451 42.0654 52.6241 41.7608L51.2762 40.7854C50.9174 40.5258 51.1023 39.9568 51.5452 39.9576L53.209 39.9608C53.7287 39.9618 54.1707 39.6407 54.3303 39.1461L54.8414 37.5628C54.9775 37.1409 55.5755 37.1409 55.7117 37.5628ZM27.1587 37.5628L27.6698 39.1461C27.8295 39.6407 28.2714 39.9618 28.7912 39.9608L30.4549 39.9576C30.8978 39.9567 31.0827 40.5257 30.7239 40.7854L29.376 41.7608C28.9549 42.0654 28.7861 42.585 28.9477 43.079L29.4649 44.6603C29.6021 45.0797 29.1172 45.4319 28.7607 45.1719L27.4166 44.1914C26.9967 43.8851 26.4504 43.8851 26.0305 44.1914L24.6864 45.1719C24.3299 45.4319 23.845 45.0797 23.9822 44.6603L24.4994 43.079C24.6609 42.585 24.4921 42.0654 24.0711 41.7608L22.7232 40.7854C22.3644 40.5258 22.5493 39.9568 22.9921 39.9576L24.6559 39.9608C25.1756 39.9618 25.6176 39.6407 25.7772 39.1461L26.2883 37.5628C26.4245 37.1409 27.0225 37.1409 27.1587 37.5628ZM53.4091 25.8632L53.9202 27.4465C54.0799 27.9411 54.5218 28.2622 55.0416 28.2612L56.7053 28.258C57.1482 28.2571 57.3331 28.8261 56.9743 29.0858L55.6264 30.0612C55.2053 30.3658 55.0365 30.8854 55.1981 31.3794L55.7153 32.9607C55.8525 33.3801 55.3676 33.7323 55.0111 33.4723L53.667 32.4918C53.2471 32.1855 52.7008 32.1855 52.2809 32.4918L50.9368 33.4723C50.5803 33.7323 50.0954 33.3801 50.2326 32.9607L50.7498 31.3794C50.9113 30.8854 50.7425 30.3658 50.3215 30.0612L48.9736 29.0858C48.6148 28.8262 48.7997 28.2572 49.2425 28.258L50.9063 28.2612C51.426 28.2622 51.868 27.9411 52.0276 27.4465L52.5387 25.8632C52.6748 25.4413 53.2729 25.4413 53.4091 25.8632ZM29.4613 25.8632L29.9724 27.4465C30.1321 27.9411 30.574 28.2622 31.0938 28.2612L32.7575 28.258C33.2004 28.2571 33.3853 28.8261 33.0265 29.0858L31.6786 30.0612C31.2575 30.3658 31.0887 30.8854 31.2503 31.3794L31.7675 32.9607C31.9047 33.3801 31.4198 33.7323 31.0633 33.4723L29.7192 32.4918C29.2993 32.1855 28.753 32.1855 28.3332 32.4918L26.9891 33.4723C26.6327 33.7323 26.1477 33.3801 26.285 32.9607L26.8021 31.3794C26.9636 30.8854 26.7948 30.3658 26.3738 30.0612L25.0259 29.0858C24.6671 28.8262 24.852 28.2572 25.2949 28.258L26.9587 28.2612C27.4784 28.2622 27.9204 27.9411 28.08 27.4465L28.5911 25.8632C28.7271 25.4413 29.3252 25.4413 29.4613 25.8632ZM41.4352 21.2579L41.9463 22.8412C42.106 23.3358 42.5479 23.6569 43.0677 23.6559L44.7314 23.6527C45.1743 23.6518 45.3592 24.2208 45.0004 24.4805L43.6525 25.4559C43.2314 25.7605 43.0626 26.2801 43.2242 26.7741L43.7414 28.3554C43.8786 28.7748 43.3937 29.127 43.0372 28.867L41.6931 27.8865C41.2732 27.5802 40.7269 27.5802 40.307 27.8865L38.9629 28.867C38.6065 29.127 38.1215 28.7748 38.2588 28.3554L38.7759 26.7741C38.9374 26.2801 38.7686 25.7605 38.3476 25.4559L36.9997 24.4805C36.6409 24.2209 36.8258 23.6519 37.2687 23.6527L38.9325 23.6559C39.4522 23.6569 39.8942 23.3358 40.0538 22.8412L40.5649 21.2579C40.701 20.8359 41.299 20.8359 41.4352 21.2579ZM25.4153 50.3858H28.0834C28.5726 50.3858 28.9728 50.786 28.9728 51.2751V60.1688C28.9728 60.658 28.5726 61.0581 28.0834 61.0581H25.4153C24.9261 61.0581 24.526 60.6579 24.526 60.1688V51.2751C24.526 50.786 24.9261 50.3858 25.4153 50.3858ZM55.1487 48.1309C55.7931 47.7679 56.588 47.9162 57.0581 48.4871L57.1283 48.5723C57.6343 49.1868 57.5789 50.0838 57.0011 50.6313C54.6025 52.9037 51.2771 55.7357 48.5496 57.504C46.68 58.7161 44.2863 60.1598 42.0255 60.344C40.2319 60.4901 38.457 59.8338 36.6607 59.5748C34.6487 59.2848 32.5429 59.2365 30.4471 59.2443C30.4216 59.2444 30.3996 59.2354 30.3816 59.2174C30.3635 59.1994 30.3544 59.1775 30.3544 59.152V51.3649C30.3544 51.3219 30.3828 51.2856 30.4245 51.2753C30.7295 51.1996 31.0336 51.1212 31.3372 51.0385C33.4893 50.452 34.9869 48.7295 37.371 49.4483L42.789 51.0817C44.4891 51.5944 43.7306 52.9747 42.7996 53.4744C42.5643 53.6007 42.2701 53.6393 41.9737 53.577C38.9434 52.94 37.8495 52.3657 34.8923 53.4681C34.5361 53.6007 34.3549 53.997 34.4875 54.3532C34.6201 54.7093 35.0164 54.8906 35.3726 54.758C36.2858 54.4172 37.3122 54.1466 38.2738 54.2382C39.19 54.3255 40.6461 54.7062 41.6931 54.9263C42.3083 55.0556 42.9353 54.9665 43.4527 54.6889C46.9285 52.8231 51.4477 50.2157 55.1487 48.1309ZM42.4542 33.095H39.5457C39.5053 33.095 39.4709 33.1198 39.4581 33.1581L38.1578 37.0589C38.1481 37.088 38.1526 37.1173 38.1705 37.1421C38.1884 37.167 38.2148 37.1805 38.2454 37.1805H43.7545C43.7852 37.1805 43.8115 37.167 43.8294 37.1421C43.8473 37.1172 43.8518 37.088 43.8421 37.0589L42.5418 33.1581C42.529 33.1198 42.4947 33.095 42.4542 33.095ZM38.416 38.6725C38.4104 38.6444 38.417 38.618 38.4351 38.5958C38.4532 38.5737 38.4779 38.562 38.5065 38.562H43.4933C43.5219 38.562 43.5466 38.5737 43.5647 38.5958C43.5828 38.6179 43.5895 38.6444 43.5838 38.6725L41.488 49.1408C41.4827 49.1673 41.4681 49.188 41.4449 49.2019C41.4218 49.2158 41.3966 49.2189 41.3707 49.2111L40.5247 48.956C40.4912 48.9459 40.4677 48.92 40.4608 48.8857L38.416 38.6725ZM49.4904 37.0228L45.5895 33.122C45.5715 33.104 45.5496 33.095 45.5242 33.095H44.1039C44.0734 33.095 44.0472 33.1083 44.0293 33.1329C44.0113 33.1575 44.0067 33.1866 44.016 33.2156L45.2711 37.1164C45.2836 37.1552 45.3182 37.1805 45.359 37.1805H49.4251C49.4632 37.1805 49.4958 37.1587 49.5104 37.1235C49.525 37.0882 49.5173 37.0498 49.4904 37.0228ZM37.8962 33.095H36.4759C36.4505 33.095 36.4286 33.1041 36.4106 33.122L32.5097 37.0228C32.4827 37.0498 32.4751 37.0882 32.4897 37.1234C32.5043 37.1586 32.5369 37.1804 32.575 37.1804H36.6411C36.6819 37.1804 36.7165 37.1552 36.729 37.1163L37.9841 33.2155C37.9934 33.1865 37.9888 33.1575 37.9708 33.1328C37.9529 33.1083 37.9266 33.095 37.8962 33.095ZM33.2659 38.702L38.6122 47.6029C38.6355 47.6417 38.6824 47.6578 38.7247 47.6415C38.767 47.6252 38.7909 47.5817 38.782 47.5372L36.9999 38.6363C36.9912 38.5927 36.9538 38.5621 36.9093 38.5621H33.3451C33.3109 38.5621 33.2816 38.5792 33.2647 38.609C33.2478 38.6387 33.2483 38.6726 33.2659 38.702Z" fill="white"/>
</svg>
