<svg width="82" height="82" viewBox="0 0 82 82" fill="none" xmlns="http://www.w3.org/2000/svg">
<rect width="82" height="82" rx="6.83333" fill="#AC5FEA"/>
<g clip-path="url(#clip0_193_9867)">
<path d="M43.738 19.0075C43.0292 18.9332 42.386 19.4216 42.2991 20.1265C42.211 20.834 42.712 21.4773 43.4182 21.5654C45.168 21.7831 46.8775 22.4027 48.5002 23.0875C49.1635 23.363 49.9144 23.0523 50.1895 22.4002C50.4652 21.7431 50.1581 20.9877 49.5022 20.7108C47.6605 19.9353 45.7206 19.2542 43.738 19.0075Z" fill="white"/>
<path d="M58.2123 29.476C58.78 29.0454 58.8909 28.236 58.4603 27.6695C57.2531 26.0795 55.8344 24.6608 54.2444 23.4535C53.6767 23.0256 52.8698 23.1326 52.4379 23.7016C52.0074 24.2681 52.1182 25.0775 52.6859 25.5081C54.0896 26.5731 55.3408 27.8243 56.4058 29.2279C56.8378 29.7969 57.646 29.9044 58.2123 29.476Z" fill="white"/>
<path d="M59.5138 31.7246C58.8579 32.0015 58.5508 32.7568 58.8265 33.4139C59.5113 35.0366 60.214 36.832 60.4319 38.5818C60.5164 39.2656 61.1346 39.7866 61.8707 39.7009C62.577 39.6128 63.078 38.9695 62.9898 38.2621C62.7431 36.2794 61.9786 34.2535 61.2032 32.4119C60.9263 31.756 60.1697 31.4526 59.5138 31.7246Z" fill="white"/>
<path d="M32.4977 20.7108C31.8418 20.9878 31.5347 21.7431 31.8104 22.4002C32.0861 23.0537 32.8381 23.3624 33.4997 23.0875C35.1224 22.4027 36.8319 21.7832 38.5817 21.5654C39.288 21.4773 39.789 20.834 39.7008 20.1265C39.6127 19.4216 38.9669 18.9331 38.262 19.0075C36.2793 19.2542 34.3394 19.9353 32.4977 20.7108Z" fill="white"/>
<path d="M41 62.9999C52.0325 62.9999 61.6266 54.6698 62.9899 43.7379C63.0779 43.0317 62.5769 42.3872 61.8708 42.2991C61.1608 42.2198 60.5188 42.712 60.4319 43.4182C59.2285 53.0635 50.7347 60.4218 41 60.4218C30.3375 60.4218 21.5781 51.6624 21.5781 41C21.5781 36.3007 23.4427 31.7273 26.4765 28.2345V28.6613C26.4765 29.3738 27.0531 29.9503 27.7656 29.9503C28.4781 29.9503 29.0547 29.3738 29.0547 28.6613V25.0156C29.0547 24.3031 28.4781 23.7266 27.7656 23.7266H24.1188C23.4063 23.7266 22.8297 24.3031 22.8297 25.0156C22.8297 25.7281 23.4063 26.3038 24.1188 26.3038H24.7396C21.169 30.2962 19 35.5647 19 41C19 53.0836 28.9163 62.9999 41 62.9999Z" fill="white"/>
<path d="M25.4453 41C25.4453 49.53 32.47 56.5547 41 56.5547C49.53 56.5547 56.5547 49.53 56.5547 41C56.5547 32.47 49.53 25.4453 41 25.4453C32.47 25.4453 25.4453 32.47 25.4453 41ZM42.2891 35.8438C42.2891 35.1312 42.8656 34.5547 43.5781 34.5547C44.2906 34.5547 44.8672 35.1312 44.8672 35.8438V39.7109H47.4453V35.8438C47.4453 35.1312 48.0219 34.5547 48.7344 34.5547C49.4469 34.5547 50.0234 35.1312 50.0234 35.8438V46.1562C50.0234 46.8688 49.4469 47.4453 48.7344 47.4453C48.0219 47.4453 47.4453 46.8688 47.4453 46.1562V42.2891H43.5781C42.8656 42.2891 42.2891 41.7125 42.2891 41V35.8438ZM35.8438 37.1328C35.1325 37.1328 34.5547 37.7107 34.5547 38.4219C34.5547 39.1344 33.9781 39.7109 33.2656 39.7109C32.5531 39.7109 31.9766 39.1344 31.9766 38.4219C31.9766 36.2894 33.7113 34.5547 35.8438 34.5547C37.9762 34.5547 39.7109 36.2894 39.7109 38.4219C39.7109 41 37.9951 42.2866 36.6167 43.3201C35.853 43.8932 35.3092 44.3516 34.9639 44.8672H38.4219C39.1344 44.8672 39.7109 45.4437 39.7109 46.1562C39.7109 46.8688 39.1344 47.4453 38.4219 47.4453H33.2656C32.5531 47.4453 31.9766 46.8688 31.9766 46.1562C31.9766 43.5781 33.6924 42.2916 35.0708 41.2581C36.3876 40.2699 37.1328 39.6505 37.1328 38.4219C37.1328 37.7106 36.5551 37.1328 35.8438 37.1328Z" fill="white"/>
</g>
<defs>
<clipPath id="clip0_193_9867">
<rect width="44" height="44" fill="white" transform="translate(19 19)"/>
</clipPath>
</defs>
</svg>
