<svg width="82" height="82" viewBox="0 0 82 82" fill="none" xmlns="http://www.w3.org/2000/svg">
<rect width="82" height="82" rx="6.83333" fill="#E6B33D"/>
<path d="M44.41 29.5875V43.165H46.1336V29.5875C46.1336 29.3325 46.3385 29.1262 46.5922 29.1262H47.2742L45.1257 24.9902L42.9773 29.1262H43.9522C44.2052 29.1262 44.41 29.3325 44.41 29.5875Z" fill="white"/>
<path d="M49.7085 58.856H40.5421C40.2897 58.856 40.0835 59.0629 40.0835 59.3173V61.1632C40.0835 61.4176 40.2891 61.6245 40.5421 61.6245H49.7085C49.9608 61.6245 50.1671 61.4176 50.1671 61.1632V59.3173C50.1671 59.0629 49.9615 58.856 49.7085 58.856Z" fill="white"/>
<path d="M49.7085 47.7803H40.5421C40.2897 47.7803 40.0835 47.9872 40.0835 48.2416V50.0875C40.0835 50.3419 40.2891 50.5488 40.5421 50.5488H49.7085C49.9608 50.5488 50.1671 50.3419 50.1671 50.0875V48.2416C50.1671 47.9872 49.9615 47.7803 49.7085 47.7803Z" fill="white"/>
<path d="M49.7085 51.4722H40.5421C40.2897 51.4722 40.0835 51.6791 40.0835 51.9335V53.7794C40.0835 54.0338 40.2891 54.2407 40.5421 54.2407H49.7085C49.9608 54.2407 50.1671 54.0338 50.1671 53.7794V51.9335C50.1671 51.6791 49.9615 51.4722 49.7085 51.4722Z" fill="white"/>
<path d="M49.7085 55.1641H40.5421C40.2897 55.1641 40.0835 55.371 40.0835 55.6254V57.4713C40.0835 57.7257 40.2891 57.9326 40.5421 57.9326H49.7085C49.9608 57.9326 50.1671 57.7257 50.1671 57.4713V55.6254C50.1671 55.371 49.9615 55.1641 49.7085 55.1641Z" fill="white"/>
<path d="M31.4293 58.7321C31.5324 58.5602 31.6266 58.3822 31.7119 58.1986C32.0976 57.3949 32.2921 56.5307 32.2921 55.6253C32.2921 55.2987 32.2715 55.032 32.2261 54.7859C32.2 54.5384 32.1526 54.3012 32.0701 54.0042C31.7854 52.9887 31.243 52.0702 30.5033 51.3491C30.4998 51.3456 30.495 51.3449 30.4916 51.3415C30.1822 51.03 29.8309 50.7585 29.4534 50.5241C29.4225 50.5048 29.3943 50.4814 29.3634 50.4629C29.2231 50.379 29.0739 50.3096 28.9261 50.2374C28.8553 50.203 28.7886 50.1617 28.7164 50.1301C28.702 50.1239 28.6869 50.1198 28.6724 50.1136C28.4655 50.0256 28.2544 49.9472 28.0392 49.884C27.5504 49.741 27.0609 49.6599 26.5845 49.6434C26.4772 49.6269 26.4209 49.6255 26.3714 49.6255H26.3336C23.048 49.6255 20.375 52.317 20.375 55.6253C20.375 58.9335 23.048 61.6251 26.3336 61.6251C26.9826 61.6251 27.6206 61.5186 28.2297 61.3089C29.5717 60.8606 30.7095 59.9373 31.4293 58.7321ZM25.0768 55.1956L27.6102 55.164C28.0984 55.164 28.4958 55.5641 28.4958 56.0557V57.7772C28.4958 58.2687 28.0984 58.6689 27.6102 58.6689L26.7921 58.6757V59.9284C26.7921 60.1834 26.5872 60.3897 26.3336 60.3897C26.0799 60.3897 25.875 60.1834 25.875 59.9284V58.684L24.9441 58.6922H24.9407C24.6891 58.6922 24.4842 58.488 24.4821 58.2351C24.4801 57.98 24.6836 57.7717 24.9366 57.7696L27.6061 57.7462L27.5786 56.0564L25.0459 56.0873C24.5571 56.0873 24.1597 55.6879 24.1597 55.1956V53.4741C24.1597 52.9826 24.5571 52.5824 25.0459 52.5824H25.875V51.3229C25.875 51.0679 26.0799 50.8616 26.3336 50.8616C26.5872 50.8616 26.7921 51.0679 26.7921 51.3229V52.5824H28.0489C28.3019 52.5824 28.5074 52.7887 28.5074 53.0437C28.5074 53.2988 28.3026 53.505 28.0489 53.505H25.0466L25.0768 55.1956Z" fill="white"/>
<path d="M38.25 58.856H32.4117C32.3904 58.8972 32.3609 58.9336 32.3389 58.9742C32.2241 59.1846 32.0989 59.3881 31.9635 59.584C31.9326 59.6287 31.9044 59.6755 31.8727 59.7201C31.7016 59.9553 31.5159 60.1773 31.3166 60.3884C31.2739 60.4331 31.2286 60.4743 31.1852 60.5183C31.0189 60.6854 30.8449 60.8428 30.6627 60.992C30.6043 61.0395 30.5472 61.0876 30.4874 61.133C30.2578 61.3083 30.0199 61.4733 29.769 61.619C29.7662 61.6204 29.7635 61.6231 29.7607 61.6245H38.25C38.5023 61.6245 38.7086 61.4176 38.7086 61.1632V59.3173C38.7086 59.0629 38.503 58.856 38.25 58.856Z" fill="white"/>
<path d="M32.9515 38.8228V46.8625H34.6751V38.8228C34.6751 38.5678 34.8799 38.3615 35.1336 38.3615H35.8163L33.6672 34.2173L31.5181 38.3615H32.4936C32.7466 38.3615 32.9522 38.5678 32.9522 38.8228H32.9515Z" fill="white"/>
<path d="M38.2499 55.1641H33.194C33.2037 55.3084 33.2085 55.4611 33.2085 55.6254C33.2085 55.9815 33.1727 56.3294 33.1212 56.6738C33.1088 56.7556 33.0957 56.8374 33.0806 56.9192C33.0167 57.2582 32.9349 57.5923 32.82 57.9168C32.818 57.9223 32.818 57.9278 32.8159 57.9333H38.2506C38.5029 57.9333 38.7092 57.7264 38.7092 57.472V55.6261C38.7092 55.3717 38.5036 55.1647 38.2506 55.1647L38.2499 55.1641Z" fill="white"/>
<path d="M38.25 47.7852H29.0836C28.8312 47.7852 28.625 47.9921 28.625 48.2465V49.1031C28.7268 49.1395 28.823 49.1863 28.9227 49.2268C29.0031 49.2598 29.0836 49.2908 29.1626 49.3265C29.3269 49.4015 29.4857 49.4853 29.6432 49.5727C29.7147 49.6118 29.7876 49.6469 29.8577 49.6888C30.0749 49.8195 30.2853 49.9611 30.4854 50.1151C30.5486 50.1639 30.6064 50.2196 30.6683 50.2705C30.7789 50.3619 30.8924 50.4513 30.9962 50.5496H38.25C38.2555 50.5496 38.2603 50.551 38.2658 50.551C38.5071 50.542 38.7079 50.3372 38.7079 50.0931V48.2472C38.7079 47.9928 38.5023 47.7858 38.2493 47.7858L38.25 47.7852Z" fill="white"/>
<path d="M38.2665 51.4756C38.261 51.4756 38.2555 51.477 38.25 51.477H31.8342C31.9717 51.6612 32.0982 51.8537 32.2172 52.0517C32.246 52.0998 32.2708 52.1507 32.299 52.2002C32.4055 52.3886 32.5032 52.5818 32.5925 52.7798C32.6242 52.8499 32.6558 52.92 32.6847 52.9915C32.7871 53.2404 32.8799 53.4941 32.9542 53.7553C33.0023 53.932 33.0408 54.0922 33.0704 54.2407H38.2507C38.503 54.2407 38.7092 54.0338 38.7092 53.7794V51.9335C38.7092 51.6846 38.5112 51.4845 38.2665 51.4756Z" fill="white"/>
<path d="M61.1665 47.7803H52.0001C51.7478 47.7803 51.5415 47.9872 51.5415 48.2416V50.0875C51.5415 50.3419 51.7471 50.5488 52.0001 50.5488H61.1665C61.4188 50.5488 61.6251 50.3419 61.6251 50.0875V48.2416C61.6251 47.9872 61.4195 47.7803 61.1665 47.7803Z" fill="white"/>
<path d="M61.1665 44.0874H52.0001C51.7478 44.0874 51.5415 44.2943 51.5415 44.5487V46.3947C51.5415 46.649 51.7471 46.856 52.0001 46.856H61.1665C61.4188 46.856 61.6251 46.649 61.6251 46.3947V44.5487C61.6251 44.2943 61.4195 44.0874 61.1665 44.0874Z" fill="white"/>
<path d="M61.1665 51.4722H52.0001C51.7478 51.4722 51.5415 51.6791 51.5415 51.9335V53.7794C51.5415 54.0338 51.7471 54.2407 52.0001 54.2407H61.1665C61.4188 54.2407 61.6251 54.0338 61.6251 53.7794V51.9335C61.6251 51.6791 61.4195 51.4722 61.1665 51.4722Z" fill="white"/>
<path d="M49.7085 44.0874H40.5421C40.2897 44.0874 40.0835 44.2943 40.0835 44.5487V46.3947C40.0835 46.649 40.2891 46.856 40.5421 46.856H49.7085C49.9608 46.856 50.1671 46.649 50.1671 46.3947V44.5487C50.1671 44.2943 49.9615 44.0874 49.7085 44.0874Z" fill="white"/>
<path d="M61.1665 40.3955H52.0001C51.7478 40.3955 51.5415 40.6024 51.5415 40.8568V42.7028C51.5415 42.9571 51.7471 43.1641 52.0001 43.1641H61.1665C61.4188 43.1641 61.6251 42.9571 61.6251 42.7028V40.8568C61.6251 40.6024 61.4195 40.3955 61.1665 40.3955Z" fill="white"/>
<path d="M61.1665 55.1641H52.0001C51.7478 55.1641 51.5415 55.371 51.5415 55.6254V57.4713C51.5415 57.7257 51.7471 57.9326 52.0001 57.9326H61.1665C61.4188 57.9326 61.6251 57.7257 61.6251 57.4713V55.6254C61.6251 55.371 61.4195 55.1641 61.1665 55.1641Z" fill="white"/>
<path d="M61.1665 58.856H52.0001C51.7478 58.856 51.5415 59.0629 51.5415 59.3173V61.1632C51.5415 61.4176 51.7471 61.6245 52.0001 61.6245H61.1665C61.4188 61.6245 61.6251 61.4176 61.6251 61.1632V59.3173C61.6251 59.0629 61.4195 58.856 61.1665 58.856Z" fill="white"/>
<path d="M55.8678 24.9723V39.4724H57.5914V24.9723C57.5914 24.7172 57.7962 24.511 58.0499 24.511H58.7319L56.5835 20.375L54.4351 24.511H55.4099C55.6629 24.511 55.8678 24.7172 55.8678 24.9723Z" fill="white"/>
</svg>
