<svg width="55" height="56" viewBox="0 0 55 56" fill="none" xmlns="http://www.w3.org/2000/svg">
<path d="M9.33057 3.34766V10.3161H45.6692V3.34766H9.33057ZM13.6629 7C13.6521 7.05479 13.636 7.1085 13.6135 7.16006C13.592 7.2127 13.5662 7.26211 13.5351 7.3083C13.5039 7.35557 13.4674 7.39961 13.4276 7.43935C13.3879 7.4791 13.3449 7.51455 13.2977 7.5457C13.2504 7.57685 13.201 7.60371 13.1494 7.6252C13.0968 7.64668 13.0431 7.66279 12.9883 7.67461C12.9324 7.68535 12.8766 7.69072 12.8207 7.69072C12.7648 7.69072 12.7079 7.68535 12.6521 7.67461C12.5973 7.66279 12.5436 7.64668 12.492 7.6252C12.4394 7.60371 12.3899 7.57685 12.3438 7.5457C12.2965 7.51455 12.2524 7.4791 12.2127 7.43935C12.1729 7.39961 12.1375 7.35557 12.1053 7.3083C12.0752 7.26211 12.0483 7.2127 12.0269 7.16006C12.0054 7.1085 11.9893 7.05479 11.9774 7C11.9667 6.94414 11.9613 6.88721 11.9613 6.83135C11.9613 6.77549 11.9667 6.71963 11.9774 6.66377C11.9893 6.60898 12.0054 6.55527 12.0269 6.50264C12.0483 6.45107 12.0752 6.40166 12.1053 6.35439C12.1375 6.30713 12.1729 6.26309 12.2127 6.22441C12.2524 6.18467 12.2965 6.14814 12.3438 6.11699C12.3899 6.08584 12.4394 6.06006 12.492 6.03857C12.5436 6.01709 12.5973 5.9999 12.6521 5.98916C12.7638 5.9666 12.8776 5.9666 12.9883 5.98916C13.0431 5.9999 13.0968 6.01709 13.1494 6.03857C13.201 6.06006 13.2504 6.08584 13.2977 6.11699C13.3449 6.14814 13.3879 6.18467 13.4276 6.22441C13.4674 6.26309 13.5039 6.30713 13.5351 6.35439C13.5662 6.40166 13.592 6.45107 13.6135 6.50264C13.636 6.55527 13.6521 6.60898 13.6629 6.66377C13.6747 6.71963 13.6801 6.77549 13.6801 6.83135C13.6801 6.88721 13.6747 6.94414 13.6629 7ZM18.0124 7C18.0017 7.05479 17.9845 7.1085 17.963 7.16006C17.9415 7.2127 17.9157 7.26211 17.8846 7.3083C17.8534 7.35557 17.8169 7.39961 17.7771 7.43935C17.7374 7.4791 17.6944 7.51455 17.6472 7.5457C17.5999 7.57685 17.5505 7.60371 17.4989 7.6252C17.4463 7.64668 17.3926 7.66279 17.3378 7.67461C17.2819 7.68535 17.2261 7.69072 17.1702 7.69072C17.1144 7.69072 17.0574 7.68535 17.0016 7.67461C16.9468 7.66279 16.8931 7.64668 16.8415 7.6252C16.7889 7.60371 16.7395 7.57685 16.6933 7.5457C16.646 7.51455 16.602 7.4791 16.5622 7.43935C16.5225 7.39961 16.487 7.35557 16.4559 7.3083C16.4247 7.26211 16.3979 7.2127 16.3764 7.16006C16.3549 7.1085 16.3388 7.05479 16.327 7C16.3162 6.94414 16.3108 6.88721 16.3108 6.83135C16.3108 6.77549 16.3162 6.71963 16.327 6.66377C16.3388 6.60898 16.3549 6.55527 16.3764 6.50264C16.3979 6.45107 16.4247 6.40166 16.4559 6.35439C16.487 6.30713 16.5225 6.26309 16.5622 6.22441C16.602 6.18467 16.646 6.14814 16.6933 6.11699C16.7395 6.08584 16.7889 6.06006 16.8415 6.03857C16.8931 6.01709 16.9468 5.9999 17.0016 5.98916C17.1133 5.9666 17.2271 5.9666 17.3378 5.98916C17.3926 5.9999 17.4463 6.01709 17.4989 6.03857C17.5505 6.06006 17.5999 6.08584 17.6472 6.11699C17.6944 6.14814 17.7374 6.18467 17.7771 6.22441C17.8169 6.26309 17.8534 6.30713 17.8846 6.35439C17.9157 6.40166 17.9415 6.45107 17.963 6.50264C17.9845 6.55527 18.0017 6.60898 18.0124 6.66377C18.0242 6.71963 18.0296 6.77549 18.0296 6.83135C18.0296 6.88721 18.0242 6.94414 18.0124 7ZM22.3619 7C22.3512 7.05479 22.334 7.1085 22.3125 7.16006C22.291 7.2127 22.2652 7.26211 22.2341 7.3083C22.2029 7.35557 22.1664 7.39961 22.1267 7.43935C22.088 7.4791 22.0439 7.51455 21.9967 7.54678C21.9494 7.57686 21.9 7.60371 21.8484 7.6252C21.7958 7.64668 21.7421 7.66279 21.6873 7.67461C21.6314 7.68535 21.5756 7.69072 21.5197 7.69072C21.4639 7.69072 21.4069 7.68535 21.3511 7.67461C21.2963 7.66279 21.2426 7.64668 21.191 7.6252C21.1384 7.60371 21.089 7.57686 21.0428 7.54678C20.9955 7.51455 20.9515 7.4791 20.9117 7.43935C20.872 7.39961 20.8365 7.35557 20.8043 7.3083C20.7742 7.26211 20.7474 7.2127 20.7259 7.16006C20.7044 7.1085 20.6883 7.05479 20.6765 7C20.6657 6.94414 20.6604 6.88721 20.6604 6.83135C20.6604 6.77549 20.6657 6.71963 20.6765 6.66377C20.6883 6.60898 20.7044 6.55527 20.7259 6.50264C20.7474 6.45107 20.7742 6.40166 20.8043 6.35439C20.8365 6.30713 20.872 6.26309 20.9117 6.22441C20.9515 6.18467 20.9955 6.14814 21.0428 6.11699C21.089 6.08584 21.1384 6.06006 21.191 6.03857C21.2426 6.01709 21.2963 5.9999 21.3511 5.98916C21.4628 5.9666 21.5767 5.9666 21.6873 5.98916C21.7421 5.9999 21.7958 6.01709 21.8484 6.03857C21.9 6.06006 21.9494 6.08584 21.9967 6.11699C22.0439 6.14814 22.088 6.18467 22.1267 6.22441C22.1664 6.26309 22.2029 6.30713 22.2341 6.35439C22.2652 6.40166 22.291 6.45107 22.3125 6.50264C22.334 6.55527 22.3512 6.60898 22.3619 6.66377C22.3727 6.71963 22.3791 6.77549 22.3791 6.83135C22.3791 6.88721 22.3727 6.94414 22.3619 7ZM42.1791 7.69072H26.9563C26.4815 7.69072 26.097 7.30615 26.097 6.83135C26.097 6.35654 26.4815 5.97197 26.9563 5.97197H42.1791C42.6539 5.97197 43.0385 6.35654 43.0385 6.83135C43.0385 7.30615 42.6539 7.69072 42.1791 7.69072Z" fill="white"/>
<path d="M53.2264 46.7832C52.802 50.0961 49.9607 52.6656 46.5286 52.6656H8.47119C5.03906 52.6656 2.19775 50.0961 1.77344 46.7832H18.8847L20.8043 49.6589C20.9644 49.8974 21.2318 50.0413 21.5197 50.0413H33.4801C33.768 50.0413 34.0354 49.8974 34.1955 49.6589L36.1151 46.7832H53.2264Z" fill="white"/>
<path d="M51.6484 22.8942C51.2692 22.8942 50.9341 22.6439 50.8256 22.2798C50.6924 21.8329 50.5141 21.4021 50.296 21.0004C50.1145 20.6652 50.1746 20.2506 50.4432 19.982L51.5958 18.8315L49.7363 16.9742L48.5826 18.1269C48.3141 18.3954 47.9005 18.4556 47.5664 18.274C47.1636 18.057 46.7317 17.8787 46.2838 17.7455C45.9196 17.637 45.6693 17.3019 45.6693 16.9216V15.292H43.0386V16.9216C43.0386 17.3019 42.7894 17.637 42.4241 17.7455C41.9762 17.8787 41.5454 18.057 41.1426 18.274C40.8085 18.4556 40.3949 18.3954 40.1264 18.1269L38.9716 16.9742L37.1132 18.8315L38.2647 19.982C38.5344 20.2506 38.5945 20.6652 38.413 21.0004C38.1949 21.4021 38.0166 21.8329 37.8834 22.2798C37.7749 22.6439 37.4397 22.8942 37.0595 22.8942H35.4277V25.5186H37.0595C37.4397 25.5186 37.7749 25.7688 37.8834 26.133C38.0166 26.5799 38.1949 27.0106 38.413 27.4124C38.5945 27.7476 38.5344 28.1611 38.2647 28.4308L37.1132 29.5813L38.9716 31.4386L40.1264 30.2859C40.3949 30.0174 40.8085 29.9572 41.1426 30.1377C41.5454 30.3558 41.9762 30.5341 42.4241 30.6673C42.7894 30.7758 43.0386 31.1109 43.0386 31.4912V33.1197H45.6693V31.4912C45.6693 31.1109 45.9196 30.7758 46.2838 30.6673C46.7317 30.5341 47.1636 30.3558 47.5664 30.1377C47.9005 29.9572 48.3141 30.0174 48.5826 30.2859L49.7363 31.4386L50.2412 30.9348L50.2788 30.8961L51.5958 29.5813L50.4432 28.4308C50.1746 28.1611 50.1145 27.7476 50.296 27.4124C50.5141 27.0106 50.6924 26.5799 50.8256 26.133C50.9341 25.7688 51.2692 25.5186 51.6484 25.5186H53.2813V22.8942H51.6484ZM44.3545 28.3233C42.0814 28.3233 40.2327 26.4768 40.2327 24.2059C40.2327 21.936 42.0814 20.0895 44.3545 20.0895C46.6265 20.0895 48.4763 21.936 48.4763 24.2059C48.4763 26.4768 46.6265 28.3233 44.3545 28.3233Z" fill="white"/>
<path d="M46.7575 24.2062C46.7575 25.5297 45.679 26.605 44.3544 26.605C43.0289 26.605 41.9514 25.5297 41.9514 24.2062C41.9514 22.8839 43.0289 21.8086 44.3544 21.8086C45.679 21.8086 46.7575 22.8839 46.7575 24.2062Z" fill="white"/>
<path d="M49.1292 33.261L47.8025 31.9365C47.6661 31.9967 47.5275 32.0536 47.3879 32.1073V37.2378C47.3879 37.7126 47.0033 38.0972 46.5285 38.0972H8.47109C7.99629 38.0972 7.61172 37.7126 7.61172 37.2378V19.6367H4.98096V45.0656H19.3443C19.6312 45.0656 19.8997 45.2096 20.0598 45.448L21.9783 48.3237H33.0213L34.9398 45.448C35.0999 45.2096 35.3685 45.0656 35.6553 45.0656H50.0187V33.4641C49.7179 33.5693 49.3698 33.5017 49.1292 33.261ZM46.5285 42.4413H8.47109C7.99629 42.4413 7.61172 42.0557 7.61172 41.5819C7.61172 41.1071 7.99629 40.7226 8.47109 40.7226H46.5285C47.0033 40.7226 47.3879 41.1071 47.3879 41.5819C47.3879 42.0557 47.0033 42.4413 46.5285 42.4413Z" fill="white"/>
<path d="M27.184 22.035C27.184 24.4272 25.6662 26.5703 23.4082 27.3674C23.0644 27.4888 22.8345 27.8132 22.8345 28.1773V36.3779H20.2038V28.1773C20.2038 27.8132 19.9739 27.4888 19.6312 27.3674C17.3721 26.5703 15.8542 24.4272 15.8542 22.035C15.8542 20.1701 16.7587 18.7017 18.485 17.7295V20.9489C18.485 21.1767 18.5763 21.3958 18.7375 21.5569L20.9117 23.729C21.2479 24.0642 21.7915 24.0631 22.1266 23.729L24.3008 21.5569C24.463 21.3958 24.5533 21.1767 24.5533 20.9489V17.7295C26.2806 18.7017 27.184 20.1701 27.184 22.035Z" fill="white"/>
<path d="M35.2891 18.2237C35.1279 18.3849 35.0366 18.6029 35.0366 18.8317C35.0366 19.0595 35.1279 19.2786 35.2891 19.4397L36.6147 20.7632C36.5545 20.8996 36.4976 21.036 36.4449 21.1757H34.5683C34.0935 21.1757 33.7089 21.5603 33.7089 22.0351V26.3781C33.7089 26.8529 34.0935 27.2375 34.5683 27.2375H36.4449C36.4976 27.3761 36.5545 27.5136 36.6147 27.6489L35.2891 28.9734C35.1279 29.1346 35.0366 29.3537 35.0366 29.5814C35.0366 29.8092 35.1279 30.0283 35.2891 30.1895L38.3646 33.2606C38.6997 33.5958 39.2433 33.5958 39.5795 33.2606L40.9062 31.9361C41.0426 31.9963 41.1801 32.0532 41.3197 32.1069V33.9793C41.3197 34.4541 41.7054 34.8387 42.1791 34.8387H45.6692V36.378H24.5533V28.7586C27.1787 27.5759 28.9028 24.9473 28.9028 22.0351C28.9028 19.052 27.1594 16.7617 23.9926 15.5876C23.7294 15.4898 23.434 15.5274 23.203 15.6875C22.9721 15.8486 22.8346 16.1118 22.8346 16.3933V20.5924L21.5197 21.9062L20.2038 20.5924V16.3933C20.2038 16.1118 20.0663 15.8486 19.8354 15.6875C19.6044 15.5274 19.309 15.4898 19.0458 15.5876C15.879 16.7617 14.1355 19.052 14.1355 22.0351C14.1355 24.9473 15.8607 27.5759 18.4851 28.7586V36.378H9.33057V12.0352H45.6692V13.5734H42.1791C41.7054 13.5734 41.3197 13.9591 41.3197 14.4328V16.3063C41.1801 16.36 41.0426 16.4169 40.9062 16.4771L39.5795 15.1525C39.2433 14.8174 38.6997 14.8174 38.3646 15.1525L35.2891 18.2237Z" fill="white"/>
</svg>
