<svg width="55" height="56" viewBox="0 0 55 56" fill="none" xmlns="http://www.w3.org/2000/svg">
<g clip-path="url(#clip0_116_5509)">
<path d="M43.5417 28C47.3387 28 50.4167 24.922 50.4167 21.125C50.4167 17.328 47.3387 14.25 43.5417 14.25C39.7448 14.25 36.6667 17.328 36.6667 21.125C36.6667 24.922 39.7448 28 43.5417 28Z" fill="white"/>
<path d="M11.4583 28C15.2552 28 18.3333 24.922 18.3333 21.125C18.3333 17.328 15.2552 14.25 11.4583 14.25C7.66129 14.25 4.58325 17.328 4.58325 21.125C4.58325 24.922 7.66129 28 11.4583 28Z" fill="white"/>
<path d="M27.4999 25.7083C32.5625 25.7083 36.6666 21.6043 36.6666 16.5417C36.6666 11.4791 32.5625 7.375 27.4999 7.375C22.4373 7.375 18.3333 11.4791 18.3333 16.5417C18.3333 21.6043 22.4373 25.7083 27.4999 25.7083Z" fill="white"/>
<path d="M50.4166 30.292H42.3098C43.1182 31.6841 43.5432 33.2655 43.5416 34.8753V50.917H52.7083C53.316 50.917 53.8989 50.6756 54.3287 50.2458C54.7585 49.816 54.9999 49.2331 54.9999 48.6253V34.8753C54.9999 33.6597 54.517 32.494 53.6575 31.6344C52.7979 30.7749 51.6322 30.292 50.4166 30.292Z" fill="white"/>
<path d="M12.6915 30.292H4.58333C3.36776 30.292 2.20197 30.7749 1.34243 31.6344C0.482886 32.494 0 33.6597 0 34.8753L0 48.6253C0 49.2331 0.241443 49.816 0.671214 50.2458C1.10098 50.6756 1.68388 50.917 2.29167 50.917H11.4583V34.8753C11.4572 33.2654 11.8827 31.684 12.6915 30.292Z" fill="white"/>
<path d="M34.375 25.708H32.0833L27.5 39.458L22.9167 25.708H20.625C18.8016 25.708 17.053 26.4323 15.7636 27.7216C14.4743 29.011 13.75 30.7596 13.75 32.583V53.208C13.75 53.8158 13.9914 54.3987 14.4212 54.8285C14.851 55.2582 15.4339 55.4997 16.0417 55.4997H38.9583C39.5661 55.4997 40.149 55.2582 40.5788 54.8285C41.0086 54.3987 41.25 53.8158 41.25 53.208V32.583C41.25 30.7596 40.5257 29.011 39.2364 27.7216C37.947 26.4323 36.1984 25.708 34.375 25.708Z" fill="white"/>
</g>
<defs>
<clipPath id="clip0_116_5509">
<rect width="55" height="55" fill="white" transform="translate(0 0.5)"/>
</clipPath>
</defs>
</svg>
