<svg width="55" height="56" viewBox="0 0 55 56" fill="none" xmlns="http://www.w3.org/2000/svg">
<path fill-rule="evenodd" clip-rule="evenodd" d="M5.35213 10.788H13.2579C13.2118 10.9543 13.1874 11.1285 13.1874 11.3072V12.1081H5.26104C4.03524 12.1081 3.03837 13.105 3.03837 14.3308V36.6121C3.03837 37.7382 3.95328 38.6531 5.07938 38.6531H32.2821C31.4775 40.0471 31.2809 41.5406 31.8968 43.0557H5.35213C3.35344 43.0557 1.71826 41.4204 1.71826 39.4217V14.422C1.71826 12.4233 3.35355 10.788 5.35213 10.788ZM9.29483 53.7812H41.4118V51.3052C41.4118 49.9434 40.0173 48.8292 38.3129 48.8292H12.3937C10.6893 48.8292 9.29473 49.9434 9.29473 51.3052L9.29483 53.7812ZM18.7845 44.7744V47.1105H31.9221V44.7744H18.7845ZM52.8572 39.6657L45.9867 27.7658C45.4219 26.7874 44.3993 26.197 43.2697 26.197C42.14 26.197 41.1174 26.7874 40.5527 27.7658L33.6821 39.6657C32.4752 41.7559 33.9855 44.3718 36.3992 44.3718H50.1401C52.5537 44.3718 54.064 41.756 52.8572 39.6657ZM42.7676 30.7216H43.1829C43.6511 30.7216 44.0207 31.1047 44.0037 31.5726L43.7961 37.3221C43.7802 37.7638 43.4172 38.1138 42.9752 38.1138C42.5332 38.1138 42.1703 37.7638 42.1543 37.3221L41.9467 31.5726C41.93 31.1047 42.2995 30.7216 42.7676 30.7216ZM42.9754 42.0965C42.3942 42.0965 41.9232 41.6255 41.9232 41.0443C41.9232 40.4632 42.3942 39.9921 42.9754 39.9921C43.5565 39.9921 44.0275 40.4633 44.0275 41.0443C44.0274 41.6255 43.5564 42.0965 42.9754 42.0965ZM35.4489 11.1066L33.9783 10.5406C33.9111 10.5147 33.8647 10.4624 33.8472 10.3925C33.6365 9.55427 33.3036 8.75183 32.8596 8.0104C32.8226 7.94853 32.8183 7.8787 32.8476 7.81285L33.4876 6.37168C33.5245 6.28886 33.5073 6.19669 33.4432 6.13256L31.6727 4.36214C31.6086 4.29801 31.5164 4.28093 31.4336 4.31767L29.992 4.95801C29.9262 4.98723 29.8563 4.98304 29.7945 4.94598C29.0532 4.50222 28.251 4.16932 27.4131 3.95866C27.3432 3.94104 27.2909 3.89475 27.265 3.8275L26.6988 2.35636C26.6662 2.27182 26.589 2.21875 26.4982 2.21875H23.9946C23.9039 2.21875 23.8267 2.27182 23.7941 2.35636L23.2279 3.8275C23.202 3.89475 23.1497 3.94115 23.0797 3.95866C22.2419 4.16932 21.4396 4.50222 20.6984 4.94598C20.6365 4.98304 20.5667 4.98733 20.5009 4.95801L19.0592 4.31767C18.9763 4.28082 18.8842 4.29801 18.82 4.36214L17.0496 6.13256C16.9855 6.19669 16.9684 6.28875 17.0051 6.37168L17.6454 7.81317C17.6746 7.87913 17.6704 7.94885 17.6333 8.01072C17.1895 8.75204 16.8566 9.55427 16.646 10.3924C16.6284 10.4623 16.5821 10.5146 16.5149 10.5405L15.0439 11.1067C14.9593 11.1393 14.9062 11.2165 14.9062 11.3072V13.811C14.9062 13.9016 14.9593 13.9789 15.0439 14.0114L16.5145 14.5774C16.5818 14.6033 16.6282 14.6556 16.6457 14.7256C16.8564 15.5638 17.1893 16.3661 17.6332 17.1076C17.6703 17.1695 17.6745 17.2393 17.6453 17.3052L17.0051 18.7464C16.9684 18.8292 16.9855 18.9213 17.0496 18.9855L18.8201 20.7559C18.8843 20.82 18.9764 20.8371 19.0593 20.8004L20.501 20.16C20.5668 20.1308 20.6367 20.135 20.6985 20.1721C21.4398 20.6158 22.242 20.9487 23.0799 21.1594C23.1498 21.177 23.2021 21.2233 23.228 21.2905L23.7942 22.7616C23.8268 22.8462 23.904 22.8992 23.9947 22.8992H26.4984C26.5891 22.8992 26.6663 22.8461 26.6989 22.7616L27.265 21.291C27.2909 21.2237 27.3432 21.1773 27.4131 21.1598C28.2514 20.9492 29.0537 20.6162 29.7952 20.1723C29.8571 20.1352 29.9269 20.131 29.9928 20.1602L31.4339 20.8004C31.5168 20.8372 31.6089 20.82 31.6731 20.7559L33.4435 18.9854C33.5076 18.9212 33.5247 18.8291 33.488 18.7463L32.8477 17.3045C32.8185 17.2386 32.8227 17.1689 32.8598 17.107C33.3034 16.3657 33.6364 15.5636 33.8471 14.7256C33.8647 14.6556 33.911 14.6033 33.9782 14.5774L35.4493 14.0112C35.5339 13.9787 35.587 13.9014 35.587 13.8108V11.307C35.5867 11.2165 35.5336 11.1392 35.4489 11.1066ZM25.2463 17.9963C22.2431 17.9963 19.809 15.5622 19.809 12.559C19.809 9.55566 22.2431 7.12159 25.2463 7.12159C28.2495 7.12159 30.6837 9.55566 30.6837 12.559C30.6837 15.5623 28.2496 17.9963 25.2463 17.9963ZM5.26104 13.8269C4.98389 13.8269 4.75712 14.0536 4.75712 14.3308V36.6121C4.75712 36.7896 4.90192 36.9344 5.07938 36.9344H33.2745L35.6505 32.8191C34.1741 32.702 32.9295 31.7229 32.3808 30.3647H18.112C16.9077 33.3458 12.9374 33.7008 11.2697 30.9508C11.1826 30.8071 11.2855 30.6245 11.4534 30.6245H14.9813L15.9901 28.8075L14.9813 26.9904L11.4534 26.9903C11.2854 26.9903 11.1826 26.8077 11.2697 26.6641C12.9375 23.9141 16.9077 24.269 18.1121 27.2502H32.3808C33.5836 24.2729 37.5469 23.9137 39.2185 26.6567C40.1159 25.2958 41.6243 24.4784 43.2696 24.4784C44.2437 24.4784 45.1698 24.765 45.9494 25.2812V14.3308C45.9494 14.0536 45.7227 13.8269 45.4454 13.8269H37.3051C37.2986 14.6219 36.8092 15.3295 36.0663 15.6154L35.2883 15.9148C35.1313 16.3847 34.9412 16.8431 34.7198 17.2862L35.0585 18.0487C35.3822 18.7776 35.2226 19.6367 34.6586 20.2007L32.8882 21.9713C32.3242 22.5353 31.4651 22.695 30.7361 22.3712L29.9742 22.0328C29.5308 22.2543 29.0722 22.4446 28.602 22.6016L28.3028 23.379C28.0149 24.127 27.2998 24.618 26.4983 24.618H23.9946C23.1931 24.618 22.478 24.127 22.1901 23.379L21.8907 22.6011C21.4208 22.444 20.9625 22.2539 20.5193 22.0325L19.7569 22.3712C19.0279 22.695 18.1687 22.5353 17.6048 21.9714L15.8342 20.201C15.2702 19.637 15.1107 18.7778 15.4343 18.0489L15.7727 17.2869C15.5512 16.8435 15.3609 16.3849 15.2039 15.9148L14.4265 15.6155C13.6834 15.3295 13.194 14.622 13.1876 13.8269H5.26104ZM39.0156 26.9903H35.5114L34.5027 28.8075L35.5115 30.6245H36.9173L39.0156 26.9903ZM47.6682 27.2408L48.9883 29.5272V14.422C48.9883 12.4233 47.353 10.788 45.3543 10.788H37.2347C37.2809 10.9543 37.3053 11.1285 37.3053 11.3072V12.1081H45.4454C46.6712 12.1081 47.6681 13.105 47.6681 14.3308L47.6682 27.2408Z" fill="white"/>
</svg>
