<svg width="170" height="72" viewBox="0 0 170 72" fill="none" xmlns="http://www.w3.org/2000/svg">
<g clip-path="url(#clip0_116_8743)">
<rect width="170" height="72" rx="6" fill="#845EF7" fill-opacity="0.08"/>
<g clip-path="url(#clip1_116_8743)">
<path d="M40.6559 50.7637C39.8549 50.7637 39.0667 50.4515 38.4774 49.8598L20.2484 31.5887V47.6768C20.2484 49.3823 18.8695 50.764 17.168 50.764C15.4676 50.764 14.0876 49.3821 14.0876 47.6768V24.1351C14.0876 22.8854 14.8393 21.7604 15.9901 21.2826C16.5528 21.0484 17.1722 20.987 17.7698 21.1062C18.3674 21.2254 18.9162 21.5198 19.3465 21.9521L37.5755 40.2232V24.1351C37.5755 22.4296 38.9544 21.0479 40.6559 21.0479C42.3577 21.0479 43.7363 22.4298 43.7363 24.1351V47.6768C43.7359 48.4954 43.4112 49.2804 42.8336 49.8593C42.256 50.4382 41.4728 50.7633 40.6559 50.7637ZM54.9204 21.0776L54.0739 22.6609L47.5276 34.5846L46.6812 36.0901L47.5276 37.594L54.0742 49.1329L54.9587 50.7146H72.094L72.9404 48.9784L77.8307 39.099L80.0253 34.6226H75.0585L62.5449 34.6609C60.9174 34.6387 59.4201 36.1168 59.4201 37.7482C59.4201 39.3793 60.9174 40.8587 62.5449 40.8354L70.0918 40.7971L68.2436 44.5398H58.5402L53.7261 36.0501L58.5784 27.2518H68.9L71.3063 32.2009H77.5064L73.5984 22.8151L72.7506 21.0776H54.9207M86.1267 21.0393C84.5125 21.059 83.0638 22.5484 83.0846 24.1648V32.2101H89.2454V24.1648C89.2648 22.5221 87.7642 21.0184 86.1267 21.0393ZM96.0012 50.8232C95.1845 50.8227 94.4014 50.4972 93.824 49.9183C93.2466 49.3394 92.9222 48.5545 92.9219 47.7359V24.1943C92.9219 22.489 94.3008 21.1073 96.0023 21.1073C97.7041 21.1073 99.0827 22.489 99.0827 24.1946V40.2823L117.312 22.0109C117.743 21.5789 118.292 21.2846 118.889 21.1654C119.487 21.0463 120.106 21.1075 120.669 21.3415C121.232 21.5754 121.712 21.9712 122.051 22.479C122.389 22.9868 122.57 23.5837 122.57 24.1943V47.7359C122.57 49.4409 121.191 50.8229 119.489 50.8229C117.788 50.8229 116.409 49.4409 116.409 47.7357V31.6482L98.1794 49.9193C97.8935 50.2061 97.5538 50.4336 97.18 50.5887C96.8062 50.7438 96.4055 50.8235 96.0009 50.8232M145.388 35.9415L154.97 26.3729C156.175 25.1701 156.179 23.2151 154.977 22.0062C153.777 20.7984 151.828 20.7959 150.622 21.9987L141.025 31.584L131.427 21.9987C130.221 20.7948 128.272 20.7987 127.072 22.0062C125.871 23.2151 125.874 25.1701 127.078 26.3729L136.66 35.9418L127.106 45.4834C125.9 46.6876 125.898 48.6412 127.099 49.8487C127.385 50.1374 127.724 50.3664 128.099 50.5224C128.474 50.6784 128.875 50.7584 129.281 50.7576C130.067 50.7576 130.853 50.4576 131.455 49.8562L141.025 40.2996L150.593 49.8562C150.879 50.1424 151.218 50.3694 151.591 50.5241C151.964 50.6787 152.364 50.7581 152.768 50.7576C153.559 50.7576 154.348 50.4551 154.95 49.8487C156.15 48.6412 156.148 46.6876 154.943 45.4837L145.388 35.9415ZM86.1267 50.7354C84.5125 50.7159 83.0638 49.2265 83.0846 47.6101V34.6871H89.2454V47.6101C89.2648 49.2512 87.7642 50.7551 86.1267 50.7354Z" fill="#009900"/>
</g>
</g>
<defs>
<clipPath id="clip0_116_8743">
<rect width="170" height="72" rx="6" fill="white"/>
</clipPath>
<clipPath id="clip1_116_8743">
<rect width="142" height="30" fill="white" transform="translate(14 21)"/>
</clipPath>
</defs>
</svg>
