<svg width="170" height="72" viewBox="0 0 170 72" fill="none" xmlns="http://www.w3.org/2000/svg">
<g clip-path="url(#clip0_116_8748)">
<rect width="170" height="72" rx="6" fill="#845EF7" fill-opacity="0.08"/>
<path d="M51.0911 26.8655V43.2053C51.0911 43.3519 51.2132 43.4984 51.3598 43.4984C52.2146 43.5717 53.1672 43.5717 54.193 43.4984C55.0234 43.4251 56.0248 43.3274 57.246 43.132C57.1972 43.3763 57.1727 43.6449 57.1727 43.938C57.1727 44.1823 57.1972 44.4998 57.246 44.8173H47.5251V26.841C47.7205 26.8655 47.9404 26.8899 48.2579 26.9387C48.6975 27.012 49.1372 27.012 49.4058 26.9387H50.2851C50.5782 26.9143 50.8713 26.8899 51.0911 26.8655ZM62.7415 27.7692C62.2286 27.8424 61.8866 27.8424 61.6179 27.7692H60.7387C60.4212 27.7203 60.2013 27.6959 60.0059 27.6715V44.8417H63.4009V27.6715C63.2299 27.6959 63.0101 27.7203 62.7415 27.7692ZM66.112 27.6715C66.1364 27.9157 66.1609 28.1599 66.1609 28.4042C66.1609 28.7217 66.1364 28.9904 66.112 29.2346H66.6738C68.2858 29.0392 69.6291 28.9171 70.6549 28.9171C70.8259 28.9171 70.948 29.0392 70.948 29.2102V44.8417H74.2453V29.2102C74.2453 29.0392 74.3674 28.9171 74.5384 28.9171C75.2955 28.9171 76.3702 28.9904 77.738 29.1125C78.0799 29.1613 78.4463 29.1858 78.8371 29.2102C78.7882 28.966 78.7882 28.6973 78.8371 28.4042C78.7882 28.1599 78.7882 27.9157 78.8371 27.6715H66.112ZM81.5481 27.6715V44.8417H90.8294C90.7805 44.5242 90.7561 44.2556 90.7561 44.0113C90.7561 43.7426 90.7805 43.4984 90.8049 43.2542C90.1699 43.3519 89.4616 43.4251 88.7045 43.474C87.8252 43.5472 86.6284 43.5717 85.1141 43.5717C84.9431 43.5717 84.821 43.4496 84.821 43.2786V36.6352C84.821 36.4642 84.9431 36.3421 85.1141 36.3421H87.6054C88.4358 36.3909 89.0952 36.4398 89.7547 36.4886L90.2432 36.5131C90.2188 36.4398 90.2188 36.3665 90.1943 36.2932V35.0964C90.1943 35.072 90.1943 35.0232 90.2188 34.9987C90.2188 34.9743 90.2432 34.9499 90.2432 34.9255C89.3639 35.0232 88.5579 35.072 87.6054 35.072H85.1141C84.9431 35.072 84.821 34.9499 84.821 34.7789V29.1613C84.821 28.9904 84.9431 28.8683 85.1141 28.8683C86.9459 28.8683 88.8754 28.9904 90.8294 29.2346C90.7561 28.966 90.7317 28.6973 90.7317 28.453C90.7317 28.1599 90.7561 27.8913 90.8294 27.6226L81.5481 27.6715ZM104.8 39.5661C104.727 37.4412 103.09 35.5605 99.9396 33.9729C97.5949 32.7761 96.4714 31.6038 96.4714 30.407C96.4714 28.4775 97.5949 27.4028 99.7442 27.3295C101.21 27.3295 102.333 28.1111 103.09 29.6498C103.164 29.3812 103.286 29.0392 103.432 28.5996C103.603 28.1355 103.75 27.7447 103.872 27.4272C102.748 26.7678 101.405 26.377 99.8419 26.3281C95.9585 26.5235 93.9801 28.3309 93.858 31.7992C93.858 34.1439 95.3479 36.0246 98.2788 37.3923C100.721 38.5158 101.967 39.7859 101.967 41.1781C101.82 43.1565 100.648 44.1823 98.4742 44.2556C96.3248 44.1823 95.0059 43.1809 94.493 41.2758H94.4442C94.2976 42.326 94.1022 43.3519 93.8091 44.3288C95.1036 44.8173 96.4469 45.1104 97.8147 45.1593C102.138 45.1837 104.531 43.132 104.8 39.5661ZM110.466 37.0992C110.418 37.0992 110.344 37.1237 110.271 37.1725C110.222 37.2214 110.173 37.2946 110.173 37.3679V44.8417H106.754V27.6715H112.909C116.426 27.6715 118.16 29.0148 118.233 31.7747C118.258 33.2891 117.843 34.4858 117.012 35.3407C115.864 36.5131 113.837 37.1237 111.004 37.1237C110.833 37.0992 110.662 37.0992 110.466 37.0992ZM110.442 36.2444C110.564 36.2688 110.711 36.2688 110.857 36.2688C111.272 36.2688 111.761 36.1955 112.298 36.0246C113.837 35.5849 114.716 34.3149 114.838 32.2632C114.692 29.9429 113.788 28.6484 112.103 28.4286H110.466C110.32 28.4286 110.173 28.5507 110.173 28.7217V35.9757C110.198 36.0978 110.296 36.22 110.442 36.2444ZM131.911 27.6715V44.8417H141.217C141.168 44.5242 141.143 44.2311 141.143 44.0113C141.143 43.7426 141.168 43.474 141.217 43.2542C140.582 43.3519 139.873 43.4251 139.116 43.474C138.237 43.5472 137.064 43.5717 135.526 43.5717C135.379 43.5717 135.233 43.4496 135.233 43.2786V36.6352C135.233 36.4886 135.355 36.3421 135.526 36.3421H138.286C139.312 36.4154 140.264 36.4642 141.119 36.5131C141.094 36.4398 141.095 36.3665 141.07 36.2688V35.072C141.07 35.0476 141.07 34.9988 141.095 34.9743C141.095 34.9499 141.119 34.9255 141.119 34.8766C140.264 34.9743 139.312 35.0232 138.31 35.0232H135.55C135.404 35.0232 135.257 34.9011 135.257 34.7301V29.1125C135.257 28.966 135.379 28.8194 135.55 28.8194C137.382 28.8194 139.312 28.9415 141.29 29.1858C141.217 28.9171 141.192 28.6484 141.192 28.4042C141.192 28.1111 141.217 27.818 141.29 27.5738L131.911 27.6715ZM149.252 44.8417H143.586V27.6715H150.864C155.773 28.0134 158.289 30.6512 158.558 35.7315C158.216 41.4468 155.09 44.5242 149.252 44.8417ZM154.748 35.7559C154.748 31.042 152.623 28.6484 148.446 28.6484H147.176C147.03 28.6484 146.883 28.7706 146.883 28.9415V43.5961C146.883 43.7426 147.005 43.8892 147.176 43.8892H148.3C150.425 43.8892 152.061 43.1809 153.136 41.8131C154.186 40.4698 154.748 38.4181 154.748 35.7559ZM120.163 27.6715V44.8417H129.469C129.42 44.5242 129.395 44.2311 129.395 44.0113C129.395 43.7426 129.42 43.474 129.469 43.2542C128.834 43.3519 128.125 43.4251 127.368 43.474C126.489 43.5472 125.316 43.5717 123.778 43.5717C123.631 43.5717 123.485 43.4496 123.485 43.2786V36.6352C123.485 36.4886 123.607 36.3421 123.778 36.3421H126.538C127.563 36.4154 128.516 36.4642 129.371 36.5131C129.346 36.4398 129.346 36.3665 129.322 36.2688V35.072C129.322 35.0476 129.322 34.9988 129.346 34.9743C129.346 34.9499 129.371 34.9255 129.371 34.8766C128.516 34.9743 127.563 35.0232 126.562 35.0232H123.802C123.656 35.0232 123.509 34.9011 123.509 34.7301V29.1125C123.509 28.966 123.631 28.8194 123.802 28.8194C125.634 28.8194 127.563 28.9415 129.542 29.1858C129.469 28.9171 129.444 28.6484 129.444 28.4042C129.444 28.1111 129.469 27.818 129.542 27.5738L120.163 27.6715Z" fill="#093071"/>
<path d="M38.7326 35.9985L30.6726 27.9629L27.2532 32.3104L30.9413 35.9985C31.2832 36.3404 31.2832 36.9022 30.9413 37.2441L29.8666 38.3188C29.8666 38.3188 30.5993 39.3935 30.6237 39.4667C30.7947 39.8087 30.8191 40.5902 30.3551 40.9322L21.9531 47.3802C21.9531 49.554 21.9531 53.9992 21.9531 53.9992L38.7326 37.2441C39.0745 36.9022 39.0745 36.3404 38.7326 35.9985Z" fill="#5E8CDA"/>
<path d="M20.0478 37.0007C19.7059 36.6588 19.7059 36.097 20.0478 35.7551L21.1225 34.6804L20.3897 33.6301C20.0478 33.1417 20.1455 32.4334 20.634 32.067L29.0359 25.619V19L12.2565 35.7795C11.9145 36.1214 11.9145 36.6832 12.2565 37.0251L20.3165 45.0607L23.7359 40.7132L20.0478 37.0007Z" fill="#093071"/>
<path d="M25.6413 42.3242L21.7578 46.2077L25.6413 42.3242Z" fill="white"/>
<path d="M33.2856 23.0538C33.4077 23.0538 33.5054 23.1271 33.5543 23.2248C33.652 23.3957 33.5299 23.5911 33.4077 23.7377L26.0316 33.0922C25.9339 33.2387 25.9095 33.483 26.0072 33.6295C26.0072 33.6295 29.9883 39.3936 30.1105 39.589C30.257 39.8088 30.2814 40.4439 29.9151 40.7125L18.0693 49.7984C17.8983 49.9205 17.8006 49.9693 17.6785 49.9693C17.5808 49.9693 17.4587 49.8961 17.4098 49.7984C17.3121 49.6274 17.4343 49.432 17.5564 49.2855L24.9814 39.931C25.0791 39.7844 25.1035 39.5402 25.0058 39.3936L20.9025 33.483C20.6338 33.1166 20.7315 32.5792 21.0735 32.3106L32.9192 23.2248C33.0902 23.0538 33.1879 23.0538 33.2856 23.0538ZM33.2856 22.8828C33.1391 22.8828 33.0169 22.9317 32.8216 23.0782L20.9758 32.164C20.5606 32.4816 20.4629 33.1166 20.756 33.5562L24.8592 39.4669C24.9081 39.5646 24.9081 39.7356 24.8348 39.8333L17.4587 49.1878C17.361 49.3099 17.1656 49.5786 17.2877 49.8472C17.361 49.9938 17.5075 50.0915 17.6785 50.0915C17.8739 50.0915 17.996 50.0182 18.167 49.8961L30.0128 40.8102C30.428 40.4927 30.428 39.76 30.2326 39.4913C30.086 39.2959 26.1293 33.5318 26.1293 33.5318C26.0805 33.4341 26.0805 33.2631 26.1293 33.1654L33.5054 23.8109C33.6031 23.6888 33.7985 23.4446 33.6764 23.1515C33.6031 23.0049 33.4566 22.8828 33.2856 22.8828Z" fill="#5E8CDA"/>
<path d="M29.8421 39.5886C29.9398 39.7352 30.0131 40.2725 29.7932 40.4679L17.9475 49.5537C17.8498 49.627 17.7765 49.6759 17.7521 49.6759C17.7032 49.6759 17.7521 49.6026 17.8498 49.456L25.2015 40.126C25.3969 39.8817 25.3969 39.4909 25.2259 39.2467L21.1226 33.336C21.1226 33.3116 29.7444 39.4421 29.8421 39.5886Z" fill="#F5CD21"/>
<path d="M29.8417 39.5888L25.7872 33.7759C25.6163 33.5316 25.6407 33.1408 25.8117 32.8966L33.1878 23.5421C33.2855 23.3955 33.3343 23.3223 33.2855 23.3223C33.2611 23.3223 33.1878 23.3467 33.0901 23.4444L21.2443 32.5302C21.0001 32.7012 20.9512 33.0676 21.1222 33.3118L29.8417 39.5888Z" fill="#FDDD75"/>
</g>
<defs>
<clipPath id="clip0_116_8748">
<rect width="170" height="72" rx="6" fill="white"/>
</clipPath>
</defs>
</svg>
